ISO-10303-21;
HEADER;
/* Generated by software containing ST-Developer
 * from STEP Tools, Inc. (www.steptools.com) 
 */

FILE_DESCRIPTION(
/* description */ (''),
/* implementation_level */ '2;1');

FILE_NAME(
/* name */ 'battery hatch.step',
/* time_stamp */ '2026-08-31T17:54:05+09:00',
/* author */ (''),
/* organization */ (''),
/* preprocessor_version */ 'ST-DEVELOPER v20.1',
/* originating_system */ 'Autodesk Translation Framework v15.8.0.0',
/* authorisation */ '');

FILE_SCHEMA (('AUTOMOTIVE_DESIGN { 1 0 10303 214 3 1 1 }'));
ENDSEC;

DATA;
#10=MECHANICAL_DESIGN_GEOMETRIC_PRESENTATION_REPRESENTATION('',(#13),#1443);
#11=SHAPE_REPRESENTATION_RELATIONSHIP('SRR','None',#1450,#12);
#12=ADVANCED_BREP_SHAPE_REPRESENTATION('',(#14),#1442);
#13=STYLED_ITEM('',(#1459),#14);
#14=MANIFOLD_SOLID_BREP('\X2\BCF8CCB4\X0\1',#879);
#15=CYLINDRICAL_SURFACE('',#901,0.209999999999999);
#16=CYLINDRICAL_SURFACE('',#903,0.21);
#17=CYLINDRICAL_SURFACE('',#905,0.21);
#18=CYLINDRICAL_SURFACE('',#907,0.210000000000001);
#19=CYLINDRICAL_SURFACE('',#915,0.250000027784457);
#20=CYLINDRICAL_SURFACE('',#919,0.25000000372529);
#21=CYLINDRICAL_SURFACE('',#926,0.400000005960464);
#22=CYLINDRICAL_SURFACE('',#930,0.25000000372529);
#23=CYLINDRICAL_SURFACE('',#934,0.25000000372529);
#24=CYLINDRICAL_SURFACE('',#940,0.400000005960464);
#25=CYLINDRICAL_SURFACE('',#944,0.399999999999999);
#26=CYLINDRICAL_SURFACE('',#953,0.399999999999999);
#27=FACE_BOUND('',#112,.T.);
#28=FACE_BOUND('',#114,.T.);
#29=FACE_BOUND('',#116,.T.);
#30=FACE_BOUND('',#118,.T.);
#31=FACE_BOUND('',#134,.T.);
#32=FACE_BOUND('',#142,.T.);
#33=FACE_BOUND('',#160,.T.);
#34=FACE_BOUND('',#161,.T.);
#35=FACE_BOUND('',#162,.T.);
#36=FACE_BOUND('',#164,.T.);
#37=FACE_BOUND('',#165,.T.);
#38=FACE_BOUND('',#166,.T.);
#39=FACE_BOUND('',#167,.T.);
#40=FACE_BOUND('',#168,.T.);
#41=FACE_BOUND('',#169,.T.);
#42=FACE_BOUND('',#170,.T.);
#43=CIRCLE('',#894,0.210000000000001);
#44=CIRCLE('',#896,0.21);
#45=CIRCLE('',#898,0.209999999999999);
#46=CIRCLE('',#900,0.21);
#47=CIRCLE('',#902,0.209999999999999);
#48=CIRCLE('',#904,0.21);
#49=CIRCLE('',#906,0.21);
#50=CIRCLE('',#908,0.210000000000001);
#51=CIRCLE('',#916,0.250000027784457);
#52=CIRCLE('',#917,0.250000027784457);
#53=CIRCLE('',#920,0.25000000372529);
#54=CIRCLE('',#921,0.25000000372529);
#55=CIRCLE('',#924,0.399999999999999);
#56=CIRCLE('',#925,0.400000005960464);
#57=CIRCLE('',#927,0.400000005960464);
#58=CIRCLE('',#931,0.25000000372529);
#59=CIRCLE('',#932,0.25000000372529);
#60=CIRCLE('',#935,0.25000000372529);
#61=CIRCLE('',#936,0.25000000372529);
#62=CIRCLE('',#938,0.399999999999999);
#63=CIRCLE('',#939,0.400000005960464);
#64=CIRCLE('',#941,0.400000005960464);
#65=CIRCLE('',#945,0.399999999999999);
#66=CIRCLE('',#954,0.399999999999999);
#67=FACE_OUTER_BOUND('',#111,.T.);
#68=FACE_OUTER_BOUND('',#113,.T.);
#69=FACE_OUTER_BOUND('',#115,.T.);
#70=FACE_OUTER_BOUND('',#117,.T.);
#71=FACE_OUTER_BOUND('',#119,.T.);
#72=FACE_OUTER_BOUND('',#120,.T.);
#73=FACE_OUTER_BOUND('',#121,.T.);
#74=FACE_OUTER_BOUND('',#122,.T.);
#75=FACE_OUTER_BOUND('',#123,.T.);
#76=FACE_OUTER_BOUND('',#124,.T.);
#77=FACE_OUTER_BOUND('',#125,.T.);
#78=FACE_OUTER_BOUND('',#126,.T.);
#79=FACE_OUTER_BOUND('',#127,.T.);
#80=FACE_OUTER_BOUND('',#128,.T.);
#81=FACE_OUTER_BOUND('',#129,.T.);
#82=FACE_OUTER_BOUND('',#130,.T.);
#83=FACE_OUTER_BOUND('',#131,.T.);
#84=FACE_OUTER_BOUND('',#132,.T.);
#85=FACE_OUTER_BOUND('',#133,.T.);
#86=FACE_OUTER_BOUND('',#135,.T.);
#87=FACE_OUTER_BOUND('',#136,.T.);
#88=FACE_OUTER_BOUND('',#137,.T.);
#89=FACE_OUTER_BOUND('',#138,.T.);
#90=FACE_OUTER_BOUND('',#139,.T.);
#91=FACE_OUTER_BOUND('',#140,.T.);
#92=FACE_OUTER_BOUND('',#141,.T.);
#93=FACE_OUTER_BOUND('',#143,.T.);
#94=FACE_OUTER_BOUND('',#144,.T.);
#95=FACE_OUTER_BOUND('',#145,.T.);
#96=FACE_OUTER_BOUND('',#146,.T.);
#97=FACE_OUTER_BOUND('',#147,.T.);
#98=FACE_OUTER_BOUND('',#148,.T.);
#99=FACE_OUTER_BOUND('',#149,.T.);
#100=FACE_OUTER_BOUND('',#150,.T.);
#101=FACE_OUTER_BOUND('',#151,.T.);
#102=FACE_OUTER_BOUND('',#152,.T.);
#103=FACE_OUTER_BOUND('',#153,.T.);
#104=FACE_OUTER_BOUND('',#154,.T.);
#105=FACE_OUTER_BOUND('',#155,.T.);
#106=FACE_OUTER_BOUND('',#156,.T.);
#107=FACE_OUTER_BOUND('',#157,.T.);
#108=FACE_OUTER_BOUND('',#158,.T.);
#109=FACE_OUTER_BOUND('',#159,.T.);
#110=FACE_OUTER_BOUND('',#163,.T.);
#111=EDGE_LOOP('',(#563,#564,#565,#566));
#112=EDGE_LOOP('',(#567));
#113=EDGE_LOOP('',(#568,#569,#570,#571));
#114=EDGE_LOOP('',(#572));
#115=EDGE_LOOP('',(#573,#574,#575,#576));
#116=EDGE_LOOP('',(#577));
#117=EDGE_LOOP('',(#578,#579,#580,#581));
#118=EDGE_LOOP('',(#582));
#119=EDGE_LOOP('',(#583,#584,#585,#586));
#120=EDGE_LOOP('',(#587,#588,#589,#590));
#121=EDGE_LOOP('',(#591,#592,#593,#594));
#122=EDGE_LOOP('',(#595,#596,#597,#598));
#123=EDGE_LOOP('',(#599,#600,#601,#602,#603,#604,#605,#606));
#124=EDGE_LOOP('',(#607,#608,#609,#610));
#125=EDGE_LOOP('',(#611,#612,#613,#614));
#126=EDGE_LOOP('',(#615,#616,#617,#618,#619,#620,#621,#622));
#127=EDGE_LOOP('',(#623,#624,#625,#626));
#128=EDGE_LOOP('',(#627,#628,#629,#630));
#129=EDGE_LOOP('',(#631,#632,#633,#634));
#130=EDGE_LOOP('',(#635,#636,#637,#638));
#131=EDGE_LOOP('',(#639,#640,#641,#642));
#132=EDGE_LOOP('',(#643,#644,#645,#646));
#133=EDGE_LOOP('',(#647,#648,#649,#650));
#134=EDGE_LOOP('',(#651,#652,#653,#654));
#135=EDGE_LOOP('',(#655,#656,#657,#658));
#136=EDGE_LOOP('',(#659,#660,#661,#662));
#137=EDGE_LOOP('',(#663,#664,#665,#666));
#138=EDGE_LOOP('',(#667,#668,#669,#670));
#139=EDGE_LOOP('',(#671,#672,#673,#674));
#140=EDGE_LOOP('',(#675,#676,#677,#678));
#141=EDGE_LOOP('',(#679,#680,#681,#682));
#142=EDGE_LOOP('',(#683,#684,#685,#686));
#143=EDGE_LOOP('',(#687,#688,#689,#690));
#144=EDGE_LOOP('',(#691,#692,#693,#694));
#145=EDGE_LOOP('',(#695,#696,#697,#698));
#146=EDGE_LOOP('',(#699,#700,#701,#702));
#147=EDGE_LOOP('',(#703,#704,#705,#706));
#148=EDGE_LOOP('',(#707,#708,#709,#710));
#149=EDGE_LOOP('',(#711,#712,#713,#714,#715,#716,#717,#718));
#150=EDGE_LOOP('',(#719,#720,#721,#722));
#151=EDGE_LOOP('',(#723,#724,#725,#726));
#152=EDGE_LOOP('',(#727,#728,#729,#730,#731,#732,#733,#734));
#153=EDGE_LOOP('',(#735,#736,#737,#738));
#154=EDGE_LOOP('',(#739,#740,#741,#742));
#155=EDGE_LOOP('',(#743,#744,#745,#746));
#156=EDGE_LOOP('',(#747,#748,#749,#750));
#157=EDGE_LOOP('',(#751,#752,#753,#754));
#158=EDGE_LOOP('',(#755,#756,#757,#758));
#159=EDGE_LOOP('',(#759,#760,#761,#762));
#160=EDGE_LOOP('',(#763,#764,#765,#766));
#161=EDGE_LOOP('',(#767,#768,#769,#770,#771,#772,#773,#774,#775,#776,#777,
#778));
#162=EDGE_LOOP('',(#779,#780,#781,#782));
#163=EDGE_LOOP('',(#783,#784,#785,#786));
#164=EDGE_LOOP('',(#787,#788,#789,#790));
#165=EDGE_LOOP('',(#791,#792,#793,#794));
#166=EDGE_LOOP('',(#795));
#167=EDGE_LOOP('',(#796));
#168=EDGE_LOOP('',(#797));
#169=EDGE_LOOP('',(#798));
#170=EDGE_LOOP('',(#799,#800,#801,#802));
#171=LINE('',#1199,#267);
#172=LINE('',#1201,#268);
#173=LINE('',#1203,#269);
#174=LINE('',#1204,#270);
#175=LINE('',#1210,#271);
#176=LINE('',#1212,#272);
#177=LINE('',#1214,#273);
#178=LINE('',#1215,#274);
#179=LINE('',#1221,#275);
#180=LINE('',#1223,#276);
#181=LINE('',#1225,#277);
#182=LINE('',#1226,#278);
#183=LINE('',#1232,#279);
#184=LINE('',#1234,#280);
#185=LINE('',#1236,#281);
#186=LINE('',#1237,#282);
#187=LINE('',#1242,#283);
#188=LINE('',#1246,#284);
#189=LINE('',#1250,#285);
#190=LINE('',#1254,#286);
#191=LINE('',#1258,#287);
#192=LINE('',#1260,#288);
#193=LINE('',#1261,#289);
#194=LINE('',#1263,#290);
#195=LINE('',#1265,#291);
#196=LINE('',#1266,#292);
#197=LINE('',#1269,#293);
#198=LINE('',#1270,#294);
#199=LINE('',#1273,#295);
#200=LINE('',#1274,#296);
#201=LINE('',#1277,#297);
#202=LINE('',#1278,#298);
#203=LINE('',#1280,#299);
#204=LINE('',#1281,#300);
#205=LINE('',#1284,#301);
#206=LINE('',#1285,#302);
#207=LINE('',#1288,#303);
#208=LINE('',#1289,#304);
#209=LINE('',#1295,#305);
#210=LINE('',#1298,#306);
#211=LINE('',#1301,#307);
#212=LINE('',#1303,#308);
#213=LINE('',#1304,#309);
#214=LINE('',#1310,#310);
#215=LINE('',#1312,#311);
#216=LINE('',#1313,#312);
#217=LINE('',#1319,#313);
#218=LINE('',#1322,#314);
#219=LINE('',#1325,#315);
#220=LINE('',#1328,#316);
#221=LINE('',#1331,#317);
#222=LINE('',#1332,#318);
#223=LINE('',#1336,#319);
#224=LINE('',#1338,#320);
#225=LINE('',#1340,#321);
#226=LINE('',#1341,#322);
#227=LINE('',#1347,#323);
#228=LINE('',#1350,#324);
#229=LINE('',#1352,#325);
#230=LINE('',#1353,#326);
#231=LINE('',#1362,#327);
#232=LINE('',#1365,#328);
#233=LINE('',#1368,#329);
#234=LINE('',#1371,#330);
#235=LINE('',#1374,#331);
#236=LINE('',#1375,#332);
#237=LINE('',#1378,#333);
#238=LINE('',#1379,#334);
#239=LINE('',#1384,#335);
#240=LINE('',#1385,#336);
#241=LINE('',#1388,#337);
#242=LINE('',#1389,#338);
#243=LINE('',#1392,#339);
#244=LINE('',#1393,#340);
#245=LINE('',#1395,#341);
#246=LINE('',#1396,#342);
#247=LINE('',#1399,#343);
#248=LINE('',#1400,#344);
#249=LINE('',#1403,#345);
#250=LINE('',#1404,#346);
#251=LINE('',#1406,#347);
#252=LINE('',#1407,#348);
#253=LINE('',#1410,#349);
#254=LINE('',#1411,#350);
#255=LINE('',#1417,#351);
#256=LINE('',#1419,#352);
#257=LINE('',#1421,#353);
#258=LINE('',#1422,#354);
#259=LINE('',#1425,#355);
#260=LINE('',#1427,#356);
#261=LINE('',#1428,#357);
#262=LINE('',#1431,#358);
#263=LINE('',#1433,#359);
#264=LINE('',#1434,#360);
#265=LINE('',#1436,#361);
#266=LINE('',#1437,#362);
#267=VECTOR('',#965,1.);
#268=VECTOR('',#966,1.);
#269=VECTOR('',#967,1.);
#270=VECTOR('',#968,1.);
#271=VECTOR('',#973,1.);
#272=VECTOR('',#974,1.);
#273=VECTOR('',#975,1.);
#274=VECTOR('',#976,1.);
#275=VECTOR('',#981,1.);
#276=VECTOR('',#982,1.);
#277=VECTOR('',#983,1.);
#278=VECTOR('',#984,1.);
#279=VECTOR('',#989,1.);
#280=VECTOR('',#990,1.);
#281=VECTOR('',#991,1.);
#282=VECTOR('',#992,1.);
#283=VECTOR('',#997,0.209999999999999);
#284=VECTOR('',#1002,0.21);
#285=VECTOR('',#1007,0.21);
#286=VECTOR('',#1012,0.210000000000001);
#287=VECTOR('',#1017,1.);
#288=VECTOR('',#1018,1.);
#289=VECTOR('',#1019,1.);
#290=VECTOR('',#1020,1.);
#291=VECTOR('',#1021,1.);
#292=VECTOR('',#1022,1.);
#293=VECTOR('',#1025,1.);
#294=VECTOR('',#1026,1.);
#295=VECTOR('',#1029,1.);
#296=VECTOR('',#1030,1.);
#297=VECTOR('',#1033,1.);
#298=VECTOR('',#1034,1.);
#299=VECTOR('',#1035,1.);
#300=VECTOR('',#1036,1.);
#301=VECTOR('',#1039,1.);
#302=VECTOR('',#1040,1.);
#303=VECTOR('',#1043,1.);
#304=VECTOR('',#1044,1.);
#305=VECTOR('',#1049,1.);
#306=VECTOR('',#1052,1.);
#307=VECTOR('',#1055,1.);
#308=VECTOR('',#1056,1.);
#309=VECTOR('',#1057,1.);
#310=VECTOR('',#1064,1.);
#311=VECTOR('',#1067,1.);
#312=VECTOR('',#1068,1.);
#313=VECTOR('',#1073,1.);
#314=VECTOR('',#1076,1.);
#315=VECTOR('',#1079,1.);
#316=VECTOR('',#1082,1.);
#317=VECTOR('',#1085,1.);
#318=VECTOR('',#1086,1.);
#319=VECTOR('',#1089,1.);
#320=VECTOR('',#1090,1.);
#321=VECTOR('',#1091,1.);
#322=VECTOR('',#1092,1.);
#323=VECTOR('',#1099,1.);
#324=VECTOR('',#1102,1.);
#325=VECTOR('',#1103,1.);
#326=VECTOR('',#1104,1.);
#327=VECTOR('',#1115,1.);
#328=VECTOR('',#1118,1.);
#329=VECTOR('',#1121,1.);
#330=VECTOR('',#1124,1.);
#331=VECTOR('',#1127,1.);
#332=VECTOR('',#1128,1.);
#333=VECTOR('',#1131,1.);
#334=VECTOR('',#1132,1.);
#335=VECTOR('',#1139,1.);
#336=VECTOR('',#1140,1.);
#337=VECTOR('',#1143,1.);
#338=VECTOR('',#1144,1.);
#339=VECTOR('',#1147,1.);
#340=VECTOR('',#1148,1.);
#341=VECTOR('',#1149,1.);
#342=VECTOR('',#1150,1.);
#343=VECTOR('',#1153,1.);
#344=VECTOR('',#1154,1.);
#345=VECTOR('',#1157,1.);
#346=VECTOR('',#1158,1.);
#347=VECTOR('',#1161,1.);
#348=VECTOR('',#1162,1.);
#349=VECTOR('',#1165,1.);
#350=VECTOR('',#1166,1.);
#351=VECTOR('',#1173,1.);
#352=VECTOR('',#1174,1.);
#353=VECTOR('',#1175,1.);
#354=VECTOR('',#1176,1.);
#355=VECTOR('',#1179,1.);
#356=VECTOR('',#1180,1.);
#357=VECTOR('',#1181,1.);
#358=VECTOR('',#1184,1.);
#359=VECTOR('',#1185,1.);
#360=VECTOR('',#1186,1.);
#361=VECTOR('',#1189,1.);
#362=VECTOR('',#1190,1.);
#363=VERTEX_POINT('',#1197);
#364=VERTEX_POINT('',#1198);
#365=VERTEX_POINT('',#1200);
#366=VERTEX_POINT('',#1202);
#367=VERTEX_POINT('',#1205);
#368=VERTEX_POINT('',#1208);
#369=VERTEX_POINT('',#1209);
#370=VERTEX_POINT('',#1211);
#371=VERTEX_POINT('',#1213);
#372=VERTEX_POINT('',#1216);
#373=VERTEX_POINT('',#1219);
#374=VERTEX_POINT('',#1220);
#375=VERTEX_POINT('',#1222);
#376=VERTEX_POINT('',#1224);
#377=VERTEX_POINT('',#1227);
#378=VERTEX_POINT('',#1230);
#379=VERTEX_POINT('',#1231);
#380=VERTEX_POINT('',#1233);
#381=VERTEX_POINT('',#1235);
#382=VERTEX_POINT('',#1238);
#383=VERTEX_POINT('',#1241);
#384=VERTEX_POINT('',#1245);
#385=VERTEX_POINT('',#1249);
#386=VERTEX_POINT('',#1253);
#387=VERTEX_POINT('',#1257);
#388=VERTEX_POINT('',#1259);
#389=VERTEX_POINT('',#1262);
#390=VERTEX_POINT('',#1264);
#391=VERTEX_POINT('',#1268);
#392=VERTEX_POINT('',#1272);
#393=VERTEX_POINT('',#1276);
#394=VERTEX_POINT('',#1279);
#395=VERTEX_POINT('',#1283);
#396=VERTEX_POINT('',#1287);
#397=VERTEX_POINT('',#1291);
#398=VERTEX_POINT('',#1292);
#399=VERTEX_POINT('',#1294);
#400=VERTEX_POINT('',#1296);
#401=VERTEX_POINT('',#1300);
#402=VERTEX_POINT('',#1302);
#403=VERTEX_POINT('',#1306);
#404=VERTEX_POINT('',#1308);
#405=VERTEX_POINT('',#1315);
#406=VERTEX_POINT('',#1316);
#407=VERTEX_POINT('',#1318);
#408=VERTEX_POINT('',#1320);
#409=VERTEX_POINT('',#1324);
#410=VERTEX_POINT('',#1326);
#411=VERTEX_POINT('',#1330);
#412=VERTEX_POINT('',#1334);
#413=VERTEX_POINT('',#1335);
#414=VERTEX_POINT('',#1337);
#415=VERTEX_POINT('',#1339);
#416=VERTEX_POINT('',#1343);
#417=VERTEX_POINT('',#1345);
#418=VERTEX_POINT('',#1349);
#419=VERTEX_POINT('',#1351);
#420=VERTEX_POINT('',#1358);
#421=VERTEX_POINT('',#1359);
#422=VERTEX_POINT('',#1361);
#423=VERTEX_POINT('',#1363);
#424=VERTEX_POINT('',#1367);
#425=VERTEX_POINT('',#1369);
#426=VERTEX_POINT('',#1373);
#427=VERTEX_POINT('',#1377);
#428=VERTEX_POINT('',#1383);
#429=VERTEX_POINT('',#1387);
#430=VERTEX_POINT('',#1391);
#431=VERTEX_POINT('',#1394);
#432=VERTEX_POINT('',#1398);
#433=VERTEX_POINT('',#1402);
#434=VERTEX_POINT('',#1409);
#435=VERTEX_POINT('',#1415);
#436=VERTEX_POINT('',#1416);
#437=VERTEX_POINT('',#1418);
#438=VERTEX_POINT('',#1420);
#439=VERTEX_POINT('',#1424);
#440=VERTEX_POINT('',#1426);
#441=VERTEX_POINT('',#1430);
#442=VERTEX_POINT('',#1432);
#443=EDGE_CURVE('',#363,#364,#171,.T.);
#444=EDGE_CURVE('',#365,#364,#172,.T.);
#445=EDGE_CURVE('',#366,#365,#173,.T.);
#446=EDGE_CURVE('',#363,#366,#174,.T.);
#447=EDGE_CURVE('',#367,#367,#43,.T.);
#448=EDGE_CURVE('',#368,#369,#175,.T.);
#449=EDGE_CURVE('',#370,#369,#176,.T.);
#450=EDGE_CURVE('',#371,#370,#177,.T.);
#451=EDGE_CURVE('',#368,#371,#178,.T.);
#452=EDGE_CURVE('',#372,#372,#44,.T.);
#453=EDGE_CURVE('',#373,#374,#179,.T.);
#454=EDGE_CURVE('',#375,#374,#180,.T.);
#455=EDGE_CURVE('',#376,#375,#181,.T.);
#456=EDGE_CURVE('',#373,#376,#182,.T.);
#457=EDGE_CURVE('',#377,#377,#45,.T.);
#458=EDGE_CURVE('',#378,#379,#183,.T.);
#459=EDGE_CURVE('',#380,#379,#184,.T.);
#460=EDGE_CURVE('',#381,#380,#185,.T.);
#461=EDGE_CURVE('',#378,#381,#186,.T.);
#462=EDGE_CURVE('',#382,#382,#46,.T.);
#463=EDGE_CURVE('',#377,#383,#187,.T.);
#464=EDGE_CURVE('',#383,#383,#47,.T.);
#465=EDGE_CURVE('',#382,#384,#188,.T.);
#466=EDGE_CURVE('',#384,#384,#48,.T.);
#467=EDGE_CURVE('',#372,#385,#189,.T.);
#468=EDGE_CURVE('',#385,#385,#49,.T.);
#469=EDGE_CURVE('',#367,#386,#190,.T.);
#470=EDGE_CURVE('',#386,#386,#50,.T.);
#471=EDGE_CURVE('',#363,#387,#191,.T.);
#472=EDGE_CURVE('',#388,#387,#192,.T.);
#473=EDGE_CURVE('',#369,#388,#193,.T.);
#474=EDGE_CURVE('',#389,#368,#194,.T.);
#475=EDGE_CURVE('',#390,#389,#195,.T.);
#476=EDGE_CURVE('',#390,#364,#196,.T.);
#477=EDGE_CURVE('',#366,#391,#197,.T.);
#478=EDGE_CURVE('',#387,#391,#198,.T.);
#479=EDGE_CURVE('',#365,#392,#199,.T.);
#480=EDGE_CURVE('',#391,#392,#200,.T.);
#481=EDGE_CURVE('',#393,#390,#201,.T.);
#482=EDGE_CURVE('',#393,#373,#202,.T.);
#483=EDGE_CURVE('',#376,#394,#203,.T.);
#484=EDGE_CURVE('',#392,#394,#204,.T.);
#485=EDGE_CURVE('',#375,#395,#205,.T.);
#486=EDGE_CURVE('',#394,#395,#206,.T.);
#487=EDGE_CURVE('',#374,#396,#207,.T.);
#488=EDGE_CURVE('',#395,#396,#208,.T.);
#489=EDGE_CURVE('',#397,#398,#51,.T.);
#490=EDGE_CURVE('',#398,#399,#209,.T.);
#491=EDGE_CURVE('',#400,#399,#52,.T.);
#492=EDGE_CURVE('',#397,#400,#210,.T.);
#493=EDGE_CURVE('',#401,#397,#211,.T.);
#494=EDGE_CURVE('',#402,#400,#212,.T.);
#495=EDGE_CURVE('',#401,#402,#213,.T.);
#496=EDGE_CURVE('',#403,#401,#53,.T.);
#497=EDGE_CURVE('',#404,#402,#54,.T.);
#498=EDGE_CURVE('',#403,#404,#214,.T.);
#499=EDGE_CURVE('',#398,#403,#215,.T.);
#500=EDGE_CURVE('',#399,#404,#216,.T.);
#501=EDGE_CURVE('',#405,#406,#55,.T.);
#502=EDGE_CURVE('',#407,#405,#217,.T.);
#503=EDGE_CURVE('',#408,#407,#56,.T.);
#504=EDGE_CURVE('',#406,#408,#218,.T.);
#505=EDGE_CURVE('',#407,#409,#219,.T.);
#506=EDGE_CURVE('',#410,#409,#57,.T.);
#507=EDGE_CURVE('',#408,#410,#220,.T.);
#508=EDGE_CURVE('',#405,#411,#221,.T.);
#509=EDGE_CURVE('',#409,#411,#222,.T.);
#510=EDGE_CURVE('',#412,#413,#223,.T.);
#511=EDGE_CURVE('',#413,#414,#224,.T.);
#512=EDGE_CURVE('',#415,#414,#225,.T.);
#513=EDGE_CURVE('',#412,#415,#226,.T.);
#514=EDGE_CURVE('',#416,#412,#58,.T.);
#515=EDGE_CURVE('',#417,#415,#59,.T.);
#516=EDGE_CURVE('',#416,#417,#227,.T.);
#517=EDGE_CURVE('',#418,#416,#228,.T.);
#518=EDGE_CURVE('',#419,#417,#229,.T.);
#519=EDGE_CURVE('',#418,#419,#230,.T.);
#520=EDGE_CURVE('',#413,#418,#60,.T.);
#521=EDGE_CURVE('',#414,#419,#61,.T.);
#522=EDGE_CURVE('',#420,#421,#62,.T.);
#523=EDGE_CURVE('',#422,#420,#231,.T.);
#524=EDGE_CURVE('',#423,#422,#63,.T.);
#525=EDGE_CURVE('',#421,#423,#232,.T.);
#526=EDGE_CURVE('',#422,#424,#233,.T.);
#527=EDGE_CURVE('',#425,#424,#64,.T.);
#528=EDGE_CURVE('',#423,#425,#234,.T.);
#529=EDGE_CURVE('',#420,#426,#235,.T.);
#530=EDGE_CURVE('',#424,#426,#236,.T.);
#531=EDGE_CURVE('',#427,#425,#237,.T.);
#532=EDGE_CURVE('',#421,#427,#238,.T.);
#533=EDGE_CURVE('',#426,#427,#65,.T.);
#534=EDGE_CURVE('',#428,#388,#239,.T.);
#535=EDGE_CURVE('',#370,#428,#240,.T.);
#536=EDGE_CURVE('',#429,#428,#241,.T.);
#537=EDGE_CURVE('',#371,#429,#242,.T.);
#538=EDGE_CURVE('',#430,#379,#243,.T.);
#539=EDGE_CURVE('',#389,#430,#244,.T.);
#540=EDGE_CURVE('',#431,#429,#245,.T.);
#541=EDGE_CURVE('',#380,#431,#246,.T.);
#542=EDGE_CURVE('',#432,#431,#247,.T.);
#543=EDGE_CURVE('',#381,#432,#248,.T.);
#544=EDGE_CURVE('',#433,#432,#249,.T.);
#545=EDGE_CURVE('',#378,#433,#250,.T.);
#546=EDGE_CURVE('',#396,#433,#251,.T.);
#547=EDGE_CURVE('',#430,#393,#252,.T.);
#548=EDGE_CURVE('',#434,#410,#253,.T.);
#549=EDGE_CURVE('',#406,#434,#254,.T.);
#550=EDGE_CURVE('',#411,#434,#66,.T.);
#551=EDGE_CURVE('',#435,#436,#255,.T.);
#552=EDGE_CURVE('',#435,#437,#256,.T.);
#553=EDGE_CURVE('',#438,#437,#257,.T.);
#554=EDGE_CURVE('',#436,#438,#258,.T.);
#555=EDGE_CURVE('',#436,#439,#259,.T.);
#556=EDGE_CURVE('',#440,#438,#260,.T.);
#557=EDGE_CURVE('',#439,#440,#261,.T.);
#558=EDGE_CURVE('',#439,#441,#262,.T.);
#559=EDGE_CURVE('',#442,#440,#263,.T.);
#560=EDGE_CURVE('',#441,#442,#264,.T.);
#561=EDGE_CURVE('',#435,#441,#265,.T.);
#562=EDGE_CURVE('',#437,#442,#266,.T.);
#563=ORIENTED_EDGE('',*,*,#443,.T.);
#564=ORIENTED_EDGE('',*,*,#444,.F.);
#565=ORIENTED_EDGE('',*,*,#445,.F.);
#566=ORIENTED_EDGE('',*,*,#446,.F.);
#567=ORIENTED_EDGE('',*,*,#447,.T.);
#568=ORIENTED_EDGE('',*,*,#448,.T.);
#569=ORIENTED_EDGE('',*,*,#449,.F.);
#570=ORIENTED_EDGE('',*,*,#450,.F.);
#571=ORIENTED_EDGE('',*,*,#451,.F.);
#572=ORIENTED_EDGE('',*,*,#452,.T.);
#573=ORIENTED_EDGE('',*,*,#453,.T.);
#574=ORIENTED_EDGE('',*,*,#454,.F.);
#575=ORIENTED_EDGE('',*,*,#455,.F.);
#576=ORIENTED_EDGE('',*,*,#456,.F.);
#577=ORIENTED_EDGE('',*,*,#457,.T.);
#578=ORIENTED_EDGE('',*,*,#458,.T.);
#579=ORIENTED_EDGE('',*,*,#459,.F.);
#580=ORIENTED_EDGE('',*,*,#460,.F.);
#581=ORIENTED_EDGE('',*,*,#461,.F.);
#582=ORIENTED_EDGE('',*,*,#462,.T.);
#583=ORIENTED_EDGE('',*,*,#457,.F.);
#584=ORIENTED_EDGE('',*,*,#463,.T.);
#585=ORIENTED_EDGE('',*,*,#464,.T.);
#586=ORIENTED_EDGE('',*,*,#463,.F.);
#587=ORIENTED_EDGE('',*,*,#462,.F.);
#588=ORIENTED_EDGE('',*,*,#465,.T.);
#589=ORIENTED_EDGE('',*,*,#466,.T.);
#590=ORIENTED_EDGE('',*,*,#465,.F.);
#591=ORIENTED_EDGE('',*,*,#452,.F.);
#592=ORIENTED_EDGE('',*,*,#467,.T.);
#593=ORIENTED_EDGE('',*,*,#468,.T.);
#594=ORIENTED_EDGE('',*,*,#467,.F.);
#595=ORIENTED_EDGE('',*,*,#447,.F.);
#596=ORIENTED_EDGE('',*,*,#469,.T.);
#597=ORIENTED_EDGE('',*,*,#470,.T.);
#598=ORIENTED_EDGE('',*,*,#469,.F.);
#599=ORIENTED_EDGE('',*,*,#471,.T.);
#600=ORIENTED_EDGE('',*,*,#472,.F.);
#601=ORIENTED_EDGE('',*,*,#473,.F.);
#602=ORIENTED_EDGE('',*,*,#448,.F.);
#603=ORIENTED_EDGE('',*,*,#474,.F.);
#604=ORIENTED_EDGE('',*,*,#475,.F.);
#605=ORIENTED_EDGE('',*,*,#476,.T.);
#606=ORIENTED_EDGE('',*,*,#443,.F.);
#607=ORIENTED_EDGE('',*,*,#446,.T.);
#608=ORIENTED_EDGE('',*,*,#477,.T.);
#609=ORIENTED_EDGE('',*,*,#478,.F.);
#610=ORIENTED_EDGE('',*,*,#471,.F.);
#611=ORIENTED_EDGE('',*,*,#445,.T.);
#612=ORIENTED_EDGE('',*,*,#479,.T.);
#613=ORIENTED_EDGE('',*,*,#480,.F.);
#614=ORIENTED_EDGE('',*,*,#477,.F.);
#615=ORIENTED_EDGE('',*,*,#444,.T.);
#616=ORIENTED_EDGE('',*,*,#476,.F.);
#617=ORIENTED_EDGE('',*,*,#481,.F.);
#618=ORIENTED_EDGE('',*,*,#482,.T.);
#619=ORIENTED_EDGE('',*,*,#456,.T.);
#620=ORIENTED_EDGE('',*,*,#483,.T.);
#621=ORIENTED_EDGE('',*,*,#484,.F.);
#622=ORIENTED_EDGE('',*,*,#479,.F.);
#623=ORIENTED_EDGE('',*,*,#455,.T.);
#624=ORIENTED_EDGE('',*,*,#485,.T.);
#625=ORIENTED_EDGE('',*,*,#486,.F.);
#626=ORIENTED_EDGE('',*,*,#483,.F.);
#627=ORIENTED_EDGE('',*,*,#454,.T.);
#628=ORIENTED_EDGE('',*,*,#487,.T.);
#629=ORIENTED_EDGE('',*,*,#488,.F.);
#630=ORIENTED_EDGE('',*,*,#485,.F.);
#631=ORIENTED_EDGE('',*,*,#489,.T.);
#632=ORIENTED_EDGE('',*,*,#490,.T.);
#633=ORIENTED_EDGE('',*,*,#491,.F.);
#634=ORIENTED_EDGE('',*,*,#492,.F.);
#635=ORIENTED_EDGE('',*,*,#493,.T.);
#636=ORIENTED_EDGE('',*,*,#492,.T.);
#637=ORIENTED_EDGE('',*,*,#494,.F.);
#638=ORIENTED_EDGE('',*,*,#495,.F.);
#639=ORIENTED_EDGE('',*,*,#496,.T.);
#640=ORIENTED_EDGE('',*,*,#495,.T.);
#641=ORIENTED_EDGE('',*,*,#497,.F.);
#642=ORIENTED_EDGE('',*,*,#498,.F.);
#643=ORIENTED_EDGE('',*,*,#499,.T.);
#644=ORIENTED_EDGE('',*,*,#498,.T.);
#645=ORIENTED_EDGE('',*,*,#500,.F.);
#646=ORIENTED_EDGE('',*,*,#490,.F.);
#647=ORIENTED_EDGE('',*,*,#501,.F.);
#648=ORIENTED_EDGE('',*,*,#502,.F.);
#649=ORIENTED_EDGE('',*,*,#503,.F.);
#650=ORIENTED_EDGE('',*,*,#504,.F.);
#651=ORIENTED_EDGE('',*,*,#500,.T.);
#652=ORIENTED_EDGE('',*,*,#497,.T.);
#653=ORIENTED_EDGE('',*,*,#494,.T.);
#654=ORIENTED_EDGE('',*,*,#491,.T.);
#655=ORIENTED_EDGE('',*,*,#503,.T.);
#656=ORIENTED_EDGE('',*,*,#505,.T.);
#657=ORIENTED_EDGE('',*,*,#506,.F.);
#658=ORIENTED_EDGE('',*,*,#507,.F.);
#659=ORIENTED_EDGE('',*,*,#502,.T.);
#660=ORIENTED_EDGE('',*,*,#508,.T.);
#661=ORIENTED_EDGE('',*,*,#509,.F.);
#662=ORIENTED_EDGE('',*,*,#505,.F.);
#663=ORIENTED_EDGE('',*,*,#510,.T.);
#664=ORIENTED_EDGE('',*,*,#511,.T.);
#665=ORIENTED_EDGE('',*,*,#512,.F.);
#666=ORIENTED_EDGE('',*,*,#513,.F.);
#667=ORIENTED_EDGE('',*,*,#514,.T.);
#668=ORIENTED_EDGE('',*,*,#513,.T.);
#669=ORIENTED_EDGE('',*,*,#515,.F.);
#670=ORIENTED_EDGE('',*,*,#516,.F.);
#671=ORIENTED_EDGE('',*,*,#517,.T.);
#672=ORIENTED_EDGE('',*,*,#516,.T.);
#673=ORIENTED_EDGE('',*,*,#518,.F.);
#674=ORIENTED_EDGE('',*,*,#519,.F.);
#675=ORIENTED_EDGE('',*,*,#520,.T.);
#676=ORIENTED_EDGE('',*,*,#519,.T.);
#677=ORIENTED_EDGE('',*,*,#521,.F.);
#678=ORIENTED_EDGE('',*,*,#511,.F.);
#679=ORIENTED_EDGE('',*,*,#522,.F.);
#680=ORIENTED_EDGE('',*,*,#523,.F.);
#681=ORIENTED_EDGE('',*,*,#524,.F.);
#682=ORIENTED_EDGE('',*,*,#525,.F.);
#683=ORIENTED_EDGE('',*,*,#521,.T.);
#684=ORIENTED_EDGE('',*,*,#518,.T.);
#685=ORIENTED_EDGE('',*,*,#515,.T.);
#686=ORIENTED_EDGE('',*,*,#512,.T.);
#687=ORIENTED_EDGE('',*,*,#524,.T.);
#688=ORIENTED_EDGE('',*,*,#526,.T.);
#689=ORIENTED_EDGE('',*,*,#527,.F.);
#690=ORIENTED_EDGE('',*,*,#528,.F.);
#691=ORIENTED_EDGE('',*,*,#523,.T.);
#692=ORIENTED_EDGE('',*,*,#529,.T.);
#693=ORIENTED_EDGE('',*,*,#530,.F.);
#694=ORIENTED_EDGE('',*,*,#526,.F.);
#695=ORIENTED_EDGE('',*,*,#525,.T.);
#696=ORIENTED_EDGE('',*,*,#528,.T.);
#697=ORIENTED_EDGE('',*,*,#531,.F.);
#698=ORIENTED_EDGE('',*,*,#532,.F.);
#699=ORIENTED_EDGE('',*,*,#522,.T.);
#700=ORIENTED_EDGE('',*,*,#532,.T.);
#701=ORIENTED_EDGE('',*,*,#533,.F.);
#702=ORIENTED_EDGE('',*,*,#529,.F.);
#703=ORIENTED_EDGE('',*,*,#449,.T.);
#704=ORIENTED_EDGE('',*,*,#473,.T.);
#705=ORIENTED_EDGE('',*,*,#534,.F.);
#706=ORIENTED_EDGE('',*,*,#535,.F.);
#707=ORIENTED_EDGE('',*,*,#450,.T.);
#708=ORIENTED_EDGE('',*,*,#535,.T.);
#709=ORIENTED_EDGE('',*,*,#536,.F.);
#710=ORIENTED_EDGE('',*,*,#537,.F.);
#711=ORIENTED_EDGE('',*,*,#459,.T.);
#712=ORIENTED_EDGE('',*,*,#538,.F.);
#713=ORIENTED_EDGE('',*,*,#539,.F.);
#714=ORIENTED_EDGE('',*,*,#474,.T.);
#715=ORIENTED_EDGE('',*,*,#451,.T.);
#716=ORIENTED_EDGE('',*,*,#537,.T.);
#717=ORIENTED_EDGE('',*,*,#540,.F.);
#718=ORIENTED_EDGE('',*,*,#541,.F.);
#719=ORIENTED_EDGE('',*,*,#460,.T.);
#720=ORIENTED_EDGE('',*,*,#541,.T.);
#721=ORIENTED_EDGE('',*,*,#542,.F.);
#722=ORIENTED_EDGE('',*,*,#543,.F.);
#723=ORIENTED_EDGE('',*,*,#461,.T.);
#724=ORIENTED_EDGE('',*,*,#543,.T.);
#725=ORIENTED_EDGE('',*,*,#544,.F.);
#726=ORIENTED_EDGE('',*,*,#545,.F.);
#727=ORIENTED_EDGE('',*,*,#545,.T.);
#728=ORIENTED_EDGE('',*,*,#546,.F.);
#729=ORIENTED_EDGE('',*,*,#487,.F.);
#730=ORIENTED_EDGE('',*,*,#453,.F.);
#731=ORIENTED_EDGE('',*,*,#482,.F.);
#732=ORIENTED_EDGE('',*,*,#547,.F.);
#733=ORIENTED_EDGE('',*,*,#538,.T.);
#734=ORIENTED_EDGE('',*,*,#458,.F.);
#735=ORIENTED_EDGE('',*,*,#504,.T.);
#736=ORIENTED_EDGE('',*,*,#507,.T.);
#737=ORIENTED_EDGE('',*,*,#548,.F.);
#738=ORIENTED_EDGE('',*,*,#549,.F.);
#739=ORIENTED_EDGE('',*,*,#501,.T.);
#740=ORIENTED_EDGE('',*,*,#549,.T.);
#741=ORIENTED_EDGE('',*,*,#550,.F.);
#742=ORIENTED_EDGE('',*,*,#508,.F.);
#743=ORIENTED_EDGE('',*,*,#551,.F.);
#744=ORIENTED_EDGE('',*,*,#552,.T.);
#745=ORIENTED_EDGE('',*,*,#553,.F.);
#746=ORIENTED_EDGE('',*,*,#554,.F.);
#747=ORIENTED_EDGE('',*,*,#555,.F.);
#748=ORIENTED_EDGE('',*,*,#554,.T.);
#749=ORIENTED_EDGE('',*,*,#556,.F.);
#750=ORIENTED_EDGE('',*,*,#557,.F.);
#751=ORIENTED_EDGE('',*,*,#558,.F.);
#752=ORIENTED_EDGE('',*,*,#557,.T.);
#753=ORIENTED_EDGE('',*,*,#559,.F.);
#754=ORIENTED_EDGE('',*,*,#560,.F.);
#755=ORIENTED_EDGE('',*,*,#561,.T.);
#756=ORIENTED_EDGE('',*,*,#560,.T.);
#757=ORIENTED_EDGE('',*,*,#562,.F.);
#758=ORIENTED_EDGE('',*,*,#552,.F.);
#759=ORIENTED_EDGE('',*,*,#562,.T.);
#760=ORIENTED_EDGE('',*,*,#559,.T.);
#761=ORIENTED_EDGE('',*,*,#556,.T.);
#762=ORIENTED_EDGE('',*,*,#553,.T.);
#763=ORIENTED_EDGE('',*,*,#550,.T.);
#764=ORIENTED_EDGE('',*,*,#548,.T.);
#765=ORIENTED_EDGE('',*,*,#506,.T.);
#766=ORIENTED_EDGE('',*,*,#509,.T.);
#767=ORIENTED_EDGE('',*,*,#546,.T.);
#768=ORIENTED_EDGE('',*,*,#544,.T.);
#769=ORIENTED_EDGE('',*,*,#542,.T.);
#770=ORIENTED_EDGE('',*,*,#540,.T.);
#771=ORIENTED_EDGE('',*,*,#536,.T.);
#772=ORIENTED_EDGE('',*,*,#534,.T.);
#773=ORIENTED_EDGE('',*,*,#472,.T.);
#774=ORIENTED_EDGE('',*,*,#478,.T.);
#775=ORIENTED_EDGE('',*,*,#480,.T.);
#776=ORIENTED_EDGE('',*,*,#484,.T.);
#777=ORIENTED_EDGE('',*,*,#486,.T.);
#778=ORIENTED_EDGE('',*,*,#488,.T.);
#779=ORIENTED_EDGE('',*,*,#533,.T.);
#780=ORIENTED_EDGE('',*,*,#531,.T.);
#781=ORIENTED_EDGE('',*,*,#527,.T.);
#782=ORIENTED_EDGE('',*,*,#530,.T.);
#783=ORIENTED_EDGE('',*,*,#561,.F.);
#784=ORIENTED_EDGE('',*,*,#551,.T.);
#785=ORIENTED_EDGE('',*,*,#555,.T.);
#786=ORIENTED_EDGE('',*,*,#558,.T.);
#787=ORIENTED_EDGE('',*,*,#520,.F.);
#788=ORIENTED_EDGE('',*,*,#510,.F.);
#789=ORIENTED_EDGE('',*,*,#514,.F.);
#790=ORIENTED_EDGE('',*,*,#517,.F.);
#791=ORIENTED_EDGE('',*,*,#499,.F.);
#792=ORIENTED_EDGE('',*,*,#489,.F.);
#793=ORIENTED_EDGE('',*,*,#493,.F.);
#794=ORIENTED_EDGE('',*,*,#496,.F.);
#795=ORIENTED_EDGE('',*,*,#470,.F.);
#796=ORIENTED_EDGE('',*,*,#468,.F.);
#797=ORIENTED_EDGE('',*,*,#466,.F.);
#798=ORIENTED_EDGE('',*,*,#464,.F.);
#799=ORIENTED_EDGE('',*,*,#481,.T.);
#800=ORIENTED_EDGE('',*,*,#475,.T.);
#801=ORIENTED_EDGE('',*,*,#539,.T.);
#802=ORIENTED_EDGE('',*,*,#547,.T.);
#803=PLANE('',#893);
#804=PLANE('',#895);
#805=PLANE('',#897);
#806=PLANE('',#899);
#807=PLANE('',#909);
#808=PLANE('',#910);
#809=PLANE('',#911);
#810=PLANE('',#912);
#811=PLANE('',#913);
#812=PLANE('',#914);
#813=PLANE('',#918);
#814=PLANE('',#922);
#815=PLANE('',#923);
#816=PLANE('',#928);
#817=PLANE('',#929);
#818=PLANE('',#933);
#819=PLANE('',#937);
#820=PLANE('',#942);
#821=PLANE('',#943);
#822=PLANE('',#946);
#823=PLANE('',#947);
#824=PLANE('',#948);
#825=PLANE('',#949);
#826=PLANE('',#950);
#827=PLANE('',#951);
#828=PLANE('',#952);
#829=PLANE('',#955);
#830=PLANE('',#956);
#831=PLANE('',#957);
#832=PLANE('',#958);
#833=PLANE('',#959);
#834=PLANE('',#960);
#835=ADVANCED_FACE('',(#67,#27),#803,.T.);
#836=ADVANCED_FACE('',(#68,#28),#804,.T.);
#837=ADVANCED_FACE('',(#69,#29),#805,.T.);
#838=ADVANCED_FACE('',(#70,#30),#806,.T.);
#839=ADVANCED_FACE('',(#71),#15,.F.);
#840=ADVANCED_FACE('',(#72),#16,.F.);
#841=ADVANCED_FACE('',(#73),#17,.F.);
#842=ADVANCED_FACE('',(#74),#18,.F.);
#843=ADVANCED_FACE('',(#75),#807,.T.);
#844=ADVANCED_FACE('',(#76),#808,.T.);
#845=ADVANCED_FACE('',(#77),#809,.T.);
#846=ADVANCED_FACE('',(#78),#810,.T.);
#847=ADVANCED_FACE('',(#79),#811,.T.);
#848=ADVANCED_FACE('',(#80),#812,.T.);
#849=ADVANCED_FACE('',(#81),#19,.F.);
#850=ADVANCED_FACE('',(#82),#813,.T.);
#851=ADVANCED_FACE('',(#83),#20,.F.);
#852=ADVANCED_FACE('',(#84),#814,.T.);
#853=ADVANCED_FACE('',(#85,#31),#815,.T.);
#854=ADVANCED_FACE('',(#86),#21,.F.);
#855=ADVANCED_FACE('',(#87),#816,.T.);
#856=ADVANCED_FACE('',(#88),#817,.T.);
#857=ADVANCED_FACE('',(#89),#22,.F.);
#858=ADVANCED_FACE('',(#90),#818,.T.);
#859=ADVANCED_FACE('',(#91),#23,.F.);
#860=ADVANCED_FACE('',(#92,#32),#819,.T.);
#861=ADVANCED_FACE('',(#93),#24,.F.);
#862=ADVANCED_FACE('',(#94),#820,.T.);
#863=ADVANCED_FACE('',(#95),#821,.T.);
#864=ADVANCED_FACE('',(#96),#25,.F.);
#865=ADVANCED_FACE('',(#97),#822,.T.);
#866=ADVANCED_FACE('',(#98),#823,.T.);
#867=ADVANCED_FACE('',(#99),#824,.T.);
#868=ADVANCED_FACE('',(#100),#825,.T.);
#869=ADVANCED_FACE('',(#101),#826,.T.);
#870=ADVANCED_FACE('',(#102),#827,.T.);
#871=ADVANCED_FACE('',(#103),#828,.T.);
#872=ADVANCED_FACE('',(#104),#26,.F.);
#873=ADVANCED_FACE('',(#105),#829,.T.);
#874=ADVANCED_FACE('',(#106),#830,.T.);
#875=ADVANCED_FACE('',(#107),#831,.T.);
#876=ADVANCED_FACE('',(#108),#832,.T.);
#877=ADVANCED_FACE('',(#109,#33,#34,#35),#833,.T.);
#878=ADVANCED_FACE('',(#110,#36,#37,#38,#39,#40,#41,#42),#834,.F.);
#879=CLOSED_SHELL('',(#835,#836,#837,#838,#839,#840,#841,#842,#843,#844,
#845,#846,#847,#848,#849,#850,#851,#852,#853,#854,#855,#856,#857,#858,#859,
#860,#861,#862,#863,#864,#865,#866,#867,#868,#869,#870,#871,#872,#873,#874,
#875,#876,#877,#878));
#880=DERIVED_UNIT_ELEMENT(#882,1.);
#881=DERIVED_UNIT_ELEMENT(#1445,-3.);
#882=(
MASS_UNIT()
NAMED_UNIT(*)
SI_UNIT(.KILO.,.GRAM.)
);
#883=DERIVED_UNIT((#880,#881));
#884=MEASURE_REPRESENTATION_ITEM('density measure',
POSITIVE_RATIO_MEASURE(1060.),#883);
#885=PROPERTY_DEFINITION_REPRESENTATION(#890,#887);
#886=PROPERTY_DEFINITION_REPRESENTATION(#891,#888);
#887=REPRESENTATION('material name',(#889),#1442);
#888=REPRESENTATION('density',(#884),#1442);
#889=DESCRIPTIVE_REPRESENTATION_ITEM('ABS \X2\D50CB77CC2A4D2F1\X0\',
'ABS \X2\D50CB77CC2A4D2F1\X0\');
#890=PROPERTY_DEFINITION('material property','material name',#1452);
#891=PROPERTY_DEFINITION('material property','density of part',#1452);
#892=AXIS2_PLACEMENT_3D('',#1195,#961,#962);
#893=AXIS2_PLACEMENT_3D('',#1196,#963,#964);
#894=AXIS2_PLACEMENT_3D('',#1206,#969,#970);
#895=AXIS2_PLACEMENT_3D('',#1207,#971,#972);
#896=AXIS2_PLACEMENT_3D('',#1217,#977,#978);
#897=AXIS2_PLACEMENT_3D('',#1218,#979,#980);
#898=AXIS2_PLACEMENT_3D('',#1228,#985,#986);
#899=AXIS2_PLACEMENT_3D('',#1229,#987,#988);
#900=AXIS2_PLACEMENT_3D('',#1239,#993,#994);
#901=AXIS2_PLACEMENT_3D('',#1240,#995,#996);
#902=AXIS2_PLACEMENT_3D('',#1243,#998,#999);
#903=AXIS2_PLACEMENT_3D('',#1244,#1000,#1001);
#904=AXIS2_PLACEMENT_3D('',#1247,#1003,#1004);
#905=AXIS2_PLACEMENT_3D('',#1248,#1005,#1006);
#906=AXIS2_PLACEMENT_3D('',#1251,#1008,#1009);
#907=AXIS2_PLACEMENT_3D('',#1252,#1010,#1011);
#908=AXIS2_PLACEMENT_3D('',#1255,#1013,#1014);
#909=AXIS2_PLACEMENT_3D('',#1256,#1015,#1016);
#910=AXIS2_PLACEMENT_3D('',#1267,#1023,#1024);
#911=AXIS2_PLACEMENT_3D('',#1271,#1027,#1028);
#912=AXIS2_PLACEMENT_3D('',#1275,#1031,#1032);
#913=AXIS2_PLACEMENT_3D('',#1282,#1037,#1038);
#914=AXIS2_PLACEMENT_3D('',#1286,#1041,#1042);
#915=AXIS2_PLACEMENT_3D('',#1290,#1045,#1046);
#916=AXIS2_PLACEMENT_3D('',#1293,#1047,#1048);
#917=AXIS2_PLACEMENT_3D('',#1297,#1050,#1051);
#918=AXIS2_PLACEMENT_3D('',#1299,#1053,#1054);
#919=AXIS2_PLACEMENT_3D('',#1305,#1058,#1059);
#920=AXIS2_PLACEMENT_3D('',#1307,#1060,#1061);
#921=AXIS2_PLACEMENT_3D('',#1309,#1062,#1063);
#922=AXIS2_PLACEMENT_3D('',#1311,#1065,#1066);
#923=AXIS2_PLACEMENT_3D('',#1314,#1069,#1070);
#924=AXIS2_PLACEMENT_3D('',#1317,#1071,#1072);
#925=AXIS2_PLACEMENT_3D('',#1321,#1074,#1075);
#926=AXIS2_PLACEMENT_3D('',#1323,#1077,#1078);
#927=AXIS2_PLACEMENT_3D('',#1327,#1080,#1081);
#928=AXIS2_PLACEMENT_3D('',#1329,#1083,#1084);
#929=AXIS2_PLACEMENT_3D('',#1333,#1087,#1088);
#930=AXIS2_PLACEMENT_3D('',#1342,#1093,#1094);
#931=AXIS2_PLACEMENT_3D('',#1344,#1095,#1096);
#932=AXIS2_PLACEMENT_3D('',#1346,#1097,#1098);
#933=AXIS2_PLACEMENT_3D('',#1348,#1100,#1101);
#934=AXIS2_PLACEMENT_3D('',#1354,#1105,#1106);
#935=AXIS2_PLACEMENT_3D('',#1355,#1107,#1108);
#936=AXIS2_PLACEMENT_3D('',#1356,#1109,#1110);
#937=AXIS2_PLACEMENT_3D('',#1357,#1111,#1112);
#938=AXIS2_PLACEMENT_3D('',#1360,#1113,#1114);
#939=AXIS2_PLACEMENT_3D('',#1364,#1116,#1117);
#940=AXIS2_PLACEMENT_3D('',#1366,#1119,#1120);
#941=AXIS2_PLACEMENT_3D('',#1370,#1122,#1123);
#942=AXIS2_PLACEMENT_3D('',#1372,#1125,#1126);
#943=AXIS2_PLACEMENT_3D('',#1376,#1129,#1130);
#944=AXIS2_PLACEMENT_3D('',#1380,#1133,#1134);
#945=AXIS2_PLACEMENT_3D('',#1381,#1135,#1136);
#946=AXIS2_PLACEMENT_3D('',#1382,#1137,#1138);
#947=AXIS2_PLACEMENT_3D('',#1386,#1141,#1142);
#948=AXIS2_PLACEMENT_3D('',#1390,#1145,#1146);
#949=AXIS2_PLACEMENT_3D('',#1397,#1151,#1152);
#950=AXIS2_PLACEMENT_3D('',#1401,#1155,#1156);
#951=AXIS2_PLACEMENT_3D('',#1405,#1159,#1160);
#952=AXIS2_PLACEMENT_3D('',#1408,#1163,#1164);
#953=AXIS2_PLACEMENT_3D('',#1412,#1167,#1168);
#954=AXIS2_PLACEMENT_3D('',#1413,#1169,#1170);
#955=AXIS2_PLACEMENT_3D('',#1414,#1171,#1172);
#956=AXIS2_PLACEMENT_3D('',#1423,#1177,#1178);
#957=AXIS2_PLACEMENT_3D('',#1429,#1182,#1183);
#958=AXIS2_PLACEMENT_3D('',#1435,#1187,#1188);
#959=AXIS2_PLACEMENT_3D('',#1438,#1191,#1192);
#960=AXIS2_PLACEMENT_3D('',#1439,#1193,#1194);
#961=DIRECTION('axis',(0.,0.,1.));
#962=DIRECTION('refdir',(1.,0.,0.));
#963=DIRECTION('center_axis',(0.,0.,1.));
#964=DIRECTION('ref_axis',(1.,0.,0.));
#965=DIRECTION('',(1.,0.,0.));
#966=DIRECTION('',(0.,-1.,0.));
#967=DIRECTION('',(1.,0.,0.));
#968=DIRECTION('',(0.,1.,0.));
#969=DIRECTION('center_axis',(0.,0.,-1.));
#970=DIRECTION('ref_axis',(1.,0.,0.));
#971=DIRECTION('center_axis',(0.,0.,1.));
#972=DIRECTION('ref_axis',(1.,0.,0.));
#973=DIRECTION('',(1.,0.,0.));
#974=DIRECTION('',(0.,-1.,0.));
#975=DIRECTION('',(1.,0.,0.));
#976=DIRECTION('',(0.,1.,0.));
#977=DIRECTION('center_axis',(0.,0.,-1.));
#978=DIRECTION('ref_axis',(1.,0.,0.));
#979=DIRECTION('center_axis',(0.,0.,1.));
#980=DIRECTION('ref_axis',(1.,0.,0.));
#981=DIRECTION('',(-1.,0.,0.));
#982=DIRECTION('',(0.,1.,0.));
#983=DIRECTION('',(-1.,0.,0.));
#984=DIRECTION('',(0.,-1.,0.));
#985=DIRECTION('center_axis',(0.,0.,-1.));
#986=DIRECTION('ref_axis',(1.,0.,0.));
#987=DIRECTION('center_axis',(0.,0.,1.));
#988=DIRECTION('ref_axis',(1.,0.,0.));
#989=DIRECTION('',(-1.,0.,0.));
#990=DIRECTION('',(0.,1.,0.));
#991=DIRECTION('',(-1.,0.,0.));
#992=DIRECTION('',(0.,-1.,0.));
#993=DIRECTION('center_axis',(0.,0.,-1.));
#994=DIRECTION('ref_axis',(1.,0.,0.));
#995=DIRECTION('center_axis',(0.,0.,1.));
#996=DIRECTION('ref_axis',(1.,0.,0.));
#997=DIRECTION('',(0.,0.,-1.));
#998=DIRECTION('center_axis',(0.,0.,-1.));
#999=DIRECTION('ref_axis',(1.,0.,0.));
#1000=DIRECTION('center_axis',(0.,0.,1.));
#1001=DIRECTION('ref_axis',(1.,0.,0.));
#1002=DIRECTION('',(0.,0.,-1.));
#1003=DIRECTION('center_axis',(0.,0.,-1.));
#1004=DIRECTION('ref_axis',(1.,0.,0.));
#1005=DIRECTION('center_axis',(0.,0.,1.));
#1006=DIRECTION('ref_axis',(1.,0.,0.));
#1007=DIRECTION('',(0.,0.,-1.));
#1008=DIRECTION('center_axis',(0.,0.,-1.));
#1009=DIRECTION('ref_axis',(1.,0.,0.));
#1010=DIRECTION('center_axis',(0.,0.,1.));
#1011=DIRECTION('ref_axis',(1.,0.,0.));
#1012=DIRECTION('',(0.,0.,-1.));
#1013=DIRECTION('center_axis',(0.,0.,-1.));
#1014=DIRECTION('ref_axis',(1.,0.,0.));
#1015=DIRECTION('center_axis',(0.,-1.,0.));
#1016=DIRECTION('ref_axis',(1.,0.,0.));
#1017=DIRECTION('',(0.,0.,1.));
#1018=DIRECTION('',(1.,0.,0.));
#1019=DIRECTION('',(0.,0.,1.));
#1020=DIRECTION('',(0.,0.,1.));
#1021=DIRECTION('',(-1.,0.,0.));
#1022=DIRECTION('',(0.,0.,1.));
#1023=DIRECTION('center_axis',(1.,0.,0.));
#1024=DIRECTION('ref_axis',(0.,1.,0.));
#1025=DIRECTION('',(0.,0.,1.));
#1026=DIRECTION('',(0.,1.,0.));
#1027=DIRECTION('center_axis',(0.,-1.,0.));
#1028=DIRECTION('ref_axis',(1.,0.,0.));
#1029=DIRECTION('',(0.,0.,1.));
#1030=DIRECTION('',(1.,0.,0.));
#1031=DIRECTION('center_axis',(-1.,0.,0.));
#1032=DIRECTION('ref_axis',(0.,-1.,0.));
#1033=DIRECTION('',(0.,1.,0.));
#1034=DIRECTION('',(0.,0.,1.));
#1035=DIRECTION('',(0.,0.,1.));
#1036=DIRECTION('',(0.,-1.,0.));
#1037=DIRECTION('center_axis',(0.,1.,0.));
#1038=DIRECTION('ref_axis',(-1.,0.,0.));
#1039=DIRECTION('',(0.,0.,1.));
#1040=DIRECTION('',(-1.,0.,0.));
#1041=DIRECTION('center_axis',(1.,0.,0.));
#1042=DIRECTION('ref_axis',(0.,1.,0.));
#1043=DIRECTION('',(0.,0.,1.));
#1044=DIRECTION('',(0.,1.,0.));
#1045=DIRECTION('center_axis',(0.,0.,1.));
#1046=DIRECTION('ref_axis',(-6.01478128117156E-10,-1.,0.));
#1047=DIRECTION('center_axis',(0.,0.,-1.));
#1048=DIRECTION('ref_axis',(-1.,1.20296026426691E-9,0.));
#1049=DIRECTION('',(0.,0.,1.));
#1050=DIRECTION('center_axis',(0.,0.,-1.));
#1051=DIRECTION('ref_axis',(-1.,1.20296026426691E-9,0.));
#1052=DIRECTION('',(0.,0.,1.));
#1053=DIRECTION('center_axis',(-1.,0.,0.));
#1054=DIRECTION('ref_axis',(0.,-1.,0.));
#1055=DIRECTION('',(0.,-1.,0.));
#1056=DIRECTION('',(0.,-1.,0.));
#1057=DIRECTION('',(0.,0.,1.));
#1058=DIRECTION('center_axis',(0.,0.,1.));
#1059=DIRECTION('ref_axis',(1.,8.72535097827845E-9,0.));
#1060=DIRECTION('center_axis',(0.,0.,-1.));
#1061=DIRECTION('ref_axis',(1.,8.72535097827845E-9,0.));
#1062=DIRECTION('center_axis',(0.,0.,-1.));
#1063=DIRECTION('ref_axis',(1.,8.72535097827845E-9,0.));
#1064=DIRECTION('',(0.,0.,1.));
#1065=DIRECTION('center_axis',(1.,-1.20295833373505E-9,0.));
#1066=DIRECTION('ref_axis',(1.20295833373505E-9,1.,0.));
#1067=DIRECTION('',(1.20295833373505E-9,1.,0.));
#1068=DIRECTION('',(1.20295833373505E-9,1.,0.));
#1069=DIRECTION('center_axis',(0.,0.,1.));
#1070=DIRECTION('ref_axis',(1.,0.,0.));
#1071=DIRECTION('center_axis',(0.,0.,-1.));
#1072=DIRECTION('ref_axis',(1.,8.70900684901702E-9,0.));
#1073=DIRECTION('',(2.98023289579417E-10,1.,0.));
#1074=DIRECTION('center_axis',(0.,0.,-1.));
#1075=DIRECTION('ref_axis',(-1.,-1.21564867470596E-9,0.));
#1076=DIRECTION('',(2.98023289543624E-10,-1.,0.));
#1077=DIRECTION('center_axis',(0.,0.,1.));
#1078=DIRECTION('ref_axis',(-1.,-1.21564867470596E-9,0.));
#1079=DIRECTION('',(0.,0.,1.));
#1080=DIRECTION('center_axis',(0.,0.,-1.));
#1081=DIRECTION('ref_axis',(-1.,-1.21564867470596E-9,0.));
#1082=DIRECTION('',(0.,0.,1.));
#1083=DIRECTION('center_axis',(1.,-2.98023289579417E-10,0.));
#1084=DIRECTION('ref_axis',(2.98023289579417E-10,1.,0.));
#1085=DIRECTION('',(0.,0.,1.));
#1086=DIRECTION('',(2.98023289579417E-10,1.,0.));
#1087=DIRECTION('center_axis',(-1.,0.,0.));
#1088=DIRECTION('ref_axis',(0.,-1.,0.));
#1089=DIRECTION('',(0.,-1.,0.));
#1090=DIRECTION('',(0.,0.,1.));
#1091=DIRECTION('',(0.,-1.,0.));
#1092=DIRECTION('',(0.,0.,1.));
#1093=DIRECTION('center_axis',(0.,0.,1.));
#1094=DIRECTION('ref_axis',(1.,0.,0.));
#1095=DIRECTION('center_axis',(0.,0.,-1.));
#1096=DIRECTION('ref_axis',(1.,0.,0.));
#1097=DIRECTION('center_axis',(0.,0.,-1.));
#1098=DIRECTION('ref_axis',(1.,0.,0.));
#1099=DIRECTION('',(0.,0.,1.));
#1100=DIRECTION('center_axis',(1.,0.,0.));
#1101=DIRECTION('ref_axis',(0.,1.,0.));
#1102=DIRECTION('',(0.,1.,0.));
#1103=DIRECTION('',(0.,1.,0.));
#1104=DIRECTION('',(0.,0.,1.));
#1105=DIRECTION('center_axis',(0.,0.,1.));
#1106=DIRECTION('ref_axis',(-1.,0.,0.));
#1107=DIRECTION('center_axis',(0.,0.,-1.));
#1108=DIRECTION('ref_axis',(-1.,0.,0.));
#1109=DIRECTION('center_axis',(0.,0.,-1.));
#1110=DIRECTION('ref_axis',(-1.,0.,0.));
#1111=DIRECTION('center_axis',(0.,0.,1.));
#1112=DIRECTION('ref_axis',(1.,0.,0.));
#1113=DIRECTION('center_axis',(0.,0.,-1.));
#1114=DIRECTION('ref_axis',(1.,0.,0.));
#1115=DIRECTION('',(2.98023290490334E-10,1.,0.));
#1116=DIRECTION('center_axis',(0.,0.,-1.));
#1117=DIRECTION('ref_axis',(-1.,0.,0.));
#1118=DIRECTION('',(2.98023290490334E-10,-1.,0.));
#1119=DIRECTION('center_axis',(0.,0.,1.));
#1120=DIRECTION('ref_axis',(-1.,0.,0.));
#1121=DIRECTION('',(0.,0.,1.));
#1122=DIRECTION('center_axis',(0.,0.,-1.));
#1123=DIRECTION('ref_axis',(-1.,0.,0.));
#1124=DIRECTION('',(0.,0.,1.));
#1125=DIRECTION('center_axis',(1.,-2.98023290490334E-10,0.));
#1126=DIRECTION('ref_axis',(2.98023290490334E-10,1.,0.));
#1127=DIRECTION('',(0.,0.,1.));
#1128=DIRECTION('',(2.98023290490334E-10,1.,0.));
#1129=DIRECTION('center_axis',(-1.,-2.98023290490334E-10,0.));
#1130=DIRECTION('ref_axis',(2.98023290490334E-10,-1.,0.));
#1131=DIRECTION('',(2.98023290490334E-10,-1.,0.));
#1132=DIRECTION('',(0.,0.,1.));
#1133=DIRECTION('center_axis',(0.,0.,1.));
#1134=DIRECTION('ref_axis',(1.,0.,0.));
#1135=DIRECTION('center_axis',(0.,0.,-1.));
#1136=DIRECTION('ref_axis',(1.,0.,0.));
#1137=DIRECTION('center_axis',(-1.,0.,0.));
#1138=DIRECTION('ref_axis',(0.,-1.,0.));
#1139=DIRECTION('',(0.,-1.,0.));
#1140=DIRECTION('',(0.,0.,1.));
#1141=DIRECTION('center_axis',(0.,-1.,0.));
#1142=DIRECTION('ref_axis',(1.,0.,0.));
#1143=DIRECTION('',(1.,0.,0.));
#1144=DIRECTION('',(0.,0.,1.));
#1145=DIRECTION('center_axis',(1.,0.,0.));
#1146=DIRECTION('ref_axis',(0.,1.,0.));
#1147=DIRECTION('',(0.,0.,1.));
#1148=DIRECTION('',(0.,-1.,0.));
#1149=DIRECTION('',(0.,1.,0.));
#1150=DIRECTION('',(0.,0.,1.));
#1151=DIRECTION('center_axis',(0.,1.,0.));
#1152=DIRECTION('ref_axis',(-1.,0.,0.));
#1153=DIRECTION('',(-1.,0.,0.));
#1154=DIRECTION('',(0.,0.,1.));
#1155=DIRECTION('center_axis',(-1.,0.,0.));
#1156=DIRECTION('ref_axis',(0.,-1.,0.));
#1157=DIRECTION('',(0.,-1.,0.));
#1158=DIRECTION('',(0.,0.,1.));
#1159=DIRECTION('center_axis',(0.,1.,0.));
#1160=DIRECTION('ref_axis',(-1.,0.,0.));
#1161=DIRECTION('',(-1.,0.,0.));
#1162=DIRECTION('',(1.,0.,0.));
#1163=DIRECTION('center_axis',(-1.,-2.98023289543624E-10,0.));
#1164=DIRECTION('ref_axis',(2.98023289543624E-10,-1.,0.));
#1165=DIRECTION('',(2.98023289543624E-10,-1.,0.));
#1166=DIRECTION('',(0.,0.,1.));
#1167=DIRECTION('center_axis',(0.,0.,1.));
#1168=DIRECTION('ref_axis',(1.,8.70900684901702E-9,0.));
#1169=DIRECTION('center_axis',(0.,0.,-1.));
#1170=DIRECTION('ref_axis',(1.,8.70900684901702E-9,0.));
#1171=DIRECTION('center_axis',(-1.,0.,0.));
#1172=DIRECTION('ref_axis',(0.,-1.,0.));
#1173=DIRECTION('',(0.,1.,0.));
#1174=DIRECTION('',(0.,0.,1.));
#1175=DIRECTION('',(0.,-1.,0.));
#1176=DIRECTION('',(0.,0.,1.));
#1177=DIRECTION('center_axis',(0.,1.,0.));
#1178=DIRECTION('ref_axis',(-1.,0.,0.));
#1179=DIRECTION('',(1.,0.,0.));
#1180=DIRECTION('',(-1.,0.,0.));
#1181=DIRECTION('',(0.,0.,1.));
#1182=DIRECTION('center_axis',(1.,0.,0.));
#1183=DIRECTION('ref_axis',(0.,1.,0.));
#1184=DIRECTION('',(0.,-1.,0.));
#1185=DIRECTION('',(0.,1.,0.));
#1186=DIRECTION('',(0.,0.,1.));
#1187=DIRECTION('center_axis',(0.,-1.,0.));
#1188=DIRECTION('ref_axis',(1.,0.,0.));
#1189=DIRECTION('',(1.,0.,0.));
#1190=DIRECTION('',(1.,0.,0.));
#1191=DIRECTION('center_axis',(0.,0.,1.));
#1192=DIRECTION('ref_axis',(1.,0.,0.));
#1193=DIRECTION('center_axis',(0.,0.,1.));
#1194=DIRECTION('ref_axis',(1.,0.,0.));
#1195=CARTESIAN_POINT('',(0.,0.,0.));
#1196=CARTESIAN_POINT('Origin',(8.5,10.75,0.5));
#1197=CARTESIAN_POINT('',(11.,13.25,0.5));
#1198=CARTESIAN_POINT('',(12.,13.25,0.5));
#1199=CARTESIAN_POINT('',(10.25,13.25,0.5));
#1200=CARTESIAN_POINT('',(12.,14.25,0.5));
#1201=CARTESIAN_POINT('',(12.,12.5,0.5));
#1202=CARTESIAN_POINT('',(11.,14.25,0.5));
#1203=CARTESIAN_POINT('',(9.75,14.25,0.5));
#1204=CARTESIAN_POINT('',(11.,12.,0.5));
#1205=CARTESIAN_POINT('',(11.29,13.75,0.5));
#1206=CARTESIAN_POINT('Origin',(11.5,13.75,0.5));
#1207=CARTESIAN_POINT('Origin',(8.5,10.75,0.5));
#1208=CARTESIAN_POINT('',(5.,13.25,0.5));
#1209=CARTESIAN_POINT('',(6.,13.25,0.5));
#1210=CARTESIAN_POINT('',(10.25,13.25,0.5));
#1211=CARTESIAN_POINT('',(6.,14.25,0.5));
#1212=CARTESIAN_POINT('',(6.,12.5,0.5));
#1213=CARTESIAN_POINT('',(5.,14.25,0.5));
#1214=CARTESIAN_POINT('',(6.75,14.25,0.5));
#1215=CARTESIAN_POINT('',(5.,9.,0.5));
#1216=CARTESIAN_POINT('',(5.29,13.75,0.5));
#1217=CARTESIAN_POINT('Origin',(5.5,13.75,0.5));
#1218=CARTESIAN_POINT('Origin',(8.5,10.75,0.5));
#1219=CARTESIAN_POINT('',(12.,8.25,0.5));
#1220=CARTESIAN_POINT('',(11.,8.25,0.5));
#1221=CARTESIAN_POINT('',(6.75,8.25,0.5));
#1222=CARTESIAN_POINT('',(11.,7.25,0.5));
#1223=CARTESIAN_POINT('',(11.,9.,0.5));
#1224=CARTESIAN_POINT('',(12.,7.25,0.5));
#1225=CARTESIAN_POINT('',(10.25,7.25,0.5));
#1226=CARTESIAN_POINT('',(12.,12.5,0.5));
#1227=CARTESIAN_POINT('',(11.29,7.75,0.5));
#1228=CARTESIAN_POINT('Origin',(11.5,7.75,0.5));
#1229=CARTESIAN_POINT('Origin',(8.5,10.75,0.5));
#1230=CARTESIAN_POINT('',(6.,8.25,0.5));
#1231=CARTESIAN_POINT('',(5.,8.25,0.5));
#1232=CARTESIAN_POINT('',(6.75,8.25,0.5));
#1233=CARTESIAN_POINT('',(5.,7.25,0.5));
#1234=CARTESIAN_POINT('',(5.,9.,0.5));
#1235=CARTESIAN_POINT('',(6.,7.25,0.5));
#1236=CARTESIAN_POINT('',(7.25,7.25,0.5));
#1237=CARTESIAN_POINT('',(6.,9.5,0.5));
#1238=CARTESIAN_POINT('',(5.29,7.75,0.5));
#1239=CARTESIAN_POINT('Origin',(5.5,7.75,0.5));
#1240=CARTESIAN_POINT('Origin',(11.5,7.75,0.));
#1241=CARTESIAN_POINT('',(11.29,7.75,0.));
#1242=CARTESIAN_POINT('',(11.29,7.75,0.));
#1243=CARTESIAN_POINT('Origin',(11.5,7.75,0.));
#1244=CARTESIAN_POINT('Origin',(5.5,7.75,0.));
#1245=CARTESIAN_POINT('',(5.29,7.75,0.));
#1246=CARTESIAN_POINT('',(5.29,7.75,0.));
#1247=CARTESIAN_POINT('Origin',(5.5,7.75,0.));
#1248=CARTESIAN_POINT('Origin',(5.5,13.75,0.));
#1249=CARTESIAN_POINT('',(5.29,13.75,0.));
#1250=CARTESIAN_POINT('',(5.29,13.75,0.));
#1251=CARTESIAN_POINT('Origin',(5.5,13.75,0.));
#1252=CARTESIAN_POINT('Origin',(11.5,13.75,0.));
#1253=CARTESIAN_POINT('',(11.29,13.75,0.));
#1254=CARTESIAN_POINT('',(11.29,13.75,0.));
#1255=CARTESIAN_POINT('Origin',(11.5,13.75,0.));
#1256=CARTESIAN_POINT('Origin',(6.,13.25,0.));
#1257=CARTESIAN_POINT('',(11.,13.25,1.));
#1258=CARTESIAN_POINT('',(11.,13.25,0.));
#1259=CARTESIAN_POINT('',(6.,13.25,1.));
#1260=CARTESIAN_POINT('',(5.,13.25,1.));
#1261=CARTESIAN_POINT('',(6.,13.25,0.));
#1262=CARTESIAN_POINT('',(5.,13.25,0.));
#1263=CARTESIAN_POINT('',(5.,13.25,0.));
#1264=CARTESIAN_POINT('',(12.,13.25,0.));
#1265=CARTESIAN_POINT('',(10.25,13.25,0.));
#1266=CARTESIAN_POINT('',(12.,13.25,0.));
#1267=CARTESIAN_POINT('Origin',(11.,13.25,0.));
#1268=CARTESIAN_POINT('',(11.,14.25,1.));
#1269=CARTESIAN_POINT('',(11.,14.25,0.));
#1270=CARTESIAN_POINT('',(11.,14.25,1.));
#1271=CARTESIAN_POINT('Origin',(11.,14.25,0.));
#1272=CARTESIAN_POINT('',(12.,14.25,1.));
#1273=CARTESIAN_POINT('',(12.,14.25,0.));
#1274=CARTESIAN_POINT('',(12.,14.25,1.));
#1275=CARTESIAN_POINT('Origin',(12.,14.25,0.));
#1276=CARTESIAN_POINT('',(12.,8.25,0.));
#1277=CARTESIAN_POINT('',(12.,9.5,0.));
#1278=CARTESIAN_POINT('',(12.,8.25,0.));
#1279=CARTESIAN_POINT('',(12.,7.25,1.));
#1280=CARTESIAN_POINT('',(12.,7.25,0.));
#1281=CARTESIAN_POINT('',(12.,7.25,1.));
#1282=CARTESIAN_POINT('Origin',(12.,7.25,0.));
#1283=CARTESIAN_POINT('',(11.,7.25,1.));
#1284=CARTESIAN_POINT('',(11.,7.25,0.));
#1285=CARTESIAN_POINT('',(11.,7.25,1.));
#1286=CARTESIAN_POINT('Origin',(11.,7.25,0.));
#1287=CARTESIAN_POINT('',(11.,8.25,1.));
#1288=CARTESIAN_POINT('',(11.,8.25,0.));
#1289=CARTESIAN_POINT('',(11.,8.25,1.));
#1290=CARTESIAN_POINT('Origin',(15.75,0.75000001907871,0.));
#1291=CARTESIAN_POINT('',(16.0000000277845,0.75000001907871,0.));
#1292=CARTESIAN_POINT('',(15.4999999722155,0.750000019379449,0.));
#1293=CARTESIAN_POINT('Origin',(15.75,0.75000001907871,0.));
#1294=CARTESIAN_POINT('',(15.4999999722155,0.750000019379449,0.5));
#1295=CARTESIAN_POINT('',(15.4999999722155,0.750000019379449,0.));
#1296=CARTESIAN_POINT('',(16.0000000277845,0.75000001907871,0.5));
#1297=CARTESIAN_POINT('Origin',(15.75,0.75000001907871,0.5));
#1298=CARTESIAN_POINT('',(16.0000000277845,0.75000001907871,0.));
#1299=CARTESIAN_POINT('Origin',(16.0000000277845,20.7500003091991,0.));
#1300=CARTESIAN_POINT('',(16.0000000277845,20.7500003091991,0.));
#1301=CARTESIAN_POINT('',(16.0000000277845,0.75000001907871,0.));
#1302=CARTESIAN_POINT('',(16.0000000277845,20.7500003091991,0.5));
#1303=CARTESIAN_POINT('',(16.0000000277845,0.75000001907871,0.5));
#1304=CARTESIAN_POINT('',(16.0000000277845,20.7500003091991,0.));
#1305=CARTESIAN_POINT('Origin',(15.75,20.7500003776271,0.));
#1306=CARTESIAN_POINT('',(15.4999999962747,20.7500003754331,0.));
#1307=CARTESIAN_POINT('Origin',(15.75,20.7500003776271,0.));
#1308=CARTESIAN_POINT('',(15.4999999962747,20.7500003754331,0.5));
#1309=CARTESIAN_POINT('Origin',(15.75,20.7500003776271,0.5));
#1310=CARTESIAN_POINT('',(15.4999999962747,20.7500003754331,0.));
#1311=CARTESIAN_POINT('Origin',(15.4999999722155,0.750000019379449,0.));
#1312=CARTESIAN_POINT('',(15.4999999962747,20.7500003754331,0.));
#1313=CARTESIAN_POINT('',(15.4999999962747,20.7500003754331,0.5));
#1314=CARTESIAN_POINT('Origin',(15.75,10.7500001953727,0.5));
#1315=CARTESIAN_POINT('',(15.35,20.7500003777463,0.5));
#1316=CARTESIAN_POINT('',(16.15,20.7500003811107,0.5));
#1317=CARTESIAN_POINT('Origin',(15.75,20.7500003776271,0.5));
#1318=CARTESIAN_POINT('',(15.3499999940395,0.750000018592451,0.5));
#1319=CARTESIAN_POINT('',(15.3499999955297,5.75000010704216,0.5));
#1320=CARTESIAN_POINT('',(16.1500000059605,0.750000019554847,0.5));
#1321=CARTESIAN_POINT('Origin',(15.75,0.75000001907871,0.5));
#1322=CARTESIAN_POINT('',(16.1500000014901,15.7500002883013,0.5));
#1323=CARTESIAN_POINT('Origin',(15.75,0.75000001907871,0.));
#1324=CARTESIAN_POINT('',(15.3499999940395,0.750000018592452,1.));
#1325=CARTESIAN_POINT('',(15.3499999940395,0.750000018592451,0.));
#1326=CARTESIAN_POINT('',(16.1500000059605,0.750000019554847,1.));
#1327=CARTESIAN_POINT('Origin',(15.75,0.75000001907871,1.));
#1328=CARTESIAN_POINT('',(16.1500000059605,0.750000019554847,0.));
#1329=CARTESIAN_POINT('Origin',(15.3499999940395,0.750000018592451,0.));
#1330=CARTESIAN_POINT('',(15.35,20.7500003777463,1.));
#1331=CARTESIAN_POINT('',(15.35,20.7500003777463,0.));
#1332=CARTESIAN_POINT('',(15.3499999940395,0.750000018592451,1.));
#1333=CARTESIAN_POINT('Origin',(1.50000023841858,20.7500003091991,0.));
#1334=CARTESIAN_POINT('',(1.50000023841858,20.7500003091991,0.));
#1335=CARTESIAN_POINT('',(1.50000023841858,0.750000011175871,0.));
#1336=CARTESIAN_POINT('',(1.50000023841858,0.750000011175871,0.));
#1337=CARTESIAN_POINT('',(1.50000023841858,0.750000011175871,0.5));
#1338=CARTESIAN_POINT('',(1.50000023841858,0.750000011175871,0.));
#1339=CARTESIAN_POINT('',(1.50000023841858,20.7500003091991,0.5));
#1340=CARTESIAN_POINT('',(1.50000023841858,0.750000011175871,0.5));
#1341=CARTESIAN_POINT('',(1.50000023841858,20.7500003091991,0.));
#1342=CARTESIAN_POINT('Origin',(1.25000023469329,20.7500003091991,0.));
#1343=CARTESIAN_POINT('',(1.000000230968,20.7500003091991,0.));
#1344=CARTESIAN_POINT('Origin',(1.25000023469329,20.7500003091991,0.));
#1345=CARTESIAN_POINT('',(1.000000230968,20.7500003091991,0.5));
#1346=CARTESIAN_POINT('Origin',(1.25000023469329,20.7500003091991,0.5));
#1347=CARTESIAN_POINT('',(1.000000230968,20.7500003091991,0.));
#1348=CARTESIAN_POINT('Origin',(1.000000230968,0.750000011175871,0.));
#1349=CARTESIAN_POINT('',(1.000000230968,0.750000011175871,0.));
#1350=CARTESIAN_POINT('',(1.000000230968,20.7500003091991,0.));
#1351=CARTESIAN_POINT('',(1.000000230968,0.750000011175871,0.5));
#1352=CARTESIAN_POINT('',(1.000000230968,20.7500003091991,0.5));
#1353=CARTESIAN_POINT('',(1.000000230968,0.750000011175871,0.));
#1354=CARTESIAN_POINT('Origin',(1.25000023469329,0.750000011175871,0.));
#1355=CARTESIAN_POINT('Origin',(1.25000023469329,0.750000011175871,0.));
#1356=CARTESIAN_POINT('Origin',(1.25000023469329,0.750000011175871,0.5));
#1357=CARTESIAN_POINT('Origin',(1.25000023469329,10.7500001572072,0.5));
#1358=CARTESIAN_POINT('',(0.85000023469329,20.7500003091991,0.5));
#1359=CARTESIAN_POINT('',(1.65000023469329,20.7500003091991,0.5));
#1360=CARTESIAN_POINT('Origin',(1.25000023469329,20.7500003091991,0.5));
#1361=CARTESIAN_POINT('',(0.850000228732824,0.750000011175871,0.5));
#1362=CARTESIAN_POINT('',(0.850000230222941,5.75000008425117,0.5));
#1363=CARTESIAN_POINT('',(1.65000024065375,0.750000011175871,0.5));
#1364=CARTESIAN_POINT('Origin',(1.25000023469329,0.750000011175871,0.5));
#1365=CARTESIAN_POINT('',(1.6500002361834,15.7500002332628,0.5));
#1366=CARTESIAN_POINT('Origin',(1.25000023469329,0.750000011175871,0.));
#1367=CARTESIAN_POINT('',(0.850000228732824,0.750000011175871,1.));
#1368=CARTESIAN_POINT('',(0.850000228732824,0.750000011175871,0.));
#1369=CARTESIAN_POINT('',(1.65000024065375,0.750000011175871,1.));
#1370=CARTESIAN_POINT('Origin',(1.25000023469329,0.750000011175871,1.));
#1371=CARTESIAN_POINT('',(1.65000024065375,0.750000011175871,0.));
#1372=CARTESIAN_POINT('Origin',(0.850000228732824,0.750000011175871,0.));
#1373=CARTESIAN_POINT('',(0.85000023469329,20.7500003091991,1.));
#1374=CARTESIAN_POINT('',(0.85000023469329,20.7500003091991,0.));
#1375=CARTESIAN_POINT('',(0.850000228732824,0.750000011175871,1.));
#1376=CARTESIAN_POINT('Origin',(1.65000023469329,20.7500003091991,0.));
#1377=CARTESIAN_POINT('',(1.65000023469329,20.7500003091991,1.));
#1378=CARTESIAN_POINT('',(1.65000023469329,20.7500003091991,1.));
#1379=CARTESIAN_POINT('',(1.65000023469329,20.7500003091991,0.));
#1380=CARTESIAN_POINT('Origin',(1.25000023469329,20.7500003091991,0.));
#1381=CARTESIAN_POINT('Origin',(1.25000023469329,20.7500003091991,1.));
#1382=CARTESIAN_POINT('Origin',(6.,14.25,0.));
#1383=CARTESIAN_POINT('',(6.,14.25,1.));
#1384=CARTESIAN_POINT('',(6.,14.25,1.));
#1385=CARTESIAN_POINT('',(6.,14.25,0.));
#1386=CARTESIAN_POINT('Origin',(5.,14.25,0.));
#1387=CARTESIAN_POINT('',(5.,14.25,1.));
#1388=CARTESIAN_POINT('',(5.,14.25,1.));
#1389=CARTESIAN_POINT('',(5.,14.25,0.));
#1390=CARTESIAN_POINT('Origin',(5.,7.25,0.));
#1391=CARTESIAN_POINT('',(5.,8.25,0.));
#1392=CARTESIAN_POINT('',(5.,8.25,0.));
#1393=CARTESIAN_POINT('',(5.,12.,0.));
#1394=CARTESIAN_POINT('',(5.,7.25,1.));
#1395=CARTESIAN_POINT('',(5.,13.25,1.));
#1396=CARTESIAN_POINT('',(5.,7.25,0.));
#1397=CARTESIAN_POINT('Origin',(6.,7.25,0.));
#1398=CARTESIAN_POINT('',(6.,7.25,1.));
#1399=CARTESIAN_POINT('',(6.,7.25,1.));
#1400=CARTESIAN_POINT('',(6.,7.25,0.));
#1401=CARTESIAN_POINT('Origin',(6.,8.25,0.));
#1402=CARTESIAN_POINT('',(6.,8.25,1.));
#1403=CARTESIAN_POINT('',(6.,8.25,1.));
#1404=CARTESIAN_POINT('',(6.,8.25,0.));
#1405=CARTESIAN_POINT('Origin',(11.,8.25,0.));
#1406=CARTESIAN_POINT('',(5.,8.25,1.));
#1407=CARTESIAN_POINT('',(6.75,8.25,0.));
#1408=CARTESIAN_POINT('Origin',(16.15,20.7500003811107,0.));
#1409=CARTESIAN_POINT('',(16.15,20.7500003811107,1.));
#1410=CARTESIAN_POINT('',(16.15,20.7500003811107,1.));
#1411=CARTESIAN_POINT('',(16.15,20.7500003811107,0.));
#1412=CARTESIAN_POINT('Origin',(15.75,20.7500003776271,0.));
#1413=CARTESIAN_POINT('Origin',(15.75,20.7500003776271,1.));
#1414=CARTESIAN_POINT('Origin',(0.,21.5,0.));
#1415=CARTESIAN_POINT('',(0.,0.,0.));
#1416=CARTESIAN_POINT('',(0.,21.5,0.));
#1417=CARTESIAN_POINT('',(0.,0.,0.));
#1418=CARTESIAN_POINT('',(0.,0.,1.));
#1419=CARTESIAN_POINT('',(0.,0.,0.));
#1420=CARTESIAN_POINT('',(0.,21.5,1.));
#1421=CARTESIAN_POINT('',(0.,0.,1.));
#1422=CARTESIAN_POINT('',(0.,21.5,0.));
#1423=CARTESIAN_POINT('Origin',(17.,21.5,0.));
#1424=CARTESIAN_POINT('',(17.,21.5,0.));
#1425=CARTESIAN_POINT('',(14.5,21.5,0.));
#1426=CARTESIAN_POINT('',(17.,21.5,1.));
#1427=CARTESIAN_POINT('',(14.5,21.5,1.));
#1428=CARTESIAN_POINT('',(17.,21.5,0.));
#1429=CARTESIAN_POINT('Origin',(17.,0.,0.));
#1430=CARTESIAN_POINT('',(17.,0.,0.));
#1431=CARTESIAN_POINT('',(17.,21.5,0.));
#1432=CARTESIAN_POINT('',(17.,0.,1.));
#1433=CARTESIAN_POINT('',(17.,21.5,1.));
#1434=CARTESIAN_POINT('',(17.,0.,0.));
#1435=CARTESIAN_POINT('Origin',(0.,0.,0.));
#1436=CARTESIAN_POINT('',(0.,0.,0.));
#1437=CARTESIAN_POINT('',(0.,0.,1.));
#1438=CARTESIAN_POINT('Origin',(8.5,10.75,1.));
#1439=CARTESIAN_POINT('Origin',(8.5,10.75,0.));
#1440=UNCERTAINTY_MEASURE_WITH_UNIT(LENGTH_MEASURE(0.001),#1444,
'DISTANCE_ACCURACY_VALUE',
'Maximum model space distance between geometric entities at asserted c
onnectivities');
#1441=UNCERTAINTY_MEASURE_WITH_UNIT(LENGTH_MEASURE(0.001),#1444,
'DISTANCE_ACCURACY_VALUE',
'Maximum model space distance between geometric entities at asserted c
onnectivities');
#1442=(
GEOMETRIC_REPRESENTATION_CONTEXT(3)
GLOBAL_UNCERTAINTY_ASSIGNED_CONTEXT((#1440))
GLOBAL_UNIT_ASSIGNED_CONTEXT((#1444,#1446,#1447))
REPRESENTATION_CONTEXT('','3D')
);
#1443=(
GEOMETRIC_REPRESENTATION_CONTEXT(3)
GLOBAL_UNCERTAINTY_ASSIGNED_CONTEXT((#1441))
GLOBAL_UNIT_ASSIGNED_CONTEXT((#1444,#1446,#1447))
REPRESENTATION_CONTEXT('','3D')
);
#1444=(
LENGTH_UNIT()
NAMED_UNIT(*)
SI_UNIT(.CENTI.,.METRE.)
);
#1445=(
LENGTH_UNIT()
NAMED_UNIT(*)
SI_UNIT($,.METRE.)
);
#1446=(
NAMED_UNIT(*)
PLANE_ANGLE_UNIT()
SI_UNIT($,.RADIAN.)
);
#1447=(
NAMED_UNIT(*)
SI_UNIT($,.STERADIAN.)
SOLID_ANGLE_UNIT()
);
#1448=SHAPE_DEFINITION_REPRESENTATION(#1449,#1450);
#1449=PRODUCT_DEFINITION_SHAPE('',$,#1452);
#1450=SHAPE_REPRESENTATION('',(#892),#1442);
#1451=PRODUCT_DEFINITION_CONTEXT('part definition',#1456,'design');
#1452=PRODUCT_DEFINITION('2026-07-21-12-10-15-921','plate battery',#1453,
#1451);
#1453=PRODUCT_DEFINITION_FORMATION('',$,#1458);
#1454=PRODUCT_RELATED_PRODUCT_CATEGORY('plate battery','plate battery',
(#1458));
#1455=APPLICATION_PROTOCOL_DEFINITION('international standard',
'automotive_design',2009,#1456);
#1456=APPLICATION_CONTEXT(
'Core Data for Automotive Mechanical Design Process');
#1457=PRODUCT_CONTEXT('part definition',#1456,'mechanical');
#1458=PRODUCT('2026-07-21-12-10-15-921','plate battery',$,(#1457));
#1459=PRESENTATION_STYLE_ASSIGNMENT((#1460));
#1460=SURFACE_STYLE_USAGE(.BOTH.,#1461);
#1461=SURFACE_SIDE_STYLE('',(#1462));
#1462=SURFACE_STYLE_FILL_AREA(#1463);
#1463=FILL_AREA_STYLE('ABS(\X2\D770C0C9\X0\)',(#1464));
#1464=FILL_AREA_STYLE_COLOUR('ABS(\X2\D770C0C9\X0\)',#1465);
#1465=COLOUR_RGB('ABS(\X2\D770C0C9\X0\)',0.964705882352941,0.964705882352941,
0.952941176470588);
ENDSEC;
END-ISO-10303-21;
