ISO-10303-21;
HEADER;
/* Generated by software containing ST-Developer
 * from STEP Tools, Inc. (www.steptools.com) 
 */

FILE_DESCRIPTION(
/* description */ (''),
/* implementation_level */ '2;1');

FILE_NAME(
/* name */ 'fan braket.step',
/* time_stamp */ '2026-08-31T17:53:03+09:00',
/* author */ (''),
/* organization */ (''),
/* preprocessor_version */ 'ST-DEVELOPER v20.1',
/* originating_system */ 'Autodesk Translation Framework v15.8.0.0',
/* authorisation */ '');

FILE_SCHEMA (('AUTOMOTIVE_DESIGN { 1 0 10303 214 3 1 1 }'));
ENDSEC;

DATA;
#10=MECHANICAL_DESIGN_GEOMETRIC_PRESENTATION_REPRESENTATION('',(#13),#1345);
#11=SHAPE_REPRESENTATION_RELATIONSHIP('SRR','None',#1352,#12);
#12=ADVANCED_BREP_SHAPE_REPRESENTATION('',(#14),#1344);
#13=STYLED_ITEM('',(#1361),#14);
#14=MANIFOLD_SOLID_BREP('\X2\BCF8CCB4\X0\1',#837);
#15=FACE_BOUND('',#108,.T.);
#16=FACE_BOUND('',#110,.T.);
#17=FACE_BOUND('',#112,.T.);
#18=FACE_BOUND('',#114,.T.);
#19=FACE_BOUND('',#121,.T.);
#20=FACE_BOUND('',#141,.T.);
#21=FACE_BOUND('',#142,.T.);
#22=FACE_BOUND('',#143,.T.);
#23=FACE_BOUND('',#144,.T.);
#24=FACE_BOUND('',#145,.T.);
#25=FACE_BOUND('',#150,.T.);
#26=FACE_BOUND('',#153,.T.);
#27=FACE_BOUND('',#155,.T.);
#28=FACE_BOUND('',#156,.T.);
#29=PLANE('',#863);
#30=PLANE('',#864);
#31=PLANE('',#865);
#32=PLANE('',#866);
#33=PLANE('',#867);
#34=PLANE('',#868);
#35=PLANE('',#869);
#36=PLANE('',#870);
#37=PLANE('',#871);
#38=PLANE('',#872);
#39=PLANE('',#873);
#40=PLANE('',#874);
#41=PLANE('',#875);
#42=PLANE('',#876);
#43=PLANE('',#877);
#44=PLANE('',#878);
#45=PLANE('',#879);
#46=PLANE('',#880);
#47=PLANE('',#881);
#48=PLANE('',#882);
#49=PLANE('',#883);
#50=PLANE('',#884);
#51=PLANE('',#885);
#52=PLANE('',#886);
#53=PLANE('',#887);
#54=PLANE('',#888);
#55=PLANE('',#889);
#56=PLANE('',#890);
#57=PLANE('',#891);
#58=PLANE('',#892);
#59=PLANE('',#893);
#60=PLANE('',#897);
#61=PLANE('',#901);
#62=PLANE('',#902);
#63=FACE_OUTER_BOUND('',#103,.T.);
#64=FACE_OUTER_BOUND('',#104,.T.);
#65=FACE_OUTER_BOUND('',#105,.T.);
#66=FACE_OUTER_BOUND('',#106,.T.);
#67=FACE_OUTER_BOUND('',#107,.T.);
#68=FACE_OUTER_BOUND('',#109,.T.);
#69=FACE_OUTER_BOUND('',#111,.T.);
#70=FACE_OUTER_BOUND('',#113,.T.);
#71=FACE_OUTER_BOUND('',#115,.T.);
#72=FACE_OUTER_BOUND('',#116,.T.);
#73=FACE_OUTER_BOUND('',#117,.T.);
#74=FACE_OUTER_BOUND('',#118,.T.);
#75=FACE_OUTER_BOUND('',#119,.T.);
#76=FACE_OUTER_BOUND('',#120,.T.);
#77=FACE_OUTER_BOUND('',#122,.T.);
#78=FACE_OUTER_BOUND('',#123,.T.);
#79=FACE_OUTER_BOUND('',#124,.T.);
#80=FACE_OUTER_BOUND('',#125,.T.);
#81=FACE_OUTER_BOUND('',#126,.T.);
#82=FACE_OUTER_BOUND('',#127,.T.);
#83=FACE_OUTER_BOUND('',#128,.T.);
#84=FACE_OUTER_BOUND('',#129,.T.);
#85=FACE_OUTER_BOUND('',#130,.T.);
#86=FACE_OUTER_BOUND('',#131,.T.);
#87=FACE_OUTER_BOUND('',#132,.T.);
#88=FACE_OUTER_BOUND('',#133,.T.);
#89=FACE_OUTER_BOUND('',#134,.T.);
#90=FACE_OUTER_BOUND('',#135,.T.);
#91=FACE_OUTER_BOUND('',#136,.T.);
#92=FACE_OUTER_BOUND('',#137,.T.);
#93=FACE_OUTER_BOUND('',#138,.T.);
#94=FACE_OUTER_BOUND('',#139,.T.);
#95=FACE_OUTER_BOUND('',#140,.T.);
#96=FACE_OUTER_BOUND('',#146,.T.);
#97=FACE_OUTER_BOUND('',#147,.T.);
#98=FACE_OUTER_BOUND('',#148,.T.);
#99=FACE_OUTER_BOUND('',#149,.T.);
#100=FACE_OUTER_BOUND('',#151,.T.);
#101=FACE_OUTER_BOUND('',#152,.T.);
#102=FACE_OUTER_BOUND('',#154,.T.);
#103=EDGE_LOOP('',(#563,#564,#565,#566));
#104=EDGE_LOOP('',(#567,#568,#569,#570));
#105=EDGE_LOOP('',(#571,#572,#573,#574));
#106=EDGE_LOOP('',(#575,#576,#577,#578));
#107=EDGE_LOOP('',(#579,#580,#581,#582,#583));
#108=EDGE_LOOP('',(#584));
#109=EDGE_LOOP('',(#585,#586,#587,#588,#589));
#110=EDGE_LOOP('',(#590));
#111=EDGE_LOOP('',(#591,#592,#593,#594,#595));
#112=EDGE_LOOP('',(#596));
#113=EDGE_LOOP('',(#597,#598,#599,#600,#601));
#114=EDGE_LOOP('',(#602));
#115=EDGE_LOOP('',(#603,#604,#605,#606));
#116=EDGE_LOOP('',(#607,#608,#609,#610));
#117=EDGE_LOOP('',(#611,#612,#613,#614));
#118=EDGE_LOOP('',(#615,#616,#617,#618));
#119=EDGE_LOOP('',(#619,#620,#621,#622));
#120=EDGE_LOOP('',(#623,#624,#625,#626,#627,#628,#629,#630,#631,#632,#633,
#634));
#121=EDGE_LOOP('',(#635,#636,#637,#638));
#122=EDGE_LOOP('',(#639,#640,#641,#642));
#123=EDGE_LOOP('',(#643,#644,#645,#646));
#124=EDGE_LOOP('',(#647,#648,#649,#650));
#125=EDGE_LOOP('',(#651,#652,#653,#654,#655,#656,#657,#658));
#126=EDGE_LOOP('',(#659,#660,#661,#662));
#127=EDGE_LOOP('',(#663,#664,#665,#666,#667,#668,#669,#670));
#128=EDGE_LOOP('',(#671,#672,#673,#674));
#129=EDGE_LOOP('',(#675,#676,#677,#678));
#130=EDGE_LOOP('',(#679,#680,#681,#682,#683,#684,#685,#686));
#131=EDGE_LOOP('',(#687,#688,#689,#690));
#132=EDGE_LOOP('',(#691,#692,#693,#694,#695,#696,#697,#698));
#133=EDGE_LOOP('',(#699,#700,#701,#702));
#134=EDGE_LOOP('',(#703,#704,#705,#706));
#135=EDGE_LOOP('',(#707,#708,#709,#710));
#136=EDGE_LOOP('',(#711,#712,#713,#714));
#137=EDGE_LOOP('',(#715,#716,#717,#718));
#138=EDGE_LOOP('',(#719,#720,#721,#722));
#139=EDGE_LOOP('',(#723,#724,#725,#726));
#140=EDGE_LOOP('',(#727,#728,#729,#730));
#141=EDGE_LOOP('',(#731,#732,#733,#734,#735,#736,#737,#738,#739,#740,#741,
#742,#743,#744,#745,#746));
#142=EDGE_LOOP('',(#747));
#143=EDGE_LOOP('',(#748));
#144=EDGE_LOOP('',(#749));
#145=EDGE_LOOP('',(#750));
#146=EDGE_LOOP('',(#751,#752,#753,#754));
#147=EDGE_LOOP('',(#755,#756,#757,#758));
#148=EDGE_LOOP('',(#759,#760,#761,#762));
#149=EDGE_LOOP('',(#763,#764,#765,#766));
#150=EDGE_LOOP('',(#767));
#151=EDGE_LOOP('',(#768,#769,#770,#771));
#152=EDGE_LOOP('',(#772,#773,#774,#775));
#153=EDGE_LOOP('',(#776));
#154=EDGE_LOOP('',(#777,#778,#779,#780,#781,#782,#783,#784,#785,#786,#787,
#788));
#155=EDGE_LOOP('',(#789));
#156=EDGE_LOOP('',(#790));
#157=LINE('',#1116,#259);
#158=LINE('',#1122,#260);
#159=LINE('',#1128,#261);
#160=LINE('',#1134,#262);
#161=LINE('',#1139,#263);
#162=LINE('',#1141,#264);
#163=LINE('',#1143,#265);
#164=LINE('',#1145,#266);
#165=LINE('',#1146,#267);
#166=LINE('',#1150,#268);
#167=LINE('',#1152,#269);
#168=LINE('',#1154,#270);
#169=LINE('',#1156,#271);
#170=LINE('',#1157,#272);
#171=LINE('',#1161,#273);
#172=LINE('',#1163,#274);
#173=LINE('',#1165,#275);
#174=LINE('',#1167,#276);
#175=LINE('',#1168,#277);
#176=LINE('',#1172,#278);
#177=LINE('',#1174,#279);
#178=LINE('',#1176,#280);
#179=LINE('',#1178,#281);
#180=LINE('',#1179,#282);
#181=LINE('',#1182,#283);
#182=LINE('',#1184,#284);
#183=LINE('',#1185,#285);
#184=LINE('',#1188,#286);
#185=LINE('',#1190,#287);
#186=LINE('',#1191,#288);
#187=LINE('',#1194,#289);
#188=LINE('',#1195,#290);
#189=LINE('',#1198,#291);
#190=LINE('',#1200,#292);
#191=LINE('',#1201,#293);
#192=LINE('',#1204,#294);
#193=LINE('',#1205,#295);
#194=LINE('',#1209,#296);
#195=LINE('',#1211,#297);
#196=LINE('',#1213,#298);
#197=LINE('',#1215,#299);
#198=LINE('',#1217,#300);
#199=LINE('',#1219,#301);
#200=LINE('',#1221,#302);
#201=LINE('',#1223,#303);
#202=LINE('',#1225,#304);
#203=LINE('',#1227,#305);
#204=LINE('',#1229,#306);
#205=LINE('',#1230,#307);
#206=LINE('',#1233,#308);
#207=LINE('',#1235,#309);
#208=LINE('',#1237,#310);
#209=LINE('',#1238,#311);
#210=LINE('',#1241,#312);
#211=LINE('',#1243,#313);
#212=LINE('',#1244,#314);
#213=LINE('',#1247,#315);
#214=LINE('',#1248,#316);
#215=LINE('',#1251,#317);
#216=LINE('',#1252,#318);
#217=LINE('',#1254,#319);
#218=LINE('',#1255,#320);
#219=LINE('',#1256,#321);
#220=LINE('',#1259,#322);
#221=LINE('',#1260,#323);
#222=LINE('',#1262,#324);
#223=LINE('',#1263,#325);
#224=LINE('',#1266,#326);
#225=LINE('',#1267,#327);
#226=LINE('',#1270,#328);
#227=LINE('',#1271,#329);
#228=LINE('',#1273,#330);
#229=LINE('',#1274,#331);
#230=LINE('',#1277,#332);
#231=LINE('',#1278,#333);
#232=LINE('',#1280,#334);
#233=LINE('',#1283,#335);
#234=LINE('',#1285,#336);
#235=LINE('',#1286,#337);
#236=LINE('',#1289,#338);
#237=LINE('',#1291,#339);
#238=LINE('',#1292,#340);
#239=LINE('',#1294,#341);
#240=LINE('',#1295,#342);
#241=LINE('',#1298,#343);
#242=LINE('',#1300,#344);
#243=LINE('',#1301,#345);
#244=LINE('',#1304,#346);
#245=LINE('',#1306,#347);
#246=LINE('',#1307,#348);
#247=LINE('',#1309,#349);
#248=LINE('',#1310,#350);
#249=LINE('',#1313,#351);
#250=LINE('',#1315,#352);
#251=LINE('',#1316,#353);
#252=LINE('',#1319,#354);
#253=LINE('',#1321,#355);
#254=LINE('',#1322,#356);
#255=LINE('',#1324,#357);
#256=LINE('',#1325,#358);
#257=LINE('',#1331,#359);
#258=LINE('',#1338,#360);
#259=VECTOR('',#909,0.2);
#260=VECTOR('',#916,0.2);
#261=VECTOR('',#923,0.2);
#262=VECTOR('',#930,0.2);
#263=VECTOR('',#935,1.);
#264=VECTOR('',#936,1.);
#265=VECTOR('',#937,1.);
#266=VECTOR('',#938,1.);
#267=VECTOR('',#939,1.);
#268=VECTOR('',#942,1.);
#269=VECTOR('',#943,1.);
#270=VECTOR('',#944,1.);
#271=VECTOR('',#945,1.);
#272=VECTOR('',#946,1.);
#273=VECTOR('',#949,1.);
#274=VECTOR('',#950,1.);
#275=VECTOR('',#951,1.);
#276=VECTOR('',#952,1.);
#277=VECTOR('',#953,1.);
#278=VECTOR('',#956,1.);
#279=VECTOR('',#957,1.);
#280=VECTOR('',#958,1.);
#281=VECTOR('',#959,1.);
#282=VECTOR('',#960,1.);
#283=VECTOR('',#963,1.);
#284=VECTOR('',#964,1.);
#285=VECTOR('',#965,1.);
#286=VECTOR('',#968,1.);
#287=VECTOR('',#969,1.);
#288=VECTOR('',#970,1.);
#289=VECTOR('',#973,1.);
#290=VECTOR('',#974,1.);
#291=VECTOR('',#977,1.);
#292=VECTOR('',#978,1.);
#293=VECTOR('',#979,1.);
#294=VECTOR('',#982,1.);
#295=VECTOR('',#983,1.);
#296=VECTOR('',#986,1.);
#297=VECTOR('',#987,1.);
#298=VECTOR('',#988,1.);
#299=VECTOR('',#989,1.);
#300=VECTOR('',#990,1.);
#301=VECTOR('',#991,1.);
#302=VECTOR('',#992,1.);
#303=VECTOR('',#993,1.);
#304=VECTOR('',#994,1.);
#305=VECTOR('',#995,1.);
#306=VECTOR('',#996,1.);
#307=VECTOR('',#997,1.);
#308=VECTOR('',#998,1.);
#309=VECTOR('',#999,1.);
#310=VECTOR('',#1000,1.);
#311=VECTOR('',#1001,1.);
#312=VECTOR('',#1004,1.);
#313=VECTOR('',#1005,1.);
#314=VECTOR('',#1006,1.);
#315=VECTOR('',#1009,1.);
#316=VECTOR('',#1010,1.);
#317=VECTOR('',#1013,1.);
#318=VECTOR('',#1014,1.);
#319=VECTOR('',#1017,1.);
#320=VECTOR('',#1018,1.);
#321=VECTOR('',#1019,1.);
#322=VECTOR('',#1022,1.);
#323=VECTOR('',#1023,1.);
#324=VECTOR('',#1026,1.);
#325=VECTOR('',#1027,1.);
#326=VECTOR('',#1030,1.);
#327=VECTOR('',#1031,1.);
#328=VECTOR('',#1034,1.);
#329=VECTOR('',#1035,1.);
#330=VECTOR('',#1038,1.);
#331=VECTOR('',#1039,1.);
#332=VECTOR('',#1042,1.);
#333=VECTOR('',#1043,1.);
#334=VECTOR('',#1046,1.);
#335=VECTOR('',#1049,1.);
#336=VECTOR('',#1050,1.);
#337=VECTOR('',#1051,1.);
#338=VECTOR('',#1054,1.);
#339=VECTOR('',#1055,1.);
#340=VECTOR('',#1056,1.);
#341=VECTOR('',#1059,1.);
#342=VECTOR('',#1060,1.);
#343=VECTOR('',#1063,1.);
#344=VECTOR('',#1064,1.);
#345=VECTOR('',#1065,1.);
#346=VECTOR('',#1068,1.);
#347=VECTOR('',#1069,1.);
#348=VECTOR('',#1070,1.);
#349=VECTOR('',#1073,1.);
#350=VECTOR('',#1074,1.);
#351=VECTOR('',#1077,1.);
#352=VECTOR('',#1078,1.);
#353=VECTOR('',#1079,1.);
#354=VECTOR('',#1082,1.);
#355=VECTOR('',#1083,1.);
#356=VECTOR('',#1084,1.);
#357=VECTOR('',#1087,1.);
#358=VECTOR('',#1088,1.);
#359=VECTOR('',#1095,0.2);
#360=VECTOR('',#1104,0.2);
#361=CIRCLE('',#852,0.2);
#362=CIRCLE('',#853,0.2);
#363=CIRCLE('',#855,0.2);
#364=CIRCLE('',#856,0.2);
#365=CIRCLE('',#858,0.2);
#366=CIRCLE('',#859,0.2);
#367=CIRCLE('',#861,0.2);
#368=CIRCLE('',#862,0.2);
#369=CIRCLE('',#895,0.2);
#370=CIRCLE('',#896,0.2);
#371=CIRCLE('',#899,0.2);
#372=CIRCLE('',#900,0.2);
#373=VERTEX_POINT('',#1113);
#374=VERTEX_POINT('',#1115);
#375=VERTEX_POINT('',#1119);
#376=VERTEX_POINT('',#1121);
#377=VERTEX_POINT('',#1125);
#378=VERTEX_POINT('',#1127);
#379=VERTEX_POINT('',#1131);
#380=VERTEX_POINT('',#1133);
#381=VERTEX_POINT('',#1137);
#382=VERTEX_POINT('',#1138);
#383=VERTEX_POINT('',#1140);
#384=VERTEX_POINT('',#1142);
#385=VERTEX_POINT('',#1144);
#386=VERTEX_POINT('',#1148);
#387=VERTEX_POINT('',#1149);
#388=VERTEX_POINT('',#1151);
#389=VERTEX_POINT('',#1153);
#390=VERTEX_POINT('',#1155);
#391=VERTEX_POINT('',#1159);
#392=VERTEX_POINT('',#1160);
#393=VERTEX_POINT('',#1162);
#394=VERTEX_POINT('',#1164);
#395=VERTEX_POINT('',#1166);
#396=VERTEX_POINT('',#1170);
#397=VERTEX_POINT('',#1171);
#398=VERTEX_POINT('',#1173);
#399=VERTEX_POINT('',#1175);
#400=VERTEX_POINT('',#1177);
#401=VERTEX_POINT('',#1181);
#402=VERTEX_POINT('',#1183);
#403=VERTEX_POINT('',#1187);
#404=VERTEX_POINT('',#1189);
#405=VERTEX_POINT('',#1193);
#406=VERTEX_POINT('',#1197);
#407=VERTEX_POINT('',#1199);
#408=VERTEX_POINT('',#1203);
#409=VERTEX_POINT('',#1207);
#410=VERTEX_POINT('',#1208);
#411=VERTEX_POINT('',#1210);
#412=VERTEX_POINT('',#1212);
#413=VERTEX_POINT('',#1214);
#414=VERTEX_POINT('',#1216);
#415=VERTEX_POINT('',#1218);
#416=VERTEX_POINT('',#1220);
#417=VERTEX_POINT('',#1222);
#418=VERTEX_POINT('',#1224);
#419=VERTEX_POINT('',#1226);
#420=VERTEX_POINT('',#1228);
#421=VERTEX_POINT('',#1231);
#422=VERTEX_POINT('',#1232);
#423=VERTEX_POINT('',#1234);
#424=VERTEX_POINT('',#1236);
#425=VERTEX_POINT('',#1240);
#426=VERTEX_POINT('',#1242);
#427=VERTEX_POINT('',#1246);
#428=VERTEX_POINT('',#1250);
#429=VERTEX_POINT('',#1258);
#430=VERTEX_POINT('',#1265);
#431=VERTEX_POINT('',#1269);
#432=VERTEX_POINT('',#1276);
#433=VERTEX_POINT('',#1282);
#434=VERTEX_POINT('',#1284);
#435=VERTEX_POINT('',#1288);
#436=VERTEX_POINT('',#1290);
#437=VERTEX_POINT('',#1297);
#438=VERTEX_POINT('',#1299);
#439=VERTEX_POINT('',#1303);
#440=VERTEX_POINT('',#1305);
#441=VERTEX_POINT('',#1312);
#442=VERTEX_POINT('',#1314);
#443=VERTEX_POINT('',#1318);
#444=VERTEX_POINT('',#1320);
#445=VERTEX_POINT('',#1328);
#446=VERTEX_POINT('',#1330);
#447=VERTEX_POINT('',#1335);
#448=VERTEX_POINT('',#1337);
#449=EDGE_CURVE('',#373,#373,#361,.T.);
#450=EDGE_CURVE('',#373,#374,#157,.T.);
#451=EDGE_CURVE('',#374,#374,#362,.T.);
#452=EDGE_CURVE('',#375,#375,#363,.T.);
#453=EDGE_CURVE('',#375,#376,#158,.T.);
#454=EDGE_CURVE('',#376,#376,#364,.T.);
#455=EDGE_CURVE('',#377,#377,#365,.T.);
#456=EDGE_CURVE('',#377,#378,#159,.T.);
#457=EDGE_CURVE('',#378,#378,#366,.T.);
#458=EDGE_CURVE('',#379,#379,#367,.T.);
#459=EDGE_CURVE('',#379,#380,#160,.T.);
#460=EDGE_CURVE('',#380,#380,#368,.T.);
#461=EDGE_CURVE('',#381,#382,#161,.T.);
#462=EDGE_CURVE('',#383,#381,#162,.T.);
#463=EDGE_CURVE('',#384,#383,#163,.T.);
#464=EDGE_CURVE('',#385,#384,#164,.T.);
#465=EDGE_CURVE('',#382,#385,#165,.T.);
#466=EDGE_CURVE('',#386,#387,#166,.T.);
#467=EDGE_CURVE('',#388,#386,#167,.T.);
#468=EDGE_CURVE('',#389,#388,#168,.T.);
#469=EDGE_CURVE('',#390,#389,#169,.T.);
#470=EDGE_CURVE('',#387,#390,#170,.T.);
#471=EDGE_CURVE('',#391,#392,#171,.T.);
#472=EDGE_CURVE('',#393,#391,#172,.T.);
#473=EDGE_CURVE('',#394,#393,#173,.T.);
#474=EDGE_CURVE('',#395,#394,#174,.T.);
#475=EDGE_CURVE('',#392,#395,#175,.T.);
#476=EDGE_CURVE('',#396,#397,#176,.T.);
#477=EDGE_CURVE('',#398,#396,#177,.T.);
#478=EDGE_CURVE('',#399,#398,#178,.T.);
#479=EDGE_CURVE('',#400,#399,#179,.T.);
#480=EDGE_CURVE('',#397,#400,#180,.T.);
#481=EDGE_CURVE('',#382,#401,#181,.T.);
#482=EDGE_CURVE('',#402,#401,#182,.T.);
#483=EDGE_CURVE('',#381,#402,#183,.T.);
#484=EDGE_CURVE('',#386,#403,#184,.T.);
#485=EDGE_CURVE('',#404,#403,#185,.T.);
#486=EDGE_CURVE('',#388,#404,#186,.T.);
#487=EDGE_CURVE('',#387,#405,#187,.T.);
#488=EDGE_CURVE('',#403,#405,#188,.T.);
#489=EDGE_CURVE('',#391,#406,#189,.T.);
#490=EDGE_CURVE('',#407,#406,#190,.T.);
#491=EDGE_CURVE('',#393,#407,#191,.T.);
#492=EDGE_CURVE('',#392,#408,#192,.T.);
#493=EDGE_CURVE('',#406,#408,#193,.T.);
#494=EDGE_CURVE('',#409,#410,#194,.T.);
#495=EDGE_CURVE('',#410,#411,#195,.T.);
#496=EDGE_CURVE('',#411,#412,#196,.T.);
#497=EDGE_CURVE('',#412,#413,#197,.T.);
#498=EDGE_CURVE('',#413,#414,#198,.T.);
#499=EDGE_CURVE('',#415,#414,#199,.T.);
#500=EDGE_CURVE('',#416,#415,#200,.T.);
#501=EDGE_CURVE('',#416,#417,#201,.T.);
#502=EDGE_CURVE('',#417,#418,#202,.T.);
#503=EDGE_CURVE('',#418,#419,#203,.T.);
#504=EDGE_CURVE('',#419,#420,#204,.T.);
#505=EDGE_CURVE('',#420,#409,#205,.T.);
#506=EDGE_CURVE('',#421,#422,#206,.T.);
#507=EDGE_CURVE('',#422,#423,#207,.T.);
#508=EDGE_CURVE('',#423,#424,#208,.T.);
#509=EDGE_CURVE('',#424,#421,#209,.T.);
#510=EDGE_CURVE('',#400,#425,#210,.T.);
#511=EDGE_CURVE('',#426,#425,#211,.T.);
#512=EDGE_CURVE('',#397,#426,#212,.T.);
#513=EDGE_CURVE('',#399,#427,#213,.T.);
#514=EDGE_CURVE('',#425,#427,#214,.T.);
#515=EDGE_CURVE('',#398,#428,#215,.T.);
#516=EDGE_CURVE('',#427,#428,#216,.T.);
#517=EDGE_CURVE('',#423,#394,#217,.T.);
#518=EDGE_CURVE('',#428,#407,#218,.T.);
#519=EDGE_CURVE('',#424,#396,#219,.T.);
#520=EDGE_CURVE('',#395,#429,#220,.T.);
#521=EDGE_CURVE('',#408,#429,#221,.T.);
#522=EDGE_CURVE('',#422,#383,#222,.T.);
#523=EDGE_CURVE('',#429,#402,#223,.T.);
#524=EDGE_CURVE('',#385,#430,#224,.T.);
#525=EDGE_CURVE('',#401,#430,#225,.T.);
#526=EDGE_CURVE('',#384,#431,#226,.T.);
#527=EDGE_CURVE('',#430,#431,#227,.T.);
#528=EDGE_CURVE('',#421,#389,#228,.T.);
#529=EDGE_CURVE('',#431,#404,#229,.T.);
#530=EDGE_CURVE('',#390,#432,#230,.T.);
#531=EDGE_CURVE('',#405,#432,#231,.T.);
#532=EDGE_CURVE('',#432,#426,#232,.T.);
#533=EDGE_CURVE('',#412,#433,#233,.T.);
#534=EDGE_CURVE('',#434,#411,#234,.T.);
#535=EDGE_CURVE('',#433,#434,#235,.T.);
#536=EDGE_CURVE('',#433,#435,#236,.T.);
#537=EDGE_CURVE('',#436,#434,#237,.T.);
#538=EDGE_CURVE('',#435,#436,#238,.T.);
#539=EDGE_CURVE('',#435,#409,#239,.T.);
#540=EDGE_CURVE('',#410,#436,#240,.T.);
#541=EDGE_CURVE('',#420,#437,#241,.T.);
#542=EDGE_CURVE('',#438,#419,#242,.T.);
#543=EDGE_CURVE('',#437,#438,#243,.T.);
#544=EDGE_CURVE('',#437,#439,#244,.T.);
#545=EDGE_CURVE('',#440,#438,#245,.T.);
#546=EDGE_CURVE('',#439,#440,#246,.T.);
#547=EDGE_CURVE('',#439,#417,#247,.T.);
#548=EDGE_CURVE('',#418,#440,#248,.T.);
#549=EDGE_CURVE('',#441,#416,#249,.T.);
#550=EDGE_CURVE('',#442,#415,#250,.T.);
#551=EDGE_CURVE('',#441,#442,#251,.T.);
#552=EDGE_CURVE('',#443,#441,#252,.T.);
#553=EDGE_CURVE('',#444,#442,#253,.T.);
#554=EDGE_CURVE('',#443,#444,#254,.T.);
#555=EDGE_CURVE('',#413,#443,#255,.T.);
#556=EDGE_CURVE('',#414,#444,#256,.T.);
#557=EDGE_CURVE('',#445,#445,#369,.T.);
#558=EDGE_CURVE('',#445,#446,#257,.T.);
#559=EDGE_CURVE('',#446,#446,#370,.T.);
#560=EDGE_CURVE('',#447,#447,#371,.T.);
#561=EDGE_CURVE('',#447,#448,#258,.T.);
#562=EDGE_CURVE('',#448,#448,#372,.T.);
#563=ORIENTED_EDGE('',*,*,#449,.F.);
#564=ORIENTED_EDGE('',*,*,#450,.T.);
#565=ORIENTED_EDGE('',*,*,#451,.F.);
#566=ORIENTED_EDGE('',*,*,#450,.F.);
#567=ORIENTED_EDGE('',*,*,#452,.F.);
#568=ORIENTED_EDGE('',*,*,#453,.T.);
#569=ORIENTED_EDGE('',*,*,#454,.F.);
#570=ORIENTED_EDGE('',*,*,#453,.F.);
#571=ORIENTED_EDGE('',*,*,#455,.F.);
#572=ORIENTED_EDGE('',*,*,#456,.T.);
#573=ORIENTED_EDGE('',*,*,#457,.F.);
#574=ORIENTED_EDGE('',*,*,#456,.F.);
#575=ORIENTED_EDGE('',*,*,#458,.F.);
#576=ORIENTED_EDGE('',*,*,#459,.T.);
#577=ORIENTED_EDGE('',*,*,#460,.F.);
#578=ORIENTED_EDGE('',*,*,#459,.F.);
#579=ORIENTED_EDGE('',*,*,#461,.F.);
#580=ORIENTED_EDGE('',*,*,#462,.F.);
#581=ORIENTED_EDGE('',*,*,#463,.F.);
#582=ORIENTED_EDGE('',*,*,#464,.F.);
#583=ORIENTED_EDGE('',*,*,#465,.F.);
#584=ORIENTED_EDGE('',*,*,#452,.T.);
#585=ORIENTED_EDGE('',*,*,#466,.F.);
#586=ORIENTED_EDGE('',*,*,#467,.F.);
#587=ORIENTED_EDGE('',*,*,#468,.F.);
#588=ORIENTED_EDGE('',*,*,#469,.F.);
#589=ORIENTED_EDGE('',*,*,#470,.F.);
#590=ORIENTED_EDGE('',*,*,#449,.T.);
#591=ORIENTED_EDGE('',*,*,#471,.F.);
#592=ORIENTED_EDGE('',*,*,#472,.F.);
#593=ORIENTED_EDGE('',*,*,#473,.F.);
#594=ORIENTED_EDGE('',*,*,#474,.F.);
#595=ORIENTED_EDGE('',*,*,#475,.F.);
#596=ORIENTED_EDGE('',*,*,#458,.T.);
#597=ORIENTED_EDGE('',*,*,#476,.F.);
#598=ORIENTED_EDGE('',*,*,#477,.F.);
#599=ORIENTED_EDGE('',*,*,#478,.F.);
#600=ORIENTED_EDGE('',*,*,#479,.F.);
#601=ORIENTED_EDGE('',*,*,#480,.F.);
#602=ORIENTED_EDGE('',*,*,#455,.T.);
#603=ORIENTED_EDGE('',*,*,#461,.T.);
#604=ORIENTED_EDGE('',*,*,#481,.T.);
#605=ORIENTED_EDGE('',*,*,#482,.F.);
#606=ORIENTED_EDGE('',*,*,#483,.F.);
#607=ORIENTED_EDGE('',*,*,#467,.T.);
#608=ORIENTED_EDGE('',*,*,#484,.T.);
#609=ORIENTED_EDGE('',*,*,#485,.F.);
#610=ORIENTED_EDGE('',*,*,#486,.F.);
#611=ORIENTED_EDGE('',*,*,#466,.T.);
#612=ORIENTED_EDGE('',*,*,#487,.T.);
#613=ORIENTED_EDGE('',*,*,#488,.F.);
#614=ORIENTED_EDGE('',*,*,#484,.F.);
#615=ORIENTED_EDGE('',*,*,#472,.T.);
#616=ORIENTED_EDGE('',*,*,#489,.T.);
#617=ORIENTED_EDGE('',*,*,#490,.F.);
#618=ORIENTED_EDGE('',*,*,#491,.F.);
#619=ORIENTED_EDGE('',*,*,#471,.T.);
#620=ORIENTED_EDGE('',*,*,#492,.T.);
#621=ORIENTED_EDGE('',*,*,#493,.F.);
#622=ORIENTED_EDGE('',*,*,#489,.F.);
#623=ORIENTED_EDGE('',*,*,#494,.T.);
#624=ORIENTED_EDGE('',*,*,#495,.T.);
#625=ORIENTED_EDGE('',*,*,#496,.T.);
#626=ORIENTED_EDGE('',*,*,#497,.T.);
#627=ORIENTED_EDGE('',*,*,#498,.T.);
#628=ORIENTED_EDGE('',*,*,#499,.F.);
#629=ORIENTED_EDGE('',*,*,#500,.F.);
#630=ORIENTED_EDGE('',*,*,#501,.T.);
#631=ORIENTED_EDGE('',*,*,#502,.T.);
#632=ORIENTED_EDGE('',*,*,#503,.T.);
#633=ORIENTED_EDGE('',*,*,#504,.T.);
#634=ORIENTED_EDGE('',*,*,#505,.T.);
#635=ORIENTED_EDGE('',*,*,#506,.T.);
#636=ORIENTED_EDGE('',*,*,#507,.T.);
#637=ORIENTED_EDGE('',*,*,#508,.T.);
#638=ORIENTED_EDGE('',*,*,#509,.T.);
#639=ORIENTED_EDGE('',*,*,#480,.T.);
#640=ORIENTED_EDGE('',*,*,#510,.T.);
#641=ORIENTED_EDGE('',*,*,#511,.F.);
#642=ORIENTED_EDGE('',*,*,#512,.F.);
#643=ORIENTED_EDGE('',*,*,#479,.T.);
#644=ORIENTED_EDGE('',*,*,#513,.T.);
#645=ORIENTED_EDGE('',*,*,#514,.F.);
#646=ORIENTED_EDGE('',*,*,#510,.F.);
#647=ORIENTED_EDGE('',*,*,#478,.T.);
#648=ORIENTED_EDGE('',*,*,#515,.T.);
#649=ORIENTED_EDGE('',*,*,#516,.F.);
#650=ORIENTED_EDGE('',*,*,#513,.F.);
#651=ORIENTED_EDGE('',*,*,#508,.F.);
#652=ORIENTED_EDGE('',*,*,#517,.T.);
#653=ORIENTED_EDGE('',*,*,#473,.T.);
#654=ORIENTED_EDGE('',*,*,#491,.T.);
#655=ORIENTED_EDGE('',*,*,#518,.F.);
#656=ORIENTED_EDGE('',*,*,#515,.F.);
#657=ORIENTED_EDGE('',*,*,#477,.T.);
#658=ORIENTED_EDGE('',*,*,#519,.F.);
#659=ORIENTED_EDGE('',*,*,#475,.T.);
#660=ORIENTED_EDGE('',*,*,#520,.T.);
#661=ORIENTED_EDGE('',*,*,#521,.F.);
#662=ORIENTED_EDGE('',*,*,#492,.F.);
#663=ORIENTED_EDGE('',*,*,#507,.F.);
#664=ORIENTED_EDGE('',*,*,#522,.T.);
#665=ORIENTED_EDGE('',*,*,#462,.T.);
#666=ORIENTED_EDGE('',*,*,#483,.T.);
#667=ORIENTED_EDGE('',*,*,#523,.F.);
#668=ORIENTED_EDGE('',*,*,#520,.F.);
#669=ORIENTED_EDGE('',*,*,#474,.T.);
#670=ORIENTED_EDGE('',*,*,#517,.F.);
#671=ORIENTED_EDGE('',*,*,#465,.T.);
#672=ORIENTED_EDGE('',*,*,#524,.T.);
#673=ORIENTED_EDGE('',*,*,#525,.F.);
#674=ORIENTED_EDGE('',*,*,#481,.F.);
#675=ORIENTED_EDGE('',*,*,#464,.T.);
#676=ORIENTED_EDGE('',*,*,#526,.T.);
#677=ORIENTED_EDGE('',*,*,#527,.F.);
#678=ORIENTED_EDGE('',*,*,#524,.F.);
#679=ORIENTED_EDGE('',*,*,#506,.F.);
#680=ORIENTED_EDGE('',*,*,#528,.T.);
#681=ORIENTED_EDGE('',*,*,#468,.T.);
#682=ORIENTED_EDGE('',*,*,#486,.T.);
#683=ORIENTED_EDGE('',*,*,#529,.F.);
#684=ORIENTED_EDGE('',*,*,#526,.F.);
#685=ORIENTED_EDGE('',*,*,#463,.T.);
#686=ORIENTED_EDGE('',*,*,#522,.F.);
#687=ORIENTED_EDGE('',*,*,#470,.T.);
#688=ORIENTED_EDGE('',*,*,#530,.T.);
#689=ORIENTED_EDGE('',*,*,#531,.F.);
#690=ORIENTED_EDGE('',*,*,#487,.F.);
#691=ORIENTED_EDGE('',*,*,#509,.F.);
#692=ORIENTED_EDGE('',*,*,#519,.T.);
#693=ORIENTED_EDGE('',*,*,#476,.T.);
#694=ORIENTED_EDGE('',*,*,#512,.T.);
#695=ORIENTED_EDGE('',*,*,#532,.F.);
#696=ORIENTED_EDGE('',*,*,#530,.F.);
#697=ORIENTED_EDGE('',*,*,#469,.T.);
#698=ORIENTED_EDGE('',*,*,#528,.F.);
#699=ORIENTED_EDGE('',*,*,#533,.F.);
#700=ORIENTED_EDGE('',*,*,#496,.F.);
#701=ORIENTED_EDGE('',*,*,#534,.F.);
#702=ORIENTED_EDGE('',*,*,#535,.F.);
#703=ORIENTED_EDGE('',*,*,#536,.F.);
#704=ORIENTED_EDGE('',*,*,#535,.T.);
#705=ORIENTED_EDGE('',*,*,#537,.F.);
#706=ORIENTED_EDGE('',*,*,#538,.F.);
#707=ORIENTED_EDGE('',*,*,#539,.F.);
#708=ORIENTED_EDGE('',*,*,#538,.T.);
#709=ORIENTED_EDGE('',*,*,#540,.F.);
#710=ORIENTED_EDGE('',*,*,#494,.F.);
#711=ORIENTED_EDGE('',*,*,#541,.F.);
#712=ORIENTED_EDGE('',*,*,#504,.F.);
#713=ORIENTED_EDGE('',*,*,#542,.F.);
#714=ORIENTED_EDGE('',*,*,#543,.F.);
#715=ORIENTED_EDGE('',*,*,#544,.F.);
#716=ORIENTED_EDGE('',*,*,#543,.T.);
#717=ORIENTED_EDGE('',*,*,#545,.F.);
#718=ORIENTED_EDGE('',*,*,#546,.F.);
#719=ORIENTED_EDGE('',*,*,#547,.F.);
#720=ORIENTED_EDGE('',*,*,#546,.T.);
#721=ORIENTED_EDGE('',*,*,#548,.F.);
#722=ORIENTED_EDGE('',*,*,#502,.F.);
#723=ORIENTED_EDGE('',*,*,#549,.T.);
#724=ORIENTED_EDGE('',*,*,#500,.T.);
#725=ORIENTED_EDGE('',*,*,#550,.F.);
#726=ORIENTED_EDGE('',*,*,#551,.F.);
#727=ORIENTED_EDGE('',*,*,#552,.T.);
#728=ORIENTED_EDGE('',*,*,#551,.T.);
#729=ORIENTED_EDGE('',*,*,#553,.F.);
#730=ORIENTED_EDGE('',*,*,#554,.F.);
#731=ORIENTED_EDGE('',*,*,#511,.T.);
#732=ORIENTED_EDGE('',*,*,#514,.T.);
#733=ORIENTED_EDGE('',*,*,#516,.T.);
#734=ORIENTED_EDGE('',*,*,#518,.T.);
#735=ORIENTED_EDGE('',*,*,#490,.T.);
#736=ORIENTED_EDGE('',*,*,#493,.T.);
#737=ORIENTED_EDGE('',*,*,#521,.T.);
#738=ORIENTED_EDGE('',*,*,#523,.T.);
#739=ORIENTED_EDGE('',*,*,#482,.T.);
#740=ORIENTED_EDGE('',*,*,#525,.T.);
#741=ORIENTED_EDGE('',*,*,#527,.T.);
#742=ORIENTED_EDGE('',*,*,#529,.T.);
#743=ORIENTED_EDGE('',*,*,#485,.T.);
#744=ORIENTED_EDGE('',*,*,#488,.T.);
#745=ORIENTED_EDGE('',*,*,#531,.T.);
#746=ORIENTED_EDGE('',*,*,#532,.T.);
#747=ORIENTED_EDGE('',*,*,#460,.T.);
#748=ORIENTED_EDGE('',*,*,#457,.T.);
#749=ORIENTED_EDGE('',*,*,#454,.T.);
#750=ORIENTED_EDGE('',*,*,#451,.T.);
#751=ORIENTED_EDGE('',*,*,#555,.T.);
#752=ORIENTED_EDGE('',*,*,#554,.T.);
#753=ORIENTED_EDGE('',*,*,#556,.F.);
#754=ORIENTED_EDGE('',*,*,#498,.F.);
#755=ORIENTED_EDGE('',*,*,#499,.T.);
#756=ORIENTED_EDGE('',*,*,#556,.T.);
#757=ORIENTED_EDGE('',*,*,#553,.T.);
#758=ORIENTED_EDGE('',*,*,#550,.T.);
#759=ORIENTED_EDGE('',*,*,#557,.F.);
#760=ORIENTED_EDGE('',*,*,#558,.T.);
#761=ORIENTED_EDGE('',*,*,#559,.T.);
#762=ORIENTED_EDGE('',*,*,#558,.F.);
#763=ORIENTED_EDGE('',*,*,#495,.F.);
#764=ORIENTED_EDGE('',*,*,#540,.T.);
#765=ORIENTED_EDGE('',*,*,#537,.T.);
#766=ORIENTED_EDGE('',*,*,#534,.T.);
#767=ORIENTED_EDGE('',*,*,#557,.T.);
#768=ORIENTED_EDGE('',*,*,#560,.F.);
#769=ORIENTED_EDGE('',*,*,#561,.T.);
#770=ORIENTED_EDGE('',*,*,#562,.T.);
#771=ORIENTED_EDGE('',*,*,#561,.F.);
#772=ORIENTED_EDGE('',*,*,#503,.F.);
#773=ORIENTED_EDGE('',*,*,#548,.T.);
#774=ORIENTED_EDGE('',*,*,#545,.T.);
#775=ORIENTED_EDGE('',*,*,#542,.T.);
#776=ORIENTED_EDGE('',*,*,#560,.T.);
#777=ORIENTED_EDGE('',*,*,#501,.F.);
#778=ORIENTED_EDGE('',*,*,#549,.F.);
#779=ORIENTED_EDGE('',*,*,#552,.F.);
#780=ORIENTED_EDGE('',*,*,#555,.F.);
#781=ORIENTED_EDGE('',*,*,#497,.F.);
#782=ORIENTED_EDGE('',*,*,#533,.T.);
#783=ORIENTED_EDGE('',*,*,#536,.T.);
#784=ORIENTED_EDGE('',*,*,#539,.T.);
#785=ORIENTED_EDGE('',*,*,#505,.F.);
#786=ORIENTED_EDGE('',*,*,#541,.T.);
#787=ORIENTED_EDGE('',*,*,#544,.T.);
#788=ORIENTED_EDGE('',*,*,#547,.T.);
#789=ORIENTED_EDGE('',*,*,#559,.F.);
#790=ORIENTED_EDGE('',*,*,#562,.F.);
#791=CYLINDRICAL_SURFACE('',#851,0.2);
#792=CYLINDRICAL_SURFACE('',#854,0.2);
#793=CYLINDRICAL_SURFACE('',#857,0.2);
#794=CYLINDRICAL_SURFACE('',#860,0.2);
#795=CYLINDRICAL_SURFACE('',#894,0.2);
#796=CYLINDRICAL_SURFACE('',#898,0.2);
#797=ADVANCED_FACE('',(#63),#791,.F.);
#798=ADVANCED_FACE('',(#64),#792,.F.);
#799=ADVANCED_FACE('',(#65),#793,.F.);
#800=ADVANCED_FACE('',(#66),#794,.F.);
#801=ADVANCED_FACE('',(#67,#15),#29,.F.);
#802=ADVANCED_FACE('',(#68,#16),#30,.F.);
#803=ADVANCED_FACE('',(#69,#17),#31,.F.);
#804=ADVANCED_FACE('',(#70,#18),#32,.F.);
#805=ADVANCED_FACE('',(#71),#33,.F.);
#806=ADVANCED_FACE('',(#72),#34,.F.);
#807=ADVANCED_FACE('',(#73),#35,.F.);
#808=ADVANCED_FACE('',(#74),#36,.F.);
#809=ADVANCED_FACE('',(#75),#37,.F.);
#810=ADVANCED_FACE('',(#76,#19),#38,.T.);
#811=ADVANCED_FACE('',(#77),#39,.F.);
#812=ADVANCED_FACE('',(#78),#40,.F.);
#813=ADVANCED_FACE('',(#79),#41,.F.);
#814=ADVANCED_FACE('',(#80),#42,.F.);
#815=ADVANCED_FACE('',(#81),#43,.F.);
#816=ADVANCED_FACE('',(#82),#44,.F.);
#817=ADVANCED_FACE('',(#83),#45,.F.);
#818=ADVANCED_FACE('',(#84),#46,.F.);
#819=ADVANCED_FACE('',(#85),#47,.F.);
#820=ADVANCED_FACE('',(#86),#48,.F.);
#821=ADVANCED_FACE('',(#87),#49,.F.);
#822=ADVANCED_FACE('',(#88),#50,.T.);
#823=ADVANCED_FACE('',(#89),#51,.T.);
#824=ADVANCED_FACE('',(#90),#52,.T.);
#825=ADVANCED_FACE('',(#91),#53,.T.);
#826=ADVANCED_FACE('',(#92),#54,.T.);
#827=ADVANCED_FACE('',(#93),#55,.T.);
#828=ADVANCED_FACE('',(#94),#56,.T.);
#829=ADVANCED_FACE('',(#95,#20,#21,#22,#23,#24),#57,.T.);
#830=ADVANCED_FACE('',(#96),#58,.T.);
#831=ADVANCED_FACE('',(#97),#59,.T.);
#832=ADVANCED_FACE('',(#98),#795,.F.);
#833=ADVANCED_FACE('',(#99,#25),#60,.T.);
#834=ADVANCED_FACE('',(#100),#796,.F.);
#835=ADVANCED_FACE('',(#101,#26),#61,.T.);
#836=ADVANCED_FACE('',(#102,#27,#28),#62,.F.);
#837=CLOSED_SHELL('',(#797,#798,#799,#800,#801,#802,#803,#804,#805,#806,
#807,#808,#809,#810,#811,#812,#813,#814,#815,#816,#817,#818,#819,#820,#821,
#822,#823,#824,#825,#826,#827,#828,#829,#830,#831,#832,#833,#834,#835,#836));
#838=DERIVED_UNIT_ELEMENT(#840,1.);
#839=DERIVED_UNIT_ELEMENT(#1347,-3.);
#840=(
MASS_UNIT()
NAMED_UNIT(*)
SI_UNIT(.KILO.,.GRAM.)
);
#841=DERIVED_UNIT((#838,#839));
#842=MEASURE_REPRESENTATION_ITEM('density measure',
POSITIVE_RATIO_MEASURE(1060.),#841);
#843=PROPERTY_DEFINITION_REPRESENTATION(#848,#845);
#844=PROPERTY_DEFINITION_REPRESENTATION(#849,#846);
#845=REPRESENTATION('material name',(#847),#1344);
#846=REPRESENTATION('density',(#842),#1344);
#847=DESCRIPTIVE_REPRESENTATION_ITEM('ABS \X2\D50CB77CC2A4D2F1\X0\',
'ABS \X2\D50CB77CC2A4D2F1\X0\');
#848=PROPERTY_DEFINITION('material property','material name',#1354);
#849=PROPERTY_DEFINITION('material property','density of part',#1354);
#850=AXIS2_PLACEMENT_3D('',#1111,#903,#904);
#851=AXIS2_PLACEMENT_3D('',#1112,#905,#906);
#852=AXIS2_PLACEMENT_3D('',#1114,#907,#908);
#853=AXIS2_PLACEMENT_3D('',#1117,#910,#911);
#854=AXIS2_PLACEMENT_3D('',#1118,#912,#913);
#855=AXIS2_PLACEMENT_3D('',#1120,#914,#915);
#856=AXIS2_PLACEMENT_3D('',#1123,#917,#918);
#857=AXIS2_PLACEMENT_3D('',#1124,#919,#920);
#858=AXIS2_PLACEMENT_3D('',#1126,#921,#922);
#859=AXIS2_PLACEMENT_3D('',#1129,#924,#925);
#860=AXIS2_PLACEMENT_3D('',#1130,#926,#927);
#861=AXIS2_PLACEMENT_3D('',#1132,#928,#929);
#862=AXIS2_PLACEMENT_3D('',#1135,#931,#932);
#863=AXIS2_PLACEMENT_3D('',#1136,#933,#934);
#864=AXIS2_PLACEMENT_3D('',#1147,#940,#941);
#865=AXIS2_PLACEMENT_3D('',#1158,#947,#948);
#866=AXIS2_PLACEMENT_3D('',#1169,#954,#955);
#867=AXIS2_PLACEMENT_3D('',#1180,#961,#962);
#868=AXIS2_PLACEMENT_3D('',#1186,#966,#967);
#869=AXIS2_PLACEMENT_3D('',#1192,#971,#972);
#870=AXIS2_PLACEMENT_3D('',#1196,#975,#976);
#871=AXIS2_PLACEMENT_3D('',#1202,#980,#981);
#872=AXIS2_PLACEMENT_3D('',#1206,#984,#985);
#873=AXIS2_PLACEMENT_3D('',#1239,#1002,#1003);
#874=AXIS2_PLACEMENT_3D('',#1245,#1007,#1008);
#875=AXIS2_PLACEMENT_3D('',#1249,#1011,#1012);
#876=AXIS2_PLACEMENT_3D('',#1253,#1015,#1016);
#877=AXIS2_PLACEMENT_3D('',#1257,#1020,#1021);
#878=AXIS2_PLACEMENT_3D('',#1261,#1024,#1025);
#879=AXIS2_PLACEMENT_3D('',#1264,#1028,#1029);
#880=AXIS2_PLACEMENT_3D('',#1268,#1032,#1033);
#881=AXIS2_PLACEMENT_3D('',#1272,#1036,#1037);
#882=AXIS2_PLACEMENT_3D('',#1275,#1040,#1041);
#883=AXIS2_PLACEMENT_3D('',#1279,#1044,#1045);
#884=AXIS2_PLACEMENT_3D('',#1281,#1047,#1048);
#885=AXIS2_PLACEMENT_3D('',#1287,#1052,#1053);
#886=AXIS2_PLACEMENT_3D('',#1293,#1057,#1058);
#887=AXIS2_PLACEMENT_3D('',#1296,#1061,#1062);
#888=AXIS2_PLACEMENT_3D('',#1302,#1066,#1067);
#889=AXIS2_PLACEMENT_3D('',#1308,#1071,#1072);
#890=AXIS2_PLACEMENT_3D('',#1311,#1075,#1076);
#891=AXIS2_PLACEMENT_3D('',#1317,#1080,#1081);
#892=AXIS2_PLACEMENT_3D('',#1323,#1085,#1086);
#893=AXIS2_PLACEMENT_3D('',#1326,#1089,#1090);
#894=AXIS2_PLACEMENT_3D('',#1327,#1091,#1092);
#895=AXIS2_PLACEMENT_3D('',#1329,#1093,#1094);
#896=AXIS2_PLACEMENT_3D('',#1332,#1096,#1097);
#897=AXIS2_PLACEMENT_3D('',#1333,#1098,#1099);
#898=AXIS2_PLACEMENT_3D('',#1334,#1100,#1101);
#899=AXIS2_PLACEMENT_3D('',#1336,#1102,#1103);
#900=AXIS2_PLACEMENT_3D('',#1339,#1105,#1106);
#901=AXIS2_PLACEMENT_3D('',#1340,#1107,#1108);
#902=AXIS2_PLACEMENT_3D('',#1341,#1109,#1110);
#903=DIRECTION('axis',(0.,0.,1.));
#904=DIRECTION('refdir',(1.,0.,0.));
#905=DIRECTION('center_axis',(-1.,0.,0.));
#906=DIRECTION('ref_axis',(0.,1.,0.));
#907=DIRECTION('center_axis',(-1.,0.,0.));
#908=DIRECTION('ref_axis',(0.,1.,0.));
#909=DIRECTION('',(-1.,0.,0.));
#910=DIRECTION('center_axis',(1.,0.,0.));
#911=DIRECTION('ref_axis',(0.,1.,0.));
#912=DIRECTION('center_axis',(-1.,0.,0.));
#913=DIRECTION('ref_axis',(0.,1.,0.));
#914=DIRECTION('center_axis',(-1.,0.,0.));
#915=DIRECTION('ref_axis',(0.,1.,0.));
#916=DIRECTION('',(-1.,0.,0.));
#917=DIRECTION('center_axis',(1.,0.,0.));
#918=DIRECTION('ref_axis',(0.,1.,0.));
#919=DIRECTION('center_axis',(-1.,0.,0.));
#920=DIRECTION('ref_axis',(0.,1.,0.));
#921=DIRECTION('center_axis',(-1.,0.,0.));
#922=DIRECTION('ref_axis',(0.,1.,0.));
#923=DIRECTION('',(-1.,0.,0.));
#924=DIRECTION('center_axis',(1.,0.,0.));
#925=DIRECTION('ref_axis',(0.,1.,0.));
#926=DIRECTION('center_axis',(-1.,0.,0.));
#927=DIRECTION('ref_axis',(0.,1.,0.));
#928=DIRECTION('center_axis',(-1.,0.,0.));
#929=DIRECTION('ref_axis',(0.,1.,0.));
#930=DIRECTION('',(-1.,0.,0.));
#931=DIRECTION('center_axis',(1.,0.,0.));
#932=DIRECTION('ref_axis',(0.,1.,0.));
#933=DIRECTION('center_axis',(-1.,0.,0.));
#934=DIRECTION('ref_axis',(0.,0.,1.));
#935=DIRECTION('',(0.,0.,1.));
#936=DIRECTION('',(0.,-1.,0.));
#937=DIRECTION('',(0.,0.,-1.));
#938=DIRECTION('',(0.,1.,0.));
#939=DIRECTION('',(0.,0.707106781186547,0.707106781186548));
#940=DIRECTION('center_axis',(-1.,0.,0.));
#941=DIRECTION('ref_axis',(0.,0.,1.));
#942=DIRECTION('',(0.,-0.707106781186548,0.707106781186548));
#943=DIRECTION('',(0.,-1.,0.));
#944=DIRECTION('',(0.,0.,-1.));
#945=DIRECTION('',(0.,1.,0.));
#946=DIRECTION('',(0.,0.,1.));
#947=DIRECTION('center_axis',(-1.,0.,0.));
#948=DIRECTION('ref_axis',(0.,0.,1.));
#949=DIRECTION('',(0.,0.707106781186547,-0.707106781186548));
#950=DIRECTION('',(0.,1.,0.));
#951=DIRECTION('',(0.,0.,1.));
#952=DIRECTION('',(0.,-1.,0.));
#953=DIRECTION('',(0.,0.,-1.));
#954=DIRECTION('center_axis',(-1.,0.,0.));
#955=DIRECTION('ref_axis',(0.,0.,1.));
#956=DIRECTION('',(0.,1.,0.));
#957=DIRECTION('',(0.,0.,1.));
#958=DIRECTION('',(0.,-1.,0.));
#959=DIRECTION('',(0.,-0.707106781186548,-0.707106781186548));
#960=DIRECTION('',(0.,0.,-1.));
#961=DIRECTION('center_axis',(0.,1.,0.));
#962=DIRECTION('ref_axis',(0.,0.,-1.));
#963=DIRECTION('',(-1.,0.,0.));
#964=DIRECTION('',(0.,0.,1.));
#965=DIRECTION('',(-1.,0.,0.));
#966=DIRECTION('center_axis',(0.,0.,1.));
#967=DIRECTION('ref_axis',(0.,1.,0.));
#968=DIRECTION('',(-1.,0.,0.));
#969=DIRECTION('',(0.,-1.,0.));
#970=DIRECTION('',(-1.,0.,0.));
#971=DIRECTION('center_axis',(0.,0.707106781186548,0.707106781186548));
#972=DIRECTION('ref_axis',(0.,0.707106781186548,-0.707106781186548));
#973=DIRECTION('',(-1.,0.,0.));
#974=DIRECTION('',(0.,-0.707106781186548,0.707106781186548));
#975=DIRECTION('center_axis',(0.,0.,-1.));
#976=DIRECTION('ref_axis',(0.,-1.,0.));
#977=DIRECTION('',(-1.,0.,0.));
#978=DIRECTION('',(0.,1.,0.));
#979=DIRECTION('',(-1.,0.,0.));
#980=DIRECTION('center_axis',(0.,-0.707106781186548,-0.707106781186547));
#981=DIRECTION('ref_axis',(0.,-0.707106781186547,0.707106781186548));
#982=DIRECTION('',(-1.,0.,0.));
#983=DIRECTION('',(0.,0.707106781186547,-0.707106781186548));
#984=DIRECTION('center_axis',(1.,0.,0.));
#985=DIRECTION('ref_axis',(0.,1.,0.));
#986=DIRECTION('',(0.,0.,1.));
#987=DIRECTION('',(0.,1.,0.));
#988=DIRECTION('',(0.,0.,-1.));
#989=DIRECTION('',(0.,1.,0.));
#990=DIRECTION('',(0.,0.,1.));
#991=DIRECTION('',(0.,1.,0.));
#992=DIRECTION('',(0.,0.,1.));
#993=DIRECTION('',(0.,1.,0.));
#994=DIRECTION('',(0.,0.,1.));
#995=DIRECTION('',(0.,1.,0.));
#996=DIRECTION('',(0.,0.,-1.));
#997=DIRECTION('',(0.,1.,0.));
#998=DIRECTION('',(0.,0.,-1.));
#999=DIRECTION('',(0.,-1.,0.));
#1000=DIRECTION('',(0.,0.,1.));
#1001=DIRECTION('',(0.,1.,0.));
#1002=DIRECTION('center_axis',(0.,-1.,0.));
#1003=DIRECTION('ref_axis',(0.,0.,1.));
#1004=DIRECTION('',(-1.,0.,0.));
#1005=DIRECTION('',(0.,0.,-1.));
#1006=DIRECTION('',(-1.,0.,0.));
#1007=DIRECTION('center_axis',(0.,-0.707106781186548,0.707106781186548));
#1008=DIRECTION('ref_axis',(0.,0.707106781186548,0.707106781186548));
#1009=DIRECTION('',(-1.,0.,0.));
#1010=DIRECTION('',(0.,-0.707106781186548,-0.707106781186548));
#1011=DIRECTION('center_axis',(0.,0.,1.));
#1012=DIRECTION('ref_axis',(0.,1.,0.));
#1013=DIRECTION('',(-1.,0.,0.));
#1014=DIRECTION('',(0.,-1.,0.));
#1015=DIRECTION('center_axis',(0.,-1.,0.));
#1016=DIRECTION('ref_axis',(0.,0.,1.));
#1017=DIRECTION('',(-1.,0.,0.));
#1018=DIRECTION('',(0.,0.,-1.));
#1019=DIRECTION('',(-1.,0.,0.));
#1020=DIRECTION('center_axis',(0.,-1.,0.));
#1021=DIRECTION('ref_axis',(0.,0.,1.));
#1022=DIRECTION('',(-1.,0.,0.));
#1023=DIRECTION('',(0.,0.,-1.));
#1024=DIRECTION('center_axis',(0.,0.,-1.));
#1025=DIRECTION('ref_axis',(0.,-1.,0.));
#1026=DIRECTION('',(-1.,0.,0.));
#1027=DIRECTION('',(0.,1.,0.));
#1028=DIRECTION('center_axis',(0.,0.707106781186548,-0.707106781186547));
#1029=DIRECTION('ref_axis',(0.,-0.707106781186547,-0.707106781186548));
#1030=DIRECTION('',(-1.,0.,0.));
#1031=DIRECTION('',(0.,0.707106781186547,0.707106781186548));
#1032=DIRECTION('center_axis',(0.,0.,-1.));
#1033=DIRECTION('ref_axis',(0.,-1.,0.));
#1034=DIRECTION('',(-1.,0.,0.));
#1035=DIRECTION('',(0.,1.,0.));
#1036=DIRECTION('center_axis',(0.,1.,0.));
#1037=DIRECTION('ref_axis',(0.,0.,-1.));
#1038=DIRECTION('',(-1.,0.,0.));
#1039=DIRECTION('',(0.,0.,1.));
#1040=DIRECTION('center_axis',(0.,1.,0.));
#1041=DIRECTION('ref_axis',(0.,0.,-1.));
#1042=DIRECTION('',(-1.,0.,0.));
#1043=DIRECTION('',(0.,0.,1.));
#1044=DIRECTION('center_axis',(0.,0.,1.));
#1045=DIRECTION('ref_axis',(0.,1.,0.));
#1046=DIRECTION('',(0.,-1.,0.));
#1047=DIRECTION('center_axis',(0.,1.,0.));
#1048=DIRECTION('ref_axis',(-1.,0.,0.));
#1049=DIRECTION('',(1.,0.,0.));
#1050=DIRECTION('',(-1.,0.,0.));
#1051=DIRECTION('',(0.,0.,1.));
#1052=DIRECTION('center_axis',(1.,0.,0.));
#1053=DIRECTION('ref_axis',(0.,1.,0.));
#1054=DIRECTION('',(0.,-1.,0.));
#1055=DIRECTION('',(0.,1.,0.));
#1056=DIRECTION('',(0.,0.,1.));
#1057=DIRECTION('center_axis',(0.,-1.,0.));
#1058=DIRECTION('ref_axis',(1.,0.,0.));
#1059=DIRECTION('',(-1.,0.,0.));
#1060=DIRECTION('',(1.,0.,0.));
#1061=DIRECTION('center_axis',(0.,1.,0.));
#1062=DIRECTION('ref_axis',(-1.,0.,0.));
#1063=DIRECTION('',(1.,0.,0.));
#1064=DIRECTION('',(-1.,0.,0.));
#1065=DIRECTION('',(0.,0.,1.));
#1066=DIRECTION('center_axis',(1.,0.,0.));
#1067=DIRECTION('ref_axis',(0.,1.,0.));
#1068=DIRECTION('',(0.,-1.,0.));
#1069=DIRECTION('',(0.,1.,0.));
#1070=DIRECTION('',(0.,0.,1.));
#1071=DIRECTION('center_axis',(0.,-1.,0.));
#1072=DIRECTION('ref_axis',(1.,0.,0.));
#1073=DIRECTION('',(-1.,0.,0.));
#1074=DIRECTION('',(1.,0.,0.));
#1075=DIRECTION('center_axis',(0.,-1.,0.));
#1076=DIRECTION('ref_axis',(1.,0.,0.));
#1077=DIRECTION('',(1.,0.,0.));
#1078=DIRECTION('',(1.,0.,0.));
#1079=DIRECTION('',(0.,0.,1.));
#1080=DIRECTION('center_axis',(-1.,0.,0.));
#1081=DIRECTION('ref_axis',(0.,-1.,0.));
#1082=DIRECTION('',(0.,-1.,0.));
#1083=DIRECTION('',(0.,-1.,0.));
#1084=DIRECTION('',(0.,0.,1.));
#1085=DIRECTION('center_axis',(0.,1.,0.));
#1086=DIRECTION('ref_axis',(-1.,0.,0.));
#1087=DIRECTION('',(-1.,0.,0.));
#1088=DIRECTION('',(-1.,0.,0.));
#1089=DIRECTION('center_axis',(0.,0.,1.));
#1090=DIRECTION('ref_axis',(1.,0.,0.));
#1091=DIRECTION('center_axis',(0.,0.,1.));
#1092=DIRECTION('ref_axis',(1.,0.,0.));
#1093=DIRECTION('center_axis',(0.,0.,-1.));
#1094=DIRECTION('ref_axis',(1.,0.,0.));
#1095=DIRECTION('',(0.,0.,-1.));
#1096=DIRECTION('center_axis',(0.,0.,-1.));
#1097=DIRECTION('ref_axis',(1.,0.,0.));
#1098=DIRECTION('center_axis',(0.,0.,1.));
#1099=DIRECTION('ref_axis',(1.,0.,0.));
#1100=DIRECTION('center_axis',(0.,0.,1.));
#1101=DIRECTION('ref_axis',(1.,0.,0.));
#1102=DIRECTION('center_axis',(0.,0.,-1.));
#1103=DIRECTION('ref_axis',(1.,0.,0.));
#1104=DIRECTION('',(0.,0.,-1.));
#1105=DIRECTION('center_axis',(0.,0.,-1.));
#1106=DIRECTION('ref_axis',(1.,0.,0.));
#1107=DIRECTION('center_axis',(0.,0.,1.));
#1108=DIRECTION('ref_axis',(1.,0.,0.));
#1109=DIRECTION('center_axis',(0.,0.,1.));
#1110=DIRECTION('ref_axis',(1.,0.,0.));
#1111=CARTESIAN_POINT('',(0.,0.,0.));
#1112=CARTESIAN_POINT('Origin',(1.,6.1,4.6));
#1113=CARTESIAN_POINT('',(0.45,5.9,4.6));
#1114=CARTESIAN_POINT('Origin',(0.45,6.1,4.6));
#1115=CARTESIAN_POINT('',(0.,5.9,4.6));
#1116=CARTESIAN_POINT('',(1.,5.9,4.6));
#1117=CARTESIAN_POINT('Origin',(0.,6.1,4.6));
#1118=CARTESIAN_POINT('Origin',(1.,6.1,1.4));
#1119=CARTESIAN_POINT('',(0.45,5.9,1.4));
#1120=CARTESIAN_POINT('Origin',(0.45,6.1,1.4));
#1121=CARTESIAN_POINT('',(0.,5.9,1.4));
#1122=CARTESIAN_POINT('',(1.,5.9,1.4));
#1123=CARTESIAN_POINT('Origin',(0.,6.1,1.4));
#1124=CARTESIAN_POINT('Origin',(1.,2.9,4.6));
#1125=CARTESIAN_POINT('',(0.45,2.7,4.6));
#1126=CARTESIAN_POINT('Origin',(0.45,2.9,4.6));
#1127=CARTESIAN_POINT('',(0.,2.7,4.6));
#1128=CARTESIAN_POINT('',(1.,2.7,4.6));
#1129=CARTESIAN_POINT('Origin',(0.,2.9,4.6));
#1130=CARTESIAN_POINT('Origin',(1.,2.9,1.4));
#1131=CARTESIAN_POINT('',(0.45,2.7,1.4));
#1132=CARTESIAN_POINT('Origin',(0.45,2.9,1.4));
#1133=CARTESIAN_POINT('',(0.,2.7,1.4));
#1134=CARTESIAN_POINT('',(1.,2.7,1.4));
#1135=CARTESIAN_POINT('Origin',(0.,2.9,1.4));
#1136=CARTESIAN_POINT('Origin',(0.45,6.1,1.4));
#1137=CARTESIAN_POINT('',(0.45,5.7,1.));
#1138=CARTESIAN_POINT('',(0.45,5.7,1.4));
#1139=CARTESIAN_POINT('',(0.45,5.7,1.4));
#1140=CARTESIAN_POINT('',(0.45,6.5,1.));
#1141=CARTESIAN_POINT('',(0.45,6.5,1.));
#1142=CARTESIAN_POINT('',(0.45,6.5,1.8));
#1143=CARTESIAN_POINT('',(0.45,6.5,1.8));
#1144=CARTESIAN_POINT('',(0.45,6.1,1.8));
#1145=CARTESIAN_POINT('',(0.45,6.3,1.8));
#1146=CARTESIAN_POINT('',(0.45,6.,1.7));
#1147=CARTESIAN_POINT('Origin',(0.45,6.1,4.6));
#1148=CARTESIAN_POINT('',(0.45,6.1,4.2));
#1149=CARTESIAN_POINT('',(0.45,5.7,4.6));
#1150=CARTESIAN_POINT('',(0.45,5.8,4.5));
#1151=CARTESIAN_POINT('',(0.45,6.5,4.2));
#1152=CARTESIAN_POINT('',(0.45,6.1,4.2));
#1153=CARTESIAN_POINT('',(0.45,6.5,5.));
#1154=CARTESIAN_POINT('',(0.45,6.5,4.2));
#1155=CARTESIAN_POINT('',(0.45,5.7,5.));
#1156=CARTESIAN_POINT('',(0.45,6.5,5.));
#1157=CARTESIAN_POINT('',(0.45,5.7,4.8));
#1158=CARTESIAN_POINT('Origin',(0.45,2.9,1.4));
#1159=CARTESIAN_POINT('',(0.45,2.9,1.8));
#1160=CARTESIAN_POINT('',(0.45,3.3,1.4));
#1161=CARTESIAN_POINT('',(0.45,3.2,1.5));
#1162=CARTESIAN_POINT('',(0.45,2.5,1.8));
#1163=CARTESIAN_POINT('',(0.45,2.9,1.8));
#1164=CARTESIAN_POINT('',(0.45,2.5,1.));
#1165=CARTESIAN_POINT('',(0.45,2.5,1.8));
#1166=CARTESIAN_POINT('',(0.45,3.3,1.));
#1167=CARTESIAN_POINT('',(0.45,2.5,1.));
#1168=CARTESIAN_POINT('',(0.45,3.3,1.2));
#1169=CARTESIAN_POINT('Origin',(0.45,2.90000002458692,4.60000003129244));
#1170=CARTESIAN_POINT('',(0.45,2.5,5.));
#1171=CARTESIAN_POINT('',(0.45,3.30000004917383,5.));
#1172=CARTESIAN_POINT('',(0.45,6.5,5.));
#1173=CARTESIAN_POINT('',(0.45,2.5000000372529,4.20000006258488));
#1174=CARTESIAN_POINT('',(0.45,2.5,4.6));
#1175=CARTESIAN_POINT('',(0.45,2.9,4.20000006258488));
#1176=CARTESIAN_POINT('',(0.45,2.70000003091991,4.20000006258488));
#1177=CARTESIAN_POINT('',(0.45,3.29999993741512,4.6));
#1178=CARTESIAN_POINT('',(0.45,2.99999999832362,4.3000000609085));
#1179=CARTESIAN_POINT('',(0.45,3.30000004917383,4.60000001564622));
#1180=CARTESIAN_POINT('Origin',(1.,5.7,1.4));
#1181=CARTESIAN_POINT('',(0.,5.7,1.4));
#1182=CARTESIAN_POINT('',(1.,5.7,1.4));
#1183=CARTESIAN_POINT('',(0.,5.7,1.));
#1184=CARTESIAN_POINT('',(0.,5.7,0.7));
#1185=CARTESIAN_POINT('',(1.,5.7,1.));
#1186=CARTESIAN_POINT('Origin',(1.,6.1,4.2));
#1187=CARTESIAN_POINT('',(0.,6.1,4.2));
#1188=CARTESIAN_POINT('',(1.,6.1,4.2));
#1189=CARTESIAN_POINT('',(0.,6.5,4.2));
#1190=CARTESIAN_POINT('',(0.,7.55,4.2));
#1191=CARTESIAN_POINT('',(1.,6.5,4.2));
#1192=CARTESIAN_POINT('Origin',(1.,5.7,4.6));
#1193=CARTESIAN_POINT('',(0.,5.7,4.6));
#1194=CARTESIAN_POINT('',(1.,5.7,4.6));
#1195=CARTESIAN_POINT('',(0.,7.675,2.625));
#1196=CARTESIAN_POINT('Origin',(1.,2.9,1.8));
#1197=CARTESIAN_POINT('',(0.,2.9,1.8));
#1198=CARTESIAN_POINT('',(1.,2.9,1.8));
#1199=CARTESIAN_POINT('',(0.,2.5,1.8));
#1200=CARTESIAN_POINT('',(0.,5.95,1.8));
#1201=CARTESIAN_POINT('',(1.,2.5,1.8));
#1202=CARTESIAN_POINT('Origin',(1.,3.3,1.4));
#1203=CARTESIAN_POINT('',(0.,3.3,1.4));
#1204=CARTESIAN_POINT('',(1.,3.3,1.4));
#1205=CARTESIAN_POINT('',(0.,5.075,-0.375));
#1206=CARTESIAN_POINT('Origin',(1.,8.88178419700125E-16,0.));
#1207=CARTESIAN_POINT('',(1.,7.3,0.));
#1208=CARTESIAN_POINT('',(1.,7.3,0.4));
#1209=CARTESIAN_POINT('',(1.,7.3,0.));
#1210=CARTESIAN_POINT('',(1.,8.8,0.4));
#1211=CARTESIAN_POINT('',(1.,4.025,0.4));
#1212=CARTESIAN_POINT('',(1.,8.8,0.));
#1213=CARTESIAN_POINT('',(1.,8.8,0.));
#1214=CARTESIAN_POINT('',(1.,9.,0.));
#1215=CARTESIAN_POINT('',(1.,0.45,0.));
#1216=CARTESIAN_POINT('',(1.,9.,6.));
#1217=CARTESIAN_POINT('',(1.,9.,0.));
#1218=CARTESIAN_POINT('',(1.,0.,6.));
#1219=CARTESIAN_POINT('',(1.,0.45,6.));
#1220=CARTESIAN_POINT('',(1.,0.,0.));
#1221=CARTESIAN_POINT('',(1.,0.,0.));
#1222=CARTESIAN_POINT('',(1.,0.2,0.));
#1223=CARTESIAN_POINT('',(1.,0.45,0.));
#1224=CARTESIAN_POINT('',(1.,0.2,0.4));
#1225=CARTESIAN_POINT('',(1.,0.2,0.));
#1226=CARTESIAN_POINT('',(1.,1.7,0.4));
#1227=CARTESIAN_POINT('',(1.,0.475,0.4));
#1228=CARTESIAN_POINT('',(1.,1.7,0.));
#1229=CARTESIAN_POINT('',(1.,1.7,0.));
#1230=CARTESIAN_POINT('',(1.,0.45,0.));
#1231=CARTESIAN_POINT('',(1.,6.5,5.));
#1232=CARTESIAN_POINT('',(1.,6.5,1.));
#1233=CARTESIAN_POINT('',(1.,6.5,0.9));
#1234=CARTESIAN_POINT('',(1.,2.5,1.));
#1235=CARTESIAN_POINT('',(1.,1.65,1.));
#1236=CARTESIAN_POINT('',(1.,2.5,5.));
#1237=CARTESIAN_POINT('',(1.,2.5,2.10000003129244));
#1238=CARTESIAN_POINT('',(1.,2.85,5.));
#1239=CARTESIAN_POINT('Origin',(1.,3.30000004917383,4.6));
#1240=CARTESIAN_POINT('',(0.,3.29999993741512,4.6));
#1241=CARTESIAN_POINT('',(1.,3.29999993741512,4.6));
#1242=CARTESIAN_POINT('',(0.,3.30000004917383,5.));
#1243=CARTESIAN_POINT('',(0.,3.30000004917383,2.3));
#1244=CARTESIAN_POINT('',(1.,3.30000004917383,5.));
#1245=CARTESIAN_POINT('Origin',(1.,2.9,4.20000006258488));
#1246=CARTESIAN_POINT('',(0.,2.9,4.20000006258488));
#1247=CARTESIAN_POINT('',(1.,2.9,4.20000006258488));
#1248=CARTESIAN_POINT('',(0.,3.37499998435378,4.67500004693866));
#1249=CARTESIAN_POINT('Origin',(1.,2.5000000372529,4.20000006258488));
#1250=CARTESIAN_POINT('',(0.,2.5000000372529,4.20000006258488));
#1251=CARTESIAN_POINT('',(1.,2.5000000372529,4.20000006258488));
#1252=CARTESIAN_POINT('',(0.,5.75000001862645,4.20000006258488));
#1253=CARTESIAN_POINT('Origin',(1.,2.5,1.8));
#1254=CARTESIAN_POINT('',(1.,2.5,1.));
#1255=CARTESIAN_POINT('',(0.,2.5,0.9));
#1256=CARTESIAN_POINT('',(1.,2.5,5.));
#1257=CARTESIAN_POINT('Origin',(1.,3.3,1.));
#1258=CARTESIAN_POINT('',(0.,3.3,1.));
#1259=CARTESIAN_POINT('',(1.,3.3,1.));
#1260=CARTESIAN_POINT('',(0.,3.3,0.5));
#1261=CARTESIAN_POINT('Origin',(1.,5.7,1.));
#1262=CARTESIAN_POINT('',(1.,6.5,1.));
#1263=CARTESIAN_POINT('',(0.,7.35,1.));
#1264=CARTESIAN_POINT('Origin',(1.,6.1,1.8));
#1265=CARTESIAN_POINT('',(0.,6.1,1.8));
#1266=CARTESIAN_POINT('',(1.,6.1,1.8));
#1267=CARTESIAN_POINT('',(0.,6.375,2.075));
#1268=CARTESIAN_POINT('Origin',(1.,6.5,1.8));
#1269=CARTESIAN_POINT('',(0.,6.5,1.8));
#1270=CARTESIAN_POINT('',(1.,6.5,1.8));
#1271=CARTESIAN_POINT('',(0.,7.75,1.8));
#1272=CARTESIAN_POINT('Origin',(1.,6.5,4.2));
#1273=CARTESIAN_POINT('',(1.,6.5,5.));
#1274=CARTESIAN_POINT('',(0.,6.5,2.1));
#1275=CARTESIAN_POINT('Origin',(1.,5.7,5.));
#1276=CARTESIAN_POINT('',(0.,5.7,5.));
#1277=CARTESIAN_POINT('',(1.,5.7,5.));
#1278=CARTESIAN_POINT('',(0.,5.7,2.5));
#1279=CARTESIAN_POINT('Origin',(1.,3.30000004917383,5.));
#1280=CARTESIAN_POINT('',(0.,6.15000002458692,5.));
#1281=CARTESIAN_POINT('Origin',(2.25,8.8,0.));
#1282=CARTESIAN_POINT('',(2.25,8.8,0.));
#1283=CARTESIAN_POINT('',(0.75,8.8,0.));
#1284=CARTESIAN_POINT('',(2.25,8.8,0.4));
#1285=CARTESIAN_POINT('',(0.75,8.8,0.4));
#1286=CARTESIAN_POINT('',(2.25,8.8,0.));
#1287=CARTESIAN_POINT('Origin',(2.25,7.3,0.));
#1288=CARTESIAN_POINT('',(2.25,7.3,0.));
#1289=CARTESIAN_POINT('',(2.25,8.8,0.));
#1290=CARTESIAN_POINT('',(2.25,7.3,0.4));
#1291=CARTESIAN_POINT('',(2.25,8.8,0.4));
#1292=CARTESIAN_POINT('',(2.25,7.3,0.));
#1293=CARTESIAN_POINT('Origin',(1.,7.3,0.));
#1294=CARTESIAN_POINT('',(2.25,7.3,0.));
#1295=CARTESIAN_POINT('',(2.25,7.3,0.4));
#1296=CARTESIAN_POINT('Origin',(2.25,1.7,0.));
#1297=CARTESIAN_POINT('',(2.25,1.7,0.));
#1298=CARTESIAN_POINT('',(0.75,1.7,0.));
#1299=CARTESIAN_POINT('',(2.25,1.7,0.4));
#1300=CARTESIAN_POINT('',(0.75,1.7,0.4));
#1301=CARTESIAN_POINT('',(2.25,1.7,0.));
#1302=CARTESIAN_POINT('Origin',(2.25,0.2,0.));
#1303=CARTESIAN_POINT('',(2.25,0.2,0.));
#1304=CARTESIAN_POINT('',(2.25,1.7,0.));
#1305=CARTESIAN_POINT('',(2.25,0.2,0.4));
#1306=CARTESIAN_POINT('',(2.25,1.7,0.4));
#1307=CARTESIAN_POINT('',(2.25,0.2,0.));
#1308=CARTESIAN_POINT('Origin',(1.,0.2,0.));
#1309=CARTESIAN_POINT('',(2.25,0.2,0.));
#1310=CARTESIAN_POINT('',(2.25,0.2,0.4));
#1311=CARTESIAN_POINT('Origin',(0.,0.,0.));
#1312=CARTESIAN_POINT('',(0.,0.,0.));
#1313=CARTESIAN_POINT('',(0.,0.,0.));
#1314=CARTESIAN_POINT('',(0.,0.,6.));
#1315=CARTESIAN_POINT('',(0.,0.,6.));
#1316=CARTESIAN_POINT('',(0.,0.,0.));
#1317=CARTESIAN_POINT('Origin',(0.,9.,0.));
#1318=CARTESIAN_POINT('',(0.,9.,0.));
#1319=CARTESIAN_POINT('',(0.,9.,0.));
#1320=CARTESIAN_POINT('',(0.,9.,6.));
#1321=CARTESIAN_POINT('',(0.,9.,6.));
#1322=CARTESIAN_POINT('',(0.,9.,0.));
#1323=CARTESIAN_POINT('Origin',(1.,9.,0.));
#1324=CARTESIAN_POINT('',(1.,9.,0.));
#1325=CARTESIAN_POINT('',(1.,9.,6.));
#1326=CARTESIAN_POINT('Origin',(0.5,4.5,6.));
#1327=CARTESIAN_POINT('Origin',(1.5,8.05,0.));
#1328=CARTESIAN_POINT('',(1.3,8.05,0.4));
#1329=CARTESIAN_POINT('Origin',(1.5,8.05,0.4));
#1330=CARTESIAN_POINT('',(1.3,8.05,0.));
#1331=CARTESIAN_POINT('',(1.3,8.05,0.));
#1332=CARTESIAN_POINT('Origin',(1.5,8.05,0.));
#1333=CARTESIAN_POINT('Origin',(1.5,8.05,0.4));
#1334=CARTESIAN_POINT('Origin',(1.5,0.95,0.));
#1335=CARTESIAN_POINT('',(1.3,0.95,0.4));
#1336=CARTESIAN_POINT('Origin',(1.5,0.95,0.4));
#1337=CARTESIAN_POINT('',(1.3,0.95,0.));
#1338=CARTESIAN_POINT('',(1.3,0.95,0.));
#1339=CARTESIAN_POINT('Origin',(1.5,0.95,0.));
#1340=CARTESIAN_POINT('Origin',(1.5,0.95,0.4));
#1341=CARTESIAN_POINT('Origin',(1.5,0.95,0.));
#1342=UNCERTAINTY_MEASURE_WITH_UNIT(LENGTH_MEASURE(0.001),#1346,
'DISTANCE_ACCURACY_VALUE',
'Maximum model space distance between geometric entities at asserted c
onnectivities');
#1343=UNCERTAINTY_MEASURE_WITH_UNIT(LENGTH_MEASURE(0.001),#1346,
'DISTANCE_ACCURACY_VALUE',
'Maximum model space distance between geometric entities at asserted c
onnectivities');
#1344=(
GEOMETRIC_REPRESENTATION_CONTEXT(3)
GLOBAL_UNCERTAINTY_ASSIGNED_CONTEXT((#1342))
GLOBAL_UNIT_ASSIGNED_CONTEXT((#1346,#1348,#1349))
REPRESENTATION_CONTEXT('','3D')
);
#1345=(
GEOMETRIC_REPRESENTATION_CONTEXT(3)
GLOBAL_UNCERTAINTY_ASSIGNED_CONTEXT((#1343))
GLOBAL_UNIT_ASSIGNED_CONTEXT((#1346,#1348,#1349))
REPRESENTATION_CONTEXT('','3D')
);
#1346=(
LENGTH_UNIT()
NAMED_UNIT(*)
SI_UNIT(.CENTI.,.METRE.)
);
#1347=(
LENGTH_UNIT()
NAMED_UNIT(*)
SI_UNIT($,.METRE.)
);
#1348=(
NAMED_UNIT(*)
PLANE_ANGLE_UNIT()
SI_UNIT($,.RADIAN.)
);
#1349=(
NAMED_UNIT(*)
SI_UNIT($,.STERADIAN.)
SOLID_ANGLE_UNIT()
);
#1350=SHAPE_DEFINITION_REPRESENTATION(#1351,#1352);
#1351=PRODUCT_DEFINITION_SHAPE('',$,#1354);
#1352=SHAPE_REPRESENTATION('',(#850),#1344);
#1353=PRODUCT_DEFINITION_CONTEXT('part definition',#1358,'design');
#1354=PRODUCT_DEFINITION('2026-08-01-14-20-04-702','fan- braket',#1355,
#1353);
#1355=PRODUCT_DEFINITION_FORMATION('',$,#1360);
#1356=PRODUCT_RELATED_PRODUCT_CATEGORY('fan- braket','fan- braket',(#1360));
#1357=APPLICATION_PROTOCOL_DEFINITION('international standard',
'automotive_design',2009,#1358);
#1358=APPLICATION_CONTEXT(
'Core Data for Automotive Mechanical Design Process');
#1359=PRODUCT_CONTEXT('part definition',#1358,'mechanical');
#1360=PRODUCT('2026-08-01-14-20-04-702','fan- braket',$,(#1359));
#1361=PRESENTATION_STYLE_ASSIGNMENT((#1362));
#1362=SURFACE_STYLE_USAGE(.BOTH.,#1363);
#1363=SURFACE_SIDE_STYLE('',(#1364));
#1364=SURFACE_STYLE_FILL_AREA(#1365);
#1365=FILL_AREA_STYLE('ABS(\X2\D770C0C9\X0\)',(#1366));
#1366=FILL_AREA_STYLE_COLOUR('ABS(\X2\D770C0C9\X0\)',#1367);
#1367=COLOUR_RGB('ABS(\X2\D770C0C9\X0\)',0.964705882352941,0.964705882352941,
0.952941176470588);
ENDSEC;
END-ISO-10303-21;
