ISO-10303-21;
HEADER;
/* Generated by software containing ST-Developer
 * from STEP Tools, Inc. (www.steptools.com) 
 */

FILE_DESCRIPTION(
/* description */ (''),
/* implementation_level */ '2;1');

FILE_NAME(
/* name */ 'lidar holder - A.step',
/* time_stamp */ '2026-08-31T17:58:25+09:00',
/* author */ (''),
/* organization */ (''),
/* preprocessor_version */ 'ST-DEVELOPER v20.1',
/* originating_system */ 'Autodesk Translation Framework v15.8.0.0',
/* authorisation */ '');

FILE_SCHEMA (('AUTOMOTIVE_DESIGN { 1 0 10303 214 3 1 1 }'));
ENDSEC;

DATA;
#10=MECHANICAL_DESIGN_GEOMETRIC_PRESENTATION_REPRESENTATION('',(#13),#1118);
#11=SHAPE_REPRESENTATION_RELATIONSHIP('SRR','None',#1125,#12);
#12=ADVANCED_BREP_SHAPE_REPRESENTATION('',(#14),#1117);
#13=STYLED_ITEM('',(#1134),#14);
#14=MANIFOLD_SOLID_BREP('\X2\BCF8CCB4\X0\13',#666);
#15=CYLINDRICAL_SURFACE('',#689,0.399999999999999);
#16=CYLINDRICAL_SURFACE('',#694,0.4);
#17=CYLINDRICAL_SURFACE('',#699,0.399999999999999);
#18=CYLINDRICAL_SURFACE('',#704,0.4);
#19=CYLINDRICAL_SURFACE('',#709,0.300000000000001);
#20=CYLINDRICAL_SURFACE('',#714,0.300000000000001);
#21=CYLINDRICAL_SURFACE('',#726,0.154999999999998);
#22=CYLINDRICAL_SURFACE('',#727,0.155000000000001);
#23=CYLINDRICAL_SURFACE('',#733,0.25);
#24=CYLINDRICAL_SURFACE('',#734,0.25);
#25=CYLINDRICAL_SURFACE('',#735,0.25);
#26=CYLINDRICAL_SURFACE('',#736,0.25);
#27=CYLINDRICAL_SURFACE('',#739,1.);
#28=FACE_BOUND('',#113,.T.);
#29=FACE_BOUND('',#114,.T.);
#30=FACE_BOUND('',#115,.T.);
#31=FACE_BOUND('',#116,.T.);
#32=FACE_BOUND('',#119,.T.);
#33=FACE_BOUND('',#122,.T.);
#34=FACE_BOUND('',#125,.T.);
#35=FACE_BOUND('',#128,.T.);
#36=FACE_BOUND('',#131,.T.);
#37=FACE_BOUND('',#134,.T.);
#38=FACE_BOUND('',#140,.T.);
#39=FACE_BOUND('',#141,.T.);
#40=FACE_BOUND('',#149,.T.);
#41=FACE_BOUND('',#150,.T.);
#42=FACE_BOUND('',#160,.T.);
#43=FACE_BOUND('',#161,.T.);
#44=FACE_BOUND('',#162,.T.);
#45=FACE_BOUND('',#163,.T.);
#46=CIRCLE('',#684,1.);
#47=CIRCLE('',#685,0.25);
#48=CIRCLE('',#686,0.25);
#49=CIRCLE('',#687,0.25);
#50=CIRCLE('',#688,0.25);
#51=CIRCLE('',#690,0.399999999999999);
#52=CIRCLE('',#691,0.399999999999999);
#53=CIRCLE('',#693,0.25);
#54=CIRCLE('',#695,0.4);
#55=CIRCLE('',#696,0.4);
#56=CIRCLE('',#698,0.25);
#57=CIRCLE('',#700,0.399999999999999);
#58=CIRCLE('',#701,0.399999999999999);
#59=CIRCLE('',#703,0.25);
#60=CIRCLE('',#705,0.4);
#61=CIRCLE('',#706,0.4);
#62=CIRCLE('',#708,0.25);
#63=CIRCLE('',#710,0.300000000000001);
#64=CIRCLE('',#711,0.300000000000001);
#65=CIRCLE('',#713,0.155000000000001);
#66=CIRCLE('',#715,0.300000000000001);
#67=CIRCLE('',#716,0.300000000000001);
#68=CIRCLE('',#718,0.154999999999998);
#69=CIRCLE('',#724,0.154999999999998);
#70=CIRCLE('',#725,0.155000000000001);
#71=CIRCLE('',#740,1.);
#72=FACE_OUTER_BOUND('',#109,.T.);
#73=FACE_OUTER_BOUND('',#110,.T.);
#74=FACE_OUTER_BOUND('',#111,.T.);
#75=FACE_OUTER_BOUND('',#112,.T.);
#76=FACE_OUTER_BOUND('',#117,.T.);
#77=FACE_OUTER_BOUND('',#118,.T.);
#78=FACE_OUTER_BOUND('',#120,.T.);
#79=FACE_OUTER_BOUND('',#121,.T.);
#80=FACE_OUTER_BOUND('',#123,.T.);
#81=FACE_OUTER_BOUND('',#124,.T.);
#82=FACE_OUTER_BOUND('',#126,.T.);
#83=FACE_OUTER_BOUND('',#127,.T.);
#84=FACE_OUTER_BOUND('',#129,.T.);
#85=FACE_OUTER_BOUND('',#130,.T.);
#86=FACE_OUTER_BOUND('',#132,.T.);
#87=FACE_OUTER_BOUND('',#133,.T.);
#88=FACE_OUTER_BOUND('',#135,.T.);
#89=FACE_OUTER_BOUND('',#136,.T.);
#90=FACE_OUTER_BOUND('',#137,.T.);
#91=FACE_OUTER_BOUND('',#138,.T.);
#92=FACE_OUTER_BOUND('',#139,.T.);
#93=FACE_OUTER_BOUND('',#142,.T.);
#94=FACE_OUTER_BOUND('',#143,.T.);
#95=FACE_OUTER_BOUND('',#144,.T.);
#96=FACE_OUTER_BOUND('',#145,.T.);
#97=FACE_OUTER_BOUND('',#146,.T.);
#98=FACE_OUTER_BOUND('',#147,.T.);
#99=FACE_OUTER_BOUND('',#148,.T.);
#100=FACE_OUTER_BOUND('',#151,.T.);
#101=FACE_OUTER_BOUND('',#152,.T.);
#102=FACE_OUTER_BOUND('',#153,.T.);
#103=FACE_OUTER_BOUND('',#154,.T.);
#104=FACE_OUTER_BOUND('',#155,.T.);
#105=FACE_OUTER_BOUND('',#156,.T.);
#106=FACE_OUTER_BOUND('',#157,.T.);
#107=FACE_OUTER_BOUND('',#158,.T.);
#108=FACE_OUTER_BOUND('',#159,.T.);
#109=EDGE_LOOP('',(#431,#432,#433,#434));
#110=EDGE_LOOP('',(#435,#436,#437,#438));
#111=EDGE_LOOP('',(#439,#440,#441,#442,#443,#444));
#112=EDGE_LOOP('',(#445,#446,#447,#448,#449,#450,#451,#452,#453,#454,#455));
#113=EDGE_LOOP('',(#456));
#114=EDGE_LOOP('',(#457));
#115=EDGE_LOOP('',(#458));
#116=EDGE_LOOP('',(#459));
#117=EDGE_LOOP('',(#460,#461,#462,#463));
#118=EDGE_LOOP('',(#464));
#119=EDGE_LOOP('',(#465));
#120=EDGE_LOOP('',(#466,#467,#468,#469));
#121=EDGE_LOOP('',(#470));
#122=EDGE_LOOP('',(#471));
#123=EDGE_LOOP('',(#472,#473,#474,#475));
#124=EDGE_LOOP('',(#476));
#125=EDGE_LOOP('',(#477));
#126=EDGE_LOOP('',(#478,#479,#480,#481));
#127=EDGE_LOOP('',(#482));
#128=EDGE_LOOP('',(#483));
#129=EDGE_LOOP('',(#484,#485,#486,#487));
#130=EDGE_LOOP('',(#488));
#131=EDGE_LOOP('',(#489));
#132=EDGE_LOOP('',(#490,#491,#492,#493));
#133=EDGE_LOOP('',(#494));
#134=EDGE_LOOP('',(#495));
#135=EDGE_LOOP('',(#496,#497,#498,#499,#500,#501));
#136=EDGE_LOOP('',(#502,#503,#504,#505,#506,#507));
#137=EDGE_LOOP('',(#508,#509,#510,#511,#512,#513,#514,#515));
#138=EDGE_LOOP('',(#516,#517,#518,#519,#520,#521));
#139=EDGE_LOOP('',(#522,#523,#524,#525,#526,#527));
#140=EDGE_LOOP('',(#528));
#141=EDGE_LOOP('',(#529));
#142=EDGE_LOOP('',(#530,#531,#532,#533));
#143=EDGE_LOOP('',(#534,#535,#536,#537));
#144=EDGE_LOOP('',(#538,#539,#540,#541));
#145=EDGE_LOOP('',(#542,#543,#544,#545));
#146=EDGE_LOOP('',(#546,#547,#548,#549));
#147=EDGE_LOOP('',(#550,#551,#552,#553));
#148=EDGE_LOOP('',(#554,#555,#556,#557));
#149=EDGE_LOOP('',(#558));
#150=EDGE_LOOP('',(#559));
#151=EDGE_LOOP('',(#560,#561,#562,#563));
#152=EDGE_LOOP('',(#564,#565,#566,#567));
#153=EDGE_LOOP('',(#568,#569,#570,#571));
#154=EDGE_LOOP('',(#572,#573,#574,#575));
#155=EDGE_LOOP('',(#576,#577,#578,#579));
#156=EDGE_LOOP('',(#580,#581,#582,#583));
#157=EDGE_LOOP('',(#584,#585,#586,#587));
#158=EDGE_LOOP('',(#588,#589,#590,#591));
#159=EDGE_LOOP('',(#592,#593,#594,#595,#596,#597,#598,#599,#600));
#160=EDGE_LOOP('',(#601));
#161=EDGE_LOOP('',(#602));
#162=EDGE_LOOP('',(#603));
#163=EDGE_LOOP('',(#604));
#164=LINE('',#936,#225);
#165=LINE('',#938,#226);
#166=LINE('',#940,#227);
#167=LINE('',#941,#228);
#168=LINE('',#944,#229);
#169=LINE('',#946,#230);
#170=LINE('',#947,#231);
#171=LINE('',#950,#232);
#172=LINE('',#952,#233);
#173=LINE('',#954,#234);
#174=LINE('',#955,#235);
#175=LINE('',#958,#236);
#176=LINE('',#960,#237);
#177=LINE('',#962,#238);
#178=LINE('',#964,#239);
#179=LINE('',#966,#240);
#180=LINE('',#968,#241);
#181=LINE('',#972,#242);
#182=LINE('',#973,#243);
#183=LINE('',#986,#244);
#184=LINE('',#995,#245);
#185=LINE('',#1004,#246);
#186=LINE('',#1013,#247);
#187=LINE('',#1022,#248);
#188=LINE('',#1031,#249);
#189=LINE('',#1038,#250);
#190=LINE('',#1040,#251);
#191=LINE('',#1041,#252);
#192=LINE('',#1044,#253);
#193=LINE('',#1046,#254);
#194=LINE('',#1048,#255);
#195=LINE('',#1049,#256);
#196=LINE('',#1052,#257);
#197=LINE('',#1054,#258);
#198=LINE('',#1056,#259);
#199=LINE('',#1057,#260);
#200=LINE('',#1059,#261);
#201=LINE('',#1060,#262);
#202=LINE('',#1063,#263);
#203=LINE('',#1065,#264);
#204=LINE('',#1066,#265);
#205=LINE('',#1069,#266);
#206=LINE('',#1070,#267);
#207=LINE('',#1076,#268);
#208=LINE('',#1078,#269);
#209=LINE('',#1081,#270);
#210=LINE('',#1082,#271);
#211=LINE('',#1084,#272);
#212=LINE('',#1087,#273);
#213=LINE('',#1088,#274);
#214=LINE('',#1090,#275);
#215=LINE('',#1093,#276);
#216=LINE('',#1095,#277);
#217=LINE('',#1097,#278);
#218=LINE('',#1099,#279);
#219=LINE('',#1102,#280);
#220=LINE('',#1103,#281);
#221=LINE('',#1106,#282);
#222=LINE('',#1107,#283);
#223=LINE('',#1111,#284);
#224=LINE('',#1113,#285);
#225=VECTOR('',#747,1.);
#226=VECTOR('',#748,1.);
#227=VECTOR('',#749,1.);
#228=VECTOR('',#750,1.);
#229=VECTOR('',#753,1.);
#230=VECTOR('',#754,1.);
#231=VECTOR('',#755,1.);
#232=VECTOR('',#758,1.);
#233=VECTOR('',#759,1.);
#234=VECTOR('',#760,1.);
#235=VECTOR('',#761,1.);
#236=VECTOR('',#764,1.);
#237=VECTOR('',#765,1.);
#238=VECTOR('',#766,1.);
#239=VECTOR('',#767,1.);
#240=VECTOR('',#768,1.);
#241=VECTOR('',#769,1.);
#242=VECTOR('',#772,1.);
#243=VECTOR('',#773,1.);
#244=VECTOR('',#786,0.399999999999999);
#245=VECTOR('',#797,0.4);
#246=VECTOR('',#808,0.399999999999999);
#247=VECTOR('',#819,0.4);
#248=VECTOR('',#830,0.300000000000001);
#249=VECTOR('',#841,0.300000000000001);
#250=VECTOR('',#850,1.);
#251=VECTOR('',#851,1.);
#252=VECTOR('',#852,1.);
#253=VECTOR('',#855,1.);
#254=VECTOR('',#856,1.);
#255=VECTOR('',#857,1.);
#256=VECTOR('',#858,1.);
#257=VECTOR('',#861,1.);
#258=VECTOR('',#862,1.);
#259=VECTOR('',#863,1.);
#260=VECTOR('',#864,1.);
#261=VECTOR('',#865,1.);
#262=VECTOR('',#866,1.);
#263=VECTOR('',#869,1.);
#264=VECTOR('',#870,1.);
#265=VECTOR('',#871,1.);
#266=VECTOR('',#874,1.);
#267=VECTOR('',#875,1.);
#268=VECTOR('',#882,0.154999999999998);
#269=VECTOR('',#885,0.155000000000001);
#270=VECTOR('',#888,1.);
#271=VECTOR('',#889,1.);
#272=VECTOR('',#892,1.);
#273=VECTOR('',#895,1.);
#274=VECTOR('',#896,1.);
#275=VECTOR('',#899,1.);
#276=VECTOR('',#904,0.25);
#277=VECTOR('',#907,0.25);
#278=VECTOR('',#910,0.25);
#279=VECTOR('',#913,0.25);
#280=VECTOR('',#916,1.);
#281=VECTOR('',#917,1.);
#282=VECTOR('',#920,1.);
#283=VECTOR('',#921,1.);
#284=VECTOR('',#926,1.);
#285=VECTOR('',#929,1.);
#286=VERTEX_POINT('',#934);
#287=VERTEX_POINT('',#935);
#288=VERTEX_POINT('',#937);
#289=VERTEX_POINT('',#939);
#290=VERTEX_POINT('',#943);
#291=VERTEX_POINT('',#945);
#292=VERTEX_POINT('',#949);
#293=VERTEX_POINT('',#951);
#294=VERTEX_POINT('',#953);
#295=VERTEX_POINT('',#957);
#296=VERTEX_POINT('',#959);
#297=VERTEX_POINT('',#961);
#298=VERTEX_POINT('',#963);
#299=VERTEX_POINT('',#965);
#300=VERTEX_POINT('',#967);
#301=VERTEX_POINT('',#969);
#302=VERTEX_POINT('',#971);
#303=VERTEX_POINT('',#974);
#304=VERTEX_POINT('',#976);
#305=VERTEX_POINT('',#978);
#306=VERTEX_POINT('',#980);
#307=VERTEX_POINT('',#983);
#308=VERTEX_POINT('',#985);
#309=VERTEX_POINT('',#989);
#310=VERTEX_POINT('',#992);
#311=VERTEX_POINT('',#994);
#312=VERTEX_POINT('',#998);
#313=VERTEX_POINT('',#1001);
#314=VERTEX_POINT('',#1003);
#315=VERTEX_POINT('',#1007);
#316=VERTEX_POINT('',#1010);
#317=VERTEX_POINT('',#1012);
#318=VERTEX_POINT('',#1016);
#319=VERTEX_POINT('',#1019);
#320=VERTEX_POINT('',#1021);
#321=VERTEX_POINT('',#1025);
#322=VERTEX_POINT('',#1028);
#323=VERTEX_POINT('',#1030);
#324=VERTEX_POINT('',#1034);
#325=VERTEX_POINT('',#1037);
#326=VERTEX_POINT('',#1039);
#327=VERTEX_POINT('',#1043);
#328=VERTEX_POINT('',#1045);
#329=VERTEX_POINT('',#1047);
#330=VERTEX_POINT('',#1051);
#331=VERTEX_POINT('',#1053);
#332=VERTEX_POINT('',#1055);
#333=VERTEX_POINT('',#1058);
#334=VERTEX_POINT('',#1062);
#335=VERTEX_POINT('',#1064);
#336=VERTEX_POINT('',#1068);
#337=VERTEX_POINT('',#1071);
#338=VERTEX_POINT('',#1073);
#339=VERTEX_POINT('',#1080);
#340=VERTEX_POINT('',#1086);
#341=VERTEX_POINT('',#1101);
#342=VERTEX_POINT('',#1105);
#343=VERTEX_POINT('',#1109);
#344=EDGE_CURVE('',#286,#287,#164,.T.);
#345=EDGE_CURVE('',#288,#286,#165,.T.);
#346=EDGE_CURVE('',#288,#289,#166,.T.);
#347=EDGE_CURVE('',#287,#289,#167,.T.);
#348=EDGE_CURVE('',#290,#288,#168,.T.);
#349=EDGE_CURVE('',#291,#290,#169,.T.);
#350=EDGE_CURVE('',#289,#291,#170,.T.);
#351=EDGE_CURVE('',#286,#292,#171,.T.);
#352=EDGE_CURVE('',#292,#293,#172,.T.);
#353=EDGE_CURVE('',#294,#293,#173,.T.);
#354=EDGE_CURVE('',#294,#290,#174,.T.);
#355=EDGE_CURVE('',#287,#295,#175,.T.);
#356=EDGE_CURVE('',#295,#296,#176,.T.);
#357=EDGE_CURVE('',#296,#297,#177,.T.);
#358=EDGE_CURVE('',#297,#298,#178,.T.);
#359=EDGE_CURVE('',#299,#298,#179,.T.);
#360=EDGE_CURVE('',#299,#300,#180,.T.);
#361=EDGE_CURVE('',#301,#300,#46,.T.);
#362=EDGE_CURVE('',#301,#302,#181,.T.);
#363=EDGE_CURVE('',#292,#302,#182,.T.);
#364=EDGE_CURVE('',#303,#303,#47,.T.);
#365=EDGE_CURVE('',#304,#304,#48,.T.);
#366=EDGE_CURVE('',#305,#305,#49,.T.);
#367=EDGE_CURVE('',#306,#306,#50,.T.);
#368=EDGE_CURVE('',#307,#307,#51,.T.);
#369=EDGE_CURVE('',#307,#308,#183,.T.);
#370=EDGE_CURVE('',#308,#308,#52,.T.);
#371=EDGE_CURVE('',#309,#309,#53,.T.);
#372=EDGE_CURVE('',#310,#310,#54,.T.);
#373=EDGE_CURVE('',#310,#311,#184,.T.);
#374=EDGE_CURVE('',#311,#311,#55,.T.);
#375=EDGE_CURVE('',#312,#312,#56,.T.);
#376=EDGE_CURVE('',#313,#313,#57,.T.);
#377=EDGE_CURVE('',#313,#314,#185,.T.);
#378=EDGE_CURVE('',#314,#314,#58,.T.);
#379=EDGE_CURVE('',#315,#315,#59,.T.);
#380=EDGE_CURVE('',#316,#316,#60,.T.);
#381=EDGE_CURVE('',#316,#317,#186,.T.);
#382=EDGE_CURVE('',#317,#317,#61,.T.);
#383=EDGE_CURVE('',#318,#318,#62,.T.);
#384=EDGE_CURVE('',#319,#319,#63,.T.);
#385=EDGE_CURVE('',#319,#320,#187,.T.);
#386=EDGE_CURVE('',#320,#320,#64,.T.);
#387=EDGE_CURVE('',#321,#321,#65,.T.);
#388=EDGE_CURVE('',#322,#322,#66,.T.);
#389=EDGE_CURVE('',#322,#323,#188,.T.);
#390=EDGE_CURVE('',#323,#323,#67,.T.);
#391=EDGE_CURVE('',#324,#324,#68,.T.);
#392=EDGE_CURVE('',#295,#325,#189,.T.);
#393=EDGE_CURVE('',#326,#291,#190,.T.);
#394=EDGE_CURVE('',#326,#325,#191,.T.);
#395=EDGE_CURVE('',#325,#327,#192,.T.);
#396=EDGE_CURVE('',#327,#328,#193,.T.);
#397=EDGE_CURVE('',#329,#328,#194,.T.);
#398=EDGE_CURVE('',#296,#329,#195,.T.);
#399=EDGE_CURVE('',#327,#330,#196,.T.);
#400=EDGE_CURVE('',#330,#331,#197,.T.);
#401=EDGE_CURVE('',#332,#331,#198,.T.);
#402=EDGE_CURVE('',#299,#332,#199,.T.);
#403=EDGE_CURVE('',#298,#333,#200,.T.);
#404=EDGE_CURVE('',#328,#333,#201,.T.);
#405=EDGE_CURVE('',#334,#294,#202,.T.);
#406=EDGE_CURVE('',#334,#335,#203,.T.);
#407=EDGE_CURVE('',#335,#326,#204,.T.);
#408=EDGE_CURVE('',#336,#335,#205,.T.);
#409=EDGE_CURVE('',#330,#336,#206,.T.);
#410=EDGE_CURVE('',#337,#337,#69,.T.);
#411=EDGE_CURVE('',#338,#338,#70,.T.);
#412=EDGE_CURVE('',#337,#324,#207,.T.);
#413=EDGE_CURVE('',#338,#321,#208,.T.);
#414=EDGE_CURVE('',#331,#339,#209,.T.);
#415=EDGE_CURVE('',#339,#336,#210,.T.);
#416=EDGE_CURVE('',#339,#334,#211,.T.);
#417=EDGE_CURVE('',#340,#329,#212,.T.);
#418=EDGE_CURVE('',#297,#340,#213,.T.);
#419=EDGE_CURVE('',#333,#340,#214,.T.);
#420=EDGE_CURVE('',#315,#303,#215,.T.);
#421=EDGE_CURVE('',#309,#304,#216,.T.);
#422=EDGE_CURVE('',#318,#305,#217,.T.);
#423=EDGE_CURVE('',#312,#306,#218,.T.);
#424=EDGE_CURVE('',#302,#341,#219,.T.);
#425=EDGE_CURVE('',#293,#341,#220,.T.);
#426=EDGE_CURVE('',#342,#332,#221,.T.);
#427=EDGE_CURVE('',#300,#342,#222,.T.);
#428=EDGE_CURVE('',#343,#342,#71,.T.);
#429=EDGE_CURVE('',#301,#343,#223,.T.);
#430=EDGE_CURVE('',#341,#343,#224,.T.);
#431=ORIENTED_EDGE('',*,*,#344,.F.);
#432=ORIENTED_EDGE('',*,*,#345,.F.);
#433=ORIENTED_EDGE('',*,*,#346,.T.);
#434=ORIENTED_EDGE('',*,*,#347,.F.);
#435=ORIENTED_EDGE('',*,*,#346,.F.);
#436=ORIENTED_EDGE('',*,*,#348,.F.);
#437=ORIENTED_EDGE('',*,*,#349,.F.);
#438=ORIENTED_EDGE('',*,*,#350,.F.);
#439=ORIENTED_EDGE('',*,*,#348,.T.);
#440=ORIENTED_EDGE('',*,*,#345,.T.);
#441=ORIENTED_EDGE('',*,*,#351,.T.);
#442=ORIENTED_EDGE('',*,*,#352,.T.);
#443=ORIENTED_EDGE('',*,*,#353,.F.);
#444=ORIENTED_EDGE('',*,*,#354,.T.);
#445=ORIENTED_EDGE('',*,*,#344,.T.);
#446=ORIENTED_EDGE('',*,*,#355,.T.);
#447=ORIENTED_EDGE('',*,*,#356,.T.);
#448=ORIENTED_EDGE('',*,*,#357,.T.);
#449=ORIENTED_EDGE('',*,*,#358,.T.);
#450=ORIENTED_EDGE('',*,*,#359,.F.);
#451=ORIENTED_EDGE('',*,*,#360,.T.);
#452=ORIENTED_EDGE('',*,*,#361,.F.);
#453=ORIENTED_EDGE('',*,*,#362,.T.);
#454=ORIENTED_EDGE('',*,*,#363,.F.);
#455=ORIENTED_EDGE('',*,*,#351,.F.);
#456=ORIENTED_EDGE('',*,*,#364,.F.);
#457=ORIENTED_EDGE('',*,*,#365,.F.);
#458=ORIENTED_EDGE('',*,*,#366,.F.);
#459=ORIENTED_EDGE('',*,*,#367,.F.);
#460=ORIENTED_EDGE('',*,*,#368,.F.);
#461=ORIENTED_EDGE('',*,*,#369,.T.);
#462=ORIENTED_EDGE('',*,*,#370,.T.);
#463=ORIENTED_EDGE('',*,*,#369,.F.);
#464=ORIENTED_EDGE('',*,*,#370,.F.);
#465=ORIENTED_EDGE('',*,*,#371,.F.);
#466=ORIENTED_EDGE('',*,*,#372,.F.);
#467=ORIENTED_EDGE('',*,*,#373,.T.);
#468=ORIENTED_EDGE('',*,*,#374,.T.);
#469=ORIENTED_EDGE('',*,*,#373,.F.);
#470=ORIENTED_EDGE('',*,*,#374,.F.);
#471=ORIENTED_EDGE('',*,*,#375,.F.);
#472=ORIENTED_EDGE('',*,*,#376,.F.);
#473=ORIENTED_EDGE('',*,*,#377,.T.);
#474=ORIENTED_EDGE('',*,*,#378,.T.);
#475=ORIENTED_EDGE('',*,*,#377,.F.);
#476=ORIENTED_EDGE('',*,*,#378,.F.);
#477=ORIENTED_EDGE('',*,*,#379,.F.);
#478=ORIENTED_EDGE('',*,*,#380,.F.);
#479=ORIENTED_EDGE('',*,*,#381,.T.);
#480=ORIENTED_EDGE('',*,*,#382,.T.);
#481=ORIENTED_EDGE('',*,*,#381,.F.);
#482=ORIENTED_EDGE('',*,*,#382,.F.);
#483=ORIENTED_EDGE('',*,*,#383,.F.);
#484=ORIENTED_EDGE('',*,*,#384,.F.);
#485=ORIENTED_EDGE('',*,*,#385,.T.);
#486=ORIENTED_EDGE('',*,*,#386,.T.);
#487=ORIENTED_EDGE('',*,*,#385,.F.);
#488=ORIENTED_EDGE('',*,*,#386,.F.);
#489=ORIENTED_EDGE('',*,*,#387,.F.);
#490=ORIENTED_EDGE('',*,*,#388,.F.);
#491=ORIENTED_EDGE('',*,*,#389,.T.);
#492=ORIENTED_EDGE('',*,*,#390,.T.);
#493=ORIENTED_EDGE('',*,*,#389,.F.);
#494=ORIENTED_EDGE('',*,*,#390,.F.);
#495=ORIENTED_EDGE('',*,*,#391,.F.);
#496=ORIENTED_EDGE('',*,*,#392,.F.);
#497=ORIENTED_EDGE('',*,*,#355,.F.);
#498=ORIENTED_EDGE('',*,*,#347,.T.);
#499=ORIENTED_EDGE('',*,*,#350,.T.);
#500=ORIENTED_EDGE('',*,*,#393,.F.);
#501=ORIENTED_EDGE('',*,*,#394,.T.);
#502=ORIENTED_EDGE('',*,*,#392,.T.);
#503=ORIENTED_EDGE('',*,*,#395,.T.);
#504=ORIENTED_EDGE('',*,*,#396,.T.);
#505=ORIENTED_EDGE('',*,*,#397,.F.);
#506=ORIENTED_EDGE('',*,*,#398,.F.);
#507=ORIENTED_EDGE('',*,*,#356,.F.);
#508=ORIENTED_EDGE('',*,*,#399,.T.);
#509=ORIENTED_EDGE('',*,*,#400,.T.);
#510=ORIENTED_EDGE('',*,*,#401,.F.);
#511=ORIENTED_EDGE('',*,*,#402,.F.);
#512=ORIENTED_EDGE('',*,*,#359,.T.);
#513=ORIENTED_EDGE('',*,*,#403,.T.);
#514=ORIENTED_EDGE('',*,*,#404,.F.);
#515=ORIENTED_EDGE('',*,*,#396,.F.);
#516=ORIENTED_EDGE('',*,*,#349,.T.);
#517=ORIENTED_EDGE('',*,*,#354,.F.);
#518=ORIENTED_EDGE('',*,*,#405,.F.);
#519=ORIENTED_EDGE('',*,*,#406,.T.);
#520=ORIENTED_EDGE('',*,*,#407,.T.);
#521=ORIENTED_EDGE('',*,*,#393,.T.);
#522=ORIENTED_EDGE('',*,*,#408,.F.);
#523=ORIENTED_EDGE('',*,*,#409,.F.);
#524=ORIENTED_EDGE('',*,*,#399,.F.);
#525=ORIENTED_EDGE('',*,*,#395,.F.);
#526=ORIENTED_EDGE('',*,*,#394,.F.);
#527=ORIENTED_EDGE('',*,*,#407,.F.);
#528=ORIENTED_EDGE('',*,*,#410,.F.);
#529=ORIENTED_EDGE('',*,*,#411,.F.);
#530=ORIENTED_EDGE('',*,*,#410,.T.);
#531=ORIENTED_EDGE('',*,*,#412,.T.);
#532=ORIENTED_EDGE('',*,*,#391,.T.);
#533=ORIENTED_EDGE('',*,*,#412,.F.);
#534=ORIENTED_EDGE('',*,*,#411,.T.);
#535=ORIENTED_EDGE('',*,*,#413,.T.);
#536=ORIENTED_EDGE('',*,*,#387,.T.);
#537=ORIENTED_EDGE('',*,*,#413,.F.);
#538=ORIENTED_EDGE('',*,*,#414,.F.);
#539=ORIENTED_EDGE('',*,*,#400,.F.);
#540=ORIENTED_EDGE('',*,*,#409,.T.);
#541=ORIENTED_EDGE('',*,*,#415,.F.);
#542=ORIENTED_EDGE('',*,*,#416,.F.);
#543=ORIENTED_EDGE('',*,*,#415,.T.);
#544=ORIENTED_EDGE('',*,*,#408,.T.);
#545=ORIENTED_EDGE('',*,*,#406,.F.);
#546=ORIENTED_EDGE('',*,*,#357,.F.);
#547=ORIENTED_EDGE('',*,*,#398,.T.);
#548=ORIENTED_EDGE('',*,*,#417,.F.);
#549=ORIENTED_EDGE('',*,*,#418,.F.);
#550=ORIENTED_EDGE('',*,*,#358,.F.);
#551=ORIENTED_EDGE('',*,*,#418,.T.);
#552=ORIENTED_EDGE('',*,*,#419,.F.);
#553=ORIENTED_EDGE('',*,*,#403,.F.);
#554=ORIENTED_EDGE('',*,*,#419,.T.);
#555=ORIENTED_EDGE('',*,*,#417,.T.);
#556=ORIENTED_EDGE('',*,*,#397,.T.);
#557=ORIENTED_EDGE('',*,*,#404,.T.);
#558=ORIENTED_EDGE('',*,*,#384,.T.);
#559=ORIENTED_EDGE('',*,*,#388,.T.);
#560=ORIENTED_EDGE('',*,*,#379,.T.);
#561=ORIENTED_EDGE('',*,*,#420,.T.);
#562=ORIENTED_EDGE('',*,*,#364,.T.);
#563=ORIENTED_EDGE('',*,*,#420,.F.);
#564=ORIENTED_EDGE('',*,*,#371,.T.);
#565=ORIENTED_EDGE('',*,*,#421,.T.);
#566=ORIENTED_EDGE('',*,*,#365,.T.);
#567=ORIENTED_EDGE('',*,*,#421,.F.);
#568=ORIENTED_EDGE('',*,*,#383,.T.);
#569=ORIENTED_EDGE('',*,*,#422,.T.);
#570=ORIENTED_EDGE('',*,*,#366,.T.);
#571=ORIENTED_EDGE('',*,*,#422,.F.);
#572=ORIENTED_EDGE('',*,*,#375,.T.);
#573=ORIENTED_EDGE('',*,*,#423,.T.);
#574=ORIENTED_EDGE('',*,*,#367,.T.);
#575=ORIENTED_EDGE('',*,*,#423,.F.);
#576=ORIENTED_EDGE('',*,*,#363,.T.);
#577=ORIENTED_EDGE('',*,*,#424,.T.);
#578=ORIENTED_EDGE('',*,*,#425,.F.);
#579=ORIENTED_EDGE('',*,*,#352,.F.);
#580=ORIENTED_EDGE('',*,*,#360,.F.);
#581=ORIENTED_EDGE('',*,*,#402,.T.);
#582=ORIENTED_EDGE('',*,*,#426,.F.);
#583=ORIENTED_EDGE('',*,*,#427,.F.);
#584=ORIENTED_EDGE('',*,*,#361,.T.);
#585=ORIENTED_EDGE('',*,*,#427,.T.);
#586=ORIENTED_EDGE('',*,*,#428,.F.);
#587=ORIENTED_EDGE('',*,*,#429,.F.);
#588=ORIENTED_EDGE('',*,*,#362,.F.);
#589=ORIENTED_EDGE('',*,*,#429,.T.);
#590=ORIENTED_EDGE('',*,*,#430,.F.);
#591=ORIENTED_EDGE('',*,*,#424,.F.);
#592=ORIENTED_EDGE('',*,*,#405,.T.);
#593=ORIENTED_EDGE('',*,*,#353,.T.);
#594=ORIENTED_EDGE('',*,*,#425,.T.);
#595=ORIENTED_EDGE('',*,*,#430,.T.);
#596=ORIENTED_EDGE('',*,*,#428,.T.);
#597=ORIENTED_EDGE('',*,*,#426,.T.);
#598=ORIENTED_EDGE('',*,*,#401,.T.);
#599=ORIENTED_EDGE('',*,*,#414,.T.);
#600=ORIENTED_EDGE('',*,*,#416,.T.);
#601=ORIENTED_EDGE('',*,*,#380,.T.);
#602=ORIENTED_EDGE('',*,*,#376,.T.);
#603=ORIENTED_EDGE('',*,*,#372,.T.);
#604=ORIENTED_EDGE('',*,*,#368,.T.);
#605=PLANE('',#680);
#606=PLANE('',#681);
#607=PLANE('',#682);
#608=PLANE('',#683);
#609=PLANE('',#692);
#610=PLANE('',#697);
#611=PLANE('',#702);
#612=PLANE('',#707);
#613=PLANE('',#712);
#614=PLANE('',#717);
#615=PLANE('',#719);
#616=PLANE('',#720);
#617=PLANE('',#721);
#618=PLANE('',#722);
#619=PLANE('',#723);
#620=PLANE('',#728);
#621=PLANE('',#729);
#622=PLANE('',#730);
#623=PLANE('',#731);
#624=PLANE('',#732);
#625=PLANE('',#737);
#626=PLANE('',#738);
#627=PLANE('',#741);
#628=PLANE('',#742);
#629=ADVANCED_FACE('',(#72),#605,.F.);
#630=ADVANCED_FACE('',(#73),#606,.F.);
#631=ADVANCED_FACE('',(#74),#607,.T.);
#632=ADVANCED_FACE('',(#75,#28,#29,#30,#31),#608,.F.);
#633=ADVANCED_FACE('',(#76),#15,.F.);
#634=ADVANCED_FACE('',(#77,#32),#609,.T.);
#635=ADVANCED_FACE('',(#78),#16,.F.);
#636=ADVANCED_FACE('',(#79,#33),#610,.T.);
#637=ADVANCED_FACE('',(#80),#17,.F.);
#638=ADVANCED_FACE('',(#81,#34),#611,.T.);
#639=ADVANCED_FACE('',(#82),#18,.F.);
#640=ADVANCED_FACE('',(#83,#35),#612,.T.);
#641=ADVANCED_FACE('',(#84),#19,.F.);
#642=ADVANCED_FACE('',(#85,#36),#613,.T.);
#643=ADVANCED_FACE('',(#86),#20,.F.);
#644=ADVANCED_FACE('',(#87,#37),#614,.T.);
#645=ADVANCED_FACE('',(#88),#615,.F.);
#646=ADVANCED_FACE('',(#89),#616,.T.);
#647=ADVANCED_FACE('',(#90),#617,.T.);
#648=ADVANCED_FACE('',(#91),#618,.F.);
#649=ADVANCED_FACE('',(#92,#38,#39),#619,.T.);
#650=ADVANCED_FACE('',(#93),#21,.F.);
#651=ADVANCED_FACE('',(#94),#22,.F.);
#652=ADVANCED_FACE('',(#95),#620,.F.);
#653=ADVANCED_FACE('',(#96),#621,.F.);
#654=ADVANCED_FACE('',(#97),#622,.T.);
#655=ADVANCED_FACE('',(#98),#623,.T.);
#656=ADVANCED_FACE('',(#99,#40,#41),#624,.T.);
#657=ADVANCED_FACE('',(#100),#23,.F.);
#658=ADVANCED_FACE('',(#101),#24,.F.);
#659=ADVANCED_FACE('',(#102),#25,.F.);
#660=ADVANCED_FACE('',(#103),#26,.F.);
#661=ADVANCED_FACE('',(#104),#625,.T.);
#662=ADVANCED_FACE('',(#105),#626,.T.);
#663=ADVANCED_FACE('',(#106),#27,.T.);
#664=ADVANCED_FACE('',(#107),#627,.T.);
#665=ADVANCED_FACE('',(#108,#42,#43,#44,#45),#628,.T.);
#666=CLOSED_SHELL('',(#629,#630,#631,#632,#633,#634,#635,#636,#637,#638,
#639,#640,#641,#642,#643,#644,#645,#646,#647,#648,#649,#650,#651,#652,#653,
#654,#655,#656,#657,#658,#659,#660,#661,#662,#663,#664,#665));
#667=DERIVED_UNIT_ELEMENT(#669,1.);
#668=DERIVED_UNIT_ELEMENT(#1120,-3.);
#669=(
MASS_UNIT()
NAMED_UNIT(*)
SI_UNIT(.KILO.,.GRAM.)
);
#670=DERIVED_UNIT((#667,#668));
#671=MEASURE_REPRESENTATION_ITEM('density measure',
POSITIVE_RATIO_MEASURE(1060.),#670);
#672=PROPERTY_DEFINITION_REPRESENTATION(#677,#674);
#673=PROPERTY_DEFINITION_REPRESENTATION(#678,#675);
#674=REPRESENTATION('material name',(#676),#1117);
#675=REPRESENTATION('density',(#671),#1117);
#676=DESCRIPTIVE_REPRESENTATION_ITEM('ABS \X2\D50CB77CC2A4D2F1\X0\',
'ABS \X2\D50CB77CC2A4D2F1\X0\');
#677=PROPERTY_DEFINITION('material property','material name',#1127);
#678=PROPERTY_DEFINITION('material property','density of part',#1127);
#679=AXIS2_PLACEMENT_3D('',#932,#743,#744);
#680=AXIS2_PLACEMENT_3D('',#933,#745,#746);
#681=AXIS2_PLACEMENT_3D('',#942,#751,#752);
#682=AXIS2_PLACEMENT_3D('',#948,#756,#757);
#683=AXIS2_PLACEMENT_3D('',#956,#762,#763);
#684=AXIS2_PLACEMENT_3D('',#970,#770,#771);
#685=AXIS2_PLACEMENT_3D('',#975,#774,#775);
#686=AXIS2_PLACEMENT_3D('',#977,#776,#777);
#687=AXIS2_PLACEMENT_3D('',#979,#778,#779);
#688=AXIS2_PLACEMENT_3D('',#981,#780,#781);
#689=AXIS2_PLACEMENT_3D('',#982,#782,#783);
#690=AXIS2_PLACEMENT_3D('',#984,#784,#785);
#691=AXIS2_PLACEMENT_3D('',#987,#787,#788);
#692=AXIS2_PLACEMENT_3D('',#988,#789,#790);
#693=AXIS2_PLACEMENT_3D('',#990,#791,#792);
#694=AXIS2_PLACEMENT_3D('',#991,#793,#794);
#695=AXIS2_PLACEMENT_3D('',#993,#795,#796);
#696=AXIS2_PLACEMENT_3D('',#996,#798,#799);
#697=AXIS2_PLACEMENT_3D('',#997,#800,#801);
#698=AXIS2_PLACEMENT_3D('',#999,#802,#803);
#699=AXIS2_PLACEMENT_3D('',#1000,#804,#805);
#700=AXIS2_PLACEMENT_3D('',#1002,#806,#807);
#701=AXIS2_PLACEMENT_3D('',#1005,#809,#810);
#702=AXIS2_PLACEMENT_3D('',#1006,#811,#812);
#703=AXIS2_PLACEMENT_3D('',#1008,#813,#814);
#704=AXIS2_PLACEMENT_3D('',#1009,#815,#816);
#705=AXIS2_PLACEMENT_3D('',#1011,#817,#818);
#706=AXIS2_PLACEMENT_3D('',#1014,#820,#821);
#707=AXIS2_PLACEMENT_3D('',#1015,#822,#823);
#708=AXIS2_PLACEMENT_3D('',#1017,#824,#825);
#709=AXIS2_PLACEMENT_3D('',#1018,#826,#827);
#710=AXIS2_PLACEMENT_3D('',#1020,#828,#829);
#711=AXIS2_PLACEMENT_3D('',#1023,#831,#832);
#712=AXIS2_PLACEMENT_3D('',#1024,#833,#834);
#713=AXIS2_PLACEMENT_3D('',#1026,#835,#836);
#714=AXIS2_PLACEMENT_3D('',#1027,#837,#838);
#715=AXIS2_PLACEMENT_3D('',#1029,#839,#840);
#716=AXIS2_PLACEMENT_3D('',#1032,#842,#843);
#717=AXIS2_PLACEMENT_3D('',#1033,#844,#845);
#718=AXIS2_PLACEMENT_3D('',#1035,#846,#847);
#719=AXIS2_PLACEMENT_3D('',#1036,#848,#849);
#720=AXIS2_PLACEMENT_3D('',#1042,#853,#854);
#721=AXIS2_PLACEMENT_3D('',#1050,#859,#860);
#722=AXIS2_PLACEMENT_3D('',#1061,#867,#868);
#723=AXIS2_PLACEMENT_3D('',#1067,#872,#873);
#724=AXIS2_PLACEMENT_3D('',#1072,#876,#877);
#725=AXIS2_PLACEMENT_3D('',#1074,#878,#879);
#726=AXIS2_PLACEMENT_3D('',#1075,#880,#881);
#727=AXIS2_PLACEMENT_3D('',#1077,#883,#884);
#728=AXIS2_PLACEMENT_3D('',#1079,#886,#887);
#729=AXIS2_PLACEMENT_3D('',#1083,#890,#891);
#730=AXIS2_PLACEMENT_3D('',#1085,#893,#894);
#731=AXIS2_PLACEMENT_3D('',#1089,#897,#898);
#732=AXIS2_PLACEMENT_3D('',#1091,#900,#901);
#733=AXIS2_PLACEMENT_3D('',#1092,#902,#903);
#734=AXIS2_PLACEMENT_3D('',#1094,#905,#906);
#735=AXIS2_PLACEMENT_3D('',#1096,#908,#909);
#736=AXIS2_PLACEMENT_3D('',#1098,#911,#912);
#737=AXIS2_PLACEMENT_3D('',#1100,#914,#915);
#738=AXIS2_PLACEMENT_3D('',#1104,#918,#919);
#739=AXIS2_PLACEMENT_3D('',#1108,#922,#923);
#740=AXIS2_PLACEMENT_3D('',#1110,#924,#925);
#741=AXIS2_PLACEMENT_3D('',#1112,#927,#928);
#742=AXIS2_PLACEMENT_3D('',#1114,#930,#931);
#743=DIRECTION('axis',(0.,0.,1.));
#744=DIRECTION('refdir',(1.,0.,0.));
#745=DIRECTION('center_axis',(0.,1.,0.));
#746=DIRECTION('ref_axis',(-1.,0.,0.));
#747=DIRECTION('',(-1.,0.,0.));
#748=DIRECTION('',(0.,0.,-1.));
#749=DIRECTION('',(-1.,0.,0.));
#750=DIRECTION('',(0.,0.,1.));
#751=DIRECTION('center_axis',(0.,0.,1.));
#752=DIRECTION('ref_axis',(1.,0.,0.));
#753=DIRECTION('',(0.,1.,0.));
#754=DIRECTION('',(1.,0.,0.));
#755=DIRECTION('',(0.,-1.,0.));
#756=DIRECTION('center_axis',(1.,0.,0.));
#757=DIRECTION('ref_axis',(0.,1.,0.));
#758=DIRECTION('',(0.,1.,0.));
#759=DIRECTION('',(0.,0.,1.));
#760=DIRECTION('',(0.,1.,0.));
#761=DIRECTION('',(0.,0.,-1.));
#762=DIRECTION('center_axis',(0.,0.,1.));
#763=DIRECTION('ref_axis',(1.,0.,0.));
#764=DIRECTION('',(0.,-1.,0.));
#765=DIRECTION('',(-1.,0.,0.));
#766=DIRECTION('',(0.,-1.,0.));
#767=DIRECTION('',(1.,0.,0.));
#768=DIRECTION('',(0.,1.,0.));
#769=DIRECTION('',(-1.,0.,0.));
#770=DIRECTION('center_axis',(0.,0.,1.));
#771=DIRECTION('ref_axis',(-1.,0.,0.));
#772=DIRECTION('',(0.,1.,0.));
#773=DIRECTION('',(-1.,0.,0.));
#774=DIRECTION('center_axis',(0.,0.,-1.));
#775=DIRECTION('ref_axis',(1.,0.,0.));
#776=DIRECTION('center_axis',(0.,0.,-1.));
#777=DIRECTION('ref_axis',(1.,0.,0.));
#778=DIRECTION('center_axis',(0.,0.,-1.));
#779=DIRECTION('ref_axis',(1.,0.,0.));
#780=DIRECTION('center_axis',(0.,0.,-1.));
#781=DIRECTION('ref_axis',(1.,0.,0.));
#782=DIRECTION('center_axis',(0.,0.,-1.));
#783=DIRECTION('ref_axis',(-1.,0.,0.));
#784=DIRECTION('center_axis',(0.,0.,-1.));
#785=DIRECTION('ref_axis',(-1.,0.,0.));
#786=DIRECTION('',(0.,0.,-1.));
#787=DIRECTION('center_axis',(0.,0.,-1.));
#788=DIRECTION('ref_axis',(-1.,0.,0.));
#789=DIRECTION('center_axis',(0.,0.,1.));
#790=DIRECTION('ref_axis',(-1.,0.,0.));
#791=DIRECTION('center_axis',(0.,0.,1.));
#792=DIRECTION('ref_axis',(1.,0.,0.));
#793=DIRECTION('center_axis',(0.,0.,-1.));
#794=DIRECTION('ref_axis',(-1.,0.,0.));
#795=DIRECTION('center_axis',(0.,0.,-1.));
#796=DIRECTION('ref_axis',(-1.,0.,0.));
#797=DIRECTION('',(0.,0.,-1.));
#798=DIRECTION('center_axis',(0.,0.,-1.));
#799=DIRECTION('ref_axis',(-1.,0.,0.));
#800=DIRECTION('center_axis',(0.,0.,1.));
#801=DIRECTION('ref_axis',(-1.,0.,0.));
#802=DIRECTION('center_axis',(0.,0.,1.));
#803=DIRECTION('ref_axis',(1.,0.,0.));
#804=DIRECTION('center_axis',(0.,0.,-1.));
#805=DIRECTION('ref_axis',(-1.,0.,0.));
#806=DIRECTION('center_axis',(0.,0.,-1.));
#807=DIRECTION('ref_axis',(-1.,0.,0.));
#808=DIRECTION('',(0.,0.,-1.));
#809=DIRECTION('center_axis',(0.,0.,-1.));
#810=DIRECTION('ref_axis',(-1.,0.,0.));
#811=DIRECTION('center_axis',(0.,0.,1.));
#812=DIRECTION('ref_axis',(-1.,0.,0.));
#813=DIRECTION('center_axis',(0.,0.,1.));
#814=DIRECTION('ref_axis',(1.,0.,0.));
#815=DIRECTION('center_axis',(0.,0.,-1.));
#816=DIRECTION('ref_axis',(-1.,0.,0.));
#817=DIRECTION('center_axis',(0.,0.,-1.));
#818=DIRECTION('ref_axis',(-1.,0.,0.));
#819=DIRECTION('',(0.,0.,-1.));
#820=DIRECTION('center_axis',(0.,0.,-1.));
#821=DIRECTION('ref_axis',(-1.,0.,0.));
#822=DIRECTION('center_axis',(0.,0.,1.));
#823=DIRECTION('ref_axis',(-1.,0.,0.));
#824=DIRECTION('center_axis',(0.,0.,1.));
#825=DIRECTION('ref_axis',(1.,0.,0.));
#826=DIRECTION('center_axis',(0.,0.,1.));
#827=DIRECTION('ref_axis',(1.,0.,0.));
#828=DIRECTION('center_axis',(0.,0.,1.));
#829=DIRECTION('ref_axis',(1.,0.,0.));
#830=DIRECTION('',(0.,0.,1.));
#831=DIRECTION('center_axis',(0.,0.,1.));
#832=DIRECTION('ref_axis',(1.,0.,0.));
#833=DIRECTION('center_axis',(0.,0.,-1.));
#834=DIRECTION('ref_axis',(1.,0.,0.));
#835=DIRECTION('center_axis',(0.,0.,-1.));
#836=DIRECTION('ref_axis',(-1.,0.,0.));
#837=DIRECTION('center_axis',(0.,0.,1.));
#838=DIRECTION('ref_axis',(1.,0.,0.));
#839=DIRECTION('center_axis',(0.,0.,1.));
#840=DIRECTION('ref_axis',(1.,0.,0.));
#841=DIRECTION('',(0.,0.,1.));
#842=DIRECTION('center_axis',(0.,0.,1.));
#843=DIRECTION('ref_axis',(1.,0.,0.));
#844=DIRECTION('center_axis',(0.,0.,-1.));
#845=DIRECTION('ref_axis',(1.,0.,0.));
#846=DIRECTION('center_axis',(0.,0.,-1.));
#847=DIRECTION('ref_axis',(-1.,0.,0.));
#848=DIRECTION('center_axis',(-1.,0.,0.));
#849=DIRECTION('ref_axis',(0.,0.,1.));
#850=DIRECTION('',(0.,0.,-1.));
#851=DIRECTION('',(0.,0.,1.));
#852=DIRECTION('',(0.,1.,0.));
#853=DIRECTION('center_axis',(0.,1.,0.));
#854=DIRECTION('ref_axis',(1.,0.,0.));
#855=DIRECTION('',(1.,0.,0.));
#856=DIRECTION('',(0.,0.,-1.));
#857=DIRECTION('',(1.,0.,0.));
#858=DIRECTION('',(0.,0.,-1.));
#859=DIRECTION('center_axis',(1.,0.,0.));
#860=DIRECTION('ref_axis',(0.,1.,0.));
#861=DIRECTION('',(0.,-1.,0.));
#862=DIRECTION('',(0.,0.,1.));
#863=DIRECTION('',(0.,1.,0.));
#864=DIRECTION('',(0.,0.,1.));
#865=DIRECTION('',(0.,0.,-1.));
#866=DIRECTION('',(0.,-1.,0.));
#867=DIRECTION('center_axis',(0.,1.,0.));
#868=DIRECTION('ref_axis',(1.,0.,0.));
#869=DIRECTION('',(1.,0.,0.));
#870=DIRECTION('',(0.,0.,-1.));
#871=DIRECTION('',(1.,0.,0.));
#872=DIRECTION('center_axis',(0.,0.,1.));
#873=DIRECTION('ref_axis',(-1.,0.,0.));
#874=DIRECTION('',(0.,1.,0.));
#875=DIRECTION('',(-1.,0.,0.));
#876=DIRECTION('center_axis',(0.,0.,1.));
#877=DIRECTION('ref_axis',(-1.,0.,0.));
#878=DIRECTION('center_axis',(0.,0.,1.));
#879=DIRECTION('ref_axis',(-1.,0.,0.));
#880=DIRECTION('center_axis',(0.,0.,-1.));
#881=DIRECTION('ref_axis',(-1.,0.,0.));
#882=DIRECTION('',(0.,0.,-1.));
#883=DIRECTION('center_axis',(0.,0.,-1.));
#884=DIRECTION('ref_axis',(-1.,0.,0.));
#885=DIRECTION('',(0.,0.,-1.));
#886=DIRECTION('center_axis',(0.,-1.,0.));
#887=DIRECTION('ref_axis',(-1.,0.,0.));
#888=DIRECTION('',(-1.,0.,0.));
#889=DIRECTION('',(0.,0.,-1.));
#890=DIRECTION('center_axis',(-1.,0.,0.));
#891=DIRECTION('ref_axis',(0.,1.,0.));
#892=DIRECTION('',(0.,1.,0.));
#893=DIRECTION('center_axis',(-1.,0.,0.));
#894=DIRECTION('ref_axis',(0.,1.,0.));
#895=DIRECTION('',(0.,1.,0.));
#896=DIRECTION('',(0.,0.,-1.));
#897=DIRECTION('center_axis',(0.,-1.,0.));
#898=DIRECTION('ref_axis',(-1.,0.,0.));
#899=DIRECTION('',(-1.,0.,0.));
#900=DIRECTION('center_axis',(0.,0.,-1.));
#901=DIRECTION('ref_axis',(-1.,0.,0.));
#902=DIRECTION('center_axis',(0.,0.,1.));
#903=DIRECTION('ref_axis',(1.,0.,0.));
#904=DIRECTION('',(0.,0.,-1.));
#905=DIRECTION('center_axis',(0.,0.,1.));
#906=DIRECTION('ref_axis',(1.,0.,0.));
#907=DIRECTION('',(0.,0.,-1.));
#908=DIRECTION('center_axis',(0.,0.,1.));
#909=DIRECTION('ref_axis',(1.,0.,0.));
#910=DIRECTION('',(0.,0.,-1.));
#911=DIRECTION('center_axis',(0.,0.,1.));
#912=DIRECTION('ref_axis',(1.,0.,0.));
#913=DIRECTION('',(0.,0.,-1.));
#914=DIRECTION('center_axis',(0.,1.,0.));
#915=DIRECTION('ref_axis',(-1.,0.,0.));
#916=DIRECTION('',(0.,0.,1.));
#917=DIRECTION('',(-1.,0.,0.));
#918=DIRECTION('center_axis',(0.,-1.,0.));
#919=DIRECTION('ref_axis',(1.,0.,0.));
#920=DIRECTION('',(1.,0.,0.));
#921=DIRECTION('',(0.,0.,1.));
#922=DIRECTION('center_axis',(0.,0.,1.));
#923=DIRECTION('ref_axis',(-1.,0.,0.));
#924=DIRECTION('center_axis',(0.,0.,1.));
#925=DIRECTION('ref_axis',(-1.,0.,0.));
#926=DIRECTION('',(0.,0.,1.));
#927=DIRECTION('center_axis',(-1.,0.,0.));
#928=DIRECTION('ref_axis',(0.,-1.,0.));
#929=DIRECTION('',(0.,-1.,0.));
#930=DIRECTION('center_axis',(0.,0.,1.));
#931=DIRECTION('ref_axis',(1.,0.,0.));
#932=CARTESIAN_POINT('',(0.,0.,0.));
#933=CARTESIAN_POINT('Origin',(18.75,11.79,0.));
#934=CARTESIAN_POINT('',(18.75,11.79,0.));
#935=CARTESIAN_POINT('',(17.75,11.79,0.));
#936=CARTESIAN_POINT('',(14.0625,11.79,0.));
#937=CARTESIAN_POINT('',(18.75,11.79,0.5));
#938=CARTESIAN_POINT('',(18.75,11.79,0.));
#939=CARTESIAN_POINT('',(17.75,11.79,0.5));
#940=CARTESIAN_POINT('',(18.75,11.79,0.5));
#941=CARTESIAN_POINT('',(17.75,11.79,0.));
#942=CARTESIAN_POINT('Origin',(18.25,10.79,0.5));
#943=CARTESIAN_POINT('',(18.75,9.79,0.5));
#944=CARTESIAN_POINT('',(18.75,5.395,0.5));
#945=CARTESIAN_POINT('',(17.75,9.79,0.5));
#946=CARTESIAN_POINT('',(17.105,9.79,0.5));
#947=CARTESIAN_POINT('',(17.75,11.79,0.5));
#948=CARTESIAN_POINT('Origin',(18.75,0.,0.));
#949=CARTESIAN_POINT('',(18.75,13.,0.));
#950=CARTESIAN_POINT('',(18.75,0.,0.));
#951=CARTESIAN_POINT('',(18.75,13.,1.));
#952=CARTESIAN_POINT('',(18.75,13.,0.));
#953=CARTESIAN_POINT('',(18.75,9.79,1.));
#954=CARTESIAN_POINT('',(18.75,0.,1.));
#955=CARTESIAN_POINT('',(18.75,9.79,0.5));
#956=CARTESIAN_POINT('Origin',(9.375,6.5,0.));
#957=CARTESIAN_POINT('',(17.75,10.25,0.));
#958=CARTESIAN_POINT('',(17.75,9.145,0.));
#959=CARTESIAN_POINT('',(15.5,10.25,0.));
#960=CARTESIAN_POINT('',(12.4375,10.25,0.));
#961=CARTESIAN_POINT('',(15.500000230968,4.,0.));
#962=CARTESIAN_POINT('',(15.5,5.25,0.));
#963=CARTESIAN_POINT('',(18.75,4.,0.));
#964=CARTESIAN_POINT('',(14.0625,4.,0.));
#965=CARTESIAN_POINT('',(18.75,0.,0.));
#966=CARTESIAN_POINT('',(18.75,0.,0.));
#967=CARTESIAN_POINT('',(1.,0.,0.));
#968=CARTESIAN_POINT('',(3.,0.,0.));
#969=CARTESIAN_POINT('',(0.,1.,0.));
#970=CARTESIAN_POINT('Origin',(1.,1.,0.));
#971=CARTESIAN_POINT('',(0.,13.,0.));
#972=CARTESIAN_POINT('',(0.,0.,0.));
#973=CARTESIAN_POINT('',(18.75,13.,0.));
#974=CARTESIAN_POINT('',(17.,11.5,0.));
#975=CARTESIAN_POINT('Origin',(17.25,11.5,0.));
#976=CARTESIAN_POINT('',(17.,2.5,0.));
#977=CARTESIAN_POINT('Origin',(17.25,2.5,0.));
#978=CARTESIAN_POINT('',(2.25,11.5,0.));
#979=CARTESIAN_POINT('Origin',(2.5,11.5,0.));
#980=CARTESIAN_POINT('',(2.25,2.5,0.));
#981=CARTESIAN_POINT('Origin',(2.5,2.5,0.));
#982=CARTESIAN_POINT('Origin',(17.25,2.5,1.));
#983=CARTESIAN_POINT('',(17.65,2.5,1.));
#984=CARTESIAN_POINT('Origin',(17.25,2.5,1.));
#985=CARTESIAN_POINT('',(17.65,2.5,0.5));
#986=CARTESIAN_POINT('',(17.65,2.5,1.));
#987=CARTESIAN_POINT('Origin',(17.25,2.5,0.5));
#988=CARTESIAN_POINT('Origin',(17.25,2.5,0.5));
#989=CARTESIAN_POINT('',(17.,2.5,0.5));
#990=CARTESIAN_POINT('Origin',(17.25,2.5,0.5));
#991=CARTESIAN_POINT('Origin',(2.5,2.5,1.));
#992=CARTESIAN_POINT('',(2.9,2.5,1.));
#993=CARTESIAN_POINT('Origin',(2.5,2.5,1.));
#994=CARTESIAN_POINT('',(2.9,2.5,0.5));
#995=CARTESIAN_POINT('',(2.9,2.5,1.));
#996=CARTESIAN_POINT('Origin',(2.5,2.5,0.5));
#997=CARTESIAN_POINT('Origin',(2.5,2.5,0.5));
#998=CARTESIAN_POINT('',(2.25,2.5,0.5));
#999=CARTESIAN_POINT('Origin',(2.5,2.5,0.5));
#1000=CARTESIAN_POINT('Origin',(17.25,11.5,1.));
#1001=CARTESIAN_POINT('',(17.65,11.5,1.));
#1002=CARTESIAN_POINT('Origin',(17.25,11.5,1.));
#1003=CARTESIAN_POINT('',(17.65,11.5,0.5));
#1004=CARTESIAN_POINT('',(17.65,11.5,1.));
#1005=CARTESIAN_POINT('Origin',(17.25,11.5,0.5));
#1006=CARTESIAN_POINT('Origin',(17.25,11.5,0.5));
#1007=CARTESIAN_POINT('',(17.,11.5,0.5));
#1008=CARTESIAN_POINT('Origin',(17.25,11.5,0.5));
#1009=CARTESIAN_POINT('Origin',(2.5,11.5,1.));
#1010=CARTESIAN_POINT('',(2.9,11.5,1.));
#1011=CARTESIAN_POINT('Origin',(2.5,11.5,1.));
#1012=CARTESIAN_POINT('',(2.9,11.5,0.5));
#1013=CARTESIAN_POINT('',(2.9,11.5,1.));
#1014=CARTESIAN_POINT('Origin',(2.5,11.5,0.5));
#1015=CARTESIAN_POINT('Origin',(2.5,11.5,0.5));
#1016=CARTESIAN_POINT('',(2.25,11.5,0.5));
#1017=CARTESIAN_POINT('Origin',(2.5,11.5,0.5));
#1018=CARTESIAN_POINT('Origin',(16.59,9.16,-1.4));
#1019=CARTESIAN_POINT('',(16.29,9.16,-1.4));
#1020=CARTESIAN_POINT('Origin',(16.59,9.16,-1.4));
#1021=CARTESIAN_POINT('',(16.29,9.16,-1.1));
#1022=CARTESIAN_POINT('',(16.29,9.16,-1.4));
#1023=CARTESIAN_POINT('Origin',(16.59,9.16,-1.1));
#1024=CARTESIAN_POINT('Origin',(16.59,9.16,-1.1));
#1025=CARTESIAN_POINT('',(16.745,9.16,-1.1));
#1026=CARTESIAN_POINT('Origin',(16.59,9.16,-1.1));
#1027=CARTESIAN_POINT('Origin',(16.59,4.84,-1.4));
#1028=CARTESIAN_POINT('',(16.29,4.84,-1.4));
#1029=CARTESIAN_POINT('Origin',(16.59,4.84,-1.4));
#1030=CARTESIAN_POINT('',(16.29,4.84,-1.1));
#1031=CARTESIAN_POINT('',(16.29,4.84,-1.4));
#1032=CARTESIAN_POINT('Origin',(16.59,4.84,-1.1));
#1033=CARTESIAN_POINT('Origin',(16.59,4.84,-1.1));
#1034=CARTESIAN_POINT('',(16.745,4.84,-1.1));
#1035=CARTESIAN_POINT('Origin',(16.59,4.84,-1.1));
#1036=CARTESIAN_POINT('Origin',(17.75,9.79,-0.5));
#1037=CARTESIAN_POINT('',(17.75,10.25,-0.5));
#1038=CARTESIAN_POINT('',(17.75,10.25,0.25));
#1039=CARTESIAN_POINT('',(17.75,9.79,-0.5));
#1040=CARTESIAN_POINT('',(17.75,9.79,0.5));
#1041=CARTESIAN_POINT('',(17.75,9.79,-0.5));
#1042=CARTESIAN_POINT('Origin',(15.5,10.25,1.));
#1043=CARTESIAN_POINT('',(18.75,10.25,-0.5));
#1044=CARTESIAN_POINT('',(17.625,10.25,-0.5));
#1045=CARTESIAN_POINT('',(18.75,10.25,-1.4));
#1046=CARTESIAN_POINT('',(18.75,10.25,1.));
#1047=CARTESIAN_POINT('',(15.5,10.25,-1.4));
#1048=CARTESIAN_POINT('',(15.5,10.25,-1.4));
#1049=CARTESIAN_POINT('',(15.5,10.25,1.));
#1050=CARTESIAN_POINT('Origin',(18.75,0.,0.));
#1051=CARTESIAN_POINT('',(18.75,4.21,-0.5));
#1052=CARTESIAN_POINT('',(18.75,4.895,-0.5));
#1053=CARTESIAN_POINT('',(18.75,4.21,1.));
#1054=CARTESIAN_POINT('',(18.75,4.21,0.5));
#1055=CARTESIAN_POINT('',(18.75,0.,1.));
#1056=CARTESIAN_POINT('',(18.75,0.,1.));
#1057=CARTESIAN_POINT('',(18.75,0.,0.));
#1058=CARTESIAN_POINT('',(18.75,4.,-1.4));
#1059=CARTESIAN_POINT('',(18.75,4.,1.));
#1060=CARTESIAN_POINT('',(18.75,10.,-1.4));
#1061=CARTESIAN_POINT('Origin',(15.96,9.79,1.));
#1062=CARTESIAN_POINT('',(15.96,9.79,1.));
#1063=CARTESIAN_POINT('',(12.6675,9.79,1.));
#1064=CARTESIAN_POINT('',(15.96,9.79,-0.5));
#1065=CARTESIAN_POINT('',(15.96,9.79,1.));
#1066=CARTESIAN_POINT('',(15.96,9.79,-0.5));
#1067=CARTESIAN_POINT('Origin',(17.355,7.,-0.5));
#1068=CARTESIAN_POINT('',(15.96,4.21,-0.5));
#1069=CARTESIAN_POINT('',(15.96,9.16,-0.5));
#1070=CARTESIAN_POINT('',(15.96,4.21,-0.5));
#1071=CARTESIAN_POINT('',(16.745,4.84,-0.5));
#1072=CARTESIAN_POINT('Origin',(16.59,4.84,-0.5));
#1073=CARTESIAN_POINT('',(16.745,9.16,-0.5));
#1074=CARTESIAN_POINT('Origin',(16.59,9.16,-0.5));
#1075=CARTESIAN_POINT('Origin',(16.59,4.84,1.));
#1076=CARTESIAN_POINT('',(16.745,4.84,1.));
#1077=CARTESIAN_POINT('Origin',(16.59,9.16,1.));
#1078=CARTESIAN_POINT('',(16.745,9.16,1.));
#1079=CARTESIAN_POINT('Origin',(18.75,4.21,1.));
#1080=CARTESIAN_POINT('',(15.96,4.21,1.));
#1081=CARTESIAN_POINT('',(14.0625,4.21,1.));
#1082=CARTESIAN_POINT('',(15.96,4.21,1.));
#1083=CARTESIAN_POINT('Origin',(15.96,4.21,1.));
#1084=CARTESIAN_POINT('',(15.96,5.355,1.));
#1085=CARTESIAN_POINT('Origin',(15.5,4.,1.));
#1086=CARTESIAN_POINT('',(15.500000230968,4.,-1.4));
#1087=CARTESIAN_POINT('',(15.5,3.75,-1.4));
#1088=CARTESIAN_POINT('',(15.500000230968,4.,1.));
#1089=CARTESIAN_POINT('Origin',(18.75,4.,1.));
#1090=CARTESIAN_POINT('',(18.75,4.,-1.4));
#1091=CARTESIAN_POINT('Origin',(17.125,7.125,-1.4));
#1092=CARTESIAN_POINT('Origin',(17.25,11.5,0.));
#1093=CARTESIAN_POINT('',(17.,11.5,0.));
#1094=CARTESIAN_POINT('Origin',(17.25,2.5,0.));
#1095=CARTESIAN_POINT('',(17.,2.5,0.));
#1096=CARTESIAN_POINT('Origin',(2.5,11.5,0.));
#1097=CARTESIAN_POINT('',(2.25,11.5,0.));
#1098=CARTESIAN_POINT('Origin',(2.5,2.5,0.));
#1099=CARTESIAN_POINT('',(2.25,2.5,0.));
#1100=CARTESIAN_POINT('Origin',(18.75,13.,0.));
#1101=CARTESIAN_POINT('',(0.,13.,1.));
#1102=CARTESIAN_POINT('',(0.,13.,0.));
#1103=CARTESIAN_POINT('',(18.75,13.,1.));
#1104=CARTESIAN_POINT('Origin',(1.,0.,0.));
#1105=CARTESIAN_POINT('',(1.,0.,1.));
#1106=CARTESIAN_POINT('',(3.,0.,1.));
#1107=CARTESIAN_POINT('',(1.,0.,0.));
#1108=CARTESIAN_POINT('Origin',(1.,1.,0.));
#1109=CARTESIAN_POINT('',(0.,1.,1.));
#1110=CARTESIAN_POINT('Origin',(1.,1.,1.));
#1111=CARTESIAN_POINT('',(0.,1.,0.));
#1112=CARTESIAN_POINT('Origin',(0.,13.,0.));
#1113=CARTESIAN_POINT('',(0.,0.,1.));
#1114=CARTESIAN_POINT('Origin',(9.375,6.5,1.));
#1115=UNCERTAINTY_MEASURE_WITH_UNIT(LENGTH_MEASURE(0.001),#1119,
'DISTANCE_ACCURACY_VALUE',
'Maximum model space distance between geometric entities at asserted c
onnectivities');
#1116=UNCERTAINTY_MEASURE_WITH_UNIT(LENGTH_MEASURE(0.001),#1119,
'DISTANCE_ACCURACY_VALUE',
'Maximum model space distance between geometric entities at asserted c
onnectivities');
#1117=(
GEOMETRIC_REPRESENTATION_CONTEXT(3)
GLOBAL_UNCERTAINTY_ASSIGNED_CONTEXT((#1115))
GLOBAL_UNIT_ASSIGNED_CONTEXT((#1119,#1121,#1122))
REPRESENTATION_CONTEXT('','3D')
);
#1118=(
GEOMETRIC_REPRESENTATION_CONTEXT(3)
GLOBAL_UNCERTAINTY_ASSIGNED_CONTEXT((#1116))
GLOBAL_UNIT_ASSIGNED_CONTEXT((#1119,#1121,#1122))
REPRESENTATION_CONTEXT('','3D')
);
#1119=(
LENGTH_UNIT()
NAMED_UNIT(*)
SI_UNIT(.CENTI.,.METRE.)
);
#1120=(
LENGTH_UNIT()
NAMED_UNIT(*)
SI_UNIT($,.METRE.)
);
#1121=(
NAMED_UNIT(*)
PLANE_ANGLE_UNIT()
SI_UNIT($,.RADIAN.)
);
#1122=(
NAMED_UNIT(*)
SI_UNIT($,.STERADIAN.)
SOLID_ANGLE_UNIT()
);
#1123=SHAPE_DEFINITION_REPRESENTATION(#1124,#1125);
#1124=PRODUCT_DEFINITION_SHAPE('',$,#1127);
#1125=SHAPE_REPRESENTATION('',(#679),#1117);
#1126=PRODUCT_DEFINITION_CONTEXT('part definition',#1131,'design');
#1127=PRODUCT_DEFINITION('2026-07-07-08-54-59-983','plate tl',#1128,#1126);
#1128=PRODUCT_DEFINITION_FORMATION('',$,#1133);
#1129=PRODUCT_RELATED_PRODUCT_CATEGORY('plate tl','plate tl',(#1133));
#1130=APPLICATION_PROTOCOL_DEFINITION('international standard',
'automotive_design',2009,#1131);
#1131=APPLICATION_CONTEXT(
'Core Data for Automotive Mechanical Design Process');
#1132=PRODUCT_CONTEXT('part definition',#1131,'mechanical');
#1133=PRODUCT('2026-07-07-08-54-59-983','plate tl',$,(#1132));
#1134=PRESENTATION_STYLE_ASSIGNMENT((#1135));
#1135=SURFACE_STYLE_USAGE(.BOTH.,#1136);
#1136=SURFACE_SIDE_STYLE('',(#1137));
#1137=SURFACE_STYLE_FILL_AREA(#1138);
#1138=FILL_AREA_STYLE('ABS(\X2\D770C0C9\X0\)',(#1139));
#1139=FILL_AREA_STYLE_COLOUR('ABS(\X2\D770C0C9\X0\)',#1140);
#1140=COLOUR_RGB('ABS(\X2\D770C0C9\X0\)',0.964705882352941,0.964705882352941,
0.952941176470588);
ENDSEC;
END-ISO-10303-21;
