ISO-10303-21;
HEADER;
/* Generated by software containing ST-Developer
 * from STEP Tools, Inc. (www.steptools.com) 
 */

FILE_DESCRIPTION(
/* description */ (''),
/* implementation_level */ '2;1');

FILE_NAME(
/* name */ 'lidar holder - B.step',
/* time_stamp */ '2026-08-31T17:58:39+09:00',
/* author */ (''),
/* organization */ (''),
/* preprocessor_version */ 'ST-DEVELOPER v20.1',
/* originating_system */ 'Autodesk Translation Framework v15.8.0.0',
/* authorisation */ '');

FILE_SCHEMA (('AUTOMOTIVE_DESIGN { 1 0 10303 214 3 1 1 }'));
ENDSEC;

DATA;
#10=MECHANICAL_DESIGN_GEOMETRIC_PRESENTATION_REPRESENTATION('',(#13),#1118);
#11=SHAPE_REPRESENTATION_RELATIONSHIP('SRR','None',#1125,#12);
#12=ADVANCED_BREP_SHAPE_REPRESENTATION('',(#14),#1117);
#13=STYLED_ITEM('',(#1134),#14);
#14=MANIFOLD_SOLID_BREP('\X2\BCF8CCB4\X0\12',#666);
#15=CYLINDRICAL_SURFACE('',#694,0.3);
#16=CYLINDRICAL_SURFACE('',#698,0.3);
#17=CYLINDRICAL_SURFACE('',#710,0.155);
#18=CYLINDRICAL_SURFACE('',#712,0.154999999999999);
#19=CYLINDRICAL_SURFACE('',#719,0.4);
#20=CYLINDRICAL_SURFACE('',#723,0.4);
#21=CYLINDRICAL_SURFACE('',#727,0.4);
#22=CYLINDRICAL_SURFACE('',#731,0.4);
#23=CYLINDRICAL_SURFACE('',#735,0.25);
#24=CYLINDRICAL_SURFACE('',#736,0.25);
#25=CYLINDRICAL_SURFACE('',#737,0.25);
#26=CYLINDRICAL_SURFACE('',#738,0.25);
#27=CYLINDRICAL_SURFACE('',#742,1.);
#28=FACE_BOUND('',#115,.T.);
#29=FACE_BOUND('',#116,.T.);
#30=FACE_BOUND('',#117,.T.);
#31=FACE_BOUND('',#118,.T.);
#32=FACE_BOUND('',#120,.T.);
#33=FACE_BOUND('',#121,.T.);
#34=FACE_BOUND('',#124,.T.);
#35=FACE_BOUND('',#127,.T.);
#36=FACE_BOUND('',#130,.T.);
#37=FACE_BOUND('',#131,.T.);
#38=FACE_BOUND('',#132,.T.);
#39=FACE_BOUND('',#133,.T.);
#40=FACE_BOUND('',#140,.T.);
#41=FACE_BOUND('',#141,.T.);
#42=FACE_BOUND('',#146,.T.);
#43=FACE_BOUND('',#149,.T.);
#44=FACE_BOUND('',#152,.T.);
#45=FACE_BOUND('',#155,.T.);
#46=CIRCLE('',#686,1.);
#47=CIRCLE('',#687,0.4);
#48=CIRCLE('',#688,0.4);
#49=CIRCLE('',#689,0.4);
#50=CIRCLE('',#690,0.4);
#51=CIRCLE('',#692,0.3);
#52=CIRCLE('',#693,0.3);
#53=CIRCLE('',#695,0.3);
#54=CIRCLE('',#697,0.155);
#55=CIRCLE('',#699,0.3);
#56=CIRCLE('',#701,0.154999999999999);
#57=CIRCLE('',#704,1.);
#58=CIRCLE('',#705,0.25);
#59=CIRCLE('',#706,0.25);
#60=CIRCLE('',#707,0.25);
#61=CIRCLE('',#708,0.25);
#62=CIRCLE('',#711,0.155);
#63=CIRCLE('',#713,0.154999999999999);
#64=CIRCLE('',#720,0.4);
#65=CIRCLE('',#722,0.25);
#66=CIRCLE('',#724,0.4);
#67=CIRCLE('',#726,0.25);
#68=CIRCLE('',#728,0.4);
#69=CIRCLE('',#730,0.25);
#70=CIRCLE('',#732,0.4);
#71=CIRCLE('',#734,0.25);
#72=FACE_OUTER_BOUND('',#109,.T.);
#73=FACE_OUTER_BOUND('',#110,.T.);
#74=FACE_OUTER_BOUND('',#111,.T.);
#75=FACE_OUTER_BOUND('',#112,.T.);
#76=FACE_OUTER_BOUND('',#113,.T.);
#77=FACE_OUTER_BOUND('',#114,.T.);
#78=FACE_OUTER_BOUND('',#119,.T.);
#79=FACE_OUTER_BOUND('',#122,.T.);
#80=FACE_OUTER_BOUND('',#123,.T.);
#81=FACE_OUTER_BOUND('',#125,.T.);
#82=FACE_OUTER_BOUND('',#126,.T.);
#83=FACE_OUTER_BOUND('',#128,.T.);
#84=FACE_OUTER_BOUND('',#129,.T.);
#85=FACE_OUTER_BOUND('',#134,.T.);
#86=FACE_OUTER_BOUND('',#135,.T.);
#87=FACE_OUTER_BOUND('',#136,.T.);
#88=FACE_OUTER_BOUND('',#137,.T.);
#89=FACE_OUTER_BOUND('',#138,.T.);
#90=FACE_OUTER_BOUND('',#139,.T.);
#91=FACE_OUTER_BOUND('',#142,.T.);
#92=FACE_OUTER_BOUND('',#143,.T.);
#93=FACE_OUTER_BOUND('',#144,.T.);
#94=FACE_OUTER_BOUND('',#145,.T.);
#95=FACE_OUTER_BOUND('',#147,.T.);
#96=FACE_OUTER_BOUND('',#148,.T.);
#97=FACE_OUTER_BOUND('',#150,.T.);
#98=FACE_OUTER_BOUND('',#151,.T.);
#99=FACE_OUTER_BOUND('',#153,.T.);
#100=FACE_OUTER_BOUND('',#154,.T.);
#101=FACE_OUTER_BOUND('',#156,.T.);
#102=FACE_OUTER_BOUND('',#157,.T.);
#103=FACE_OUTER_BOUND('',#158,.T.);
#104=FACE_OUTER_BOUND('',#159,.T.);
#105=FACE_OUTER_BOUND('',#160,.T.);
#106=FACE_OUTER_BOUND('',#161,.T.);
#107=FACE_OUTER_BOUND('',#162,.T.);
#108=FACE_OUTER_BOUND('',#163,.T.);
#109=EDGE_LOOP('',(#431,#432,#433,#434));
#110=EDGE_LOOP('',(#435,#436,#437,#438));
#111=EDGE_LOOP('',(#439,#440,#441,#442,#443,#444));
#112=EDGE_LOOP('',(#445,#446,#447,#448,#449,#450));
#113=EDGE_LOOP('',(#451,#452,#453,#454));
#114=EDGE_LOOP('',(#455,#456,#457,#458,#459,#460,#461,#462,#463));
#115=EDGE_LOOP('',(#464));
#116=EDGE_LOOP('',(#465));
#117=EDGE_LOOP('',(#466));
#118=EDGE_LOOP('',(#467));
#119=EDGE_LOOP('',(#468,#469,#470,#471));
#120=EDGE_LOOP('',(#472));
#121=EDGE_LOOP('',(#473));
#122=EDGE_LOOP('',(#474,#475,#476,#477));
#123=EDGE_LOOP('',(#478));
#124=EDGE_LOOP('',(#479));
#125=EDGE_LOOP('',(#480,#481,#482,#483));
#126=EDGE_LOOP('',(#484));
#127=EDGE_LOOP('',(#485));
#128=EDGE_LOOP('',(#486,#487,#488,#489,#490,#491));
#129=EDGE_LOOP('',(#492,#493,#494,#495,#496,#497,#498,#499,#500,#501,#502));
#130=EDGE_LOOP('',(#503));
#131=EDGE_LOOP('',(#504));
#132=EDGE_LOOP('',(#505));
#133=EDGE_LOOP('',(#506));
#134=EDGE_LOOP('',(#507,#508,#509,#510,#511,#512,#513,#514));
#135=EDGE_LOOP('',(#515,#516,#517,#518));
#136=EDGE_LOOP('',(#519,#520,#521,#522));
#137=EDGE_LOOP('',(#523,#524,#525,#526));
#138=EDGE_LOOP('',(#527,#528,#529,#530));
#139=EDGE_LOOP('',(#531,#532,#533,#534,#535,#536));
#140=EDGE_LOOP('',(#537));
#141=EDGE_LOOP('',(#538));
#142=EDGE_LOOP('',(#539,#540,#541,#542,#543,#544));
#143=EDGE_LOOP('',(#545,#546,#547,#548));
#144=EDGE_LOOP('',(#549,#550,#551,#552));
#145=EDGE_LOOP('',(#553));
#146=EDGE_LOOP('',(#554));
#147=EDGE_LOOP('',(#555,#556,#557,#558));
#148=EDGE_LOOP('',(#559));
#149=EDGE_LOOP('',(#560));
#150=EDGE_LOOP('',(#561,#562,#563,#564));
#151=EDGE_LOOP('',(#565));
#152=EDGE_LOOP('',(#566));
#153=EDGE_LOOP('',(#567,#568,#569,#570));
#154=EDGE_LOOP('',(#571));
#155=EDGE_LOOP('',(#572));
#156=EDGE_LOOP('',(#573,#574,#575,#576));
#157=EDGE_LOOP('',(#577,#578,#579,#580));
#158=EDGE_LOOP('',(#581,#582,#583,#584));
#159=EDGE_LOOP('',(#585,#586,#587,#588));
#160=EDGE_LOOP('',(#589,#590,#591,#592));
#161=EDGE_LOOP('',(#593,#594,#595,#596));
#162=EDGE_LOOP('',(#597,#598,#599,#600));
#163=EDGE_LOOP('',(#601,#602,#603,#604));
#164=LINE('',#936,#225);
#165=LINE('',#938,#226);
#166=LINE('',#940,#227);
#167=LINE('',#941,#228);
#168=LINE('',#944,#229);
#169=LINE('',#946,#230);
#170=LINE('',#947,#231);
#171=LINE('',#950,#232);
#172=LINE('',#952,#233);
#173=LINE('',#954,#234);
#174=LINE('',#955,#235);
#175=LINE('',#958,#236);
#176=LINE('',#960,#237);
#177=LINE('',#962,#238);
#178=LINE('',#963,#239);
#179=LINE('',#967,#240);
#180=LINE('',#969,#241);
#181=LINE('',#971,#242);
#182=LINE('',#972,#243);
#183=LINE('',#976,#244);
#184=LINE('',#978,#245);
#185=LINE('',#982,#246);
#186=LINE('',#983,#247);
#187=LINE('',#985,#248);
#188=LINE('',#986,#249);
#189=LINE('',#997,#250);
#190=LINE('',#999,#251);
#191=LINE('',#1000,#252);
#192=LINE('',#1007,#253);
#193=LINE('',#1014,#254);
#194=LINE('',#1022,#255);
#195=LINE('',#1023,#256);
#196=LINE('',#1024,#257);
#197=LINE('',#1027,#258);
#198=LINE('',#1029,#259);
#199=LINE('',#1033,#260);
#200=LINE('',#1034,#261);
#201=LINE('',#1036,#262);
#202=LINE('',#1037,#263);
#203=LINE('',#1047,#264);
#204=LINE('',#1049,#265);
#205=LINE('',#1051,#266);
#206=LINE('',#1052,#267);
#207=LINE('',#1056,#268);
#208=LINE('',#1060,#269);
#209=LINE('',#1063,#270);
#210=LINE('',#1064,#271);
#211=LINE('',#1066,#272);
#212=LINE('',#1068,#273);
#213=LINE('',#1070,#274);
#214=LINE('',#1074,#275);
#215=LINE('',#1081,#276);
#216=LINE('',#1088,#277);
#217=LINE('',#1095,#278);
#218=LINE('',#1101,#279);
#219=LINE('',#1103,#280);
#220=LINE('',#1105,#281);
#221=LINE('',#1107,#282);
#222=LINE('',#1109,#283);
#223=LINE('',#1111,#284);
#224=LINE('',#1113,#285);
#225=VECTOR('',#747,1.);
#226=VECTOR('',#748,1.);
#227=VECTOR('',#749,1.);
#228=VECTOR('',#750,1.);
#229=VECTOR('',#753,1.);
#230=VECTOR('',#754,1.);
#231=VECTOR('',#755,1.);
#232=VECTOR('',#758,1.);
#233=VECTOR('',#759,1.);
#234=VECTOR('',#760,1.);
#235=VECTOR('',#761,1.);
#236=VECTOR('',#764,1.);
#237=VECTOR('',#765,1.);
#238=VECTOR('',#766,1.);
#239=VECTOR('',#767,1.);
#240=VECTOR('',#770,1.);
#241=VECTOR('',#771,1.);
#242=VECTOR('',#772,1.);
#243=VECTOR('',#773,1.);
#244=VECTOR('',#776,1.);
#245=VECTOR('',#777,1.);
#246=VECTOR('',#780,1.);
#247=VECTOR('',#781,1.);
#248=VECTOR('',#782,1.);
#249=VECTOR('',#783,1.);
#250=VECTOR('',#794,1.);
#251=VECTOR('',#795,1.);
#252=VECTOR('',#796,1.);
#253=VECTOR('',#803,0.3);
#254=VECTOR('',#812,0.3);
#255=VECTOR('',#821,1.);
#256=VECTOR('',#822,1.);
#257=VECTOR('',#823,1.);
#258=VECTOR('',#826,1.);
#259=VECTOR('',#827,1.);
#260=VECTOR('',#830,1.);
#261=VECTOR('',#831,1.);
#262=VECTOR('',#832,1.);
#263=VECTOR('',#833,1.);
#264=VECTOR('',#844,1.);
#265=VECTOR('',#845,1.);
#266=VECTOR('',#846,1.);
#267=VECTOR('',#847,1.);
#268=VECTOR('',#852,0.155);
#269=VECTOR('',#857,0.154999999999999);
#270=VECTOR('',#860,1.);
#271=VECTOR('',#861,1.);
#272=VECTOR('',#864,1.);
#273=VECTOR('',#867,1.);
#274=VECTOR('',#870,1.);
#275=VECTOR('',#875,0.4);
#276=VECTOR('',#884,0.4);
#277=VECTOR('',#893,0.4);
#278=VECTOR('',#902,0.4);
#279=VECTOR('',#911,0.25);
#280=VECTOR('',#914,0.25);
#281=VECTOR('',#917,0.25);
#282=VECTOR('',#920,0.25);
#283=VECTOR('',#923,1.);
#284=VECTOR('',#926,1.);
#285=VECTOR('',#929,1.);
#286=VERTEX_POINT('',#934);
#287=VERTEX_POINT('',#935);
#288=VERTEX_POINT('',#937);
#289=VERTEX_POINT('',#939);
#290=VERTEX_POINT('',#943);
#291=VERTEX_POINT('',#945);
#292=VERTEX_POINT('',#949);
#293=VERTEX_POINT('',#951);
#294=VERTEX_POINT('',#953);
#295=VERTEX_POINT('',#957);
#296=VERTEX_POINT('',#959);
#297=VERTEX_POINT('',#961);
#298=VERTEX_POINT('',#965);
#299=VERTEX_POINT('',#966);
#300=VERTEX_POINT('',#968);
#301=VERTEX_POINT('',#970);
#302=VERTEX_POINT('',#974);
#303=VERTEX_POINT('',#975);
#304=VERTEX_POINT('',#977);
#305=VERTEX_POINT('',#979);
#306=VERTEX_POINT('',#981);
#307=VERTEX_POINT('',#984);
#308=VERTEX_POINT('',#987);
#309=VERTEX_POINT('',#989);
#310=VERTEX_POINT('',#991);
#311=VERTEX_POINT('',#993);
#312=VERTEX_POINT('',#996);
#313=VERTEX_POINT('',#998);
#314=VERTEX_POINT('',#1001);
#315=VERTEX_POINT('',#1003);
#316=VERTEX_POINT('',#1006);
#317=VERTEX_POINT('',#1010);
#318=VERTEX_POINT('',#1013);
#319=VERTEX_POINT('',#1017);
#320=VERTEX_POINT('',#1020);
#321=VERTEX_POINT('',#1021);
#322=VERTEX_POINT('',#1026);
#323=VERTEX_POINT('',#1028);
#324=VERTEX_POINT('',#1030);
#325=VERTEX_POINT('',#1032);
#326=VERTEX_POINT('',#1035);
#327=VERTEX_POINT('',#1038);
#328=VERTEX_POINT('',#1040);
#329=VERTEX_POINT('',#1042);
#330=VERTEX_POINT('',#1044);
#331=VERTEX_POINT('',#1048);
#332=VERTEX_POINT('',#1050);
#333=VERTEX_POINT('',#1054);
#334=VERTEX_POINT('',#1058);
#335=VERTEX_POINT('',#1062);
#336=VERTEX_POINT('',#1073);
#337=VERTEX_POINT('',#1077);
#338=VERTEX_POINT('',#1080);
#339=VERTEX_POINT('',#1084);
#340=VERTEX_POINT('',#1087);
#341=VERTEX_POINT('',#1091);
#342=VERTEX_POINT('',#1094);
#343=VERTEX_POINT('',#1098);
#344=EDGE_CURVE('',#286,#287,#164,.T.);
#345=EDGE_CURVE('',#286,#288,#165,.T.);
#346=EDGE_CURVE('',#288,#289,#166,.T.);
#347=EDGE_CURVE('',#287,#289,#167,.T.);
#348=EDGE_CURVE('',#290,#288,#168,.T.);
#349=EDGE_CURVE('',#291,#290,#169,.T.);
#350=EDGE_CURVE('',#289,#291,#170,.T.);
#351=EDGE_CURVE('',#291,#292,#171,.T.);
#352=EDGE_CURVE('',#293,#292,#172,.T.);
#353=EDGE_CURVE('',#294,#293,#173,.T.);
#354=EDGE_CURVE('',#287,#294,#174,.T.);
#355=EDGE_CURVE('',#290,#295,#175,.T.);
#356=EDGE_CURVE('',#295,#296,#176,.T.);
#357=EDGE_CURVE('',#297,#296,#177,.T.);
#358=EDGE_CURVE('',#292,#297,#178,.T.);
#359=EDGE_CURVE('',#298,#299,#179,.T.);
#360=EDGE_CURVE('',#300,#299,#180,.T.);
#361=EDGE_CURVE('',#301,#300,#181,.T.);
#362=EDGE_CURVE('',#298,#301,#182,.T.);
#363=EDGE_CURVE('',#302,#303,#183,.T.);
#364=EDGE_CURVE('',#303,#304,#184,.T.);
#365=EDGE_CURVE('',#304,#305,#46,.T.);
#366=EDGE_CURVE('',#305,#306,#185,.T.);
#367=EDGE_CURVE('',#306,#293,#186,.T.);
#368=EDGE_CURVE('',#297,#307,#187,.T.);
#369=EDGE_CURVE('',#307,#302,#188,.T.);
#370=EDGE_CURVE('',#308,#308,#47,.T.);
#371=EDGE_CURVE('',#309,#309,#48,.T.);
#372=EDGE_CURVE('',#310,#310,#49,.T.);
#373=EDGE_CURVE('',#311,#311,#50,.T.);
#374=EDGE_CURVE('',#300,#312,#189,.T.);
#375=EDGE_CURVE('',#312,#313,#190,.T.);
#376=EDGE_CURVE('',#313,#301,#191,.T.);
#377=EDGE_CURVE('',#314,#314,#51,.T.);
#378=EDGE_CURVE('',#315,#315,#52,.T.);
#379=EDGE_CURVE('',#315,#316,#192,.T.);
#380=EDGE_CURVE('',#316,#316,#53,.T.);
#381=EDGE_CURVE('',#317,#317,#54,.T.);
#382=EDGE_CURVE('',#314,#318,#193,.T.);
#383=EDGE_CURVE('',#318,#318,#55,.T.);
#384=EDGE_CURVE('',#319,#319,#56,.T.);
#385=EDGE_CURVE('',#320,#321,#194,.T.);
#386=EDGE_CURVE('',#295,#320,#195,.T.);
#387=EDGE_CURVE('',#321,#286,#196,.T.);
#388=EDGE_CURVE('',#322,#294,#197,.T.);
#389=EDGE_CURVE('',#323,#322,#198,.T.);
#390=EDGE_CURVE('',#324,#323,#57,.T.);
#391=EDGE_CURVE('',#324,#325,#199,.T.);
#392=EDGE_CURVE('',#325,#299,#200,.T.);
#393=EDGE_CURVE('',#298,#326,#201,.T.);
#394=EDGE_CURVE('',#326,#321,#202,.T.);
#395=EDGE_CURVE('',#327,#327,#58,.T.);
#396=EDGE_CURVE('',#328,#328,#59,.T.);
#397=EDGE_CURVE('',#329,#329,#60,.T.);
#398=EDGE_CURVE('',#330,#330,#61,.T.);
#399=EDGE_CURVE('',#325,#303,#203,.T.);
#400=EDGE_CURVE('',#302,#331,#204,.T.);
#401=EDGE_CURVE('',#331,#332,#205,.T.);
#402=EDGE_CURVE('',#332,#312,#206,.T.);
#403=EDGE_CURVE('',#333,#333,#62,.T.);
#404=EDGE_CURVE('',#333,#317,#207,.T.);
#405=EDGE_CURVE('',#334,#334,#63,.T.);
#406=EDGE_CURVE('',#334,#319,#208,.T.);
#407=EDGE_CURVE('',#307,#335,#209,.T.);
#408=EDGE_CURVE('',#335,#331,#210,.T.);
#409=EDGE_CURVE('',#296,#335,#211,.T.);
#410=EDGE_CURVE('',#332,#320,#212,.T.);
#411=EDGE_CURVE('',#326,#313,#213,.T.);
#412=EDGE_CURVE('',#308,#336,#214,.T.);
#413=EDGE_CURVE('',#336,#336,#64,.T.);
#414=EDGE_CURVE('',#337,#337,#65,.T.);
#415=EDGE_CURVE('',#309,#338,#215,.T.);
#416=EDGE_CURVE('',#338,#338,#66,.T.);
#417=EDGE_CURVE('',#339,#339,#67,.T.);
#418=EDGE_CURVE('',#310,#340,#216,.T.);
#419=EDGE_CURVE('',#340,#340,#68,.T.);
#420=EDGE_CURVE('',#341,#341,#69,.T.);
#421=EDGE_CURVE('',#311,#342,#217,.T.);
#422=EDGE_CURVE('',#342,#342,#70,.T.);
#423=EDGE_CURVE('',#343,#343,#71,.T.);
#424=EDGE_CURVE('',#339,#330,#218,.T.);
#425=EDGE_CURVE('',#337,#329,#219,.T.);
#426=EDGE_CURVE('',#343,#328,#220,.T.);
#427=EDGE_CURVE('',#341,#327,#221,.T.);
#428=EDGE_CURVE('',#324,#304,#222,.T.);
#429=EDGE_CURVE('',#322,#306,#223,.T.);
#430=EDGE_CURVE('',#323,#305,#224,.T.);
#431=ORIENTED_EDGE('',*,*,#344,.F.);
#432=ORIENTED_EDGE('',*,*,#345,.T.);
#433=ORIENTED_EDGE('',*,*,#346,.T.);
#434=ORIENTED_EDGE('',*,*,#347,.F.);
#435=ORIENTED_EDGE('',*,*,#348,.F.);
#436=ORIENTED_EDGE('',*,*,#349,.F.);
#437=ORIENTED_EDGE('',*,*,#350,.F.);
#438=ORIENTED_EDGE('',*,*,#346,.F.);
#439=ORIENTED_EDGE('',*,*,#347,.T.);
#440=ORIENTED_EDGE('',*,*,#350,.T.);
#441=ORIENTED_EDGE('',*,*,#351,.T.);
#442=ORIENTED_EDGE('',*,*,#352,.F.);
#443=ORIENTED_EDGE('',*,*,#353,.F.);
#444=ORIENTED_EDGE('',*,*,#354,.F.);
#445=ORIENTED_EDGE('',*,*,#349,.T.);
#446=ORIENTED_EDGE('',*,*,#355,.T.);
#447=ORIENTED_EDGE('',*,*,#356,.T.);
#448=ORIENTED_EDGE('',*,*,#357,.F.);
#449=ORIENTED_EDGE('',*,*,#358,.F.);
#450=ORIENTED_EDGE('',*,*,#351,.F.);
#451=ORIENTED_EDGE('',*,*,#359,.T.);
#452=ORIENTED_EDGE('',*,*,#360,.F.);
#453=ORIENTED_EDGE('',*,*,#361,.F.);
#454=ORIENTED_EDGE('',*,*,#362,.F.);
#455=ORIENTED_EDGE('',*,*,#363,.T.);
#456=ORIENTED_EDGE('',*,*,#364,.T.);
#457=ORIENTED_EDGE('',*,*,#365,.T.);
#458=ORIENTED_EDGE('',*,*,#366,.T.);
#459=ORIENTED_EDGE('',*,*,#367,.T.);
#460=ORIENTED_EDGE('',*,*,#352,.T.);
#461=ORIENTED_EDGE('',*,*,#358,.T.);
#462=ORIENTED_EDGE('',*,*,#368,.T.);
#463=ORIENTED_EDGE('',*,*,#369,.T.);
#464=ORIENTED_EDGE('',*,*,#370,.T.);
#465=ORIENTED_EDGE('',*,*,#371,.T.);
#466=ORIENTED_EDGE('',*,*,#372,.T.);
#467=ORIENTED_EDGE('',*,*,#373,.T.);
#468=ORIENTED_EDGE('',*,*,#361,.T.);
#469=ORIENTED_EDGE('',*,*,#374,.T.);
#470=ORIENTED_EDGE('',*,*,#375,.T.);
#471=ORIENTED_EDGE('',*,*,#376,.T.);
#472=ORIENTED_EDGE('',*,*,#377,.T.);
#473=ORIENTED_EDGE('',*,*,#378,.T.);
#474=ORIENTED_EDGE('',*,*,#378,.F.);
#475=ORIENTED_EDGE('',*,*,#379,.T.);
#476=ORIENTED_EDGE('',*,*,#380,.T.);
#477=ORIENTED_EDGE('',*,*,#379,.F.);
#478=ORIENTED_EDGE('',*,*,#380,.F.);
#479=ORIENTED_EDGE('',*,*,#381,.F.);
#480=ORIENTED_EDGE('',*,*,#377,.F.);
#481=ORIENTED_EDGE('',*,*,#382,.T.);
#482=ORIENTED_EDGE('',*,*,#383,.T.);
#483=ORIENTED_EDGE('',*,*,#382,.F.);
#484=ORIENTED_EDGE('',*,*,#383,.F.);
#485=ORIENTED_EDGE('',*,*,#384,.F.);
#486=ORIENTED_EDGE('',*,*,#385,.F.);
#487=ORIENTED_EDGE('',*,*,#386,.F.);
#488=ORIENTED_EDGE('',*,*,#355,.F.);
#489=ORIENTED_EDGE('',*,*,#348,.T.);
#490=ORIENTED_EDGE('',*,*,#345,.F.);
#491=ORIENTED_EDGE('',*,*,#387,.F.);
#492=ORIENTED_EDGE('',*,*,#344,.T.);
#493=ORIENTED_EDGE('',*,*,#354,.T.);
#494=ORIENTED_EDGE('',*,*,#388,.F.);
#495=ORIENTED_EDGE('',*,*,#389,.F.);
#496=ORIENTED_EDGE('',*,*,#390,.F.);
#497=ORIENTED_EDGE('',*,*,#391,.T.);
#498=ORIENTED_EDGE('',*,*,#392,.T.);
#499=ORIENTED_EDGE('',*,*,#359,.F.);
#500=ORIENTED_EDGE('',*,*,#393,.T.);
#501=ORIENTED_EDGE('',*,*,#394,.T.);
#502=ORIENTED_EDGE('',*,*,#387,.T.);
#503=ORIENTED_EDGE('',*,*,#395,.F.);
#504=ORIENTED_EDGE('',*,*,#396,.F.);
#505=ORIENTED_EDGE('',*,*,#397,.F.);
#506=ORIENTED_EDGE('',*,*,#398,.F.);
#507=ORIENTED_EDGE('',*,*,#360,.T.);
#508=ORIENTED_EDGE('',*,*,#392,.F.);
#509=ORIENTED_EDGE('',*,*,#399,.T.);
#510=ORIENTED_EDGE('',*,*,#363,.F.);
#511=ORIENTED_EDGE('',*,*,#400,.T.);
#512=ORIENTED_EDGE('',*,*,#401,.T.);
#513=ORIENTED_EDGE('',*,*,#402,.T.);
#514=ORIENTED_EDGE('',*,*,#374,.F.);
#515=ORIENTED_EDGE('',*,*,#403,.F.);
#516=ORIENTED_EDGE('',*,*,#404,.T.);
#517=ORIENTED_EDGE('',*,*,#381,.T.);
#518=ORIENTED_EDGE('',*,*,#404,.F.);
#519=ORIENTED_EDGE('',*,*,#405,.F.);
#520=ORIENTED_EDGE('',*,*,#406,.T.);
#521=ORIENTED_EDGE('',*,*,#384,.T.);
#522=ORIENTED_EDGE('',*,*,#406,.F.);
#523=ORIENTED_EDGE('',*,*,#369,.F.);
#524=ORIENTED_EDGE('',*,*,#407,.T.);
#525=ORIENTED_EDGE('',*,*,#408,.T.);
#526=ORIENTED_EDGE('',*,*,#400,.F.);
#527=ORIENTED_EDGE('',*,*,#368,.F.);
#528=ORIENTED_EDGE('',*,*,#357,.T.);
#529=ORIENTED_EDGE('',*,*,#409,.T.);
#530=ORIENTED_EDGE('',*,*,#407,.F.);
#531=ORIENTED_EDGE('',*,*,#409,.F.);
#532=ORIENTED_EDGE('',*,*,#356,.F.);
#533=ORIENTED_EDGE('',*,*,#386,.T.);
#534=ORIENTED_EDGE('',*,*,#410,.F.);
#535=ORIENTED_EDGE('',*,*,#401,.F.);
#536=ORIENTED_EDGE('',*,*,#408,.F.);
#537=ORIENTED_EDGE('',*,*,#403,.T.);
#538=ORIENTED_EDGE('',*,*,#405,.T.);
#539=ORIENTED_EDGE('',*,*,#385,.T.);
#540=ORIENTED_EDGE('',*,*,#394,.F.);
#541=ORIENTED_EDGE('',*,*,#411,.T.);
#542=ORIENTED_EDGE('',*,*,#375,.F.);
#543=ORIENTED_EDGE('',*,*,#402,.F.);
#544=ORIENTED_EDGE('',*,*,#410,.T.);
#545=ORIENTED_EDGE('',*,*,#362,.T.);
#546=ORIENTED_EDGE('',*,*,#376,.F.);
#547=ORIENTED_EDGE('',*,*,#411,.F.);
#548=ORIENTED_EDGE('',*,*,#393,.F.);
#549=ORIENTED_EDGE('',*,*,#370,.F.);
#550=ORIENTED_EDGE('',*,*,#412,.T.);
#551=ORIENTED_EDGE('',*,*,#413,.T.);
#552=ORIENTED_EDGE('',*,*,#412,.F.);
#553=ORIENTED_EDGE('',*,*,#413,.F.);
#554=ORIENTED_EDGE('',*,*,#414,.F.);
#555=ORIENTED_EDGE('',*,*,#371,.F.);
#556=ORIENTED_EDGE('',*,*,#415,.T.);
#557=ORIENTED_EDGE('',*,*,#416,.T.);
#558=ORIENTED_EDGE('',*,*,#415,.F.);
#559=ORIENTED_EDGE('',*,*,#416,.F.);
#560=ORIENTED_EDGE('',*,*,#417,.F.);
#561=ORIENTED_EDGE('',*,*,#372,.F.);
#562=ORIENTED_EDGE('',*,*,#418,.T.);
#563=ORIENTED_EDGE('',*,*,#419,.T.);
#564=ORIENTED_EDGE('',*,*,#418,.F.);
#565=ORIENTED_EDGE('',*,*,#419,.F.);
#566=ORIENTED_EDGE('',*,*,#420,.F.);
#567=ORIENTED_EDGE('',*,*,#373,.F.);
#568=ORIENTED_EDGE('',*,*,#421,.T.);
#569=ORIENTED_EDGE('',*,*,#422,.T.);
#570=ORIENTED_EDGE('',*,*,#421,.F.);
#571=ORIENTED_EDGE('',*,*,#422,.F.);
#572=ORIENTED_EDGE('',*,*,#423,.F.);
#573=ORIENTED_EDGE('',*,*,#417,.T.);
#574=ORIENTED_EDGE('',*,*,#424,.T.);
#575=ORIENTED_EDGE('',*,*,#398,.T.);
#576=ORIENTED_EDGE('',*,*,#424,.F.);
#577=ORIENTED_EDGE('',*,*,#414,.T.);
#578=ORIENTED_EDGE('',*,*,#425,.T.);
#579=ORIENTED_EDGE('',*,*,#397,.T.);
#580=ORIENTED_EDGE('',*,*,#425,.F.);
#581=ORIENTED_EDGE('',*,*,#423,.T.);
#582=ORIENTED_EDGE('',*,*,#426,.T.);
#583=ORIENTED_EDGE('',*,*,#396,.T.);
#584=ORIENTED_EDGE('',*,*,#426,.F.);
#585=ORIENTED_EDGE('',*,*,#420,.T.);
#586=ORIENTED_EDGE('',*,*,#427,.T.);
#587=ORIENTED_EDGE('',*,*,#395,.T.);
#588=ORIENTED_EDGE('',*,*,#427,.F.);
#589=ORIENTED_EDGE('',*,*,#391,.F.);
#590=ORIENTED_EDGE('',*,*,#428,.T.);
#591=ORIENTED_EDGE('',*,*,#364,.F.);
#592=ORIENTED_EDGE('',*,*,#399,.F.);
#593=ORIENTED_EDGE('',*,*,#388,.T.);
#594=ORIENTED_EDGE('',*,*,#353,.T.);
#595=ORIENTED_EDGE('',*,*,#367,.F.);
#596=ORIENTED_EDGE('',*,*,#429,.F.);
#597=ORIENTED_EDGE('',*,*,#389,.T.);
#598=ORIENTED_EDGE('',*,*,#429,.T.);
#599=ORIENTED_EDGE('',*,*,#366,.F.);
#600=ORIENTED_EDGE('',*,*,#430,.F.);
#601=ORIENTED_EDGE('',*,*,#390,.T.);
#602=ORIENTED_EDGE('',*,*,#430,.T.);
#603=ORIENTED_EDGE('',*,*,#365,.F.);
#604=ORIENTED_EDGE('',*,*,#428,.F.);
#605=PLANE('',#680);
#606=PLANE('',#681);
#607=PLANE('',#682);
#608=PLANE('',#683);
#609=PLANE('',#684);
#610=PLANE('',#685);
#611=PLANE('',#691);
#612=PLANE('',#696);
#613=PLANE('',#700);
#614=PLANE('',#702);
#615=PLANE('',#703);
#616=PLANE('',#709);
#617=PLANE('',#714);
#618=PLANE('',#715);
#619=PLANE('',#716);
#620=PLANE('',#717);
#621=PLANE('',#718);
#622=PLANE('',#721);
#623=PLANE('',#725);
#624=PLANE('',#729);
#625=PLANE('',#733);
#626=PLANE('',#739);
#627=PLANE('',#740);
#628=PLANE('',#741);
#629=ADVANCED_FACE('',(#72),#605,.F.);
#630=ADVANCED_FACE('',(#73),#606,.F.);
#631=ADVANCED_FACE('',(#74),#607,.T.);
#632=ADVANCED_FACE('',(#75),#608,.F.);
#633=ADVANCED_FACE('',(#76),#609,.F.);
#634=ADVANCED_FACE('',(#77,#28,#29,#30,#31),#610,.T.);
#635=ADVANCED_FACE('',(#78,#32,#33),#611,.T.);
#636=ADVANCED_FACE('',(#79),#15,.F.);
#637=ADVANCED_FACE('',(#80,#34),#612,.T.);
#638=ADVANCED_FACE('',(#81),#16,.F.);
#639=ADVANCED_FACE('',(#82,#35),#613,.T.);
#640=ADVANCED_FACE('',(#83),#614,.F.);
#641=ADVANCED_FACE('',(#84,#36,#37,#38,#39),#615,.F.);
#642=ADVANCED_FACE('',(#85),#616,.T.);
#643=ADVANCED_FACE('',(#86),#17,.F.);
#644=ADVANCED_FACE('',(#87),#18,.F.);
#645=ADVANCED_FACE('',(#88),#617,.F.);
#646=ADVANCED_FACE('',(#89),#618,.F.);
#647=ADVANCED_FACE('',(#90,#40,#41),#619,.F.);
#648=ADVANCED_FACE('',(#91),#620,.T.);
#649=ADVANCED_FACE('',(#92),#621,.T.);
#650=ADVANCED_FACE('',(#93),#19,.F.);
#651=ADVANCED_FACE('',(#94,#42),#622,.T.);
#652=ADVANCED_FACE('',(#95),#20,.F.);
#653=ADVANCED_FACE('',(#96,#43),#623,.T.);
#654=ADVANCED_FACE('',(#97),#21,.F.);
#655=ADVANCED_FACE('',(#98,#44),#624,.T.);
#656=ADVANCED_FACE('',(#99),#22,.F.);
#657=ADVANCED_FACE('',(#100,#45),#625,.T.);
#658=ADVANCED_FACE('',(#101),#23,.F.);
#659=ADVANCED_FACE('',(#102),#24,.F.);
#660=ADVANCED_FACE('',(#103),#25,.F.);
#661=ADVANCED_FACE('',(#104),#26,.F.);
#662=ADVANCED_FACE('',(#105),#626,.T.);
#663=ADVANCED_FACE('',(#106),#627,.T.);
#664=ADVANCED_FACE('',(#107),#628,.T.);
#665=ADVANCED_FACE('',(#108),#27,.T.);
#666=CLOSED_SHELL('',(#629,#630,#631,#632,#633,#634,#635,#636,#637,#638,
#639,#640,#641,#642,#643,#644,#645,#646,#647,#648,#649,#650,#651,#652,#653,
#654,#655,#656,#657,#658,#659,#660,#661,#662,#663,#664,#665));
#667=DERIVED_UNIT_ELEMENT(#669,1.);
#668=DERIVED_UNIT_ELEMENT(#1120,-3.);
#669=(
MASS_UNIT()
NAMED_UNIT(*)
SI_UNIT(.KILO.,.GRAM.)
);
#670=DERIVED_UNIT((#667,#668));
#671=MEASURE_REPRESENTATION_ITEM('density measure',
POSITIVE_RATIO_MEASURE(1060.),#670);
#672=PROPERTY_DEFINITION_REPRESENTATION(#677,#674);
#673=PROPERTY_DEFINITION_REPRESENTATION(#678,#675);
#674=REPRESENTATION('material name',(#676),#1117);
#675=REPRESENTATION('density',(#671),#1117);
#676=DESCRIPTIVE_REPRESENTATION_ITEM('ABS \X2\D50CB77CC2A4D2F1\X0\',
'ABS \X2\D50CB77CC2A4D2F1\X0\');
#677=PROPERTY_DEFINITION('material property','material name',#1127);
#678=PROPERTY_DEFINITION('material property','density of part',#1127);
#679=AXIS2_PLACEMENT_3D('',#932,#743,#744);
#680=AXIS2_PLACEMENT_3D('',#933,#745,#746);
#681=AXIS2_PLACEMENT_3D('',#942,#751,#752);
#682=AXIS2_PLACEMENT_3D('',#948,#756,#757);
#683=AXIS2_PLACEMENT_3D('',#956,#762,#763);
#684=AXIS2_PLACEMENT_3D('',#964,#768,#769);
#685=AXIS2_PLACEMENT_3D('',#973,#774,#775);
#686=AXIS2_PLACEMENT_3D('',#980,#778,#779);
#687=AXIS2_PLACEMENT_3D('',#988,#784,#785);
#688=AXIS2_PLACEMENT_3D('',#990,#786,#787);
#689=AXIS2_PLACEMENT_3D('',#992,#788,#789);
#690=AXIS2_PLACEMENT_3D('',#994,#790,#791);
#691=AXIS2_PLACEMENT_3D('',#995,#792,#793);
#692=AXIS2_PLACEMENT_3D('',#1002,#797,#798);
#693=AXIS2_PLACEMENT_3D('',#1004,#799,#800);
#694=AXIS2_PLACEMENT_3D('',#1005,#801,#802);
#695=AXIS2_PLACEMENT_3D('',#1008,#804,#805);
#696=AXIS2_PLACEMENT_3D('',#1009,#806,#807);
#697=AXIS2_PLACEMENT_3D('',#1011,#808,#809);
#698=AXIS2_PLACEMENT_3D('',#1012,#810,#811);
#699=AXIS2_PLACEMENT_3D('',#1015,#813,#814);
#700=AXIS2_PLACEMENT_3D('',#1016,#815,#816);
#701=AXIS2_PLACEMENT_3D('',#1018,#817,#818);
#702=AXIS2_PLACEMENT_3D('',#1019,#819,#820);
#703=AXIS2_PLACEMENT_3D('',#1025,#824,#825);
#704=AXIS2_PLACEMENT_3D('',#1031,#828,#829);
#705=AXIS2_PLACEMENT_3D('',#1039,#834,#835);
#706=AXIS2_PLACEMENT_3D('',#1041,#836,#837);
#707=AXIS2_PLACEMENT_3D('',#1043,#838,#839);
#708=AXIS2_PLACEMENT_3D('',#1045,#840,#841);
#709=AXIS2_PLACEMENT_3D('',#1046,#842,#843);
#710=AXIS2_PLACEMENT_3D('',#1053,#848,#849);
#711=AXIS2_PLACEMENT_3D('',#1055,#850,#851);
#712=AXIS2_PLACEMENT_3D('',#1057,#853,#854);
#713=AXIS2_PLACEMENT_3D('',#1059,#855,#856);
#714=AXIS2_PLACEMENT_3D('',#1061,#858,#859);
#715=AXIS2_PLACEMENT_3D('',#1065,#862,#863);
#716=AXIS2_PLACEMENT_3D('',#1067,#865,#866);
#717=AXIS2_PLACEMENT_3D('',#1069,#868,#869);
#718=AXIS2_PLACEMENT_3D('',#1071,#871,#872);
#719=AXIS2_PLACEMENT_3D('',#1072,#873,#874);
#720=AXIS2_PLACEMENT_3D('',#1075,#876,#877);
#721=AXIS2_PLACEMENT_3D('',#1076,#878,#879);
#722=AXIS2_PLACEMENT_3D('',#1078,#880,#881);
#723=AXIS2_PLACEMENT_3D('',#1079,#882,#883);
#724=AXIS2_PLACEMENT_3D('',#1082,#885,#886);
#725=AXIS2_PLACEMENT_3D('',#1083,#887,#888);
#726=AXIS2_PLACEMENT_3D('',#1085,#889,#890);
#727=AXIS2_PLACEMENT_3D('',#1086,#891,#892);
#728=AXIS2_PLACEMENT_3D('',#1089,#894,#895);
#729=AXIS2_PLACEMENT_3D('',#1090,#896,#897);
#730=AXIS2_PLACEMENT_3D('',#1092,#898,#899);
#731=AXIS2_PLACEMENT_3D('',#1093,#900,#901);
#732=AXIS2_PLACEMENT_3D('',#1096,#903,#904);
#733=AXIS2_PLACEMENT_3D('',#1097,#905,#906);
#734=AXIS2_PLACEMENT_3D('',#1099,#907,#908);
#735=AXIS2_PLACEMENT_3D('',#1100,#909,#910);
#736=AXIS2_PLACEMENT_3D('',#1102,#912,#913);
#737=AXIS2_PLACEMENT_3D('',#1104,#915,#916);
#738=AXIS2_PLACEMENT_3D('',#1106,#918,#919);
#739=AXIS2_PLACEMENT_3D('',#1108,#921,#922);
#740=AXIS2_PLACEMENT_3D('',#1110,#924,#925);
#741=AXIS2_PLACEMENT_3D('',#1112,#927,#928);
#742=AXIS2_PLACEMENT_3D('',#1114,#930,#931);
#743=DIRECTION('axis',(0.,0.,1.));
#744=DIRECTION('refdir',(1.,0.,0.));
#745=DIRECTION('center_axis',(0.,1.,0.));
#746=DIRECTION('ref_axis',(-1.,0.,0.));
#747=DIRECTION('',(-1.,0.,0.));
#748=DIRECTION('',(0.,0.,1.));
#749=DIRECTION('',(-1.,0.,0.));
#750=DIRECTION('',(0.,0.,1.));
#751=DIRECTION('center_axis',(0.,0.,1.));
#752=DIRECTION('ref_axis',(1.,0.,0.));
#753=DIRECTION('',(0.,1.,0.));
#754=DIRECTION('',(1.,0.,0.));
#755=DIRECTION('',(0.,-1.,0.));
#756=DIRECTION('center_axis',(-1.,0.,0.));
#757=DIRECTION('ref_axis',(0.,-1.,0.));
#758=DIRECTION('',(0.,0.,1.));
#759=DIRECTION('',(0.,-1.,0.));
#760=DIRECTION('',(0.,0.,1.));
#761=DIRECTION('',(0.,1.,0.));
#762=DIRECTION('center_axis',(0.,1.,0.));
#763=DIRECTION('ref_axis',(1.,0.,0.));
#764=DIRECTION('',(0.,0.,-1.));
#765=DIRECTION('',(1.,0.,0.));
#766=DIRECTION('',(0.,0.,-1.));
#767=DIRECTION('',(1.,0.,0.));
#768=DIRECTION('center_axis',(0.,1.,0.));
#769=DIRECTION('ref_axis',(1.,0.,0.));
#770=DIRECTION('',(-1.,0.,0.));
#771=DIRECTION('',(0.,0.,1.));
#772=DIRECTION('',(-1.,0.,0.));
#773=DIRECTION('',(0.,0.,-1.));
#774=DIRECTION('center_axis',(0.,0.,1.));
#775=DIRECTION('ref_axis',(1.,0.,0.));
#776=DIRECTION('',(0.,-1.,0.));
#777=DIRECTION('',(1.,0.,0.));
#778=DIRECTION('center_axis',(0.,0.,1.));
#779=DIRECTION('ref_axis',(0.,-1.,0.));
#780=DIRECTION('',(0.,1.,0.));
#781=DIRECTION('',(-1.,0.,0.));
#782=DIRECTION('',(0.,-1.,0.));
#783=DIRECTION('',(-1.,0.,0.));
#784=DIRECTION('center_axis',(0.,0.,-1.));
#785=DIRECTION('ref_axis',(-1.,0.,0.));
#786=DIRECTION('center_axis',(0.,0.,-1.));
#787=DIRECTION('ref_axis',(-1.,0.,0.));
#788=DIRECTION('center_axis',(0.,0.,-1.));
#789=DIRECTION('ref_axis',(-1.,0.,0.));
#790=DIRECTION('center_axis',(0.,0.,-1.));
#791=DIRECTION('ref_axis',(-1.,0.,0.));
#792=DIRECTION('center_axis',(0.,0.,-1.));
#793=DIRECTION('ref_axis',(-1.,0.,0.));
#794=DIRECTION('',(0.,1.,0.));
#795=DIRECTION('',(1.,0.,0.));
#796=DIRECTION('',(0.,-1.,0.));
#797=DIRECTION('center_axis',(0.,0.,1.));
#798=DIRECTION('ref_axis',(1.,0.,0.));
#799=DIRECTION('center_axis',(0.,0.,1.));
#800=DIRECTION('ref_axis',(1.,0.,0.));
#801=DIRECTION('center_axis',(0.,0.,1.));
#802=DIRECTION('ref_axis',(1.,0.,0.));
#803=DIRECTION('',(0.,0.,1.));
#804=DIRECTION('center_axis',(0.,0.,1.));
#805=DIRECTION('ref_axis',(1.,0.,0.));
#806=DIRECTION('center_axis',(0.,0.,-1.));
#807=DIRECTION('ref_axis',(1.,0.,0.));
#808=DIRECTION('center_axis',(0.,0.,-1.));
#809=DIRECTION('ref_axis',(-1.,0.,0.));
#810=DIRECTION('center_axis',(0.,0.,1.));
#811=DIRECTION('ref_axis',(1.,0.,0.));
#812=DIRECTION('',(0.,0.,1.));
#813=DIRECTION('center_axis',(0.,0.,1.));
#814=DIRECTION('ref_axis',(1.,0.,0.));
#815=DIRECTION('center_axis',(0.,0.,-1.));
#816=DIRECTION('ref_axis',(1.,0.,0.));
#817=DIRECTION('center_axis',(0.,0.,-1.));
#818=DIRECTION('ref_axis',(-1.,0.,0.));
#819=DIRECTION('center_axis',(1.,0.,0.));
#820=DIRECTION('ref_axis',(0.,0.,-1.));
#821=DIRECTION('',(0.,0.,1.));
#822=DIRECTION('',(0.,1.,0.));
#823=DIRECTION('',(0.,1.,0.));
#824=DIRECTION('center_axis',(0.,0.,1.));
#825=DIRECTION('ref_axis',(1.,0.,0.));
#826=DIRECTION('',(-1.,0.,0.));
#827=DIRECTION('',(0.,1.,0.));
#828=DIRECTION('center_axis',(0.,0.,1.));
#829=DIRECTION('ref_axis',(0.,-1.,0.));
#830=DIRECTION('',(-1.,0.,0.));
#831=DIRECTION('',(0.,1.,0.));
#832=DIRECTION('',(0.,1.,0.));
#833=DIRECTION('',(-1.,0.,0.));
#834=DIRECTION('center_axis',(0.,0.,-1.));
#835=DIRECTION('ref_axis',(1.,0.,0.));
#836=DIRECTION('center_axis',(0.,0.,-1.));
#837=DIRECTION('ref_axis',(1.,0.,0.));
#838=DIRECTION('center_axis',(0.,0.,-1.));
#839=DIRECTION('ref_axis',(1.,0.,0.));
#840=DIRECTION('center_axis',(0.,0.,-1.));
#841=DIRECTION('ref_axis',(1.,0.,0.));
#842=DIRECTION('center_axis',(-1.,0.,0.));
#843=DIRECTION('ref_axis',(0.,-1.,0.));
#844=DIRECTION('',(0.,0.,1.));
#845=DIRECTION('',(0.,0.,-1.));
#846=DIRECTION('',(0.,1.,0.));
#847=DIRECTION('',(0.,0.,-1.));
#848=DIRECTION('center_axis',(0.,0.,-1.));
#849=DIRECTION('ref_axis',(-1.,0.,0.));
#850=DIRECTION('center_axis',(0.,0.,-1.));
#851=DIRECTION('ref_axis',(-1.,0.,0.));
#852=DIRECTION('',(0.,0.,-1.));
#853=DIRECTION('center_axis',(0.,0.,-1.));
#854=DIRECTION('ref_axis',(-1.,0.,0.));
#855=DIRECTION('center_axis',(0.,0.,-1.));
#856=DIRECTION('ref_axis',(-1.,0.,0.));
#857=DIRECTION('',(0.,0.,-1.));
#858=DIRECTION('center_axis',(0.,-1.,0.));
#859=DIRECTION('ref_axis',(-1.,0.,0.));
#860=DIRECTION('',(0.,0.,-1.));
#861=DIRECTION('',(-1.,0.,0.));
#862=DIRECTION('center_axis',(1.,0.,0.));
#863=DIRECTION('ref_axis',(0.,-1.,0.));
#864=DIRECTION('',(0.,-1.,0.));
#865=DIRECTION('center_axis',(0.,0.,-1.));
#866=DIRECTION('ref_axis',(-1.,0.,0.));
#867=DIRECTION('',(1.,0.,0.));
#868=DIRECTION('center_axis',(0.,1.,0.));
#869=DIRECTION('ref_axis',(1.,0.,0.));
#870=DIRECTION('',(0.,0.,-1.));
#871=DIRECTION('center_axis',(1.,0.,0.));
#872=DIRECTION('ref_axis',(0.,-1.,0.));
#873=DIRECTION('center_axis',(0.,0.,-1.));
#874=DIRECTION('ref_axis',(-1.,0.,0.));
#875=DIRECTION('',(0.,0.,-1.));
#876=DIRECTION('center_axis',(0.,0.,-1.));
#877=DIRECTION('ref_axis',(-1.,0.,0.));
#878=DIRECTION('center_axis',(0.,0.,1.));
#879=DIRECTION('ref_axis',(-1.,0.,0.));
#880=DIRECTION('center_axis',(0.,0.,1.));
#881=DIRECTION('ref_axis',(1.,0.,0.));
#882=DIRECTION('center_axis',(0.,0.,-1.));
#883=DIRECTION('ref_axis',(-1.,0.,0.));
#884=DIRECTION('',(0.,0.,-1.));
#885=DIRECTION('center_axis',(0.,0.,-1.));
#886=DIRECTION('ref_axis',(-1.,0.,0.));
#887=DIRECTION('center_axis',(0.,0.,1.));
#888=DIRECTION('ref_axis',(-1.,0.,0.));
#889=DIRECTION('center_axis',(0.,0.,1.));
#890=DIRECTION('ref_axis',(1.,0.,0.));
#891=DIRECTION('center_axis',(0.,0.,-1.));
#892=DIRECTION('ref_axis',(-1.,0.,0.));
#893=DIRECTION('',(0.,0.,-1.));
#894=DIRECTION('center_axis',(0.,0.,-1.));
#895=DIRECTION('ref_axis',(-1.,0.,0.));
#896=DIRECTION('center_axis',(0.,0.,1.));
#897=DIRECTION('ref_axis',(-1.,0.,0.));
#898=DIRECTION('center_axis',(0.,0.,1.));
#899=DIRECTION('ref_axis',(1.,0.,0.));
#900=DIRECTION('center_axis',(0.,0.,-1.));
#901=DIRECTION('ref_axis',(-1.,0.,0.));
#902=DIRECTION('',(0.,0.,-1.));
#903=DIRECTION('center_axis',(0.,0.,-1.));
#904=DIRECTION('ref_axis',(-1.,0.,0.));
#905=DIRECTION('center_axis',(0.,0.,1.));
#906=DIRECTION('ref_axis',(-1.,0.,0.));
#907=DIRECTION('center_axis',(0.,0.,1.));
#908=DIRECTION('ref_axis',(1.,0.,0.));
#909=DIRECTION('center_axis',(0.,0.,1.));
#910=DIRECTION('ref_axis',(1.,0.,0.));
#911=DIRECTION('',(0.,0.,-1.));
#912=DIRECTION('center_axis',(0.,0.,1.));
#913=DIRECTION('ref_axis',(1.,0.,0.));
#914=DIRECTION('',(0.,0.,-1.));
#915=DIRECTION('center_axis',(0.,0.,1.));
#916=DIRECTION('ref_axis',(1.,0.,0.));
#917=DIRECTION('',(0.,0.,-1.));
#918=DIRECTION('center_axis',(0.,0.,1.));
#919=DIRECTION('ref_axis',(1.,0.,0.));
#920=DIRECTION('',(0.,0.,-1.));
#921=DIRECTION('center_axis',(0.,-1.,0.));
#922=DIRECTION('ref_axis',(1.,0.,0.));
#923=DIRECTION('',(0.,0.,1.));
#924=DIRECTION('center_axis',(0.,1.,0.));
#925=DIRECTION('ref_axis',(-1.,0.,0.));
#926=DIRECTION('',(0.,0.,1.));
#927=DIRECTION('center_axis',(1.,0.,0.));
#928=DIRECTION('ref_axis',(0.,1.,0.));
#929=DIRECTION('',(0.,0.,1.));
#930=DIRECTION('center_axis',(0.,0.,1.));
#931=DIRECTION('ref_axis',(0.,-1.,0.));
#932=CARTESIAN_POINT('',(0.,0.,0.));
#933=CARTESIAN_POINT('Origin',(1.,11.79,0.));
#934=CARTESIAN_POINT('',(1.,11.79,0.));
#935=CARTESIAN_POINT('',(0.,11.79,0.));
#936=CARTESIAN_POINT('',(5.1875,11.79,0.));
#937=CARTESIAN_POINT('',(1.,11.79,0.5));
#938=CARTESIAN_POINT('',(1.,11.79,0.));
#939=CARTESIAN_POINT('',(0.,11.79,0.5));
#940=CARTESIAN_POINT('',(0.,11.79,0.5));
#941=CARTESIAN_POINT('',(0.,11.79,0.));
#942=CARTESIAN_POINT('Origin',(0.5,10.79,0.5));
#943=CARTESIAN_POINT('',(1.,9.79,0.5));
#944=CARTESIAN_POINT('',(1.,11.79,0.5));
#945=CARTESIAN_POINT('',(0.,9.79,0.5));
#946=CARTESIAN_POINT('',(0.25,9.79,0.5));
#947=CARTESIAN_POINT('',(0.,11.895,0.5));
#948=CARTESIAN_POINT('Origin',(0.,13.,0.));
#949=CARTESIAN_POINT('',(0.,9.79,1.));
#950=CARTESIAN_POINT('',(0.,9.79,0.5));
#951=CARTESIAN_POINT('',(0.,13.,1.));
#952=CARTESIAN_POINT('',(0.,0.,1.));
#953=CARTESIAN_POINT('',(0.,13.,0.));
#954=CARTESIAN_POINT('',(0.,13.,0.));
#955=CARTESIAN_POINT('',(0.,0.,0.));
#956=CARTESIAN_POINT('Origin',(0.,9.79,1.));
#957=CARTESIAN_POINT('',(1.,9.79,-0.5));
#958=CARTESIAN_POINT('',(1.,9.79,0.5));
#959=CARTESIAN_POINT('',(2.79,9.79,-0.5));
#960=CARTESIAN_POINT('',(2.79,9.79,-0.5));
#961=CARTESIAN_POINT('',(2.79,9.79,1.));
#962=CARTESIAN_POINT('',(2.79,9.79,1.));
#963=CARTESIAN_POINT('',(4.6875,9.79,1.));
#964=CARTESIAN_POINT('Origin',(0.,4.00000005960464,1.));
#965=CARTESIAN_POINT('',(3.25,4.00000005960464,0.));
#966=CARTESIAN_POINT('',(0.,4.00000005960464,0.));
#967=CARTESIAN_POINT('',(0.8125,4.00000005960464,0.));
#968=CARTESIAN_POINT('',(0.,4.00000005960464,-1.4));
#969=CARTESIAN_POINT('',(0.,4.00000005960464,0.5));
#970=CARTESIAN_POINT('',(3.25,4.00000005960464,-1.4));
#971=CARTESIAN_POINT('',(0.8125,4.00000005960464,-1.4));
#972=CARTESIAN_POINT('',(3.25,4.00000005960464,1.));
#973=CARTESIAN_POINT('Origin',(9.375,6.5,1.));
#974=CARTESIAN_POINT('',(0.,4.21,1.));
#975=CARTESIAN_POINT('',(0.,0.,1.));
#976=CARTESIAN_POINT('',(0.,0.,1.));
#977=CARTESIAN_POINT('',(17.75,0.,1.));
#978=CARTESIAN_POINT('',(3.,0.,1.));
#979=CARTESIAN_POINT('',(18.75,1.,1.));
#980=CARTESIAN_POINT('Origin',(17.75,1.,1.));
#981=CARTESIAN_POINT('',(18.75,13.,1.));
#982=CARTESIAN_POINT('',(18.75,1.,1.));
#983=CARTESIAN_POINT('',(18.75,13.,1.));
#984=CARTESIAN_POINT('',(2.79,4.21,1.));
#985=CARTESIAN_POINT('',(2.79,8.145,1.));
#986=CARTESIAN_POINT('',(6.0825,4.21,1.));
#987=CARTESIAN_POINT('',(16.65,2.5,1.));
#988=CARTESIAN_POINT('Origin',(16.25,2.5,1.));
#989=CARTESIAN_POINT('',(1.9,2.5,1.));
#990=CARTESIAN_POINT('Origin',(1.5,2.5,1.));
#991=CARTESIAN_POINT('',(16.65,11.5,1.));
#992=CARTESIAN_POINT('Origin',(16.25,11.5,1.));
#993=CARTESIAN_POINT('',(1.9,11.5,1.));
#994=CARTESIAN_POINT('Origin',(1.5,11.5,1.));
#995=CARTESIAN_POINT('Origin',(1.625,7.,-1.4));
#996=CARTESIAN_POINT('',(0.,10.25,-1.4));
#997=CARTESIAN_POINT('',(0.,13.,-1.4));
#998=CARTESIAN_POINT('',(3.25,10.25,-1.4));
#999=CARTESIAN_POINT('',(3.25,10.25,-1.4));
#1000=CARTESIAN_POINT('',(3.25,3.75,-1.4));
#1001=CARTESIAN_POINT('',(1.86,9.16,-1.4));
#1002=CARTESIAN_POINT('Origin',(2.16,9.16,-1.4));
#1003=CARTESIAN_POINT('',(1.86,4.84,-1.4));
#1004=CARTESIAN_POINT('Origin',(2.16,4.84,-1.4));
#1005=CARTESIAN_POINT('Origin',(2.16,4.84,-1.4));
#1006=CARTESIAN_POINT('',(1.86,4.84,-1.1));
#1007=CARTESIAN_POINT('',(1.86,4.84,-1.4));
#1008=CARTESIAN_POINT('Origin',(2.16,4.84,-1.1));
#1009=CARTESIAN_POINT('Origin',(2.16,4.84,-1.1));
#1010=CARTESIAN_POINT('',(2.315,4.84,-1.1));
#1011=CARTESIAN_POINT('Origin',(2.16,4.84,-1.1));
#1012=CARTESIAN_POINT('Origin',(2.16,9.16,-1.4));
#1013=CARTESIAN_POINT('',(1.86,9.16,-1.1));
#1014=CARTESIAN_POINT('',(1.86,9.16,-1.4));
#1015=CARTESIAN_POINT('Origin',(2.16,9.16,-1.1));
#1016=CARTESIAN_POINT('Origin',(2.16,9.16,-1.1));
#1017=CARTESIAN_POINT('',(2.315,9.16,-1.1));
#1018=CARTESIAN_POINT('Origin',(2.16,9.16,-1.1));
#1019=CARTESIAN_POINT('Origin',(1.,9.79,0.));
#1020=CARTESIAN_POINT('',(1.,10.25,-0.5));
#1021=CARTESIAN_POINT('',(1.,10.25,0.));
#1022=CARTESIAN_POINT('',(1.,10.25,0.5));
#1023=CARTESIAN_POINT('',(1.,9.79,-0.5));
#1024=CARTESIAN_POINT('',(1.,8.145,0.));
#1025=CARTESIAN_POINT('Origin',(9.375,6.5,0.));
#1026=CARTESIAN_POINT('',(18.75,13.,0.));
#1027=CARTESIAN_POINT('',(18.75,13.,0.));
#1028=CARTESIAN_POINT('',(18.75,1.,0.));
#1029=CARTESIAN_POINT('',(18.75,1.,0.));
#1030=CARTESIAN_POINT('',(17.75,0.,0.));
#1031=CARTESIAN_POINT('Origin',(17.75,1.,0.));
#1032=CARTESIAN_POINT('',(0.,0.,0.));
#1033=CARTESIAN_POINT('',(3.,0.,0.));
#1034=CARTESIAN_POINT('',(0.,0.,0.));
#1035=CARTESIAN_POINT('',(3.25,10.25,0.));
#1036=CARTESIAN_POINT('',(3.25,8.375,0.));
#1037=CARTESIAN_POINT('',(4.6875,10.25,0.));
#1038=CARTESIAN_POINT('',(16.,11.5,0.));
#1039=CARTESIAN_POINT('Origin',(16.25,11.5,0.));
#1040=CARTESIAN_POINT('',(1.25,11.5,0.));
#1041=CARTESIAN_POINT('Origin',(1.5,11.5,0.));
#1042=CARTESIAN_POINT('',(16.,2.5,0.));
#1043=CARTESIAN_POINT('Origin',(16.25,2.5,0.));
#1044=CARTESIAN_POINT('',(1.25,2.5,0.));
#1045=CARTESIAN_POINT('Origin',(1.5,2.5,0.));
#1046=CARTESIAN_POINT('Origin',(0.,13.,0.));
#1047=CARTESIAN_POINT('',(0.,0.,0.));
#1048=CARTESIAN_POINT('',(0.,4.21,-0.5));
#1049=CARTESIAN_POINT('',(0.,4.21,0.5));
#1050=CARTESIAN_POINT('',(0.,10.25,-0.5));
#1051=CARTESIAN_POINT('',(0.,11.395,-0.5));
#1052=CARTESIAN_POINT('',(0.,10.25,1.));
#1053=CARTESIAN_POINT('Origin',(2.16,4.84,1.));
#1054=CARTESIAN_POINT('',(2.315,4.84,-0.5));
#1055=CARTESIAN_POINT('Origin',(2.16,4.84,-0.5));
#1056=CARTESIAN_POINT('',(2.315,4.84,1.));
#1057=CARTESIAN_POINT('Origin',(2.16,9.16,1.));
#1058=CARTESIAN_POINT('',(2.315,9.16,-0.5));
#1059=CARTESIAN_POINT('Origin',(2.16,9.16,-0.5));
#1060=CARTESIAN_POINT('',(2.315,9.16,1.));
#1061=CARTESIAN_POINT('Origin',(2.79,4.21,1.));
#1062=CARTESIAN_POINT('',(2.79,4.21,-0.5));
#1063=CARTESIAN_POINT('',(2.79,4.21,1.));
#1064=CARTESIAN_POINT('',(-2.79,4.21,-0.5));
#1065=CARTESIAN_POINT('Origin',(2.79,9.79,1.));
#1066=CARTESIAN_POINT('',(2.79,4.84,-0.5));
#1067=CARTESIAN_POINT('Origin',(1.395,7.,-0.5));
#1068=CARTESIAN_POINT('',(0.5,10.25,-0.5));
#1069=CARTESIAN_POINT('Origin',(0.,10.25,1.));
#1070=CARTESIAN_POINT('',(3.25,10.25,1.));
#1071=CARTESIAN_POINT('Origin',(3.25,10.25,1.));
#1072=CARTESIAN_POINT('Origin',(16.25,2.5,1.));
#1073=CARTESIAN_POINT('',(16.65,2.5,0.5));
#1074=CARTESIAN_POINT('',(16.65,2.5,1.));
#1075=CARTESIAN_POINT('Origin',(16.25,2.5,0.5));
#1076=CARTESIAN_POINT('Origin',(16.25,2.5,0.5));
#1077=CARTESIAN_POINT('',(16.,2.5,0.5));
#1078=CARTESIAN_POINT('Origin',(16.25,2.5,0.5));
#1079=CARTESIAN_POINT('Origin',(1.5,2.5,1.));
#1080=CARTESIAN_POINT('',(1.9,2.5,0.5));
#1081=CARTESIAN_POINT('',(1.9,2.5,1.));
#1082=CARTESIAN_POINT('Origin',(1.5,2.5,0.5));
#1083=CARTESIAN_POINT('Origin',(1.5,2.5,0.5));
#1084=CARTESIAN_POINT('',(1.25,2.5,0.5));
#1085=CARTESIAN_POINT('Origin',(1.5,2.5,0.5));
#1086=CARTESIAN_POINT('Origin',(16.25,11.5,1.));
#1087=CARTESIAN_POINT('',(16.65,11.5,0.5));
#1088=CARTESIAN_POINT('',(16.65,11.5,1.));
#1089=CARTESIAN_POINT('Origin',(16.25,11.5,0.5));
#1090=CARTESIAN_POINT('Origin',(16.25,11.5,0.5));
#1091=CARTESIAN_POINT('',(16.,11.5,0.5));
#1092=CARTESIAN_POINT('Origin',(16.25,11.5,0.5));
#1093=CARTESIAN_POINT('Origin',(1.5,11.5,1.));
#1094=CARTESIAN_POINT('',(1.9,11.5,0.5));
#1095=CARTESIAN_POINT('',(1.9,11.5,1.));
#1096=CARTESIAN_POINT('Origin',(1.5,11.5,0.5));
#1097=CARTESIAN_POINT('Origin',(1.5,11.5,0.5));
#1098=CARTESIAN_POINT('',(1.25,11.5,0.5));
#1099=CARTESIAN_POINT('Origin',(1.5,11.5,0.5));
#1100=CARTESIAN_POINT('Origin',(1.5,2.5,0.));
#1101=CARTESIAN_POINT('',(1.25,2.5,0.));
#1102=CARTESIAN_POINT('Origin',(16.25,2.5,0.));
#1103=CARTESIAN_POINT('',(16.,2.5,0.));
#1104=CARTESIAN_POINT('Origin',(1.5,11.5,0.));
#1105=CARTESIAN_POINT('',(1.25,11.5,0.));
#1106=CARTESIAN_POINT('Origin',(16.25,11.5,0.));
#1107=CARTESIAN_POINT('',(16.,11.5,0.));
#1108=CARTESIAN_POINT('Origin',(0.,0.,0.));
#1109=CARTESIAN_POINT('',(17.75,0.,0.));
#1110=CARTESIAN_POINT('Origin',(18.75,13.,0.));
#1111=CARTESIAN_POINT('',(18.75,13.,0.));
#1112=CARTESIAN_POINT('Origin',(18.75,1.,0.));
#1113=CARTESIAN_POINT('',(18.75,1.,0.));
#1114=CARTESIAN_POINT('Origin',(17.75,1.,0.));
#1115=UNCERTAINTY_MEASURE_WITH_UNIT(LENGTH_MEASURE(0.001),#1119,
'DISTANCE_ACCURACY_VALUE',
'Maximum model space distance between geometric entities at asserted c
onnectivities');
#1116=UNCERTAINTY_MEASURE_WITH_UNIT(LENGTH_MEASURE(0.001),#1119,
'DISTANCE_ACCURACY_VALUE',
'Maximum model space distance between geometric entities at asserted c
onnectivities');
#1117=(
GEOMETRIC_REPRESENTATION_CONTEXT(3)
GLOBAL_UNCERTAINTY_ASSIGNED_CONTEXT((#1115))
GLOBAL_UNIT_ASSIGNED_CONTEXT((#1119,#1121,#1122))
REPRESENTATION_CONTEXT('','3D')
);
#1118=(
GEOMETRIC_REPRESENTATION_CONTEXT(3)
GLOBAL_UNCERTAINTY_ASSIGNED_CONTEXT((#1116))
GLOBAL_UNIT_ASSIGNED_CONTEXT((#1119,#1121,#1122))
REPRESENTATION_CONTEXT('','3D')
);
#1119=(
LENGTH_UNIT()
NAMED_UNIT(*)
SI_UNIT(.CENTI.,.METRE.)
);
#1120=(
LENGTH_UNIT()
NAMED_UNIT(*)
SI_UNIT($,.METRE.)
);
#1121=(
NAMED_UNIT(*)
PLANE_ANGLE_UNIT()
SI_UNIT($,.RADIAN.)
);
#1122=(
NAMED_UNIT(*)
SI_UNIT($,.STERADIAN.)
SOLID_ANGLE_UNIT()
);
#1123=SHAPE_DEFINITION_REPRESENTATION(#1124,#1125);
#1124=PRODUCT_DEFINITION_SHAPE('',$,#1127);
#1125=SHAPE_REPRESENTATION('',(#679),#1117);
#1126=PRODUCT_DEFINITION_CONTEXT('part definition',#1131,'design');
#1127=PRODUCT_DEFINITION('2026-07-07-08-54-59-983','plate tr',#1128,#1126);
#1128=PRODUCT_DEFINITION_FORMATION('',$,#1133);
#1129=PRODUCT_RELATED_PRODUCT_CATEGORY('plate tr','plate tr',(#1133));
#1130=APPLICATION_PROTOCOL_DEFINITION('international standard',
'automotive_design',2009,#1131);
#1131=APPLICATION_CONTEXT(
'Core Data for Automotive Mechanical Design Process');
#1132=PRODUCT_CONTEXT('part definition',#1131,'mechanical');
#1133=PRODUCT('2026-07-07-08-54-59-983','plate tr',$,(#1132));
#1134=PRESENTATION_STYLE_ASSIGNMENT((#1135));
#1135=SURFACE_STYLE_USAGE(.BOTH.,#1136);
#1136=SURFACE_SIDE_STYLE('',(#1137));
#1137=SURFACE_STYLE_FILL_AREA(#1138);
#1138=FILL_AREA_STYLE('ABS(\X2\D770C0C9\X0\)',(#1139));
#1139=FILL_AREA_STYLE_COLOUR('ABS(\X2\D770C0C9\X0\)',#1140);
#1140=COLOUR_RGB('ABS(\X2\D770C0C9\X0\)',0.964705882352941,0.964705882352941,
0.952941176470588);
ENDSEC;
END-ISO-10303-21;
