ISO-10303-21;
HEADER;
/* Generated by software containing ST-Developer
 * from STEP Tools, Inc. (www.steptools.com) 
 */

FILE_DESCRIPTION(
/* description */ (''),
/* implementation_level */ '2;1');

FILE_NAME(
/* name */ 'PC817 bracket.step',
/* time_stamp */ '2026-08-31T17:53:28+09:00',
/* author */ (''),
/* organization */ (''),
/* preprocessor_version */ 'ST-DEVELOPER v20.1',
/* originating_system */ 'Autodesk Translation Framework v15.8.0.0',
/* authorisation */ '');

FILE_SCHEMA (('AUTOMOTIVE_DESIGN { 1 0 10303 214 3 1 1 }'));
ENDSEC;

DATA;
#10=MECHANICAL_DESIGN_GEOMETRIC_PRESENTATION_REPRESENTATION('',(#13),#852);
#11=SHAPE_REPRESENTATION_RELATIONSHIP('SRR','None',#859,#12);
#12=ADVANCED_BREP_SHAPE_REPRESENTATION('',(#14),#851);
#13=STYLED_ITEM('',(#868),#14);
#14=MANIFOLD_SOLID_BREP('\X2\BCF8CCB4\X0\1',#520);
#15=FACE_BOUND('',#77,.T.);
#16=FACE_BOUND('',#83,.T.);
#17=FACE_BOUND('',#89,.T.);
#18=FACE_BOUND('',#99,.T.);
#19=FACE_BOUND('',#100,.T.);
#20=FACE_BOUND('',#101,.T.);
#21=FACE_BOUND('',#102,.T.);
#22=FACE_BOUND('',#104,.T.);
#23=FACE_BOUND('',#105,.T.);
#24=FACE_BOUND('',#106,.T.);
#25=FACE_BOUND('',#107,.T.);
#26=FACE_BOUND('',#108,.T.);
#27=FACE_BOUND('',#109,.T.);
#28=FACE_BOUND('',#110,.T.);
#29=PLANE('',#537);
#30=PLANE('',#538);
#31=PLANE('',#539);
#32=PLANE('',#540);
#33=PLANE('',#544);
#34=PLANE('',#545);
#35=PLANE('',#546);
#36=PLANE('',#547);
#37=PLANE('',#551);
#38=PLANE('',#552);
#39=PLANE('',#553);
#40=PLANE('',#554);
#41=PLANE('',#567);
#42=PLANE('',#568);
#43=PLANE('',#569);
#44=PLANE('',#570);
#45=PLANE('',#571);
#46=PLANE('',#572);
#47=FACE_OUTER_BOUND('',#72,.T.);
#48=FACE_OUTER_BOUND('',#73,.T.);
#49=FACE_OUTER_BOUND('',#74,.T.);
#50=FACE_OUTER_BOUND('',#75,.T.);
#51=FACE_OUTER_BOUND('',#76,.T.);
#52=FACE_OUTER_BOUND('',#78,.T.);
#53=FACE_OUTER_BOUND('',#79,.T.);
#54=FACE_OUTER_BOUND('',#80,.T.);
#55=FACE_OUTER_BOUND('',#81,.T.);
#56=FACE_OUTER_BOUND('',#82,.T.);
#57=FACE_OUTER_BOUND('',#84,.T.);
#58=FACE_OUTER_BOUND('',#85,.T.);
#59=FACE_OUTER_BOUND('',#86,.T.);
#60=FACE_OUTER_BOUND('',#87,.T.);
#61=FACE_OUTER_BOUND('',#88,.T.);
#62=FACE_OUTER_BOUND('',#90,.T.);
#63=FACE_OUTER_BOUND('',#91,.T.);
#64=FACE_OUTER_BOUND('',#92,.T.);
#65=FACE_OUTER_BOUND('',#93,.T.);
#66=FACE_OUTER_BOUND('',#94,.T.);
#67=FACE_OUTER_BOUND('',#95,.T.);
#68=FACE_OUTER_BOUND('',#96,.T.);
#69=FACE_OUTER_BOUND('',#97,.T.);
#70=FACE_OUTER_BOUND('',#98,.T.);
#71=FACE_OUTER_BOUND('',#103,.T.);
#72=EDGE_LOOP('',(#350,#351,#352,#353));
#73=EDGE_LOOP('',(#354,#355,#356,#357));
#74=EDGE_LOOP('',(#358,#359,#360,#361));
#75=EDGE_LOOP('',(#362,#363,#364,#365));
#76=EDGE_LOOP('',(#366,#367,#368,#369));
#77=EDGE_LOOP('',(#370));
#78=EDGE_LOOP('',(#371,#372,#373,#374));
#79=EDGE_LOOP('',(#375,#376,#377,#378));
#80=EDGE_LOOP('',(#379,#380,#381,#382));
#81=EDGE_LOOP('',(#383,#384,#385,#386));
#82=EDGE_LOOP('',(#387,#388,#389,#390));
#83=EDGE_LOOP('',(#391));
#84=EDGE_LOOP('',(#392,#393,#394,#395));
#85=EDGE_LOOP('',(#396,#397,#398,#399));
#86=EDGE_LOOP('',(#400,#401,#402,#403));
#87=EDGE_LOOP('',(#404,#405,#406,#407));
#88=EDGE_LOOP('',(#408,#409,#410,#411));
#89=EDGE_LOOP('',(#412));
#90=EDGE_LOOP('',(#413,#414,#415,#416));
#91=EDGE_LOOP('',(#417,#418,#419,#420));
#92=EDGE_LOOP('',(#421,#422,#423,#424));
#93=EDGE_LOOP('',(#425,#426,#427,#428));
#94=EDGE_LOOP('',(#429,#430,#431,#432,#433,#434,#435,#436));
#95=EDGE_LOOP('',(#437,#438,#439,#440,#441,#442,#443,#444));
#96=EDGE_LOOP('',(#445,#446,#447,#448));
#97=EDGE_LOOP('',(#449,#450,#451,#452,#453,#454,#455,#456));
#98=EDGE_LOOP('',(#457,#458,#459,#460));
#99=EDGE_LOOP('',(#461));
#100=EDGE_LOOP('',(#462));
#101=EDGE_LOOP('',(#463));
#102=EDGE_LOOP('',(#464));
#103=EDGE_LOOP('',(#465,#466,#467,#468,#469,#470,#471,#472,#473,#474,#475,
#476,#477,#478,#479,#480));
#104=EDGE_LOOP('',(#481));
#105=EDGE_LOOP('',(#482));
#106=EDGE_LOOP('',(#483));
#107=EDGE_LOOP('',(#484));
#108=EDGE_LOOP('',(#485));
#109=EDGE_LOOP('',(#486));
#110=EDGE_LOOP('',(#487));
#111=LINE('',#713,#166);
#112=LINE('',#718,#167);
#113=LINE('',#720,#168);
#114=LINE('',#722,#169);
#115=LINE('',#723,#170);
#116=LINE('',#726,#171);
#117=LINE('',#728,#172);
#118=LINE('',#729,#173);
#119=LINE('',#732,#174);
#120=LINE('',#734,#175);
#121=LINE('',#735,#176);
#122=LINE('',#737,#177);
#123=LINE('',#742,#178);
#124=LINE('',#747,#179);
#125=LINE('',#749,#180);
#126=LINE('',#751,#181);
#127=LINE('',#752,#182);
#128=LINE('',#755,#183);
#129=LINE('',#757,#184);
#130=LINE('',#758,#185);
#131=LINE('',#761,#186);
#132=LINE('',#763,#187);
#133=LINE('',#764,#188);
#134=LINE('',#766,#189);
#135=LINE('',#771,#190);
#136=LINE('',#776,#191);
#137=LINE('',#778,#192);
#138=LINE('',#780,#193);
#139=LINE('',#781,#194);
#140=LINE('',#784,#195);
#141=LINE('',#786,#196);
#142=LINE('',#787,#197);
#143=LINE('',#790,#198);
#144=LINE('',#792,#199);
#145=LINE('',#793,#200);
#146=LINE('',#795,#201);
#147=LINE('',#800,#202);
#148=LINE('',#806,#203);
#149=LINE('',#812,#204);
#150=LINE('',#818,#205);
#151=LINE('',#822,#206);
#152=LINE('',#824,#207);
#153=LINE('',#826,#208);
#154=LINE('',#828,#209);
#155=LINE('',#829,#210);
#156=LINE('',#831,#211);
#157=LINE('',#833,#212);
#158=LINE('',#835,#213);
#159=LINE('',#836,#214);
#160=LINE('',#839,#215);
#161=LINE('',#841,#216);
#162=LINE('',#842,#217);
#163=LINE('',#844,#218);
#164=LINE('',#845,#219);
#165=LINE('',#846,#220);
#166=VECTOR('',#579,0.199999999999999);
#167=VECTOR('',#584,1.);
#168=VECTOR('',#585,1.);
#169=VECTOR('',#586,1.);
#170=VECTOR('',#587,1.);
#171=VECTOR('',#590,1.);
#172=VECTOR('',#591,1.);
#173=VECTOR('',#592,1.);
#174=VECTOR('',#595,1.);
#175=VECTOR('',#596,1.);
#176=VECTOR('',#597,1.);
#177=VECTOR('',#600,1.);
#178=VECTOR('',#605,0.199999999999998);
#179=VECTOR('',#610,1.);
#180=VECTOR('',#611,1.);
#181=VECTOR('',#612,1.);
#182=VECTOR('',#613,1.);
#183=VECTOR('',#616,1.);
#184=VECTOR('',#617,1.);
#185=VECTOR('',#618,1.);
#186=VECTOR('',#621,1.);
#187=VECTOR('',#622,1.);
#188=VECTOR('',#623,1.);
#189=VECTOR('',#626,1.);
#190=VECTOR('',#631,0.200000000000003);
#191=VECTOR('',#636,1.);
#192=VECTOR('',#637,1.);
#193=VECTOR('',#638,1.);
#194=VECTOR('',#639,1.);
#195=VECTOR('',#642,1.);
#196=VECTOR('',#643,1.);
#197=VECTOR('',#644,1.);
#198=VECTOR('',#647,1.);
#199=VECTOR('',#648,1.);
#200=VECTOR('',#649,1.);
#201=VECTOR('',#652,1.);
#202=VECTOR('',#657,0.199999999999999);
#203=VECTOR('',#664,0.199999999999998);
#204=VECTOR('',#671,0.199999999999999);
#205=VECTOR('',#678,0.200000000000001);
#206=VECTOR('',#683,1.);
#207=VECTOR('',#684,1.);
#208=VECTOR('',#685,1.);
#209=VECTOR('',#686,1.);
#210=VECTOR('',#687,1.);
#211=VECTOR('',#690,1.);
#212=VECTOR('',#691,1.);
#213=VECTOR('',#692,1.);
#214=VECTOR('',#693,1.);
#215=VECTOR('',#696,1.);
#216=VECTOR('',#697,1.);
#217=VECTOR('',#698,1.);
#218=VECTOR('',#701,1.);
#219=VECTOR('',#702,1.);
#220=VECTOR('',#703,1.);
#221=CIRCLE('',#535,0.199999999999999);
#222=CIRCLE('',#536,0.199999999999999);
#223=CIRCLE('',#542,0.199999999999998);
#224=CIRCLE('',#543,0.199999999999998);
#225=CIRCLE('',#549,0.200000000000003);
#226=CIRCLE('',#550,0.200000000000003);
#227=CIRCLE('',#556,0.199999999999999);
#228=CIRCLE('',#557,0.199999999999999);
#229=CIRCLE('',#559,0.199999999999998);
#230=CIRCLE('',#560,0.199999999999998);
#231=CIRCLE('',#562,0.199999999999999);
#232=CIRCLE('',#563,0.199999999999999);
#233=CIRCLE('',#565,0.200000000000002);
#234=CIRCLE('',#566,0.200000000000002);
#235=VERTEX_POINT('',#710);
#236=VERTEX_POINT('',#712);
#237=VERTEX_POINT('',#716);
#238=VERTEX_POINT('',#717);
#239=VERTEX_POINT('',#719);
#240=VERTEX_POINT('',#721);
#241=VERTEX_POINT('',#725);
#242=VERTEX_POINT('',#727);
#243=VERTEX_POINT('',#731);
#244=VERTEX_POINT('',#733);
#245=VERTEX_POINT('',#739);
#246=VERTEX_POINT('',#741);
#247=VERTEX_POINT('',#745);
#248=VERTEX_POINT('',#746);
#249=VERTEX_POINT('',#748);
#250=VERTEX_POINT('',#750);
#251=VERTEX_POINT('',#754);
#252=VERTEX_POINT('',#756);
#253=VERTEX_POINT('',#760);
#254=VERTEX_POINT('',#762);
#255=VERTEX_POINT('',#768);
#256=VERTEX_POINT('',#770);
#257=VERTEX_POINT('',#774);
#258=VERTEX_POINT('',#775);
#259=VERTEX_POINT('',#777);
#260=VERTEX_POINT('',#779);
#261=VERTEX_POINT('',#783);
#262=VERTEX_POINT('',#785);
#263=VERTEX_POINT('',#789);
#264=VERTEX_POINT('',#791);
#265=VERTEX_POINT('',#797);
#266=VERTEX_POINT('',#799);
#267=VERTEX_POINT('',#803);
#268=VERTEX_POINT('',#805);
#269=VERTEX_POINT('',#809);
#270=VERTEX_POINT('',#811);
#271=VERTEX_POINT('',#815);
#272=VERTEX_POINT('',#817);
#273=VERTEX_POINT('',#821);
#274=VERTEX_POINT('',#823);
#275=VERTEX_POINT('',#825);
#276=VERTEX_POINT('',#827);
#277=VERTEX_POINT('',#832);
#278=VERTEX_POINT('',#834);
#279=VERTEX_POINT('',#838);
#280=VERTEX_POINT('',#840);
#281=EDGE_CURVE('',#235,#235,#221,.T.);
#282=EDGE_CURVE('',#235,#236,#111,.T.);
#283=EDGE_CURVE('',#236,#236,#222,.T.);
#284=EDGE_CURVE('',#237,#238,#112,.T.);
#285=EDGE_CURVE('',#239,#237,#113,.T.);
#286=EDGE_CURVE('',#240,#239,#114,.T.);
#287=EDGE_CURVE('',#238,#240,#115,.T.);
#288=EDGE_CURVE('',#238,#241,#116,.T.);
#289=EDGE_CURVE('',#242,#240,#117,.T.);
#290=EDGE_CURVE('',#241,#242,#118,.T.);
#291=EDGE_CURVE('',#241,#243,#119,.T.);
#292=EDGE_CURVE('',#244,#242,#120,.T.);
#293=EDGE_CURVE('',#243,#244,#121,.T.);
#294=EDGE_CURVE('',#244,#239,#122,.T.);
#295=EDGE_CURVE('',#245,#245,#223,.T.);
#296=EDGE_CURVE('',#245,#246,#123,.T.);
#297=EDGE_CURVE('',#246,#246,#224,.T.);
#298=EDGE_CURVE('',#247,#248,#124,.T.);
#299=EDGE_CURVE('',#247,#249,#125,.T.);
#300=EDGE_CURVE('',#250,#249,#126,.T.);
#301=EDGE_CURVE('',#248,#250,#127,.T.);
#302=EDGE_CURVE('',#248,#251,#128,.T.);
#303=EDGE_CURVE('',#252,#250,#129,.T.);
#304=EDGE_CURVE('',#251,#252,#130,.T.);
#305=EDGE_CURVE('',#253,#247,#131,.T.);
#306=EDGE_CURVE('',#254,#253,#132,.T.);
#307=EDGE_CURVE('',#249,#254,#133,.T.);
#308=EDGE_CURVE('',#252,#254,#134,.T.);
#309=EDGE_CURVE('',#255,#255,#225,.T.);
#310=EDGE_CURVE('',#255,#256,#135,.T.);
#311=EDGE_CURVE('',#256,#256,#226,.T.);
#312=EDGE_CURVE('',#257,#258,#136,.T.);
#313=EDGE_CURVE('',#259,#257,#137,.T.);
#314=EDGE_CURVE('',#260,#259,#138,.T.);
#315=EDGE_CURVE('',#258,#260,#139,.T.);
#316=EDGE_CURVE('',#258,#261,#140,.T.);
#317=EDGE_CURVE('',#262,#260,#141,.T.);
#318=EDGE_CURVE('',#261,#262,#142,.T.);
#319=EDGE_CURVE('',#261,#263,#143,.T.);
#320=EDGE_CURVE('',#264,#262,#144,.T.);
#321=EDGE_CURVE('',#263,#264,#145,.T.);
#322=EDGE_CURVE('',#264,#259,#146,.T.);
#323=EDGE_CURVE('',#265,#265,#227,.T.);
#324=EDGE_CURVE('',#265,#266,#147,.T.);
#325=EDGE_CURVE('',#266,#266,#228,.T.);
#326=EDGE_CURVE('',#267,#267,#229,.T.);
#327=EDGE_CURVE('',#267,#268,#148,.T.);
#328=EDGE_CURVE('',#268,#268,#230,.T.);
#329=EDGE_CURVE('',#269,#269,#231,.T.);
#330=EDGE_CURVE('',#269,#270,#149,.T.);
#331=EDGE_CURVE('',#270,#270,#232,.T.);
#332=EDGE_CURVE('',#271,#271,#233,.T.);
#333=EDGE_CURVE('',#271,#272,#150,.T.);
#334=EDGE_CURVE('',#272,#272,#234,.T.);
#335=EDGE_CURVE('',#273,#253,#151,.T.);
#336=EDGE_CURVE('',#273,#274,#152,.T.);
#337=EDGE_CURVE('',#275,#274,#153,.T.);
#338=EDGE_CURVE('',#276,#275,#154,.T.);
#339=EDGE_CURVE('',#251,#276,#155,.T.);
#340=EDGE_CURVE('',#237,#276,#156,.T.);
#341=EDGE_CURVE('',#277,#275,#157,.T.);
#342=EDGE_CURVE('',#278,#277,#158,.T.);
#343=EDGE_CURVE('',#278,#243,#159,.T.);
#344=EDGE_CURVE('',#279,#278,#160,.T.);
#345=EDGE_CURVE('',#280,#277,#161,.T.);
#346=EDGE_CURVE('',#279,#280,#162,.T.);
#347=EDGE_CURVE('',#257,#279,#163,.T.);
#348=EDGE_CURVE('',#274,#280,#164,.T.);
#349=EDGE_CURVE('',#273,#263,#165,.T.);
#350=ORIENTED_EDGE('',*,*,#281,.F.);
#351=ORIENTED_EDGE('',*,*,#282,.T.);
#352=ORIENTED_EDGE('',*,*,#283,.T.);
#353=ORIENTED_EDGE('',*,*,#282,.F.);
#354=ORIENTED_EDGE('',*,*,#284,.F.);
#355=ORIENTED_EDGE('',*,*,#285,.F.);
#356=ORIENTED_EDGE('',*,*,#286,.F.);
#357=ORIENTED_EDGE('',*,*,#287,.F.);
#358=ORIENTED_EDGE('',*,*,#288,.F.);
#359=ORIENTED_EDGE('',*,*,#287,.T.);
#360=ORIENTED_EDGE('',*,*,#289,.F.);
#361=ORIENTED_EDGE('',*,*,#290,.F.);
#362=ORIENTED_EDGE('',*,*,#291,.F.);
#363=ORIENTED_EDGE('',*,*,#290,.T.);
#364=ORIENTED_EDGE('',*,*,#292,.F.);
#365=ORIENTED_EDGE('',*,*,#293,.F.);
#366=ORIENTED_EDGE('',*,*,#294,.F.);
#367=ORIENTED_EDGE('',*,*,#292,.T.);
#368=ORIENTED_EDGE('',*,*,#289,.T.);
#369=ORIENTED_EDGE('',*,*,#286,.T.);
#370=ORIENTED_EDGE('',*,*,#281,.T.);
#371=ORIENTED_EDGE('',*,*,#295,.F.);
#372=ORIENTED_EDGE('',*,*,#296,.T.);
#373=ORIENTED_EDGE('',*,*,#297,.T.);
#374=ORIENTED_EDGE('',*,*,#296,.F.);
#375=ORIENTED_EDGE('',*,*,#298,.F.);
#376=ORIENTED_EDGE('',*,*,#299,.T.);
#377=ORIENTED_EDGE('',*,*,#300,.F.);
#378=ORIENTED_EDGE('',*,*,#301,.F.);
#379=ORIENTED_EDGE('',*,*,#302,.F.);
#380=ORIENTED_EDGE('',*,*,#301,.T.);
#381=ORIENTED_EDGE('',*,*,#303,.F.);
#382=ORIENTED_EDGE('',*,*,#304,.F.);
#383=ORIENTED_EDGE('',*,*,#305,.F.);
#384=ORIENTED_EDGE('',*,*,#306,.F.);
#385=ORIENTED_EDGE('',*,*,#307,.F.);
#386=ORIENTED_EDGE('',*,*,#299,.F.);
#387=ORIENTED_EDGE('',*,*,#307,.T.);
#388=ORIENTED_EDGE('',*,*,#308,.F.);
#389=ORIENTED_EDGE('',*,*,#303,.T.);
#390=ORIENTED_EDGE('',*,*,#300,.T.);
#391=ORIENTED_EDGE('',*,*,#295,.T.);
#392=ORIENTED_EDGE('',*,*,#309,.F.);
#393=ORIENTED_EDGE('',*,*,#310,.T.);
#394=ORIENTED_EDGE('',*,*,#311,.T.);
#395=ORIENTED_EDGE('',*,*,#310,.F.);
#396=ORIENTED_EDGE('',*,*,#312,.F.);
#397=ORIENTED_EDGE('',*,*,#313,.F.);
#398=ORIENTED_EDGE('',*,*,#314,.F.);
#399=ORIENTED_EDGE('',*,*,#315,.F.);
#400=ORIENTED_EDGE('',*,*,#316,.F.);
#401=ORIENTED_EDGE('',*,*,#315,.T.);
#402=ORIENTED_EDGE('',*,*,#317,.F.);
#403=ORIENTED_EDGE('',*,*,#318,.F.);
#404=ORIENTED_EDGE('',*,*,#319,.F.);
#405=ORIENTED_EDGE('',*,*,#318,.T.);
#406=ORIENTED_EDGE('',*,*,#320,.F.);
#407=ORIENTED_EDGE('',*,*,#321,.F.);
#408=ORIENTED_EDGE('',*,*,#322,.F.);
#409=ORIENTED_EDGE('',*,*,#320,.T.);
#410=ORIENTED_EDGE('',*,*,#317,.T.);
#411=ORIENTED_EDGE('',*,*,#314,.T.);
#412=ORIENTED_EDGE('',*,*,#309,.T.);
#413=ORIENTED_EDGE('',*,*,#323,.F.);
#414=ORIENTED_EDGE('',*,*,#324,.T.);
#415=ORIENTED_EDGE('',*,*,#325,.T.);
#416=ORIENTED_EDGE('',*,*,#324,.F.);
#417=ORIENTED_EDGE('',*,*,#326,.F.);
#418=ORIENTED_EDGE('',*,*,#327,.T.);
#419=ORIENTED_EDGE('',*,*,#328,.T.);
#420=ORIENTED_EDGE('',*,*,#327,.F.);
#421=ORIENTED_EDGE('',*,*,#329,.F.);
#422=ORIENTED_EDGE('',*,*,#330,.T.);
#423=ORIENTED_EDGE('',*,*,#331,.T.);
#424=ORIENTED_EDGE('',*,*,#330,.F.);
#425=ORIENTED_EDGE('',*,*,#332,.F.);
#426=ORIENTED_EDGE('',*,*,#333,.T.);
#427=ORIENTED_EDGE('',*,*,#334,.T.);
#428=ORIENTED_EDGE('',*,*,#333,.F.);
#429=ORIENTED_EDGE('',*,*,#306,.T.);
#430=ORIENTED_EDGE('',*,*,#335,.F.);
#431=ORIENTED_EDGE('',*,*,#336,.T.);
#432=ORIENTED_EDGE('',*,*,#337,.F.);
#433=ORIENTED_EDGE('',*,*,#338,.F.);
#434=ORIENTED_EDGE('',*,*,#339,.F.);
#435=ORIENTED_EDGE('',*,*,#304,.T.);
#436=ORIENTED_EDGE('',*,*,#308,.T.);
#437=ORIENTED_EDGE('',*,*,#285,.T.);
#438=ORIENTED_EDGE('',*,*,#340,.T.);
#439=ORIENTED_EDGE('',*,*,#338,.T.);
#440=ORIENTED_EDGE('',*,*,#341,.F.);
#441=ORIENTED_EDGE('',*,*,#342,.F.);
#442=ORIENTED_EDGE('',*,*,#343,.T.);
#443=ORIENTED_EDGE('',*,*,#293,.T.);
#444=ORIENTED_EDGE('',*,*,#294,.T.);
#445=ORIENTED_EDGE('',*,*,#344,.T.);
#446=ORIENTED_EDGE('',*,*,#342,.T.);
#447=ORIENTED_EDGE('',*,*,#345,.F.);
#448=ORIENTED_EDGE('',*,*,#346,.F.);
#449=ORIENTED_EDGE('',*,*,#313,.T.);
#450=ORIENTED_EDGE('',*,*,#347,.T.);
#451=ORIENTED_EDGE('',*,*,#346,.T.);
#452=ORIENTED_EDGE('',*,*,#348,.F.);
#453=ORIENTED_EDGE('',*,*,#336,.F.);
#454=ORIENTED_EDGE('',*,*,#349,.T.);
#455=ORIENTED_EDGE('',*,*,#321,.T.);
#456=ORIENTED_EDGE('',*,*,#322,.T.);
#457=ORIENTED_EDGE('',*,*,#348,.T.);
#458=ORIENTED_EDGE('',*,*,#345,.T.);
#459=ORIENTED_EDGE('',*,*,#341,.T.);
#460=ORIENTED_EDGE('',*,*,#337,.T.);
#461=ORIENTED_EDGE('',*,*,#332,.T.);
#462=ORIENTED_EDGE('',*,*,#329,.T.);
#463=ORIENTED_EDGE('',*,*,#326,.T.);
#464=ORIENTED_EDGE('',*,*,#323,.T.);
#465=ORIENTED_EDGE('',*,*,#349,.F.);
#466=ORIENTED_EDGE('',*,*,#335,.T.);
#467=ORIENTED_EDGE('',*,*,#305,.T.);
#468=ORIENTED_EDGE('',*,*,#298,.T.);
#469=ORIENTED_EDGE('',*,*,#302,.T.);
#470=ORIENTED_EDGE('',*,*,#339,.T.);
#471=ORIENTED_EDGE('',*,*,#340,.F.);
#472=ORIENTED_EDGE('',*,*,#284,.T.);
#473=ORIENTED_EDGE('',*,*,#288,.T.);
#474=ORIENTED_EDGE('',*,*,#291,.T.);
#475=ORIENTED_EDGE('',*,*,#343,.F.);
#476=ORIENTED_EDGE('',*,*,#344,.F.);
#477=ORIENTED_EDGE('',*,*,#347,.F.);
#478=ORIENTED_EDGE('',*,*,#312,.T.);
#479=ORIENTED_EDGE('',*,*,#316,.T.);
#480=ORIENTED_EDGE('',*,*,#319,.T.);
#481=ORIENTED_EDGE('',*,*,#283,.F.);
#482=ORIENTED_EDGE('',*,*,#297,.F.);
#483=ORIENTED_EDGE('',*,*,#311,.F.);
#484=ORIENTED_EDGE('',*,*,#334,.F.);
#485=ORIENTED_EDGE('',*,*,#331,.F.);
#486=ORIENTED_EDGE('',*,*,#328,.F.);
#487=ORIENTED_EDGE('',*,*,#325,.F.);
#488=CYLINDRICAL_SURFACE('',#534,0.199999999999999);
#489=CYLINDRICAL_SURFACE('',#541,0.199999999999998);
#490=CYLINDRICAL_SURFACE('',#548,0.200000000000003);
#491=CYLINDRICAL_SURFACE('',#555,0.199999999999999);
#492=CYLINDRICAL_SURFACE('',#558,0.199999999999998);
#493=CYLINDRICAL_SURFACE('',#561,0.199999999999999);
#494=CYLINDRICAL_SURFACE('',#564,0.200000000000002);
#495=ADVANCED_FACE('',(#47),#488,.F.);
#496=ADVANCED_FACE('',(#48),#29,.T.);
#497=ADVANCED_FACE('',(#49),#30,.T.);
#498=ADVANCED_FACE('',(#50),#31,.T.);
#499=ADVANCED_FACE('',(#51,#15),#32,.T.);
#500=ADVANCED_FACE('',(#52),#489,.F.);
#501=ADVANCED_FACE('',(#53),#33,.T.);
#502=ADVANCED_FACE('',(#54),#34,.T.);
#503=ADVANCED_FACE('',(#55),#35,.T.);
#504=ADVANCED_FACE('',(#56,#16),#36,.T.);
#505=ADVANCED_FACE('',(#57),#490,.F.);
#506=ADVANCED_FACE('',(#58),#37,.T.);
#507=ADVANCED_FACE('',(#59),#38,.T.);
#508=ADVANCED_FACE('',(#60),#39,.T.);
#509=ADVANCED_FACE('',(#61,#17),#40,.T.);
#510=ADVANCED_FACE('',(#62),#491,.F.);
#511=ADVANCED_FACE('',(#63),#492,.F.);
#512=ADVANCED_FACE('',(#64),#493,.F.);
#513=ADVANCED_FACE('',(#65),#494,.F.);
#514=ADVANCED_FACE('',(#66),#41,.T.);
#515=ADVANCED_FACE('',(#67),#42,.T.);
#516=ADVANCED_FACE('',(#68),#43,.T.);
#517=ADVANCED_FACE('',(#69),#44,.T.);
#518=ADVANCED_FACE('',(#70,#18,#19,#20,#21),#45,.T.);
#519=ADVANCED_FACE('',(#71,#22,#23,#24,#25,#26,#27,#28),#46,.F.);
#520=CLOSED_SHELL('',(#495,#496,#497,#498,#499,#500,#501,#502,#503,#504,
#505,#506,#507,#508,#509,#510,#511,#512,#513,#514,#515,#516,#517,#518,#519));
#521=DERIVED_UNIT_ELEMENT(#523,1.);
#522=DERIVED_UNIT_ELEMENT(#854,-3.);
#523=(
MASS_UNIT()
NAMED_UNIT(*)
SI_UNIT(.KILO.,.GRAM.)
);
#524=DERIVED_UNIT((#521,#522));
#525=MEASURE_REPRESENTATION_ITEM('density measure',
POSITIVE_RATIO_MEASURE(1060.),#524);
#526=PROPERTY_DEFINITION_REPRESENTATION(#531,#528);
#527=PROPERTY_DEFINITION_REPRESENTATION(#532,#529);
#528=REPRESENTATION('material name',(#530),#851);
#529=REPRESENTATION('density',(#525),#851);
#530=DESCRIPTIVE_REPRESENTATION_ITEM('ABS \X2\D50CB77CC2A4D2F1\X0\',
'ABS \X2\D50CB77CC2A4D2F1\X0\');
#531=PROPERTY_DEFINITION('material property','material name',#861);
#532=PROPERTY_DEFINITION('material property','density of part',#861);
#533=AXIS2_PLACEMENT_3D('',#708,#573,#574);
#534=AXIS2_PLACEMENT_3D('',#709,#575,#576);
#535=AXIS2_PLACEMENT_3D('',#711,#577,#578);
#536=AXIS2_PLACEMENT_3D('',#714,#580,#581);
#537=AXIS2_PLACEMENT_3D('',#715,#582,#583);
#538=AXIS2_PLACEMENT_3D('',#724,#588,#589);
#539=AXIS2_PLACEMENT_3D('',#730,#593,#594);
#540=AXIS2_PLACEMENT_3D('',#736,#598,#599);
#541=AXIS2_PLACEMENT_3D('',#738,#601,#602);
#542=AXIS2_PLACEMENT_3D('',#740,#603,#604);
#543=AXIS2_PLACEMENT_3D('',#743,#606,#607);
#544=AXIS2_PLACEMENT_3D('',#744,#608,#609);
#545=AXIS2_PLACEMENT_3D('',#753,#614,#615);
#546=AXIS2_PLACEMENT_3D('',#759,#619,#620);
#547=AXIS2_PLACEMENT_3D('',#765,#624,#625);
#548=AXIS2_PLACEMENT_3D('',#767,#627,#628);
#549=AXIS2_PLACEMENT_3D('',#769,#629,#630);
#550=AXIS2_PLACEMENT_3D('',#772,#632,#633);
#551=AXIS2_PLACEMENT_3D('',#773,#634,#635);
#552=AXIS2_PLACEMENT_3D('',#782,#640,#641);
#553=AXIS2_PLACEMENT_3D('',#788,#645,#646);
#554=AXIS2_PLACEMENT_3D('',#794,#650,#651);
#555=AXIS2_PLACEMENT_3D('',#796,#653,#654);
#556=AXIS2_PLACEMENT_3D('',#798,#655,#656);
#557=AXIS2_PLACEMENT_3D('',#801,#658,#659);
#558=AXIS2_PLACEMENT_3D('',#802,#660,#661);
#559=AXIS2_PLACEMENT_3D('',#804,#662,#663);
#560=AXIS2_PLACEMENT_3D('',#807,#665,#666);
#561=AXIS2_PLACEMENT_3D('',#808,#667,#668);
#562=AXIS2_PLACEMENT_3D('',#810,#669,#670);
#563=AXIS2_PLACEMENT_3D('',#813,#672,#673);
#564=AXIS2_PLACEMENT_3D('',#814,#674,#675);
#565=AXIS2_PLACEMENT_3D('',#816,#676,#677);
#566=AXIS2_PLACEMENT_3D('',#819,#679,#680);
#567=AXIS2_PLACEMENT_3D('',#820,#681,#682);
#568=AXIS2_PLACEMENT_3D('',#830,#688,#689);
#569=AXIS2_PLACEMENT_3D('',#837,#694,#695);
#570=AXIS2_PLACEMENT_3D('',#843,#699,#700);
#571=AXIS2_PLACEMENT_3D('',#847,#704,#705);
#572=AXIS2_PLACEMENT_3D('',#848,#706,#707);
#573=DIRECTION('axis',(0.,0.,1.));
#574=DIRECTION('refdir',(1.,0.,0.));
#575=DIRECTION('center_axis',(0.,0.,1.));
#576=DIRECTION('ref_axis',(-1.,0.,0.));
#577=DIRECTION('center_axis',(0.,0.,-1.));
#578=DIRECTION('ref_axis',(-1.,0.,0.));
#579=DIRECTION('',(0.,0.,-1.));
#580=DIRECTION('center_axis',(0.,0.,-1.));
#581=DIRECTION('ref_axis',(-1.,0.,0.));
#582=DIRECTION('center_axis',(1.,0.,0.));
#583=DIRECTION('ref_axis',(0.,1.,0.));
#584=DIRECTION('',(0.,-1.,0.));
#585=DIRECTION('',(0.,0.,-1.));
#586=DIRECTION('',(0.,1.,0.));
#587=DIRECTION('',(0.,0.,1.));
#588=DIRECTION('center_axis',(0.,-1.,0.));
#589=DIRECTION('ref_axis',(1.,0.,0.));
#590=DIRECTION('',(-1.,0.,0.));
#591=DIRECTION('',(1.,0.,0.));
#592=DIRECTION('',(0.,0.,1.));
#593=DIRECTION('center_axis',(-1.,0.,0.));
#594=DIRECTION('ref_axis',(0.,-1.,0.));
#595=DIRECTION('',(0.,1.,0.));
#596=DIRECTION('',(0.,-1.,0.));
#597=DIRECTION('',(0.,0.,1.));
#598=DIRECTION('center_axis',(0.,0.,1.));
#599=DIRECTION('ref_axis',(-1.,0.,0.));
#600=DIRECTION('',(1.,0.,0.));
#601=DIRECTION('center_axis',(0.,0.,1.));
#602=DIRECTION('ref_axis',(-1.,0.,0.));
#603=DIRECTION('center_axis',(0.,0.,-1.));
#604=DIRECTION('ref_axis',(-1.,0.,0.));
#605=DIRECTION('',(0.,0.,-1.));
#606=DIRECTION('center_axis',(0.,0.,-1.));
#607=DIRECTION('ref_axis',(-1.,0.,0.));
#608=DIRECTION('center_axis',(1.,0.,0.));
#609=DIRECTION('ref_axis',(0.,1.,0.));
#610=DIRECTION('',(0.,-1.,0.));
#611=DIRECTION('',(0.,0.,1.));
#612=DIRECTION('',(0.,1.,0.));
#613=DIRECTION('',(0.,0.,1.));
#614=DIRECTION('center_axis',(0.,-1.,0.));
#615=DIRECTION('ref_axis',(1.,0.,0.));
#616=DIRECTION('',(-1.,0.,0.));
#617=DIRECTION('',(1.,0.,0.));
#618=DIRECTION('',(0.,0.,1.));
#619=DIRECTION('center_axis',(0.,1.,0.));
#620=DIRECTION('ref_axis',(-1.,0.,0.));
#621=DIRECTION('',(1.,0.,0.));
#622=DIRECTION('',(0.,0.,-1.));
#623=DIRECTION('',(-1.,0.,0.));
#624=DIRECTION('center_axis',(0.,0.,1.));
#625=DIRECTION('ref_axis',(-1.,0.,0.));
#626=DIRECTION('',(0.,1.,0.));
#627=DIRECTION('center_axis',(0.,0.,1.));
#628=DIRECTION('ref_axis',(-1.,0.,0.));
#629=DIRECTION('center_axis',(0.,0.,-1.));
#630=DIRECTION('ref_axis',(-1.,0.,0.));
#631=DIRECTION('',(0.,0.,-1.));
#632=DIRECTION('center_axis',(0.,0.,-1.));
#633=DIRECTION('ref_axis',(-1.,0.,0.));
#634=DIRECTION('center_axis',(-1.,0.,0.));
#635=DIRECTION('ref_axis',(0.,-1.,0.));
#636=DIRECTION('',(0.,1.,0.));
#637=DIRECTION('',(0.,0.,-1.));
#638=DIRECTION('',(0.,-1.,0.));
#639=DIRECTION('',(0.,0.,1.));
#640=DIRECTION('center_axis',(0.,1.,0.));
#641=DIRECTION('ref_axis',(-1.,0.,0.));
#642=DIRECTION('',(1.,0.,0.));
#643=DIRECTION('',(-1.,0.,0.));
#644=DIRECTION('',(0.,0.,1.));
#645=DIRECTION('center_axis',(1.,0.,0.));
#646=DIRECTION('ref_axis',(0.,1.,0.));
#647=DIRECTION('',(0.,-1.,0.));
#648=DIRECTION('',(0.,1.,0.));
#649=DIRECTION('',(0.,0.,1.));
#650=DIRECTION('center_axis',(0.,0.,1.));
#651=DIRECTION('ref_axis',(-1.,0.,0.));
#652=DIRECTION('',(-1.,0.,0.));
#653=DIRECTION('center_axis',(0.,0.,1.));
#654=DIRECTION('ref_axis',(-1.,0.,0.));
#655=DIRECTION('center_axis',(0.,0.,-1.));
#656=DIRECTION('ref_axis',(-1.,0.,0.));
#657=DIRECTION('',(0.,0.,-1.));
#658=DIRECTION('center_axis',(0.,0.,-1.));
#659=DIRECTION('ref_axis',(-1.,0.,0.));
#660=DIRECTION('center_axis',(0.,0.,1.));
#661=DIRECTION('ref_axis',(-1.,0.,0.));
#662=DIRECTION('center_axis',(0.,0.,-1.));
#663=DIRECTION('ref_axis',(-1.,0.,0.));
#664=DIRECTION('',(0.,0.,-1.));
#665=DIRECTION('center_axis',(0.,0.,-1.));
#666=DIRECTION('ref_axis',(-1.,0.,0.));
#667=DIRECTION('center_axis',(0.,0.,1.));
#668=DIRECTION('ref_axis',(-1.,0.,0.));
#669=DIRECTION('center_axis',(0.,0.,-1.));
#670=DIRECTION('ref_axis',(-1.,0.,0.));
#671=DIRECTION('',(0.,0.,-1.));
#672=DIRECTION('center_axis',(0.,0.,-1.));
#673=DIRECTION('ref_axis',(-1.,0.,0.));
#674=DIRECTION('center_axis',(0.,0.,1.));
#675=DIRECTION('ref_axis',(-1.,0.,0.));
#676=DIRECTION('center_axis',(0.,0.,-1.));
#677=DIRECTION('ref_axis',(-1.,0.,0.));
#678=DIRECTION('',(0.,0.,-1.));
#679=DIRECTION('center_axis',(0.,0.,-1.));
#680=DIRECTION('ref_axis',(-1.,0.,0.));
#681=DIRECTION('center_axis',(1.,0.,0.));
#682=DIRECTION('ref_axis',(0.,1.,0.));
#683=DIRECTION('',(0.,-1.,0.));
#684=DIRECTION('',(0.,0.,1.));
#685=DIRECTION('',(0.,1.,0.));
#686=DIRECTION('',(0.,0.,1.));
#687=DIRECTION('',(0.,-1.,0.));
#688=DIRECTION('center_axis',(0.,-1.,0.));
#689=DIRECTION('ref_axis',(1.,0.,0.));
#690=DIRECTION('',(1.,0.,0.));
#691=DIRECTION('',(1.,0.,0.));
#692=DIRECTION('',(0.,0.,1.));
#693=DIRECTION('',(1.,0.,0.));
#694=DIRECTION('center_axis',(-1.,0.,0.));
#695=DIRECTION('ref_axis',(0.,-1.,0.));
#696=DIRECTION('',(0.,-1.,0.));
#697=DIRECTION('',(0.,-1.,0.));
#698=DIRECTION('',(0.,0.,1.));
#699=DIRECTION('center_axis',(0.,1.,0.));
#700=DIRECTION('ref_axis',(-1.,0.,0.));
#701=DIRECTION('',(-1.,0.,0.));
#702=DIRECTION('',(-1.,0.,0.));
#703=DIRECTION('',(-1.,0.,0.));
#704=DIRECTION('center_axis',(0.,0.,1.));
#705=DIRECTION('ref_axis',(-1.,0.,0.));
#706=DIRECTION('center_axis',(0.,0.,1.));
#707=DIRECTION('ref_axis',(-1.,0.,0.));
#708=CARTESIAN_POINT('',(0.,0.,0.));
#709=CARTESIAN_POINT('Origin',(2.93273234423093,25.8511318205395,1.));
#710=CARTESIAN_POINT('',(3.13273234423093,25.8511318205395,1.3));
#711=CARTESIAN_POINT('Origin',(2.93273234423093,25.8511318205395,1.3));
#712=CARTESIAN_POINT('',(3.13273234423093,25.8511318205395,1.));
#713=CARTESIAN_POINT('',(3.13273234423093,25.8511318205395,1.));
#714=CARTESIAN_POINT('Origin',(2.93273234423093,25.8511318205395,1.));
#715=CARTESIAN_POINT('Origin',(3.50000005215406,24.8000003695488,1.));
#716=CARTESIAN_POINT('',(3.50000005215406,27.0000004023314,1.));
#717=CARTESIAN_POINT('',(3.50000005215406,24.8000003695488,1.));
#718=CARTESIAN_POINT('',(3.50000005215406,27.0000004023314,1.));
#719=CARTESIAN_POINT('',(3.50000005215406,27.0000004023314,1.3));
#720=CARTESIAN_POINT('',(3.50000005215406,27.0000004023314,1.));
#721=CARTESIAN_POINT('',(3.50000005215406,24.8000003695488,1.3));
#722=CARTESIAN_POINT('',(3.50000005215406,27.0000004023314,1.3));
#723=CARTESIAN_POINT('',(3.50000005215406,24.8000003695488,1.));
#724=CARTESIAN_POINT('Origin',(2.40000003576279,24.8000003695488,1.));
#725=CARTESIAN_POINT('',(2.40000003576279,24.8000003695488,1.));
#726=CARTESIAN_POINT('',(3.50000005215406,24.8000003695488,1.));
#727=CARTESIAN_POINT('',(2.40000003576279,24.8000003695488,1.3));
#728=CARTESIAN_POINT('',(3.50000005215406,24.8000003695488,1.3));
#729=CARTESIAN_POINT('',(2.40000003576279,24.8000003695488,1.));
#730=CARTESIAN_POINT('Origin',(2.40000003576279,27.0000004023314,1.));
#731=CARTESIAN_POINT('',(2.40000003576279,27.0000004023314,1.));
#732=CARTESIAN_POINT('',(2.40000003576279,24.8000003695488,1.));
#733=CARTESIAN_POINT('',(2.40000003576279,27.0000004023314,1.3));
#734=CARTESIAN_POINT('',(2.40000003576279,24.8000003695488,1.3));
#735=CARTESIAN_POINT('',(2.40000003576279,27.0000004023314,1.));
#736=CARTESIAN_POINT('Origin',(2.95000004395843,25.9000003859401,1.3));
#737=CARTESIAN_POINT('',(1.57500002346933,27.0000004023314,1.3));
#738=CARTESIAN_POINT('Origin',(4.47448322769399,29.849288866729,1.));
#739=CARTESIAN_POINT('',(4.67448322769399,29.849288866729,1.3));
#740=CARTESIAN_POINT('Origin',(4.47448322769399,29.849288866729,1.3));
#741=CARTESIAN_POINT('',(4.67448322769399,29.849288866729,1.));
#742=CARTESIAN_POINT('',(4.67448322769399,29.849288866729,1.));
#743=CARTESIAN_POINT('Origin',(4.47448322769399,29.849288866729,1.));
#744=CARTESIAN_POINT('Origin',(5.40000008046627,29.0000004321337,1.));
#745=CARTESIAN_POINT('',(5.40000008046627,30.6000004559755,1.));
#746=CARTESIAN_POINT('',(5.40000008046627,29.0000004321337,1.));
#747=CARTESIAN_POINT('',(5.40000008046627,30.6000004559755,1.));
#748=CARTESIAN_POINT('',(5.40000008046627,30.6000004559755,1.3));
#749=CARTESIAN_POINT('',(5.40000008046627,30.6000004559755,1.));
#750=CARTESIAN_POINT('',(5.40000008046627,29.0000004321337,1.3));
#751=CARTESIAN_POINT('',(5.40000008046627,30.6000004559755,1.3));
#752=CARTESIAN_POINT('',(5.40000008046627,29.0000004321337,1.));
#753=CARTESIAN_POINT('Origin',(3.80203696264969,29.0000004321337,1.));
#754=CARTESIAN_POINT('',(3.80203696264969,29.0000004321337,1.));
#755=CARTESIAN_POINT('',(5.40000008046627,29.0000004321337,1.));
#756=CARTESIAN_POINT('',(3.80203696264969,29.0000004321337,1.3));
#757=CARTESIAN_POINT('',(5.40000008046627,29.0000004321337,1.3));
#758=CARTESIAN_POINT('',(3.80203696264969,29.0000004321337,1.));
#759=CARTESIAN_POINT('Origin',(5.40000008046627,30.6000004559755,1.));
#760=CARTESIAN_POINT('',(3.80203696264969,30.6000004559755,1.));
#761=CARTESIAN_POINT('',(3.80203696264969,30.6000004559755,1.));
#762=CARTESIAN_POINT('',(3.80203696264969,30.6000004559755,1.3));
#763=CARTESIAN_POINT('',(3.80203696264969,30.6000004559755,1.));
#764=CARTESIAN_POINT('',(3.80203696264969,30.6000004559755,1.3));
#765=CARTESIAN_POINT('Origin',(4.60101852155798,29.8000004440546,1.3));
#766=CARTESIAN_POINT('',(3.80203696264969,28.400000423193,1.3));
#767=CARTESIAN_POINT('Origin',(2.47461343001741,33.1492959191435,1.));
#768=CARTESIAN_POINT('',(2.67461343001741,33.1492959191435,1.3));
#769=CARTESIAN_POINT('Origin',(2.47461343001741,33.1492959191435,1.3));
#770=CARTESIAN_POINT('',(2.67461343001741,33.1492959191435,1.));
#771=CARTESIAN_POINT('',(2.67461343001741,33.1492959191435,1.));
#772=CARTESIAN_POINT('Origin',(2.47461343001741,33.1492959191435,1.));
#773=CARTESIAN_POINT('Origin',(1.63055854803548,33.7838138127461,1.));
#774=CARTESIAN_POINT('',(1.63055854803548,31.6042394963881,1.));
#775=CARTESIAN_POINT('',(1.63055854803548,33.7838138127461,1.));
#776=CARTESIAN_POINT('',(1.63055854803548,31.6042394963881,1.));
#777=CARTESIAN_POINT('',(1.63055854803548,31.6042394963881,1.3));
#778=CARTESIAN_POINT('',(1.63055854803548,31.6042394963881,1.));
#779=CARTESIAN_POINT('',(1.63055854803548,33.7838138127461,1.3));
#780=CARTESIAN_POINT('',(1.63055854803548,31.6042394963881,1.3));
#781=CARTESIAN_POINT('',(1.63055854803548,33.7838138127461,1.));
#782=CARTESIAN_POINT('Origin',(3.5,33.7838138127461,1.));
#783=CARTESIAN_POINT('',(3.5,33.7838138127461,1.));
#784=CARTESIAN_POINT('',(1.43293444486928,33.7838138127461,1.));
#785=CARTESIAN_POINT('',(3.5,33.7838138127461,1.3));
#786=CARTESIAN_POINT('',(1.43293444486928,33.7838138127461,1.3));
#787=CARTESIAN_POINT('',(3.5,33.7838138127461,1.));
#788=CARTESIAN_POINT('Origin',(3.5,31.6042394963881,1.));
#789=CARTESIAN_POINT('',(3.5,31.6042394963881,1.));
#790=CARTESIAN_POINT('',(3.5,32.5,1.));
#791=CARTESIAN_POINT('',(3.5,31.6042394963881,1.3));
#792=CARTESIAN_POINT('',(3.5,32.5,1.3));
#793=CARTESIAN_POINT('',(3.5,31.6042394963881,1.));
#794=CARTESIAN_POINT('Origin',(2.56527927401774,32.6940266545671,1.3));
#795=CARTESIAN_POINT('',(3.18365811833371,31.6042394963881,1.3));
#796=CARTESIAN_POINT('Origin',(0.865702943009676,27.5914387164901,1.));
#797=CARTESIAN_POINT('',(1.06570294300968,27.5914387164901,1.5));
#798=CARTESIAN_POINT('Origin',(0.865702943009676,27.5914387164901,1.5));
#799=CARTESIAN_POINT('',(1.06570294300968,27.5914387164901,1.));
#800=CARTESIAN_POINT('',(1.06570294300968,27.5914387164901,1.));
#801=CARTESIAN_POINT('Origin',(0.865702943009676,27.5914387164901,1.));
#802=CARTESIAN_POINT('Origin',(0.865702943009676,30.7914387164901,1.));
#803=CARTESIAN_POINT('',(1.06570294300967,30.7914387164901,1.5));
#804=CARTESIAN_POINT('Origin',(0.865702943009676,30.7914387164901,1.5));
#805=CARTESIAN_POINT('',(1.06570294300967,30.7914387164901,1.));
#806=CARTESIAN_POINT('',(1.06570294300967,30.7914387164901,1.));
#807=CARTESIAN_POINT('Origin',(0.865702943009676,30.7914387164901,1.));
#808=CARTESIAN_POINT('Origin',(3.16570294300968,27.5914387164901,1.));
#809=CARTESIAN_POINT('',(3.36570294300967,27.5914387164901,1.5));
#810=CARTESIAN_POINT('Origin',(3.16570294300968,27.5914387164901,1.5));
#811=CARTESIAN_POINT('',(3.36570294300967,27.5914387164901,1.));
#812=CARTESIAN_POINT('',(3.36570294300967,27.5914387164901,1.));
#813=CARTESIAN_POINT('Origin',(3.16570294300968,27.5914387164901,1.));
#814=CARTESIAN_POINT('Origin',(3.16570294300968,30.7914387164901,1.));
#815=CARTESIAN_POINT('',(3.36570294300968,30.7914387164901,1.5));
#816=CARTESIAN_POINT('Origin',(3.16570294300968,30.7914387164901,1.5));
#817=CARTESIAN_POINT('',(3.36570294300968,30.7914387164901,1.));
#818=CARTESIAN_POINT('',(3.36570294300968,30.7914387164901,1.));
#819=CARTESIAN_POINT('Origin',(3.16570294300968,30.7914387164901,1.));
#820=CARTESIAN_POINT('Origin',(3.80203696264969,27.0000004023314,1.));
#821=CARTESIAN_POINT('',(3.80203696264969,31.6042394963881,1.));
#822=CARTESIAN_POINT('',(3.80203696264969,29.0000004321337,1.));
#823=CARTESIAN_POINT('',(3.80203696264969,31.6042394963881,1.5));
#824=CARTESIAN_POINT('',(3.80203696264969,31.6042394963881,1.));
#825=CARTESIAN_POINT('',(3.80203696264969,27.0000004023314,1.5));
#826=CARTESIAN_POINT('',(3.80203696264969,29.0000004321337,1.5));
#827=CARTESIAN_POINT('',(3.80203696264969,27.0000004023314,1.));
#828=CARTESIAN_POINT('',(3.80203696264969,27.0000004023314,1.));
#829=CARTESIAN_POINT('',(3.80203696264969,29.0000004321337,1.));
#830=CARTESIAN_POINT('Origin',(0.200000002980232,27.0000004023314,1.));
#831=CARTESIAN_POINT('',(0.200000002980232,27.0000004023314,1.));
#832=CARTESIAN_POINT('',(0.200000002980232,27.0000004023314,1.5));
#833=CARTESIAN_POINT('',(0.200000002980232,27.0000004023314,1.5));
#834=CARTESIAN_POINT('',(0.200000002980232,27.0000004023314,1.));
#835=CARTESIAN_POINT('',(0.200000002980232,27.0000004023314,1.));
#836=CARTESIAN_POINT('',(0.200000002980232,27.0000004023314,1.));
#837=CARTESIAN_POINT('Origin',(0.200000002980232,31.6042394963881,1.));
#838=CARTESIAN_POINT('',(0.200000002980232,31.6042394963881,1.));
#839=CARTESIAN_POINT('',(0.200000002980232,33.7838138127461,1.));
#840=CARTESIAN_POINT('',(0.200000002980232,31.6042394963881,1.5));
#841=CARTESIAN_POINT('',(0.200000002980232,33.7838138127461,1.5));
#842=CARTESIAN_POINT('',(0.200000002980232,31.6042394963881,1.));
#843=CARTESIAN_POINT('Origin',(3.80203696264969,31.6042394963881,1.));
#844=CARTESIAN_POINT('',(3.5,31.6042394963881,1.));
#845=CARTESIAN_POINT('',(3.5,31.6042394963881,1.5));
#846=CARTESIAN_POINT('',(3.5,31.6042394963881,1.));
#847=CARTESIAN_POINT('Origin',(2.00101848281496,29.3021199493597,1.5));
#848=CARTESIAN_POINT('Origin',(2.00101848281496,29.3021199493597,1.));
#849=UNCERTAINTY_MEASURE_WITH_UNIT(LENGTH_MEASURE(0.001),#853,
'DISTANCE_ACCURACY_VALUE',
'Maximum model space distance between geometric entities at asserted c
onnectivities');
#850=UNCERTAINTY_MEASURE_WITH_UNIT(LENGTH_MEASURE(0.001),#853,
'DISTANCE_ACCURACY_VALUE',
'Maximum model space distance between geometric entities at asserted c
onnectivities');
#851=(
GEOMETRIC_REPRESENTATION_CONTEXT(3)
GLOBAL_UNCERTAINTY_ASSIGNED_CONTEXT((#849))
GLOBAL_UNIT_ASSIGNED_CONTEXT((#853,#855,#856))
REPRESENTATION_CONTEXT('','3D')
);
#852=(
GEOMETRIC_REPRESENTATION_CONTEXT(3)
GLOBAL_UNCERTAINTY_ASSIGNED_CONTEXT((#850))
GLOBAL_UNIT_ASSIGNED_CONTEXT((#853,#855,#856))
REPRESENTATION_CONTEXT('','3D')
);
#853=(
LENGTH_UNIT()
NAMED_UNIT(*)
SI_UNIT(.CENTI.,.METRE.)
);
#854=(
LENGTH_UNIT()
NAMED_UNIT(*)
SI_UNIT($,.METRE.)
);
#855=(
NAMED_UNIT(*)
PLANE_ANGLE_UNIT()
SI_UNIT($,.RADIAN.)
);
#856=(
NAMED_UNIT(*)
SI_UNIT($,.STERADIAN.)
SOLID_ANGLE_UNIT()
);
#857=SHAPE_DEFINITION_REPRESENTATION(#858,#859);
#858=PRODUCT_DEFINITION_SHAPE('',$,#861);
#859=SHAPE_REPRESENTATION('',(#533),#851);
#860=PRODUCT_DEFINITION_CONTEXT('part definition',#865,'design');
#861=PRODUCT_DEFINITION('2026-08-08-22-00-43-571','PC817',#862,#860);
#862=PRODUCT_DEFINITION_FORMATION('',$,#867);
#863=PRODUCT_RELATED_PRODUCT_CATEGORY('PC817','PC817',(#867));
#864=APPLICATION_PROTOCOL_DEFINITION('international standard',
'automotive_design',2009,#865);
#865=APPLICATION_CONTEXT(
'Core Data for Automotive Mechanical Design Process');
#866=PRODUCT_CONTEXT('part definition',#865,'mechanical');
#867=PRODUCT('2026-08-08-22-00-43-571','PC817',$,(#866));
#868=PRESENTATION_STYLE_ASSIGNMENT((#869));
#869=SURFACE_STYLE_USAGE(.BOTH.,#870);
#870=SURFACE_SIDE_STYLE('',(#871));
#871=SURFACE_STYLE_FILL_AREA(#872);
#872=FILL_AREA_STYLE('ABS(\X2\D770C0C9\X0\)',(#873));
#873=FILL_AREA_STYLE_COLOUR('ABS(\X2\D770C0C9\X0\)',#874);
#874=COLOUR_RGB('ABS(\X2\D770C0C9\X0\)',0.964705882352941,0.964705882352941,
0.952941176470588);
ENDSEC;
END-ISO-10303-21;
