ISO-10303-21;
HEADER;
/* Generated by software containing ST-Developer
 * from STEP Tools, Inc. (www.steptools.com) 
 */

FILE_DESCRIPTION(
/* description */ (''),
/* implementation_level */ '2;1');

FILE_NAME(
/* name */ 'plate back.step',
/* time_stamp */ '2026-08-31T17:56:10+09:00',
/* author */ (''),
/* organization */ (''),
/* preprocessor_version */ 'ST-DEVELOPER v20.1',
/* originating_system */ 'Autodesk Translation Framework v15.8.0.0',
/* authorisation */ '');

FILE_SCHEMA (('AUTOMOTIVE_DESIGN { 1 0 10303 214 3 1 1 }'));
ENDSEC;

DATA;
#10=MECHANICAL_DESIGN_GEOMETRIC_PRESENTATION_REPRESENTATION('',(#13),#521);
#11=SHAPE_REPRESENTATION_RELATIONSHIP('SRR','None',#528,#12);
#12=ADVANCED_BREP_SHAPE_REPRESENTATION('',(#14),#520);
#13=STYLED_ITEM('',(#537),#14);
#14=MANIFOLD_SOLID_BREP('\X2\BCF8CCB4\X0\1',#297);
#15=LINE('',#455,#33);
#16=LINE('',#458,#34);
#17=LINE('',#461,#35);
#18=LINE('',#463,#36);
#19=LINE('',#464,#37);
#20=LINE('',#468,#38);
#21=LINE('',#473,#39);
#22=LINE('',#481,#40);
#23=LINE('',#486,#41);
#24=LINE('',#493,#42);
#25=LINE('',#497,#43);
#26=LINE('',#501,#44);
#27=LINE('',#505,#45);
#28=LINE('',#509,#46);
#29=LINE('',#511,#47);
#30=LINE('',#512,#48);
#31=LINE('',#514,#49);
#32=LINE('',#515,#50);
#33=VECTOR('',#365,1.);
#34=VECTOR('',#368,1.);
#35=VECTOR('',#371,1.);
#36=VECTOR('',#372,1.);
#37=VECTOR('',#373,1.);
#38=VECTOR('',#378,0.525000000000002);
#39=VECTOR('',#383,0.4);
#40=VECTOR('',#394,0.525);
#41=VECTOR('',#399,0.399999999999999);
#42=VECTOR('',#408,0.25);
#43=VECTOR('',#413,0.349999999999998);
#44=VECTOR('',#418,0.35);
#45=VECTOR('',#423,0.25);
#46=VECTOR('',#428,1.);
#47=VECTOR('',#429,1.);
#48=VECTOR('',#430,1.);
#49=VECTOR('',#433,1.);
#50=VECTOR('',#434,1.);
#51=CYLINDRICAL_SURFACE('',#317,1.);
#52=CYLINDRICAL_SURFACE('',#321,0.525000000000002);
#53=CYLINDRICAL_SURFACE('',#323,0.4);
#54=CYLINDRICAL_SURFACE('',#328,0.525);
#55=CYLINDRICAL_SURFACE('',#330,0.399999999999999);
#56=CYLINDRICAL_SURFACE('',#335,0.25);
#57=CYLINDRICAL_SURFACE('',#337,0.349999999999998);
#58=CYLINDRICAL_SURFACE('',#339,0.35);
#59=CYLINDRICAL_SURFACE('',#341,0.25);
#60=FACE_BOUND('',#91,.T.);
#61=FACE_BOUND('',#93,.T.);
#62=FACE_BOUND('',#99,.T.);
#63=FACE_BOUND('',#103,.T.);
#64=FACE_BOUND('',#111,.T.);
#65=FACE_BOUND('',#112,.T.);
#66=FACE_BOUND('',#113,.T.);
#67=FACE_BOUND('',#114,.T.);
#68=FACE_BOUND('',#116,.T.);
#69=FACE_BOUND('',#117,.T.);
#70=FACE_BOUND('',#118,.T.);
#71=FACE_BOUND('',#119,.T.);
#72=FACE_OUTER_BOUND('',#90,.T.);
#73=FACE_OUTER_BOUND('',#92,.T.);
#74=FACE_OUTER_BOUND('',#94,.T.);
#75=FACE_OUTER_BOUND('',#95,.T.);
#76=FACE_OUTER_BOUND('',#96,.T.);
#77=FACE_OUTER_BOUND('',#97,.T.);
#78=FACE_OUTER_BOUND('',#98,.T.);
#79=FACE_OUTER_BOUND('',#100,.T.);
#80=FACE_OUTER_BOUND('',#101,.T.);
#81=FACE_OUTER_BOUND('',#102,.T.);
#82=FACE_OUTER_BOUND('',#104,.T.);
#83=FACE_OUTER_BOUND('',#105,.T.);
#84=FACE_OUTER_BOUND('',#106,.T.);
#85=FACE_OUTER_BOUND('',#107,.T.);
#86=FACE_OUTER_BOUND('',#108,.T.);
#87=FACE_OUTER_BOUND('',#109,.T.);
#88=FACE_OUTER_BOUND('',#110,.T.);
#89=FACE_OUTER_BOUND('',#115,.T.);
#90=EDGE_LOOP('',(#198));
#91=EDGE_LOOP('',(#199));
#92=EDGE_LOOP('',(#200));
#93=EDGE_LOOP('',(#201));
#94=EDGE_LOOP('',(#202,#203,#204,#205));
#95=EDGE_LOOP('',(#206,#207,#208,#209));
#96=EDGE_LOOP('',(#210,#211,#212,#213));
#97=EDGE_LOOP('',(#214,#215,#216,#217));
#98=EDGE_LOOP('',(#218));
#99=EDGE_LOOP('',(#219));
#100=EDGE_LOOP('',(#220,#221,#222,#223));
#101=EDGE_LOOP('',(#224,#225,#226,#227));
#102=EDGE_LOOP('',(#228));
#103=EDGE_LOOP('',(#229));
#104=EDGE_LOOP('',(#230,#231,#232,#233));
#105=EDGE_LOOP('',(#234,#235,#236,#237));
#106=EDGE_LOOP('',(#238,#239,#240,#241));
#107=EDGE_LOOP('',(#242,#243,#244,#245));
#108=EDGE_LOOP('',(#246,#247,#248,#249));
#109=EDGE_LOOP('',(#250,#251,#252,#253));
#110=EDGE_LOOP('',(#254,#255,#256,#257));
#111=EDGE_LOOP('',(#258));
#112=EDGE_LOOP('',(#259));
#113=EDGE_LOOP('',(#260));
#114=EDGE_LOOP('',(#261));
#115=EDGE_LOOP('',(#262,#263,#264,#265));
#116=EDGE_LOOP('',(#266));
#117=EDGE_LOOP('',(#267));
#118=EDGE_LOOP('',(#268));
#119=EDGE_LOOP('',(#269));
#120=CIRCLE('',#312,0.525);
#121=CIRCLE('',#313,0.35);
#122=CIRCLE('',#315,0.525000000000002);
#123=CIRCLE('',#316,0.349999999999998);
#124=CIRCLE('',#318,1.);
#125=CIRCLE('',#319,1.);
#126=CIRCLE('',#322,0.525000000000002);
#127=CIRCLE('',#324,0.4);
#128=CIRCLE('',#325,0.4);
#129=CIRCLE('',#327,0.25);
#130=CIRCLE('',#329,0.525);
#131=CIRCLE('',#331,0.399999999999999);
#132=CIRCLE('',#332,0.399999999999999);
#133=CIRCLE('',#334,0.25);
#134=CIRCLE('',#336,0.25);
#135=CIRCLE('',#338,0.349999999999998);
#136=CIRCLE('',#340,0.35);
#137=CIRCLE('',#342,0.25);
#138=VERTEX_POINT('',#441);
#139=VERTEX_POINT('',#443);
#140=VERTEX_POINT('',#446);
#141=VERTEX_POINT('',#448);
#142=VERTEX_POINT('',#451);
#143=VERTEX_POINT('',#452);
#144=VERTEX_POINT('',#454);
#145=VERTEX_POINT('',#456);
#146=VERTEX_POINT('',#460);
#147=VERTEX_POINT('',#462);
#148=VERTEX_POINT('',#466);
#149=VERTEX_POINT('',#470);
#150=VERTEX_POINT('',#472);
#151=VERTEX_POINT('',#476);
#152=VERTEX_POINT('',#479);
#153=VERTEX_POINT('',#483);
#154=VERTEX_POINT('',#485);
#155=VERTEX_POINT('',#489);
#156=VERTEX_POINT('',#492);
#157=VERTEX_POINT('',#496);
#158=VERTEX_POINT('',#500);
#159=VERTEX_POINT('',#504);
#160=VERTEX_POINT('',#508);
#161=VERTEX_POINT('',#510);
#162=EDGE_CURVE('',#138,#138,#120,.T.);
#163=EDGE_CURVE('',#139,#139,#121,.T.);
#164=EDGE_CURVE('',#140,#140,#122,.T.);
#165=EDGE_CURVE('',#141,#141,#123,.T.);
#166=EDGE_CURVE('',#142,#143,#124,.T.);
#167=EDGE_CURVE('',#142,#144,#15,.T.);
#168=EDGE_CURVE('',#145,#144,#125,.T.);
#169=EDGE_CURVE('',#145,#143,#16,.T.);
#170=EDGE_CURVE('',#144,#146,#17,.T.);
#171=EDGE_CURVE('',#146,#147,#18,.T.);
#172=EDGE_CURVE('',#145,#147,#19,.T.);
#173=EDGE_CURVE('',#148,#148,#126,.T.);
#174=EDGE_CURVE('',#148,#140,#20,.T.);
#175=EDGE_CURVE('',#149,#149,#127,.T.);
#176=EDGE_CURVE('',#149,#150,#21,.T.);
#177=EDGE_CURVE('',#150,#150,#128,.T.);
#178=EDGE_CURVE('',#151,#151,#129,.T.);
#179=EDGE_CURVE('',#152,#152,#130,.T.);
#180=EDGE_CURVE('',#152,#138,#22,.T.);
#181=EDGE_CURVE('',#153,#153,#131,.T.);
#182=EDGE_CURVE('',#153,#154,#23,.T.);
#183=EDGE_CURVE('',#154,#154,#132,.T.);
#184=EDGE_CURVE('',#155,#155,#133,.T.);
#185=EDGE_CURVE('',#155,#156,#24,.T.);
#186=EDGE_CURVE('',#156,#156,#134,.T.);
#187=EDGE_CURVE('',#141,#157,#25,.T.);
#188=EDGE_CURVE('',#157,#157,#135,.T.);
#189=EDGE_CURVE('',#139,#158,#26,.T.);
#190=EDGE_CURVE('',#158,#158,#136,.T.);
#191=EDGE_CURVE('',#151,#159,#27,.T.);
#192=EDGE_CURVE('',#159,#159,#137,.T.);
#193=EDGE_CURVE('',#160,#143,#28,.T.);
#194=EDGE_CURVE('',#161,#160,#29,.T.);
#195=EDGE_CURVE('',#161,#142,#30,.T.);
#196=EDGE_CURVE('',#146,#161,#31,.T.);
#197=EDGE_CURVE('',#147,#160,#32,.T.);
#198=ORIENTED_EDGE('',*,*,#162,.F.);
#199=ORIENTED_EDGE('',*,*,#163,.F.);
#200=ORIENTED_EDGE('',*,*,#164,.F.);
#201=ORIENTED_EDGE('',*,*,#165,.F.);
#202=ORIENTED_EDGE('',*,*,#166,.F.);
#203=ORIENTED_EDGE('',*,*,#167,.T.);
#204=ORIENTED_EDGE('',*,*,#168,.F.);
#205=ORIENTED_EDGE('',*,*,#169,.T.);
#206=ORIENTED_EDGE('',*,*,#168,.T.);
#207=ORIENTED_EDGE('',*,*,#170,.T.);
#208=ORIENTED_EDGE('',*,*,#171,.T.);
#209=ORIENTED_EDGE('',*,*,#172,.F.);
#210=ORIENTED_EDGE('',*,*,#173,.F.);
#211=ORIENTED_EDGE('',*,*,#174,.T.);
#212=ORIENTED_EDGE('',*,*,#164,.T.);
#213=ORIENTED_EDGE('',*,*,#174,.F.);
#214=ORIENTED_EDGE('',*,*,#175,.F.);
#215=ORIENTED_EDGE('',*,*,#176,.T.);
#216=ORIENTED_EDGE('',*,*,#177,.T.);
#217=ORIENTED_EDGE('',*,*,#176,.F.);
#218=ORIENTED_EDGE('',*,*,#177,.F.);
#219=ORIENTED_EDGE('',*,*,#178,.F.);
#220=ORIENTED_EDGE('',*,*,#179,.F.);
#221=ORIENTED_EDGE('',*,*,#180,.T.);
#222=ORIENTED_EDGE('',*,*,#162,.T.);
#223=ORIENTED_EDGE('',*,*,#180,.F.);
#224=ORIENTED_EDGE('',*,*,#181,.F.);
#225=ORIENTED_EDGE('',*,*,#182,.T.);
#226=ORIENTED_EDGE('',*,*,#183,.T.);
#227=ORIENTED_EDGE('',*,*,#182,.F.);
#228=ORIENTED_EDGE('',*,*,#183,.F.);
#229=ORIENTED_EDGE('',*,*,#184,.F.);
#230=ORIENTED_EDGE('',*,*,#184,.T.);
#231=ORIENTED_EDGE('',*,*,#185,.T.);
#232=ORIENTED_EDGE('',*,*,#186,.T.);
#233=ORIENTED_EDGE('',*,*,#185,.F.);
#234=ORIENTED_EDGE('',*,*,#165,.T.);
#235=ORIENTED_EDGE('',*,*,#187,.T.);
#236=ORIENTED_EDGE('',*,*,#188,.T.);
#237=ORIENTED_EDGE('',*,*,#187,.F.);
#238=ORIENTED_EDGE('',*,*,#163,.T.);
#239=ORIENTED_EDGE('',*,*,#189,.T.);
#240=ORIENTED_EDGE('',*,*,#190,.T.);
#241=ORIENTED_EDGE('',*,*,#189,.F.);
#242=ORIENTED_EDGE('',*,*,#178,.T.);
#243=ORIENTED_EDGE('',*,*,#191,.T.);
#244=ORIENTED_EDGE('',*,*,#192,.T.);
#245=ORIENTED_EDGE('',*,*,#191,.F.);
#246=ORIENTED_EDGE('',*,*,#166,.T.);
#247=ORIENTED_EDGE('',*,*,#193,.F.);
#248=ORIENTED_EDGE('',*,*,#194,.F.);
#249=ORIENTED_EDGE('',*,*,#195,.T.);
#250=ORIENTED_EDGE('',*,*,#196,.T.);
#251=ORIENTED_EDGE('',*,*,#194,.T.);
#252=ORIENTED_EDGE('',*,*,#197,.F.);
#253=ORIENTED_EDGE('',*,*,#171,.F.);
#254=ORIENTED_EDGE('',*,*,#169,.F.);
#255=ORIENTED_EDGE('',*,*,#172,.T.);
#256=ORIENTED_EDGE('',*,*,#197,.T.);
#257=ORIENTED_EDGE('',*,*,#193,.T.);
#258=ORIENTED_EDGE('',*,*,#181,.T.);
#259=ORIENTED_EDGE('',*,*,#179,.T.);
#260=ORIENTED_EDGE('',*,*,#175,.T.);
#261=ORIENTED_EDGE('',*,*,#173,.T.);
#262=ORIENTED_EDGE('',*,*,#170,.F.);
#263=ORIENTED_EDGE('',*,*,#167,.F.);
#264=ORIENTED_EDGE('',*,*,#195,.F.);
#265=ORIENTED_EDGE('',*,*,#196,.F.);
#266=ORIENTED_EDGE('',*,*,#192,.F.);
#267=ORIENTED_EDGE('',*,*,#190,.F.);
#268=ORIENTED_EDGE('',*,*,#188,.F.);
#269=ORIENTED_EDGE('',*,*,#186,.F.);
#270=PLANE('',#311);
#271=PLANE('',#314);
#272=PLANE('',#320);
#273=PLANE('',#326);
#274=PLANE('',#333);
#275=PLANE('',#343);
#276=PLANE('',#344);
#277=PLANE('',#345);
#278=PLANE('',#346);
#279=ADVANCED_FACE('',(#72,#60),#270,.T.);
#280=ADVANCED_FACE('',(#73,#61),#271,.T.);
#281=ADVANCED_FACE('',(#74),#51,.T.);
#282=ADVANCED_FACE('',(#75),#272,.T.);
#283=ADVANCED_FACE('',(#76),#52,.F.);
#284=ADVANCED_FACE('',(#77),#53,.F.);
#285=ADVANCED_FACE('',(#78,#62),#273,.T.);
#286=ADVANCED_FACE('',(#79),#54,.F.);
#287=ADVANCED_FACE('',(#80),#55,.F.);
#288=ADVANCED_FACE('',(#81,#63),#274,.T.);
#289=ADVANCED_FACE('',(#82),#56,.F.);
#290=ADVANCED_FACE('',(#83),#57,.F.);
#291=ADVANCED_FACE('',(#84),#58,.F.);
#292=ADVANCED_FACE('',(#85),#59,.F.);
#293=ADVANCED_FACE('',(#86),#275,.T.);
#294=ADVANCED_FACE('',(#87),#276,.T.);
#295=ADVANCED_FACE('',(#88,#64,#65,#66,#67),#277,.T.);
#296=ADVANCED_FACE('',(#89,#68,#69,#70,#71),#278,.F.);
#297=CLOSED_SHELL('',(#279,#280,#281,#282,#283,#284,#285,#286,#287,#288,
#289,#290,#291,#292,#293,#294,#295,#296));
#298=DERIVED_UNIT_ELEMENT(#300,1.);
#299=DERIVED_UNIT_ELEMENT(#523,-3.);
#300=(
MASS_UNIT()
NAMED_UNIT(*)
SI_UNIT(.KILO.,.GRAM.)
);
#301=DERIVED_UNIT((#298,#299));
#302=MEASURE_REPRESENTATION_ITEM('density measure',
POSITIVE_RATIO_MEASURE(1060.),#301);
#303=PROPERTY_DEFINITION_REPRESENTATION(#308,#305);
#304=PROPERTY_DEFINITION_REPRESENTATION(#309,#306);
#305=REPRESENTATION('material name',(#307),#520);
#306=REPRESENTATION('density',(#302),#520);
#307=DESCRIPTIVE_REPRESENTATION_ITEM('ABS \X2\D50CB77CC2A4D2F1\X0\',
'ABS \X2\D50CB77CC2A4D2F1\X0\');
#308=PROPERTY_DEFINITION('material property','material name',#530);
#309=PROPERTY_DEFINITION('material property','density of part',#530);
#310=AXIS2_PLACEMENT_3D('',#439,#347,#348);
#311=AXIS2_PLACEMENT_3D('',#440,#349,#350);
#312=AXIS2_PLACEMENT_3D('',#442,#351,#352);
#313=AXIS2_PLACEMENT_3D('',#444,#353,#354);
#314=AXIS2_PLACEMENT_3D('',#445,#355,#356);
#315=AXIS2_PLACEMENT_3D('',#447,#357,#358);
#316=AXIS2_PLACEMENT_3D('',#449,#359,#360);
#317=AXIS2_PLACEMENT_3D('',#450,#361,#362);
#318=AXIS2_PLACEMENT_3D('',#453,#363,#364);
#319=AXIS2_PLACEMENT_3D('',#457,#366,#367);
#320=AXIS2_PLACEMENT_3D('',#459,#369,#370);
#321=AXIS2_PLACEMENT_3D('',#465,#374,#375);
#322=AXIS2_PLACEMENT_3D('',#467,#376,#377);
#323=AXIS2_PLACEMENT_3D('',#469,#379,#380);
#324=AXIS2_PLACEMENT_3D('',#471,#381,#382);
#325=AXIS2_PLACEMENT_3D('',#474,#384,#385);
#326=AXIS2_PLACEMENT_3D('',#475,#386,#387);
#327=AXIS2_PLACEMENT_3D('',#477,#388,#389);
#328=AXIS2_PLACEMENT_3D('',#478,#390,#391);
#329=AXIS2_PLACEMENT_3D('',#480,#392,#393);
#330=AXIS2_PLACEMENT_3D('',#482,#395,#396);
#331=AXIS2_PLACEMENT_3D('',#484,#397,#398);
#332=AXIS2_PLACEMENT_3D('',#487,#400,#401);
#333=AXIS2_PLACEMENT_3D('',#488,#402,#403);
#334=AXIS2_PLACEMENT_3D('',#490,#404,#405);
#335=AXIS2_PLACEMENT_3D('',#491,#406,#407);
#336=AXIS2_PLACEMENT_3D('',#494,#409,#410);
#337=AXIS2_PLACEMENT_3D('',#495,#411,#412);
#338=AXIS2_PLACEMENT_3D('',#498,#414,#415);
#339=AXIS2_PLACEMENT_3D('',#499,#416,#417);
#340=AXIS2_PLACEMENT_3D('',#502,#419,#420);
#341=AXIS2_PLACEMENT_3D('',#503,#421,#422);
#342=AXIS2_PLACEMENT_3D('',#506,#424,#425);
#343=AXIS2_PLACEMENT_3D('',#507,#426,#427);
#344=AXIS2_PLACEMENT_3D('',#513,#431,#432);
#345=AXIS2_PLACEMENT_3D('',#516,#435,#436);
#346=AXIS2_PLACEMENT_3D('',#517,#437,#438);
#347=DIRECTION('axis',(0.,0.,1.));
#348=DIRECTION('refdir',(1.,0.,0.));
#349=DIRECTION('center_axis',(0.,0.,1.));
#350=DIRECTION('ref_axis',(-1.,0.,0.));
#351=DIRECTION('center_axis',(0.,0.,-1.));
#352=DIRECTION('ref_axis',(-1.,0.,0.));
#353=DIRECTION('center_axis',(0.,0.,1.));
#354=DIRECTION('ref_axis',(1.,0.,0.));
#355=DIRECTION('center_axis',(0.,0.,1.));
#356=DIRECTION('ref_axis',(-1.,0.,0.));
#357=DIRECTION('center_axis',(0.,0.,-1.));
#358=DIRECTION('ref_axis',(-1.,0.,0.));
#359=DIRECTION('center_axis',(0.,0.,1.));
#360=DIRECTION('ref_axis',(1.,0.,0.));
#361=DIRECTION('center_axis',(1.,0.,0.));
#362=DIRECTION('ref_axis',(0.,-1.,0.));
#363=DIRECTION('center_axis',(-1.,0.,0.));
#364=DIRECTION('ref_axis',(0.,-1.,0.));
#365=DIRECTION('',(1.,0.,0.));
#366=DIRECTION('center_axis',(1.,0.,0.));
#367=DIRECTION('ref_axis',(0.,-1.,0.));
#368=DIRECTION('',(-1.,0.,0.));
#369=DIRECTION('center_axis',(1.,0.,0.));
#370=DIRECTION('ref_axis',(0.,1.,0.));
#371=DIRECTION('',(0.,1.,0.));
#372=DIRECTION('',(0.,0.,1.));
#373=DIRECTION('',(0.,1.,0.));
#374=DIRECTION('center_axis',(0.,0.,-1.));
#375=DIRECTION('ref_axis',(-1.,0.,0.));
#376=DIRECTION('center_axis',(0.,0.,-1.));
#377=DIRECTION('ref_axis',(-1.,0.,0.));
#378=DIRECTION('',(0.,0.,-1.));
#379=DIRECTION('center_axis',(0.,0.,-1.));
#380=DIRECTION('ref_axis',(-1.,0.,0.));
#381=DIRECTION('center_axis',(0.,0.,-1.));
#382=DIRECTION('ref_axis',(-1.,0.,0.));
#383=DIRECTION('',(0.,0.,-1.));
#384=DIRECTION('center_axis',(0.,0.,-1.));
#385=DIRECTION('ref_axis',(-1.,0.,0.));
#386=DIRECTION('center_axis',(0.,0.,1.));
#387=DIRECTION('ref_axis',(-1.,0.,0.));
#388=DIRECTION('center_axis',(0.,0.,1.));
#389=DIRECTION('ref_axis',(1.,0.,0.));
#390=DIRECTION('center_axis',(0.,0.,-1.));
#391=DIRECTION('ref_axis',(-1.,0.,0.));
#392=DIRECTION('center_axis',(0.,0.,-1.));
#393=DIRECTION('ref_axis',(-1.,0.,0.));
#394=DIRECTION('',(0.,0.,-1.));
#395=DIRECTION('center_axis',(0.,0.,-1.));
#396=DIRECTION('ref_axis',(-1.,0.,0.));
#397=DIRECTION('center_axis',(0.,0.,-1.));
#398=DIRECTION('ref_axis',(-1.,0.,0.));
#399=DIRECTION('',(0.,0.,-1.));
#400=DIRECTION('center_axis',(0.,0.,-1.));
#401=DIRECTION('ref_axis',(-1.,0.,0.));
#402=DIRECTION('center_axis',(0.,0.,1.));
#403=DIRECTION('ref_axis',(-1.,0.,0.));
#404=DIRECTION('center_axis',(0.,0.,1.));
#405=DIRECTION('ref_axis',(1.,0.,0.));
#406=DIRECTION('center_axis',(0.,0.,1.));
#407=DIRECTION('ref_axis',(1.,0.,0.));
#408=DIRECTION('',(0.,0.,-1.));
#409=DIRECTION('center_axis',(0.,0.,-1.));
#410=DIRECTION('ref_axis',(1.,0.,0.));
#411=DIRECTION('center_axis',(0.,0.,1.));
#412=DIRECTION('ref_axis',(1.,0.,0.));
#413=DIRECTION('',(0.,0.,-1.));
#414=DIRECTION('center_axis',(0.,0.,-1.));
#415=DIRECTION('ref_axis',(1.,0.,0.));
#416=DIRECTION('center_axis',(0.,0.,1.));
#417=DIRECTION('ref_axis',(1.,0.,0.));
#418=DIRECTION('',(0.,0.,-1.));
#419=DIRECTION('center_axis',(0.,0.,-1.));
#420=DIRECTION('ref_axis',(1.,0.,0.));
#421=DIRECTION('center_axis',(0.,0.,1.));
#422=DIRECTION('ref_axis',(1.,0.,0.));
#423=DIRECTION('',(0.,0.,-1.));
#424=DIRECTION('center_axis',(0.,0.,-1.));
#425=DIRECTION('ref_axis',(1.,0.,0.));
#426=DIRECTION('center_axis',(-1.,0.,0.));
#427=DIRECTION('ref_axis',(0.,-1.,0.));
#428=DIRECTION('',(0.,-1.,0.));
#429=DIRECTION('',(0.,0.,1.));
#430=DIRECTION('',(0.,-1.,0.));
#431=DIRECTION('center_axis',(0.,1.,0.));
#432=DIRECTION('ref_axis',(-1.,0.,0.));
#433=DIRECTION('',(-1.,0.,0.));
#434=DIRECTION('',(-1.,0.,0.));
#435=DIRECTION('center_axis',(0.,0.,1.));
#436=DIRECTION('ref_axis',(1.,0.,0.));
#437=DIRECTION('center_axis',(0.,0.,1.));
#438=DIRECTION('ref_axis',(1.,0.,0.));
#439=CARTESIAN_POINT('',(0.,0.,0.));
#440=CARTESIAN_POINT('Origin',(1.5,2.44935413623386,0.4));
#441=CARTESIAN_POINT('',(2.025,2.44935413623386,0.4));
#442=CARTESIAN_POINT('Origin',(1.5,2.44935413623386,0.4));
#443=CARTESIAN_POINT('',(1.15,2.44935413623386,0.4));
#444=CARTESIAN_POINT('Origin',(1.5,2.44935413623386,0.4));
#445=CARTESIAN_POINT('Origin',(19.5,2.49935413623386,0.4));
#446=CARTESIAN_POINT('',(20.025,2.49935413623386,0.4));
#447=CARTESIAN_POINT('Origin',(19.5,2.49935413623386,0.4));
#448=CARTESIAN_POINT('',(19.15,2.5,0.4));
#449=CARTESIAN_POINT('Origin',(19.5,2.5,0.4));
#450=CARTESIAN_POINT('Origin',(0.,1.,0.));
#451=CARTESIAN_POINT('',(0.,0.,0.));
#452=CARTESIAN_POINT('',(0.,1.,1.));
#453=CARTESIAN_POINT('Origin',(0.,1.,0.));
#454=CARTESIAN_POINT('',(21.,0.,0.));
#455=CARTESIAN_POINT('',(0.,0.,0.));
#456=CARTESIAN_POINT('',(21.,1.,1.));
#457=CARTESIAN_POINT('Origin',(21.,1.,0.));
#458=CARTESIAN_POINT('',(0.,1.,1.));
#459=CARTESIAN_POINT('Origin',(21.,0.,0.));
#460=CARTESIAN_POINT('',(21.,15.75,0.));
#461=CARTESIAN_POINT('',(21.,0.,0.));
#462=CARTESIAN_POINT('',(21.,15.75,1.));
#463=CARTESIAN_POINT('',(21.,15.75,0.));
#464=CARTESIAN_POINT('',(21.,0.,1.));
#465=CARTESIAN_POINT('Origin',(19.5,2.49935413623386,1.));
#466=CARTESIAN_POINT('',(20.025,2.49935413623386,1.));
#467=CARTESIAN_POINT('Origin',(19.5,2.49935413623386,1.));
#468=CARTESIAN_POINT('',(20.025,2.49935413623386,1.));
#469=CARTESIAN_POINT('Origin',(1.5,14.25,1.));
#470=CARTESIAN_POINT('',(1.9,14.25,1.));
#471=CARTESIAN_POINT('Origin',(1.5,14.25,1.));
#472=CARTESIAN_POINT('',(1.9,14.25,0.5));
#473=CARTESIAN_POINT('',(1.9,14.25,1.));
#474=CARTESIAN_POINT('Origin',(1.5,14.25,0.5));
#475=CARTESIAN_POINT('Origin',(1.5,14.25,0.5));
#476=CARTESIAN_POINT('',(1.25,14.25,0.5));
#477=CARTESIAN_POINT('Origin',(1.5,14.25,0.5));
#478=CARTESIAN_POINT('Origin',(1.5,2.44935413623386,1.));
#479=CARTESIAN_POINT('',(2.025,2.44935413623386,1.));
#480=CARTESIAN_POINT('Origin',(1.5,2.44935413623386,1.));
#481=CARTESIAN_POINT('',(2.025,2.44935413623386,1.));
#482=CARTESIAN_POINT('Origin',(19.5,14.3006458637661,1.));
#483=CARTESIAN_POINT('',(19.9,14.3006458637661,1.));
#484=CARTESIAN_POINT('Origin',(19.5,14.3006458637661,1.));
#485=CARTESIAN_POINT('',(19.9,14.3006458637661,0.5));
#486=CARTESIAN_POINT('',(19.9,14.3006458637661,1.));
#487=CARTESIAN_POINT('Origin',(19.5,14.3006458637661,0.5));
#488=CARTESIAN_POINT('Origin',(19.5,14.3006458637661,0.5));
#489=CARTESIAN_POINT('',(19.25,14.3006458637661,0.5));
#490=CARTESIAN_POINT('Origin',(19.5,14.3006458637661,0.5));
#491=CARTESIAN_POINT('Origin',(19.5,14.3006458637661,0.));
#492=CARTESIAN_POINT('',(19.25,14.3006458637661,0.));
#493=CARTESIAN_POINT('',(19.25,14.3006458637661,0.));
#494=CARTESIAN_POINT('Origin',(19.5,14.3006458637661,0.));
#495=CARTESIAN_POINT('Origin',(19.5,2.5,0.));
#496=CARTESIAN_POINT('',(19.15,2.5,0.));
#497=CARTESIAN_POINT('',(19.15,2.5,0.));
#498=CARTESIAN_POINT('Origin',(19.5,2.5,0.));
#499=CARTESIAN_POINT('Origin',(1.5,2.44935413623386,0.));
#500=CARTESIAN_POINT('',(1.15,2.44935413623386,0.));
#501=CARTESIAN_POINT('',(1.15,2.44935413623386,0.));
#502=CARTESIAN_POINT('Origin',(1.5,2.44935413623386,0.));
#503=CARTESIAN_POINT('Origin',(1.5,14.25,0.));
#504=CARTESIAN_POINT('',(1.25,14.25,0.));
#505=CARTESIAN_POINT('',(1.25,14.25,0.));
#506=CARTESIAN_POINT('Origin',(1.5,14.25,0.));
#507=CARTESIAN_POINT('Origin',(0.,15.75,0.));
#508=CARTESIAN_POINT('',(0.,15.75,1.));
#509=CARTESIAN_POINT('',(0.,37.5,1.));
#510=CARTESIAN_POINT('',(0.,15.75,0.));
#511=CARTESIAN_POINT('',(0.,15.75,0.));
#512=CARTESIAN_POINT('',(0.,37.5,0.));
#513=CARTESIAN_POINT('Origin',(21.,15.75,0.));
#514=CARTESIAN_POINT('',(21.,15.75,0.));
#515=CARTESIAN_POINT('',(21.,15.75,1.));
#516=CARTESIAN_POINT('Origin',(10.5,7.875,1.));
#517=CARTESIAN_POINT('Origin',(10.5,7.875,0.));
#518=UNCERTAINTY_MEASURE_WITH_UNIT(LENGTH_MEASURE(0.001),#522,
'DISTANCE_ACCURACY_VALUE',
'Maximum model space distance between geometric entities at asserted c
onnectivities');
#519=UNCERTAINTY_MEASURE_WITH_UNIT(LENGTH_MEASURE(0.001),#522,
'DISTANCE_ACCURACY_VALUE',
'Maximum model space distance between geometric entities at asserted c
onnectivities');
#520=(
GEOMETRIC_REPRESENTATION_CONTEXT(3)
GLOBAL_UNCERTAINTY_ASSIGNED_CONTEXT((#518))
GLOBAL_UNIT_ASSIGNED_CONTEXT((#522,#524,#525))
REPRESENTATION_CONTEXT('','3D')
);
#521=(
GEOMETRIC_REPRESENTATION_CONTEXT(3)
GLOBAL_UNCERTAINTY_ASSIGNED_CONTEXT((#519))
GLOBAL_UNIT_ASSIGNED_CONTEXT((#522,#524,#525))
REPRESENTATION_CONTEXT('','3D')
);
#522=(
LENGTH_UNIT()
NAMED_UNIT(*)
SI_UNIT(.CENTI.,.METRE.)
);
#523=(
LENGTH_UNIT()
NAMED_UNIT(*)
SI_UNIT($,.METRE.)
);
#524=(
NAMED_UNIT(*)
PLANE_ANGLE_UNIT()
SI_UNIT($,.RADIAN.)
);
#525=(
NAMED_UNIT(*)
SI_UNIT($,.STERADIAN.)
SOLID_ANGLE_UNIT()
);
#526=SHAPE_DEFINITION_REPRESENTATION(#527,#528);
#527=PRODUCT_DEFINITION_SHAPE('',$,#530);
#528=SHAPE_REPRESENTATION('',(#310),#520);
#529=PRODUCT_DEFINITION_CONTEXT('part definition',#534,'design');
#530=PRODUCT_DEFINITION('2026-07-07-08-39-56-251','plate fb',#531,#529);
#531=PRODUCT_DEFINITION_FORMATION('',$,#536);
#532=PRODUCT_RELATED_PRODUCT_CATEGORY('plate fb','plate fb',(#536));
#533=APPLICATION_PROTOCOL_DEFINITION('international standard',
'automotive_design',2009,#534);
#534=APPLICATION_CONTEXT(
'Core Data for Automotive Mechanical Design Process');
#535=PRODUCT_CONTEXT('part definition',#534,'mechanical');
#536=PRODUCT('2026-07-07-08-39-56-251','plate fb',$,(#535));
#537=PRESENTATION_STYLE_ASSIGNMENT((#538));
#538=SURFACE_STYLE_USAGE(.BOTH.,#539);
#539=SURFACE_SIDE_STYLE('',(#540));
#540=SURFACE_STYLE_FILL_AREA(#541);
#541=FILL_AREA_STYLE('ABS(\X2\D770C0C9\X0\)',(#542));
#542=FILL_AREA_STYLE_COLOUR('ABS(\X2\D770C0C9\X0\)',#543);
#543=COLOUR_RGB('ABS(\X2\D770C0C9\X0\)',0.964705882352941,0.964705882352941,
0.952941176470588);
ENDSEC;
END-ISO-10303-21;
