ISO-10303-21;
HEADER;
/* Generated by software containing ST-Developer
 * from STEP Tools, Inc. (www.steptools.com) 
 */

FILE_DESCRIPTION(
/* description */ (''),
/* implementation_level */ '2;1');

FILE_NAME(
/* name */ 'plate front.step',
/* time_stamp */ '2026-08-31T17:55:55+09:00',
/* author */ (''),
/* organization */ (''),
/* preprocessor_version */ 'ST-DEVELOPER v20.1',
/* originating_system */ 'Autodesk Translation Framework v15.8.0.0',
/* authorisation */ '');

FILE_SCHEMA (('AUTOMOTIVE_DESIGN { 1 0 10303 214 3 1 1 }'));
ENDSEC;

DATA;
#10=MECHANICAL_DESIGN_GEOMETRIC_PRESENTATION_REPRESENTATION('',(#13),#521);
#11=SHAPE_REPRESENTATION_RELATIONSHIP('SRR','None',#528,#12);
#12=ADVANCED_BREP_SHAPE_REPRESENTATION('',(#14),#520);
#13=STYLED_ITEM('',(#537),#14);
#14=MANIFOLD_SOLID_BREP('\X2\BCF8CCB4\X0\6',#297);
#15=FACE_BOUND('',#56,.T.);
#16=FACE_BOUND('',#59,.T.);
#17=FACE_BOUND('',#63,.T.);
#18=FACE_BOUND('',#64,.T.);
#19=FACE_BOUND('',#65,.T.);
#20=FACE_BOUND('',#66,.T.);
#21=FACE_BOUND('',#69,.T.);
#22=FACE_BOUND('',#72,.T.);
#23=FACE_BOUND('',#80,.T.);
#24=FACE_BOUND('',#81,.T.);
#25=FACE_BOUND('',#82,.T.);
#26=FACE_BOUND('',#83,.T.);
#27=PLANE('',#314);
#28=PLANE('',#319);
#29=PLANE('',#324);
#30=PLANE('',#325);
#31=PLANE('',#330);
#32=PLANE('',#334);
#33=PLANE('',#344);
#34=PLANE('',#345);
#35=PLANE('',#346);
#36=FACE_OUTER_BOUND('',#54,.T.);
#37=FACE_OUTER_BOUND('',#55,.T.);
#38=FACE_OUTER_BOUND('',#57,.T.);
#39=FACE_OUTER_BOUND('',#58,.T.);
#40=FACE_OUTER_BOUND('',#60,.T.);
#41=FACE_OUTER_BOUND('',#61,.T.);
#42=FACE_OUTER_BOUND('',#62,.T.);
#43=FACE_OUTER_BOUND('',#67,.T.);
#44=FACE_OUTER_BOUND('',#68,.T.);
#45=FACE_OUTER_BOUND('',#70,.T.);
#46=FACE_OUTER_BOUND('',#71,.T.);
#47=FACE_OUTER_BOUND('',#73,.T.);
#48=FACE_OUTER_BOUND('',#74,.T.);
#49=FACE_OUTER_BOUND('',#75,.T.);
#50=FACE_OUTER_BOUND('',#76,.T.);
#51=FACE_OUTER_BOUND('',#77,.T.);
#52=FACE_OUTER_BOUND('',#78,.T.);
#53=FACE_OUTER_BOUND('',#79,.T.);
#54=EDGE_LOOP('',(#198,#199,#200,#201));
#55=EDGE_LOOP('',(#202));
#56=EDGE_LOOP('',(#203));
#57=EDGE_LOOP('',(#204,#205,#206,#207));
#58=EDGE_LOOP('',(#208));
#59=EDGE_LOOP('',(#209));
#60=EDGE_LOOP('',(#210,#211,#212,#213));
#61=EDGE_LOOP('',(#214,#215,#216,#217));
#62=EDGE_LOOP('',(#218,#219,#220,#221));
#63=EDGE_LOOP('',(#222));
#64=EDGE_LOOP('',(#223));
#65=EDGE_LOOP('',(#224));
#66=EDGE_LOOP('',(#225));
#67=EDGE_LOOP('',(#226,#227,#228,#229));
#68=EDGE_LOOP('',(#230));
#69=EDGE_LOOP('',(#231));
#70=EDGE_LOOP('',(#232,#233,#234,#235));
#71=EDGE_LOOP('',(#236));
#72=EDGE_LOOP('',(#237));
#73=EDGE_LOOP('',(#238,#239,#240,#241));
#74=EDGE_LOOP('',(#242,#243,#244,#245));
#75=EDGE_LOOP('',(#246,#247,#248,#249));
#76=EDGE_LOOP('',(#250,#251,#252,#253));
#77=EDGE_LOOP('',(#254,#255,#256,#257));
#78=EDGE_LOOP('',(#258,#259,#260,#261));
#79=EDGE_LOOP('',(#262,#263,#264,#265));
#80=EDGE_LOOP('',(#266));
#81=EDGE_LOOP('',(#267));
#82=EDGE_LOOP('',(#268));
#83=EDGE_LOOP('',(#269));
#84=LINE('',#444,#102);
#85=LINE('',#453,#103);
#86=LINE('',#463,#104);
#87=LINE('',#466,#105);
#88=LINE('',#469,#106);
#89=LINE('',#471,#107);
#90=LINE('',#472,#108);
#91=LINE('',#475,#109);
#92=LINE('',#476,#110);
#93=LINE('',#483,#111);
#94=LINE('',#490,#112);
#95=LINE('',#497,#113);
#96=LINE('',#501,#114);
#97=LINE('',#505,#115);
#98=LINE('',#509,#116);
#99=LINE('',#513,#117);
#100=LINE('',#514,#118);
#101=LINE('',#516,#119);
#102=VECTOR('',#353,0.399999999999999);
#103=VECTOR('',#364,0.399999999999999);
#104=VECTOR('',#375,1.);
#105=VECTOR('',#378,1.);
#106=VECTOR('',#381,1.);
#107=VECTOR('',#382,1.);
#108=VECTOR('',#383,1.);
#109=VECTOR('',#386,1.);
#110=VECTOR('',#387,1.);
#111=VECTOR('',#394,0.525000000000002);
#112=VECTOR('',#403,0.525);
#113=VECTOR('',#412,0.25);
#114=VECTOR('',#417,0.250000000000001);
#115=VECTOR('',#422,0.35);
#116=VECTOR('',#427,0.350000000000001);
#117=VECTOR('',#432,1.);
#118=VECTOR('',#433,1.);
#119=VECTOR('',#436,1.);
#120=CIRCLE('',#312,0.399999999999999);
#121=CIRCLE('',#313,0.399999999999999);
#122=CIRCLE('',#315,0.25);
#123=CIRCLE('',#317,0.399999999999999);
#124=CIRCLE('',#318,0.399999999999999);
#125=CIRCLE('',#320,0.250000000000001);
#126=CIRCLE('',#322,1.);
#127=CIRCLE('',#323,1.);
#128=CIRCLE('',#326,0.525);
#129=CIRCLE('',#327,0.525000000000002);
#130=CIRCLE('',#329,0.525000000000002);
#131=CIRCLE('',#331,0.350000000000001);
#132=CIRCLE('',#333,0.525);
#133=CIRCLE('',#335,0.35);
#134=CIRCLE('',#337,0.25);
#135=CIRCLE('',#339,0.250000000000001);
#136=CIRCLE('',#341,0.35);
#137=CIRCLE('',#343,0.350000000000001);
#138=VERTEX_POINT('',#441);
#139=VERTEX_POINT('',#443);
#140=VERTEX_POINT('',#447);
#141=VERTEX_POINT('',#450);
#142=VERTEX_POINT('',#452);
#143=VERTEX_POINT('',#456);
#144=VERTEX_POINT('',#459);
#145=VERTEX_POINT('',#460);
#146=VERTEX_POINT('',#462);
#147=VERTEX_POINT('',#464);
#148=VERTEX_POINT('',#468);
#149=VERTEX_POINT('',#470);
#150=VERTEX_POINT('',#474);
#151=VERTEX_POINT('',#477);
#152=VERTEX_POINT('',#479);
#153=VERTEX_POINT('',#482);
#154=VERTEX_POINT('',#486);
#155=VERTEX_POINT('',#489);
#156=VERTEX_POINT('',#493);
#157=VERTEX_POINT('',#496);
#158=VERTEX_POINT('',#500);
#159=VERTEX_POINT('',#504);
#160=VERTEX_POINT('',#508);
#161=VERTEX_POINT('',#512);
#162=EDGE_CURVE('',#138,#138,#120,.T.);
#163=EDGE_CURVE('',#138,#139,#84,.T.);
#164=EDGE_CURVE('',#139,#139,#121,.T.);
#165=EDGE_CURVE('',#140,#140,#122,.T.);
#166=EDGE_CURVE('',#141,#141,#123,.T.);
#167=EDGE_CURVE('',#141,#142,#85,.T.);
#168=EDGE_CURVE('',#142,#142,#124,.T.);
#169=EDGE_CURVE('',#143,#143,#125,.T.);
#170=EDGE_CURVE('',#144,#145,#126,.T.);
#171=EDGE_CURVE('',#144,#146,#86,.T.);
#172=EDGE_CURVE('',#147,#146,#127,.T.);
#173=EDGE_CURVE('',#147,#145,#87,.T.);
#174=EDGE_CURVE('',#148,#145,#88,.T.);
#175=EDGE_CURVE('',#149,#148,#89,.T.);
#176=EDGE_CURVE('',#149,#144,#90,.T.);
#177=EDGE_CURVE('',#147,#150,#91,.T.);
#178=EDGE_CURVE('',#150,#148,#92,.T.);
#179=EDGE_CURVE('',#151,#151,#128,.T.);
#180=EDGE_CURVE('',#152,#152,#129,.T.);
#181=EDGE_CURVE('',#152,#153,#93,.T.);
#182=EDGE_CURVE('',#153,#153,#130,.T.);
#183=EDGE_CURVE('',#154,#154,#131,.T.);
#184=EDGE_CURVE('',#151,#155,#94,.T.);
#185=EDGE_CURVE('',#155,#155,#132,.T.);
#186=EDGE_CURVE('',#156,#156,#133,.T.);
#187=EDGE_CURVE('',#140,#157,#95,.T.);
#188=EDGE_CURVE('',#157,#157,#134,.T.);
#189=EDGE_CURVE('',#143,#158,#96,.T.);
#190=EDGE_CURVE('',#158,#158,#135,.T.);
#191=EDGE_CURVE('',#156,#159,#97,.T.);
#192=EDGE_CURVE('',#159,#159,#136,.T.);
#193=EDGE_CURVE('',#154,#160,#98,.T.);
#194=EDGE_CURVE('',#160,#160,#137,.T.);
#195=EDGE_CURVE('',#149,#161,#99,.T.);
#196=EDGE_CURVE('',#161,#150,#100,.T.);
#197=EDGE_CURVE('',#161,#146,#101,.T.);
#198=ORIENTED_EDGE('',*,*,#162,.F.);
#199=ORIENTED_EDGE('',*,*,#163,.T.);
#200=ORIENTED_EDGE('',*,*,#164,.T.);
#201=ORIENTED_EDGE('',*,*,#163,.F.);
#202=ORIENTED_EDGE('',*,*,#164,.F.);
#203=ORIENTED_EDGE('',*,*,#165,.F.);
#204=ORIENTED_EDGE('',*,*,#166,.F.);
#205=ORIENTED_EDGE('',*,*,#167,.T.);
#206=ORIENTED_EDGE('',*,*,#168,.T.);
#207=ORIENTED_EDGE('',*,*,#167,.F.);
#208=ORIENTED_EDGE('',*,*,#168,.F.);
#209=ORIENTED_EDGE('',*,*,#169,.F.);
#210=ORIENTED_EDGE('',*,*,#170,.F.);
#211=ORIENTED_EDGE('',*,*,#171,.T.);
#212=ORIENTED_EDGE('',*,*,#172,.F.);
#213=ORIENTED_EDGE('',*,*,#173,.T.);
#214=ORIENTED_EDGE('',*,*,#170,.T.);
#215=ORIENTED_EDGE('',*,*,#174,.F.);
#216=ORIENTED_EDGE('',*,*,#175,.F.);
#217=ORIENTED_EDGE('',*,*,#176,.T.);
#218=ORIENTED_EDGE('',*,*,#173,.F.);
#219=ORIENTED_EDGE('',*,*,#177,.T.);
#220=ORIENTED_EDGE('',*,*,#178,.T.);
#221=ORIENTED_EDGE('',*,*,#174,.T.);
#222=ORIENTED_EDGE('',*,*,#162,.T.);
#223=ORIENTED_EDGE('',*,*,#166,.T.);
#224=ORIENTED_EDGE('',*,*,#179,.T.);
#225=ORIENTED_EDGE('',*,*,#180,.T.);
#226=ORIENTED_EDGE('',*,*,#180,.F.);
#227=ORIENTED_EDGE('',*,*,#181,.T.);
#228=ORIENTED_EDGE('',*,*,#182,.T.);
#229=ORIENTED_EDGE('',*,*,#181,.F.);
#230=ORIENTED_EDGE('',*,*,#182,.F.);
#231=ORIENTED_EDGE('',*,*,#183,.F.);
#232=ORIENTED_EDGE('',*,*,#179,.F.);
#233=ORIENTED_EDGE('',*,*,#184,.T.);
#234=ORIENTED_EDGE('',*,*,#185,.T.);
#235=ORIENTED_EDGE('',*,*,#184,.F.);
#236=ORIENTED_EDGE('',*,*,#185,.F.);
#237=ORIENTED_EDGE('',*,*,#186,.F.);
#238=ORIENTED_EDGE('',*,*,#165,.T.);
#239=ORIENTED_EDGE('',*,*,#187,.T.);
#240=ORIENTED_EDGE('',*,*,#188,.T.);
#241=ORIENTED_EDGE('',*,*,#187,.F.);
#242=ORIENTED_EDGE('',*,*,#169,.T.);
#243=ORIENTED_EDGE('',*,*,#189,.T.);
#244=ORIENTED_EDGE('',*,*,#190,.T.);
#245=ORIENTED_EDGE('',*,*,#189,.F.);
#246=ORIENTED_EDGE('',*,*,#186,.T.);
#247=ORIENTED_EDGE('',*,*,#191,.T.);
#248=ORIENTED_EDGE('',*,*,#192,.T.);
#249=ORIENTED_EDGE('',*,*,#191,.F.);
#250=ORIENTED_EDGE('',*,*,#183,.T.);
#251=ORIENTED_EDGE('',*,*,#193,.T.);
#252=ORIENTED_EDGE('',*,*,#194,.T.);
#253=ORIENTED_EDGE('',*,*,#193,.F.);
#254=ORIENTED_EDGE('',*,*,#195,.F.);
#255=ORIENTED_EDGE('',*,*,#175,.T.);
#256=ORIENTED_EDGE('',*,*,#178,.F.);
#257=ORIENTED_EDGE('',*,*,#196,.F.);
#258=ORIENTED_EDGE('',*,*,#172,.T.);
#259=ORIENTED_EDGE('',*,*,#197,.F.);
#260=ORIENTED_EDGE('',*,*,#196,.T.);
#261=ORIENTED_EDGE('',*,*,#177,.F.);
#262=ORIENTED_EDGE('',*,*,#176,.F.);
#263=ORIENTED_EDGE('',*,*,#195,.T.);
#264=ORIENTED_EDGE('',*,*,#197,.T.);
#265=ORIENTED_EDGE('',*,*,#171,.F.);
#266=ORIENTED_EDGE('',*,*,#194,.F.);
#267=ORIENTED_EDGE('',*,*,#192,.F.);
#268=ORIENTED_EDGE('',*,*,#190,.F.);
#269=ORIENTED_EDGE('',*,*,#188,.F.);
#270=CYLINDRICAL_SURFACE('',#311,0.399999999999999);
#271=CYLINDRICAL_SURFACE('',#316,0.399999999999999);
#272=CYLINDRICAL_SURFACE('',#321,1.);
#273=CYLINDRICAL_SURFACE('',#328,0.525000000000002);
#274=CYLINDRICAL_SURFACE('',#332,0.525);
#275=CYLINDRICAL_SURFACE('',#336,0.25);
#276=CYLINDRICAL_SURFACE('',#338,0.250000000000001);
#277=CYLINDRICAL_SURFACE('',#340,0.35);
#278=CYLINDRICAL_SURFACE('',#342,0.350000000000001);
#279=ADVANCED_FACE('',(#36),#270,.F.);
#280=ADVANCED_FACE('',(#37,#15),#27,.T.);
#281=ADVANCED_FACE('',(#38),#271,.F.);
#282=ADVANCED_FACE('',(#39,#16),#28,.T.);
#283=ADVANCED_FACE('',(#40),#272,.T.);
#284=ADVANCED_FACE('',(#41),#29,.T.);
#285=ADVANCED_FACE('',(#42,#17,#18,#19,#20),#30,.T.);
#286=ADVANCED_FACE('',(#43),#273,.F.);
#287=ADVANCED_FACE('',(#44,#21),#31,.T.);
#288=ADVANCED_FACE('',(#45),#274,.F.);
#289=ADVANCED_FACE('',(#46,#22),#32,.T.);
#290=ADVANCED_FACE('',(#47),#275,.F.);
#291=ADVANCED_FACE('',(#48),#276,.F.);
#292=ADVANCED_FACE('',(#49),#277,.F.);
#293=ADVANCED_FACE('',(#50),#278,.F.);
#294=ADVANCED_FACE('',(#51),#33,.T.);
#295=ADVANCED_FACE('',(#52),#34,.T.);
#296=ADVANCED_FACE('',(#53,#23,#24,#25,#26),#35,.F.);
#297=CLOSED_SHELL('',(#279,#280,#281,#282,#283,#284,#285,#286,#287,#288,
#289,#290,#291,#292,#293,#294,#295,#296));
#298=DERIVED_UNIT_ELEMENT(#300,1.);
#299=DERIVED_UNIT_ELEMENT(#523,-3.);
#300=(
MASS_UNIT()
NAMED_UNIT(*)
SI_UNIT(.KILO.,.GRAM.)
);
#301=DERIVED_UNIT((#298,#299));
#302=MEASURE_REPRESENTATION_ITEM('density measure',
POSITIVE_RATIO_MEASURE(1060.),#301);
#303=PROPERTY_DEFINITION_REPRESENTATION(#308,#305);
#304=PROPERTY_DEFINITION_REPRESENTATION(#309,#306);
#305=REPRESENTATION('material name',(#307),#520);
#306=REPRESENTATION('density',(#302),#520);
#307=DESCRIPTIVE_REPRESENTATION_ITEM('ABS \X2\D50CB77CC2A4D2F1\X0\',
'ABS \X2\D50CB77CC2A4D2F1\X0\');
#308=PROPERTY_DEFINITION('material property','material name',#530);
#309=PROPERTY_DEFINITION('material property','density of part',#530);
#310=AXIS2_PLACEMENT_3D('',#439,#347,#348);
#311=AXIS2_PLACEMENT_3D('',#440,#349,#350);
#312=AXIS2_PLACEMENT_3D('',#442,#351,#352);
#313=AXIS2_PLACEMENT_3D('',#445,#354,#355);
#314=AXIS2_PLACEMENT_3D('',#446,#356,#357);
#315=AXIS2_PLACEMENT_3D('',#448,#358,#359);
#316=AXIS2_PLACEMENT_3D('',#449,#360,#361);
#317=AXIS2_PLACEMENT_3D('',#451,#362,#363);
#318=AXIS2_PLACEMENT_3D('',#454,#365,#366);
#319=AXIS2_PLACEMENT_3D('',#455,#367,#368);
#320=AXIS2_PLACEMENT_3D('',#457,#369,#370);
#321=AXIS2_PLACEMENT_3D('',#458,#371,#372);
#322=AXIS2_PLACEMENT_3D('',#461,#373,#374);
#323=AXIS2_PLACEMENT_3D('',#465,#376,#377);
#324=AXIS2_PLACEMENT_3D('',#467,#379,#380);
#325=AXIS2_PLACEMENT_3D('',#473,#384,#385);
#326=AXIS2_PLACEMENT_3D('',#478,#388,#389);
#327=AXIS2_PLACEMENT_3D('',#480,#390,#391);
#328=AXIS2_PLACEMENT_3D('',#481,#392,#393);
#329=AXIS2_PLACEMENT_3D('',#484,#395,#396);
#330=AXIS2_PLACEMENT_3D('',#485,#397,#398);
#331=AXIS2_PLACEMENT_3D('',#487,#399,#400);
#332=AXIS2_PLACEMENT_3D('',#488,#401,#402);
#333=AXIS2_PLACEMENT_3D('',#491,#404,#405);
#334=AXIS2_PLACEMENT_3D('',#492,#406,#407);
#335=AXIS2_PLACEMENT_3D('',#494,#408,#409);
#336=AXIS2_PLACEMENT_3D('',#495,#410,#411);
#337=AXIS2_PLACEMENT_3D('',#498,#413,#414);
#338=AXIS2_PLACEMENT_3D('',#499,#415,#416);
#339=AXIS2_PLACEMENT_3D('',#502,#418,#419);
#340=AXIS2_PLACEMENT_3D('',#503,#420,#421);
#341=AXIS2_PLACEMENT_3D('',#506,#423,#424);
#342=AXIS2_PLACEMENT_3D('',#507,#425,#426);
#343=AXIS2_PLACEMENT_3D('',#510,#428,#429);
#344=AXIS2_PLACEMENT_3D('',#511,#430,#431);
#345=AXIS2_PLACEMENT_3D('',#515,#434,#435);
#346=AXIS2_PLACEMENT_3D('',#517,#437,#438);
#347=DIRECTION('axis',(0.,0.,1.));
#348=DIRECTION('refdir',(1.,0.,0.));
#349=DIRECTION('center_axis',(0.,0.,-1.));
#350=DIRECTION('ref_axis',(-1.,0.,0.));
#351=DIRECTION('center_axis',(0.,0.,-1.));
#352=DIRECTION('ref_axis',(-1.,0.,0.));
#353=DIRECTION('',(0.,0.,-1.));
#354=DIRECTION('center_axis',(0.,0.,-1.));
#355=DIRECTION('ref_axis',(-1.,0.,0.));
#356=DIRECTION('center_axis',(0.,0.,1.));
#357=DIRECTION('ref_axis',(-1.,0.,0.));
#358=DIRECTION('center_axis',(0.,0.,1.));
#359=DIRECTION('ref_axis',(1.,0.,0.));
#360=DIRECTION('center_axis',(0.,0.,-1.));
#361=DIRECTION('ref_axis',(-1.,0.,0.));
#362=DIRECTION('center_axis',(0.,0.,-1.));
#363=DIRECTION('ref_axis',(-1.,0.,0.));
#364=DIRECTION('',(0.,0.,-1.));
#365=DIRECTION('center_axis',(0.,0.,-1.));
#366=DIRECTION('ref_axis',(-1.,0.,0.));
#367=DIRECTION('center_axis',(0.,0.,1.));
#368=DIRECTION('ref_axis',(-1.,0.,0.));
#369=DIRECTION('center_axis',(0.,0.,1.));
#370=DIRECTION('ref_axis',(1.,0.,0.));
#371=DIRECTION('center_axis',(1.,0.,0.));
#372=DIRECTION('ref_axis',(0.,-1.,0.));
#373=DIRECTION('center_axis',(-1.,0.,0.));
#374=DIRECTION('ref_axis',(0.,-1.,0.));
#375=DIRECTION('',(1.,0.,0.));
#376=DIRECTION('center_axis',(1.,0.,0.));
#377=DIRECTION('ref_axis',(0.,-1.,0.));
#378=DIRECTION('',(-1.,0.,0.));
#379=DIRECTION('center_axis',(-1.,0.,0.));
#380=DIRECTION('ref_axis',(0.,-1.,0.));
#381=DIRECTION('',(0.,-1.,0.));
#382=DIRECTION('',(0.,0.,1.));
#383=DIRECTION('',(0.,-1.,0.));
#384=DIRECTION('center_axis',(0.,0.,1.));
#385=DIRECTION('ref_axis',(1.,0.,0.));
#386=DIRECTION('',(0.,1.,0.));
#387=DIRECTION('',(-1.,0.,0.));
#388=DIRECTION('center_axis',(0.,0.,-1.));
#389=DIRECTION('ref_axis',(-1.,0.,0.));
#390=DIRECTION('center_axis',(0.,0.,-1.));
#391=DIRECTION('ref_axis',(-1.,0.,0.));
#392=DIRECTION('center_axis',(0.,0.,-1.));
#393=DIRECTION('ref_axis',(-1.,0.,0.));
#394=DIRECTION('',(0.,0.,-1.));
#395=DIRECTION('center_axis',(0.,0.,-1.));
#396=DIRECTION('ref_axis',(-1.,0.,0.));
#397=DIRECTION('center_axis',(0.,0.,1.));
#398=DIRECTION('ref_axis',(-1.,0.,0.));
#399=DIRECTION('center_axis',(0.,0.,1.));
#400=DIRECTION('ref_axis',(1.,0.,0.));
#401=DIRECTION('center_axis',(0.,0.,-1.));
#402=DIRECTION('ref_axis',(-1.,0.,0.));
#403=DIRECTION('',(0.,0.,-1.));
#404=DIRECTION('center_axis',(0.,0.,-1.));
#405=DIRECTION('ref_axis',(-1.,0.,0.));
#406=DIRECTION('center_axis',(0.,0.,1.));
#407=DIRECTION('ref_axis',(-1.,0.,0.));
#408=DIRECTION('center_axis',(0.,0.,1.));
#409=DIRECTION('ref_axis',(1.,0.,0.));
#410=DIRECTION('center_axis',(0.,0.,1.));
#411=DIRECTION('ref_axis',(1.,0.,0.));
#412=DIRECTION('',(0.,0.,-1.));
#413=DIRECTION('center_axis',(0.,0.,-1.));
#414=DIRECTION('ref_axis',(1.,0.,0.));
#415=DIRECTION('center_axis',(0.,0.,1.));
#416=DIRECTION('ref_axis',(1.,0.,0.));
#417=DIRECTION('',(0.,0.,-1.));
#418=DIRECTION('center_axis',(0.,0.,-1.));
#419=DIRECTION('ref_axis',(1.,0.,0.));
#420=DIRECTION('center_axis',(0.,0.,1.));
#421=DIRECTION('ref_axis',(1.,0.,0.));
#422=DIRECTION('',(0.,0.,-1.));
#423=DIRECTION('center_axis',(0.,0.,-1.));
#424=DIRECTION('ref_axis',(1.,0.,0.));
#425=DIRECTION('center_axis',(0.,0.,1.));
#426=DIRECTION('ref_axis',(1.,0.,0.));
#427=DIRECTION('',(0.,0.,-1.));
#428=DIRECTION('center_axis',(0.,0.,-1.));
#429=DIRECTION('ref_axis',(1.,0.,0.));
#430=DIRECTION('center_axis',(0.,1.,0.));
#431=DIRECTION('ref_axis',(-1.,0.,0.));
#432=DIRECTION('',(1.,0.,0.));
#433=DIRECTION('',(0.,0.,1.));
#434=DIRECTION('center_axis',(1.,0.,0.));
#435=DIRECTION('ref_axis',(0.,1.,0.));
#436=DIRECTION('',(0.,-1.,0.));
#437=DIRECTION('center_axis',(0.,0.,1.));
#438=DIRECTION('ref_axis',(1.,0.,0.));
#439=CARTESIAN_POINT('',(0.,0.,0.));
#440=CARTESIAN_POINT('Origin',(19.5,17.3006458637661,1.));
#441=CARTESIAN_POINT('',(19.9,17.3006458637661,1.));
#442=CARTESIAN_POINT('Origin',(19.5,17.3006458637661,1.));
#443=CARTESIAN_POINT('',(19.9,17.3006458637661,0.5));
#444=CARTESIAN_POINT('',(19.9,17.3006458637661,1.));
#445=CARTESIAN_POINT('Origin',(19.5,17.3006458637661,0.5));
#446=CARTESIAN_POINT('Origin',(19.5,17.3006458637661,0.5));
#447=CARTESIAN_POINT('',(19.25,17.3006458637661,0.5));
#448=CARTESIAN_POINT('Origin',(19.5,17.3006458637661,0.5));
#449=CARTESIAN_POINT('Origin',(1.5,17.25,1.));
#450=CARTESIAN_POINT('',(1.9,17.25,1.));
#451=CARTESIAN_POINT('Origin',(1.5,17.25,1.));
#452=CARTESIAN_POINT('',(1.9,17.25,0.5));
#453=CARTESIAN_POINT('',(1.9,17.25,1.));
#454=CARTESIAN_POINT('Origin',(1.5,17.25,0.5));
#455=CARTESIAN_POINT('Origin',(1.5,17.25,0.5));
#456=CARTESIAN_POINT('',(1.25,17.25,0.5));
#457=CARTESIAN_POINT('Origin',(1.5,17.25,0.5));
#458=CARTESIAN_POINT('Origin',(0.,1.,0.));
#459=CARTESIAN_POINT('',(0.,0.,0.));
#460=CARTESIAN_POINT('',(0.,1.,1.));
#461=CARTESIAN_POINT('Origin',(0.,1.,0.));
#462=CARTESIAN_POINT('',(21.,0.,0.));
#463=CARTESIAN_POINT('',(0.,0.,0.));
#464=CARTESIAN_POINT('',(21.,1.,1.));
#465=CARTESIAN_POINT('Origin',(21.,1.,0.));
#466=CARTESIAN_POINT('',(0.,1.,1.));
#467=CARTESIAN_POINT('Origin',(0.,18.75,0.));
#468=CARTESIAN_POINT('',(0.,18.75,1.));
#469=CARTESIAN_POINT('',(0.,37.5,1.));
#470=CARTESIAN_POINT('',(0.,18.75,0.));
#471=CARTESIAN_POINT('',(0.,18.75,0.));
#472=CARTESIAN_POINT('',(0.,37.5,0.));
#473=CARTESIAN_POINT('Origin',(10.5,9.375,1.));
#474=CARTESIAN_POINT('',(21.,18.75,1.));
#475=CARTESIAN_POINT('',(21.,3.,1.));
#476=CARTESIAN_POINT('',(0.,18.75,1.));
#477=CARTESIAN_POINT('',(2.025,2.44935413623386,1.));
#478=CARTESIAN_POINT('Origin',(1.5,2.44935413623386,1.));
#479=CARTESIAN_POINT('',(20.025,2.49935413623386,1.));
#480=CARTESIAN_POINT('Origin',(19.5,2.49935413623386,1.));
#481=CARTESIAN_POINT('Origin',(19.5,2.49935413623386,1.));
#482=CARTESIAN_POINT('',(20.025,2.49935413623386,0.4));
#483=CARTESIAN_POINT('',(20.025,2.49935413623386,1.));
#484=CARTESIAN_POINT('Origin',(19.5,2.49935413623386,0.4));
#485=CARTESIAN_POINT('Origin',(19.5,2.49935413623386,0.4));
#486=CARTESIAN_POINT('',(19.15,2.5,0.4));
#487=CARTESIAN_POINT('Origin',(19.5,2.5,0.4));
#488=CARTESIAN_POINT('Origin',(1.5,2.44935413623386,1.));
#489=CARTESIAN_POINT('',(2.025,2.44935413623386,0.4));
#490=CARTESIAN_POINT('',(2.025,2.44935413623386,1.));
#491=CARTESIAN_POINT('Origin',(1.5,2.44935413623386,0.4));
#492=CARTESIAN_POINT('Origin',(1.5,2.44935413623386,0.4));
#493=CARTESIAN_POINT('',(1.15,2.44935413623386,0.4));
#494=CARTESIAN_POINT('Origin',(1.5,2.44935413623386,0.4));
#495=CARTESIAN_POINT('Origin',(19.5,17.3006458637661,0.));
#496=CARTESIAN_POINT('',(19.25,17.3006458637661,0.));
#497=CARTESIAN_POINT('',(19.25,17.3006458637661,0.));
#498=CARTESIAN_POINT('Origin',(19.5,17.3006458637661,0.));
#499=CARTESIAN_POINT('Origin',(1.5,17.25,0.));
#500=CARTESIAN_POINT('',(1.25,17.25,0.));
#501=CARTESIAN_POINT('',(1.25,17.25,0.));
#502=CARTESIAN_POINT('Origin',(1.5,17.25,0.));
#503=CARTESIAN_POINT('Origin',(1.5,2.44935413623386,0.));
#504=CARTESIAN_POINT('',(1.15,2.44935413623386,0.));
#505=CARTESIAN_POINT('',(1.15,2.44935413623386,0.));
#506=CARTESIAN_POINT('Origin',(1.5,2.44935413623386,0.));
#507=CARTESIAN_POINT('Origin',(19.5,2.5,0.));
#508=CARTESIAN_POINT('',(19.15,2.5,0.));
#509=CARTESIAN_POINT('',(19.15,2.5,0.));
#510=CARTESIAN_POINT('Origin',(19.5,2.5,0.));
#511=CARTESIAN_POINT('Origin',(21.,18.75,0.));
#512=CARTESIAN_POINT('',(21.,18.75,0.));
#513=CARTESIAN_POINT('',(0.,18.75,0.));
#514=CARTESIAN_POINT('',(21.,18.75,0.));
#515=CARTESIAN_POINT('Origin',(21.,0.,0.));
#516=CARTESIAN_POINT('',(21.,3.,0.));
#517=CARTESIAN_POINT('Origin',(10.5,9.375,0.));
#518=UNCERTAINTY_MEASURE_WITH_UNIT(LENGTH_MEASURE(0.001),#522,
'DISTANCE_ACCURACY_VALUE',
'Maximum model space distance between geometric entities at asserted c
onnectivities');
#519=UNCERTAINTY_MEASURE_WITH_UNIT(LENGTH_MEASURE(0.001),#522,
'DISTANCE_ACCURACY_VALUE',
'Maximum model space distance between geometric entities at asserted c
onnectivities');
#520=(
GEOMETRIC_REPRESENTATION_CONTEXT(3)
GLOBAL_UNCERTAINTY_ASSIGNED_CONTEXT((#518))
GLOBAL_UNIT_ASSIGNED_CONTEXT((#522,#524,#525))
REPRESENTATION_CONTEXT('','3D')
);
#521=(
GEOMETRIC_REPRESENTATION_CONTEXT(3)
GLOBAL_UNCERTAINTY_ASSIGNED_CONTEXT((#519))
GLOBAL_UNIT_ASSIGNED_CONTEXT((#522,#524,#525))
REPRESENTATION_CONTEXT('','3D')
);
#522=(
LENGTH_UNIT()
NAMED_UNIT(*)
SI_UNIT(.CENTI.,.METRE.)
);
#523=(
LENGTH_UNIT()
NAMED_UNIT(*)
SI_UNIT($,.METRE.)
);
#524=(
NAMED_UNIT(*)
PLANE_ANGLE_UNIT()
SI_UNIT($,.RADIAN.)
);
#525=(
NAMED_UNIT(*)
SI_UNIT($,.STERADIAN.)
SOLID_ANGLE_UNIT()
);
#526=SHAPE_DEFINITION_REPRESENTATION(#527,#528);
#527=PRODUCT_DEFINITION_SHAPE('',$,#530);
#528=SHAPE_REPRESENTATION('',(#310),#520);
#529=PRODUCT_DEFINITION_CONTEXT('part definition',#534,'design');
#530=PRODUCT_DEFINITION('2026-07-07-08-39-56-251','plate f-c',#531,#529);
#531=PRODUCT_DEFINITION_FORMATION('',$,#536);
#532=PRODUCT_RELATED_PRODUCT_CATEGORY('plate f-c','plate f-c',(#536));
#533=APPLICATION_PROTOCOL_DEFINITION('international standard',
'automotive_design',2009,#534);
#534=APPLICATION_CONTEXT(
'Core Data for Automotive Mechanical Design Process');
#535=PRODUCT_CONTEXT('part definition',#534,'mechanical');
#536=PRODUCT('2026-07-07-08-39-56-251','plate f-c',$,(#535));
#537=PRESENTATION_STYLE_ASSIGNMENT((#538));
#538=SURFACE_STYLE_USAGE(.BOTH.,#539);
#539=SURFACE_SIDE_STYLE('',(#540));
#540=SURFACE_STYLE_FILL_AREA(#541);
#541=FILL_AREA_STYLE('ABS(\X2\D770C0C9\X0\)',(#542));
#542=FILL_AREA_STYLE_COLOUR('ABS(\X2\D770C0C9\X0\)',#543);
#543=COLOUR_RGB('ABS(\X2\D770C0C9\X0\)',0.964705882352941,0.964705882352941,
0.952941176470588);
ENDSEC;
END-ISO-10303-21;
