ISO-10303-21;
HEADER;
/* Generated by software containing ST-Developer
 * from STEP Tools, Inc. (www.steptools.com) 
 */

FILE_DESCRIPTION(
/* description */ (''),
/* implementation_level */ '2;1');

FILE_NAME(
/* name */ 'plate side-r.step',
/* time_stamp */ '2026-08-31T17:57:09+09:00',
/* author */ (''),
/* organization */ (''),
/* preprocessor_version */ 'ST-DEVELOPER v20.1',
/* originating_system */ 'Autodesk Translation Framework v15.8.0.0',
/* authorisation */ '');

FILE_SCHEMA (('AUTOMOTIVE_DESIGN { 1 0 10303 214 3 1 1 }'));
ENDSEC;

DATA;
#10=MECHANICAL_DESIGN_GEOMETRIC_PRESENTATION_REPRESENTATION('',(#13),#542);
#11=SHAPE_REPRESENTATION_RELATIONSHIP('SRR','None',#549,#12);
#12=ADVANCED_BREP_SHAPE_REPRESENTATION('',(#14),#541);
#13=STYLED_ITEM('',(#558),#14);
#14=MANIFOLD_SOLID_BREP('\X2\BCF8CCB4\X0\1',#314);
#15=FACE_BOUND('',#57,.T.);
#16=FACE_BOUND('',#60,.T.);
#17=FACE_BOUND('',#61,.T.);
#18=FACE_BOUND('',#62,.T.);
#19=FACE_BOUND('',#65,.T.);
#20=FACE_BOUND('',#68,.T.);
#21=FACE_BOUND('',#71,.T.);
#22=FACE_BOUND('',#79,.T.);
#23=FACE_BOUND('',#80,.T.);
#24=FACE_BOUND('',#81,.T.);
#25=FACE_BOUND('',#82,.T.);
#26=PLANE('',#331);
#27=PLANE('',#332);
#28=PLANE('',#334);
#29=PLANE('',#335);
#30=PLANE('',#341);
#31=PLANE('',#345);
#32=PLANE('',#349);
#33=PLANE('',#359);
#34=PLANE('',#360);
#35=PLANE('',#361);
#36=FACE_OUTER_BOUND('',#54,.T.);
#37=FACE_OUTER_BOUND('',#55,.T.);
#38=FACE_OUTER_BOUND('',#56,.T.);
#39=FACE_OUTER_BOUND('',#58,.T.);
#40=FACE_OUTER_BOUND('',#59,.T.);
#41=FACE_OUTER_BOUND('',#63,.T.);
#42=FACE_OUTER_BOUND('',#64,.T.);
#43=FACE_OUTER_BOUND('',#66,.T.);
#44=FACE_OUTER_BOUND('',#67,.T.);
#45=FACE_OUTER_BOUND('',#69,.T.);
#46=FACE_OUTER_BOUND('',#70,.T.);
#47=FACE_OUTER_BOUND('',#72,.T.);
#48=FACE_OUTER_BOUND('',#73,.T.);
#49=FACE_OUTER_BOUND('',#74,.T.);
#50=FACE_OUTER_BOUND('',#75,.T.);
#51=FACE_OUTER_BOUND('',#76,.T.);
#52=FACE_OUTER_BOUND('',#77,.T.);
#53=FACE_OUTER_BOUND('',#78,.T.);
#54=EDGE_LOOP('',(#210,#211,#212,#213));
#55=EDGE_LOOP('',(#214,#215,#216,#217,#218,#219));
#56=EDGE_LOOP('',(#220,#221,#222));
#57=EDGE_LOOP('',(#223));
#58=EDGE_LOOP('',(#224,#225,#226,#227,#228,#229));
#59=EDGE_LOOP('',(#230,#231,#232,#233,#234));
#60=EDGE_LOOP('',(#235));
#61=EDGE_LOOP('',(#236));
#62=EDGE_LOOP('',(#237));
#63=EDGE_LOOP('',(#238,#239,#240,#241));
#64=EDGE_LOOP('',(#242));
#65=EDGE_LOOP('',(#243));
#66=EDGE_LOOP('',(#244,#245,#246,#247));
#67=EDGE_LOOP('',(#248));
#68=EDGE_LOOP('',(#249));
#69=EDGE_LOOP('',(#250,#251,#252,#253));
#70=EDGE_LOOP('',(#254));
#71=EDGE_LOOP('',(#255));
#72=EDGE_LOOP('',(#256,#257,#258,#259));
#73=EDGE_LOOP('',(#260,#261,#262,#263));
#74=EDGE_LOOP('',(#264,#265,#266,#267));
#75=EDGE_LOOP('',(#268,#269,#270,#271));
#76=EDGE_LOOP('',(#272,#273,#274,#275));
#77=EDGE_LOOP('',(#276,#277,#278,#279));
#78=EDGE_LOOP('',(#280,#281,#282,#283));
#79=EDGE_LOOP('',(#284));
#80=EDGE_LOOP('',(#285));
#81=EDGE_LOOP('',(#286));
#82=EDGE_LOOP('',(#287));
#83=LINE('',#461,#106);
#84=LINE('',#464,#107);
#85=LINE('',#467,#108);
#86=LINE('',#469,#109);
#87=LINE('',#471,#110);
#88=LINE('',#473,#111);
#89=LINE('',#474,#112);
#90=LINE('',#476,#113);
#91=LINE('',#481,#114);
#92=LINE('',#483,#115);
#93=LINE('',#484,#116);
#94=LINE('',#487,#117);
#95=LINE('',#488,#118);
#96=LINE('',#497,#119);
#97=LINE('',#504,#120);
#98=LINE('',#511,#121);
#99=LINE('',#518,#122);
#100=LINE('',#522,#123);
#101=LINE('',#526,#124);
#102=LINE('',#530,#125);
#103=LINE('',#534,#126);
#104=LINE('',#535,#127);
#105=LINE('',#537,#128);
#106=VECTOR('',#368,1.);
#107=VECTOR('',#371,1.);
#108=VECTOR('',#374,1.);
#109=VECTOR('',#375,1.);
#110=VECTOR('',#376,1.);
#111=VECTOR('',#377,1.);
#112=VECTOR('',#378,1.);
#113=VECTOR('',#381,1.);
#114=VECTOR('',#386,1.);
#115=VECTOR('',#387,1.);
#116=VECTOR('',#388,1.);
#117=VECTOR('',#391,1.);
#118=VECTOR('',#392,1.);
#119=VECTOR('',#401,0.4);
#120=VECTOR('',#410,0.4);
#121=VECTOR('',#419,0.399999999999999);
#122=VECTOR('',#428,0.25);
#123=VECTOR('',#433,0.25);
#124=VECTOR('',#438,0.25);
#125=VECTOR('',#443,0.249999999999999);
#126=VECTOR('',#448,1.);
#127=VECTOR('',#449,1.);
#128=VECTOR('',#452,1.);
#129=CIRCLE('',#329,9.5);
#130=CIRCLE('',#330,9.5);
#131=CIRCLE('',#333,0.25);
#132=CIRCLE('',#336,0.399999999999999);
#133=CIRCLE('',#337,0.4);
#134=CIRCLE('',#338,0.4);
#135=CIRCLE('',#340,0.4);
#136=CIRCLE('',#342,0.25);
#137=CIRCLE('',#344,0.4);
#138=CIRCLE('',#346,0.249999999999999);
#139=CIRCLE('',#348,0.399999999999999);
#140=CIRCLE('',#350,0.25);
#141=CIRCLE('',#352,0.25);
#142=CIRCLE('',#354,0.25);
#143=CIRCLE('',#356,0.25);
#144=CIRCLE('',#358,0.249999999999999);
#145=VERTEX_POINT('',#457);
#146=VERTEX_POINT('',#458);
#147=VERTEX_POINT('',#460);
#148=VERTEX_POINT('',#462);
#149=VERTEX_POINT('',#466);
#150=VERTEX_POINT('',#468);
#151=VERTEX_POINT('',#470);
#152=VERTEX_POINT('',#472);
#153=VERTEX_POINT('',#477);
#154=VERTEX_POINT('',#480);
#155=VERTEX_POINT('',#482);
#156=VERTEX_POINT('',#486);
#157=VERTEX_POINT('',#489);
#158=VERTEX_POINT('',#491);
#159=VERTEX_POINT('',#493);
#160=VERTEX_POINT('',#496);
#161=VERTEX_POINT('',#500);
#162=VERTEX_POINT('',#503);
#163=VERTEX_POINT('',#507);
#164=VERTEX_POINT('',#510);
#165=VERTEX_POINT('',#514);
#166=VERTEX_POINT('',#517);
#167=VERTEX_POINT('',#521);
#168=VERTEX_POINT('',#525);
#169=VERTEX_POINT('',#529);
#170=VERTEX_POINT('',#533);
#171=EDGE_CURVE('',#145,#146,#129,.T.);
#172=EDGE_CURVE('',#147,#145,#83,.T.);
#173=EDGE_CURVE('',#147,#148,#130,.T.);
#174=EDGE_CURVE('',#146,#148,#84,.T.);
#175=EDGE_CURVE('',#148,#149,#85,.T.);
#176=EDGE_CURVE('',#150,#149,#86,.T.);
#177=EDGE_CURVE('',#151,#150,#87,.T.);
#178=EDGE_CURVE('',#151,#152,#88,.T.);
#179=EDGE_CURVE('',#146,#152,#89,.T.);
#180=EDGE_CURVE('',#149,#147,#90,.T.);
#181=EDGE_CURVE('',#153,#153,#131,.T.);
#182=EDGE_CURVE('',#154,#145,#91,.T.);
#183=EDGE_CURVE('',#155,#154,#92,.T.);
#184=EDGE_CURVE('',#155,#150,#93,.T.);
#185=EDGE_CURVE('',#152,#156,#94,.T.);
#186=EDGE_CURVE('',#156,#154,#95,.T.);
#187=EDGE_CURVE('',#157,#157,#132,.T.);
#188=EDGE_CURVE('',#158,#158,#133,.T.);
#189=EDGE_CURVE('',#159,#159,#134,.T.);
#190=EDGE_CURVE('',#159,#160,#96,.T.);
#191=EDGE_CURVE('',#160,#160,#135,.T.);
#192=EDGE_CURVE('',#161,#161,#136,.T.);
#193=EDGE_CURVE('',#158,#162,#97,.T.);
#194=EDGE_CURVE('',#162,#162,#137,.T.);
#195=EDGE_CURVE('',#163,#163,#138,.T.);
#196=EDGE_CURVE('',#157,#164,#98,.T.);
#197=EDGE_CURVE('',#164,#164,#139,.T.);
#198=EDGE_CURVE('',#165,#165,#140,.T.);
#199=EDGE_CURVE('',#161,#166,#99,.T.);
#200=EDGE_CURVE('',#166,#166,#141,.T.);
#201=EDGE_CURVE('',#165,#167,#100,.T.);
#202=EDGE_CURVE('',#167,#167,#142,.T.);
#203=EDGE_CURVE('',#153,#168,#101,.T.);
#204=EDGE_CURVE('',#168,#168,#143,.T.);
#205=EDGE_CURVE('',#163,#169,#102,.T.);
#206=EDGE_CURVE('',#169,#169,#144,.T.);
#207=EDGE_CURVE('',#151,#170,#103,.T.);
#208=EDGE_CURVE('',#170,#156,#104,.T.);
#209=EDGE_CURVE('',#170,#155,#105,.T.);
#210=ORIENTED_EDGE('',*,*,#171,.F.);
#211=ORIENTED_EDGE('',*,*,#172,.F.);
#212=ORIENTED_EDGE('',*,*,#173,.T.);
#213=ORIENTED_EDGE('',*,*,#174,.F.);
#214=ORIENTED_EDGE('',*,*,#174,.T.);
#215=ORIENTED_EDGE('',*,*,#175,.T.);
#216=ORIENTED_EDGE('',*,*,#176,.F.);
#217=ORIENTED_EDGE('',*,*,#177,.F.);
#218=ORIENTED_EDGE('',*,*,#178,.T.);
#219=ORIENTED_EDGE('',*,*,#179,.F.);
#220=ORIENTED_EDGE('',*,*,#180,.F.);
#221=ORIENTED_EDGE('',*,*,#175,.F.);
#222=ORIENTED_EDGE('',*,*,#173,.F.);
#223=ORIENTED_EDGE('',*,*,#181,.F.);
#224=ORIENTED_EDGE('',*,*,#172,.T.);
#225=ORIENTED_EDGE('',*,*,#182,.F.);
#226=ORIENTED_EDGE('',*,*,#183,.F.);
#227=ORIENTED_EDGE('',*,*,#184,.T.);
#228=ORIENTED_EDGE('',*,*,#176,.T.);
#229=ORIENTED_EDGE('',*,*,#180,.T.);
#230=ORIENTED_EDGE('',*,*,#171,.T.);
#231=ORIENTED_EDGE('',*,*,#179,.T.);
#232=ORIENTED_EDGE('',*,*,#185,.T.);
#233=ORIENTED_EDGE('',*,*,#186,.T.);
#234=ORIENTED_EDGE('',*,*,#182,.T.);
#235=ORIENTED_EDGE('',*,*,#187,.T.);
#236=ORIENTED_EDGE('',*,*,#188,.T.);
#237=ORIENTED_EDGE('',*,*,#189,.T.);
#238=ORIENTED_EDGE('',*,*,#189,.F.);
#239=ORIENTED_EDGE('',*,*,#190,.T.);
#240=ORIENTED_EDGE('',*,*,#191,.T.);
#241=ORIENTED_EDGE('',*,*,#190,.F.);
#242=ORIENTED_EDGE('',*,*,#191,.F.);
#243=ORIENTED_EDGE('',*,*,#192,.F.);
#244=ORIENTED_EDGE('',*,*,#188,.F.);
#245=ORIENTED_EDGE('',*,*,#193,.T.);
#246=ORIENTED_EDGE('',*,*,#194,.T.);
#247=ORIENTED_EDGE('',*,*,#193,.F.);
#248=ORIENTED_EDGE('',*,*,#194,.F.);
#249=ORIENTED_EDGE('',*,*,#195,.F.);
#250=ORIENTED_EDGE('',*,*,#187,.F.);
#251=ORIENTED_EDGE('',*,*,#196,.T.);
#252=ORIENTED_EDGE('',*,*,#197,.T.);
#253=ORIENTED_EDGE('',*,*,#196,.F.);
#254=ORIENTED_EDGE('',*,*,#197,.F.);
#255=ORIENTED_EDGE('',*,*,#198,.F.);
#256=ORIENTED_EDGE('',*,*,#192,.T.);
#257=ORIENTED_EDGE('',*,*,#199,.T.);
#258=ORIENTED_EDGE('',*,*,#200,.T.);
#259=ORIENTED_EDGE('',*,*,#199,.F.);
#260=ORIENTED_EDGE('',*,*,#198,.T.);
#261=ORIENTED_EDGE('',*,*,#201,.T.);
#262=ORIENTED_EDGE('',*,*,#202,.T.);
#263=ORIENTED_EDGE('',*,*,#201,.F.);
#264=ORIENTED_EDGE('',*,*,#181,.T.);
#265=ORIENTED_EDGE('',*,*,#203,.T.);
#266=ORIENTED_EDGE('',*,*,#204,.T.);
#267=ORIENTED_EDGE('',*,*,#203,.F.);
#268=ORIENTED_EDGE('',*,*,#195,.T.);
#269=ORIENTED_EDGE('',*,*,#205,.T.);
#270=ORIENTED_EDGE('',*,*,#206,.T.);
#271=ORIENTED_EDGE('',*,*,#205,.F.);
#272=ORIENTED_EDGE('',*,*,#207,.T.);
#273=ORIENTED_EDGE('',*,*,#208,.T.);
#274=ORIENTED_EDGE('',*,*,#185,.F.);
#275=ORIENTED_EDGE('',*,*,#178,.F.);
#276=ORIENTED_EDGE('',*,*,#209,.T.);
#277=ORIENTED_EDGE('',*,*,#183,.T.);
#278=ORIENTED_EDGE('',*,*,#186,.F.);
#279=ORIENTED_EDGE('',*,*,#208,.F.);
#280=ORIENTED_EDGE('',*,*,#209,.F.);
#281=ORIENTED_EDGE('',*,*,#207,.F.);
#282=ORIENTED_EDGE('',*,*,#177,.T.);
#283=ORIENTED_EDGE('',*,*,#184,.F.);
#284=ORIENTED_EDGE('',*,*,#206,.F.);
#285=ORIENTED_EDGE('',*,*,#204,.F.);
#286=ORIENTED_EDGE('',*,*,#202,.F.);
#287=ORIENTED_EDGE('',*,*,#200,.F.);
#288=CYLINDRICAL_SURFACE('',#328,9.5);
#289=CYLINDRICAL_SURFACE('',#339,0.4);
#290=CYLINDRICAL_SURFACE('',#343,0.4);
#291=CYLINDRICAL_SURFACE('',#347,0.399999999999999);
#292=CYLINDRICAL_SURFACE('',#351,0.25);
#293=CYLINDRICAL_SURFACE('',#353,0.25);
#294=CYLINDRICAL_SURFACE('',#355,0.25);
#295=CYLINDRICAL_SURFACE('',#357,0.249999999999999);
#296=ADVANCED_FACE('',(#36),#288,.F.);
#297=ADVANCED_FACE('',(#37),#26,.T.);
#298=ADVANCED_FACE('',(#38,#15),#27,.T.);
#299=ADVANCED_FACE('',(#39),#28,.T.);
#300=ADVANCED_FACE('',(#40,#16,#17,#18),#29,.T.);
#301=ADVANCED_FACE('',(#41),#289,.F.);
#302=ADVANCED_FACE('',(#42,#19),#30,.T.);
#303=ADVANCED_FACE('',(#43),#290,.F.);
#304=ADVANCED_FACE('',(#44,#20),#31,.T.);
#305=ADVANCED_FACE('',(#45),#291,.F.);
#306=ADVANCED_FACE('',(#46,#21),#32,.T.);
#307=ADVANCED_FACE('',(#47),#292,.F.);
#308=ADVANCED_FACE('',(#48),#293,.F.);
#309=ADVANCED_FACE('',(#49),#294,.F.);
#310=ADVANCED_FACE('',(#50),#295,.F.);
#311=ADVANCED_FACE('',(#51),#33,.T.);
#312=ADVANCED_FACE('',(#52),#34,.T.);
#313=ADVANCED_FACE('',(#53,#22,#23,#24,#25),#35,.F.);
#314=CLOSED_SHELL('',(#296,#297,#298,#299,#300,#301,#302,#303,#304,#305,
#306,#307,#308,#309,#310,#311,#312,#313));
#315=DERIVED_UNIT_ELEMENT(#317,1.);
#316=DERIVED_UNIT_ELEMENT(#544,-3.);
#317=(
MASS_UNIT()
NAMED_UNIT(*)
SI_UNIT(.KILO.,.GRAM.)
);
#318=DERIVED_UNIT((#315,#316));
#319=MEASURE_REPRESENTATION_ITEM('density measure',
POSITIVE_RATIO_MEASURE(1060.),#318);
#320=PROPERTY_DEFINITION_REPRESENTATION(#325,#322);
#321=PROPERTY_DEFINITION_REPRESENTATION(#326,#323);
#322=REPRESENTATION('material name',(#324),#541);
#323=REPRESENTATION('density',(#319),#541);
#324=DESCRIPTIVE_REPRESENTATION_ITEM('ABS \X2\D50CB77CC2A4D2F1\X0\',
'ABS \X2\D50CB77CC2A4D2F1\X0\');
#325=PROPERTY_DEFINITION('material property','material name',#551);
#326=PROPERTY_DEFINITION('material property','density of part',#551);
#327=AXIS2_PLACEMENT_3D('',#455,#362,#363);
#328=AXIS2_PLACEMENT_3D('',#456,#364,#365);
#329=AXIS2_PLACEMENT_3D('',#459,#366,#367);
#330=AXIS2_PLACEMENT_3D('',#463,#369,#370);
#331=AXIS2_PLACEMENT_3D('',#465,#372,#373);
#332=AXIS2_PLACEMENT_3D('',#475,#379,#380);
#333=AXIS2_PLACEMENT_3D('',#478,#382,#383);
#334=AXIS2_PLACEMENT_3D('',#479,#384,#385);
#335=AXIS2_PLACEMENT_3D('',#485,#389,#390);
#336=AXIS2_PLACEMENT_3D('',#490,#393,#394);
#337=AXIS2_PLACEMENT_3D('',#492,#395,#396);
#338=AXIS2_PLACEMENT_3D('',#494,#397,#398);
#339=AXIS2_PLACEMENT_3D('',#495,#399,#400);
#340=AXIS2_PLACEMENT_3D('',#498,#402,#403);
#341=AXIS2_PLACEMENT_3D('',#499,#404,#405);
#342=AXIS2_PLACEMENT_3D('',#501,#406,#407);
#343=AXIS2_PLACEMENT_3D('',#502,#408,#409);
#344=AXIS2_PLACEMENT_3D('',#505,#411,#412);
#345=AXIS2_PLACEMENT_3D('',#506,#413,#414);
#346=AXIS2_PLACEMENT_3D('',#508,#415,#416);
#347=AXIS2_PLACEMENT_3D('',#509,#417,#418);
#348=AXIS2_PLACEMENT_3D('',#512,#420,#421);
#349=AXIS2_PLACEMENT_3D('',#513,#422,#423);
#350=AXIS2_PLACEMENT_3D('',#515,#424,#425);
#351=AXIS2_PLACEMENT_3D('',#516,#426,#427);
#352=AXIS2_PLACEMENT_3D('',#519,#429,#430);
#353=AXIS2_PLACEMENT_3D('',#520,#431,#432);
#354=AXIS2_PLACEMENT_3D('',#523,#434,#435);
#355=AXIS2_PLACEMENT_3D('',#524,#436,#437);
#356=AXIS2_PLACEMENT_3D('',#527,#439,#440);
#357=AXIS2_PLACEMENT_3D('',#528,#441,#442);
#358=AXIS2_PLACEMENT_3D('',#531,#444,#445);
#359=AXIS2_PLACEMENT_3D('',#532,#446,#447);
#360=AXIS2_PLACEMENT_3D('',#536,#450,#451);
#361=AXIS2_PLACEMENT_3D('',#538,#453,#454);
#362=DIRECTION('axis',(0.,0.,1.));
#363=DIRECTION('refdir',(1.,0.,0.));
#364=DIRECTION('center_axis',(0.,0.,-1.));
#365=DIRECTION('ref_axis',(-1.,0.,0.));
#366=DIRECTION('center_axis',(0.,0.,-1.));
#367=DIRECTION('ref_axis',(-1.,0.,0.));
#368=DIRECTION('',(0.,0.,1.));
#369=DIRECTION('center_axis',(0.,0.,-1.));
#370=DIRECTION('ref_axis',(-1.,0.,0.));
#371=DIRECTION('',(0.,0.,-1.));
#372=DIRECTION('center_axis',(0.,1.,0.));
#373=DIRECTION('ref_axis',(-1.,0.,0.));
#374=DIRECTION('',(1.,0.,0.));
#375=DIRECTION('',(0.,0.,1.));
#376=DIRECTION('',(1.,0.,0.));
#377=DIRECTION('',(0.,0.,1.));
#378=DIRECTION('',(-1.,0.,0.));
#379=DIRECTION('center_axis',(0.,0.,1.));
#380=DIRECTION('ref_axis',(1.,0.,0.));
#381=DIRECTION('',(0.,-1.,0.));
#382=DIRECTION('center_axis',(0.,0.,1.));
#383=DIRECTION('ref_axis',(1.,0.,0.));
#384=DIRECTION('center_axis',(1.,0.,0.));
#385=DIRECTION('ref_axis',(0.,1.,0.));
#386=DIRECTION('',(0.,1.,0.));
#387=DIRECTION('',(0.,0.,1.));
#388=DIRECTION('',(0.,1.,0.));
#389=DIRECTION('center_axis',(0.,0.,1.));
#390=DIRECTION('ref_axis',(1.,0.,0.));
#391=DIRECTION('',(0.,-1.,0.));
#392=DIRECTION('',(1.,0.,0.));
#393=DIRECTION('center_axis',(0.,0.,-1.));
#394=DIRECTION('ref_axis',(-1.,0.,0.));
#395=DIRECTION('center_axis',(0.,0.,-1.));
#396=DIRECTION('ref_axis',(-1.,0.,0.));
#397=DIRECTION('center_axis',(0.,0.,-1.));
#398=DIRECTION('ref_axis',(-1.,0.,0.));
#399=DIRECTION('center_axis',(0.,0.,-1.));
#400=DIRECTION('ref_axis',(-1.,0.,0.));
#401=DIRECTION('',(0.,0.,-1.));
#402=DIRECTION('center_axis',(0.,0.,-1.));
#403=DIRECTION('ref_axis',(-1.,0.,0.));
#404=DIRECTION('center_axis',(0.,0.,1.));
#405=DIRECTION('ref_axis',(-1.,0.,0.));
#406=DIRECTION('center_axis',(0.,0.,1.));
#407=DIRECTION('ref_axis',(1.,0.,0.));
#408=DIRECTION('center_axis',(0.,0.,-1.));
#409=DIRECTION('ref_axis',(-1.,0.,0.));
#410=DIRECTION('',(0.,0.,-1.));
#411=DIRECTION('center_axis',(0.,0.,-1.));
#412=DIRECTION('ref_axis',(-1.,0.,0.));
#413=DIRECTION('center_axis',(0.,0.,1.));
#414=DIRECTION('ref_axis',(-1.,0.,0.));
#415=DIRECTION('center_axis',(0.,0.,1.));
#416=DIRECTION('ref_axis',(1.,0.,0.));
#417=DIRECTION('center_axis',(0.,0.,-1.));
#418=DIRECTION('ref_axis',(-1.,0.,0.));
#419=DIRECTION('',(0.,0.,-1.));
#420=DIRECTION('center_axis',(0.,0.,-1.));
#421=DIRECTION('ref_axis',(-1.,0.,0.));
#422=DIRECTION('center_axis',(0.,0.,1.));
#423=DIRECTION('ref_axis',(-1.,0.,0.));
#424=DIRECTION('center_axis',(0.,0.,1.));
#425=DIRECTION('ref_axis',(1.,0.,0.));
#426=DIRECTION('center_axis',(0.,0.,1.));
#427=DIRECTION('ref_axis',(1.,0.,0.));
#428=DIRECTION('',(0.,0.,-1.));
#429=DIRECTION('center_axis',(0.,0.,-1.));
#430=DIRECTION('ref_axis',(1.,0.,0.));
#431=DIRECTION('center_axis',(0.,0.,1.));
#432=DIRECTION('ref_axis',(1.,0.,0.));
#433=DIRECTION('',(0.,0.,-1.));
#434=DIRECTION('center_axis',(0.,0.,-1.));
#435=DIRECTION('ref_axis',(1.,0.,0.));
#436=DIRECTION('center_axis',(0.,0.,1.));
#437=DIRECTION('ref_axis',(1.,0.,0.));
#438=DIRECTION('',(0.,0.,-1.));
#439=DIRECTION('center_axis',(0.,0.,-1.));
#440=DIRECTION('ref_axis',(1.,0.,0.));
#441=DIRECTION('center_axis',(0.,0.,1.));
#442=DIRECTION('ref_axis',(1.,0.,0.));
#443=DIRECTION('',(0.,0.,-1.));
#444=DIRECTION('center_axis',(0.,0.,-1.));
#445=DIRECTION('ref_axis',(1.,0.,0.));
#446=DIRECTION('center_axis',(-1.,0.,0.));
#447=DIRECTION('ref_axis',(0.,-1.,0.));
#448=DIRECTION('',(0.,-1.,0.));
#449=DIRECTION('',(0.,0.,1.));
#450=DIRECTION('center_axis',(0.,-1.,0.));
#451=DIRECTION('ref_axis',(1.,0.,0.));
#452=DIRECTION('',(1.,0.,0.));
#453=DIRECTION('center_axis',(0.,0.,1.));
#454=DIRECTION('ref_axis',(1.,0.,0.));
#455=CARTESIAN_POINT('',(0.,0.,0.));
#456=CARTESIAN_POINT('Origin',(25.0605618804245,22.75,6.));
#457=CARTESIAN_POINT('',(21.,14.1615288196767,1.));
#458=CARTESIAN_POINT('',(15.5605618804245,22.75,1.));
#459=CARTESIAN_POINT('Origin',(25.0605618804245,22.75,1.));
#460=CARTESIAN_POINT('',(21.,14.1615288196767,0.3));
#461=CARTESIAN_POINT('',(21.,14.1615288196767,6.));
#462=CARTESIAN_POINT('',(15.5605618804245,22.75,0.3));
#463=CARTESIAN_POINT('Origin',(25.0605618804245,22.75,0.3));
#464=CARTESIAN_POINT('',(15.5605618804245,22.75,6.));
#465=CARTESIAN_POINT('Origin',(21.,22.75,0.));
#466=CARTESIAN_POINT('',(21.,22.75,0.3));
#467=CARTESIAN_POINT('',(20.1376428500072,22.75,0.3));
#468=CARTESIAN_POINT('',(21.,22.75,0.));
#469=CARTESIAN_POINT('',(21.,22.75,0.));
#470=CARTESIAN_POINT('',(0.,22.75,0.));
#471=CARTESIAN_POINT('',(0.,22.75,0.));
#472=CARTESIAN_POINT('',(0.,22.75,1.));
#473=CARTESIAN_POINT('',(0.,22.75,0.));
#474=CARTESIAN_POINT('',(0.,22.75,1.));
#475=CARTESIAN_POINT('Origin',(10.5,11.375,0.3));
#476=CARTESIAN_POINT('',(21.,9.08092616256346,0.3));
#477=CARTESIAN_POINT('',(19.25,21.25,0.3));
#478=CARTESIAN_POINT('Origin',(19.5,21.25,0.3));
#479=CARTESIAN_POINT('Origin',(21.,0.,0.));
#480=CARTESIAN_POINT('',(21.,0.,1.));
#481=CARTESIAN_POINT('',(21.,0.,1.));
#482=CARTESIAN_POINT('',(21.,0.,0.));
#483=CARTESIAN_POINT('',(21.,0.,0.));
#484=CARTESIAN_POINT('',(21.,0.,0.));
#485=CARTESIAN_POINT('Origin',(10.5,11.375,1.));
#486=CARTESIAN_POINT('',(0.,0.,1.));
#487=CARTESIAN_POINT('',(0.,45.5,1.));
#488=CARTESIAN_POINT('',(0.,0.,1.));
#489=CARTESIAN_POINT('',(19.9,1.5,1.));
#490=CARTESIAN_POINT('Origin',(19.5,1.5,1.));
#491=CARTESIAN_POINT('',(1.9,21.25,1.));
#492=CARTESIAN_POINT('Origin',(1.5,21.25,1.));
#493=CARTESIAN_POINT('',(1.9,1.5,1.));
#494=CARTESIAN_POINT('Origin',(1.5,1.5,1.));
#495=CARTESIAN_POINT('Origin',(1.5,1.5,1.));
#496=CARTESIAN_POINT('',(1.9,1.5,0.5));
#497=CARTESIAN_POINT('',(1.9,1.5,1.));
#498=CARTESIAN_POINT('Origin',(1.5,1.5,0.5));
#499=CARTESIAN_POINT('Origin',(1.5,1.5,0.5));
#500=CARTESIAN_POINT('',(1.25,1.5,0.5));
#501=CARTESIAN_POINT('Origin',(1.5,1.5,0.5));
#502=CARTESIAN_POINT('Origin',(1.5,21.25,1.));
#503=CARTESIAN_POINT('',(1.9,21.25,0.5));
#504=CARTESIAN_POINT('',(1.9,21.25,1.));
#505=CARTESIAN_POINT('Origin',(1.5,21.25,0.5));
#506=CARTESIAN_POINT('Origin',(1.5,21.25,0.5));
#507=CARTESIAN_POINT('',(1.25,21.25,0.5));
#508=CARTESIAN_POINT('Origin',(1.5,21.25,0.5));
#509=CARTESIAN_POINT('Origin',(19.5,1.5,1.));
#510=CARTESIAN_POINT('',(19.9,1.5,0.5));
#511=CARTESIAN_POINT('',(19.9,1.5,1.));
#512=CARTESIAN_POINT('Origin',(19.5,1.5,0.5));
#513=CARTESIAN_POINT('Origin',(19.5,1.5,0.5));
#514=CARTESIAN_POINT('',(19.25,1.5,0.5));
#515=CARTESIAN_POINT('Origin',(19.5,1.5,0.5));
#516=CARTESIAN_POINT('Origin',(1.5,1.5,0.));
#517=CARTESIAN_POINT('',(1.25,1.5,0.));
#518=CARTESIAN_POINT('',(1.25,1.5,0.));
#519=CARTESIAN_POINT('Origin',(1.5,1.5,0.));
#520=CARTESIAN_POINT('Origin',(19.5,1.5,0.));
#521=CARTESIAN_POINT('',(19.25,1.5,0.));
#522=CARTESIAN_POINT('',(19.25,1.5,0.));
#523=CARTESIAN_POINT('Origin',(19.5,1.5,0.));
#524=CARTESIAN_POINT('Origin',(19.5,21.25,0.));
#525=CARTESIAN_POINT('',(19.25,21.25,0.));
#526=CARTESIAN_POINT('',(19.25,21.25,0.));
#527=CARTESIAN_POINT('Origin',(19.5,21.25,0.));
#528=CARTESIAN_POINT('Origin',(1.5,21.25,0.));
#529=CARTESIAN_POINT('',(1.25,21.25,0.));
#530=CARTESIAN_POINT('',(1.25,21.25,0.));
#531=CARTESIAN_POINT('Origin',(1.5,21.25,0.));
#532=CARTESIAN_POINT('Origin',(0.,22.75,0.));
#533=CARTESIAN_POINT('',(0.,0.,0.));
#534=CARTESIAN_POINT('',(0.,45.5,0.));
#535=CARTESIAN_POINT('',(0.,0.,0.));
#536=CARTESIAN_POINT('Origin',(0.,0.,0.));
#537=CARTESIAN_POINT('',(0.,0.,0.));
#538=CARTESIAN_POINT('Origin',(10.5,11.375,0.));
#539=UNCERTAINTY_MEASURE_WITH_UNIT(LENGTH_MEASURE(0.001),#543,
'DISTANCE_ACCURACY_VALUE',
'Maximum model space distance between geometric entities at asserted c
onnectivities');
#540=UNCERTAINTY_MEASURE_WITH_UNIT(LENGTH_MEASURE(0.001),#543,
'DISTANCE_ACCURACY_VALUE',
'Maximum model space distance between geometric entities at asserted c
onnectivities');
#541=(
GEOMETRIC_REPRESENTATION_CONTEXT(3)
GLOBAL_UNCERTAINTY_ASSIGNED_CONTEXT((#539))
GLOBAL_UNIT_ASSIGNED_CONTEXT((#543,#545,#546))
REPRESENTATION_CONTEXT('','3D')
);
#542=(
GEOMETRIC_REPRESENTATION_CONTEXT(3)
GLOBAL_UNCERTAINTY_ASSIGNED_CONTEXT((#540))
GLOBAL_UNIT_ASSIGNED_CONTEXT((#543,#545,#546))
REPRESENTATION_CONTEXT('','3D')
);
#543=(
LENGTH_UNIT()
NAMED_UNIT(*)
SI_UNIT(.CENTI.,.METRE.)
);
#544=(
LENGTH_UNIT()
NAMED_UNIT(*)
SI_UNIT($,.METRE.)
);
#545=(
NAMED_UNIT(*)
PLANE_ANGLE_UNIT()
SI_UNIT($,.RADIAN.)
);
#546=(
NAMED_UNIT(*)
SI_UNIT($,.STERADIAN.)
SOLID_ANGLE_UNIT()
);
#547=SHAPE_DEFINITION_REPRESENTATION(#548,#549);
#548=PRODUCT_DEFINITION_SHAPE('',$,#551);
#549=SHAPE_REPRESENTATION('',(#327),#541);
#550=PRODUCT_DEFINITION_CONTEXT('part definition',#555,'design');
#551=PRODUCT_DEFINITION('2026-07-07-08-25-10-750','plate side',#552,#550);
#552=PRODUCT_DEFINITION_FORMATION('',$,#557);
#553=PRODUCT_RELATED_PRODUCT_CATEGORY('plate side','plate side',(#557));
#554=APPLICATION_PROTOCOL_DEFINITION('international standard',
'automotive_design',2009,#555);
#555=APPLICATION_CONTEXT(
'Core Data for Automotive Mechanical Design Process');
#556=PRODUCT_CONTEXT('part definition',#555,'mechanical');
#557=PRODUCT('2026-07-07-08-25-10-750','plate side',$,(#556));
#558=PRESENTATION_STYLE_ASSIGNMENT((#559));
#559=SURFACE_STYLE_USAGE(.BOTH.,#560);
#560=SURFACE_SIDE_STYLE('',(#561));
#561=SURFACE_STYLE_FILL_AREA(#562);
#562=FILL_AREA_STYLE('ABS(\X2\D770C0C9\X0\)',(#563));
#563=FILL_AREA_STYLE_COLOUR('ABS(\X2\D770C0C9\X0\)',#564);
#564=COLOUR_RGB('ABS(\X2\D770C0C9\X0\)',0.964705882352941,0.964705882352941,
0.952941176470588);
ENDSEC;
END-ISO-10303-21;
