ISO-10303-21;
HEADER;
/* Generated by software containing ST-Developer
 * from STEP Tools, Inc. (www.steptools.com) 
 */

FILE_DESCRIPTION(
/* description */ (''),
/* implementation_level */ '2;1');

FILE_NAME(
/* name */ 'plate l.step',
/* time_stamp */ '2026-08-31T17:56:38+09:00',
/* author */ (''),
/* organization */ (''),
/* preprocessor_version */ 'ST-DEVELOPER v20.1',
/* originating_system */ 'Autodesk Translation Framework v15.8.0.0',
/* authorisation */ '');

FILE_SCHEMA (('AUTOMOTIVE_DESIGN { 1 0 10303 214 3 1 1 }'));
ENDSEC;

DATA;
#10=MECHANICAL_DESIGN_GEOMETRIC_PRESENTATION_REPRESENTATION('',(#13),#1320);
#11=SHAPE_REPRESENTATION_RELATIONSHIP('SRR','None',#1327,#12);
#12=ADVANCED_BREP_SHAPE_REPRESENTATION('',(#14),#1319);
#13=STYLED_ITEM('',(#1336),#14);
#14=MANIFOLD_SOLID_BREP('\X2\BCF8CCB4\X0\2',#756);
#15=FACE_BOUND('',#238,.T.);
#16=FACE_BOUND('',#239,.T.);
#17=FACE_BOUND('',#240,.T.);
#18=FACE_BOUND('',#241,.T.);
#19=FACE_BOUND('',#242,.T.);
#20=FACE_BOUND('',#243,.T.);
#21=FACE_BOUND('',#244,.T.);
#22=FACE_BOUND('',#245,.T.);
#23=FACE_BOUND('',#246,.T.);
#24=FACE_BOUND('',#247,.T.);
#25=FACE_BOUND('',#248,.T.);
#26=FACE_BOUND('',#249,.T.);
#27=FACE_BOUND('',#250,.T.);
#28=FACE_BOUND('',#251,.T.);
#29=FACE_BOUND('',#252,.T.);
#30=FACE_BOUND('',#253,.T.);
#31=FACE_BOUND('',#254,.T.);
#32=FACE_BOUND('',#255,.T.);
#33=FACE_BOUND('',#258,.T.);
#34=FACE_BOUND('',#261,.T.);
#35=FACE_BOUND('',#264,.T.);
#36=FACE_BOUND('',#267,.T.);
#37=FACE_BOUND('',#270,.T.);
#38=FACE_BOUND('',#285,.T.);
#39=FACE_BOUND('',#286,.T.);
#40=FACE_BOUND('',#287,.T.);
#41=FACE_BOUND('',#288,.T.);
#42=FACE_BOUND('',#289,.T.);
#43=LINE('',#1153,#90);
#44=LINE('',#1157,#91);
#45=LINE('',#1161,#92);
#46=LINE('',#1165,#93);
#47=LINE('',#1169,#94);
#48=LINE('',#1173,#95);
#49=LINE('',#1177,#96);
#50=LINE('',#1181,#97);
#51=LINE('',#1185,#98);
#52=LINE('',#1189,#99);
#53=LINE('',#1193,#100);
#54=LINE('',#1197,#101);
#55=LINE('',#1201,#102);
#56=LINE('',#1205,#103);
#57=LINE('',#1207,#104);
#58=LINE('',#1209,#105);
#59=LINE('',#1211,#106);
#60=LINE('',#1213,#107);
#61=LINE('',#1215,#108);
#62=LINE('',#1217,#109);
#63=LINE('',#1218,#110);
#64=LINE('',#1231,#111);
#65=LINE('',#1238,#112);
#66=LINE('',#1245,#113);
#67=LINE('',#1252,#114);
#68=LINE('',#1259,#115);
#69=LINE('',#1266,#116);
#70=LINE('',#1270,#117);
#71=LINE('',#1274,#118);
#72=LINE('',#1278,#119);
#73=LINE('',#1282,#120);
#74=LINE('',#1287,#121);
#75=LINE('',#1288,#122);
#76=LINE('',#1289,#123);
#77=LINE('',#1292,#124);
#78=LINE('',#1293,#125);
#79=LINE('',#1296,#126);
#80=LINE('',#1297,#127);
#81=LINE('',#1300,#128);
#82=LINE('',#1301,#129);
#83=LINE('',#1304,#130);
#84=LINE('',#1305,#131);
#85=LINE('',#1308,#132);
#86=LINE('',#1309,#133);
#87=LINE('',#1312,#134);
#88=LINE('',#1313,#135);
#89=LINE('',#1315,#136);
#90=VECTOR('',#925,0.150000000000001);
#91=VECTOR('',#930,0.15);
#92=VECTOR('',#935,0.150000000000002);
#93=VECTOR('',#940,0.150000000000002);
#94=VECTOR('',#945,0.2);
#95=VECTOR('',#950,0.2);
#96=VECTOR('',#955,0.2);
#97=VECTOR('',#960,0.2);
#98=VECTOR('',#965,0.2);
#99=VECTOR('',#970,0.199999999999999);
#100=VECTOR('',#975,0.2);
#101=VECTOR('',#980,0.199999999999999);
#102=VECTOR('',#985,0.199999999999999);
#103=VECTOR('',#988,1.);
#104=VECTOR('',#989,1.);
#105=VECTOR('',#990,1.);
#106=VECTOR('',#991,1.);
#107=VECTOR('',#992,1.);
#108=VECTOR('',#993,1.);
#109=VECTOR('',#994,1.);
#110=VECTOR('',#995,1.);
#111=VECTOR('',#1008,0.4);
#112=VECTOR('',#1017,0.4);
#113=VECTOR('',#1026,0.4);
#114=VECTOR('',#1035,0.4);
#115=VECTOR('',#1044,0.4);
#116=VECTOR('',#1053,0.249999999999998);
#117=VECTOR('',#1058,0.25);
#118=VECTOR('',#1063,0.249999999999998);
#119=VECTOR('',#1068,0.25);
#120=VECTOR('',#1073,0.25);
#121=VECTOR('',#1078,1.);
#122=VECTOR('',#1079,1.);
#123=VECTOR('',#1080,1.);
#124=VECTOR('',#1083,1.);
#125=VECTOR('',#1084,1.);
#126=VECTOR('',#1087,1.);
#127=VECTOR('',#1088,1.);
#128=VECTOR('',#1091,1.);
#129=VECTOR('',#1092,1.);
#130=VECTOR('',#1095,1.);
#131=VECTOR('',#1096,1.);
#132=VECTOR('',#1099,1.);
#133=VECTOR('',#1100,1.);
#134=VECTOR('',#1103,1.);
#135=VECTOR('',#1104,1.);
#136=VECTOR('',#1107,1.);
#137=CYLINDRICAL_SURFACE('',#796,0.150000000000001);
#138=CYLINDRICAL_SURFACE('',#798,0.15);
#139=CYLINDRICAL_SURFACE('',#800,0.150000000000002);
#140=CYLINDRICAL_SURFACE('',#802,0.150000000000002);
#141=CYLINDRICAL_SURFACE('',#804,0.2);
#142=CYLINDRICAL_SURFACE('',#806,0.2);
#143=CYLINDRICAL_SURFACE('',#808,0.2);
#144=CYLINDRICAL_SURFACE('',#810,0.2);
#145=CYLINDRICAL_SURFACE('',#812,0.2);
#146=CYLINDRICAL_SURFACE('',#814,0.199999999999999);
#147=CYLINDRICAL_SURFACE('',#816,0.2);
#148=CYLINDRICAL_SURFACE('',#818,0.199999999999999);
#149=CYLINDRICAL_SURFACE('',#820,0.199999999999999);
#150=CYLINDRICAL_SURFACE('',#828,0.4);
#151=CYLINDRICAL_SURFACE('',#832,0.4);
#152=CYLINDRICAL_SURFACE('',#836,0.4);
#153=CYLINDRICAL_SURFACE('',#840,0.4);
#154=CYLINDRICAL_SURFACE('',#844,0.4);
#155=CYLINDRICAL_SURFACE('',#848,0.249999999999998);
#156=CYLINDRICAL_SURFACE('',#850,0.25);
#157=CYLINDRICAL_SURFACE('',#852,0.249999999999998);
#158=CYLINDRICAL_SURFACE('',#854,0.25);
#159=CYLINDRICAL_SURFACE('',#856,0.25);
#160=FACE_OUTER_BOUND('',#211,.T.);
#161=FACE_OUTER_BOUND('',#212,.T.);
#162=FACE_OUTER_BOUND('',#213,.T.);
#163=FACE_OUTER_BOUND('',#214,.T.);
#164=FACE_OUTER_BOUND('',#215,.T.);
#165=FACE_OUTER_BOUND('',#216,.T.);
#166=FACE_OUTER_BOUND('',#217,.T.);
#167=FACE_OUTER_BOUND('',#218,.T.);
#168=FACE_OUTER_BOUND('',#219,.T.);
#169=FACE_OUTER_BOUND('',#220,.T.);
#170=FACE_OUTER_BOUND('',#221,.T.);
#171=FACE_OUTER_BOUND('',#222,.T.);
#172=FACE_OUTER_BOUND('',#223,.T.);
#173=FACE_OUTER_BOUND('',#224,.T.);
#174=FACE_OUTER_BOUND('',#225,.T.);
#175=FACE_OUTER_BOUND('',#226,.T.);
#176=FACE_OUTER_BOUND('',#227,.T.);
#177=FACE_OUTER_BOUND('',#228,.T.);
#178=FACE_OUTER_BOUND('',#229,.T.);
#179=FACE_OUTER_BOUND('',#230,.T.);
#180=FACE_OUTER_BOUND('',#231,.T.);
#181=FACE_OUTER_BOUND('',#232,.T.);
#182=FACE_OUTER_BOUND('',#233,.T.);
#183=FACE_OUTER_BOUND('',#234,.T.);
#184=FACE_OUTER_BOUND('',#235,.T.);
#185=FACE_OUTER_BOUND('',#236,.T.);
#186=FACE_OUTER_BOUND('',#237,.T.);
#187=FACE_OUTER_BOUND('',#256,.T.);
#188=FACE_OUTER_BOUND('',#257,.T.);
#189=FACE_OUTER_BOUND('',#259,.T.);
#190=FACE_OUTER_BOUND('',#260,.T.);
#191=FACE_OUTER_BOUND('',#262,.T.);
#192=FACE_OUTER_BOUND('',#263,.T.);
#193=FACE_OUTER_BOUND('',#265,.T.);
#194=FACE_OUTER_BOUND('',#266,.T.);
#195=FACE_OUTER_BOUND('',#268,.T.);
#196=FACE_OUTER_BOUND('',#269,.T.);
#197=FACE_OUTER_BOUND('',#271,.T.);
#198=FACE_OUTER_BOUND('',#272,.T.);
#199=FACE_OUTER_BOUND('',#273,.T.);
#200=FACE_OUTER_BOUND('',#274,.T.);
#201=FACE_OUTER_BOUND('',#275,.T.);
#202=FACE_OUTER_BOUND('',#276,.T.);
#203=FACE_OUTER_BOUND('',#277,.T.);
#204=FACE_OUTER_BOUND('',#278,.T.);
#205=FACE_OUTER_BOUND('',#279,.T.);
#206=FACE_OUTER_BOUND('',#280,.T.);
#207=FACE_OUTER_BOUND('',#281,.T.);
#208=FACE_OUTER_BOUND('',#282,.T.);
#209=FACE_OUTER_BOUND('',#283,.T.);
#210=FACE_OUTER_BOUND('',#284,.T.);
#211=EDGE_LOOP('',(#491));
#212=EDGE_LOOP('',(#492));
#213=EDGE_LOOP('',(#493));
#214=EDGE_LOOP('',(#494));
#215=EDGE_LOOP('',(#495));
#216=EDGE_LOOP('',(#496));
#217=EDGE_LOOP('',(#497));
#218=EDGE_LOOP('',(#498));
#219=EDGE_LOOP('',(#499));
#220=EDGE_LOOP('',(#500));
#221=EDGE_LOOP('',(#501));
#222=EDGE_LOOP('',(#502));
#223=EDGE_LOOP('',(#503));
#224=EDGE_LOOP('',(#504,#505,#506,#507));
#225=EDGE_LOOP('',(#508,#509,#510,#511));
#226=EDGE_LOOP('',(#512,#513,#514,#515));
#227=EDGE_LOOP('',(#516,#517,#518,#519));
#228=EDGE_LOOP('',(#520,#521,#522,#523));
#229=EDGE_LOOP('',(#524,#525,#526,#527));
#230=EDGE_LOOP('',(#528,#529,#530,#531));
#231=EDGE_LOOP('',(#532,#533,#534,#535));
#232=EDGE_LOOP('',(#536,#537,#538,#539));
#233=EDGE_LOOP('',(#540,#541,#542,#543));
#234=EDGE_LOOP('',(#544,#545,#546,#547));
#235=EDGE_LOOP('',(#548,#549,#550,#551));
#236=EDGE_LOOP('',(#552,#553,#554,#555));
#237=EDGE_LOOP('',(#556,#557,#558,#559,#560,#561,#562,#563));
#238=EDGE_LOOP('',(#564));
#239=EDGE_LOOP('',(#565));
#240=EDGE_LOOP('',(#566));
#241=EDGE_LOOP('',(#567));
#242=EDGE_LOOP('',(#568));
#243=EDGE_LOOP('',(#569));
#244=EDGE_LOOP('',(#570));
#245=EDGE_LOOP('',(#571));
#246=EDGE_LOOP('',(#572));
#247=EDGE_LOOP('',(#573));
#248=EDGE_LOOP('',(#574));
#249=EDGE_LOOP('',(#575));
#250=EDGE_LOOP('',(#576));
#251=EDGE_LOOP('',(#577));
#252=EDGE_LOOP('',(#578));
#253=EDGE_LOOP('',(#579));
#254=EDGE_LOOP('',(#580));
#255=EDGE_LOOP('',(#581));
#256=EDGE_LOOP('',(#582,#583,#584,#585));
#257=EDGE_LOOP('',(#586));
#258=EDGE_LOOP('',(#587));
#259=EDGE_LOOP('',(#588,#589,#590,#591));
#260=EDGE_LOOP('',(#592));
#261=EDGE_LOOP('',(#593));
#262=EDGE_LOOP('',(#594,#595,#596,#597));
#263=EDGE_LOOP('',(#598));
#264=EDGE_LOOP('',(#599));
#265=EDGE_LOOP('',(#600,#601,#602,#603));
#266=EDGE_LOOP('',(#604));
#267=EDGE_LOOP('',(#605));
#268=EDGE_LOOP('',(#606,#607,#608,#609));
#269=EDGE_LOOP('',(#610));
#270=EDGE_LOOP('',(#611));
#271=EDGE_LOOP('',(#612,#613,#614,#615));
#272=EDGE_LOOP('',(#616,#617,#618,#619));
#273=EDGE_LOOP('',(#620,#621,#622,#623));
#274=EDGE_LOOP('',(#624,#625,#626,#627));
#275=EDGE_LOOP('',(#628,#629,#630,#631));
#276=EDGE_LOOP('',(#632,#633,#634,#635));
#277=EDGE_LOOP('',(#636,#637,#638,#639));
#278=EDGE_LOOP('',(#640,#641,#642,#643));
#279=EDGE_LOOP('',(#644,#645,#646,#647));
#280=EDGE_LOOP('',(#648,#649,#650,#651));
#281=EDGE_LOOP('',(#652,#653,#654,#655));
#282=EDGE_LOOP('',(#656,#657,#658,#659));
#283=EDGE_LOOP('',(#660,#661,#662,#663));
#284=EDGE_LOOP('',(#664,#665,#666,#667,#668,#669,#670,#671));
#285=EDGE_LOOP('',(#672));
#286=EDGE_LOOP('',(#673));
#287=EDGE_LOOP('',(#674));
#288=EDGE_LOOP('',(#675));
#289=EDGE_LOOP('',(#676));
#290=CIRCLE('',#771,0.199999999999999);
#291=CIRCLE('',#773,0.2);
#292=CIRCLE('',#775,0.2);
#293=CIRCLE('',#777,0.199999999999999);
#294=CIRCLE('',#779,0.199999999999999);
#295=CIRCLE('',#781,0.2);
#296=CIRCLE('',#783,0.2);
#297=CIRCLE('',#785,0.2);
#298=CIRCLE('',#787,0.2);
#299=CIRCLE('',#789,0.150000000000002);
#300=CIRCLE('',#791,0.150000000000001);
#301=CIRCLE('',#793,0.15);
#302=CIRCLE('',#795,0.150000000000002);
#303=CIRCLE('',#797,0.150000000000001);
#304=CIRCLE('',#799,0.15);
#305=CIRCLE('',#801,0.150000000000002);
#306=CIRCLE('',#803,0.150000000000002);
#307=CIRCLE('',#805,0.2);
#308=CIRCLE('',#807,0.2);
#309=CIRCLE('',#809,0.2);
#310=CIRCLE('',#811,0.2);
#311=CIRCLE('',#813,0.2);
#312=CIRCLE('',#815,0.199999999999999);
#313=CIRCLE('',#817,0.2);
#314=CIRCLE('',#819,0.199999999999999);
#315=CIRCLE('',#821,0.199999999999999);
#316=CIRCLE('',#823,0.4);
#317=CIRCLE('',#824,0.4);
#318=CIRCLE('',#825,0.4);
#319=CIRCLE('',#826,0.4);
#320=CIRCLE('',#827,0.4);
#321=CIRCLE('',#829,0.4);
#322=CIRCLE('',#831,0.25);
#323=CIRCLE('',#833,0.4);
#324=CIRCLE('',#835,0.25);
#325=CIRCLE('',#837,0.4);
#326=CIRCLE('',#839,0.249999999999998);
#327=CIRCLE('',#841,0.4);
#328=CIRCLE('',#843,0.249999999999998);
#329=CIRCLE('',#845,0.4);
#330=CIRCLE('',#847,0.25);
#331=CIRCLE('',#849,0.249999999999998);
#332=CIRCLE('',#851,0.25);
#333=CIRCLE('',#853,0.249999999999998);
#334=CIRCLE('',#855,0.25);
#335=CIRCLE('',#857,0.25);
#336=VERTEX_POINT('',#1112);
#337=VERTEX_POINT('',#1115);
#338=VERTEX_POINT('',#1118);
#339=VERTEX_POINT('',#1121);
#340=VERTEX_POINT('',#1124);
#341=VERTEX_POINT('',#1127);
#342=VERTEX_POINT('',#1130);
#343=VERTEX_POINT('',#1133);
#344=VERTEX_POINT('',#1136);
#345=VERTEX_POINT('',#1139);
#346=VERTEX_POINT('',#1142);
#347=VERTEX_POINT('',#1145);
#348=VERTEX_POINT('',#1148);
#349=VERTEX_POINT('',#1151);
#350=VERTEX_POINT('',#1155);
#351=VERTEX_POINT('',#1159);
#352=VERTEX_POINT('',#1163);
#353=VERTEX_POINT('',#1167);
#354=VERTEX_POINT('',#1171);
#355=VERTEX_POINT('',#1175);
#356=VERTEX_POINT('',#1179);
#357=VERTEX_POINT('',#1183);
#358=VERTEX_POINT('',#1187);
#359=VERTEX_POINT('',#1191);
#360=VERTEX_POINT('',#1195);
#361=VERTEX_POINT('',#1199);
#362=VERTEX_POINT('',#1203);
#363=VERTEX_POINT('',#1204);
#364=VERTEX_POINT('',#1206);
#365=VERTEX_POINT('',#1208);
#366=VERTEX_POINT('',#1210);
#367=VERTEX_POINT('',#1212);
#368=VERTEX_POINT('',#1214);
#369=VERTEX_POINT('',#1216);
#370=VERTEX_POINT('',#1219);
#371=VERTEX_POINT('',#1221);
#372=VERTEX_POINT('',#1223);
#373=VERTEX_POINT('',#1225);
#374=VERTEX_POINT('',#1227);
#375=VERTEX_POINT('',#1230);
#376=VERTEX_POINT('',#1234);
#377=VERTEX_POINT('',#1237);
#378=VERTEX_POINT('',#1241);
#379=VERTEX_POINT('',#1244);
#380=VERTEX_POINT('',#1248);
#381=VERTEX_POINT('',#1251);
#382=VERTEX_POINT('',#1255);
#383=VERTEX_POINT('',#1258);
#384=VERTEX_POINT('',#1262);
#385=VERTEX_POINT('',#1265);
#386=VERTEX_POINT('',#1269);
#387=VERTEX_POINT('',#1273);
#388=VERTEX_POINT('',#1277);
#389=VERTEX_POINT('',#1281);
#390=VERTEX_POINT('',#1285);
#391=VERTEX_POINT('',#1286);
#392=VERTEX_POINT('',#1291);
#393=VERTEX_POINT('',#1295);
#394=VERTEX_POINT('',#1299);
#395=VERTEX_POINT('',#1303);
#396=VERTEX_POINT('',#1307);
#397=VERTEX_POINT('',#1311);
#398=EDGE_CURVE('',#336,#336,#290,.T.);
#399=EDGE_CURVE('',#337,#337,#291,.T.);
#400=EDGE_CURVE('',#338,#338,#292,.T.);
#401=EDGE_CURVE('',#339,#339,#293,.T.);
#402=EDGE_CURVE('',#340,#340,#294,.T.);
#403=EDGE_CURVE('',#341,#341,#295,.T.);
#404=EDGE_CURVE('',#342,#342,#296,.T.);
#405=EDGE_CURVE('',#343,#343,#297,.T.);
#406=EDGE_CURVE('',#344,#344,#298,.T.);
#407=EDGE_CURVE('',#345,#345,#299,.T.);
#408=EDGE_CURVE('',#346,#346,#300,.T.);
#409=EDGE_CURVE('',#347,#347,#301,.T.);
#410=EDGE_CURVE('',#348,#348,#302,.T.);
#411=EDGE_CURVE('',#349,#349,#303,.T.);
#412=EDGE_CURVE('',#349,#346,#43,.T.);
#413=EDGE_CURVE('',#350,#350,#304,.T.);
#414=EDGE_CURVE('',#350,#347,#44,.T.);
#415=EDGE_CURVE('',#351,#351,#305,.T.);
#416=EDGE_CURVE('',#351,#348,#45,.T.);
#417=EDGE_CURVE('',#352,#352,#306,.T.);
#418=EDGE_CURVE('',#352,#345,#46,.T.);
#419=EDGE_CURVE('',#353,#353,#307,.T.);
#420=EDGE_CURVE('',#353,#338,#47,.T.);
#421=EDGE_CURVE('',#354,#354,#308,.T.);
#422=EDGE_CURVE('',#354,#342,#48,.T.);
#423=EDGE_CURVE('',#355,#355,#309,.T.);
#424=EDGE_CURVE('',#355,#337,#49,.T.);
#425=EDGE_CURVE('',#356,#356,#310,.T.);
#426=EDGE_CURVE('',#356,#341,#50,.T.);
#427=EDGE_CURVE('',#357,#357,#311,.T.);
#428=EDGE_CURVE('',#357,#343,#51,.T.);
#429=EDGE_CURVE('',#358,#358,#312,.T.);
#430=EDGE_CURVE('',#358,#339,#52,.T.);
#431=EDGE_CURVE('',#359,#359,#313,.T.);
#432=EDGE_CURVE('',#359,#344,#53,.T.);
#433=EDGE_CURVE('',#360,#360,#314,.T.);
#434=EDGE_CURVE('',#360,#340,#54,.T.);
#435=EDGE_CURVE('',#361,#361,#315,.T.);
#436=EDGE_CURVE('',#361,#336,#55,.T.);
#437=EDGE_CURVE('',#362,#363,#56,.T.);
#438=EDGE_CURVE('',#363,#364,#57,.T.);
#439=EDGE_CURVE('',#364,#365,#58,.T.);
#440=EDGE_CURVE('',#365,#366,#59,.T.);
#441=EDGE_CURVE('',#366,#367,#60,.T.);
#442=EDGE_CURVE('',#367,#368,#61,.T.);
#443=EDGE_CURVE('',#368,#369,#62,.T.);
#444=EDGE_CURVE('',#369,#362,#63,.T.);
#445=EDGE_CURVE('',#370,#370,#316,.T.);
#446=EDGE_CURVE('',#371,#371,#317,.T.);
#447=EDGE_CURVE('',#372,#372,#318,.T.);
#448=EDGE_CURVE('',#373,#373,#319,.T.);
#449=EDGE_CURVE('',#374,#374,#320,.T.);
#450=EDGE_CURVE('',#370,#375,#64,.T.);
#451=EDGE_CURVE('',#375,#375,#321,.T.);
#452=EDGE_CURVE('',#376,#376,#322,.T.);
#453=EDGE_CURVE('',#371,#377,#65,.T.);
#454=EDGE_CURVE('',#377,#377,#323,.T.);
#455=EDGE_CURVE('',#378,#378,#324,.T.);
#456=EDGE_CURVE('',#372,#379,#66,.T.);
#457=EDGE_CURVE('',#379,#379,#325,.T.);
#458=EDGE_CURVE('',#380,#380,#326,.T.);
#459=EDGE_CURVE('',#373,#381,#67,.T.);
#460=EDGE_CURVE('',#381,#381,#327,.T.);
#461=EDGE_CURVE('',#382,#382,#328,.T.);
#462=EDGE_CURVE('',#374,#383,#68,.T.);
#463=EDGE_CURVE('',#383,#383,#329,.T.);
#464=EDGE_CURVE('',#384,#384,#330,.T.);
#465=EDGE_CURVE('',#380,#385,#69,.T.);
#466=EDGE_CURVE('',#385,#385,#331,.T.);
#467=EDGE_CURVE('',#378,#386,#70,.T.);
#468=EDGE_CURVE('',#386,#386,#332,.T.);
#469=EDGE_CURVE('',#382,#387,#71,.T.);
#470=EDGE_CURVE('',#387,#387,#333,.T.);
#471=EDGE_CURVE('',#384,#388,#72,.T.);
#472=EDGE_CURVE('',#388,#388,#334,.T.);
#473=EDGE_CURVE('',#376,#389,#73,.T.);
#474=EDGE_CURVE('',#389,#389,#335,.T.);
#475=EDGE_CURVE('',#390,#391,#74,.T.);
#476=EDGE_CURVE('',#391,#362,#75,.T.);
#477=EDGE_CURVE('',#390,#369,#76,.T.);
#478=EDGE_CURVE('',#390,#392,#77,.T.);
#479=EDGE_CURVE('',#392,#368,#78,.T.);
#480=EDGE_CURVE('',#392,#393,#79,.T.);
#481=EDGE_CURVE('',#393,#367,#80,.T.);
#482=EDGE_CURVE('',#394,#393,#81,.T.);
#483=EDGE_CURVE('',#394,#366,#82,.T.);
#484=EDGE_CURVE('',#394,#395,#83,.T.);
#485=EDGE_CURVE('',#395,#365,#84,.T.);
#486=EDGE_CURVE('',#395,#396,#85,.T.);
#487=EDGE_CURVE('',#396,#364,#86,.T.);
#488=EDGE_CURVE('',#396,#397,#87,.T.);
#489=EDGE_CURVE('',#397,#363,#88,.T.);
#490=EDGE_CURVE('',#391,#397,#89,.T.);
#491=ORIENTED_EDGE('',*,*,#398,.F.);
#492=ORIENTED_EDGE('',*,*,#399,.F.);
#493=ORIENTED_EDGE('',*,*,#400,.F.);
#494=ORIENTED_EDGE('',*,*,#401,.F.);
#495=ORIENTED_EDGE('',*,*,#402,.F.);
#496=ORIENTED_EDGE('',*,*,#403,.F.);
#497=ORIENTED_EDGE('',*,*,#404,.F.);
#498=ORIENTED_EDGE('',*,*,#405,.F.);
#499=ORIENTED_EDGE('',*,*,#406,.F.);
#500=ORIENTED_EDGE('',*,*,#407,.F.);
#501=ORIENTED_EDGE('',*,*,#408,.F.);
#502=ORIENTED_EDGE('',*,*,#409,.F.);
#503=ORIENTED_EDGE('',*,*,#410,.F.);
#504=ORIENTED_EDGE('',*,*,#411,.F.);
#505=ORIENTED_EDGE('',*,*,#412,.T.);
#506=ORIENTED_EDGE('',*,*,#408,.T.);
#507=ORIENTED_EDGE('',*,*,#412,.F.);
#508=ORIENTED_EDGE('',*,*,#413,.F.);
#509=ORIENTED_EDGE('',*,*,#414,.T.);
#510=ORIENTED_EDGE('',*,*,#409,.T.);
#511=ORIENTED_EDGE('',*,*,#414,.F.);
#512=ORIENTED_EDGE('',*,*,#415,.F.);
#513=ORIENTED_EDGE('',*,*,#416,.T.);
#514=ORIENTED_EDGE('',*,*,#410,.T.);
#515=ORIENTED_EDGE('',*,*,#416,.F.);
#516=ORIENTED_EDGE('',*,*,#417,.F.);
#517=ORIENTED_EDGE('',*,*,#418,.T.);
#518=ORIENTED_EDGE('',*,*,#407,.T.);
#519=ORIENTED_EDGE('',*,*,#418,.F.);
#520=ORIENTED_EDGE('',*,*,#419,.F.);
#521=ORIENTED_EDGE('',*,*,#420,.T.);
#522=ORIENTED_EDGE('',*,*,#400,.T.);
#523=ORIENTED_EDGE('',*,*,#420,.F.);
#524=ORIENTED_EDGE('',*,*,#421,.F.);
#525=ORIENTED_EDGE('',*,*,#422,.T.);
#526=ORIENTED_EDGE('',*,*,#404,.T.);
#527=ORIENTED_EDGE('',*,*,#422,.F.);
#528=ORIENTED_EDGE('',*,*,#423,.F.);
#529=ORIENTED_EDGE('',*,*,#424,.T.);
#530=ORIENTED_EDGE('',*,*,#399,.T.);
#531=ORIENTED_EDGE('',*,*,#424,.F.);
#532=ORIENTED_EDGE('',*,*,#425,.F.);
#533=ORIENTED_EDGE('',*,*,#426,.T.);
#534=ORIENTED_EDGE('',*,*,#403,.T.);
#535=ORIENTED_EDGE('',*,*,#426,.F.);
#536=ORIENTED_EDGE('',*,*,#427,.F.);
#537=ORIENTED_EDGE('',*,*,#428,.T.);
#538=ORIENTED_EDGE('',*,*,#405,.T.);
#539=ORIENTED_EDGE('',*,*,#428,.F.);
#540=ORIENTED_EDGE('',*,*,#429,.F.);
#541=ORIENTED_EDGE('',*,*,#430,.T.);
#542=ORIENTED_EDGE('',*,*,#401,.T.);
#543=ORIENTED_EDGE('',*,*,#430,.F.);
#544=ORIENTED_EDGE('',*,*,#431,.F.);
#545=ORIENTED_EDGE('',*,*,#432,.T.);
#546=ORIENTED_EDGE('',*,*,#406,.T.);
#547=ORIENTED_EDGE('',*,*,#432,.F.);
#548=ORIENTED_EDGE('',*,*,#433,.F.);
#549=ORIENTED_EDGE('',*,*,#434,.T.);
#550=ORIENTED_EDGE('',*,*,#402,.T.);
#551=ORIENTED_EDGE('',*,*,#434,.F.);
#552=ORIENTED_EDGE('',*,*,#435,.F.);
#553=ORIENTED_EDGE('',*,*,#436,.T.);
#554=ORIENTED_EDGE('',*,*,#398,.T.);
#555=ORIENTED_EDGE('',*,*,#436,.F.);
#556=ORIENTED_EDGE('',*,*,#437,.T.);
#557=ORIENTED_EDGE('',*,*,#438,.T.);
#558=ORIENTED_EDGE('',*,*,#439,.T.);
#559=ORIENTED_EDGE('',*,*,#440,.T.);
#560=ORIENTED_EDGE('',*,*,#441,.T.);
#561=ORIENTED_EDGE('',*,*,#442,.T.);
#562=ORIENTED_EDGE('',*,*,#443,.T.);
#563=ORIENTED_EDGE('',*,*,#444,.T.);
#564=ORIENTED_EDGE('',*,*,#415,.T.);
#565=ORIENTED_EDGE('',*,*,#417,.T.);
#566=ORIENTED_EDGE('',*,*,#445,.T.);
#567=ORIENTED_EDGE('',*,*,#446,.T.);
#568=ORIENTED_EDGE('',*,*,#447,.T.);
#569=ORIENTED_EDGE('',*,*,#448,.T.);
#570=ORIENTED_EDGE('',*,*,#449,.T.);
#571=ORIENTED_EDGE('',*,*,#435,.T.);
#572=ORIENTED_EDGE('',*,*,#433,.T.);
#573=ORIENTED_EDGE('',*,*,#431,.T.);
#574=ORIENTED_EDGE('',*,*,#429,.T.);
#575=ORIENTED_EDGE('',*,*,#427,.T.);
#576=ORIENTED_EDGE('',*,*,#425,.T.);
#577=ORIENTED_EDGE('',*,*,#423,.T.);
#578=ORIENTED_EDGE('',*,*,#421,.T.);
#579=ORIENTED_EDGE('',*,*,#419,.T.);
#580=ORIENTED_EDGE('',*,*,#413,.T.);
#581=ORIENTED_EDGE('',*,*,#411,.T.);
#582=ORIENTED_EDGE('',*,*,#445,.F.);
#583=ORIENTED_EDGE('',*,*,#450,.T.);
#584=ORIENTED_EDGE('',*,*,#451,.T.);
#585=ORIENTED_EDGE('',*,*,#450,.F.);
#586=ORIENTED_EDGE('',*,*,#451,.F.);
#587=ORIENTED_EDGE('',*,*,#452,.F.);
#588=ORIENTED_EDGE('',*,*,#446,.F.);
#589=ORIENTED_EDGE('',*,*,#453,.T.);
#590=ORIENTED_EDGE('',*,*,#454,.T.);
#591=ORIENTED_EDGE('',*,*,#453,.F.);
#592=ORIENTED_EDGE('',*,*,#454,.F.);
#593=ORIENTED_EDGE('',*,*,#455,.F.);
#594=ORIENTED_EDGE('',*,*,#447,.F.);
#595=ORIENTED_EDGE('',*,*,#456,.T.);
#596=ORIENTED_EDGE('',*,*,#457,.T.);
#597=ORIENTED_EDGE('',*,*,#456,.F.);
#598=ORIENTED_EDGE('',*,*,#457,.F.);
#599=ORIENTED_EDGE('',*,*,#458,.F.);
#600=ORIENTED_EDGE('',*,*,#448,.F.);
#601=ORIENTED_EDGE('',*,*,#459,.T.);
#602=ORIENTED_EDGE('',*,*,#460,.T.);
#603=ORIENTED_EDGE('',*,*,#459,.F.);
#604=ORIENTED_EDGE('',*,*,#460,.F.);
#605=ORIENTED_EDGE('',*,*,#461,.F.);
#606=ORIENTED_EDGE('',*,*,#449,.F.);
#607=ORIENTED_EDGE('',*,*,#462,.T.);
#608=ORIENTED_EDGE('',*,*,#463,.T.);
#609=ORIENTED_EDGE('',*,*,#462,.F.);
#610=ORIENTED_EDGE('',*,*,#463,.F.);
#611=ORIENTED_EDGE('',*,*,#464,.F.);
#612=ORIENTED_EDGE('',*,*,#458,.T.);
#613=ORIENTED_EDGE('',*,*,#465,.T.);
#614=ORIENTED_EDGE('',*,*,#466,.T.);
#615=ORIENTED_EDGE('',*,*,#465,.F.);
#616=ORIENTED_EDGE('',*,*,#455,.T.);
#617=ORIENTED_EDGE('',*,*,#467,.T.);
#618=ORIENTED_EDGE('',*,*,#468,.T.);
#619=ORIENTED_EDGE('',*,*,#467,.F.);
#620=ORIENTED_EDGE('',*,*,#461,.T.);
#621=ORIENTED_EDGE('',*,*,#469,.T.);
#622=ORIENTED_EDGE('',*,*,#470,.T.);
#623=ORIENTED_EDGE('',*,*,#469,.F.);
#624=ORIENTED_EDGE('',*,*,#464,.T.);
#625=ORIENTED_EDGE('',*,*,#471,.T.);
#626=ORIENTED_EDGE('',*,*,#472,.T.);
#627=ORIENTED_EDGE('',*,*,#471,.F.);
#628=ORIENTED_EDGE('',*,*,#452,.T.);
#629=ORIENTED_EDGE('',*,*,#473,.T.);
#630=ORIENTED_EDGE('',*,*,#474,.T.);
#631=ORIENTED_EDGE('',*,*,#473,.F.);
#632=ORIENTED_EDGE('',*,*,#475,.T.);
#633=ORIENTED_EDGE('',*,*,#476,.T.);
#634=ORIENTED_EDGE('',*,*,#444,.F.);
#635=ORIENTED_EDGE('',*,*,#477,.F.);
#636=ORIENTED_EDGE('',*,*,#478,.F.);
#637=ORIENTED_EDGE('',*,*,#477,.T.);
#638=ORIENTED_EDGE('',*,*,#443,.F.);
#639=ORIENTED_EDGE('',*,*,#479,.F.);
#640=ORIENTED_EDGE('',*,*,#480,.F.);
#641=ORIENTED_EDGE('',*,*,#479,.T.);
#642=ORIENTED_EDGE('',*,*,#442,.F.);
#643=ORIENTED_EDGE('',*,*,#481,.F.);
#644=ORIENTED_EDGE('',*,*,#482,.T.);
#645=ORIENTED_EDGE('',*,*,#481,.T.);
#646=ORIENTED_EDGE('',*,*,#441,.F.);
#647=ORIENTED_EDGE('',*,*,#483,.F.);
#648=ORIENTED_EDGE('',*,*,#484,.F.);
#649=ORIENTED_EDGE('',*,*,#483,.T.);
#650=ORIENTED_EDGE('',*,*,#440,.F.);
#651=ORIENTED_EDGE('',*,*,#485,.F.);
#652=ORIENTED_EDGE('',*,*,#486,.F.);
#653=ORIENTED_EDGE('',*,*,#485,.T.);
#654=ORIENTED_EDGE('',*,*,#439,.F.);
#655=ORIENTED_EDGE('',*,*,#487,.F.);
#656=ORIENTED_EDGE('',*,*,#488,.F.);
#657=ORIENTED_EDGE('',*,*,#487,.T.);
#658=ORIENTED_EDGE('',*,*,#438,.F.);
#659=ORIENTED_EDGE('',*,*,#489,.F.);
#660=ORIENTED_EDGE('',*,*,#490,.T.);
#661=ORIENTED_EDGE('',*,*,#489,.T.);
#662=ORIENTED_EDGE('',*,*,#437,.F.);
#663=ORIENTED_EDGE('',*,*,#476,.F.);
#664=ORIENTED_EDGE('',*,*,#490,.F.);
#665=ORIENTED_EDGE('',*,*,#475,.F.);
#666=ORIENTED_EDGE('',*,*,#478,.T.);
#667=ORIENTED_EDGE('',*,*,#480,.T.);
#668=ORIENTED_EDGE('',*,*,#482,.F.);
#669=ORIENTED_EDGE('',*,*,#484,.T.);
#670=ORIENTED_EDGE('',*,*,#486,.T.);
#671=ORIENTED_EDGE('',*,*,#488,.T.);
#672=ORIENTED_EDGE('',*,*,#474,.F.);
#673=ORIENTED_EDGE('',*,*,#472,.F.);
#674=ORIENTED_EDGE('',*,*,#470,.F.);
#675=ORIENTED_EDGE('',*,*,#468,.F.);
#676=ORIENTED_EDGE('',*,*,#466,.F.);
#677=PLANE('',#770);
#678=PLANE('',#772);
#679=PLANE('',#774);
#680=PLANE('',#776);
#681=PLANE('',#778);
#682=PLANE('',#780);
#683=PLANE('',#782);
#684=PLANE('',#784);
#685=PLANE('',#786);
#686=PLANE('',#788);
#687=PLANE('',#790);
#688=PLANE('',#792);
#689=PLANE('',#794);
#690=PLANE('',#822);
#691=PLANE('',#830);
#692=PLANE('',#834);
#693=PLANE('',#838);
#694=PLANE('',#842);
#695=PLANE('',#846);
#696=PLANE('',#858);
#697=PLANE('',#859);
#698=PLANE('',#860);
#699=PLANE('',#861);
#700=PLANE('',#862);
#701=PLANE('',#863);
#702=PLANE('',#864);
#703=PLANE('',#865);
#704=PLANE('',#866);
#705=ADVANCED_FACE('',(#160),#677,.T.);
#706=ADVANCED_FACE('',(#161),#678,.T.);
#707=ADVANCED_FACE('',(#162),#679,.T.);
#708=ADVANCED_FACE('',(#163),#680,.T.);
#709=ADVANCED_FACE('',(#164),#681,.T.);
#710=ADVANCED_FACE('',(#165),#682,.T.);
#711=ADVANCED_FACE('',(#166),#683,.T.);
#712=ADVANCED_FACE('',(#167),#684,.T.);
#713=ADVANCED_FACE('',(#168),#685,.T.);
#714=ADVANCED_FACE('',(#169),#686,.T.);
#715=ADVANCED_FACE('',(#170),#687,.T.);
#716=ADVANCED_FACE('',(#171),#688,.T.);
#717=ADVANCED_FACE('',(#172),#689,.T.);
#718=ADVANCED_FACE('',(#173),#137,.F.);
#719=ADVANCED_FACE('',(#174),#138,.F.);
#720=ADVANCED_FACE('',(#175),#139,.F.);
#721=ADVANCED_FACE('',(#176),#140,.F.);
#722=ADVANCED_FACE('',(#177),#141,.F.);
#723=ADVANCED_FACE('',(#178),#142,.F.);
#724=ADVANCED_FACE('',(#179),#143,.F.);
#725=ADVANCED_FACE('',(#180),#144,.F.);
#726=ADVANCED_FACE('',(#181),#145,.F.);
#727=ADVANCED_FACE('',(#182),#146,.F.);
#728=ADVANCED_FACE('',(#183),#147,.F.);
#729=ADVANCED_FACE('',(#184),#148,.F.);
#730=ADVANCED_FACE('',(#185),#149,.F.);
#731=ADVANCED_FACE('',(#186,#15,#16,#17,#18,#19,#20,#21,#22,#23,#24,#25,
#26,#27,#28,#29,#30,#31,#32),#690,.T.);
#732=ADVANCED_FACE('',(#187),#150,.F.);
#733=ADVANCED_FACE('',(#188,#33),#691,.T.);
#734=ADVANCED_FACE('',(#189),#151,.F.);
#735=ADVANCED_FACE('',(#190,#34),#692,.T.);
#736=ADVANCED_FACE('',(#191),#152,.F.);
#737=ADVANCED_FACE('',(#192,#35),#693,.T.);
#738=ADVANCED_FACE('',(#193),#153,.F.);
#739=ADVANCED_FACE('',(#194,#36),#694,.T.);
#740=ADVANCED_FACE('',(#195),#154,.F.);
#741=ADVANCED_FACE('',(#196,#37),#695,.T.);
#742=ADVANCED_FACE('',(#197),#155,.F.);
#743=ADVANCED_FACE('',(#198),#156,.F.);
#744=ADVANCED_FACE('',(#199),#157,.F.);
#745=ADVANCED_FACE('',(#200),#158,.F.);
#746=ADVANCED_FACE('',(#201),#159,.F.);
#747=ADVANCED_FACE('',(#202),#696,.T.);
#748=ADVANCED_FACE('',(#203),#697,.T.);
#749=ADVANCED_FACE('',(#204),#698,.T.);
#750=ADVANCED_FACE('',(#205),#699,.T.);
#751=ADVANCED_FACE('',(#206),#700,.T.);
#752=ADVANCED_FACE('',(#207),#701,.T.);
#753=ADVANCED_FACE('',(#208),#702,.T.);
#754=ADVANCED_FACE('',(#209),#703,.T.);
#755=ADVANCED_FACE('',(#210,#38,#39,#40,#41,#42),#704,.F.);
#756=CLOSED_SHELL('',(#705,#706,#707,#708,#709,#710,#711,#712,#713,#714,
#715,#716,#717,#718,#719,#720,#721,#722,#723,#724,#725,#726,#727,#728,#729,
#730,#731,#732,#733,#734,#735,#736,#737,#738,#739,#740,#741,#742,#743,#744,
#745,#746,#747,#748,#749,#750,#751,#752,#753,#754,#755));
#757=DERIVED_UNIT_ELEMENT(#759,1.);
#758=DERIVED_UNIT_ELEMENT(#1322,-3.);
#759=(
MASS_UNIT()
NAMED_UNIT(*)
SI_UNIT(.KILO.,.GRAM.)
);
#760=DERIVED_UNIT((#757,#758));
#761=MEASURE_REPRESENTATION_ITEM('density measure',
POSITIVE_RATIO_MEASURE(1060.),#760);
#762=PROPERTY_DEFINITION_REPRESENTATION(#767,#764);
#763=PROPERTY_DEFINITION_REPRESENTATION(#768,#765);
#764=REPRESENTATION('material name',(#766),#1319);
#765=REPRESENTATION('density',(#761),#1319);
#766=DESCRIPTIVE_REPRESENTATION_ITEM('ABS \X2\D50CB77CC2A4D2F1\X0\',
'ABS \X2\D50CB77CC2A4D2F1\X0\');
#767=PROPERTY_DEFINITION('material property','material name',#1329);
#768=PROPERTY_DEFINITION('material property','density of part',#1329);
#769=AXIS2_PLACEMENT_3D('',#1110,#867,#868);
#770=AXIS2_PLACEMENT_3D('',#1111,#869,#870);
#771=AXIS2_PLACEMENT_3D('',#1113,#871,#872);
#772=AXIS2_PLACEMENT_3D('',#1114,#873,#874);
#773=AXIS2_PLACEMENT_3D('',#1116,#875,#876);
#774=AXIS2_PLACEMENT_3D('',#1117,#877,#878);
#775=AXIS2_PLACEMENT_3D('',#1119,#879,#880);
#776=AXIS2_PLACEMENT_3D('',#1120,#881,#882);
#777=AXIS2_PLACEMENT_3D('',#1122,#883,#884);
#778=AXIS2_PLACEMENT_3D('',#1123,#885,#886);
#779=AXIS2_PLACEMENT_3D('',#1125,#887,#888);
#780=AXIS2_PLACEMENT_3D('',#1126,#889,#890);
#781=AXIS2_PLACEMENT_3D('',#1128,#891,#892);
#782=AXIS2_PLACEMENT_3D('',#1129,#893,#894);
#783=AXIS2_PLACEMENT_3D('',#1131,#895,#896);
#784=AXIS2_PLACEMENT_3D('',#1132,#897,#898);
#785=AXIS2_PLACEMENT_3D('',#1134,#899,#900);
#786=AXIS2_PLACEMENT_3D('',#1135,#901,#902);
#787=AXIS2_PLACEMENT_3D('',#1137,#903,#904);
#788=AXIS2_PLACEMENT_3D('',#1138,#905,#906);
#789=AXIS2_PLACEMENT_3D('',#1140,#907,#908);
#790=AXIS2_PLACEMENT_3D('',#1141,#909,#910);
#791=AXIS2_PLACEMENT_3D('',#1143,#911,#912);
#792=AXIS2_PLACEMENT_3D('',#1144,#913,#914);
#793=AXIS2_PLACEMENT_3D('',#1146,#915,#916);
#794=AXIS2_PLACEMENT_3D('',#1147,#917,#918);
#795=AXIS2_PLACEMENT_3D('',#1149,#919,#920);
#796=AXIS2_PLACEMENT_3D('',#1150,#921,#922);
#797=AXIS2_PLACEMENT_3D('',#1152,#923,#924);
#798=AXIS2_PLACEMENT_3D('',#1154,#926,#927);
#799=AXIS2_PLACEMENT_3D('',#1156,#928,#929);
#800=AXIS2_PLACEMENT_3D('',#1158,#931,#932);
#801=AXIS2_PLACEMENT_3D('',#1160,#933,#934);
#802=AXIS2_PLACEMENT_3D('',#1162,#936,#937);
#803=AXIS2_PLACEMENT_3D('',#1164,#938,#939);
#804=AXIS2_PLACEMENT_3D('',#1166,#941,#942);
#805=AXIS2_PLACEMENT_3D('',#1168,#943,#944);
#806=AXIS2_PLACEMENT_3D('',#1170,#946,#947);
#807=AXIS2_PLACEMENT_3D('',#1172,#948,#949);
#808=AXIS2_PLACEMENT_3D('',#1174,#951,#952);
#809=AXIS2_PLACEMENT_3D('',#1176,#953,#954);
#810=AXIS2_PLACEMENT_3D('',#1178,#956,#957);
#811=AXIS2_PLACEMENT_3D('',#1180,#958,#959);
#812=AXIS2_PLACEMENT_3D('',#1182,#961,#962);
#813=AXIS2_PLACEMENT_3D('',#1184,#963,#964);
#814=AXIS2_PLACEMENT_3D('',#1186,#966,#967);
#815=AXIS2_PLACEMENT_3D('',#1188,#968,#969);
#816=AXIS2_PLACEMENT_3D('',#1190,#971,#972);
#817=AXIS2_PLACEMENT_3D('',#1192,#973,#974);
#818=AXIS2_PLACEMENT_3D('',#1194,#976,#977);
#819=AXIS2_PLACEMENT_3D('',#1196,#978,#979);
#820=AXIS2_PLACEMENT_3D('',#1198,#981,#982);
#821=AXIS2_PLACEMENT_3D('',#1200,#983,#984);
#822=AXIS2_PLACEMENT_3D('',#1202,#986,#987);
#823=AXIS2_PLACEMENT_3D('',#1220,#996,#997);
#824=AXIS2_PLACEMENT_3D('',#1222,#998,#999);
#825=AXIS2_PLACEMENT_3D('',#1224,#1000,#1001);
#826=AXIS2_PLACEMENT_3D('',#1226,#1002,#1003);
#827=AXIS2_PLACEMENT_3D('',#1228,#1004,#1005);
#828=AXIS2_PLACEMENT_3D('',#1229,#1006,#1007);
#829=AXIS2_PLACEMENT_3D('',#1232,#1009,#1010);
#830=AXIS2_PLACEMENT_3D('',#1233,#1011,#1012);
#831=AXIS2_PLACEMENT_3D('',#1235,#1013,#1014);
#832=AXIS2_PLACEMENT_3D('',#1236,#1015,#1016);
#833=AXIS2_PLACEMENT_3D('',#1239,#1018,#1019);
#834=AXIS2_PLACEMENT_3D('',#1240,#1020,#1021);
#835=AXIS2_PLACEMENT_3D('',#1242,#1022,#1023);
#836=AXIS2_PLACEMENT_3D('',#1243,#1024,#1025);
#837=AXIS2_PLACEMENT_3D('',#1246,#1027,#1028);
#838=AXIS2_PLACEMENT_3D('',#1247,#1029,#1030);
#839=AXIS2_PLACEMENT_3D('',#1249,#1031,#1032);
#840=AXIS2_PLACEMENT_3D('',#1250,#1033,#1034);
#841=AXIS2_PLACEMENT_3D('',#1253,#1036,#1037);
#842=AXIS2_PLACEMENT_3D('',#1254,#1038,#1039);
#843=AXIS2_PLACEMENT_3D('',#1256,#1040,#1041);
#844=AXIS2_PLACEMENT_3D('',#1257,#1042,#1043);
#845=AXIS2_PLACEMENT_3D('',#1260,#1045,#1046);
#846=AXIS2_PLACEMENT_3D('',#1261,#1047,#1048);
#847=AXIS2_PLACEMENT_3D('',#1263,#1049,#1050);
#848=AXIS2_PLACEMENT_3D('',#1264,#1051,#1052);
#849=AXIS2_PLACEMENT_3D('',#1267,#1054,#1055);
#850=AXIS2_PLACEMENT_3D('',#1268,#1056,#1057);
#851=AXIS2_PLACEMENT_3D('',#1271,#1059,#1060);
#852=AXIS2_PLACEMENT_3D('',#1272,#1061,#1062);
#853=AXIS2_PLACEMENT_3D('',#1275,#1064,#1065);
#854=AXIS2_PLACEMENT_3D('',#1276,#1066,#1067);
#855=AXIS2_PLACEMENT_3D('',#1279,#1069,#1070);
#856=AXIS2_PLACEMENT_3D('',#1280,#1071,#1072);
#857=AXIS2_PLACEMENT_3D('',#1283,#1074,#1075);
#858=AXIS2_PLACEMENT_3D('',#1284,#1076,#1077);
#859=AXIS2_PLACEMENT_3D('',#1290,#1081,#1082);
#860=AXIS2_PLACEMENT_3D('',#1294,#1085,#1086);
#861=AXIS2_PLACEMENT_3D('',#1298,#1089,#1090);
#862=AXIS2_PLACEMENT_3D('',#1302,#1093,#1094);
#863=AXIS2_PLACEMENT_3D('',#1306,#1097,#1098);
#864=AXIS2_PLACEMENT_3D('',#1310,#1101,#1102);
#865=AXIS2_PLACEMENT_3D('',#1314,#1105,#1106);
#866=AXIS2_PLACEMENT_3D('',#1316,#1108,#1109);
#867=DIRECTION('axis',(0.,0.,1.));
#868=DIRECTION('refdir',(1.,0.,0.));
#869=DIRECTION('center_axis',(0.,0.,1.));
#870=DIRECTION('ref_axis',(-1.,0.,0.));
#871=DIRECTION('center_axis',(0.,0.,-1.));
#872=DIRECTION('ref_axis',(-1.,0.,0.));
#873=DIRECTION('center_axis',(0.,0.,1.));
#874=DIRECTION('ref_axis',(-1.,0.,0.));
#875=DIRECTION('center_axis',(0.,0.,-1.));
#876=DIRECTION('ref_axis',(-1.,0.,0.));
#877=DIRECTION('center_axis',(0.,0.,1.));
#878=DIRECTION('ref_axis',(-1.,0.,0.));
#879=DIRECTION('center_axis',(0.,0.,-1.));
#880=DIRECTION('ref_axis',(-1.,0.,0.));
#881=DIRECTION('center_axis',(0.,0.,1.));
#882=DIRECTION('ref_axis',(-1.,0.,0.));
#883=DIRECTION('center_axis',(0.,0.,-1.));
#884=DIRECTION('ref_axis',(-1.,0.,0.));
#885=DIRECTION('center_axis',(0.,0.,1.));
#886=DIRECTION('ref_axis',(-1.,0.,0.));
#887=DIRECTION('center_axis',(0.,0.,-1.));
#888=DIRECTION('ref_axis',(-1.,0.,0.));
#889=DIRECTION('center_axis',(0.,0.,1.));
#890=DIRECTION('ref_axis',(-1.,0.,0.));
#891=DIRECTION('center_axis',(0.,0.,-1.));
#892=DIRECTION('ref_axis',(-1.,0.,0.));
#893=DIRECTION('center_axis',(0.,0.,1.));
#894=DIRECTION('ref_axis',(-1.,0.,0.));
#895=DIRECTION('center_axis',(0.,0.,-1.));
#896=DIRECTION('ref_axis',(-1.,0.,0.));
#897=DIRECTION('center_axis',(0.,0.,1.));
#898=DIRECTION('ref_axis',(-1.,0.,0.));
#899=DIRECTION('center_axis',(0.,0.,-1.));
#900=DIRECTION('ref_axis',(-1.,0.,0.));
#901=DIRECTION('center_axis',(0.,0.,1.));
#902=DIRECTION('ref_axis',(-1.,0.,0.));
#903=DIRECTION('center_axis',(0.,0.,-1.));
#904=DIRECTION('ref_axis',(-1.,0.,0.));
#905=DIRECTION('center_axis',(0.,0.,1.));
#906=DIRECTION('ref_axis',(-1.,0.,0.));
#907=DIRECTION('center_axis',(0.,0.,-1.));
#908=DIRECTION('ref_axis',(-1.,0.,0.));
#909=DIRECTION('center_axis',(0.,0.,1.));
#910=DIRECTION('ref_axis',(-1.,0.,0.));
#911=DIRECTION('center_axis',(0.,0.,-1.));
#912=DIRECTION('ref_axis',(-1.,0.,0.));
#913=DIRECTION('center_axis',(0.,0.,1.));
#914=DIRECTION('ref_axis',(-1.,0.,0.));
#915=DIRECTION('center_axis',(0.,0.,-1.));
#916=DIRECTION('ref_axis',(-1.,0.,0.));
#917=DIRECTION('center_axis',(0.,0.,1.));
#918=DIRECTION('ref_axis',(-1.,0.,0.));
#919=DIRECTION('center_axis',(0.,0.,-1.));
#920=DIRECTION('ref_axis',(-1.,0.,0.));
#921=DIRECTION('center_axis',(0.,0.,-1.));
#922=DIRECTION('ref_axis',(-1.,0.,0.));
#923=DIRECTION('center_axis',(0.,0.,-1.));
#924=DIRECTION('ref_axis',(-1.,0.,0.));
#925=DIRECTION('',(0.,0.,-1.));
#926=DIRECTION('center_axis',(0.,0.,-1.));
#927=DIRECTION('ref_axis',(-1.,0.,0.));
#928=DIRECTION('center_axis',(0.,0.,-1.));
#929=DIRECTION('ref_axis',(-1.,0.,0.));
#930=DIRECTION('',(0.,0.,-1.));
#931=DIRECTION('center_axis',(0.,0.,-1.));
#932=DIRECTION('ref_axis',(-1.,0.,0.));
#933=DIRECTION('center_axis',(0.,0.,-1.));
#934=DIRECTION('ref_axis',(-1.,0.,0.));
#935=DIRECTION('',(0.,0.,-1.));
#936=DIRECTION('center_axis',(0.,0.,-1.));
#937=DIRECTION('ref_axis',(-1.,0.,0.));
#938=DIRECTION('center_axis',(0.,0.,-1.));
#939=DIRECTION('ref_axis',(-1.,0.,0.));
#940=DIRECTION('',(0.,0.,-1.));
#941=DIRECTION('center_axis',(0.,0.,-1.));
#942=DIRECTION('ref_axis',(-1.,0.,0.));
#943=DIRECTION('center_axis',(0.,0.,-1.));
#944=DIRECTION('ref_axis',(-1.,0.,0.));
#945=DIRECTION('',(0.,0.,-1.));
#946=DIRECTION('center_axis',(0.,0.,-1.));
#947=DIRECTION('ref_axis',(-1.,0.,0.));
#948=DIRECTION('center_axis',(0.,0.,-1.));
#949=DIRECTION('ref_axis',(-1.,0.,0.));
#950=DIRECTION('',(0.,0.,-1.));
#951=DIRECTION('center_axis',(0.,0.,-1.));
#952=DIRECTION('ref_axis',(-1.,0.,0.));
#953=DIRECTION('center_axis',(0.,0.,-1.));
#954=DIRECTION('ref_axis',(-1.,0.,0.));
#955=DIRECTION('',(0.,0.,-1.));
#956=DIRECTION('center_axis',(0.,0.,-1.));
#957=DIRECTION('ref_axis',(-1.,0.,0.));
#958=DIRECTION('center_axis',(0.,0.,-1.));
#959=DIRECTION('ref_axis',(-1.,0.,0.));
#960=DIRECTION('',(0.,0.,-1.));
#961=DIRECTION('center_axis',(0.,0.,-1.));
#962=DIRECTION('ref_axis',(-1.,0.,0.));
#963=DIRECTION('center_axis',(0.,0.,-1.));
#964=DIRECTION('ref_axis',(-1.,0.,0.));
#965=DIRECTION('',(0.,0.,-1.));
#966=DIRECTION('center_axis',(0.,0.,-1.));
#967=DIRECTION('ref_axis',(-1.,0.,0.));
#968=DIRECTION('center_axis',(0.,0.,-1.));
#969=DIRECTION('ref_axis',(-1.,0.,0.));
#970=DIRECTION('',(0.,0.,-1.));
#971=DIRECTION('center_axis',(0.,0.,-1.));
#972=DIRECTION('ref_axis',(-1.,0.,0.));
#973=DIRECTION('center_axis',(0.,0.,-1.));
#974=DIRECTION('ref_axis',(-1.,0.,0.));
#975=DIRECTION('',(0.,0.,-1.));
#976=DIRECTION('center_axis',(0.,0.,-1.));
#977=DIRECTION('ref_axis',(-1.,0.,0.));
#978=DIRECTION('center_axis',(0.,0.,-1.));
#979=DIRECTION('ref_axis',(-1.,0.,0.));
#980=DIRECTION('',(0.,0.,-1.));
#981=DIRECTION('center_axis',(0.,0.,-1.));
#982=DIRECTION('ref_axis',(-1.,0.,0.));
#983=DIRECTION('center_axis',(0.,0.,-1.));
#984=DIRECTION('ref_axis',(-1.,0.,0.));
#985=DIRECTION('',(0.,0.,-1.));
#986=DIRECTION('center_axis',(0.,0.,1.));
#987=DIRECTION('ref_axis',(1.,0.,0.));
#988=DIRECTION('',(0.,-1.,0.));
#989=DIRECTION('',(-1.,0.,0.));
#990=DIRECTION('',(0.,-1.,0.));
#991=DIRECTION('',(-1.,0.,0.));
#992=DIRECTION('',(0.,-1.,0.));
#993=DIRECTION('',(1.,0.,0.));
#994=DIRECTION('',(0.,1.,0.));
#995=DIRECTION('',(-1.,0.,0.));
#996=DIRECTION('center_axis',(0.,0.,-1.));
#997=DIRECTION('ref_axis',(-1.,0.,0.));
#998=DIRECTION('center_axis',(0.,0.,-1.));
#999=DIRECTION('ref_axis',(-1.,0.,0.));
#1000=DIRECTION('center_axis',(0.,0.,-1.));
#1001=DIRECTION('ref_axis',(-1.,0.,0.));
#1002=DIRECTION('center_axis',(0.,0.,-1.));
#1003=DIRECTION('ref_axis',(-1.,0.,0.));
#1004=DIRECTION('center_axis',(0.,0.,-1.));
#1005=DIRECTION('ref_axis',(-1.,0.,0.));
#1006=DIRECTION('center_axis',(0.,0.,-1.));
#1007=DIRECTION('ref_axis',(-1.,0.,0.));
#1008=DIRECTION('',(0.,0.,-1.));
#1009=DIRECTION('center_axis',(0.,0.,-1.));
#1010=DIRECTION('ref_axis',(-1.,0.,0.));
#1011=DIRECTION('center_axis',(0.,0.,1.));
#1012=DIRECTION('ref_axis',(-1.,0.,0.));
#1013=DIRECTION('center_axis',(0.,0.,1.));
#1014=DIRECTION('ref_axis',(1.,0.,0.));
#1015=DIRECTION('center_axis',(0.,0.,-1.));
#1016=DIRECTION('ref_axis',(-1.,0.,0.));
#1017=DIRECTION('',(0.,0.,-1.));
#1018=DIRECTION('center_axis',(0.,0.,-1.));
#1019=DIRECTION('ref_axis',(-1.,0.,0.));
#1020=DIRECTION('center_axis',(0.,0.,1.));
#1021=DIRECTION('ref_axis',(-1.,0.,0.));
#1022=DIRECTION('center_axis',(0.,0.,1.));
#1023=DIRECTION('ref_axis',(1.,0.,0.));
#1024=DIRECTION('center_axis',(0.,0.,-1.));
#1025=DIRECTION('ref_axis',(-1.,0.,0.));
#1026=DIRECTION('',(0.,0.,-1.));
#1027=DIRECTION('center_axis',(0.,0.,-1.));
#1028=DIRECTION('ref_axis',(-1.,0.,0.));
#1029=DIRECTION('center_axis',(0.,0.,1.));
#1030=DIRECTION('ref_axis',(-1.,0.,0.));
#1031=DIRECTION('center_axis',(0.,0.,1.));
#1032=DIRECTION('ref_axis',(1.,0.,0.));
#1033=DIRECTION('center_axis',(0.,0.,-1.));
#1034=DIRECTION('ref_axis',(-1.,0.,0.));
#1035=DIRECTION('',(0.,0.,-1.));
#1036=DIRECTION('center_axis',(0.,0.,-1.));
#1037=DIRECTION('ref_axis',(-1.,0.,0.));
#1038=DIRECTION('center_axis',(0.,0.,1.));
#1039=DIRECTION('ref_axis',(-1.,0.,0.));
#1040=DIRECTION('center_axis',(0.,0.,1.));
#1041=DIRECTION('ref_axis',(1.,0.,0.));
#1042=DIRECTION('center_axis',(0.,0.,-1.));
#1043=DIRECTION('ref_axis',(-1.,0.,0.));
#1044=DIRECTION('',(0.,0.,-1.));
#1045=DIRECTION('center_axis',(0.,0.,-1.));
#1046=DIRECTION('ref_axis',(-1.,0.,0.));
#1047=DIRECTION('center_axis',(0.,0.,1.));
#1048=DIRECTION('ref_axis',(-1.,0.,0.));
#1049=DIRECTION('center_axis',(0.,0.,1.));
#1050=DIRECTION('ref_axis',(1.,0.,0.));
#1051=DIRECTION('center_axis',(0.,0.,1.));
#1052=DIRECTION('ref_axis',(1.,0.,0.));
#1053=DIRECTION('',(0.,0.,-1.));
#1054=DIRECTION('center_axis',(0.,0.,-1.));
#1055=DIRECTION('ref_axis',(1.,0.,0.));
#1056=DIRECTION('center_axis',(0.,0.,1.));
#1057=DIRECTION('ref_axis',(1.,0.,0.));
#1058=DIRECTION('',(0.,0.,-1.));
#1059=DIRECTION('center_axis',(0.,0.,-1.));
#1060=DIRECTION('ref_axis',(1.,0.,0.));
#1061=DIRECTION('center_axis',(0.,0.,1.));
#1062=DIRECTION('ref_axis',(1.,0.,0.));
#1063=DIRECTION('',(0.,0.,-1.));
#1064=DIRECTION('center_axis',(0.,0.,-1.));
#1065=DIRECTION('ref_axis',(1.,0.,0.));
#1066=DIRECTION('center_axis',(0.,0.,1.));
#1067=DIRECTION('ref_axis',(1.,0.,0.));
#1068=DIRECTION('',(0.,0.,-1.));
#1069=DIRECTION('center_axis',(0.,0.,-1.));
#1070=DIRECTION('ref_axis',(1.,0.,0.));
#1071=DIRECTION('center_axis',(0.,0.,1.));
#1072=DIRECTION('ref_axis',(1.,0.,0.));
#1073=DIRECTION('',(0.,0.,-1.));
#1074=DIRECTION('center_axis',(0.,0.,-1.));
#1075=DIRECTION('ref_axis',(1.,0.,0.));
#1076=DIRECTION('center_axis',(0.,1.,0.));
#1077=DIRECTION('ref_axis',(-1.,0.,0.));
#1078=DIRECTION('',(-1.,0.,0.));
#1079=DIRECTION('',(0.,0.,1.));
#1080=DIRECTION('',(0.,0.,1.));
#1081=DIRECTION('center_axis',(1.,0.,0.));
#1082=DIRECTION('ref_axis',(0.,1.,0.));
#1083=DIRECTION('',(0.,-1.,0.));
#1084=DIRECTION('',(0.,0.,1.));
#1085=DIRECTION('center_axis',(0.,-1.,0.));
#1086=DIRECTION('ref_axis',(1.,0.,0.));
#1087=DIRECTION('',(-1.,0.,0.));
#1088=DIRECTION('',(0.,0.,1.));
#1089=DIRECTION('center_axis',(-1.,0.,0.));
#1090=DIRECTION('ref_axis',(0.,-1.,0.));
#1091=DIRECTION('',(0.,-1.,0.));
#1092=DIRECTION('',(0.,0.,1.));
#1093=DIRECTION('center_axis',(0.,1.,0.));
#1094=DIRECTION('ref_axis',(-1.,0.,0.));
#1095=DIRECTION('',(1.,0.,0.));
#1096=DIRECTION('',(0.,0.,1.));
#1097=DIRECTION('center_axis',(-1.,0.,0.));
#1098=DIRECTION('ref_axis',(0.,-1.,0.));
#1099=DIRECTION('',(0.,1.,0.));
#1100=DIRECTION('',(0.,0.,1.));
#1101=DIRECTION('center_axis',(0.,1.,0.));
#1102=DIRECTION('ref_axis',(-1.,0.,0.));
#1103=DIRECTION('',(1.,0.,0.));
#1104=DIRECTION('',(0.,0.,1.));
#1105=DIRECTION('center_axis',(-1.,0.,0.));
#1106=DIRECTION('ref_axis',(0.,-1.,0.));
#1107=DIRECTION('',(0.,-1.,0.));
#1108=DIRECTION('center_axis',(0.,0.,1.));
#1109=DIRECTION('ref_axis',(1.,0.,0.));
#1110=CARTESIAN_POINT('',(0.,0.,0.));
#1111=CARTESIAN_POINT('Origin',(10.4729512481453,29.6524589353097,0.25));
#1112=CARTESIAN_POINT('',(10.6729512481453,29.6524589353097,0.25));
#1113=CARTESIAN_POINT('Origin',(10.4729512481453,29.6524589353097,0.25));
#1114=CARTESIAN_POINT('Origin',(2.47461343001741,33.1492959191435,0.25));
#1115=CARTESIAN_POINT('',(2.67461343001741,33.1492959191435,0.25));
#1116=CARTESIAN_POINT('Origin',(2.47461343001741,33.1492959191435,0.25));
#1117=CARTESIAN_POINT('Origin',(4.47402000175346,37.1489937398011,0.25));
#1118=CARTESIAN_POINT('',(4.67402000175346,37.1489937398011,0.25));
#1119=CARTESIAN_POINT('Origin',(4.47402000175346,37.1489937398011,0.25));
#1120=CARTESIAN_POINT('Origin',(16.620804491803,40.4260680108588,0.25));
#1121=CARTESIAN_POINT('',(16.820804491803,40.4260680108588,0.25));
#1122=CARTESIAN_POINT('Origin',(16.620804491803,40.4260680108588,0.25));
#1123=CARTESIAN_POINT('Origin',(16.620804491803,33.4260680108588,0.25));
#1124=CARTESIAN_POINT('',(16.820804491803,33.4260680108588,0.25));
#1125=CARTESIAN_POINT('Origin',(16.620804491803,33.4260680108588,0.25));
#1126=CARTESIAN_POINT('Origin',(6.12364761526648,40.4260680108589,0.25));
#1127=CARTESIAN_POINT('',(6.32364761526648,40.4260680108589,0.25));
#1128=CARTESIAN_POINT('Origin',(6.12364761526648,40.4260680108589,0.25));
#1129=CARTESIAN_POINT('Origin',(6.12364761526648,33.4260680108589,0.25));
#1130=CARTESIAN_POINT('',(6.32364761526648,33.4260680108589,0.25));
#1131=CARTESIAN_POINT('Origin',(6.12364761526648,33.4260680108589,0.25));
#1132=CARTESIAN_POINT('Origin',(4.47448322769399,29.849288866729,0.25));
#1133=CARTESIAN_POINT('',(4.67448322769399,29.849288866729,0.25));
#1134=CARTESIAN_POINT('Origin',(4.47448322769399,29.849288866729,0.25));
#1135=CARTESIAN_POINT('Origin',(2.93273234423093,25.8511318205395,0.25));
#1136=CARTESIAN_POINT('',(3.13273234423093,25.8511318205395,0.25));
#1137=CARTESIAN_POINT('Origin',(2.93273234423093,25.8511318205395,0.25));
#1138=CARTESIAN_POINT('Origin',(17.2890060523113,32.1690476736725,0.15));
#1139=CARTESIAN_POINT('',(17.4390060523113,32.1690476736725,0.15));
#1140=CARTESIAN_POINT('Origin',(17.2890060523113,32.1690476736725,0.15));
#1141=CARTESIAN_POINT('Origin',(6.49811862090023,25.8567005949376,0.15));
#1142=CARTESIAN_POINT('',(6.64811862090023,25.8567005949376,0.15));
#1143=CARTESIAN_POINT('Origin',(6.49811862090023,25.8567005949376,0.15));
#1144=CARTESIAN_POINT('Origin',(8.34964994275232,25.859124028845,0.15));
#1145=CARTESIAN_POINT('',(8.49964994275232,25.859124028845,0.15));
#1146=CARTESIAN_POINT('Origin',(8.34964994275232,25.859124028845,0.15));
#1147=CARTESIAN_POINT('Origin',(17.2882549690065,34.3388984210234,0.15));
#1148=CARTESIAN_POINT('',(17.4382549690065,34.3388984210234,0.15));
#1149=CARTESIAN_POINT('Origin',(17.2882549690065,34.3388984210234,0.15));
#1150=CARTESIAN_POINT('Origin',(6.49811862090023,25.8567005949376,1.));
#1151=CARTESIAN_POINT('',(6.64811862090023,25.8567005949376,1.));
#1152=CARTESIAN_POINT('Origin',(6.49811862090023,25.8567005949376,1.));
#1153=CARTESIAN_POINT('',(6.64811862090023,25.8567005949376,1.));
#1154=CARTESIAN_POINT('Origin',(8.34964994275232,25.859124028845,1.));
#1155=CARTESIAN_POINT('',(8.49964994275232,25.859124028845,1.));
#1156=CARTESIAN_POINT('Origin',(8.34964994275232,25.859124028845,1.));
#1157=CARTESIAN_POINT('',(8.49964994275232,25.859124028845,1.));
#1158=CARTESIAN_POINT('Origin',(17.2882549690065,34.3388984210234,1.));
#1159=CARTESIAN_POINT('',(17.4382549690065,34.3388984210234,1.));
#1160=CARTESIAN_POINT('Origin',(17.2882549690065,34.3388984210234,1.));
#1161=CARTESIAN_POINT('',(17.4382549690065,34.3388984210234,1.));
#1162=CARTESIAN_POINT('Origin',(17.2890060523113,32.1690476736725,1.));
#1163=CARTESIAN_POINT('',(17.4390060523113,32.1690476736725,1.));
#1164=CARTESIAN_POINT('Origin',(17.2890060523113,32.1690476736725,1.));
#1165=CARTESIAN_POINT('',(17.4390060523113,32.1690476736725,1.));
#1166=CARTESIAN_POINT('Origin',(4.47402000175346,37.1489937398011,1.));
#1167=CARTESIAN_POINT('',(4.67402000175346,37.1489937398011,1.));
#1168=CARTESIAN_POINT('Origin',(4.47402000175346,37.1489937398011,1.));
#1169=CARTESIAN_POINT('',(4.67402000175346,37.1489937398011,1.));
#1170=CARTESIAN_POINT('Origin',(6.12364761526648,33.4260680108589,1.));
#1171=CARTESIAN_POINT('',(6.32364761526648,33.4260680108589,1.));
#1172=CARTESIAN_POINT('Origin',(6.12364761526648,33.4260680108589,1.));
#1173=CARTESIAN_POINT('',(6.32364761526648,33.4260680108589,1.));
#1174=CARTESIAN_POINT('Origin',(2.47461343001741,33.1492959191435,1.));
#1175=CARTESIAN_POINT('',(2.67461343001741,33.1492959191435,1.));
#1176=CARTESIAN_POINT('Origin',(2.47461343001741,33.1492959191435,1.));
#1177=CARTESIAN_POINT('',(2.67461343001741,33.1492959191435,1.));
#1178=CARTESIAN_POINT('Origin',(6.12364761526648,40.4260680108589,1.));
#1179=CARTESIAN_POINT('',(6.32364761526648,40.4260680108589,1.));
#1180=CARTESIAN_POINT('Origin',(6.12364761526648,40.4260680108589,1.));
#1181=CARTESIAN_POINT('',(6.32364761526648,40.4260680108589,1.));
#1182=CARTESIAN_POINT('Origin',(4.47448322769399,29.849288866729,1.));
#1183=CARTESIAN_POINT('',(4.67448322769399,29.849288866729,1.));
#1184=CARTESIAN_POINT('Origin',(4.47448322769399,29.849288866729,1.));
#1185=CARTESIAN_POINT('',(4.67448322769399,29.849288866729,1.));
#1186=CARTESIAN_POINT('Origin',(16.620804491803,40.4260680108588,1.));
#1187=CARTESIAN_POINT('',(16.820804491803,40.4260680108588,1.));
#1188=CARTESIAN_POINT('Origin',(16.620804491803,40.4260680108588,1.));
#1189=CARTESIAN_POINT('',(16.820804491803,40.4260680108588,1.));
#1190=CARTESIAN_POINT('Origin',(2.93273234423093,25.8511318205395,1.));
#1191=CARTESIAN_POINT('',(3.13273234423093,25.8511318205395,1.));
#1192=CARTESIAN_POINT('Origin',(2.93273234423093,25.8511318205395,1.));
#1193=CARTESIAN_POINT('',(3.13273234423093,25.8511318205395,1.));
#1194=CARTESIAN_POINT('Origin',(16.620804491803,33.4260680108588,1.));
#1195=CARTESIAN_POINT('',(16.820804491803,33.4260680108588,1.));
#1196=CARTESIAN_POINT('Origin',(16.620804491803,33.4260680108588,1.));
#1197=CARTESIAN_POINT('',(16.820804491803,33.4260680108588,1.));
#1198=CARTESIAN_POINT('Origin',(10.4729512481453,29.6524589353097,1.));
#1199=CARTESIAN_POINT('',(10.6729512481453,29.6524589353097,1.));
#1200=CARTESIAN_POINT('Origin',(10.4729512481453,29.6524589353097,1.));
#1201=CARTESIAN_POINT('',(10.6729512481453,29.6524589353097,1.));
#1202=CARTESIAN_POINT('Origin',(8.875,34.275,1.));
#1203=CARTESIAN_POINT('',(6.,45.5,1.));
#1204=CARTESIAN_POINT('',(6.,42.5,1.));
#1205=CARTESIAN_POINT('',(6.,45.5,1.));
#1206=CARTESIAN_POINT('',(3.,42.5,1.));
#1207=CARTESIAN_POINT('',(3.,42.5,1.));
#1208=CARTESIAN_POINT('',(3.,39.5,1.));
#1209=CARTESIAN_POINT('',(3.,39.5,1.));
#1210=CARTESIAN_POINT('',(0.,39.5,1.));
#1211=CARTESIAN_POINT('',(0.,39.5,1.));
#1212=CARTESIAN_POINT('',(0.,23.05,1.));
#1213=CARTESIAN_POINT('',(0.,45.5,1.));
#1214=CARTESIAN_POINT('',(17.75,23.05,1.));
#1215=CARTESIAN_POINT('',(35.5,23.05,1.));
#1216=CARTESIAN_POINT('',(17.75,45.5,1.));
#1217=CARTESIAN_POINT('',(17.75,45.5,1.));
#1218=CARTESIAN_POINT('',(17.75,45.5,1.));
#1219=CARTESIAN_POINT('',(16.65,24.55,1.));
#1220=CARTESIAN_POINT('Origin',(16.25,24.55,1.));
#1221=CARTESIAN_POINT('',(16.65,44.,1.));
#1222=CARTESIAN_POINT('Origin',(16.25,44.,1.));
#1223=CARTESIAN_POINT('',(1.9,24.55,1.));
#1224=CARTESIAN_POINT('Origin',(1.5,24.55,1.));
#1225=CARTESIAN_POINT('',(7.9,44.,1.));
#1226=CARTESIAN_POINT('Origin',(7.5,44.,1.));
#1227=CARTESIAN_POINT('',(1.9,38.,1.));
#1228=CARTESIAN_POINT('Origin',(1.5,38.,1.));
#1229=CARTESIAN_POINT('Origin',(16.25,24.55,1.));
#1230=CARTESIAN_POINT('',(16.65,24.55,0.55));
#1231=CARTESIAN_POINT('',(16.65,24.55,1.));
#1232=CARTESIAN_POINT('Origin',(16.25,24.55,0.55));
#1233=CARTESIAN_POINT('Origin',(16.25,24.55,0.55));
#1234=CARTESIAN_POINT('',(16.,24.55,0.55));
#1235=CARTESIAN_POINT('Origin',(16.25,24.55,0.55));
#1236=CARTESIAN_POINT('Origin',(16.25,44.,1.));
#1237=CARTESIAN_POINT('',(16.65,44.,0.55));
#1238=CARTESIAN_POINT('',(16.65,44.,1.));
#1239=CARTESIAN_POINT('Origin',(16.25,44.,0.55));
#1240=CARTESIAN_POINT('Origin',(16.25,44.,0.55));
#1241=CARTESIAN_POINT('',(16.,44.,0.55));
#1242=CARTESIAN_POINT('Origin',(16.25,44.,0.55));
#1243=CARTESIAN_POINT('Origin',(1.5,24.55,1.));
#1244=CARTESIAN_POINT('',(1.9,24.55,0.55));
#1245=CARTESIAN_POINT('',(1.9,24.55,1.));
#1246=CARTESIAN_POINT('Origin',(1.5,24.55,0.55));
#1247=CARTESIAN_POINT('Origin',(1.5,24.55,0.55));
#1248=CARTESIAN_POINT('',(1.25,24.55,0.55));
#1249=CARTESIAN_POINT('Origin',(1.5,24.55,0.55));
#1250=CARTESIAN_POINT('Origin',(7.5,44.,1.));
#1251=CARTESIAN_POINT('',(7.9,44.,0.55));
#1252=CARTESIAN_POINT('',(7.9,44.,1.));
#1253=CARTESIAN_POINT('Origin',(7.5,44.,0.55));
#1254=CARTESIAN_POINT('Origin',(7.5,44.,0.55));
#1255=CARTESIAN_POINT('',(7.25,44.,0.55));
#1256=CARTESIAN_POINT('Origin',(7.5,44.,0.55));
#1257=CARTESIAN_POINT('Origin',(1.5,38.,1.));
#1258=CARTESIAN_POINT('',(1.9,38.,0.55));
#1259=CARTESIAN_POINT('',(1.9,38.,1.));
#1260=CARTESIAN_POINT('Origin',(1.5,38.,0.55));
#1261=CARTESIAN_POINT('Origin',(1.5,38.,0.55));
#1262=CARTESIAN_POINT('',(1.25,38.,0.55));
#1263=CARTESIAN_POINT('Origin',(1.5,38.,0.55));
#1264=CARTESIAN_POINT('Origin',(1.5,24.55,0.));
#1265=CARTESIAN_POINT('',(1.25,24.55,0.));
#1266=CARTESIAN_POINT('',(1.25,24.55,0.));
#1267=CARTESIAN_POINT('Origin',(1.5,24.55,0.));
#1268=CARTESIAN_POINT('Origin',(16.25,44.,0.));
#1269=CARTESIAN_POINT('',(16.,44.,0.));
#1270=CARTESIAN_POINT('',(16.,44.,0.));
#1271=CARTESIAN_POINT('Origin',(16.25,44.,0.));
#1272=CARTESIAN_POINT('Origin',(7.5,44.,0.));
#1273=CARTESIAN_POINT('',(7.25,44.,0.));
#1274=CARTESIAN_POINT('',(7.25,44.,0.));
#1275=CARTESIAN_POINT('Origin',(7.5,44.,0.));
#1276=CARTESIAN_POINT('Origin',(1.5,38.,0.));
#1277=CARTESIAN_POINT('',(1.25,38.,0.));
#1278=CARTESIAN_POINT('',(1.25,38.,0.));
#1279=CARTESIAN_POINT('Origin',(1.5,38.,0.));
#1280=CARTESIAN_POINT('Origin',(16.25,24.55,0.));
#1281=CARTESIAN_POINT('',(16.,24.55,0.));
#1282=CARTESIAN_POINT('',(16.,24.55,0.));
#1283=CARTESIAN_POINT('Origin',(16.25,24.55,0.));
#1284=CARTESIAN_POINT('Origin',(17.75,45.5,0.));
#1285=CARTESIAN_POINT('',(17.75,45.5,0.));
#1286=CARTESIAN_POINT('',(6.,45.5,0.));
#1287=CARTESIAN_POINT('',(17.75,45.5,0.));
#1288=CARTESIAN_POINT('',(6.,45.5,0.));
#1289=CARTESIAN_POINT('',(17.75,45.5,0.));
#1290=CARTESIAN_POINT('Origin',(17.75,23.05,0.));
#1291=CARTESIAN_POINT('',(17.75,23.05,0.));
#1292=CARTESIAN_POINT('',(17.75,45.5,0.));
#1293=CARTESIAN_POINT('',(17.75,23.05,0.));
#1294=CARTESIAN_POINT('Origin',(0.,23.05,0.));
#1295=CARTESIAN_POINT('',(0.,23.05,0.));
#1296=CARTESIAN_POINT('',(35.5,23.05,0.));
#1297=CARTESIAN_POINT('',(0.,23.05,0.));
#1298=CARTESIAN_POINT('Origin',(0.,39.5,0.));
#1299=CARTESIAN_POINT('',(0.,39.5,0.));
#1300=CARTESIAN_POINT('',(0.,45.5,0.));
#1301=CARTESIAN_POINT('',(0.,39.5,0.));
#1302=CARTESIAN_POINT('Origin',(3.,39.5,0.));
#1303=CARTESIAN_POINT('',(3.,39.5,0.));
#1304=CARTESIAN_POINT('',(0.,39.5,0.));
#1305=CARTESIAN_POINT('',(3.,39.5,0.));
#1306=CARTESIAN_POINT('Origin',(3.,42.5,0.));
#1307=CARTESIAN_POINT('',(3.,42.5,0.));
#1308=CARTESIAN_POINT('',(3.,39.5,0.));
#1309=CARTESIAN_POINT('',(3.,42.5,0.));
#1310=CARTESIAN_POINT('Origin',(6.,42.5,0.));
#1311=CARTESIAN_POINT('',(6.,42.5,0.));
#1312=CARTESIAN_POINT('',(3.,42.5,0.));
#1313=CARTESIAN_POINT('',(6.,42.5,0.));
#1314=CARTESIAN_POINT('Origin',(6.,45.5,0.));
#1315=CARTESIAN_POINT('',(6.,45.5,0.));
#1316=CARTESIAN_POINT('Origin',(8.875,34.275,0.));
#1317=UNCERTAINTY_MEASURE_WITH_UNIT(LENGTH_MEASURE(0.001),#1321,
'DISTANCE_ACCURACY_VALUE',
'Maximum model space distance between geometric entities at asserted c
onnectivities');
#1318=UNCERTAINTY_MEASURE_WITH_UNIT(LENGTH_MEASURE(0.001),#1321,
'DISTANCE_ACCURACY_VALUE',
'Maximum model space distance between geometric entities at asserted c
onnectivities');
#1319=(
GEOMETRIC_REPRESENTATION_CONTEXT(3)
GLOBAL_UNCERTAINTY_ASSIGNED_CONTEXT((#1317))
GLOBAL_UNIT_ASSIGNED_CONTEXT((#1321,#1323,#1324))
REPRESENTATION_CONTEXT('','3D')
);
#1320=(
GEOMETRIC_REPRESENTATION_CONTEXT(3)
GLOBAL_UNCERTAINTY_ASSIGNED_CONTEXT((#1318))
GLOBAL_UNIT_ASSIGNED_CONTEXT((#1321,#1323,#1324))
REPRESENTATION_CONTEXT('','3D')
);
#1321=(
LENGTH_UNIT()
NAMED_UNIT(*)
SI_UNIT(.CENTI.,.METRE.)
);
#1322=(
LENGTH_UNIT()
NAMED_UNIT(*)
SI_UNIT($,.METRE.)
);
#1323=(
NAMED_UNIT(*)
PLANE_ANGLE_UNIT()
SI_UNIT($,.RADIAN.)
);
#1324=(
NAMED_UNIT(*)
SI_UNIT($,.STERADIAN.)
SOLID_ANGLE_UNIT()
);
#1325=SHAPE_DEFINITION_REPRESENTATION(#1326,#1327);
#1326=PRODUCT_DEFINITION_SHAPE('',$,#1329);
#1327=SHAPE_REPRESENTATION('',(#769),#1319);
#1328=PRODUCT_DEFINITION_CONTEXT('part definition',#1333,'design');
#1329=PRODUCT_DEFINITION('2026-07-21-19-29-10-655','plate l-h2',#1330,#1328);
#1330=PRODUCT_DEFINITION_FORMATION('',$,#1335);
#1331=PRODUCT_RELATED_PRODUCT_CATEGORY('plate l-h2','plate l-h2',(#1335));
#1332=APPLICATION_PROTOCOL_DEFINITION('international standard',
'automotive_design',2009,#1333);
#1333=APPLICATION_CONTEXT(
'Core Data for Automotive Mechanical Design Process');
#1334=PRODUCT_CONTEXT('part definition',#1333,'mechanical');
#1335=PRODUCT('2026-07-21-19-29-10-655','plate l-h2',$,(#1334));
#1336=PRESENTATION_STYLE_ASSIGNMENT((#1337));
#1337=SURFACE_STYLE_USAGE(.BOTH.,#1338);
#1338=SURFACE_SIDE_STYLE('',(#1339));
#1339=SURFACE_STYLE_FILL_AREA(#1340);
#1340=FILL_AREA_STYLE('ABS(\X2\D770C0C9\X0\)',(#1341));
#1341=FILL_AREA_STYLE_COLOUR('ABS(\X2\D770C0C9\X0\)',#1342);
#1342=COLOUR_RGB('ABS(\X2\D770C0C9\X0\)',0.964705882352941,0.964705882352941,
0.952941176470588);
ENDSEC;
END-ISO-10303-21;
