ISO-10303-21;
HEADER;
/* Generated by software containing ST-Developer
 * from STEP Tools, Inc. (www.steptools.com) 
 */

FILE_DESCRIPTION(
/* description */ (''),
/* implementation_level */ '2;1');

FILE_NAME(
/* name */ 'plate r.step',
/* time_stamp */ '2026-08-31T17:56:50+09:00',
/* author */ (''),
/* organization */ (''),
/* preprocessor_version */ 'ST-DEVELOPER v20.1',
/* originating_system */ 'Autodesk Translation Framework v15.8.0.0',
/* authorisation */ '');

FILE_SCHEMA (('AUTOMOTIVE_DESIGN { 1 0 10303 214 3 1 1 }'));
ENDSEC;

DATA;
#10=MECHANICAL_DESIGN_GEOMETRIC_PRESENTATION_REPRESENTATION('',(#13),#1185);
#11=SHAPE_REPRESENTATION_RELATIONSHIP('SRR','None',#1192,#12);
#12=ADVANCED_BREP_SHAPE_REPRESENTATION('',(#14),#1184);
#13=STYLED_ITEM('',(#1201),#14);
#14=MANIFOLD_SOLID_BREP('\X2\BCF8CCB4\X0\1',#681);
#15=FACE_BOUND('',#214,.T.);
#16=FACE_BOUND('',#215,.T.);
#17=FACE_BOUND('',#216,.T.);
#18=FACE_BOUND('',#217,.T.);
#19=FACE_BOUND('',#218,.T.);
#20=FACE_BOUND('',#219,.T.);
#21=FACE_BOUND('',#220,.T.);
#22=FACE_BOUND('',#221,.T.);
#23=FACE_BOUND('',#222,.T.);
#24=FACE_BOUND('',#223,.T.);
#25=FACE_BOUND('',#224,.T.);
#26=FACE_BOUND('',#225,.T.);
#27=FACE_BOUND('',#226,.T.);
#28=FACE_BOUND('',#227,.T.);
#29=FACE_BOUND('',#228,.T.);
#30=FACE_BOUND('',#231,.T.);
#31=FACE_BOUND('',#234,.T.);
#32=FACE_BOUND('',#237,.T.);
#33=FACE_BOUND('',#240,.T.);
#34=FACE_BOUND('',#243,.T.);
#35=FACE_BOUND('',#258,.T.);
#36=FACE_BOUND('',#259,.T.);
#37=FACE_BOUND('',#260,.T.);
#38=FACE_BOUND('',#261,.T.);
#39=FACE_BOUND('',#262,.T.);
#40=LINE('',#1030,#84);
#41=LINE('',#1034,#85);
#42=LINE('',#1038,#86);
#43=LINE('',#1042,#87);
#44=LINE('',#1046,#88);
#45=LINE('',#1050,#89);
#46=LINE('',#1054,#90);
#47=LINE('',#1058,#91);
#48=LINE('',#1062,#92);
#49=LINE('',#1066,#93);
#50=LINE('',#1070,#94);
#51=LINE('',#1072,#95);
#52=LINE('',#1074,#96);
#53=LINE('',#1076,#97);
#54=LINE('',#1078,#98);
#55=LINE('',#1080,#99);
#56=LINE('',#1082,#100);
#57=LINE('',#1083,#101);
#58=LINE('',#1096,#102);
#59=LINE('',#1103,#103);
#60=LINE('',#1110,#104);
#61=LINE('',#1117,#105);
#62=LINE('',#1124,#106);
#63=LINE('',#1131,#107);
#64=LINE('',#1135,#108);
#65=LINE('',#1139,#109);
#66=LINE('',#1143,#110);
#67=LINE('',#1147,#111);
#68=LINE('',#1152,#112);
#69=LINE('',#1153,#113);
#70=LINE('',#1154,#114);
#71=LINE('',#1157,#115);
#72=LINE('',#1158,#116);
#73=LINE('',#1161,#117);
#74=LINE('',#1162,#118);
#75=LINE('',#1165,#119);
#76=LINE('',#1166,#120);
#77=LINE('',#1169,#121);
#78=LINE('',#1170,#122);
#79=LINE('',#1173,#123);
#80=LINE('',#1174,#124);
#81=LINE('',#1177,#125);
#82=LINE('',#1178,#126);
#83=LINE('',#1180,#127);
#84=VECTOR('',#826,0.150000000000002);
#85=VECTOR('',#831,0.150000000000002);
#86=VECTOR('',#836,0.150000000000002);
#87=VECTOR('',#841,0.150000000000002);
#88=VECTOR('',#846,0.150000000000002);
#89=VECTOR('',#851,0.150000000000002);
#90=VECTOR('',#856,0.199999999999999);
#91=VECTOR('',#861,0.199999999999999);
#92=VECTOR('',#866,0.199999999999999);
#93=VECTOR('',#871,0.199999999999999);
#94=VECTOR('',#874,1.);
#95=VECTOR('',#875,1.);
#96=VECTOR('',#876,1.);
#97=VECTOR('',#877,1.);
#98=VECTOR('',#878,1.);
#99=VECTOR('',#879,1.);
#100=VECTOR('',#880,1.);
#101=VECTOR('',#881,1.);
#102=VECTOR('',#894,0.400000000000002);
#103=VECTOR('',#903,0.399999999999999);
#104=VECTOR('',#912,0.400000000000002);
#105=VECTOR('',#921,0.399999999999999);
#106=VECTOR('',#930,0.400000000000002);
#107=VECTOR('',#939,0.25);
#108=VECTOR('',#944,0.25);
#109=VECTOR('',#949,0.25);
#110=VECTOR('',#954,0.25);
#111=VECTOR('',#959,0.25);
#112=VECTOR('',#964,1.);
#113=VECTOR('',#965,1.);
#114=VECTOR('',#966,1.);
#115=VECTOR('',#969,1.);
#116=VECTOR('',#970,1.);
#117=VECTOR('',#973,1.);
#118=VECTOR('',#974,1.);
#119=VECTOR('',#977,1.);
#120=VECTOR('',#978,1.);
#121=VECTOR('',#981,1.);
#122=VECTOR('',#982,1.);
#123=VECTOR('',#985,1.);
#124=VECTOR('',#986,1.);
#125=VECTOR('',#989,1.);
#126=VECTOR('',#990,1.);
#127=VECTOR('',#993,1.);
#128=CYLINDRICAL_SURFACE('',#715,0.150000000000002);
#129=CYLINDRICAL_SURFACE('',#717,0.150000000000002);
#130=CYLINDRICAL_SURFACE('',#719,0.150000000000002);
#131=CYLINDRICAL_SURFACE('',#721,0.150000000000002);
#132=CYLINDRICAL_SURFACE('',#723,0.150000000000002);
#133=CYLINDRICAL_SURFACE('',#725,0.150000000000002);
#134=CYLINDRICAL_SURFACE('',#727,0.199999999999999);
#135=CYLINDRICAL_SURFACE('',#729,0.199999999999999);
#136=CYLINDRICAL_SURFACE('',#731,0.199999999999999);
#137=CYLINDRICAL_SURFACE('',#733,0.199999999999999);
#138=CYLINDRICAL_SURFACE('',#741,0.400000000000002);
#139=CYLINDRICAL_SURFACE('',#745,0.399999999999999);
#140=CYLINDRICAL_SURFACE('',#749,0.400000000000002);
#141=CYLINDRICAL_SURFACE('',#753,0.399999999999999);
#142=CYLINDRICAL_SURFACE('',#757,0.400000000000002);
#143=CYLINDRICAL_SURFACE('',#761,0.25);
#144=CYLINDRICAL_SURFACE('',#763,0.25);
#145=CYLINDRICAL_SURFACE('',#765,0.25);
#146=CYLINDRICAL_SURFACE('',#767,0.25);
#147=CYLINDRICAL_SURFACE('',#769,0.25);
#148=FACE_OUTER_BOUND('',#193,.T.);
#149=FACE_OUTER_BOUND('',#194,.T.);
#150=FACE_OUTER_BOUND('',#195,.T.);
#151=FACE_OUTER_BOUND('',#196,.T.);
#152=FACE_OUTER_BOUND('',#197,.T.);
#153=FACE_OUTER_BOUND('',#198,.T.);
#154=FACE_OUTER_BOUND('',#199,.T.);
#155=FACE_OUTER_BOUND('',#200,.T.);
#156=FACE_OUTER_BOUND('',#201,.T.);
#157=FACE_OUTER_BOUND('',#202,.T.);
#158=FACE_OUTER_BOUND('',#203,.T.);
#159=FACE_OUTER_BOUND('',#204,.T.);
#160=FACE_OUTER_BOUND('',#205,.T.);
#161=FACE_OUTER_BOUND('',#206,.T.);
#162=FACE_OUTER_BOUND('',#207,.T.);
#163=FACE_OUTER_BOUND('',#208,.T.);
#164=FACE_OUTER_BOUND('',#209,.T.);
#165=FACE_OUTER_BOUND('',#210,.T.);
#166=FACE_OUTER_BOUND('',#211,.T.);
#167=FACE_OUTER_BOUND('',#212,.T.);
#168=FACE_OUTER_BOUND('',#213,.T.);
#169=FACE_OUTER_BOUND('',#229,.T.);
#170=FACE_OUTER_BOUND('',#230,.T.);
#171=FACE_OUTER_BOUND('',#232,.T.);
#172=FACE_OUTER_BOUND('',#233,.T.);
#173=FACE_OUTER_BOUND('',#235,.T.);
#174=FACE_OUTER_BOUND('',#236,.T.);
#175=FACE_OUTER_BOUND('',#238,.T.);
#176=FACE_OUTER_BOUND('',#239,.T.);
#177=FACE_OUTER_BOUND('',#241,.T.);
#178=FACE_OUTER_BOUND('',#242,.T.);
#179=FACE_OUTER_BOUND('',#244,.T.);
#180=FACE_OUTER_BOUND('',#245,.T.);
#181=FACE_OUTER_BOUND('',#246,.T.);
#182=FACE_OUTER_BOUND('',#247,.T.);
#183=FACE_OUTER_BOUND('',#248,.T.);
#184=FACE_OUTER_BOUND('',#249,.T.);
#185=FACE_OUTER_BOUND('',#250,.T.);
#186=FACE_OUTER_BOUND('',#251,.T.);
#187=FACE_OUTER_BOUND('',#252,.T.);
#188=FACE_OUTER_BOUND('',#253,.T.);
#189=FACE_OUTER_BOUND('',#254,.T.);
#190=FACE_OUTER_BOUND('',#255,.T.);
#191=FACE_OUTER_BOUND('',#256,.T.);
#192=FACE_OUTER_BOUND('',#257,.T.);
#193=EDGE_LOOP('',(#443));
#194=EDGE_LOOP('',(#444));
#195=EDGE_LOOP('',(#445));
#196=EDGE_LOOP('',(#446));
#197=EDGE_LOOP('',(#447));
#198=EDGE_LOOP('',(#448));
#199=EDGE_LOOP('',(#449));
#200=EDGE_LOOP('',(#450));
#201=EDGE_LOOP('',(#451));
#202=EDGE_LOOP('',(#452));
#203=EDGE_LOOP('',(#453,#454,#455,#456));
#204=EDGE_LOOP('',(#457,#458,#459,#460));
#205=EDGE_LOOP('',(#461,#462,#463,#464));
#206=EDGE_LOOP('',(#465,#466,#467,#468));
#207=EDGE_LOOP('',(#469,#470,#471,#472));
#208=EDGE_LOOP('',(#473,#474,#475,#476));
#209=EDGE_LOOP('',(#477,#478,#479,#480));
#210=EDGE_LOOP('',(#481,#482,#483,#484));
#211=EDGE_LOOP('',(#485,#486,#487,#488));
#212=EDGE_LOOP('',(#489,#490,#491,#492));
#213=EDGE_LOOP('',(#493,#494,#495,#496,#497,#498,#499,#500));
#214=EDGE_LOOP('',(#501));
#215=EDGE_LOOP('',(#502));
#216=EDGE_LOOP('',(#503));
#217=EDGE_LOOP('',(#504));
#218=EDGE_LOOP('',(#505));
#219=EDGE_LOOP('',(#506));
#220=EDGE_LOOP('',(#507));
#221=EDGE_LOOP('',(#508));
#222=EDGE_LOOP('',(#509));
#223=EDGE_LOOP('',(#510));
#224=EDGE_LOOP('',(#511));
#225=EDGE_LOOP('',(#512));
#226=EDGE_LOOP('',(#513));
#227=EDGE_LOOP('',(#514));
#228=EDGE_LOOP('',(#515));
#229=EDGE_LOOP('',(#516,#517,#518,#519));
#230=EDGE_LOOP('',(#520));
#231=EDGE_LOOP('',(#521));
#232=EDGE_LOOP('',(#522,#523,#524,#525));
#233=EDGE_LOOP('',(#526));
#234=EDGE_LOOP('',(#527));
#235=EDGE_LOOP('',(#528,#529,#530,#531));
#236=EDGE_LOOP('',(#532));
#237=EDGE_LOOP('',(#533));
#238=EDGE_LOOP('',(#534,#535,#536,#537));
#239=EDGE_LOOP('',(#538));
#240=EDGE_LOOP('',(#539));
#241=EDGE_LOOP('',(#540,#541,#542,#543));
#242=EDGE_LOOP('',(#544));
#243=EDGE_LOOP('',(#545));
#244=EDGE_LOOP('',(#546,#547,#548,#549));
#245=EDGE_LOOP('',(#550,#551,#552,#553));
#246=EDGE_LOOP('',(#554,#555,#556,#557));
#247=EDGE_LOOP('',(#558,#559,#560,#561));
#248=EDGE_LOOP('',(#562,#563,#564,#565));
#249=EDGE_LOOP('',(#566,#567,#568,#569));
#250=EDGE_LOOP('',(#570,#571,#572,#573));
#251=EDGE_LOOP('',(#574,#575,#576,#577));
#252=EDGE_LOOP('',(#578,#579,#580,#581));
#253=EDGE_LOOP('',(#582,#583,#584,#585));
#254=EDGE_LOOP('',(#586,#587,#588,#589));
#255=EDGE_LOOP('',(#590,#591,#592,#593));
#256=EDGE_LOOP('',(#594,#595,#596,#597));
#257=EDGE_LOOP('',(#598,#599,#600,#601,#602,#603,#604,#605));
#258=EDGE_LOOP('',(#606));
#259=EDGE_LOOP('',(#607));
#260=EDGE_LOOP('',(#608));
#261=EDGE_LOOP('',(#609));
#262=EDGE_LOOP('',(#610));
#263=CIRCLE('',#696,0.199999999999999);
#264=CIRCLE('',#698,0.199999999999999);
#265=CIRCLE('',#700,0.199999999999999);
#266=CIRCLE('',#702,0.199999999999999);
#267=CIRCLE('',#704,0.150000000000002);
#268=CIRCLE('',#706,0.150000000000002);
#269=CIRCLE('',#708,0.150000000000002);
#270=CIRCLE('',#710,0.150000000000002);
#271=CIRCLE('',#712,0.150000000000002);
#272=CIRCLE('',#714,0.150000000000002);
#273=CIRCLE('',#716,0.150000000000002);
#274=CIRCLE('',#718,0.150000000000002);
#275=CIRCLE('',#720,0.150000000000002);
#276=CIRCLE('',#722,0.150000000000002);
#277=CIRCLE('',#724,0.150000000000002);
#278=CIRCLE('',#726,0.150000000000002);
#279=CIRCLE('',#728,0.199999999999999);
#280=CIRCLE('',#730,0.199999999999999);
#281=CIRCLE('',#732,0.199999999999999);
#282=CIRCLE('',#734,0.199999999999999);
#283=CIRCLE('',#736,0.400000000000002);
#284=CIRCLE('',#737,0.399999999999999);
#285=CIRCLE('',#738,0.400000000000002);
#286=CIRCLE('',#739,0.399999999999999);
#287=CIRCLE('',#740,0.400000000000002);
#288=CIRCLE('',#742,0.400000000000002);
#289=CIRCLE('',#744,0.25);
#290=CIRCLE('',#746,0.399999999999999);
#291=CIRCLE('',#748,0.25);
#292=CIRCLE('',#750,0.400000000000002);
#293=CIRCLE('',#752,0.25);
#294=CIRCLE('',#754,0.399999999999999);
#295=CIRCLE('',#756,0.25);
#296=CIRCLE('',#758,0.400000000000002);
#297=CIRCLE('',#760,0.25);
#298=CIRCLE('',#762,0.25);
#299=CIRCLE('',#764,0.25);
#300=CIRCLE('',#766,0.25);
#301=CIRCLE('',#768,0.25);
#302=CIRCLE('',#770,0.25);
#303=VERTEX_POINT('',#998);
#304=VERTEX_POINT('',#1001);
#305=VERTEX_POINT('',#1004);
#306=VERTEX_POINT('',#1007);
#307=VERTEX_POINT('',#1010);
#308=VERTEX_POINT('',#1013);
#309=VERTEX_POINT('',#1016);
#310=VERTEX_POINT('',#1019);
#311=VERTEX_POINT('',#1022);
#312=VERTEX_POINT('',#1025);
#313=VERTEX_POINT('',#1028);
#314=VERTEX_POINT('',#1032);
#315=VERTEX_POINT('',#1036);
#316=VERTEX_POINT('',#1040);
#317=VERTEX_POINT('',#1044);
#318=VERTEX_POINT('',#1048);
#319=VERTEX_POINT('',#1052);
#320=VERTEX_POINT('',#1056);
#321=VERTEX_POINT('',#1060);
#322=VERTEX_POINT('',#1064);
#323=VERTEX_POINT('',#1068);
#324=VERTEX_POINT('',#1069);
#325=VERTEX_POINT('',#1071);
#326=VERTEX_POINT('',#1073);
#327=VERTEX_POINT('',#1075);
#328=VERTEX_POINT('',#1077);
#329=VERTEX_POINT('',#1079);
#330=VERTEX_POINT('',#1081);
#331=VERTEX_POINT('',#1084);
#332=VERTEX_POINT('',#1086);
#333=VERTEX_POINT('',#1088);
#334=VERTEX_POINT('',#1090);
#335=VERTEX_POINT('',#1092);
#336=VERTEX_POINT('',#1095);
#337=VERTEX_POINT('',#1099);
#338=VERTEX_POINT('',#1102);
#339=VERTEX_POINT('',#1106);
#340=VERTEX_POINT('',#1109);
#341=VERTEX_POINT('',#1113);
#342=VERTEX_POINT('',#1116);
#343=VERTEX_POINT('',#1120);
#344=VERTEX_POINT('',#1123);
#345=VERTEX_POINT('',#1127);
#346=VERTEX_POINT('',#1130);
#347=VERTEX_POINT('',#1134);
#348=VERTEX_POINT('',#1138);
#349=VERTEX_POINT('',#1142);
#350=VERTEX_POINT('',#1146);
#351=VERTEX_POINT('',#1150);
#352=VERTEX_POINT('',#1151);
#353=VERTEX_POINT('',#1156);
#354=VERTEX_POINT('',#1160);
#355=VERTEX_POINT('',#1164);
#356=VERTEX_POINT('',#1168);
#357=VERTEX_POINT('',#1172);
#358=VERTEX_POINT('',#1176);
#359=EDGE_CURVE('',#303,#303,#263,.T.);
#360=EDGE_CURVE('',#304,#304,#264,.T.);
#361=EDGE_CURVE('',#305,#305,#265,.T.);
#362=EDGE_CURVE('',#306,#306,#266,.T.);
#363=EDGE_CURVE('',#307,#307,#267,.T.);
#364=EDGE_CURVE('',#308,#308,#268,.T.);
#365=EDGE_CURVE('',#309,#309,#269,.T.);
#366=EDGE_CURVE('',#310,#310,#270,.T.);
#367=EDGE_CURVE('',#311,#311,#271,.T.);
#368=EDGE_CURVE('',#312,#312,#272,.T.);
#369=EDGE_CURVE('',#313,#313,#273,.T.);
#370=EDGE_CURVE('',#313,#311,#40,.T.);
#371=EDGE_CURVE('',#314,#314,#274,.T.);
#372=EDGE_CURVE('',#314,#310,#41,.T.);
#373=EDGE_CURVE('',#315,#315,#275,.T.);
#374=EDGE_CURVE('',#315,#307,#42,.T.);
#375=EDGE_CURVE('',#316,#316,#276,.T.);
#376=EDGE_CURVE('',#316,#308,#43,.T.);
#377=EDGE_CURVE('',#317,#317,#277,.T.);
#378=EDGE_CURVE('',#317,#312,#44,.T.);
#379=EDGE_CURVE('',#318,#318,#278,.T.);
#380=EDGE_CURVE('',#318,#309,#45,.T.);
#381=EDGE_CURVE('',#319,#319,#279,.T.);
#382=EDGE_CURVE('',#319,#303,#46,.T.);
#383=EDGE_CURVE('',#320,#320,#280,.T.);
#384=EDGE_CURVE('',#320,#305,#47,.T.);
#385=EDGE_CURVE('',#321,#321,#281,.T.);
#386=EDGE_CURVE('',#321,#304,#48,.T.);
#387=EDGE_CURVE('',#322,#322,#282,.T.);
#388=EDGE_CURVE('',#322,#306,#49,.T.);
#389=EDGE_CURVE('',#323,#324,#50,.T.);
#390=EDGE_CURVE('',#324,#325,#51,.T.);
#391=EDGE_CURVE('',#325,#326,#52,.T.);
#392=EDGE_CURVE('',#326,#327,#53,.T.);
#393=EDGE_CURVE('',#327,#328,#54,.T.);
#394=EDGE_CURVE('',#328,#329,#55,.T.);
#395=EDGE_CURVE('',#329,#330,#56,.T.);
#396=EDGE_CURVE('',#330,#323,#57,.T.);
#397=EDGE_CURVE('',#331,#331,#283,.T.);
#398=EDGE_CURVE('',#332,#332,#284,.T.);
#399=EDGE_CURVE('',#333,#333,#285,.T.);
#400=EDGE_CURVE('',#334,#334,#286,.T.);
#401=EDGE_CURVE('',#335,#335,#287,.T.);
#402=EDGE_CURVE('',#331,#336,#58,.T.);
#403=EDGE_CURVE('',#336,#336,#288,.T.);
#404=EDGE_CURVE('',#337,#337,#289,.T.);
#405=EDGE_CURVE('',#332,#338,#59,.T.);
#406=EDGE_CURVE('',#338,#338,#290,.T.);
#407=EDGE_CURVE('',#339,#339,#291,.T.);
#408=EDGE_CURVE('',#333,#340,#60,.T.);
#409=EDGE_CURVE('',#340,#340,#292,.T.);
#410=EDGE_CURVE('',#341,#341,#293,.T.);
#411=EDGE_CURVE('',#334,#342,#61,.T.);
#412=EDGE_CURVE('',#342,#342,#294,.T.);
#413=EDGE_CURVE('',#343,#343,#295,.T.);
#414=EDGE_CURVE('',#335,#344,#62,.T.);
#415=EDGE_CURVE('',#344,#344,#296,.T.);
#416=EDGE_CURVE('',#345,#345,#297,.T.);
#417=EDGE_CURVE('',#337,#346,#63,.T.);
#418=EDGE_CURVE('',#346,#346,#298,.T.);
#419=EDGE_CURVE('',#341,#347,#64,.T.);
#420=EDGE_CURVE('',#347,#347,#299,.T.);
#421=EDGE_CURVE('',#343,#348,#65,.T.);
#422=EDGE_CURVE('',#348,#348,#300,.T.);
#423=EDGE_CURVE('',#339,#349,#66,.T.);
#424=EDGE_CURVE('',#349,#349,#301,.T.);
#425=EDGE_CURVE('',#345,#350,#67,.T.);
#426=EDGE_CURVE('',#350,#350,#302,.T.);
#427=EDGE_CURVE('',#351,#352,#68,.T.);
#428=EDGE_CURVE('',#351,#323,#69,.T.);
#429=EDGE_CURVE('',#352,#330,#70,.T.);
#430=EDGE_CURVE('',#353,#352,#71,.T.);
#431=EDGE_CURVE('',#353,#329,#72,.T.);
#432=EDGE_CURVE('',#354,#353,#73,.T.);
#433=EDGE_CURVE('',#354,#328,#74,.T.);
#434=EDGE_CURVE('',#354,#355,#75,.T.);
#435=EDGE_CURVE('',#355,#327,#76,.T.);
#436=EDGE_CURVE('',#356,#355,#77,.T.);
#437=EDGE_CURVE('',#356,#326,#78,.T.);
#438=EDGE_CURVE('',#356,#357,#79,.T.);
#439=EDGE_CURVE('',#357,#325,#80,.T.);
#440=EDGE_CURVE('',#358,#357,#81,.T.);
#441=EDGE_CURVE('',#358,#324,#82,.T.);
#442=EDGE_CURVE('',#351,#358,#83,.T.);
#443=ORIENTED_EDGE('',*,*,#359,.F.);
#444=ORIENTED_EDGE('',*,*,#360,.F.);
#445=ORIENTED_EDGE('',*,*,#361,.F.);
#446=ORIENTED_EDGE('',*,*,#362,.F.);
#447=ORIENTED_EDGE('',*,*,#363,.F.);
#448=ORIENTED_EDGE('',*,*,#364,.F.);
#449=ORIENTED_EDGE('',*,*,#365,.F.);
#450=ORIENTED_EDGE('',*,*,#366,.F.);
#451=ORIENTED_EDGE('',*,*,#367,.F.);
#452=ORIENTED_EDGE('',*,*,#368,.F.);
#453=ORIENTED_EDGE('',*,*,#369,.F.);
#454=ORIENTED_EDGE('',*,*,#370,.T.);
#455=ORIENTED_EDGE('',*,*,#367,.T.);
#456=ORIENTED_EDGE('',*,*,#370,.F.);
#457=ORIENTED_EDGE('',*,*,#371,.F.);
#458=ORIENTED_EDGE('',*,*,#372,.T.);
#459=ORIENTED_EDGE('',*,*,#366,.T.);
#460=ORIENTED_EDGE('',*,*,#372,.F.);
#461=ORIENTED_EDGE('',*,*,#373,.F.);
#462=ORIENTED_EDGE('',*,*,#374,.T.);
#463=ORIENTED_EDGE('',*,*,#363,.T.);
#464=ORIENTED_EDGE('',*,*,#374,.F.);
#465=ORIENTED_EDGE('',*,*,#375,.F.);
#466=ORIENTED_EDGE('',*,*,#376,.T.);
#467=ORIENTED_EDGE('',*,*,#364,.T.);
#468=ORIENTED_EDGE('',*,*,#376,.F.);
#469=ORIENTED_EDGE('',*,*,#377,.F.);
#470=ORIENTED_EDGE('',*,*,#378,.T.);
#471=ORIENTED_EDGE('',*,*,#368,.T.);
#472=ORIENTED_EDGE('',*,*,#378,.F.);
#473=ORIENTED_EDGE('',*,*,#379,.F.);
#474=ORIENTED_EDGE('',*,*,#380,.T.);
#475=ORIENTED_EDGE('',*,*,#365,.T.);
#476=ORIENTED_EDGE('',*,*,#380,.F.);
#477=ORIENTED_EDGE('',*,*,#381,.F.);
#478=ORIENTED_EDGE('',*,*,#382,.T.);
#479=ORIENTED_EDGE('',*,*,#359,.T.);
#480=ORIENTED_EDGE('',*,*,#382,.F.);
#481=ORIENTED_EDGE('',*,*,#383,.F.);
#482=ORIENTED_EDGE('',*,*,#384,.T.);
#483=ORIENTED_EDGE('',*,*,#361,.T.);
#484=ORIENTED_EDGE('',*,*,#384,.F.);
#485=ORIENTED_EDGE('',*,*,#385,.F.);
#486=ORIENTED_EDGE('',*,*,#386,.T.);
#487=ORIENTED_EDGE('',*,*,#360,.T.);
#488=ORIENTED_EDGE('',*,*,#386,.F.);
#489=ORIENTED_EDGE('',*,*,#387,.F.);
#490=ORIENTED_EDGE('',*,*,#388,.T.);
#491=ORIENTED_EDGE('',*,*,#362,.T.);
#492=ORIENTED_EDGE('',*,*,#388,.F.);
#493=ORIENTED_EDGE('',*,*,#389,.T.);
#494=ORIENTED_EDGE('',*,*,#390,.T.);
#495=ORIENTED_EDGE('',*,*,#391,.T.);
#496=ORIENTED_EDGE('',*,*,#392,.T.);
#497=ORIENTED_EDGE('',*,*,#393,.T.);
#498=ORIENTED_EDGE('',*,*,#394,.T.);
#499=ORIENTED_EDGE('',*,*,#395,.T.);
#500=ORIENTED_EDGE('',*,*,#396,.T.);
#501=ORIENTED_EDGE('',*,*,#381,.T.);
#502=ORIENTED_EDGE('',*,*,#383,.T.);
#503=ORIENTED_EDGE('',*,*,#385,.T.);
#504=ORIENTED_EDGE('',*,*,#387,.T.);
#505=ORIENTED_EDGE('',*,*,#397,.T.);
#506=ORIENTED_EDGE('',*,*,#398,.T.);
#507=ORIENTED_EDGE('',*,*,#399,.T.);
#508=ORIENTED_EDGE('',*,*,#400,.T.);
#509=ORIENTED_EDGE('',*,*,#401,.T.);
#510=ORIENTED_EDGE('',*,*,#379,.T.);
#511=ORIENTED_EDGE('',*,*,#377,.T.);
#512=ORIENTED_EDGE('',*,*,#375,.T.);
#513=ORIENTED_EDGE('',*,*,#373,.T.);
#514=ORIENTED_EDGE('',*,*,#371,.T.);
#515=ORIENTED_EDGE('',*,*,#369,.T.);
#516=ORIENTED_EDGE('',*,*,#397,.F.);
#517=ORIENTED_EDGE('',*,*,#402,.T.);
#518=ORIENTED_EDGE('',*,*,#403,.T.);
#519=ORIENTED_EDGE('',*,*,#402,.F.);
#520=ORIENTED_EDGE('',*,*,#403,.F.);
#521=ORIENTED_EDGE('',*,*,#404,.F.);
#522=ORIENTED_EDGE('',*,*,#398,.F.);
#523=ORIENTED_EDGE('',*,*,#405,.T.);
#524=ORIENTED_EDGE('',*,*,#406,.T.);
#525=ORIENTED_EDGE('',*,*,#405,.F.);
#526=ORIENTED_EDGE('',*,*,#406,.F.);
#527=ORIENTED_EDGE('',*,*,#407,.F.);
#528=ORIENTED_EDGE('',*,*,#399,.F.);
#529=ORIENTED_EDGE('',*,*,#408,.T.);
#530=ORIENTED_EDGE('',*,*,#409,.T.);
#531=ORIENTED_EDGE('',*,*,#408,.F.);
#532=ORIENTED_EDGE('',*,*,#409,.F.);
#533=ORIENTED_EDGE('',*,*,#410,.F.);
#534=ORIENTED_EDGE('',*,*,#400,.F.);
#535=ORIENTED_EDGE('',*,*,#411,.T.);
#536=ORIENTED_EDGE('',*,*,#412,.T.);
#537=ORIENTED_EDGE('',*,*,#411,.F.);
#538=ORIENTED_EDGE('',*,*,#412,.F.);
#539=ORIENTED_EDGE('',*,*,#413,.F.);
#540=ORIENTED_EDGE('',*,*,#401,.F.);
#541=ORIENTED_EDGE('',*,*,#414,.T.);
#542=ORIENTED_EDGE('',*,*,#415,.T.);
#543=ORIENTED_EDGE('',*,*,#414,.F.);
#544=ORIENTED_EDGE('',*,*,#415,.F.);
#545=ORIENTED_EDGE('',*,*,#416,.F.);
#546=ORIENTED_EDGE('',*,*,#404,.T.);
#547=ORIENTED_EDGE('',*,*,#417,.T.);
#548=ORIENTED_EDGE('',*,*,#418,.T.);
#549=ORIENTED_EDGE('',*,*,#417,.F.);
#550=ORIENTED_EDGE('',*,*,#410,.T.);
#551=ORIENTED_EDGE('',*,*,#419,.T.);
#552=ORIENTED_EDGE('',*,*,#420,.T.);
#553=ORIENTED_EDGE('',*,*,#419,.F.);
#554=ORIENTED_EDGE('',*,*,#413,.T.);
#555=ORIENTED_EDGE('',*,*,#421,.T.);
#556=ORIENTED_EDGE('',*,*,#422,.T.);
#557=ORIENTED_EDGE('',*,*,#421,.F.);
#558=ORIENTED_EDGE('',*,*,#407,.T.);
#559=ORIENTED_EDGE('',*,*,#423,.T.);
#560=ORIENTED_EDGE('',*,*,#424,.T.);
#561=ORIENTED_EDGE('',*,*,#423,.F.);
#562=ORIENTED_EDGE('',*,*,#416,.T.);
#563=ORIENTED_EDGE('',*,*,#425,.T.);
#564=ORIENTED_EDGE('',*,*,#426,.T.);
#565=ORIENTED_EDGE('',*,*,#425,.F.);
#566=ORIENTED_EDGE('',*,*,#427,.F.);
#567=ORIENTED_EDGE('',*,*,#428,.T.);
#568=ORIENTED_EDGE('',*,*,#396,.F.);
#569=ORIENTED_EDGE('',*,*,#429,.F.);
#570=ORIENTED_EDGE('',*,*,#430,.T.);
#571=ORIENTED_EDGE('',*,*,#429,.T.);
#572=ORIENTED_EDGE('',*,*,#395,.F.);
#573=ORIENTED_EDGE('',*,*,#431,.F.);
#574=ORIENTED_EDGE('',*,*,#432,.T.);
#575=ORIENTED_EDGE('',*,*,#431,.T.);
#576=ORIENTED_EDGE('',*,*,#394,.F.);
#577=ORIENTED_EDGE('',*,*,#433,.F.);
#578=ORIENTED_EDGE('',*,*,#434,.F.);
#579=ORIENTED_EDGE('',*,*,#433,.T.);
#580=ORIENTED_EDGE('',*,*,#393,.F.);
#581=ORIENTED_EDGE('',*,*,#435,.F.);
#582=ORIENTED_EDGE('',*,*,#436,.T.);
#583=ORIENTED_EDGE('',*,*,#435,.T.);
#584=ORIENTED_EDGE('',*,*,#392,.F.);
#585=ORIENTED_EDGE('',*,*,#437,.F.);
#586=ORIENTED_EDGE('',*,*,#438,.F.);
#587=ORIENTED_EDGE('',*,*,#437,.T.);
#588=ORIENTED_EDGE('',*,*,#391,.F.);
#589=ORIENTED_EDGE('',*,*,#439,.F.);
#590=ORIENTED_EDGE('',*,*,#440,.T.);
#591=ORIENTED_EDGE('',*,*,#439,.T.);
#592=ORIENTED_EDGE('',*,*,#390,.F.);
#593=ORIENTED_EDGE('',*,*,#441,.F.);
#594=ORIENTED_EDGE('',*,*,#442,.T.);
#595=ORIENTED_EDGE('',*,*,#441,.T.);
#596=ORIENTED_EDGE('',*,*,#389,.F.);
#597=ORIENTED_EDGE('',*,*,#428,.F.);
#598=ORIENTED_EDGE('',*,*,#442,.F.);
#599=ORIENTED_EDGE('',*,*,#427,.T.);
#600=ORIENTED_EDGE('',*,*,#430,.F.);
#601=ORIENTED_EDGE('',*,*,#432,.F.);
#602=ORIENTED_EDGE('',*,*,#434,.T.);
#603=ORIENTED_EDGE('',*,*,#436,.F.);
#604=ORIENTED_EDGE('',*,*,#438,.T.);
#605=ORIENTED_EDGE('',*,*,#440,.F.);
#606=ORIENTED_EDGE('',*,*,#426,.F.);
#607=ORIENTED_EDGE('',*,*,#424,.F.);
#608=ORIENTED_EDGE('',*,*,#422,.F.);
#609=ORIENTED_EDGE('',*,*,#420,.F.);
#610=ORIENTED_EDGE('',*,*,#418,.F.);
#611=PLANE('',#695);
#612=PLANE('',#697);
#613=PLANE('',#699);
#614=PLANE('',#701);
#615=PLANE('',#703);
#616=PLANE('',#705);
#617=PLANE('',#707);
#618=PLANE('',#709);
#619=PLANE('',#711);
#620=PLANE('',#713);
#621=PLANE('',#735);
#622=PLANE('',#743);
#623=PLANE('',#747);
#624=PLANE('',#751);
#625=PLANE('',#755);
#626=PLANE('',#759);
#627=PLANE('',#771);
#628=PLANE('',#772);
#629=PLANE('',#773);
#630=PLANE('',#774);
#631=PLANE('',#775);
#632=PLANE('',#776);
#633=PLANE('',#777);
#634=PLANE('',#778);
#635=PLANE('',#779);
#636=ADVANCED_FACE('',(#148),#611,.T.);
#637=ADVANCED_FACE('',(#149),#612,.T.);
#638=ADVANCED_FACE('',(#150),#613,.T.);
#639=ADVANCED_FACE('',(#151),#614,.T.);
#640=ADVANCED_FACE('',(#152),#615,.T.);
#641=ADVANCED_FACE('',(#153),#616,.T.);
#642=ADVANCED_FACE('',(#154),#617,.T.);
#643=ADVANCED_FACE('',(#155),#618,.T.);
#644=ADVANCED_FACE('',(#156),#619,.T.);
#645=ADVANCED_FACE('',(#157),#620,.T.);
#646=ADVANCED_FACE('',(#158),#128,.F.);
#647=ADVANCED_FACE('',(#159),#129,.F.);
#648=ADVANCED_FACE('',(#160),#130,.F.);
#649=ADVANCED_FACE('',(#161),#131,.F.);
#650=ADVANCED_FACE('',(#162),#132,.F.);
#651=ADVANCED_FACE('',(#163),#133,.F.);
#652=ADVANCED_FACE('',(#164),#134,.F.);
#653=ADVANCED_FACE('',(#165),#135,.F.);
#654=ADVANCED_FACE('',(#166),#136,.F.);
#655=ADVANCED_FACE('',(#167),#137,.F.);
#656=ADVANCED_FACE('',(#168,#15,#16,#17,#18,#19,#20,#21,#22,#23,#24,#25,
#26,#27,#28,#29),#621,.T.);
#657=ADVANCED_FACE('',(#169),#138,.F.);
#658=ADVANCED_FACE('',(#170,#30),#622,.T.);
#659=ADVANCED_FACE('',(#171),#139,.F.);
#660=ADVANCED_FACE('',(#172,#31),#623,.T.);
#661=ADVANCED_FACE('',(#173),#140,.F.);
#662=ADVANCED_FACE('',(#174,#32),#624,.T.);
#663=ADVANCED_FACE('',(#175),#141,.F.);
#664=ADVANCED_FACE('',(#176,#33),#625,.T.);
#665=ADVANCED_FACE('',(#177),#142,.F.);
#666=ADVANCED_FACE('',(#178,#34),#626,.T.);
#667=ADVANCED_FACE('',(#179),#143,.F.);
#668=ADVANCED_FACE('',(#180),#144,.F.);
#669=ADVANCED_FACE('',(#181),#145,.F.);
#670=ADVANCED_FACE('',(#182),#146,.F.);
#671=ADVANCED_FACE('',(#183),#147,.F.);
#672=ADVANCED_FACE('',(#184),#627,.T.);
#673=ADVANCED_FACE('',(#185),#628,.T.);
#674=ADVANCED_FACE('',(#186),#629,.T.);
#675=ADVANCED_FACE('',(#187),#630,.T.);
#676=ADVANCED_FACE('',(#188),#631,.T.);
#677=ADVANCED_FACE('',(#189),#632,.T.);
#678=ADVANCED_FACE('',(#190),#633,.T.);
#679=ADVANCED_FACE('',(#191),#634,.T.);
#680=ADVANCED_FACE('',(#192,#35,#36,#37,#38,#39),#635,.F.);
#681=CLOSED_SHELL('',(#636,#637,#638,#639,#640,#641,#642,#643,#644,#645,
#646,#647,#648,#649,#650,#651,#652,#653,#654,#655,#656,#657,#658,#659,#660,
#661,#662,#663,#664,#665,#666,#667,#668,#669,#670,#671,#672,#673,#674,#675,
#676,#677,#678,#679,#680));
#682=DERIVED_UNIT_ELEMENT(#684,1.);
#683=DERIVED_UNIT_ELEMENT(#1187,-3.);
#684=(
MASS_UNIT()
NAMED_UNIT(*)
SI_UNIT(.KILO.,.GRAM.)
);
#685=DERIVED_UNIT((#682,#683));
#686=MEASURE_REPRESENTATION_ITEM('density measure',
POSITIVE_RATIO_MEASURE(1060.),#685);
#687=PROPERTY_DEFINITION_REPRESENTATION(#692,#689);
#688=PROPERTY_DEFINITION_REPRESENTATION(#693,#690);
#689=REPRESENTATION('material name',(#691),#1184);
#690=REPRESENTATION('density',(#686),#1184);
#691=DESCRIPTIVE_REPRESENTATION_ITEM('ABS \X2\D50CB77CC2A4D2F1\X0\',
'ABS \X2\D50CB77CC2A4D2F1\X0\');
#692=PROPERTY_DEFINITION('material property','material name',#1194);
#693=PROPERTY_DEFINITION('material property','density of part',#1194);
#694=AXIS2_PLACEMENT_3D('',#996,#780,#781);
#695=AXIS2_PLACEMENT_3D('',#997,#782,#783);
#696=AXIS2_PLACEMENT_3D('',#999,#784,#785);
#697=AXIS2_PLACEMENT_3D('',#1000,#786,#787);
#698=AXIS2_PLACEMENT_3D('',#1002,#788,#789);
#699=AXIS2_PLACEMENT_3D('',#1003,#790,#791);
#700=AXIS2_PLACEMENT_3D('',#1005,#792,#793);
#701=AXIS2_PLACEMENT_3D('',#1006,#794,#795);
#702=AXIS2_PLACEMENT_3D('',#1008,#796,#797);
#703=AXIS2_PLACEMENT_3D('',#1009,#798,#799);
#704=AXIS2_PLACEMENT_3D('',#1011,#800,#801);
#705=AXIS2_PLACEMENT_3D('',#1012,#802,#803);
#706=AXIS2_PLACEMENT_3D('',#1014,#804,#805);
#707=AXIS2_PLACEMENT_3D('',#1015,#806,#807);
#708=AXIS2_PLACEMENT_3D('',#1017,#808,#809);
#709=AXIS2_PLACEMENT_3D('',#1018,#810,#811);
#710=AXIS2_PLACEMENT_3D('',#1020,#812,#813);
#711=AXIS2_PLACEMENT_3D('',#1021,#814,#815);
#712=AXIS2_PLACEMENT_3D('',#1023,#816,#817);
#713=AXIS2_PLACEMENT_3D('',#1024,#818,#819);
#714=AXIS2_PLACEMENT_3D('',#1026,#820,#821);
#715=AXIS2_PLACEMENT_3D('',#1027,#822,#823);
#716=AXIS2_PLACEMENT_3D('',#1029,#824,#825);
#717=AXIS2_PLACEMENT_3D('',#1031,#827,#828);
#718=AXIS2_PLACEMENT_3D('',#1033,#829,#830);
#719=AXIS2_PLACEMENT_3D('',#1035,#832,#833);
#720=AXIS2_PLACEMENT_3D('',#1037,#834,#835);
#721=AXIS2_PLACEMENT_3D('',#1039,#837,#838);
#722=AXIS2_PLACEMENT_3D('',#1041,#839,#840);
#723=AXIS2_PLACEMENT_3D('',#1043,#842,#843);
#724=AXIS2_PLACEMENT_3D('',#1045,#844,#845);
#725=AXIS2_PLACEMENT_3D('',#1047,#847,#848);
#726=AXIS2_PLACEMENT_3D('',#1049,#849,#850);
#727=AXIS2_PLACEMENT_3D('',#1051,#852,#853);
#728=AXIS2_PLACEMENT_3D('',#1053,#854,#855);
#729=AXIS2_PLACEMENT_3D('',#1055,#857,#858);
#730=AXIS2_PLACEMENT_3D('',#1057,#859,#860);
#731=AXIS2_PLACEMENT_3D('',#1059,#862,#863);
#732=AXIS2_PLACEMENT_3D('',#1061,#864,#865);
#733=AXIS2_PLACEMENT_3D('',#1063,#867,#868);
#734=AXIS2_PLACEMENT_3D('',#1065,#869,#870);
#735=AXIS2_PLACEMENT_3D('',#1067,#872,#873);
#736=AXIS2_PLACEMENT_3D('',#1085,#882,#883);
#737=AXIS2_PLACEMENT_3D('',#1087,#884,#885);
#738=AXIS2_PLACEMENT_3D('',#1089,#886,#887);
#739=AXIS2_PLACEMENT_3D('',#1091,#888,#889);
#740=AXIS2_PLACEMENT_3D('',#1093,#890,#891);
#741=AXIS2_PLACEMENT_3D('',#1094,#892,#893);
#742=AXIS2_PLACEMENT_3D('',#1097,#895,#896);
#743=AXIS2_PLACEMENT_3D('',#1098,#897,#898);
#744=AXIS2_PLACEMENT_3D('',#1100,#899,#900);
#745=AXIS2_PLACEMENT_3D('',#1101,#901,#902);
#746=AXIS2_PLACEMENT_3D('',#1104,#904,#905);
#747=AXIS2_PLACEMENT_3D('',#1105,#906,#907);
#748=AXIS2_PLACEMENT_3D('',#1107,#908,#909);
#749=AXIS2_PLACEMENT_3D('',#1108,#910,#911);
#750=AXIS2_PLACEMENT_3D('',#1111,#913,#914);
#751=AXIS2_PLACEMENT_3D('',#1112,#915,#916);
#752=AXIS2_PLACEMENT_3D('',#1114,#917,#918);
#753=AXIS2_PLACEMENT_3D('',#1115,#919,#920);
#754=AXIS2_PLACEMENT_3D('',#1118,#922,#923);
#755=AXIS2_PLACEMENT_3D('',#1119,#924,#925);
#756=AXIS2_PLACEMENT_3D('',#1121,#926,#927);
#757=AXIS2_PLACEMENT_3D('',#1122,#928,#929);
#758=AXIS2_PLACEMENT_3D('',#1125,#931,#932);
#759=AXIS2_PLACEMENT_3D('',#1126,#933,#934);
#760=AXIS2_PLACEMENT_3D('',#1128,#935,#936);
#761=AXIS2_PLACEMENT_3D('',#1129,#937,#938);
#762=AXIS2_PLACEMENT_3D('',#1132,#940,#941);
#763=AXIS2_PLACEMENT_3D('',#1133,#942,#943);
#764=AXIS2_PLACEMENT_3D('',#1136,#945,#946);
#765=AXIS2_PLACEMENT_3D('',#1137,#947,#948);
#766=AXIS2_PLACEMENT_3D('',#1140,#950,#951);
#767=AXIS2_PLACEMENT_3D('',#1141,#952,#953);
#768=AXIS2_PLACEMENT_3D('',#1144,#955,#956);
#769=AXIS2_PLACEMENT_3D('',#1145,#957,#958);
#770=AXIS2_PLACEMENT_3D('',#1148,#960,#961);
#771=AXIS2_PLACEMENT_3D('',#1149,#962,#963);
#772=AXIS2_PLACEMENT_3D('',#1155,#967,#968);
#773=AXIS2_PLACEMENT_3D('',#1159,#971,#972);
#774=AXIS2_PLACEMENT_3D('',#1163,#975,#976);
#775=AXIS2_PLACEMENT_3D('',#1167,#979,#980);
#776=AXIS2_PLACEMENT_3D('',#1171,#983,#984);
#777=AXIS2_PLACEMENT_3D('',#1175,#987,#988);
#778=AXIS2_PLACEMENT_3D('',#1179,#991,#992);
#779=AXIS2_PLACEMENT_3D('',#1181,#994,#995);
#780=DIRECTION('axis',(0.,0.,1.));
#781=DIRECTION('refdir',(1.,0.,0.));
#782=DIRECTION('center_axis',(0.,0.,1.));
#783=DIRECTION('ref_axis',(-1.,0.,0.));
#784=DIRECTION('center_axis',(0.,0.,-1.));
#785=DIRECTION('ref_axis',(-1.,0.,0.));
#786=DIRECTION('center_axis',(0.,0.,1.));
#787=DIRECTION('ref_axis',(-1.,0.,0.));
#788=DIRECTION('center_axis',(0.,0.,-1.));
#789=DIRECTION('ref_axis',(-1.,0.,0.));
#790=DIRECTION('center_axis',(0.,0.,1.));
#791=DIRECTION('ref_axis',(-1.,0.,0.));
#792=DIRECTION('center_axis',(0.,0.,-1.));
#793=DIRECTION('ref_axis',(-1.,0.,0.));
#794=DIRECTION('center_axis',(0.,0.,1.));
#795=DIRECTION('ref_axis',(-1.,0.,0.));
#796=DIRECTION('center_axis',(0.,0.,-1.));
#797=DIRECTION('ref_axis',(-1.,0.,0.));
#798=DIRECTION('center_axis',(0.,0.,1.));
#799=DIRECTION('ref_axis',(-1.,0.,0.));
#800=DIRECTION('center_axis',(0.,0.,-1.));
#801=DIRECTION('ref_axis',(-1.,0.,0.));
#802=DIRECTION('center_axis',(0.,0.,1.));
#803=DIRECTION('ref_axis',(-1.,0.,0.));
#804=DIRECTION('center_axis',(0.,0.,-1.));
#805=DIRECTION('ref_axis',(-1.,0.,0.));
#806=DIRECTION('center_axis',(0.,0.,1.));
#807=DIRECTION('ref_axis',(-1.,0.,0.));
#808=DIRECTION('center_axis',(0.,0.,-1.));
#809=DIRECTION('ref_axis',(-1.,0.,0.));
#810=DIRECTION('center_axis',(0.,0.,1.));
#811=DIRECTION('ref_axis',(-1.,0.,0.));
#812=DIRECTION('center_axis',(0.,0.,-1.));
#813=DIRECTION('ref_axis',(-1.,0.,0.));
#814=DIRECTION('center_axis',(0.,0.,1.));
#815=DIRECTION('ref_axis',(-1.,0.,0.));
#816=DIRECTION('center_axis',(0.,0.,-1.));
#817=DIRECTION('ref_axis',(-1.,0.,0.));
#818=DIRECTION('center_axis',(0.,0.,1.));
#819=DIRECTION('ref_axis',(-1.,0.,0.));
#820=DIRECTION('center_axis',(0.,0.,-1.));
#821=DIRECTION('ref_axis',(-1.,0.,0.));
#822=DIRECTION('center_axis',(0.,0.,-1.));
#823=DIRECTION('ref_axis',(-1.,0.,0.));
#824=DIRECTION('center_axis',(0.,0.,-1.));
#825=DIRECTION('ref_axis',(-1.,0.,0.));
#826=DIRECTION('',(0.,0.,-1.));
#827=DIRECTION('center_axis',(0.,0.,-1.));
#828=DIRECTION('ref_axis',(-1.,0.,0.));
#829=DIRECTION('center_axis',(0.,0.,-1.));
#830=DIRECTION('ref_axis',(-1.,0.,0.));
#831=DIRECTION('',(0.,0.,-1.));
#832=DIRECTION('center_axis',(0.,0.,-1.));
#833=DIRECTION('ref_axis',(-1.,0.,0.));
#834=DIRECTION('center_axis',(0.,0.,-1.));
#835=DIRECTION('ref_axis',(-1.,0.,0.));
#836=DIRECTION('',(0.,0.,-1.));
#837=DIRECTION('center_axis',(0.,0.,-1.));
#838=DIRECTION('ref_axis',(-1.,0.,0.));
#839=DIRECTION('center_axis',(0.,0.,-1.));
#840=DIRECTION('ref_axis',(-1.,0.,0.));
#841=DIRECTION('',(0.,0.,-1.));
#842=DIRECTION('center_axis',(0.,0.,-1.));
#843=DIRECTION('ref_axis',(-1.,0.,0.));
#844=DIRECTION('center_axis',(0.,0.,-1.));
#845=DIRECTION('ref_axis',(-1.,0.,0.));
#846=DIRECTION('',(0.,0.,-1.));
#847=DIRECTION('center_axis',(0.,0.,-1.));
#848=DIRECTION('ref_axis',(-1.,0.,0.));
#849=DIRECTION('center_axis',(0.,0.,-1.));
#850=DIRECTION('ref_axis',(-1.,0.,0.));
#851=DIRECTION('',(0.,0.,-1.));
#852=DIRECTION('center_axis',(0.,0.,-1.));
#853=DIRECTION('ref_axis',(-1.,0.,0.));
#854=DIRECTION('center_axis',(0.,0.,-1.));
#855=DIRECTION('ref_axis',(-1.,0.,0.));
#856=DIRECTION('',(0.,0.,-1.));
#857=DIRECTION('center_axis',(0.,0.,-1.));
#858=DIRECTION('ref_axis',(-1.,0.,0.));
#859=DIRECTION('center_axis',(0.,0.,-1.));
#860=DIRECTION('ref_axis',(-1.,0.,0.));
#861=DIRECTION('',(0.,0.,-1.));
#862=DIRECTION('center_axis',(0.,0.,-1.));
#863=DIRECTION('ref_axis',(-1.,0.,0.));
#864=DIRECTION('center_axis',(0.,0.,-1.));
#865=DIRECTION('ref_axis',(-1.,0.,0.));
#866=DIRECTION('',(0.,0.,-1.));
#867=DIRECTION('center_axis',(0.,0.,-1.));
#868=DIRECTION('ref_axis',(-1.,0.,0.));
#869=DIRECTION('center_axis',(0.,0.,-1.));
#870=DIRECTION('ref_axis',(-1.,0.,0.));
#871=DIRECTION('',(0.,0.,-1.));
#872=DIRECTION('center_axis',(0.,0.,1.));
#873=DIRECTION('ref_axis',(-1.,0.,0.));
#874=DIRECTION('',(-1.,0.,0.));
#875=DIRECTION('',(0.,-1.,0.));
#876=DIRECTION('',(1.,0.,0.));
#877=DIRECTION('',(0.,1.,0.));
#878=DIRECTION('',(-1.,0.,0.));
#879=DIRECTION('',(0.,1.,0.));
#880=DIRECTION('',(-1.,0.,0.));
#881=DIRECTION('',(0.,1.,0.));
#882=DIRECTION('center_axis',(0.,0.,-1.));
#883=DIRECTION('ref_axis',(-1.,0.,0.));
#884=DIRECTION('center_axis',(0.,0.,-1.));
#885=DIRECTION('ref_axis',(-1.,0.,0.));
#886=DIRECTION('center_axis',(0.,0.,-1.));
#887=DIRECTION('ref_axis',(-1.,0.,0.));
#888=DIRECTION('center_axis',(0.,0.,-1.));
#889=DIRECTION('ref_axis',(-1.,0.,0.));
#890=DIRECTION('center_axis',(0.,0.,-1.));
#891=DIRECTION('ref_axis',(-1.,0.,0.));
#892=DIRECTION('center_axis',(0.,0.,-1.));
#893=DIRECTION('ref_axis',(-1.,0.,0.));
#894=DIRECTION('',(0.,0.,-1.));
#895=DIRECTION('center_axis',(0.,0.,-1.));
#896=DIRECTION('ref_axis',(-1.,0.,0.));
#897=DIRECTION('center_axis',(0.,0.,1.));
#898=DIRECTION('ref_axis',(-1.,0.,0.));
#899=DIRECTION('center_axis',(0.,0.,1.));
#900=DIRECTION('ref_axis',(1.,0.,0.));
#901=DIRECTION('center_axis',(0.,0.,-1.));
#902=DIRECTION('ref_axis',(-1.,0.,0.));
#903=DIRECTION('',(0.,0.,-1.));
#904=DIRECTION('center_axis',(0.,0.,-1.));
#905=DIRECTION('ref_axis',(-1.,0.,0.));
#906=DIRECTION('center_axis',(0.,0.,1.));
#907=DIRECTION('ref_axis',(-1.,0.,0.));
#908=DIRECTION('center_axis',(0.,0.,1.));
#909=DIRECTION('ref_axis',(1.,0.,0.));
#910=DIRECTION('center_axis',(0.,0.,-1.));
#911=DIRECTION('ref_axis',(-1.,0.,0.));
#912=DIRECTION('',(0.,0.,-1.));
#913=DIRECTION('center_axis',(0.,0.,-1.));
#914=DIRECTION('ref_axis',(-1.,0.,0.));
#915=DIRECTION('center_axis',(0.,0.,1.));
#916=DIRECTION('ref_axis',(-1.,0.,0.));
#917=DIRECTION('center_axis',(0.,0.,1.));
#918=DIRECTION('ref_axis',(1.,0.,0.));
#919=DIRECTION('center_axis',(0.,0.,-1.));
#920=DIRECTION('ref_axis',(-1.,0.,0.));
#921=DIRECTION('',(0.,0.,-1.));
#922=DIRECTION('center_axis',(0.,0.,-1.));
#923=DIRECTION('ref_axis',(-1.,0.,0.));
#924=DIRECTION('center_axis',(0.,0.,1.));
#925=DIRECTION('ref_axis',(-1.,0.,0.));
#926=DIRECTION('center_axis',(0.,0.,1.));
#927=DIRECTION('ref_axis',(1.,0.,0.));
#928=DIRECTION('center_axis',(0.,0.,-1.));
#929=DIRECTION('ref_axis',(-1.,0.,0.));
#930=DIRECTION('',(0.,0.,-1.));
#931=DIRECTION('center_axis',(0.,0.,-1.));
#932=DIRECTION('ref_axis',(-1.,0.,0.));
#933=DIRECTION('center_axis',(0.,0.,1.));
#934=DIRECTION('ref_axis',(-1.,0.,0.));
#935=DIRECTION('center_axis',(0.,0.,1.));
#936=DIRECTION('ref_axis',(1.,0.,0.));
#937=DIRECTION('center_axis',(0.,0.,1.));
#938=DIRECTION('ref_axis',(1.,0.,0.));
#939=DIRECTION('',(0.,0.,-1.));
#940=DIRECTION('center_axis',(0.,0.,-1.));
#941=DIRECTION('ref_axis',(1.,0.,0.));
#942=DIRECTION('center_axis',(0.,0.,1.));
#943=DIRECTION('ref_axis',(1.,0.,0.));
#944=DIRECTION('',(0.,0.,-1.));
#945=DIRECTION('center_axis',(0.,0.,-1.));
#946=DIRECTION('ref_axis',(1.,0.,0.));
#947=DIRECTION('center_axis',(0.,0.,1.));
#948=DIRECTION('ref_axis',(1.,0.,0.));
#949=DIRECTION('',(0.,0.,-1.));
#950=DIRECTION('center_axis',(0.,0.,-1.));
#951=DIRECTION('ref_axis',(1.,0.,0.));
#952=DIRECTION('center_axis',(0.,0.,1.));
#953=DIRECTION('ref_axis',(1.,0.,0.));
#954=DIRECTION('',(0.,0.,-1.));
#955=DIRECTION('center_axis',(0.,0.,-1.));
#956=DIRECTION('ref_axis',(1.,0.,0.));
#957=DIRECTION('center_axis',(0.,0.,1.));
#958=DIRECTION('ref_axis',(1.,0.,0.));
#959=DIRECTION('',(0.,0.,-1.));
#960=DIRECTION('center_axis',(0.,0.,-1.));
#961=DIRECTION('ref_axis',(1.,0.,0.));
#962=DIRECTION('center_axis',(1.,0.,0.));
#963=DIRECTION('ref_axis',(0.,1.,0.));
#964=DIRECTION('',(0.,-1.,0.));
#965=DIRECTION('',(0.,0.,1.));
#966=DIRECTION('',(0.,0.,1.));
#967=DIRECTION('center_axis',(0.,1.,0.));
#968=DIRECTION('ref_axis',(-1.,0.,0.));
#969=DIRECTION('',(-1.,0.,0.));
#970=DIRECTION('',(0.,0.,1.));
#971=DIRECTION('center_axis',(1.,0.,0.));
#972=DIRECTION('ref_axis',(0.,1.,0.));
#973=DIRECTION('',(0.,1.,0.));
#974=DIRECTION('',(0.,0.,1.));
#975=DIRECTION('center_axis',(0.,1.,0.));
#976=DIRECTION('ref_axis',(-1.,0.,0.));
#977=DIRECTION('',(1.,0.,0.));
#978=DIRECTION('',(0.,0.,1.));
#979=DIRECTION('center_axis',(1.,0.,0.));
#980=DIRECTION('ref_axis',(0.,1.,0.));
#981=DIRECTION('',(0.,1.,0.));
#982=DIRECTION('',(0.,0.,1.));
#983=DIRECTION('center_axis',(0.,-1.,0.));
#984=DIRECTION('ref_axis',(1.,0.,0.));
#985=DIRECTION('',(-1.,0.,0.));
#986=DIRECTION('',(0.,0.,1.));
#987=DIRECTION('center_axis',(-1.,0.,0.));
#988=DIRECTION('ref_axis',(0.,-1.,0.));
#989=DIRECTION('',(0.,-1.,0.));
#990=DIRECTION('',(0.,0.,1.));
#991=DIRECTION('center_axis',(0.,1.,0.));
#992=DIRECTION('ref_axis',(-1.,0.,0.));
#993=DIRECTION('',(-1.,0.,0.));
#994=DIRECTION('center_axis',(0.,0.,1.));
#995=DIRECTION('ref_axis',(1.,0.,0.));
#996=CARTESIAN_POINT('',(0.,0.,0.));
#997=CARTESIAN_POINT('Origin',(31.4751254518336,27.6489924779848,0.25));
#998=CARTESIAN_POINT('',(31.6751254518336,27.6489924779848,0.25));
#999=CARTESIAN_POINT('Origin',(31.4751254518336,27.6489924779848,0.25));
#1000=CARTESIAN_POINT('Origin',(24.9742258550086,29.6480426576771,0.25));
#1001=CARTESIAN_POINT('',(25.1742258550086,29.6480426576771,0.25));
#1002=CARTESIAN_POINT('Origin',(24.9742258550086,29.6480426576771,0.25));
#1003=CARTESIAN_POINT('Origin',(29.432229826763,25.8482136143598,0.25));
#1004=CARTESIAN_POINT('',(29.632229826763,25.8482136143598,0.25));
#1005=CARTESIAN_POINT('Origin',(29.432229826763,25.8482136143598,0.25));
#1006=CARTESIAN_POINT('Origin',(31.4751254518336,35.6489924779848,0.25));
#1007=CARTESIAN_POINT('',(31.6751254518336,35.6489924779848,0.25));
#1008=CARTESIAN_POINT('Origin',(31.4751254518336,35.6489924779848,0.25));
#1009=CARTESIAN_POINT('Origin',(26.4000003069639,37.9500005654991,0.15));
#1010=CARTESIAN_POINT('',(26.5500003069639,37.9500005654991,0.15));
#1011=CARTESIAN_POINT('Origin',(26.4000003069639,37.9500005654991,0.15));
#1012=CARTESIAN_POINT('Origin',(20.6000003069639,33.0500005654991,0.15));
#1013=CARTESIAN_POINT('',(20.7500003069639,33.0500005654991,0.15));
#1014=CARTESIAN_POINT('Origin',(20.6000003069639,33.0500005654991,0.15));
#1015=CARTESIAN_POINT('Origin',(18.8143940297982,32.1714571205884,0.15));
#1016=CARTESIAN_POINT('',(18.9643940297982,32.1714571205884,0.15));
#1017=CARTESIAN_POINT('Origin',(18.8143940297982,32.1714571205884,0.15));
#1018=CARTESIAN_POINT('Origin',(18.8143940297982,34.3302751376793,0.15));
#1019=CARTESIAN_POINT('',(18.9643940297982,34.3302751376793,0.15));
#1020=CARTESIAN_POINT('Origin',(18.8143940297982,34.3302751376793,0.15));
#1021=CARTESIAN_POINT('Origin',(26.4000003069639,33.0500005654991,0.15));
#1022=CARTESIAN_POINT('',(26.5500003069639,33.0500005654991,0.15));
#1023=CARTESIAN_POINT('Origin',(26.4000003069639,33.0500005654991,0.15));
#1024=CARTESIAN_POINT('Origin',(20.6000003069639,37.9500005654991,0.15));
#1025=CARTESIAN_POINT('',(20.7500003069639,37.9500005654991,0.15));
#1026=CARTESIAN_POINT('Origin',(20.6000003069639,37.9500005654991,0.15));
#1027=CARTESIAN_POINT('Origin',(26.4000003069639,33.0500005654991,1.));
#1028=CARTESIAN_POINT('',(26.5500003069639,33.0500005654991,1.));
#1029=CARTESIAN_POINT('Origin',(26.4000003069639,33.0500005654991,1.));
#1030=CARTESIAN_POINT('',(26.5500003069639,33.0500005654991,1.));
#1031=CARTESIAN_POINT('Origin',(18.8143940297982,34.3302751376793,1.));
#1032=CARTESIAN_POINT('',(18.9643940297982,34.3302751376793,1.));
#1033=CARTESIAN_POINT('Origin',(18.8143940297982,34.3302751376793,1.));
#1034=CARTESIAN_POINT('',(18.9643940297982,34.3302751376793,1.));
#1035=CARTESIAN_POINT('Origin',(26.4000003069639,37.9500005654991,1.));
#1036=CARTESIAN_POINT('',(26.5500003069639,37.9500005654991,1.));
#1037=CARTESIAN_POINT('Origin',(26.4000003069639,37.9500005654991,1.));
#1038=CARTESIAN_POINT('',(26.5500003069639,37.9500005654991,1.));
#1039=CARTESIAN_POINT('Origin',(20.6000003069639,33.0500005654991,1.));
#1040=CARTESIAN_POINT('',(20.7500003069639,33.0500005654991,1.));
#1041=CARTESIAN_POINT('Origin',(20.6000003069639,33.0500005654991,1.));
#1042=CARTESIAN_POINT('',(20.7500003069639,33.0500005654991,1.));
#1043=CARTESIAN_POINT('Origin',(20.6000003069639,37.9500005654991,1.));
#1044=CARTESIAN_POINT('',(20.7500003069639,37.9500005654991,1.));
#1045=CARTESIAN_POINT('Origin',(20.6000003069639,37.9500005654991,1.));
#1046=CARTESIAN_POINT('',(20.7500003069639,37.9500005654991,1.));
#1047=CARTESIAN_POINT('Origin',(18.8143940297982,32.1714571205884,1.));
#1048=CARTESIAN_POINT('',(18.9643940297982,32.1714571205884,1.));
#1049=CARTESIAN_POINT('Origin',(18.8143940297982,32.1714571205884,1.));
#1050=CARTESIAN_POINT('',(18.9643940297982,32.1714571205884,1.));
#1051=CARTESIAN_POINT('Origin',(31.4751254518336,27.6489924779848,1.));
#1052=CARTESIAN_POINT('',(31.6751254518336,27.6489924779848,1.));
#1053=CARTESIAN_POINT('Origin',(31.4751254518336,27.6489924779848,1.));
#1054=CARTESIAN_POINT('',(31.6751254518336,27.6489924779848,1.));
#1055=CARTESIAN_POINT('Origin',(29.432229826763,25.8482136143598,1.));
#1056=CARTESIAN_POINT('',(29.632229826763,25.8482136143598,1.));
#1057=CARTESIAN_POINT('Origin',(29.432229826763,25.8482136143598,1.));
#1058=CARTESIAN_POINT('',(29.632229826763,25.8482136143598,1.));
#1059=CARTESIAN_POINT('Origin',(24.9742258550086,29.6480426576771,1.));
#1060=CARTESIAN_POINT('',(25.1742258550086,29.6480426576771,1.));
#1061=CARTESIAN_POINT('Origin',(24.9742258550086,29.6480426576771,1.));
#1062=CARTESIAN_POINT('',(25.1742258550086,29.6480426576771,1.));
#1063=CARTESIAN_POINT('Origin',(31.4751254518336,35.6489924779848,1.));
#1064=CARTESIAN_POINT('',(31.6751254518336,35.6489924779848,1.));
#1065=CARTESIAN_POINT('Origin',(31.4751254518336,35.6489924779848,1.));
#1066=CARTESIAN_POINT('',(31.6751254518336,35.6489924779848,1.));
#1067=CARTESIAN_POINT('Origin',(28.,41.,1.));
#1068=CARTESIAN_POINT('',(29.5,45.5,1.));
#1069=CARTESIAN_POINT('',(17.75,45.5,1.));
#1070=CARTESIAN_POINT('',(35.5,45.5,1.));
#1071=CARTESIAN_POINT('',(17.75,23.05,1.));
#1072=CARTESIAN_POINT('',(17.75,45.5,1.));
#1073=CARTESIAN_POINT('',(35.5,23.05,1.));
#1074=CARTESIAN_POINT('',(35.5,23.05,1.));
#1075=CARTESIAN_POINT('',(35.5,39.5,1.));
#1076=CARTESIAN_POINT('',(35.5,0.,1.));
#1077=CARTESIAN_POINT('',(32.5,39.5,1.));
#1078=CARTESIAN_POINT('',(32.5,39.5,1.));
#1079=CARTESIAN_POINT('',(32.5,42.5,1.));
#1080=CARTESIAN_POINT('',(32.5,39.5,1.));
#1081=CARTESIAN_POINT('',(29.5,42.5,1.));
#1082=CARTESIAN_POINT('',(32.5,42.5,1.));
#1083=CARTESIAN_POINT('',(29.5,45.5,1.));
#1084=CARTESIAN_POINT('',(28.4000004172325,44.,1.));
#1085=CARTESIAN_POINT('Origin',(28.0000004172325,44.,1.));
#1086=CARTESIAN_POINT('',(34.4,38.,1.));
#1087=CARTESIAN_POINT('Origin',(34.,38.,1.));
#1088=CARTESIAN_POINT('',(19.65,44.,1.));
#1089=CARTESIAN_POINT('Origin',(19.25,44.,1.));
#1090=CARTESIAN_POINT('',(34.4,24.55,1.));
#1091=CARTESIAN_POINT('Origin',(34.,24.55,1.));
#1092=CARTESIAN_POINT('',(19.65,24.55,1.));
#1093=CARTESIAN_POINT('Origin',(19.25,24.55,1.));
#1094=CARTESIAN_POINT('Origin',(28.0000004172325,44.,1.));
#1095=CARTESIAN_POINT('',(28.4000004172325,44.,0.55));
#1096=CARTESIAN_POINT('',(28.4000004172325,44.,1.));
#1097=CARTESIAN_POINT('Origin',(28.0000004172325,44.,0.55));
#1098=CARTESIAN_POINT('Origin',(28.0000004172325,44.,0.55));
#1099=CARTESIAN_POINT('',(27.7500004172325,44.,0.55));
#1100=CARTESIAN_POINT('Origin',(28.0000004172325,44.,0.55));
#1101=CARTESIAN_POINT('Origin',(34.,38.,1.));
#1102=CARTESIAN_POINT('',(34.4,38.,0.55));
#1103=CARTESIAN_POINT('',(34.4,38.,1.));
#1104=CARTESIAN_POINT('Origin',(34.,38.,0.55));
#1105=CARTESIAN_POINT('Origin',(34.,38.,0.55));
#1106=CARTESIAN_POINT('',(33.75,38.,0.55));
#1107=CARTESIAN_POINT('Origin',(34.,38.,0.55));
#1108=CARTESIAN_POINT('Origin',(19.25,44.,1.));
#1109=CARTESIAN_POINT('',(19.65,44.,0.55));
#1110=CARTESIAN_POINT('',(19.65,44.,1.));
#1111=CARTESIAN_POINT('Origin',(19.25,44.,0.55));
#1112=CARTESIAN_POINT('Origin',(19.25,44.,0.55));
#1113=CARTESIAN_POINT('',(19.,44.,0.55));
#1114=CARTESIAN_POINT('Origin',(19.25,44.,0.55));
#1115=CARTESIAN_POINT('Origin',(34.,24.55,1.));
#1116=CARTESIAN_POINT('',(34.4,24.55,0.55));
#1117=CARTESIAN_POINT('',(34.4,24.55,1.));
#1118=CARTESIAN_POINT('Origin',(34.,24.55,0.55));
#1119=CARTESIAN_POINT('Origin',(34.,24.55,0.55));
#1120=CARTESIAN_POINT('',(33.75,24.55,0.55));
#1121=CARTESIAN_POINT('Origin',(34.,24.55,0.55));
#1122=CARTESIAN_POINT('Origin',(19.25,24.55,1.));
#1123=CARTESIAN_POINT('',(19.65,24.55,0.55));
#1124=CARTESIAN_POINT('',(19.65,24.55,1.));
#1125=CARTESIAN_POINT('Origin',(19.25,24.55,0.55));
#1126=CARTESIAN_POINT('Origin',(19.25,24.55,0.55));
#1127=CARTESIAN_POINT('',(19.,24.55,0.55));
#1128=CARTESIAN_POINT('Origin',(19.25,24.55,0.55));
#1129=CARTESIAN_POINT('Origin',(28.0000004172325,44.,0.));
#1130=CARTESIAN_POINT('',(27.7500004172325,44.,0.));
#1131=CARTESIAN_POINT('',(27.7500004172325,44.,0.));
#1132=CARTESIAN_POINT('Origin',(28.0000004172325,44.,0.));
#1133=CARTESIAN_POINT('Origin',(19.25,44.,0.));
#1134=CARTESIAN_POINT('',(19.,44.,0.));
#1135=CARTESIAN_POINT('',(19.,44.,0.));
#1136=CARTESIAN_POINT('Origin',(19.25,44.,0.));
#1137=CARTESIAN_POINT('Origin',(34.,24.55,0.));
#1138=CARTESIAN_POINT('',(33.75,24.55,0.));
#1139=CARTESIAN_POINT('',(33.75,24.55,0.));
#1140=CARTESIAN_POINT('Origin',(34.,24.55,0.));
#1141=CARTESIAN_POINT('Origin',(34.,38.,0.));
#1142=CARTESIAN_POINT('',(33.75,38.,0.));
#1143=CARTESIAN_POINT('',(33.75,38.,0.));
#1144=CARTESIAN_POINT('Origin',(34.,38.,0.));
#1145=CARTESIAN_POINT('Origin',(19.25,24.55,0.));
#1146=CARTESIAN_POINT('',(19.,24.55,0.));
#1147=CARTESIAN_POINT('',(19.,24.55,0.));
#1148=CARTESIAN_POINT('Origin',(19.25,24.55,0.));
#1149=CARTESIAN_POINT('Origin',(29.5,42.5,0.));
#1150=CARTESIAN_POINT('',(29.5,45.5,0.));
#1151=CARTESIAN_POINT('',(29.5,42.5,0.));
#1152=CARTESIAN_POINT('',(29.5,45.5,0.));
#1153=CARTESIAN_POINT('',(29.5,45.5,0.));
#1154=CARTESIAN_POINT('',(29.5,42.5,0.));
#1155=CARTESIAN_POINT('Origin',(32.5,42.5,0.));
#1156=CARTESIAN_POINT('',(32.5,42.5,0.));
#1157=CARTESIAN_POINT('',(32.5,42.5,0.));
#1158=CARTESIAN_POINT('',(32.5,42.5,0.));
#1159=CARTESIAN_POINT('Origin',(32.5,39.5,0.));
#1160=CARTESIAN_POINT('',(32.5,39.5,0.));
#1161=CARTESIAN_POINT('',(32.5,39.5,0.));
#1162=CARTESIAN_POINT('',(32.5,39.5,0.));
#1163=CARTESIAN_POINT('Origin',(35.5,39.5,0.));
#1164=CARTESIAN_POINT('',(35.5,39.5,0.));
#1165=CARTESIAN_POINT('',(32.5,39.5,0.));
#1166=CARTESIAN_POINT('',(35.5,39.5,0.));
#1167=CARTESIAN_POINT('Origin',(35.5,23.05,0.));
#1168=CARTESIAN_POINT('',(35.5,23.05,0.));
#1169=CARTESIAN_POINT('',(35.5,0.,0.));
#1170=CARTESIAN_POINT('',(35.5,23.05,0.));
#1171=CARTESIAN_POINT('Origin',(17.75,23.05,0.));
#1172=CARTESIAN_POINT('',(17.75,23.05,0.));
#1173=CARTESIAN_POINT('',(35.5,23.05,0.));
#1174=CARTESIAN_POINT('',(17.75,23.05,0.));
#1175=CARTESIAN_POINT('Origin',(17.75,45.5,0.));
#1176=CARTESIAN_POINT('',(17.75,45.5,0.));
#1177=CARTESIAN_POINT('',(17.75,45.5,0.));
#1178=CARTESIAN_POINT('',(17.75,45.5,0.));
#1179=CARTESIAN_POINT('Origin',(29.5,45.5,0.));
#1180=CARTESIAN_POINT('',(35.5,45.5,0.));
#1181=CARTESIAN_POINT('Origin',(26.625,34.275,0.));
#1182=UNCERTAINTY_MEASURE_WITH_UNIT(LENGTH_MEASURE(0.001),#1186,
'DISTANCE_ACCURACY_VALUE',
'Maximum model space distance between geometric entities at asserted c
onnectivities');
#1183=UNCERTAINTY_MEASURE_WITH_UNIT(LENGTH_MEASURE(0.001),#1186,
'DISTANCE_ACCURACY_VALUE',
'Maximum model space distance between geometric entities at asserted c
onnectivities');
#1184=(
GEOMETRIC_REPRESENTATION_CONTEXT(3)
GLOBAL_UNCERTAINTY_ASSIGNED_CONTEXT((#1182))
GLOBAL_UNIT_ASSIGNED_CONTEXT((#1186,#1188,#1189))
REPRESENTATION_CONTEXT('','3D')
);
#1185=(
GEOMETRIC_REPRESENTATION_CONTEXT(3)
GLOBAL_UNCERTAINTY_ASSIGNED_CONTEXT((#1183))
GLOBAL_UNIT_ASSIGNED_CONTEXT((#1186,#1188,#1189))
REPRESENTATION_CONTEXT('','3D')
);
#1186=(
LENGTH_UNIT()
NAMED_UNIT(*)
SI_UNIT(.CENTI.,.METRE.)
);
#1187=(
LENGTH_UNIT()
NAMED_UNIT(*)
SI_UNIT($,.METRE.)
);
#1188=(
NAMED_UNIT(*)
PLANE_ANGLE_UNIT()
SI_UNIT($,.RADIAN.)
);
#1189=(
NAMED_UNIT(*)
SI_UNIT($,.STERADIAN.)
SOLID_ANGLE_UNIT()
);
#1190=SHAPE_DEFINITION_REPRESENTATION(#1191,#1192);
#1191=PRODUCT_DEFINITION_SHAPE('',$,#1194);
#1192=SHAPE_REPRESENTATION('',(#694),#1184);
#1193=PRODUCT_DEFINITION_CONTEXT('part definition',#1198,'design');
#1194=PRODUCT_DEFINITION('2026-07-21-19-29-19-813','plate r-h2',#1195,#1193);
#1195=PRODUCT_DEFINITION_FORMATION('',$,#1200);
#1196=PRODUCT_RELATED_PRODUCT_CATEGORY('plate r-h2','plate r-h2',(#1200));
#1197=APPLICATION_PROTOCOL_DEFINITION('international standard',
'automotive_design',2009,#1198);
#1198=APPLICATION_CONTEXT(
'Core Data for Automotive Mechanical Design Process');
#1199=PRODUCT_CONTEXT('part definition',#1198,'mechanical');
#1200=PRODUCT('2026-07-21-19-29-19-813','plate r-h2',$,(#1199));
#1201=PRESENTATION_STYLE_ASSIGNMENT((#1202));
#1202=SURFACE_STYLE_USAGE(.BOTH.,#1203);
#1203=SURFACE_SIDE_STYLE('',(#1204));
#1204=SURFACE_STYLE_FILL_AREA(#1205);
#1205=FILL_AREA_STYLE('ABS(\X2\D770C0C9\X0\)',(#1206));
#1206=FILL_AREA_STYLE_COLOUR('ABS(\X2\D770C0C9\X0\)',#1207);
#1207=COLOUR_RGB('ABS(\X2\D770C0C9\X0\)',0.964705882352941,0.964705882352941,
0.952941176470588);
ENDSEC;
END-ISO-10303-21;
