ISO-10303-21;
HEADER;
/* Generated by software containing ST-Developer
 * from STEP Tools, Inc. (www.steptools.com) 
 */

FILE_DESCRIPTION(
/* description */ (''),
/* implementation_level */ '2;1');

FILE_NAME(
/* name */ 'plate side-l-h.step',
/* time_stamp */ '2026-08-31T17:57:41+09:00',
/* author */ (''),
/* organization */ (''),
/* preprocessor_version */ 'ST-DEVELOPER v20.1',
/* originating_system */ 'Autodesk Translation Framework v15.8.0.0',
/* authorisation */ '');

FILE_SCHEMA (('AUTOMOTIVE_DESIGN { 1 0 10303 214 3 1 1 }'));
ENDSEC;

DATA;
#10=MECHANICAL_DESIGN_GEOMETRIC_PRESENTATION_REPRESENTATION('',(#13),#1102);
#11=SHAPE_REPRESENTATION_RELATIONSHIP('SRR','None',#1109,#12);
#12=ADVANCED_BREP_SHAPE_REPRESENTATION('',(#14),#1101);
#13=STYLED_ITEM('',(#1118),#14);
#14=MANIFOLD_SOLID_BREP('\X2\BCF8CCB4\X0\1',#650);
#15=FACE_BOUND('',#134,.T.);
#16=FACE_BOUND('',#138,.T.);
#17=FACE_BOUND('',#139,.T.);
#18=FACE_BOUND('',#140,.T.);
#19=FACE_BOUND('',#141,.T.);
#20=FACE_BOUND('',#142,.T.);
#21=FACE_BOUND('',#143,.T.);
#22=FACE_BOUND('',#144,.T.);
#23=FACE_BOUND('',#147,.T.);
#24=FACE_BOUND('',#150,.T.);
#25=FACE_BOUND('',#153,.T.);
#26=FACE_BOUND('',#161,.T.);
#27=FACE_BOUND('',#162,.T.);
#28=FACE_BOUND('',#163,.T.);
#29=FACE_BOUND('',#164,.T.);
#30=FACE_BOUND('',#165,.T.);
#31=FACE_BOUND('',#166,.T.);
#32=FACE_BOUND('',#167,.T.);
#33=FACE_BOUND('',#168,.T.);
#34=CIRCLE('',#666,0.25);
#35=CIRCLE('',#667,0.25);
#36=CIRCLE('',#670,0.25);
#37=CIRCLE('',#671,0.25);
#38=CIRCLE('',#674,0.25);
#39=CIRCLE('',#675,0.25);
#40=CIRCLE('',#678,0.25);
#41=CIRCLE('',#679,0.25);
#42=CIRCLE('',#682,0.25);
#43=CIRCLE('',#683,0.25);
#44=CIRCLE('',#686,0.25);
#45=CIRCLE('',#687,0.25);
#46=CIRCLE('',#690,0.25);
#47=CIRCLE('',#691,0.25);
#48=CIRCLE('',#694,0.25);
#49=CIRCLE('',#695,0.25);
#50=CIRCLE('',#697,9.5);
#51=CIRCLE('',#698,9.5);
#52=CIRCLE('',#700,0.25);
#53=CIRCLE('',#704,0.399999999999999);
#54=CIRCLE('',#705,0.4);
#55=CIRCLE('',#706,0.4);
#56=CIRCLE('',#708,0.4);
#57=CIRCLE('',#710,0.25);
#58=CIRCLE('',#712,0.4);
#59=CIRCLE('',#714,0.249999999999999);
#60=CIRCLE('',#716,0.399999999999999);
#61=CIRCLE('',#718,0.25);
#62=CIRCLE('',#720,0.25);
#63=CIRCLE('',#722,0.25);
#64=CIRCLE('',#724,0.25);
#65=CIRCLE('',#726,0.249999999999999);
#66=CYLINDRICAL_SURFACE('',#665,0.25);
#67=CYLINDRICAL_SURFACE('',#669,0.25);
#68=CYLINDRICAL_SURFACE('',#673,0.25);
#69=CYLINDRICAL_SURFACE('',#677,0.25);
#70=CYLINDRICAL_SURFACE('',#681,0.25);
#71=CYLINDRICAL_SURFACE('',#685,0.25);
#72=CYLINDRICAL_SURFACE('',#689,0.25);
#73=CYLINDRICAL_SURFACE('',#693,0.25);
#74=CYLINDRICAL_SURFACE('',#696,9.5);
#75=CYLINDRICAL_SURFACE('',#707,0.4);
#76=CYLINDRICAL_SURFACE('',#711,0.4);
#77=CYLINDRICAL_SURFACE('',#715,0.399999999999999);
#78=CYLINDRICAL_SURFACE('',#719,0.25);
#79=CYLINDRICAL_SURFACE('',#721,0.25);
#80=CYLINDRICAL_SURFACE('',#723,0.25);
#81=CYLINDRICAL_SURFACE('',#725,0.249999999999999);
#82=FACE_OUTER_BOUND('',#116,.T.);
#83=FACE_OUTER_BOUND('',#117,.T.);
#84=FACE_OUTER_BOUND('',#118,.T.);
#85=FACE_OUTER_BOUND('',#119,.T.);
#86=FACE_OUTER_BOUND('',#120,.T.);
#87=FACE_OUTER_BOUND('',#121,.T.);
#88=FACE_OUTER_BOUND('',#122,.T.);
#89=FACE_OUTER_BOUND('',#123,.T.);
#90=FACE_OUTER_BOUND('',#124,.T.);
#91=FACE_OUTER_BOUND('',#125,.T.);
#92=FACE_OUTER_BOUND('',#126,.T.);
#93=FACE_OUTER_BOUND('',#127,.T.);
#94=FACE_OUTER_BOUND('',#128,.T.);
#95=FACE_OUTER_BOUND('',#129,.T.);
#96=FACE_OUTER_BOUND('',#130,.T.);
#97=FACE_OUTER_BOUND('',#131,.T.);
#98=FACE_OUTER_BOUND('',#132,.T.);
#99=FACE_OUTER_BOUND('',#133,.T.);
#100=FACE_OUTER_BOUND('',#135,.T.);
#101=FACE_OUTER_BOUND('',#136,.T.);
#102=FACE_OUTER_BOUND('',#137,.T.);
#103=FACE_OUTER_BOUND('',#145,.T.);
#104=FACE_OUTER_BOUND('',#146,.T.);
#105=FACE_OUTER_BOUND('',#148,.T.);
#106=FACE_OUTER_BOUND('',#149,.T.);
#107=FACE_OUTER_BOUND('',#151,.T.);
#108=FACE_OUTER_BOUND('',#152,.T.);
#109=FACE_OUTER_BOUND('',#154,.T.);
#110=FACE_OUTER_BOUND('',#155,.T.);
#111=FACE_OUTER_BOUND('',#156,.T.);
#112=FACE_OUTER_BOUND('',#157,.T.);
#113=FACE_OUTER_BOUND('',#158,.T.);
#114=FACE_OUTER_BOUND('',#159,.T.);
#115=FACE_OUTER_BOUND('',#160,.T.);
#116=EDGE_LOOP('',(#424,#425,#426,#427));
#117=EDGE_LOOP('',(#428,#429,#430,#431));
#118=EDGE_LOOP('',(#432,#433,#434,#435));
#119=EDGE_LOOP('',(#436,#437,#438,#439));
#120=EDGE_LOOP('',(#440,#441,#442,#443));
#121=EDGE_LOOP('',(#444,#445,#446,#447));
#122=EDGE_LOOP('',(#448,#449,#450,#451));
#123=EDGE_LOOP('',(#452,#453,#454,#455));
#124=EDGE_LOOP('',(#456,#457,#458,#459));
#125=EDGE_LOOP('',(#460,#461,#462,#463));
#126=EDGE_LOOP('',(#464,#465,#466,#467));
#127=EDGE_LOOP('',(#468,#469,#470,#471));
#128=EDGE_LOOP('',(#472,#473,#474,#475));
#129=EDGE_LOOP('',(#476,#477,#478,#479));
#130=EDGE_LOOP('',(#480,#481,#482,#483));
#131=EDGE_LOOP('',(#484,#485,#486,#487));
#132=EDGE_LOOP('',(#488,#489,#490,#491));
#133=EDGE_LOOP('',(#492,#493,#494));
#134=EDGE_LOOP('',(#495));
#135=EDGE_LOOP('',(#496,#497,#498,#499,#500,#501));
#136=EDGE_LOOP('',(#502,#503,#504,#505,#506,#507));
#137=EDGE_LOOP('',(#508,#509,#510,#511,#512));
#138=EDGE_LOOP('',(#513));
#139=EDGE_LOOP('',(#514));
#140=EDGE_LOOP('',(#515));
#141=EDGE_LOOP('',(#516,#517,#518,#519));
#142=EDGE_LOOP('',(#520,#521,#522,#523));
#143=EDGE_LOOP('',(#524,#525,#526,#527));
#144=EDGE_LOOP('',(#528,#529,#530,#531));
#145=EDGE_LOOP('',(#532,#533,#534,#535));
#146=EDGE_LOOP('',(#536));
#147=EDGE_LOOP('',(#537));
#148=EDGE_LOOP('',(#538,#539,#540,#541));
#149=EDGE_LOOP('',(#542));
#150=EDGE_LOOP('',(#543));
#151=EDGE_LOOP('',(#544,#545,#546,#547));
#152=EDGE_LOOP('',(#548));
#153=EDGE_LOOP('',(#549));
#154=EDGE_LOOP('',(#550,#551,#552,#553));
#155=EDGE_LOOP('',(#554,#555,#556,#557));
#156=EDGE_LOOP('',(#558,#559,#560,#561));
#157=EDGE_LOOP('',(#562,#563,#564,#565));
#158=EDGE_LOOP('',(#566,#567,#568,#569));
#159=EDGE_LOOP('',(#570,#571,#572,#573));
#160=EDGE_LOOP('',(#574,#575,#576,#577));
#161=EDGE_LOOP('',(#578));
#162=EDGE_LOOP('',(#579));
#163=EDGE_LOOP('',(#580));
#164=EDGE_LOOP('',(#581));
#165=EDGE_LOOP('',(#582,#583,#584,#585));
#166=EDGE_LOOP('',(#586,#587,#588,#589));
#167=EDGE_LOOP('',(#590,#591,#592,#593));
#168=EDGE_LOOP('',(#594,#595,#596,#597));
#169=LINE('',#923,#224);
#170=LINE('',#925,#225);
#171=LINE('',#927,#226);
#172=LINE('',#928,#227);
#173=LINE('',#933,#228);
#174=LINE('',#937,#229);
#175=LINE('',#939,#230);
#176=LINE('',#940,#231);
#177=LINE('',#947,#232);
#178=LINE('',#949,#233);
#179=LINE('',#951,#234);
#180=LINE('',#952,#235);
#181=LINE('',#957,#236);
#182=LINE('',#961,#237);
#183=LINE('',#963,#238);
#184=LINE('',#964,#239);
#185=LINE('',#971,#240);
#186=LINE('',#973,#241);
#187=LINE('',#975,#242);
#188=LINE('',#976,#243);
#189=LINE('',#981,#244);
#190=LINE('',#985,#245);
#191=LINE('',#987,#246);
#192=LINE('',#988,#247);
#193=LINE('',#995,#248);
#194=LINE('',#997,#249);
#195=LINE('',#999,#250);
#196=LINE('',#1000,#251);
#197=LINE('',#1005,#252);
#198=LINE('',#1009,#253);
#199=LINE('',#1011,#254);
#200=LINE('',#1012,#255);
#201=LINE('',#1019,#256);
#202=LINE('',#1023,#257);
#203=LINE('',#1027,#258);
#204=LINE('',#1028,#259);
#205=LINE('',#1033,#260);
#206=LINE('',#1035,#261);
#207=LINE('',#1037,#262);
#208=LINE('',#1038,#263);
#209=LINE('',#1041,#264);
#210=LINE('',#1043,#265);
#211=LINE('',#1044,#266);
#212=LINE('',#1047,#267);
#213=LINE('',#1048,#268);
#214=LINE('',#1057,#269);
#215=LINE('',#1064,#270);
#216=LINE('',#1071,#271);
#217=LINE('',#1078,#272);
#218=LINE('',#1082,#273);
#219=LINE('',#1086,#274);
#220=LINE('',#1090,#275);
#221=LINE('',#1094,#276);
#222=LINE('',#1095,#277);
#223=LINE('',#1097,#278);
#224=VECTOR('',#734,1.);
#225=VECTOR('',#735,1.);
#226=VECTOR('',#736,1.);
#227=VECTOR('',#737,1.);
#228=VECTOR('',#742,1.);
#229=VECTOR('',#747,1.);
#230=VECTOR('',#748,1.);
#231=VECTOR('',#749,1.);
#232=VECTOR('',#758,1.);
#233=VECTOR('',#759,1.);
#234=VECTOR('',#760,1.);
#235=VECTOR('',#761,1.);
#236=VECTOR('',#766,1.);
#237=VECTOR('',#771,1.);
#238=VECTOR('',#772,1.);
#239=VECTOR('',#773,1.);
#240=VECTOR('',#782,1.);
#241=VECTOR('',#783,1.);
#242=VECTOR('',#784,1.);
#243=VECTOR('',#785,1.);
#244=VECTOR('',#790,1.);
#245=VECTOR('',#795,1.);
#246=VECTOR('',#796,1.);
#247=VECTOR('',#797,1.);
#248=VECTOR('',#806,1.);
#249=VECTOR('',#807,1.);
#250=VECTOR('',#808,1.);
#251=VECTOR('',#809,1.);
#252=VECTOR('',#814,1.);
#253=VECTOR('',#819,1.);
#254=VECTOR('',#820,1.);
#255=VECTOR('',#821,1.);
#256=VECTOR('',#830,1.);
#257=VECTOR('',#833,1.);
#258=VECTOR('',#838,1.);
#259=VECTOR('',#839,1.);
#260=VECTOR('',#844,1.);
#261=VECTOR('',#845,1.);
#262=VECTOR('',#846,1.);
#263=VECTOR('',#847,1.);
#264=VECTOR('',#850,1.);
#265=VECTOR('',#851,1.);
#266=VECTOR('',#852,1.);
#267=VECTOR('',#855,1.);
#268=VECTOR('',#856,1.);
#269=VECTOR('',#865,0.4);
#270=VECTOR('',#874,0.4);
#271=VECTOR('',#883,0.399999999999999);
#272=VECTOR('',#892,0.25);
#273=VECTOR('',#897,0.25);
#274=VECTOR('',#902,0.25);
#275=VECTOR('',#907,0.249999999999999);
#276=VECTOR('',#912,1.);
#277=VECTOR('',#913,1.);
#278=VECTOR('',#916,1.);
#279=VERTEX_POINT('',#921);
#280=VERTEX_POINT('',#922);
#281=VERTEX_POINT('',#924);
#282=VERTEX_POINT('',#926);
#283=VERTEX_POINT('',#930);
#284=VERTEX_POINT('',#932);
#285=VERTEX_POINT('',#936);
#286=VERTEX_POINT('',#938);
#287=VERTEX_POINT('',#945);
#288=VERTEX_POINT('',#946);
#289=VERTEX_POINT('',#948);
#290=VERTEX_POINT('',#950);
#291=VERTEX_POINT('',#954);
#292=VERTEX_POINT('',#956);
#293=VERTEX_POINT('',#960);
#294=VERTEX_POINT('',#962);
#295=VERTEX_POINT('',#969);
#296=VERTEX_POINT('',#970);
#297=VERTEX_POINT('',#972);
#298=VERTEX_POINT('',#974);
#299=VERTEX_POINT('',#978);
#300=VERTEX_POINT('',#980);
#301=VERTEX_POINT('',#984);
#302=VERTEX_POINT('',#986);
#303=VERTEX_POINT('',#993);
#304=VERTEX_POINT('',#994);
#305=VERTEX_POINT('',#996);
#306=VERTEX_POINT('',#998);
#307=VERTEX_POINT('',#1002);
#308=VERTEX_POINT('',#1004);
#309=VERTEX_POINT('',#1008);
#310=VERTEX_POINT('',#1010);
#311=VERTEX_POINT('',#1017);
#312=VERTEX_POINT('',#1018);
#313=VERTEX_POINT('',#1020);
#314=VERTEX_POINT('',#1022);
#315=VERTEX_POINT('',#1026);
#316=VERTEX_POINT('',#1029);
#317=VERTEX_POINT('',#1032);
#318=VERTEX_POINT('',#1034);
#319=VERTEX_POINT('',#1036);
#320=VERTEX_POINT('',#1040);
#321=VERTEX_POINT('',#1042);
#322=VERTEX_POINT('',#1046);
#323=VERTEX_POINT('',#1049);
#324=VERTEX_POINT('',#1051);
#325=VERTEX_POINT('',#1053);
#326=VERTEX_POINT('',#1056);
#327=VERTEX_POINT('',#1060);
#328=VERTEX_POINT('',#1063);
#329=VERTEX_POINT('',#1067);
#330=VERTEX_POINT('',#1070);
#331=VERTEX_POINT('',#1074);
#332=VERTEX_POINT('',#1077);
#333=VERTEX_POINT('',#1081);
#334=VERTEX_POINT('',#1085);
#335=VERTEX_POINT('',#1089);
#336=VERTEX_POINT('',#1093);
#337=EDGE_CURVE('',#279,#280,#169,.T.);
#338=EDGE_CURVE('',#279,#281,#170,.T.);
#339=EDGE_CURVE('',#282,#281,#171,.T.);
#340=EDGE_CURVE('',#280,#282,#172,.T.);
#341=EDGE_CURVE('',#283,#279,#34,.T.);
#342=EDGE_CURVE('',#283,#284,#173,.T.);
#343=EDGE_CURVE('',#281,#284,#35,.T.);
#344=EDGE_CURVE('',#285,#283,#174,.T.);
#345=EDGE_CURVE('',#285,#286,#175,.T.);
#346=EDGE_CURVE('',#284,#286,#176,.T.);
#347=EDGE_CURVE('',#280,#285,#36,.T.);
#348=EDGE_CURVE('',#286,#282,#37,.T.);
#349=EDGE_CURVE('',#287,#288,#177,.T.);
#350=EDGE_CURVE('',#287,#289,#178,.T.);
#351=EDGE_CURVE('',#290,#289,#179,.T.);
#352=EDGE_CURVE('',#288,#290,#180,.T.);
#353=EDGE_CURVE('',#291,#287,#38,.T.);
#354=EDGE_CURVE('',#291,#292,#181,.T.);
#355=EDGE_CURVE('',#289,#292,#39,.T.);
#356=EDGE_CURVE('',#293,#291,#182,.T.);
#357=EDGE_CURVE('',#293,#294,#183,.T.);
#358=EDGE_CURVE('',#292,#294,#184,.T.);
#359=EDGE_CURVE('',#288,#293,#40,.T.);
#360=EDGE_CURVE('',#294,#290,#41,.T.);
#361=EDGE_CURVE('',#295,#296,#185,.T.);
#362=EDGE_CURVE('',#295,#297,#186,.T.);
#363=EDGE_CURVE('',#298,#297,#187,.T.);
#364=EDGE_CURVE('',#296,#298,#188,.T.);
#365=EDGE_CURVE('',#299,#295,#42,.T.);
#366=EDGE_CURVE('',#299,#300,#189,.T.);
#367=EDGE_CURVE('',#297,#300,#43,.T.);
#368=EDGE_CURVE('',#301,#299,#190,.T.);
#369=EDGE_CURVE('',#301,#302,#191,.T.);
#370=EDGE_CURVE('',#300,#302,#192,.T.);
#371=EDGE_CURVE('',#296,#301,#44,.T.);
#372=EDGE_CURVE('',#302,#298,#45,.T.);
#373=EDGE_CURVE('',#303,#304,#193,.T.);
#374=EDGE_CURVE('',#303,#305,#194,.T.);
#375=EDGE_CURVE('',#306,#305,#195,.T.);
#376=EDGE_CURVE('',#304,#306,#196,.T.);
#377=EDGE_CURVE('',#307,#303,#46,.T.);
#378=EDGE_CURVE('',#307,#308,#197,.T.);
#379=EDGE_CURVE('',#305,#308,#47,.T.);
#380=EDGE_CURVE('',#309,#307,#198,.T.);
#381=EDGE_CURVE('',#309,#310,#199,.T.);
#382=EDGE_CURVE('',#308,#310,#200,.T.);
#383=EDGE_CURVE('',#304,#309,#48,.T.);
#384=EDGE_CURVE('',#310,#306,#49,.T.);
#385=EDGE_CURVE('',#311,#312,#201,.T.);
#386=EDGE_CURVE('',#313,#311,#50,.T.);
#387=EDGE_CURVE('',#314,#313,#202,.T.);
#388=EDGE_CURVE('',#314,#312,#51,.T.);
#389=EDGE_CURVE('',#315,#314,#203,.T.);
#390=EDGE_CURVE('',#312,#315,#204,.T.);
#391=EDGE_CURVE('',#316,#316,#52,.T.);
#392=EDGE_CURVE('',#317,#315,#205,.T.);
#393=EDGE_CURVE('',#317,#318,#206,.T.);
#394=EDGE_CURVE('',#318,#319,#207,.T.);
#395=EDGE_CURVE('',#311,#319,#208,.T.);
#396=EDGE_CURVE('',#320,#313,#209,.T.);
#397=EDGE_CURVE('',#321,#320,#210,.T.);
#398=EDGE_CURVE('',#321,#317,#211,.T.);
#399=EDGE_CURVE('',#319,#322,#212,.T.);
#400=EDGE_CURVE('',#322,#320,#213,.T.);
#401=EDGE_CURVE('',#323,#323,#53,.T.);
#402=EDGE_CURVE('',#324,#324,#54,.T.);
#403=EDGE_CURVE('',#325,#325,#55,.T.);
#404=EDGE_CURVE('',#325,#326,#214,.T.);
#405=EDGE_CURVE('',#326,#326,#56,.T.);
#406=EDGE_CURVE('',#327,#327,#57,.T.);
#407=EDGE_CURVE('',#324,#328,#215,.T.);
#408=EDGE_CURVE('',#328,#328,#58,.T.);
#409=EDGE_CURVE('',#329,#329,#59,.T.);
#410=EDGE_CURVE('',#323,#330,#216,.T.);
#411=EDGE_CURVE('',#330,#330,#60,.T.);
#412=EDGE_CURVE('',#331,#331,#61,.T.);
#413=EDGE_CURVE('',#327,#332,#217,.T.);
#414=EDGE_CURVE('',#332,#332,#62,.T.);
#415=EDGE_CURVE('',#316,#333,#218,.T.);
#416=EDGE_CURVE('',#333,#333,#63,.T.);
#417=EDGE_CURVE('',#331,#334,#219,.T.);
#418=EDGE_CURVE('',#334,#334,#64,.T.);
#419=EDGE_CURVE('',#329,#335,#220,.T.);
#420=EDGE_CURVE('',#335,#335,#65,.T.);
#421=EDGE_CURVE('',#336,#321,#221,.T.);
#422=EDGE_CURVE('',#336,#322,#222,.T.);
#423=EDGE_CURVE('',#336,#318,#223,.T.);
#424=ORIENTED_EDGE('',*,*,#337,.F.);
#425=ORIENTED_EDGE('',*,*,#338,.T.);
#426=ORIENTED_EDGE('',*,*,#339,.F.);
#427=ORIENTED_EDGE('',*,*,#340,.F.);
#428=ORIENTED_EDGE('',*,*,#341,.F.);
#429=ORIENTED_EDGE('',*,*,#342,.T.);
#430=ORIENTED_EDGE('',*,*,#343,.F.);
#431=ORIENTED_EDGE('',*,*,#338,.F.);
#432=ORIENTED_EDGE('',*,*,#344,.F.);
#433=ORIENTED_EDGE('',*,*,#345,.T.);
#434=ORIENTED_EDGE('',*,*,#346,.F.);
#435=ORIENTED_EDGE('',*,*,#342,.F.);
#436=ORIENTED_EDGE('',*,*,#347,.F.);
#437=ORIENTED_EDGE('',*,*,#340,.T.);
#438=ORIENTED_EDGE('',*,*,#348,.F.);
#439=ORIENTED_EDGE('',*,*,#345,.F.);
#440=ORIENTED_EDGE('',*,*,#349,.F.);
#441=ORIENTED_EDGE('',*,*,#350,.T.);
#442=ORIENTED_EDGE('',*,*,#351,.F.);
#443=ORIENTED_EDGE('',*,*,#352,.F.);
#444=ORIENTED_EDGE('',*,*,#353,.F.);
#445=ORIENTED_EDGE('',*,*,#354,.T.);
#446=ORIENTED_EDGE('',*,*,#355,.F.);
#447=ORIENTED_EDGE('',*,*,#350,.F.);
#448=ORIENTED_EDGE('',*,*,#356,.F.);
#449=ORIENTED_EDGE('',*,*,#357,.T.);
#450=ORIENTED_EDGE('',*,*,#358,.F.);
#451=ORIENTED_EDGE('',*,*,#354,.F.);
#452=ORIENTED_EDGE('',*,*,#359,.F.);
#453=ORIENTED_EDGE('',*,*,#352,.T.);
#454=ORIENTED_EDGE('',*,*,#360,.F.);
#455=ORIENTED_EDGE('',*,*,#357,.F.);
#456=ORIENTED_EDGE('',*,*,#361,.F.);
#457=ORIENTED_EDGE('',*,*,#362,.T.);
#458=ORIENTED_EDGE('',*,*,#363,.F.);
#459=ORIENTED_EDGE('',*,*,#364,.F.);
#460=ORIENTED_EDGE('',*,*,#365,.F.);
#461=ORIENTED_EDGE('',*,*,#366,.T.);
#462=ORIENTED_EDGE('',*,*,#367,.F.);
#463=ORIENTED_EDGE('',*,*,#362,.F.);
#464=ORIENTED_EDGE('',*,*,#368,.F.);
#465=ORIENTED_EDGE('',*,*,#369,.T.);
#466=ORIENTED_EDGE('',*,*,#370,.F.);
#467=ORIENTED_EDGE('',*,*,#366,.F.);
#468=ORIENTED_EDGE('',*,*,#371,.F.);
#469=ORIENTED_EDGE('',*,*,#364,.T.);
#470=ORIENTED_EDGE('',*,*,#372,.F.);
#471=ORIENTED_EDGE('',*,*,#369,.F.);
#472=ORIENTED_EDGE('',*,*,#373,.F.);
#473=ORIENTED_EDGE('',*,*,#374,.T.);
#474=ORIENTED_EDGE('',*,*,#375,.F.);
#475=ORIENTED_EDGE('',*,*,#376,.F.);
#476=ORIENTED_EDGE('',*,*,#377,.F.);
#477=ORIENTED_EDGE('',*,*,#378,.T.);
#478=ORIENTED_EDGE('',*,*,#379,.F.);
#479=ORIENTED_EDGE('',*,*,#374,.F.);
#480=ORIENTED_EDGE('',*,*,#380,.F.);
#481=ORIENTED_EDGE('',*,*,#381,.T.);
#482=ORIENTED_EDGE('',*,*,#382,.F.);
#483=ORIENTED_EDGE('',*,*,#378,.F.);
#484=ORIENTED_EDGE('',*,*,#383,.F.);
#485=ORIENTED_EDGE('',*,*,#376,.T.);
#486=ORIENTED_EDGE('',*,*,#384,.F.);
#487=ORIENTED_EDGE('',*,*,#381,.F.);
#488=ORIENTED_EDGE('',*,*,#385,.F.);
#489=ORIENTED_EDGE('',*,*,#386,.F.);
#490=ORIENTED_EDGE('',*,*,#387,.F.);
#491=ORIENTED_EDGE('',*,*,#388,.T.);
#492=ORIENTED_EDGE('',*,*,#389,.F.);
#493=ORIENTED_EDGE('',*,*,#390,.F.);
#494=ORIENTED_EDGE('',*,*,#388,.F.);
#495=ORIENTED_EDGE('',*,*,#391,.F.);
#496=ORIENTED_EDGE('',*,*,#390,.T.);
#497=ORIENTED_EDGE('',*,*,#392,.F.);
#498=ORIENTED_EDGE('',*,*,#393,.T.);
#499=ORIENTED_EDGE('',*,*,#394,.T.);
#500=ORIENTED_EDGE('',*,*,#395,.F.);
#501=ORIENTED_EDGE('',*,*,#385,.T.);
#502=ORIENTED_EDGE('',*,*,#387,.T.);
#503=ORIENTED_EDGE('',*,*,#396,.F.);
#504=ORIENTED_EDGE('',*,*,#397,.F.);
#505=ORIENTED_EDGE('',*,*,#398,.T.);
#506=ORIENTED_EDGE('',*,*,#392,.T.);
#507=ORIENTED_EDGE('',*,*,#389,.T.);
#508=ORIENTED_EDGE('',*,*,#386,.T.);
#509=ORIENTED_EDGE('',*,*,#395,.T.);
#510=ORIENTED_EDGE('',*,*,#399,.T.);
#511=ORIENTED_EDGE('',*,*,#400,.T.);
#512=ORIENTED_EDGE('',*,*,#396,.T.);
#513=ORIENTED_EDGE('',*,*,#401,.T.);
#514=ORIENTED_EDGE('',*,*,#402,.T.);
#515=ORIENTED_EDGE('',*,*,#403,.T.);
#516=ORIENTED_EDGE('',*,*,#373,.T.);
#517=ORIENTED_EDGE('',*,*,#383,.T.);
#518=ORIENTED_EDGE('',*,*,#380,.T.);
#519=ORIENTED_EDGE('',*,*,#377,.T.);
#520=ORIENTED_EDGE('',*,*,#361,.T.);
#521=ORIENTED_EDGE('',*,*,#371,.T.);
#522=ORIENTED_EDGE('',*,*,#368,.T.);
#523=ORIENTED_EDGE('',*,*,#365,.T.);
#524=ORIENTED_EDGE('',*,*,#349,.T.);
#525=ORIENTED_EDGE('',*,*,#359,.T.);
#526=ORIENTED_EDGE('',*,*,#356,.T.);
#527=ORIENTED_EDGE('',*,*,#353,.T.);
#528=ORIENTED_EDGE('',*,*,#337,.T.);
#529=ORIENTED_EDGE('',*,*,#347,.T.);
#530=ORIENTED_EDGE('',*,*,#344,.T.);
#531=ORIENTED_EDGE('',*,*,#341,.T.);
#532=ORIENTED_EDGE('',*,*,#403,.F.);
#533=ORIENTED_EDGE('',*,*,#404,.T.);
#534=ORIENTED_EDGE('',*,*,#405,.T.);
#535=ORIENTED_EDGE('',*,*,#404,.F.);
#536=ORIENTED_EDGE('',*,*,#405,.F.);
#537=ORIENTED_EDGE('',*,*,#406,.F.);
#538=ORIENTED_EDGE('',*,*,#402,.F.);
#539=ORIENTED_EDGE('',*,*,#407,.T.);
#540=ORIENTED_EDGE('',*,*,#408,.T.);
#541=ORIENTED_EDGE('',*,*,#407,.F.);
#542=ORIENTED_EDGE('',*,*,#408,.F.);
#543=ORIENTED_EDGE('',*,*,#409,.F.);
#544=ORIENTED_EDGE('',*,*,#401,.F.);
#545=ORIENTED_EDGE('',*,*,#410,.T.);
#546=ORIENTED_EDGE('',*,*,#411,.T.);
#547=ORIENTED_EDGE('',*,*,#410,.F.);
#548=ORIENTED_EDGE('',*,*,#411,.F.);
#549=ORIENTED_EDGE('',*,*,#412,.F.);
#550=ORIENTED_EDGE('',*,*,#406,.T.);
#551=ORIENTED_EDGE('',*,*,#413,.T.);
#552=ORIENTED_EDGE('',*,*,#414,.T.);
#553=ORIENTED_EDGE('',*,*,#413,.F.);
#554=ORIENTED_EDGE('',*,*,#391,.T.);
#555=ORIENTED_EDGE('',*,*,#415,.T.);
#556=ORIENTED_EDGE('',*,*,#416,.T.);
#557=ORIENTED_EDGE('',*,*,#415,.F.);
#558=ORIENTED_EDGE('',*,*,#412,.T.);
#559=ORIENTED_EDGE('',*,*,#417,.T.);
#560=ORIENTED_EDGE('',*,*,#418,.T.);
#561=ORIENTED_EDGE('',*,*,#417,.F.);
#562=ORIENTED_EDGE('',*,*,#409,.T.);
#563=ORIENTED_EDGE('',*,*,#419,.T.);
#564=ORIENTED_EDGE('',*,*,#420,.T.);
#565=ORIENTED_EDGE('',*,*,#419,.F.);
#566=ORIENTED_EDGE('',*,*,#421,.T.);
#567=ORIENTED_EDGE('',*,*,#397,.T.);
#568=ORIENTED_EDGE('',*,*,#400,.F.);
#569=ORIENTED_EDGE('',*,*,#422,.F.);
#570=ORIENTED_EDGE('',*,*,#423,.F.);
#571=ORIENTED_EDGE('',*,*,#422,.T.);
#572=ORIENTED_EDGE('',*,*,#399,.F.);
#573=ORIENTED_EDGE('',*,*,#394,.F.);
#574=ORIENTED_EDGE('',*,*,#398,.F.);
#575=ORIENTED_EDGE('',*,*,#421,.F.);
#576=ORIENTED_EDGE('',*,*,#423,.T.);
#577=ORIENTED_EDGE('',*,*,#393,.F.);
#578=ORIENTED_EDGE('',*,*,#414,.F.);
#579=ORIENTED_EDGE('',*,*,#416,.F.);
#580=ORIENTED_EDGE('',*,*,#418,.F.);
#581=ORIENTED_EDGE('',*,*,#420,.F.);
#582=ORIENTED_EDGE('',*,*,#375,.T.);
#583=ORIENTED_EDGE('',*,*,#379,.T.);
#584=ORIENTED_EDGE('',*,*,#382,.T.);
#585=ORIENTED_EDGE('',*,*,#384,.T.);
#586=ORIENTED_EDGE('',*,*,#363,.T.);
#587=ORIENTED_EDGE('',*,*,#367,.T.);
#588=ORIENTED_EDGE('',*,*,#370,.T.);
#589=ORIENTED_EDGE('',*,*,#372,.T.);
#590=ORIENTED_EDGE('',*,*,#351,.T.);
#591=ORIENTED_EDGE('',*,*,#355,.T.);
#592=ORIENTED_EDGE('',*,*,#358,.T.);
#593=ORIENTED_EDGE('',*,*,#360,.T.);
#594=ORIENTED_EDGE('',*,*,#339,.T.);
#595=ORIENTED_EDGE('',*,*,#343,.T.);
#596=ORIENTED_EDGE('',*,*,#346,.T.);
#597=ORIENTED_EDGE('',*,*,#348,.T.);
#598=PLANE('',#664);
#599=PLANE('',#668);
#600=PLANE('',#672);
#601=PLANE('',#676);
#602=PLANE('',#680);
#603=PLANE('',#684);
#604=PLANE('',#688);
#605=PLANE('',#692);
#606=PLANE('',#699);
#607=PLANE('',#701);
#608=PLANE('',#702);
#609=PLANE('',#703);
#610=PLANE('',#709);
#611=PLANE('',#713);
#612=PLANE('',#717);
#613=PLANE('',#727);
#614=PLANE('',#728);
#615=PLANE('',#729);
#616=ADVANCED_FACE('',(#82),#598,.F.);
#617=ADVANCED_FACE('',(#83),#66,.F.);
#618=ADVANCED_FACE('',(#84),#599,.F.);
#619=ADVANCED_FACE('',(#85),#67,.F.);
#620=ADVANCED_FACE('',(#86),#600,.F.);
#621=ADVANCED_FACE('',(#87),#68,.F.);
#622=ADVANCED_FACE('',(#88),#601,.F.);
#623=ADVANCED_FACE('',(#89),#69,.F.);
#624=ADVANCED_FACE('',(#90),#602,.F.);
#625=ADVANCED_FACE('',(#91),#70,.F.);
#626=ADVANCED_FACE('',(#92),#603,.F.);
#627=ADVANCED_FACE('',(#93),#71,.F.);
#628=ADVANCED_FACE('',(#94),#604,.F.);
#629=ADVANCED_FACE('',(#95),#72,.F.);
#630=ADVANCED_FACE('',(#96),#605,.F.);
#631=ADVANCED_FACE('',(#97),#73,.F.);
#632=ADVANCED_FACE('',(#98),#74,.F.);
#633=ADVANCED_FACE('',(#99,#15),#606,.T.);
#634=ADVANCED_FACE('',(#100),#607,.T.);
#635=ADVANCED_FACE('',(#101),#608,.T.);
#636=ADVANCED_FACE('',(#102,#16,#17,#18,#19,#20,#21,#22),#609,.T.);
#637=ADVANCED_FACE('',(#103),#75,.F.);
#638=ADVANCED_FACE('',(#104,#23),#610,.T.);
#639=ADVANCED_FACE('',(#105),#76,.F.);
#640=ADVANCED_FACE('',(#106,#24),#611,.T.);
#641=ADVANCED_FACE('',(#107),#77,.F.);
#642=ADVANCED_FACE('',(#108,#25),#612,.T.);
#643=ADVANCED_FACE('',(#109),#78,.F.);
#644=ADVANCED_FACE('',(#110),#79,.F.);
#645=ADVANCED_FACE('',(#111),#80,.F.);
#646=ADVANCED_FACE('',(#112),#81,.F.);
#647=ADVANCED_FACE('',(#113),#613,.T.);
#648=ADVANCED_FACE('',(#114),#614,.T.);
#649=ADVANCED_FACE('',(#115,#26,#27,#28,#29,#30,#31,#32,#33),#615,.F.);
#650=CLOSED_SHELL('',(#616,#617,#618,#619,#620,#621,#622,#623,#624,#625,
#626,#627,#628,#629,#630,#631,#632,#633,#634,#635,#636,#637,#638,#639,#640,
#641,#642,#643,#644,#645,#646,#647,#648,#649));
#651=DERIVED_UNIT_ELEMENT(#653,1.);
#652=DERIVED_UNIT_ELEMENT(#1104,-3.);
#653=(
MASS_UNIT()
NAMED_UNIT(*)
SI_UNIT(.KILO.,.GRAM.)
);
#654=DERIVED_UNIT((#651,#652));
#655=MEASURE_REPRESENTATION_ITEM('density measure',
POSITIVE_RATIO_MEASURE(1060.),#654);
#656=PROPERTY_DEFINITION_REPRESENTATION(#661,#658);
#657=PROPERTY_DEFINITION_REPRESENTATION(#662,#659);
#658=REPRESENTATION('material name',(#660),#1101);
#659=REPRESENTATION('density',(#655),#1101);
#660=DESCRIPTIVE_REPRESENTATION_ITEM('ABS \X2\D50CB77CC2A4D2F1\X0\',
'ABS \X2\D50CB77CC2A4D2F1\X0\');
#661=PROPERTY_DEFINITION('material property','material name',#1111);
#662=PROPERTY_DEFINITION('material property','density of part',#1111);
#663=AXIS2_PLACEMENT_3D('',#919,#730,#731);
#664=AXIS2_PLACEMENT_3D('',#920,#732,#733);
#665=AXIS2_PLACEMENT_3D('',#929,#738,#739);
#666=AXIS2_PLACEMENT_3D('',#931,#740,#741);
#667=AXIS2_PLACEMENT_3D('',#934,#743,#744);
#668=AXIS2_PLACEMENT_3D('',#935,#745,#746);
#669=AXIS2_PLACEMENT_3D('',#941,#750,#751);
#670=AXIS2_PLACEMENT_3D('',#942,#752,#753);
#671=AXIS2_PLACEMENT_3D('',#943,#754,#755);
#672=AXIS2_PLACEMENT_3D('',#944,#756,#757);
#673=AXIS2_PLACEMENT_3D('',#953,#762,#763);
#674=AXIS2_PLACEMENT_3D('',#955,#764,#765);
#675=AXIS2_PLACEMENT_3D('',#958,#767,#768);
#676=AXIS2_PLACEMENT_3D('',#959,#769,#770);
#677=AXIS2_PLACEMENT_3D('',#965,#774,#775);
#678=AXIS2_PLACEMENT_3D('',#966,#776,#777);
#679=AXIS2_PLACEMENT_3D('',#967,#778,#779);
#680=AXIS2_PLACEMENT_3D('',#968,#780,#781);
#681=AXIS2_PLACEMENT_3D('',#977,#786,#787);
#682=AXIS2_PLACEMENT_3D('',#979,#788,#789);
#683=AXIS2_PLACEMENT_3D('',#982,#791,#792);
#684=AXIS2_PLACEMENT_3D('',#983,#793,#794);
#685=AXIS2_PLACEMENT_3D('',#989,#798,#799);
#686=AXIS2_PLACEMENT_3D('',#990,#800,#801);
#687=AXIS2_PLACEMENT_3D('',#991,#802,#803);
#688=AXIS2_PLACEMENT_3D('',#992,#804,#805);
#689=AXIS2_PLACEMENT_3D('',#1001,#810,#811);
#690=AXIS2_PLACEMENT_3D('',#1003,#812,#813);
#691=AXIS2_PLACEMENT_3D('',#1006,#815,#816);
#692=AXIS2_PLACEMENT_3D('',#1007,#817,#818);
#693=AXIS2_PLACEMENT_3D('',#1013,#822,#823);
#694=AXIS2_PLACEMENT_3D('',#1014,#824,#825);
#695=AXIS2_PLACEMENT_3D('',#1015,#826,#827);
#696=AXIS2_PLACEMENT_3D('',#1016,#828,#829);
#697=AXIS2_PLACEMENT_3D('',#1021,#831,#832);
#698=AXIS2_PLACEMENT_3D('',#1024,#834,#835);
#699=AXIS2_PLACEMENT_3D('',#1025,#836,#837);
#700=AXIS2_PLACEMENT_3D('',#1030,#840,#841);
#701=AXIS2_PLACEMENT_3D('',#1031,#842,#843);
#702=AXIS2_PLACEMENT_3D('',#1039,#848,#849);
#703=AXIS2_PLACEMENT_3D('',#1045,#853,#854);
#704=AXIS2_PLACEMENT_3D('',#1050,#857,#858);
#705=AXIS2_PLACEMENT_3D('',#1052,#859,#860);
#706=AXIS2_PLACEMENT_3D('',#1054,#861,#862);
#707=AXIS2_PLACEMENT_3D('',#1055,#863,#864);
#708=AXIS2_PLACEMENT_3D('',#1058,#866,#867);
#709=AXIS2_PLACEMENT_3D('',#1059,#868,#869);
#710=AXIS2_PLACEMENT_3D('',#1061,#870,#871);
#711=AXIS2_PLACEMENT_3D('',#1062,#872,#873);
#712=AXIS2_PLACEMENT_3D('',#1065,#875,#876);
#713=AXIS2_PLACEMENT_3D('',#1066,#877,#878);
#714=AXIS2_PLACEMENT_3D('',#1068,#879,#880);
#715=AXIS2_PLACEMENT_3D('',#1069,#881,#882);
#716=AXIS2_PLACEMENT_3D('',#1072,#884,#885);
#717=AXIS2_PLACEMENT_3D('',#1073,#886,#887);
#718=AXIS2_PLACEMENT_3D('',#1075,#888,#889);
#719=AXIS2_PLACEMENT_3D('',#1076,#890,#891);
#720=AXIS2_PLACEMENT_3D('',#1079,#893,#894);
#721=AXIS2_PLACEMENT_3D('',#1080,#895,#896);
#722=AXIS2_PLACEMENT_3D('',#1083,#898,#899);
#723=AXIS2_PLACEMENT_3D('',#1084,#900,#901);
#724=AXIS2_PLACEMENT_3D('',#1087,#903,#904);
#725=AXIS2_PLACEMENT_3D('',#1088,#905,#906);
#726=AXIS2_PLACEMENT_3D('',#1091,#908,#909);
#727=AXIS2_PLACEMENT_3D('',#1092,#910,#911);
#728=AXIS2_PLACEMENT_3D('',#1096,#914,#915);
#729=AXIS2_PLACEMENT_3D('',#1098,#917,#918);
#730=DIRECTION('axis',(0.,0.,1.));
#731=DIRECTION('refdir',(1.,0.,0.));
#732=DIRECTION('center_axis',(1.,0.,0.));
#733=DIRECTION('ref_axis',(0.,-1.,0.));
#734=DIRECTION('',(0.,-1.,0.));
#735=DIRECTION('',(0.,0.,-1.));
#736=DIRECTION('',(0.,1.,0.));
#737=DIRECTION('',(0.,0.,-1.));
#738=DIRECTION('center_axis',(0.,0.,-1.));
#739=DIRECTION('ref_axis',(1.,0.,0.));
#740=DIRECTION('center_axis',(0.,0.,-1.));
#741=DIRECTION('ref_axis',(1.,0.,0.));
#742=DIRECTION('',(0.,0.,-1.));
#743=DIRECTION('center_axis',(0.,0.,1.));
#744=DIRECTION('ref_axis',(1.,0.,0.));
#745=DIRECTION('center_axis',(-1.,0.,0.));
#746=DIRECTION('ref_axis',(0.,1.,0.));
#747=DIRECTION('',(0.,1.,0.));
#748=DIRECTION('',(0.,0.,-1.));
#749=DIRECTION('',(0.,-1.,0.));
#750=DIRECTION('center_axis',(0.,0.,-1.));
#751=DIRECTION('ref_axis',(-1.,0.,0.));
#752=DIRECTION('center_axis',(0.,0.,-1.));
#753=DIRECTION('ref_axis',(-1.,0.,0.));
#754=DIRECTION('center_axis',(0.,0.,1.));
#755=DIRECTION('ref_axis',(-1.,0.,0.));
#756=DIRECTION('center_axis',(1.,0.,0.));
#757=DIRECTION('ref_axis',(0.,-1.,0.));
#758=DIRECTION('',(0.,-1.,0.));
#759=DIRECTION('',(0.,0.,-1.));
#760=DIRECTION('',(0.,1.,0.));
#761=DIRECTION('',(0.,0.,-1.));
#762=DIRECTION('center_axis',(0.,0.,-1.));
#763=DIRECTION('ref_axis',(1.,0.,0.));
#764=DIRECTION('center_axis',(0.,0.,-1.));
#765=DIRECTION('ref_axis',(1.,0.,0.));
#766=DIRECTION('',(0.,0.,-1.));
#767=DIRECTION('center_axis',(0.,0.,1.));
#768=DIRECTION('ref_axis',(1.,0.,0.));
#769=DIRECTION('center_axis',(-1.,0.,0.));
#770=DIRECTION('ref_axis',(0.,1.,0.));
#771=DIRECTION('',(0.,1.,0.));
#772=DIRECTION('',(0.,0.,-1.));
#773=DIRECTION('',(0.,-1.,0.));
#774=DIRECTION('center_axis',(0.,0.,-1.));
#775=DIRECTION('ref_axis',(-1.,0.,0.));
#776=DIRECTION('center_axis',(0.,0.,-1.));
#777=DIRECTION('ref_axis',(-1.,0.,0.));
#778=DIRECTION('center_axis',(0.,0.,1.));
#779=DIRECTION('ref_axis',(-1.,0.,0.));
#780=DIRECTION('center_axis',(1.,0.,0.));
#781=DIRECTION('ref_axis',(0.,-1.,0.));
#782=DIRECTION('',(0.,-1.,0.));
#783=DIRECTION('',(0.,0.,-1.));
#784=DIRECTION('',(0.,1.,0.));
#785=DIRECTION('',(0.,0.,-1.));
#786=DIRECTION('center_axis',(0.,0.,-1.));
#787=DIRECTION('ref_axis',(1.,0.,0.));
#788=DIRECTION('center_axis',(0.,0.,-1.));
#789=DIRECTION('ref_axis',(1.,0.,0.));
#790=DIRECTION('',(0.,0.,-1.));
#791=DIRECTION('center_axis',(0.,0.,1.));
#792=DIRECTION('ref_axis',(1.,0.,0.));
#793=DIRECTION('center_axis',(-1.,0.,0.));
#794=DIRECTION('ref_axis',(0.,1.,0.));
#795=DIRECTION('',(0.,1.,0.));
#796=DIRECTION('',(0.,0.,-1.));
#797=DIRECTION('',(0.,-1.,0.));
#798=DIRECTION('center_axis',(0.,0.,-1.));
#799=DIRECTION('ref_axis',(-1.,0.,0.));
#800=DIRECTION('center_axis',(0.,0.,-1.));
#801=DIRECTION('ref_axis',(-1.,0.,0.));
#802=DIRECTION('center_axis',(0.,0.,1.));
#803=DIRECTION('ref_axis',(-1.,0.,0.));
#804=DIRECTION('center_axis',(-1.,0.,0.));
#805=DIRECTION('ref_axis',(0.,1.,0.));
#806=DIRECTION('',(0.,1.,0.));
#807=DIRECTION('',(0.,0.,-1.));
#808=DIRECTION('',(0.,-1.,0.));
#809=DIRECTION('',(0.,0.,-1.));
#810=DIRECTION('center_axis',(0.,0.,-1.));
#811=DIRECTION('ref_axis',(-1.,0.,0.));
#812=DIRECTION('center_axis',(0.,0.,-1.));
#813=DIRECTION('ref_axis',(-1.,0.,0.));
#814=DIRECTION('',(0.,0.,-1.));
#815=DIRECTION('center_axis',(0.,0.,1.));
#816=DIRECTION('ref_axis',(-1.,0.,0.));
#817=DIRECTION('center_axis',(1.,0.,0.));
#818=DIRECTION('ref_axis',(0.,-1.,0.));
#819=DIRECTION('',(0.,-1.,0.));
#820=DIRECTION('',(0.,0.,-1.));
#821=DIRECTION('',(0.,1.,0.));
#822=DIRECTION('center_axis',(0.,0.,-1.));
#823=DIRECTION('ref_axis',(1.,0.,0.));
#824=DIRECTION('center_axis',(0.,0.,-1.));
#825=DIRECTION('ref_axis',(1.,0.,0.));
#826=DIRECTION('center_axis',(0.,0.,1.));
#827=DIRECTION('ref_axis',(1.,0.,0.));
#828=DIRECTION('center_axis',(0.,0.,-1.));
#829=DIRECTION('ref_axis',(-1.,0.,0.));
#830=DIRECTION('',(0.,0.,-1.));
#831=DIRECTION('center_axis',(0.,0.,-1.));
#832=DIRECTION('ref_axis',(-1.,0.,0.));
#833=DIRECTION('',(0.,0.,1.));
#834=DIRECTION('center_axis',(0.,0.,-1.));
#835=DIRECTION('ref_axis',(-1.,0.,0.));
#836=DIRECTION('center_axis',(0.,0.,1.));
#837=DIRECTION('ref_axis',(1.,0.,0.));
#838=DIRECTION('',(-1.,0.,0.));
#839=DIRECTION('',(0.,-1.,0.));
#840=DIRECTION('center_axis',(0.,0.,1.));
#841=DIRECTION('ref_axis',(1.,0.,0.));
#842=DIRECTION('center_axis',(1.,0.,0.));
#843=DIRECTION('ref_axis',(0.,1.,0.));
#844=DIRECTION('',(0.,0.,1.));
#845=DIRECTION('',(0.,1.,0.));
#846=DIRECTION('',(0.,0.,1.));
#847=DIRECTION('',(0.,1.,0.));
#848=DIRECTION('center_axis',(0.,-1.,0.));
#849=DIRECTION('ref_axis',(1.,0.,0.));
#850=DIRECTION('',(1.,0.,0.));
#851=DIRECTION('',(0.,0.,1.));
#852=DIRECTION('',(1.,0.,0.));
#853=DIRECTION('center_axis',(0.,0.,1.));
#854=DIRECTION('ref_axis',(1.,0.,0.));
#855=DIRECTION('',(-1.,0.,0.));
#856=DIRECTION('',(0.,-1.,0.));
#857=DIRECTION('center_axis',(0.,0.,-1.));
#858=DIRECTION('ref_axis',(-1.,0.,0.));
#859=DIRECTION('center_axis',(0.,0.,-1.));
#860=DIRECTION('ref_axis',(-1.,0.,0.));
#861=DIRECTION('center_axis',(0.,0.,-1.));
#862=DIRECTION('ref_axis',(-1.,0.,0.));
#863=DIRECTION('center_axis',(0.,0.,-1.));
#864=DIRECTION('ref_axis',(-1.,0.,0.));
#865=DIRECTION('',(0.,0.,-1.));
#866=DIRECTION('center_axis',(0.,0.,-1.));
#867=DIRECTION('ref_axis',(-1.,0.,0.));
#868=DIRECTION('center_axis',(0.,0.,1.));
#869=DIRECTION('ref_axis',(-1.,0.,0.));
#870=DIRECTION('center_axis',(0.,0.,1.));
#871=DIRECTION('ref_axis',(1.,0.,0.));
#872=DIRECTION('center_axis',(0.,0.,-1.));
#873=DIRECTION('ref_axis',(-1.,0.,0.));
#874=DIRECTION('',(0.,0.,-1.));
#875=DIRECTION('center_axis',(0.,0.,-1.));
#876=DIRECTION('ref_axis',(-1.,0.,0.));
#877=DIRECTION('center_axis',(0.,0.,1.));
#878=DIRECTION('ref_axis',(-1.,0.,0.));
#879=DIRECTION('center_axis',(0.,0.,1.));
#880=DIRECTION('ref_axis',(1.,0.,0.));
#881=DIRECTION('center_axis',(0.,0.,-1.));
#882=DIRECTION('ref_axis',(-1.,0.,0.));
#883=DIRECTION('',(0.,0.,-1.));
#884=DIRECTION('center_axis',(0.,0.,-1.));
#885=DIRECTION('ref_axis',(-1.,0.,0.));
#886=DIRECTION('center_axis',(0.,0.,1.));
#887=DIRECTION('ref_axis',(-1.,0.,0.));
#888=DIRECTION('center_axis',(0.,0.,1.));
#889=DIRECTION('ref_axis',(1.,0.,0.));
#890=DIRECTION('center_axis',(0.,0.,1.));
#891=DIRECTION('ref_axis',(1.,0.,0.));
#892=DIRECTION('',(0.,0.,-1.));
#893=DIRECTION('center_axis',(0.,0.,-1.));
#894=DIRECTION('ref_axis',(1.,0.,0.));
#895=DIRECTION('center_axis',(0.,0.,1.));
#896=DIRECTION('ref_axis',(1.,0.,0.));
#897=DIRECTION('',(0.,0.,-1.));
#898=DIRECTION('center_axis',(0.,0.,-1.));
#899=DIRECTION('ref_axis',(1.,0.,0.));
#900=DIRECTION('center_axis',(0.,0.,1.));
#901=DIRECTION('ref_axis',(1.,0.,0.));
#902=DIRECTION('',(0.,0.,-1.));
#903=DIRECTION('center_axis',(0.,0.,-1.));
#904=DIRECTION('ref_axis',(1.,0.,0.));
#905=DIRECTION('center_axis',(0.,0.,1.));
#906=DIRECTION('ref_axis',(1.,0.,0.));
#907=DIRECTION('',(0.,0.,-1.));
#908=DIRECTION('center_axis',(0.,0.,-1.));
#909=DIRECTION('ref_axis',(1.,0.,0.));
#910=DIRECTION('center_axis',(-1.,0.,0.));
#911=DIRECTION('ref_axis',(0.,-1.,0.));
#912=DIRECTION('',(0.,-1.,0.));
#913=DIRECTION('',(0.,0.,1.));
#914=DIRECTION('center_axis',(0.,1.,0.));
#915=DIRECTION('ref_axis',(-1.,0.,0.));
#916=DIRECTION('',(1.,0.,0.));
#917=DIRECTION('center_axis',(0.,0.,1.));
#918=DIRECTION('ref_axis',(1.,0.,0.));
#919=CARTESIAN_POINT('',(0.,0.,0.));
#920=CARTESIAN_POINT('Origin',(14.,12.,1.));
#921=CARTESIAN_POINT('',(14.,12.,1.));
#922=CARTESIAN_POINT('',(14.,1.,1.));
#923=CARTESIAN_POINT('',(14.,11.6875,1.));
#924=CARTESIAN_POINT('',(14.,12.,0.));
#925=CARTESIAN_POINT('',(14.,12.,1.));
#926=CARTESIAN_POINT('',(14.,1.,0.));
#927=CARTESIAN_POINT('',(14.,11.6875,0.));
#928=CARTESIAN_POINT('',(14.,1.,1.));
#929=CARTESIAN_POINT('Origin',(13.75,12.,1.));
#930=CARTESIAN_POINT('',(13.5,12.,1.));
#931=CARTESIAN_POINT('Origin',(13.75,12.,1.));
#932=CARTESIAN_POINT('',(13.5,12.,0.));
#933=CARTESIAN_POINT('',(13.5,12.,1.));
#934=CARTESIAN_POINT('Origin',(13.75,12.,0.));
#935=CARTESIAN_POINT('Origin',(13.5,1.,1.));
#936=CARTESIAN_POINT('',(13.5,1.,1.));
#937=CARTESIAN_POINT('',(13.5,6.1875,1.));
#938=CARTESIAN_POINT('',(13.5,1.,0.));
#939=CARTESIAN_POINT('',(13.5,1.,1.));
#940=CARTESIAN_POINT('',(13.5,6.1875,0.));
#941=CARTESIAN_POINT('Origin',(13.75,1.,1.));
#942=CARTESIAN_POINT('Origin',(13.75,1.,1.));
#943=CARTESIAN_POINT('Origin',(13.75,1.,0.));
#944=CARTESIAN_POINT('Origin',(15.,12.,1.));
#945=CARTESIAN_POINT('',(15.,12.,1.));
#946=CARTESIAN_POINT('',(15.,1.,1.));
#947=CARTESIAN_POINT('',(15.,11.6875,1.));
#948=CARTESIAN_POINT('',(15.,12.,0.));
#949=CARTESIAN_POINT('',(15.,12.,1.));
#950=CARTESIAN_POINT('',(15.,1.,0.));
#951=CARTESIAN_POINT('',(15.,11.6875,0.));
#952=CARTESIAN_POINT('',(15.,1.,1.));
#953=CARTESIAN_POINT('Origin',(14.75,12.,1.));
#954=CARTESIAN_POINT('',(14.5,12.,1.));
#955=CARTESIAN_POINT('Origin',(14.75,12.,1.));
#956=CARTESIAN_POINT('',(14.5,12.,0.));
#957=CARTESIAN_POINT('',(14.5,12.,1.));
#958=CARTESIAN_POINT('Origin',(14.75,12.,0.));
#959=CARTESIAN_POINT('Origin',(14.5,1.,1.));
#960=CARTESIAN_POINT('',(14.5,1.,1.));
#961=CARTESIAN_POINT('',(14.5,6.1875,1.));
#962=CARTESIAN_POINT('',(14.5,1.,0.));
#963=CARTESIAN_POINT('',(14.5,1.,1.));
#964=CARTESIAN_POINT('',(14.5,6.1875,0.));
#965=CARTESIAN_POINT('Origin',(14.75,1.,1.));
#966=CARTESIAN_POINT('Origin',(14.75,1.,1.));
#967=CARTESIAN_POINT('Origin',(14.75,1.,0.));
#968=CARTESIAN_POINT('Origin',(13.,12.,1.));
#969=CARTESIAN_POINT('',(13.,12.,1.));
#970=CARTESIAN_POINT('',(13.,1.,1.));
#971=CARTESIAN_POINT('',(13.,11.6875,1.));
#972=CARTESIAN_POINT('',(13.,12.,0.));
#973=CARTESIAN_POINT('',(13.,12.,1.));
#974=CARTESIAN_POINT('',(13.,1.,0.));
#975=CARTESIAN_POINT('',(13.,11.6875,0.));
#976=CARTESIAN_POINT('',(13.,1.,1.));
#977=CARTESIAN_POINT('Origin',(12.75,12.,1.));
#978=CARTESIAN_POINT('',(12.5,12.,1.));
#979=CARTESIAN_POINT('Origin',(12.75,12.,1.));
#980=CARTESIAN_POINT('',(12.5,12.,0.));
#981=CARTESIAN_POINT('',(12.5,12.,1.));
#982=CARTESIAN_POINT('Origin',(12.75,12.,0.));
#983=CARTESIAN_POINT('Origin',(12.5,1.,1.));
#984=CARTESIAN_POINT('',(12.5,1.,1.));
#985=CARTESIAN_POINT('',(12.5,6.1875,1.));
#986=CARTESIAN_POINT('',(12.5,1.,0.));
#987=CARTESIAN_POINT('',(12.5,1.,1.));
#988=CARTESIAN_POINT('',(12.5,6.1875,0.));
#989=CARTESIAN_POINT('Origin',(12.75,1.,1.));
#990=CARTESIAN_POINT('Origin',(12.75,1.,1.));
#991=CARTESIAN_POINT('Origin',(12.75,1.,0.));
#992=CARTESIAN_POINT('Origin',(15.5,5.,1.));
#993=CARTESIAN_POINT('',(15.5,5.,1.));
#994=CARTESIAN_POINT('',(15.5,12.,1.));
#995=CARTESIAN_POINT('',(15.5,8.1875,1.));
#996=CARTESIAN_POINT('',(15.5,5.,0.));
#997=CARTESIAN_POINT('',(15.5,5.,1.));
#998=CARTESIAN_POINT('',(15.5,12.,0.));
#999=CARTESIAN_POINT('',(15.5,8.1875,0.));
#1000=CARTESIAN_POINT('',(15.5,12.,1.));
#1001=CARTESIAN_POINT('Origin',(15.75,5.,1.));
#1002=CARTESIAN_POINT('',(16.,5.,1.));
#1003=CARTESIAN_POINT('Origin',(15.75,5.,1.));
#1004=CARTESIAN_POINT('',(16.,5.,0.));
#1005=CARTESIAN_POINT('',(16.,5.,1.));
#1006=CARTESIAN_POINT('Origin',(15.75,5.,0.));
#1007=CARTESIAN_POINT('Origin',(16.,12.,1.));
#1008=CARTESIAN_POINT('',(16.,12.,1.));
#1009=CARTESIAN_POINT('',(16.,11.6875,1.));
#1010=CARTESIAN_POINT('',(16.,12.,0.));
#1011=CARTESIAN_POINT('',(16.,12.,1.));
#1012=CARTESIAN_POINT('',(16.,11.6875,0.));
#1013=CARTESIAN_POINT('Origin',(15.75,12.,1.));
#1014=CARTESIAN_POINT('Origin',(15.75,12.,1.));
#1015=CARTESIAN_POINT('Origin',(15.75,12.,0.));
#1016=CARTESIAN_POINT('Origin',(25.0605618804245,0.,6.));
#1017=CARTESIAN_POINT('',(21.,8.58847118032329,1.));
#1018=CARTESIAN_POINT('',(21.,8.58847118032329,0.3));
#1019=CARTESIAN_POINT('',(21.,8.58847118032329,6.));
#1020=CARTESIAN_POINT('',(15.5605618804245,0.,1.));
#1021=CARTESIAN_POINT('Origin',(25.0605618804245,0.,1.));
#1022=CARTESIAN_POINT('',(15.5605618804245,0.,0.3));
#1023=CARTESIAN_POINT('',(15.5605618804245,0.,6.));
#1024=CARTESIAN_POINT('Origin',(25.0605618804245,0.,0.3));
#1025=CARTESIAN_POINT('Origin',(10.5,11.375,0.3));
#1026=CARTESIAN_POINT('',(21.,0.,0.3));
#1027=CARTESIAN_POINT('',(9.6305029823407,0.,0.3));
#1028=CARTESIAN_POINT('',(21.,2.29178519583952,0.3));
#1029=CARTESIAN_POINT('',(19.25,1.5,0.3));
#1030=CARTESIAN_POINT('Origin',(19.5,1.5,0.3));
#1031=CARTESIAN_POINT('Origin',(21.,0.,0.));
#1032=CARTESIAN_POINT('',(21.,0.,0.));
#1033=CARTESIAN_POINT('',(21.,0.,0.));
#1034=CARTESIAN_POINT('',(21.,22.75,0.));
#1035=CARTESIAN_POINT('',(21.,0.,0.));
#1036=CARTESIAN_POINT('',(21.,22.75,1.));
#1037=CARTESIAN_POINT('',(21.,22.75,0.));
#1038=CARTESIAN_POINT('',(21.,0.,1.));
#1039=CARTESIAN_POINT('Origin',(0.,0.,0.));
#1040=CARTESIAN_POINT('',(0.,0.,1.));
#1041=CARTESIAN_POINT('',(0.,0.,1.));
#1042=CARTESIAN_POINT('',(0.,0.,0.));
#1043=CARTESIAN_POINT('',(0.,0.,0.));
#1044=CARTESIAN_POINT('',(0.,0.,0.));
#1045=CARTESIAN_POINT('Origin',(10.5,11.375,1.));
#1046=CARTESIAN_POINT('',(0.,22.75,1.));
#1047=CARTESIAN_POINT('',(0.,22.75,1.));
#1048=CARTESIAN_POINT('',(0.,45.5,1.));
#1049=CARTESIAN_POINT('',(19.9,21.25,1.));
#1050=CARTESIAN_POINT('Origin',(19.5,21.25,1.));
#1051=CARTESIAN_POINT('',(1.9,21.25,1.));
#1052=CARTESIAN_POINT('Origin',(1.5,21.25,1.));
#1053=CARTESIAN_POINT('',(1.9,1.5,1.));
#1054=CARTESIAN_POINT('Origin',(1.5,1.5,1.));
#1055=CARTESIAN_POINT('Origin',(1.5,1.5,1.));
#1056=CARTESIAN_POINT('',(1.9,1.5,0.5));
#1057=CARTESIAN_POINT('',(1.9,1.5,1.));
#1058=CARTESIAN_POINT('Origin',(1.5,1.5,0.5));
#1059=CARTESIAN_POINT('Origin',(1.5,1.5,0.5));
#1060=CARTESIAN_POINT('',(1.25,1.5,0.5));
#1061=CARTESIAN_POINT('Origin',(1.5,1.5,0.5));
#1062=CARTESIAN_POINT('Origin',(1.5,21.25,1.));
#1063=CARTESIAN_POINT('',(1.9,21.25,0.5));
#1064=CARTESIAN_POINT('',(1.9,21.25,1.));
#1065=CARTESIAN_POINT('Origin',(1.5,21.25,0.5));
#1066=CARTESIAN_POINT('Origin',(1.5,21.25,0.5));
#1067=CARTESIAN_POINT('',(1.25,21.25,0.5));
#1068=CARTESIAN_POINT('Origin',(1.5,21.25,0.5));
#1069=CARTESIAN_POINT('Origin',(19.5,21.25,1.));
#1070=CARTESIAN_POINT('',(19.9,21.25,0.5));
#1071=CARTESIAN_POINT('',(19.9,21.25,1.));
#1072=CARTESIAN_POINT('Origin',(19.5,21.25,0.5));
#1073=CARTESIAN_POINT('Origin',(19.5,21.25,0.5));
#1074=CARTESIAN_POINT('',(19.25,21.25,0.5));
#1075=CARTESIAN_POINT('Origin',(19.5,21.25,0.5));
#1076=CARTESIAN_POINT('Origin',(1.5,1.5,0.));
#1077=CARTESIAN_POINT('',(1.25,1.5,0.));
#1078=CARTESIAN_POINT('',(1.25,1.5,0.));
#1079=CARTESIAN_POINT('Origin',(1.5,1.5,0.));
#1080=CARTESIAN_POINT('Origin',(19.5,1.5,0.));
#1081=CARTESIAN_POINT('',(19.25,1.5,0.));
#1082=CARTESIAN_POINT('',(19.25,1.5,0.));
#1083=CARTESIAN_POINT('Origin',(19.5,1.5,0.));
#1084=CARTESIAN_POINT('Origin',(19.5,21.25,0.));
#1085=CARTESIAN_POINT('',(19.25,21.25,0.));
#1086=CARTESIAN_POINT('',(19.25,21.25,0.));
#1087=CARTESIAN_POINT('Origin',(19.5,21.25,0.));
#1088=CARTESIAN_POINT('Origin',(1.5,21.25,0.));
#1089=CARTESIAN_POINT('',(1.25,21.25,0.));
#1090=CARTESIAN_POINT('',(1.25,21.25,0.));
#1091=CARTESIAN_POINT('Origin',(1.5,21.25,0.));
#1092=CARTESIAN_POINT('Origin',(0.,22.75,0.));
#1093=CARTESIAN_POINT('',(0.,22.75,0.));
#1094=CARTESIAN_POINT('',(0.,45.5,0.));
#1095=CARTESIAN_POINT('',(0.,22.75,0.));
#1096=CARTESIAN_POINT('Origin',(21.,22.75,0.));
#1097=CARTESIAN_POINT('',(0.,22.75,0.));
#1098=CARTESIAN_POINT('Origin',(10.5,11.375,0.));
#1099=UNCERTAINTY_MEASURE_WITH_UNIT(LENGTH_MEASURE(0.001),#1103,
'DISTANCE_ACCURACY_VALUE',
'Maximum model space distance between geometric entities at asserted c
onnectivities');
#1100=UNCERTAINTY_MEASURE_WITH_UNIT(LENGTH_MEASURE(0.001),#1103,
'DISTANCE_ACCURACY_VALUE',
'Maximum model space distance between geometric entities at asserted c
onnectivities');
#1101=(
GEOMETRIC_REPRESENTATION_CONTEXT(3)
GLOBAL_UNCERTAINTY_ASSIGNED_CONTEXT((#1099))
GLOBAL_UNIT_ASSIGNED_CONTEXT((#1103,#1105,#1106))
REPRESENTATION_CONTEXT('','3D')
);
#1102=(
GEOMETRIC_REPRESENTATION_CONTEXT(3)
GLOBAL_UNCERTAINTY_ASSIGNED_CONTEXT((#1100))
GLOBAL_UNIT_ASSIGNED_CONTEXT((#1103,#1105,#1106))
REPRESENTATION_CONTEXT('','3D')
);
#1103=(
LENGTH_UNIT()
NAMED_UNIT(*)
SI_UNIT(.CENTI.,.METRE.)
);
#1104=(
LENGTH_UNIT()
NAMED_UNIT(*)
SI_UNIT($,.METRE.)
);
#1105=(
NAMED_UNIT(*)
PLANE_ANGLE_UNIT()
SI_UNIT($,.RADIAN.)
);
#1106=(
NAMED_UNIT(*)
SI_UNIT($,.STERADIAN.)
SOLID_ANGLE_UNIT()
);
#1107=SHAPE_DEFINITION_REPRESENTATION(#1108,#1109);
#1108=PRODUCT_DEFINITION_SHAPE('',$,#1111);
#1109=SHAPE_REPRESENTATION('',(#663),#1101);
#1110=PRODUCT_DEFINITION_CONTEXT('part definition',#1115,'design');
#1111=PRODUCT_DEFINITION('2026-07-07-08-25-10-750','plate side-l-h',#1112,
#1110);
#1112=PRODUCT_DEFINITION_FORMATION('',$,#1117);
#1113=PRODUCT_RELATED_PRODUCT_CATEGORY('plate side-l-h',
'plate side-l-h',(#1117));
#1114=APPLICATION_PROTOCOL_DEFINITION('international standard',
'automotive_design',2009,#1115);
#1115=APPLICATION_CONTEXT(
'Core Data for Automotive Mechanical Design Process');
#1116=PRODUCT_CONTEXT('part definition',#1115,'mechanical');
#1117=PRODUCT('2026-07-07-08-25-10-750','plate side-l-h',$,(#1116));
#1118=PRESENTATION_STYLE_ASSIGNMENT((#1119));
#1119=SURFACE_STYLE_USAGE(.BOTH.,#1120);
#1120=SURFACE_SIDE_STYLE('',(#1121));
#1121=SURFACE_STYLE_FILL_AREA(#1122);
#1122=FILL_AREA_STYLE('ABS(\X2\D770C0C9\X0\)',(#1123));
#1123=FILL_AREA_STYLE_COLOUR('ABS(\X2\D770C0C9\X0\)',#1124);
#1124=COLOUR_RGB('ABS(\X2\D770C0C9\X0\)',0.964705882352941,0.964705882352941,
0.952941176470588);
ENDSEC;
END-ISO-10303-21;
