ISO-10303-21;
HEADER;
/* Generated by software containing ST-Developer
 * from STEP Tools, Inc. (www.steptools.com) 
 */

FILE_DESCRIPTION(
/* description */ (''),
/* implementation_level */ '2;1');

FILE_NAME(
/* name */ 'plate dl.step',
/* time_stamp */ '2026-08-31T17:55:17+09:00',
/* author */ (''),
/* organization */ (''),
/* preprocessor_version */ 'ST-DEVELOPER v20.1',
/* originating_system */ 'Autodesk Translation Framework v15.8.0.0',
/* authorisation */ '');

FILE_SCHEMA (('AUTOMOTIVE_DESIGN { 1 0 10303 214 3 1 1 }'));
ENDSEC;

DATA;
#10=MECHANICAL_DESIGN_GEOMETRIC_PRESENTATION_REPRESENTATION('',(#13),#1680);
#11=SHAPE_REPRESENTATION_RELATIONSHIP('SRR','None',#1687,#12);
#12=ADVANCED_BREP_SHAPE_REPRESENTATION('',(#14),#1679);
#13=STYLED_ITEM('',(#1696),#14);
#14=MANIFOLD_SOLID_BREP('\X2\BCF8CCB4\X0\1',#956);
#15=FACE_BOUND('',#289,.T.);
#16=FACE_BOUND('',#290,.T.);
#17=FACE_BOUND('',#291,.T.);
#18=FACE_BOUND('',#292,.T.);
#19=FACE_BOUND('',#293,.T.);
#20=FACE_BOUND('',#294,.T.);
#21=FACE_BOUND('',#295,.T.);
#22=FACE_BOUND('',#296,.T.);
#23=FACE_BOUND('',#297,.T.);
#24=FACE_BOUND('',#298,.T.);
#25=FACE_BOUND('',#299,.T.);
#26=FACE_BOUND('',#300,.T.);
#27=FACE_BOUND('',#301,.T.);
#28=FACE_BOUND('',#302,.T.);
#29=FACE_BOUND('',#303,.T.);
#30=FACE_BOUND('',#304,.T.);
#31=FACE_BOUND('',#305,.T.);
#32=FACE_BOUND('',#306,.T.);
#33=FACE_BOUND('',#307,.T.);
#34=FACE_BOUND('',#308,.T.);
#35=FACE_BOUND('',#309,.T.);
#36=FACE_BOUND('',#310,.T.);
#37=FACE_BOUND('',#311,.T.);
#38=FACE_BOUND('',#312,.T.);
#39=FACE_BOUND('',#313,.T.);
#40=FACE_BOUND('',#314,.T.);
#41=FACE_BOUND('',#330,.T.);
#42=FACE_BOUND('',#333,.T.);
#43=FACE_BOUND('',#336,.T.);
#44=FACE_BOUND('',#339,.T.);
#45=FACE_BOUND('',#342,.T.);
#46=FACE_BOUND('',#357,.T.);
#47=FACE_BOUND('',#358,.T.);
#48=FACE_BOUND('',#359,.T.);
#49=FACE_BOUND('',#360,.T.);
#50=FACE_BOUND('',#361,.T.);
#51=LINE('',#1478,#106);
#52=LINE('',#1482,#107);
#53=LINE('',#1486,#108);
#54=LINE('',#1490,#109);
#55=LINE('',#1494,#110);
#56=LINE('',#1498,#111);
#57=LINE('',#1502,#112);
#58=LINE('',#1506,#113);
#59=LINE('',#1510,#114);
#60=LINE('',#1514,#115);
#61=LINE('',#1516,#116);
#62=LINE('',#1518,#117);
#63=LINE('',#1520,#118);
#64=LINE('',#1522,#119);
#65=LINE('',#1524,#120);
#66=LINE('',#1526,#121);
#67=LINE('',#1527,#122);
#68=LINE('',#1564,#123);
#69=LINE('',#1568,#124);
#70=LINE('',#1570,#125);
#71=LINE('',#1572,#126);
#72=LINE('',#1574,#127);
#73=LINE('',#1576,#128);
#74=LINE('',#1578,#129);
#75=LINE('',#1580,#130);
#76=LINE('',#1582,#131);
#77=LINE('',#1584,#132);
#78=LINE('',#1586,#133);
#79=LINE('',#1588,#134);
#80=LINE('',#1591,#135);
#81=LINE('',#1598,#136);
#82=LINE('',#1605,#137);
#83=LINE('',#1612,#138);
#84=LINE('',#1619,#139);
#85=LINE('',#1626,#140);
#86=LINE('',#1630,#141);
#87=LINE('',#1634,#142);
#88=LINE('',#1638,#143);
#89=LINE('',#1642,#144);
#90=LINE('',#1647,#145);
#91=LINE('',#1648,#146);
#92=LINE('',#1649,#147);
#93=LINE('',#1652,#148);
#94=LINE('',#1653,#149);
#95=LINE('',#1656,#150);
#96=LINE('',#1657,#151);
#97=LINE('',#1660,#152);
#98=LINE('',#1661,#153);
#99=LINE('',#1664,#154);
#100=LINE('',#1665,#155);
#101=LINE('',#1668,#156);
#102=LINE('',#1669,#157);
#103=LINE('',#1672,#158);
#104=LINE('',#1673,#159);
#105=LINE('',#1675,#160);
#106=VECTOR('',#1185,0.199999999999999);
#107=VECTOR('',#1190,0.15);
#108=VECTOR('',#1195,0.15);
#109=VECTOR('',#1200,0.199999999999999);
#110=VECTOR('',#1205,0.199999999999999);
#111=VECTOR('',#1210,0.199999999999998);
#112=VECTOR('',#1215,0.199999999999998);
#113=VECTOR('',#1220,0.199999999999999);
#114=VECTOR('',#1225,0.199999999999999);
#115=VECTOR('',#1228,1.);
#116=VECTOR('',#1229,1.);
#117=VECTOR('',#1230,1.);
#118=VECTOR('',#1231,1.);
#119=VECTOR('',#1232,1.);
#120=VECTOR('',#1233,1.);
#121=VECTOR('',#1234,1.);
#122=VECTOR('',#1235,1.);
#123=VECTOR('',#1272,0.275);
#124=VECTOR('',#1279,0.15);
#125=VECTOR('',#1282,0.15);
#126=VECTOR('',#1285,0.15);
#127=VECTOR('',#1288,0.149999999999999);
#128=VECTOR('',#1291,0.199999999999999);
#129=VECTOR('',#1294,0.199999999999999);
#130=VECTOR('',#1297,0.2);
#131=VECTOR('',#1300,0.199999999999999);
#132=VECTOR('',#1303,0.199999999999999);
#133=VECTOR('',#1306,0.199999999999999);
#134=VECTOR('',#1309,0.199999999999999);
#135=VECTOR('',#1312,0.400000000000002);
#136=VECTOR('',#1321,0.399999999999999);
#137=VECTOR('',#1330,0.400000000000002);
#138=VECTOR('',#1339,0.399999999999999);
#139=VECTOR('',#1348,0.400000000000002);
#140=VECTOR('',#1357,0.25);
#141=VECTOR('',#1362,0.25);
#142=VECTOR('',#1367,0.25);
#143=VECTOR('',#1372,0.25);
#144=VECTOR('',#1377,0.25);
#145=VECTOR('',#1382,1.);
#146=VECTOR('',#1383,1.);
#147=VECTOR('',#1384,1.);
#148=VECTOR('',#1387,1.);
#149=VECTOR('',#1388,1.);
#150=VECTOR('',#1391,1.);
#151=VECTOR('',#1392,1.);
#152=VECTOR('',#1395,1.);
#153=VECTOR('',#1396,1.);
#154=VECTOR('',#1399,1.);
#155=VECTOR('',#1400,1.);
#156=VECTOR('',#1403,1.);
#157=VECTOR('',#1404,1.);
#158=VECTOR('',#1407,1.);
#159=VECTOR('',#1408,1.);
#160=VECTOR('',#1411,1.);
#161=CYLINDRICAL_SURFACE('',#1010,0.199999999999999);
#162=CYLINDRICAL_SURFACE('',#1012,0.15);
#163=CYLINDRICAL_SURFACE('',#1014,0.15);
#164=CYLINDRICAL_SURFACE('',#1016,0.199999999999999);
#165=CYLINDRICAL_SURFACE('',#1018,0.199999999999999);
#166=CYLINDRICAL_SURFACE('',#1020,0.199999999999998);
#167=CYLINDRICAL_SURFACE('',#1022,0.199999999999998);
#168=CYLINDRICAL_SURFACE('',#1024,0.199999999999999);
#169=CYLINDRICAL_SURFACE('',#1026,0.199999999999999);
#170=CYLINDRICAL_SURFACE('',#1046,0.275);
#171=CYLINDRICAL_SURFACE('',#1049,0.15);
#172=CYLINDRICAL_SURFACE('',#1050,0.15);
#173=CYLINDRICAL_SURFACE('',#1051,0.15);
#174=CYLINDRICAL_SURFACE('',#1052,0.149999999999999);
#175=CYLINDRICAL_SURFACE('',#1053,0.199999999999999);
#176=CYLINDRICAL_SURFACE('',#1054,0.199999999999999);
#177=CYLINDRICAL_SURFACE('',#1055,0.2);
#178=CYLINDRICAL_SURFACE('',#1056,0.199999999999999);
#179=CYLINDRICAL_SURFACE('',#1057,0.199999999999999);
#180=CYLINDRICAL_SURFACE('',#1058,0.199999999999999);
#181=CYLINDRICAL_SURFACE('',#1059,0.199999999999999);
#182=CYLINDRICAL_SURFACE('',#1060,0.400000000000002);
#183=CYLINDRICAL_SURFACE('',#1064,0.399999999999999);
#184=CYLINDRICAL_SURFACE('',#1068,0.400000000000002);
#185=CYLINDRICAL_SURFACE('',#1072,0.399999999999999);
#186=CYLINDRICAL_SURFACE('',#1076,0.400000000000002);
#187=CYLINDRICAL_SURFACE('',#1080,0.25);
#188=CYLINDRICAL_SURFACE('',#1082,0.25);
#189=CYLINDRICAL_SURFACE('',#1084,0.25);
#190=CYLINDRICAL_SURFACE('',#1086,0.25);
#191=CYLINDRICAL_SURFACE('',#1088,0.25);
#192=FACE_OUTER_BOUND('',#259,.T.);
#193=FACE_OUTER_BOUND('',#260,.T.);
#194=FACE_OUTER_BOUND('',#261,.T.);
#195=FACE_OUTER_BOUND('',#262,.T.);
#196=FACE_OUTER_BOUND('',#263,.T.);
#197=FACE_OUTER_BOUND('',#264,.T.);
#198=FACE_OUTER_BOUND('',#265,.T.);
#199=FACE_OUTER_BOUND('',#266,.T.);
#200=FACE_OUTER_BOUND('',#267,.T.);
#201=FACE_OUTER_BOUND('',#268,.T.);
#202=FACE_OUTER_BOUND('',#269,.T.);
#203=FACE_OUTER_BOUND('',#270,.T.);
#204=FACE_OUTER_BOUND('',#271,.T.);
#205=FACE_OUTER_BOUND('',#272,.T.);
#206=FACE_OUTER_BOUND('',#273,.T.);
#207=FACE_OUTER_BOUND('',#274,.T.);
#208=FACE_OUTER_BOUND('',#275,.T.);
#209=FACE_OUTER_BOUND('',#276,.T.);
#210=FACE_OUTER_BOUND('',#277,.T.);
#211=FACE_OUTER_BOUND('',#278,.T.);
#212=FACE_OUTER_BOUND('',#279,.T.);
#213=FACE_OUTER_BOUND('',#280,.T.);
#214=FACE_OUTER_BOUND('',#281,.T.);
#215=FACE_OUTER_BOUND('',#282,.T.);
#216=FACE_OUTER_BOUND('',#283,.T.);
#217=FACE_OUTER_BOUND('',#284,.T.);
#218=FACE_OUTER_BOUND('',#285,.T.);
#219=FACE_OUTER_BOUND('',#286,.T.);
#220=FACE_OUTER_BOUND('',#287,.T.);
#221=FACE_OUTER_BOUND('',#288,.T.);
#222=FACE_OUTER_BOUND('',#315,.T.);
#223=FACE_OUTER_BOUND('',#316,.T.);
#224=FACE_OUTER_BOUND('',#317,.T.);
#225=FACE_OUTER_BOUND('',#318,.T.);
#226=FACE_OUTER_BOUND('',#319,.T.);
#227=FACE_OUTER_BOUND('',#320,.T.);
#228=FACE_OUTER_BOUND('',#321,.T.);
#229=FACE_OUTER_BOUND('',#322,.T.);
#230=FACE_OUTER_BOUND('',#323,.T.);
#231=FACE_OUTER_BOUND('',#324,.T.);
#232=FACE_OUTER_BOUND('',#325,.T.);
#233=FACE_OUTER_BOUND('',#326,.T.);
#234=FACE_OUTER_BOUND('',#327,.T.);
#235=FACE_OUTER_BOUND('',#328,.T.);
#236=FACE_OUTER_BOUND('',#329,.T.);
#237=FACE_OUTER_BOUND('',#331,.T.);
#238=FACE_OUTER_BOUND('',#332,.T.);
#239=FACE_OUTER_BOUND('',#334,.T.);
#240=FACE_OUTER_BOUND('',#335,.T.);
#241=FACE_OUTER_BOUND('',#337,.T.);
#242=FACE_OUTER_BOUND('',#338,.T.);
#243=FACE_OUTER_BOUND('',#340,.T.);
#244=FACE_OUTER_BOUND('',#341,.T.);
#245=FACE_OUTER_BOUND('',#343,.T.);
#246=FACE_OUTER_BOUND('',#344,.T.);
#247=FACE_OUTER_BOUND('',#345,.T.);
#248=FACE_OUTER_BOUND('',#346,.T.);
#249=FACE_OUTER_BOUND('',#347,.T.);
#250=FACE_OUTER_BOUND('',#348,.T.);
#251=FACE_OUTER_BOUND('',#349,.T.);
#252=FACE_OUTER_BOUND('',#350,.T.);
#253=FACE_OUTER_BOUND('',#351,.T.);
#254=FACE_OUTER_BOUND('',#352,.T.);
#255=FACE_OUTER_BOUND('',#353,.T.);
#256=FACE_OUTER_BOUND('',#354,.T.);
#257=FACE_OUTER_BOUND('',#355,.T.);
#258=FACE_OUTER_BOUND('',#356,.T.);
#259=EDGE_LOOP('',(#619));
#260=EDGE_LOOP('',(#620));
#261=EDGE_LOOP('',(#621));
#262=EDGE_LOOP('',(#622));
#263=EDGE_LOOP('',(#623));
#264=EDGE_LOOP('',(#624));
#265=EDGE_LOOP('',(#625));
#266=EDGE_LOOP('',(#626));
#267=EDGE_LOOP('',(#627));
#268=EDGE_LOOP('',(#628));
#269=EDGE_LOOP('',(#629));
#270=EDGE_LOOP('',(#630));
#271=EDGE_LOOP('',(#631));
#272=EDGE_LOOP('',(#632));
#273=EDGE_LOOP('',(#633));
#274=EDGE_LOOP('',(#634));
#275=EDGE_LOOP('',(#635));
#276=EDGE_LOOP('',(#636));
#277=EDGE_LOOP('',(#637));
#278=EDGE_LOOP('',(#638));
#279=EDGE_LOOP('',(#639,#640,#641,#642));
#280=EDGE_LOOP('',(#643,#644,#645,#646));
#281=EDGE_LOOP('',(#647,#648,#649,#650));
#282=EDGE_LOOP('',(#651,#652,#653,#654));
#283=EDGE_LOOP('',(#655,#656,#657,#658));
#284=EDGE_LOOP('',(#659,#660,#661,#662));
#285=EDGE_LOOP('',(#663,#664,#665,#666));
#286=EDGE_LOOP('',(#667,#668,#669,#670));
#287=EDGE_LOOP('',(#671,#672,#673,#674));
#288=EDGE_LOOP('',(#675,#676,#677,#678,#679,#680,#681,#682));
#289=EDGE_LOOP('',(#683));
#290=EDGE_LOOP('',(#684));
#291=EDGE_LOOP('',(#685));
#292=EDGE_LOOP('',(#686));
#293=EDGE_LOOP('',(#687));
#294=EDGE_LOOP('',(#688));
#295=EDGE_LOOP('',(#689));
#296=EDGE_LOOP('',(#690));
#297=EDGE_LOOP('',(#691));
#298=EDGE_LOOP('',(#692));
#299=EDGE_LOOP('',(#693));
#300=EDGE_LOOP('',(#694));
#301=EDGE_LOOP('',(#695));
#302=EDGE_LOOP('',(#696));
#303=EDGE_LOOP('',(#697));
#304=EDGE_LOOP('',(#698));
#305=EDGE_LOOP('',(#699));
#306=EDGE_LOOP('',(#700));
#307=EDGE_LOOP('',(#701));
#308=EDGE_LOOP('',(#702));
#309=EDGE_LOOP('',(#703));
#310=EDGE_LOOP('',(#704));
#311=EDGE_LOOP('',(#705));
#312=EDGE_LOOP('',(#706));
#313=EDGE_LOOP('',(#707));
#314=EDGE_LOOP('',(#708));
#315=EDGE_LOOP('',(#709,#710,#711,#712));
#316=EDGE_LOOP('',(#713));
#317=EDGE_LOOP('',(#714,#715,#716,#717));
#318=EDGE_LOOP('',(#718,#719,#720,#721));
#319=EDGE_LOOP('',(#722,#723,#724,#725));
#320=EDGE_LOOP('',(#726,#727,#728,#729));
#321=EDGE_LOOP('',(#730,#731,#732,#733));
#322=EDGE_LOOP('',(#734,#735,#736,#737));
#323=EDGE_LOOP('',(#738,#739,#740,#741));
#324=EDGE_LOOP('',(#742,#743,#744,#745));
#325=EDGE_LOOP('',(#746,#747,#748,#749));
#326=EDGE_LOOP('',(#750,#751,#752,#753));
#327=EDGE_LOOP('',(#754,#755,#756,#757));
#328=EDGE_LOOP('',(#758,#759,#760,#761));
#329=EDGE_LOOP('',(#762));
#330=EDGE_LOOP('',(#763));
#331=EDGE_LOOP('',(#764,#765,#766,#767));
#332=EDGE_LOOP('',(#768));
#333=EDGE_LOOP('',(#769));
#334=EDGE_LOOP('',(#770,#771,#772,#773));
#335=EDGE_LOOP('',(#774));
#336=EDGE_LOOP('',(#775));
#337=EDGE_LOOP('',(#776,#777,#778,#779));
#338=EDGE_LOOP('',(#780));
#339=EDGE_LOOP('',(#781));
#340=EDGE_LOOP('',(#782,#783,#784,#785));
#341=EDGE_LOOP('',(#786));
#342=EDGE_LOOP('',(#787));
#343=EDGE_LOOP('',(#788,#789,#790,#791));
#344=EDGE_LOOP('',(#792,#793,#794,#795));
#345=EDGE_LOOP('',(#796,#797,#798,#799));
#346=EDGE_LOOP('',(#800,#801,#802,#803));
#347=EDGE_LOOP('',(#804,#805,#806,#807));
#348=EDGE_LOOP('',(#808,#809,#810,#811));
#349=EDGE_LOOP('',(#812,#813,#814,#815));
#350=EDGE_LOOP('',(#816,#817,#818,#819));
#351=EDGE_LOOP('',(#820,#821,#822,#823));
#352=EDGE_LOOP('',(#824,#825,#826,#827));
#353=EDGE_LOOP('',(#828,#829,#830,#831));
#354=EDGE_LOOP('',(#832,#833,#834,#835));
#355=EDGE_LOOP('',(#836,#837,#838,#839));
#356=EDGE_LOOP('',(#840,#841,#842,#843,#844,#845,#846,#847));
#357=EDGE_LOOP('',(#848));
#358=EDGE_LOOP('',(#849));
#359=EDGE_LOOP('',(#850));
#360=EDGE_LOOP('',(#851));
#361=EDGE_LOOP('',(#852));
#362=CIRCLE('',#971,0.199999999999998);
#363=CIRCLE('',#973,0.199999999999999);
#364=CIRCLE('',#975,0.199999999999998);
#365=CIRCLE('',#977,0.199999999999999);
#366=CIRCLE('',#979,0.199999999999999);
#367=CIRCLE('',#981,0.199999999999999);
#368=CIRCLE('',#983,0.199999999999999);
#369=CIRCLE('',#985,0.199999999999999);
#370=CIRCLE('',#987,0.199999999999999);
#371=CIRCLE('',#989,0.199999999999999);
#372=CIRCLE('',#991,0.199999999999999);
#373=CIRCLE('',#993,0.199999999999999);
#374=CIRCLE('',#995,0.199999999999999);
#375=CIRCLE('',#997,0.2);
#376=CIRCLE('',#999,0.15);
#377=CIRCLE('',#1001,0.15);
#378=CIRCLE('',#1003,0.15);
#379=CIRCLE('',#1005,0.15);
#380=CIRCLE('',#1007,0.15);
#381=CIRCLE('',#1009,0.149999999999999);
#382=CIRCLE('',#1011,0.199999999999999);
#383=CIRCLE('',#1013,0.15);
#384=CIRCLE('',#1015,0.15);
#385=CIRCLE('',#1017,0.199999999999999);
#386=CIRCLE('',#1019,0.199999999999999);
#387=CIRCLE('',#1021,0.199999999999998);
#388=CIRCLE('',#1023,0.199999999999998);
#389=CIRCLE('',#1025,0.199999999999999);
#390=CIRCLE('',#1027,0.199999999999999);
#391=CIRCLE('',#1029,0.275);
#392=CIRCLE('',#1030,0.199999999999999);
#393=CIRCLE('',#1031,0.199999999999999);
#394=CIRCLE('',#1032,0.2);
#395=CIRCLE('',#1033,0.199999999999999);
#396=CIRCLE('',#1034,0.199999999999999);
#397=CIRCLE('',#1035,0.199999999999999);
#398=CIRCLE('',#1036,0.199999999999999);
#399=CIRCLE('',#1037,0.400000000000002);
#400=CIRCLE('',#1038,0.399999999999999);
#401=CIRCLE('',#1039,0.400000000000002);
#402=CIRCLE('',#1040,0.399999999999999);
#403=CIRCLE('',#1041,0.400000000000002);
#404=CIRCLE('',#1042,0.149999999999999);
#405=CIRCLE('',#1043,0.15);
#406=CIRCLE('',#1044,0.15);
#407=CIRCLE('',#1045,0.15);
#408=CIRCLE('',#1047,0.275);
#409=CIRCLE('',#1061,0.400000000000002);
#410=CIRCLE('',#1063,0.25);
#411=CIRCLE('',#1065,0.399999999999999);
#412=CIRCLE('',#1067,0.25);
#413=CIRCLE('',#1069,0.400000000000002);
#414=CIRCLE('',#1071,0.25);
#415=CIRCLE('',#1073,0.399999999999999);
#416=CIRCLE('',#1075,0.25);
#417=CIRCLE('',#1077,0.400000000000002);
#418=CIRCLE('',#1079,0.25);
#419=CIRCLE('',#1081,0.25);
#420=CIRCLE('',#1083,0.25);
#421=CIRCLE('',#1085,0.25);
#422=CIRCLE('',#1087,0.25);
#423=CIRCLE('',#1089,0.25);
#424=VERTEX_POINT('',#1416);
#425=VERTEX_POINT('',#1419);
#426=VERTEX_POINT('',#1422);
#427=VERTEX_POINT('',#1425);
#428=VERTEX_POINT('',#1428);
#429=VERTEX_POINT('',#1431);
#430=VERTEX_POINT('',#1434);
#431=VERTEX_POINT('',#1437);
#432=VERTEX_POINT('',#1440);
#433=VERTEX_POINT('',#1443);
#434=VERTEX_POINT('',#1446);
#435=VERTEX_POINT('',#1449);
#436=VERTEX_POINT('',#1452);
#437=VERTEX_POINT('',#1455);
#438=VERTEX_POINT('',#1458);
#439=VERTEX_POINT('',#1461);
#440=VERTEX_POINT('',#1464);
#441=VERTEX_POINT('',#1467);
#442=VERTEX_POINT('',#1470);
#443=VERTEX_POINT('',#1473);
#444=VERTEX_POINT('',#1476);
#445=VERTEX_POINT('',#1480);
#446=VERTEX_POINT('',#1484);
#447=VERTEX_POINT('',#1488);
#448=VERTEX_POINT('',#1492);
#449=VERTEX_POINT('',#1496);
#450=VERTEX_POINT('',#1500);
#451=VERTEX_POINT('',#1504);
#452=VERTEX_POINT('',#1508);
#453=VERTEX_POINT('',#1512);
#454=VERTEX_POINT('',#1513);
#455=VERTEX_POINT('',#1515);
#456=VERTEX_POINT('',#1517);
#457=VERTEX_POINT('',#1519);
#458=VERTEX_POINT('',#1521);
#459=VERTEX_POINT('',#1523);
#460=VERTEX_POINT('',#1525);
#461=VERTEX_POINT('',#1528);
#462=VERTEX_POINT('',#1530);
#463=VERTEX_POINT('',#1532);
#464=VERTEX_POINT('',#1534);
#465=VERTEX_POINT('',#1536);
#466=VERTEX_POINT('',#1538);
#467=VERTEX_POINT('',#1540);
#468=VERTEX_POINT('',#1542);
#469=VERTEX_POINT('',#1544);
#470=VERTEX_POINT('',#1546);
#471=VERTEX_POINT('',#1548);
#472=VERTEX_POINT('',#1550);
#473=VERTEX_POINT('',#1552);
#474=VERTEX_POINT('',#1554);
#475=VERTEX_POINT('',#1556);
#476=VERTEX_POINT('',#1558);
#477=VERTEX_POINT('',#1560);
#478=VERTEX_POINT('',#1563);
#479=VERTEX_POINT('',#1590);
#480=VERTEX_POINT('',#1594);
#481=VERTEX_POINT('',#1597);
#482=VERTEX_POINT('',#1601);
#483=VERTEX_POINT('',#1604);
#484=VERTEX_POINT('',#1608);
#485=VERTEX_POINT('',#1611);
#486=VERTEX_POINT('',#1615);
#487=VERTEX_POINT('',#1618);
#488=VERTEX_POINT('',#1622);
#489=VERTEX_POINT('',#1625);
#490=VERTEX_POINT('',#1629);
#491=VERTEX_POINT('',#1633);
#492=VERTEX_POINT('',#1637);
#493=VERTEX_POINT('',#1641);
#494=VERTEX_POINT('',#1645);
#495=VERTEX_POINT('',#1646);
#496=VERTEX_POINT('',#1651);
#497=VERTEX_POINT('',#1655);
#498=VERTEX_POINT('',#1659);
#499=VERTEX_POINT('',#1663);
#500=VERTEX_POINT('',#1667);
#501=VERTEX_POINT('',#1671);
#502=EDGE_CURVE('',#424,#424,#362,.T.);
#503=EDGE_CURVE('',#425,#425,#363,.T.);
#504=EDGE_CURVE('',#426,#426,#364,.T.);
#505=EDGE_CURVE('',#427,#427,#365,.T.);
#506=EDGE_CURVE('',#428,#428,#366,.T.);
#507=EDGE_CURVE('',#429,#429,#367,.T.);
#508=EDGE_CURVE('',#430,#430,#368,.T.);
#509=EDGE_CURVE('',#431,#431,#369,.T.);
#510=EDGE_CURVE('',#432,#432,#370,.T.);
#511=EDGE_CURVE('',#433,#433,#371,.T.);
#512=EDGE_CURVE('',#434,#434,#372,.T.);
#513=EDGE_CURVE('',#435,#435,#373,.T.);
#514=EDGE_CURVE('',#436,#436,#374,.T.);
#515=EDGE_CURVE('',#437,#437,#375,.T.);
#516=EDGE_CURVE('',#438,#438,#376,.T.);
#517=EDGE_CURVE('',#439,#439,#377,.T.);
#518=EDGE_CURVE('',#440,#440,#378,.T.);
#519=EDGE_CURVE('',#441,#441,#379,.T.);
#520=EDGE_CURVE('',#442,#442,#380,.T.);
#521=EDGE_CURVE('',#443,#443,#381,.T.);
#522=EDGE_CURVE('',#444,#444,#382,.T.);
#523=EDGE_CURVE('',#444,#429,#51,.T.);
#524=EDGE_CURVE('',#445,#445,#383,.T.);
#525=EDGE_CURVE('',#445,#440,#52,.T.);
#526=EDGE_CURVE('',#446,#446,#384,.T.);
#527=EDGE_CURVE('',#446,#441,#53,.T.);
#528=EDGE_CURVE('',#447,#447,#385,.T.);
#529=EDGE_CURVE('',#447,#427,#54,.T.);
#530=EDGE_CURVE('',#448,#448,#386,.T.);
#531=EDGE_CURVE('',#448,#425,#55,.T.);
#532=EDGE_CURVE('',#449,#449,#387,.T.);
#533=EDGE_CURVE('',#449,#426,#56,.T.);
#534=EDGE_CURVE('',#450,#450,#388,.T.);
#535=EDGE_CURVE('',#450,#424,#57,.T.);
#536=EDGE_CURVE('',#451,#451,#389,.T.);
#537=EDGE_CURVE('',#451,#436,#58,.T.);
#538=EDGE_CURVE('',#452,#452,#390,.T.);
#539=EDGE_CURVE('',#452,#434,#59,.T.);
#540=EDGE_CURVE('',#453,#454,#60,.T.);
#541=EDGE_CURVE('',#454,#455,#61,.T.);
#542=EDGE_CURVE('',#455,#456,#62,.T.);
#543=EDGE_CURVE('',#456,#457,#63,.T.);
#544=EDGE_CURVE('',#457,#458,#64,.T.);
#545=EDGE_CURVE('',#458,#459,#65,.T.);
#546=EDGE_CURVE('',#459,#460,#66,.T.);
#547=EDGE_CURVE('',#460,#453,#67,.T.);
#548=EDGE_CURVE('',#461,#461,#391,.T.);
#549=EDGE_CURVE('',#462,#462,#392,.T.);
#550=EDGE_CURVE('',#463,#463,#393,.T.);
#551=EDGE_CURVE('',#464,#464,#394,.T.);
#552=EDGE_CURVE('',#465,#465,#395,.T.);
#553=EDGE_CURVE('',#466,#466,#396,.T.);
#554=EDGE_CURVE('',#467,#467,#397,.T.);
#555=EDGE_CURVE('',#468,#468,#398,.T.);
#556=EDGE_CURVE('',#469,#469,#399,.T.);
#557=EDGE_CURVE('',#470,#470,#400,.T.);
#558=EDGE_CURVE('',#471,#471,#401,.T.);
#559=EDGE_CURVE('',#472,#472,#402,.T.);
#560=EDGE_CURVE('',#473,#473,#403,.T.);
#561=EDGE_CURVE('',#474,#474,#404,.T.);
#562=EDGE_CURVE('',#475,#475,#405,.T.);
#563=EDGE_CURVE('',#476,#476,#406,.T.);
#564=EDGE_CURVE('',#477,#477,#407,.T.);
#565=EDGE_CURVE('',#461,#478,#68,.T.);
#566=EDGE_CURVE('',#478,#478,#408,.T.);
#567=EDGE_CURVE('',#477,#439,#69,.T.);
#568=EDGE_CURVE('',#476,#442,#70,.T.);
#569=EDGE_CURVE('',#475,#438,#71,.T.);
#570=EDGE_CURVE('',#474,#443,#72,.T.);
#571=EDGE_CURVE('',#462,#428,#73,.T.);
#572=EDGE_CURVE('',#463,#435,#74,.T.);
#573=EDGE_CURVE('',#464,#437,#75,.T.);
#574=EDGE_CURVE('',#465,#433,#76,.T.);
#575=EDGE_CURVE('',#466,#430,#77,.T.);
#576=EDGE_CURVE('',#467,#432,#78,.T.);
#577=EDGE_CURVE('',#468,#431,#79,.T.);
#578=EDGE_CURVE('',#469,#479,#80,.T.);
#579=EDGE_CURVE('',#479,#479,#409,.T.);
#580=EDGE_CURVE('',#480,#480,#410,.T.);
#581=EDGE_CURVE('',#470,#481,#81,.T.);
#582=EDGE_CURVE('',#481,#481,#411,.T.);
#583=EDGE_CURVE('',#482,#482,#412,.T.);
#584=EDGE_CURVE('',#471,#483,#82,.T.);
#585=EDGE_CURVE('',#483,#483,#413,.T.);
#586=EDGE_CURVE('',#484,#484,#414,.T.);
#587=EDGE_CURVE('',#472,#485,#83,.T.);
#588=EDGE_CURVE('',#485,#485,#415,.T.);
#589=EDGE_CURVE('',#486,#486,#416,.T.);
#590=EDGE_CURVE('',#473,#487,#84,.T.);
#591=EDGE_CURVE('',#487,#487,#417,.T.);
#592=EDGE_CURVE('',#488,#488,#418,.T.);
#593=EDGE_CURVE('',#488,#489,#85,.T.);
#594=EDGE_CURVE('',#489,#489,#419,.T.);
#595=EDGE_CURVE('',#486,#490,#86,.T.);
#596=EDGE_CURVE('',#490,#490,#420,.T.);
#597=EDGE_CURVE('',#482,#491,#87,.T.);
#598=EDGE_CURVE('',#491,#491,#421,.T.);
#599=EDGE_CURVE('',#484,#492,#88,.T.);
#600=EDGE_CURVE('',#492,#492,#422,.T.);
#601=EDGE_CURVE('',#480,#493,#89,.T.);
#602=EDGE_CURVE('',#493,#493,#423,.T.);
#603=EDGE_CURVE('',#494,#495,#90,.T.);
#604=EDGE_CURVE('',#494,#453,#91,.T.);
#605=EDGE_CURVE('',#495,#460,#92,.T.);
#606=EDGE_CURVE('',#496,#495,#93,.T.);
#607=EDGE_CURVE('',#496,#459,#94,.T.);
#608=EDGE_CURVE('',#497,#496,#95,.T.);
#609=EDGE_CURVE('',#497,#458,#96,.T.);
#610=EDGE_CURVE('',#497,#498,#97,.T.);
#611=EDGE_CURVE('',#498,#457,#98,.T.);
#612=EDGE_CURVE('',#499,#498,#99,.T.);
#613=EDGE_CURVE('',#499,#456,#100,.T.);
#614=EDGE_CURVE('',#499,#500,#101,.T.);
#615=EDGE_CURVE('',#500,#455,#102,.T.);
#616=EDGE_CURVE('',#501,#500,#103,.T.);
#617=EDGE_CURVE('',#501,#454,#104,.T.);
#618=EDGE_CURVE('',#494,#501,#105,.T.);
#619=ORIENTED_EDGE('',*,*,#502,.F.);
#620=ORIENTED_EDGE('',*,*,#503,.F.);
#621=ORIENTED_EDGE('',*,*,#504,.F.);
#622=ORIENTED_EDGE('',*,*,#505,.F.);
#623=ORIENTED_EDGE('',*,*,#506,.F.);
#624=ORIENTED_EDGE('',*,*,#507,.F.);
#625=ORIENTED_EDGE('',*,*,#508,.F.);
#626=ORIENTED_EDGE('',*,*,#509,.F.);
#627=ORIENTED_EDGE('',*,*,#510,.F.);
#628=ORIENTED_EDGE('',*,*,#511,.F.);
#629=ORIENTED_EDGE('',*,*,#512,.F.);
#630=ORIENTED_EDGE('',*,*,#513,.F.);
#631=ORIENTED_EDGE('',*,*,#514,.F.);
#632=ORIENTED_EDGE('',*,*,#515,.F.);
#633=ORIENTED_EDGE('',*,*,#516,.F.);
#634=ORIENTED_EDGE('',*,*,#517,.F.);
#635=ORIENTED_EDGE('',*,*,#518,.F.);
#636=ORIENTED_EDGE('',*,*,#519,.F.);
#637=ORIENTED_EDGE('',*,*,#520,.F.);
#638=ORIENTED_EDGE('',*,*,#521,.F.);
#639=ORIENTED_EDGE('',*,*,#522,.F.);
#640=ORIENTED_EDGE('',*,*,#523,.T.);
#641=ORIENTED_EDGE('',*,*,#507,.T.);
#642=ORIENTED_EDGE('',*,*,#523,.F.);
#643=ORIENTED_EDGE('',*,*,#524,.F.);
#644=ORIENTED_EDGE('',*,*,#525,.T.);
#645=ORIENTED_EDGE('',*,*,#518,.T.);
#646=ORIENTED_EDGE('',*,*,#525,.F.);
#647=ORIENTED_EDGE('',*,*,#526,.F.);
#648=ORIENTED_EDGE('',*,*,#527,.T.);
#649=ORIENTED_EDGE('',*,*,#519,.T.);
#650=ORIENTED_EDGE('',*,*,#527,.F.);
#651=ORIENTED_EDGE('',*,*,#528,.F.);
#652=ORIENTED_EDGE('',*,*,#529,.T.);
#653=ORIENTED_EDGE('',*,*,#505,.T.);
#654=ORIENTED_EDGE('',*,*,#529,.F.);
#655=ORIENTED_EDGE('',*,*,#530,.F.);
#656=ORIENTED_EDGE('',*,*,#531,.T.);
#657=ORIENTED_EDGE('',*,*,#503,.T.);
#658=ORIENTED_EDGE('',*,*,#531,.F.);
#659=ORIENTED_EDGE('',*,*,#532,.F.);
#660=ORIENTED_EDGE('',*,*,#533,.T.);
#661=ORIENTED_EDGE('',*,*,#504,.T.);
#662=ORIENTED_EDGE('',*,*,#533,.F.);
#663=ORIENTED_EDGE('',*,*,#534,.F.);
#664=ORIENTED_EDGE('',*,*,#535,.T.);
#665=ORIENTED_EDGE('',*,*,#502,.T.);
#666=ORIENTED_EDGE('',*,*,#535,.F.);
#667=ORIENTED_EDGE('',*,*,#536,.F.);
#668=ORIENTED_EDGE('',*,*,#537,.T.);
#669=ORIENTED_EDGE('',*,*,#514,.T.);
#670=ORIENTED_EDGE('',*,*,#537,.F.);
#671=ORIENTED_EDGE('',*,*,#538,.F.);
#672=ORIENTED_EDGE('',*,*,#539,.T.);
#673=ORIENTED_EDGE('',*,*,#512,.T.);
#674=ORIENTED_EDGE('',*,*,#539,.F.);
#675=ORIENTED_EDGE('',*,*,#540,.T.);
#676=ORIENTED_EDGE('',*,*,#541,.T.);
#677=ORIENTED_EDGE('',*,*,#542,.T.);
#678=ORIENTED_EDGE('',*,*,#543,.T.);
#679=ORIENTED_EDGE('',*,*,#544,.T.);
#680=ORIENTED_EDGE('',*,*,#545,.T.);
#681=ORIENTED_EDGE('',*,*,#546,.T.);
#682=ORIENTED_EDGE('',*,*,#547,.T.);
#683=ORIENTED_EDGE('',*,*,#524,.T.);
#684=ORIENTED_EDGE('',*,*,#526,.T.);
#685=ORIENTED_EDGE('',*,*,#532,.T.);
#686=ORIENTED_EDGE('',*,*,#534,.T.);
#687=ORIENTED_EDGE('',*,*,#536,.T.);
#688=ORIENTED_EDGE('',*,*,#538,.T.);
#689=ORIENTED_EDGE('',*,*,#548,.T.);
#690=ORIENTED_EDGE('',*,*,#549,.T.);
#691=ORIENTED_EDGE('',*,*,#550,.T.);
#692=ORIENTED_EDGE('',*,*,#551,.T.);
#693=ORIENTED_EDGE('',*,*,#552,.T.);
#694=ORIENTED_EDGE('',*,*,#553,.T.);
#695=ORIENTED_EDGE('',*,*,#554,.T.);
#696=ORIENTED_EDGE('',*,*,#555,.T.);
#697=ORIENTED_EDGE('',*,*,#556,.T.);
#698=ORIENTED_EDGE('',*,*,#557,.T.);
#699=ORIENTED_EDGE('',*,*,#558,.T.);
#700=ORIENTED_EDGE('',*,*,#559,.T.);
#701=ORIENTED_EDGE('',*,*,#560,.T.);
#702=ORIENTED_EDGE('',*,*,#561,.T.);
#703=ORIENTED_EDGE('',*,*,#562,.T.);
#704=ORIENTED_EDGE('',*,*,#563,.T.);
#705=ORIENTED_EDGE('',*,*,#564,.T.);
#706=ORIENTED_EDGE('',*,*,#530,.T.);
#707=ORIENTED_EDGE('',*,*,#528,.T.);
#708=ORIENTED_EDGE('',*,*,#522,.T.);
#709=ORIENTED_EDGE('',*,*,#548,.F.);
#710=ORIENTED_EDGE('',*,*,#565,.T.);
#711=ORIENTED_EDGE('',*,*,#566,.T.);
#712=ORIENTED_EDGE('',*,*,#565,.F.);
#713=ORIENTED_EDGE('',*,*,#566,.F.);
#714=ORIENTED_EDGE('',*,*,#564,.F.);
#715=ORIENTED_EDGE('',*,*,#567,.T.);
#716=ORIENTED_EDGE('',*,*,#517,.T.);
#717=ORIENTED_EDGE('',*,*,#567,.F.);
#718=ORIENTED_EDGE('',*,*,#563,.F.);
#719=ORIENTED_EDGE('',*,*,#568,.T.);
#720=ORIENTED_EDGE('',*,*,#520,.T.);
#721=ORIENTED_EDGE('',*,*,#568,.F.);
#722=ORIENTED_EDGE('',*,*,#562,.F.);
#723=ORIENTED_EDGE('',*,*,#569,.T.);
#724=ORIENTED_EDGE('',*,*,#516,.T.);
#725=ORIENTED_EDGE('',*,*,#569,.F.);
#726=ORIENTED_EDGE('',*,*,#561,.F.);
#727=ORIENTED_EDGE('',*,*,#570,.T.);
#728=ORIENTED_EDGE('',*,*,#521,.T.);
#729=ORIENTED_EDGE('',*,*,#570,.F.);
#730=ORIENTED_EDGE('',*,*,#549,.F.);
#731=ORIENTED_EDGE('',*,*,#571,.T.);
#732=ORIENTED_EDGE('',*,*,#506,.T.);
#733=ORIENTED_EDGE('',*,*,#571,.F.);
#734=ORIENTED_EDGE('',*,*,#550,.F.);
#735=ORIENTED_EDGE('',*,*,#572,.T.);
#736=ORIENTED_EDGE('',*,*,#513,.T.);
#737=ORIENTED_EDGE('',*,*,#572,.F.);
#738=ORIENTED_EDGE('',*,*,#551,.F.);
#739=ORIENTED_EDGE('',*,*,#573,.T.);
#740=ORIENTED_EDGE('',*,*,#515,.T.);
#741=ORIENTED_EDGE('',*,*,#573,.F.);
#742=ORIENTED_EDGE('',*,*,#552,.F.);
#743=ORIENTED_EDGE('',*,*,#574,.T.);
#744=ORIENTED_EDGE('',*,*,#511,.T.);
#745=ORIENTED_EDGE('',*,*,#574,.F.);
#746=ORIENTED_EDGE('',*,*,#553,.F.);
#747=ORIENTED_EDGE('',*,*,#575,.T.);
#748=ORIENTED_EDGE('',*,*,#508,.T.);
#749=ORIENTED_EDGE('',*,*,#575,.F.);
#750=ORIENTED_EDGE('',*,*,#554,.F.);
#751=ORIENTED_EDGE('',*,*,#576,.T.);
#752=ORIENTED_EDGE('',*,*,#510,.T.);
#753=ORIENTED_EDGE('',*,*,#576,.F.);
#754=ORIENTED_EDGE('',*,*,#555,.F.);
#755=ORIENTED_EDGE('',*,*,#577,.T.);
#756=ORIENTED_EDGE('',*,*,#509,.T.);
#757=ORIENTED_EDGE('',*,*,#577,.F.);
#758=ORIENTED_EDGE('',*,*,#556,.F.);
#759=ORIENTED_EDGE('',*,*,#578,.T.);
#760=ORIENTED_EDGE('',*,*,#579,.T.);
#761=ORIENTED_EDGE('',*,*,#578,.F.);
#762=ORIENTED_EDGE('',*,*,#579,.F.);
#763=ORIENTED_EDGE('',*,*,#580,.F.);
#764=ORIENTED_EDGE('',*,*,#557,.F.);
#765=ORIENTED_EDGE('',*,*,#581,.T.);
#766=ORIENTED_EDGE('',*,*,#582,.T.);
#767=ORIENTED_EDGE('',*,*,#581,.F.);
#768=ORIENTED_EDGE('',*,*,#582,.F.);
#769=ORIENTED_EDGE('',*,*,#583,.F.);
#770=ORIENTED_EDGE('',*,*,#558,.F.);
#771=ORIENTED_EDGE('',*,*,#584,.T.);
#772=ORIENTED_EDGE('',*,*,#585,.T.);
#773=ORIENTED_EDGE('',*,*,#584,.F.);
#774=ORIENTED_EDGE('',*,*,#585,.F.);
#775=ORIENTED_EDGE('',*,*,#586,.F.);
#776=ORIENTED_EDGE('',*,*,#559,.F.);
#777=ORIENTED_EDGE('',*,*,#587,.T.);
#778=ORIENTED_EDGE('',*,*,#588,.T.);
#779=ORIENTED_EDGE('',*,*,#587,.F.);
#780=ORIENTED_EDGE('',*,*,#588,.F.);
#781=ORIENTED_EDGE('',*,*,#589,.F.);
#782=ORIENTED_EDGE('',*,*,#560,.F.);
#783=ORIENTED_EDGE('',*,*,#590,.T.);
#784=ORIENTED_EDGE('',*,*,#591,.T.);
#785=ORIENTED_EDGE('',*,*,#590,.F.);
#786=ORIENTED_EDGE('',*,*,#591,.F.);
#787=ORIENTED_EDGE('',*,*,#592,.F.);
#788=ORIENTED_EDGE('',*,*,#592,.T.);
#789=ORIENTED_EDGE('',*,*,#593,.T.);
#790=ORIENTED_EDGE('',*,*,#594,.T.);
#791=ORIENTED_EDGE('',*,*,#593,.F.);
#792=ORIENTED_EDGE('',*,*,#589,.T.);
#793=ORIENTED_EDGE('',*,*,#595,.T.);
#794=ORIENTED_EDGE('',*,*,#596,.T.);
#795=ORIENTED_EDGE('',*,*,#595,.F.);
#796=ORIENTED_EDGE('',*,*,#583,.T.);
#797=ORIENTED_EDGE('',*,*,#597,.T.);
#798=ORIENTED_EDGE('',*,*,#598,.T.);
#799=ORIENTED_EDGE('',*,*,#597,.F.);
#800=ORIENTED_EDGE('',*,*,#586,.T.);
#801=ORIENTED_EDGE('',*,*,#599,.T.);
#802=ORIENTED_EDGE('',*,*,#600,.T.);
#803=ORIENTED_EDGE('',*,*,#599,.F.);
#804=ORIENTED_EDGE('',*,*,#580,.T.);
#805=ORIENTED_EDGE('',*,*,#601,.T.);
#806=ORIENTED_EDGE('',*,*,#602,.T.);
#807=ORIENTED_EDGE('',*,*,#601,.F.);
#808=ORIENTED_EDGE('',*,*,#603,.F.);
#809=ORIENTED_EDGE('',*,*,#604,.T.);
#810=ORIENTED_EDGE('',*,*,#547,.F.);
#811=ORIENTED_EDGE('',*,*,#605,.F.);
#812=ORIENTED_EDGE('',*,*,#606,.T.);
#813=ORIENTED_EDGE('',*,*,#605,.T.);
#814=ORIENTED_EDGE('',*,*,#546,.F.);
#815=ORIENTED_EDGE('',*,*,#607,.F.);
#816=ORIENTED_EDGE('',*,*,#608,.T.);
#817=ORIENTED_EDGE('',*,*,#607,.T.);
#818=ORIENTED_EDGE('',*,*,#545,.F.);
#819=ORIENTED_EDGE('',*,*,#609,.F.);
#820=ORIENTED_EDGE('',*,*,#610,.F.);
#821=ORIENTED_EDGE('',*,*,#609,.T.);
#822=ORIENTED_EDGE('',*,*,#544,.F.);
#823=ORIENTED_EDGE('',*,*,#611,.F.);
#824=ORIENTED_EDGE('',*,*,#612,.T.);
#825=ORIENTED_EDGE('',*,*,#611,.T.);
#826=ORIENTED_EDGE('',*,*,#543,.F.);
#827=ORIENTED_EDGE('',*,*,#613,.F.);
#828=ORIENTED_EDGE('',*,*,#614,.F.);
#829=ORIENTED_EDGE('',*,*,#613,.T.);
#830=ORIENTED_EDGE('',*,*,#542,.F.);
#831=ORIENTED_EDGE('',*,*,#615,.F.);
#832=ORIENTED_EDGE('',*,*,#616,.T.);
#833=ORIENTED_EDGE('',*,*,#615,.T.);
#834=ORIENTED_EDGE('',*,*,#541,.F.);
#835=ORIENTED_EDGE('',*,*,#617,.F.);
#836=ORIENTED_EDGE('',*,*,#618,.T.);
#837=ORIENTED_EDGE('',*,*,#617,.T.);
#838=ORIENTED_EDGE('',*,*,#540,.F.);
#839=ORIENTED_EDGE('',*,*,#604,.F.);
#840=ORIENTED_EDGE('',*,*,#618,.F.);
#841=ORIENTED_EDGE('',*,*,#603,.T.);
#842=ORIENTED_EDGE('',*,*,#606,.F.);
#843=ORIENTED_EDGE('',*,*,#608,.F.);
#844=ORIENTED_EDGE('',*,*,#610,.T.);
#845=ORIENTED_EDGE('',*,*,#612,.F.);
#846=ORIENTED_EDGE('',*,*,#614,.T.);
#847=ORIENTED_EDGE('',*,*,#616,.F.);
#848=ORIENTED_EDGE('',*,*,#602,.F.);
#849=ORIENTED_EDGE('',*,*,#600,.F.);
#850=ORIENTED_EDGE('',*,*,#598,.F.);
#851=ORIENTED_EDGE('',*,*,#596,.F.);
#852=ORIENTED_EDGE('',*,*,#594,.F.);
#853=PLANE('',#970);
#854=PLANE('',#972);
#855=PLANE('',#974);
#856=PLANE('',#976);
#857=PLANE('',#978);
#858=PLANE('',#980);
#859=PLANE('',#982);
#860=PLANE('',#984);
#861=PLANE('',#986);
#862=PLANE('',#988);
#863=PLANE('',#990);
#864=PLANE('',#992);
#865=PLANE('',#994);
#866=PLANE('',#996);
#867=PLANE('',#998);
#868=PLANE('',#1000);
#869=PLANE('',#1002);
#870=PLANE('',#1004);
#871=PLANE('',#1006);
#872=PLANE('',#1008);
#873=PLANE('',#1028);
#874=PLANE('',#1048);
#875=PLANE('',#1062);
#876=PLANE('',#1066);
#877=PLANE('',#1070);
#878=PLANE('',#1074);
#879=PLANE('',#1078);
#880=PLANE('',#1090);
#881=PLANE('',#1091);
#882=PLANE('',#1092);
#883=PLANE('',#1093);
#884=PLANE('',#1094);
#885=PLANE('',#1095);
#886=PLANE('',#1096);
#887=PLANE('',#1097);
#888=PLANE('',#1098);
#889=ADVANCED_FACE('',(#192),#853,.T.);
#890=ADVANCED_FACE('',(#193),#854,.T.);
#891=ADVANCED_FACE('',(#194),#855,.T.);
#892=ADVANCED_FACE('',(#195),#856,.T.);
#893=ADVANCED_FACE('',(#196),#857,.T.);
#894=ADVANCED_FACE('',(#197),#858,.T.);
#895=ADVANCED_FACE('',(#198),#859,.T.);
#896=ADVANCED_FACE('',(#199),#860,.T.);
#897=ADVANCED_FACE('',(#200),#861,.T.);
#898=ADVANCED_FACE('',(#201),#862,.T.);
#899=ADVANCED_FACE('',(#202),#863,.T.);
#900=ADVANCED_FACE('',(#203),#864,.T.);
#901=ADVANCED_FACE('',(#204),#865,.T.);
#902=ADVANCED_FACE('',(#205),#866,.T.);
#903=ADVANCED_FACE('',(#206),#867,.T.);
#904=ADVANCED_FACE('',(#207),#868,.T.);
#905=ADVANCED_FACE('',(#208),#869,.T.);
#906=ADVANCED_FACE('',(#209),#870,.T.);
#907=ADVANCED_FACE('',(#210),#871,.T.);
#908=ADVANCED_FACE('',(#211),#872,.T.);
#909=ADVANCED_FACE('',(#212),#161,.F.);
#910=ADVANCED_FACE('',(#213),#162,.F.);
#911=ADVANCED_FACE('',(#214),#163,.F.);
#912=ADVANCED_FACE('',(#215),#164,.F.);
#913=ADVANCED_FACE('',(#216),#165,.F.);
#914=ADVANCED_FACE('',(#217),#166,.F.);
#915=ADVANCED_FACE('',(#218),#167,.F.);
#916=ADVANCED_FACE('',(#219),#168,.F.);
#917=ADVANCED_FACE('',(#220),#169,.F.);
#918=ADVANCED_FACE('',(#221,#15,#16,#17,#18,#19,#20,#21,#22,#23,#24,#25,
#26,#27,#28,#29,#30,#31,#32,#33,#34,#35,#36,#37,#38,#39,#40),#873,.T.);
#919=ADVANCED_FACE('',(#222),#170,.F.);
#920=ADVANCED_FACE('',(#223),#874,.T.);
#921=ADVANCED_FACE('',(#224),#171,.F.);
#922=ADVANCED_FACE('',(#225),#172,.F.);
#923=ADVANCED_FACE('',(#226),#173,.F.);
#924=ADVANCED_FACE('',(#227),#174,.F.);
#925=ADVANCED_FACE('',(#228),#175,.F.);
#926=ADVANCED_FACE('',(#229),#176,.F.);
#927=ADVANCED_FACE('',(#230),#177,.F.);
#928=ADVANCED_FACE('',(#231),#178,.F.);
#929=ADVANCED_FACE('',(#232),#179,.F.);
#930=ADVANCED_FACE('',(#233),#180,.F.);
#931=ADVANCED_FACE('',(#234),#181,.F.);
#932=ADVANCED_FACE('',(#235),#182,.F.);
#933=ADVANCED_FACE('',(#236,#41),#875,.T.);
#934=ADVANCED_FACE('',(#237),#183,.F.);
#935=ADVANCED_FACE('',(#238,#42),#876,.T.);
#936=ADVANCED_FACE('',(#239),#184,.F.);
#937=ADVANCED_FACE('',(#240,#43),#877,.T.);
#938=ADVANCED_FACE('',(#241),#185,.F.);
#939=ADVANCED_FACE('',(#242,#44),#878,.T.);
#940=ADVANCED_FACE('',(#243),#186,.F.);
#941=ADVANCED_FACE('',(#244,#45),#879,.T.);
#942=ADVANCED_FACE('',(#245),#187,.F.);
#943=ADVANCED_FACE('',(#246),#188,.F.);
#944=ADVANCED_FACE('',(#247),#189,.F.);
#945=ADVANCED_FACE('',(#248),#190,.F.);
#946=ADVANCED_FACE('',(#249),#191,.F.);
#947=ADVANCED_FACE('',(#250),#880,.T.);
#948=ADVANCED_FACE('',(#251),#881,.T.);
#949=ADVANCED_FACE('',(#252),#882,.T.);
#950=ADVANCED_FACE('',(#253),#883,.T.);
#951=ADVANCED_FACE('',(#254),#884,.T.);
#952=ADVANCED_FACE('',(#255),#885,.T.);
#953=ADVANCED_FACE('',(#256),#886,.T.);
#954=ADVANCED_FACE('',(#257),#887,.T.);
#955=ADVANCED_FACE('',(#258,#46,#47,#48,#49,#50),#888,.F.);
#956=CLOSED_SHELL('',(#889,#890,#891,#892,#893,#894,#895,#896,#897,#898,
#899,#900,#901,#902,#903,#904,#905,#906,#907,#908,#909,#910,#911,#912,#913,
#914,#915,#916,#917,#918,#919,#920,#921,#922,#923,#924,#925,#926,#927,#928,
#929,#930,#931,#932,#933,#934,#935,#936,#937,#938,#939,#940,#941,#942,#943,
#944,#945,#946,#947,#948,#949,#950,#951,#952,#953,#954,#955));
#957=DERIVED_UNIT_ELEMENT(#959,1.);
#958=DERIVED_UNIT_ELEMENT(#1682,-3.);
#959=(
MASS_UNIT()
NAMED_UNIT(*)
SI_UNIT(.KILO.,.GRAM.)
);
#960=DERIVED_UNIT((#957,#958));
#961=MEASURE_REPRESENTATION_ITEM('density measure',
POSITIVE_RATIO_MEASURE(1060.),#960);
#962=PROPERTY_DEFINITION_REPRESENTATION(#967,#964);
#963=PROPERTY_DEFINITION_REPRESENTATION(#968,#965);
#964=REPRESENTATION('material name',(#966),#1679);
#965=REPRESENTATION('density',(#961),#1679);
#966=DESCRIPTIVE_REPRESENTATION_ITEM('ABS \X2\D50CB77CC2A4D2F1\X0\',
'ABS \X2\D50CB77CC2A4D2F1\X0\');
#967=PROPERTY_DEFINITION('material property','material name',#1689);
#968=PROPERTY_DEFINITION('material property','density of part',#1689);
#969=AXIS2_PLACEMENT_3D('',#1414,#1099,#1100);
#970=AXIS2_PLACEMENT_3D('',#1415,#1101,#1102);
#971=AXIS2_PLACEMENT_3D('',#1417,#1103,#1104);
#972=AXIS2_PLACEMENT_3D('',#1418,#1105,#1106);
#973=AXIS2_PLACEMENT_3D('',#1420,#1107,#1108);
#974=AXIS2_PLACEMENT_3D('',#1421,#1109,#1110);
#975=AXIS2_PLACEMENT_3D('',#1423,#1111,#1112);
#976=AXIS2_PLACEMENT_3D('',#1424,#1113,#1114);
#977=AXIS2_PLACEMENT_3D('',#1426,#1115,#1116);
#978=AXIS2_PLACEMENT_3D('',#1427,#1117,#1118);
#979=AXIS2_PLACEMENT_3D('',#1429,#1119,#1120);
#980=AXIS2_PLACEMENT_3D('',#1430,#1121,#1122);
#981=AXIS2_PLACEMENT_3D('',#1432,#1123,#1124);
#982=AXIS2_PLACEMENT_3D('',#1433,#1125,#1126);
#983=AXIS2_PLACEMENT_3D('',#1435,#1127,#1128);
#984=AXIS2_PLACEMENT_3D('',#1436,#1129,#1130);
#985=AXIS2_PLACEMENT_3D('',#1438,#1131,#1132);
#986=AXIS2_PLACEMENT_3D('',#1439,#1133,#1134);
#987=AXIS2_PLACEMENT_3D('',#1441,#1135,#1136);
#988=AXIS2_PLACEMENT_3D('',#1442,#1137,#1138);
#989=AXIS2_PLACEMENT_3D('',#1444,#1139,#1140);
#990=AXIS2_PLACEMENT_3D('',#1445,#1141,#1142);
#991=AXIS2_PLACEMENT_3D('',#1447,#1143,#1144);
#992=AXIS2_PLACEMENT_3D('',#1448,#1145,#1146);
#993=AXIS2_PLACEMENT_3D('',#1450,#1147,#1148);
#994=AXIS2_PLACEMENT_3D('',#1451,#1149,#1150);
#995=AXIS2_PLACEMENT_3D('',#1453,#1151,#1152);
#996=AXIS2_PLACEMENT_3D('',#1454,#1153,#1154);
#997=AXIS2_PLACEMENT_3D('',#1456,#1155,#1156);
#998=AXIS2_PLACEMENT_3D('',#1457,#1157,#1158);
#999=AXIS2_PLACEMENT_3D('',#1459,#1159,#1160);
#1000=AXIS2_PLACEMENT_3D('',#1460,#1161,#1162);
#1001=AXIS2_PLACEMENT_3D('',#1462,#1163,#1164);
#1002=AXIS2_PLACEMENT_3D('',#1463,#1165,#1166);
#1003=AXIS2_PLACEMENT_3D('',#1465,#1167,#1168);
#1004=AXIS2_PLACEMENT_3D('',#1466,#1169,#1170);
#1005=AXIS2_PLACEMENT_3D('',#1468,#1171,#1172);
#1006=AXIS2_PLACEMENT_3D('',#1469,#1173,#1174);
#1007=AXIS2_PLACEMENT_3D('',#1471,#1175,#1176);
#1008=AXIS2_PLACEMENT_3D('',#1472,#1177,#1178);
#1009=AXIS2_PLACEMENT_3D('',#1474,#1179,#1180);
#1010=AXIS2_PLACEMENT_3D('',#1475,#1181,#1182);
#1011=AXIS2_PLACEMENT_3D('',#1477,#1183,#1184);
#1012=AXIS2_PLACEMENT_3D('',#1479,#1186,#1187);
#1013=AXIS2_PLACEMENT_3D('',#1481,#1188,#1189);
#1014=AXIS2_PLACEMENT_3D('',#1483,#1191,#1192);
#1015=AXIS2_PLACEMENT_3D('',#1485,#1193,#1194);
#1016=AXIS2_PLACEMENT_3D('',#1487,#1196,#1197);
#1017=AXIS2_PLACEMENT_3D('',#1489,#1198,#1199);
#1018=AXIS2_PLACEMENT_3D('',#1491,#1201,#1202);
#1019=AXIS2_PLACEMENT_3D('',#1493,#1203,#1204);
#1020=AXIS2_PLACEMENT_3D('',#1495,#1206,#1207);
#1021=AXIS2_PLACEMENT_3D('',#1497,#1208,#1209);
#1022=AXIS2_PLACEMENT_3D('',#1499,#1211,#1212);
#1023=AXIS2_PLACEMENT_3D('',#1501,#1213,#1214);
#1024=AXIS2_PLACEMENT_3D('',#1503,#1216,#1217);
#1025=AXIS2_PLACEMENT_3D('',#1505,#1218,#1219);
#1026=AXIS2_PLACEMENT_3D('',#1507,#1221,#1222);
#1027=AXIS2_PLACEMENT_3D('',#1509,#1223,#1224);
#1028=AXIS2_PLACEMENT_3D('',#1511,#1226,#1227);
#1029=AXIS2_PLACEMENT_3D('',#1529,#1236,#1237);
#1030=AXIS2_PLACEMENT_3D('',#1531,#1238,#1239);
#1031=AXIS2_PLACEMENT_3D('',#1533,#1240,#1241);
#1032=AXIS2_PLACEMENT_3D('',#1535,#1242,#1243);
#1033=AXIS2_PLACEMENT_3D('',#1537,#1244,#1245);
#1034=AXIS2_PLACEMENT_3D('',#1539,#1246,#1247);
#1035=AXIS2_PLACEMENT_3D('',#1541,#1248,#1249);
#1036=AXIS2_PLACEMENT_3D('',#1543,#1250,#1251);
#1037=AXIS2_PLACEMENT_3D('',#1545,#1252,#1253);
#1038=AXIS2_PLACEMENT_3D('',#1547,#1254,#1255);
#1039=AXIS2_PLACEMENT_3D('',#1549,#1256,#1257);
#1040=AXIS2_PLACEMENT_3D('',#1551,#1258,#1259);
#1041=AXIS2_PLACEMENT_3D('',#1553,#1260,#1261);
#1042=AXIS2_PLACEMENT_3D('',#1555,#1262,#1263);
#1043=AXIS2_PLACEMENT_3D('',#1557,#1264,#1265);
#1044=AXIS2_PLACEMENT_3D('',#1559,#1266,#1267);
#1045=AXIS2_PLACEMENT_3D('',#1561,#1268,#1269);
#1046=AXIS2_PLACEMENT_3D('',#1562,#1270,#1271);
#1047=AXIS2_PLACEMENT_3D('',#1565,#1273,#1274);
#1048=AXIS2_PLACEMENT_3D('',#1566,#1275,#1276);
#1049=AXIS2_PLACEMENT_3D('',#1567,#1277,#1278);
#1050=AXIS2_PLACEMENT_3D('',#1569,#1280,#1281);
#1051=AXIS2_PLACEMENT_3D('',#1571,#1283,#1284);
#1052=AXIS2_PLACEMENT_3D('',#1573,#1286,#1287);
#1053=AXIS2_PLACEMENT_3D('',#1575,#1289,#1290);
#1054=AXIS2_PLACEMENT_3D('',#1577,#1292,#1293);
#1055=AXIS2_PLACEMENT_3D('',#1579,#1295,#1296);
#1056=AXIS2_PLACEMENT_3D('',#1581,#1298,#1299);
#1057=AXIS2_PLACEMENT_3D('',#1583,#1301,#1302);
#1058=AXIS2_PLACEMENT_3D('',#1585,#1304,#1305);
#1059=AXIS2_PLACEMENT_3D('',#1587,#1307,#1308);
#1060=AXIS2_PLACEMENT_3D('',#1589,#1310,#1311);
#1061=AXIS2_PLACEMENT_3D('',#1592,#1313,#1314);
#1062=AXIS2_PLACEMENT_3D('',#1593,#1315,#1316);
#1063=AXIS2_PLACEMENT_3D('',#1595,#1317,#1318);
#1064=AXIS2_PLACEMENT_3D('',#1596,#1319,#1320);
#1065=AXIS2_PLACEMENT_3D('',#1599,#1322,#1323);
#1066=AXIS2_PLACEMENT_3D('',#1600,#1324,#1325);
#1067=AXIS2_PLACEMENT_3D('',#1602,#1326,#1327);
#1068=AXIS2_PLACEMENT_3D('',#1603,#1328,#1329);
#1069=AXIS2_PLACEMENT_3D('',#1606,#1331,#1332);
#1070=AXIS2_PLACEMENT_3D('',#1607,#1333,#1334);
#1071=AXIS2_PLACEMENT_3D('',#1609,#1335,#1336);
#1072=AXIS2_PLACEMENT_3D('',#1610,#1337,#1338);
#1073=AXIS2_PLACEMENT_3D('',#1613,#1340,#1341);
#1074=AXIS2_PLACEMENT_3D('',#1614,#1342,#1343);
#1075=AXIS2_PLACEMENT_3D('',#1616,#1344,#1345);
#1076=AXIS2_PLACEMENT_3D('',#1617,#1346,#1347);
#1077=AXIS2_PLACEMENT_3D('',#1620,#1349,#1350);
#1078=AXIS2_PLACEMENT_3D('',#1621,#1351,#1352);
#1079=AXIS2_PLACEMENT_3D('',#1623,#1353,#1354);
#1080=AXIS2_PLACEMENT_3D('',#1624,#1355,#1356);
#1081=AXIS2_PLACEMENT_3D('',#1627,#1358,#1359);
#1082=AXIS2_PLACEMENT_3D('',#1628,#1360,#1361);
#1083=AXIS2_PLACEMENT_3D('',#1631,#1363,#1364);
#1084=AXIS2_PLACEMENT_3D('',#1632,#1365,#1366);
#1085=AXIS2_PLACEMENT_3D('',#1635,#1368,#1369);
#1086=AXIS2_PLACEMENT_3D('',#1636,#1370,#1371);
#1087=AXIS2_PLACEMENT_3D('',#1639,#1373,#1374);
#1088=AXIS2_PLACEMENT_3D('',#1640,#1375,#1376);
#1089=AXIS2_PLACEMENT_3D('',#1643,#1378,#1379);
#1090=AXIS2_PLACEMENT_3D('',#1644,#1380,#1381);
#1091=AXIS2_PLACEMENT_3D('',#1650,#1385,#1386);
#1092=AXIS2_PLACEMENT_3D('',#1654,#1389,#1390);
#1093=AXIS2_PLACEMENT_3D('',#1658,#1393,#1394);
#1094=AXIS2_PLACEMENT_3D('',#1662,#1397,#1398);
#1095=AXIS2_PLACEMENT_3D('',#1666,#1401,#1402);
#1096=AXIS2_PLACEMENT_3D('',#1670,#1405,#1406);
#1097=AXIS2_PLACEMENT_3D('',#1674,#1409,#1410);
#1098=AXIS2_PLACEMENT_3D('',#1676,#1412,#1413);
#1099=DIRECTION('axis',(0.,0.,1.));
#1100=DIRECTION('refdir',(1.,0.,0.));
#1101=DIRECTION('center_axis',(0.,0.,1.));
#1102=DIRECTION('ref_axis',(-1.,0.,0.));
#1103=DIRECTION('center_axis',(0.,0.,-1.));
#1104=DIRECTION('ref_axis',(-1.,0.,0.));
#1105=DIRECTION('center_axis',(0.,0.,1.));
#1106=DIRECTION('ref_axis',(-1.,0.,0.));
#1107=DIRECTION('center_axis',(0.,0.,-1.));
#1108=DIRECTION('ref_axis',(-1.,0.,0.));
#1109=DIRECTION('center_axis',(0.,0.,1.));
#1110=DIRECTION('ref_axis',(-1.,0.,0.));
#1111=DIRECTION('center_axis',(0.,0.,-1.));
#1112=DIRECTION('ref_axis',(-1.,0.,0.));
#1113=DIRECTION('center_axis',(0.,0.,1.));
#1114=DIRECTION('ref_axis',(-1.,0.,0.));
#1115=DIRECTION('center_axis',(0.,0.,-1.));
#1116=DIRECTION('ref_axis',(-1.,0.,0.));
#1117=DIRECTION('center_axis',(0.,0.,1.));
#1118=DIRECTION('ref_axis',(-1.,0.,0.));
#1119=DIRECTION('center_axis',(0.,0.,-1.));
#1120=DIRECTION('ref_axis',(-1.,0.,0.));
#1121=DIRECTION('center_axis',(0.,0.,1.));
#1122=DIRECTION('ref_axis',(-1.,0.,0.));
#1123=DIRECTION('center_axis',(0.,0.,-1.));
#1124=DIRECTION('ref_axis',(-1.,0.,0.));
#1125=DIRECTION('center_axis',(0.,0.,1.));
#1126=DIRECTION('ref_axis',(-1.,0.,0.));
#1127=DIRECTION('center_axis',(0.,0.,-1.));
#1128=DIRECTION('ref_axis',(-1.,0.,0.));
#1129=DIRECTION('center_axis',(0.,0.,1.));
#1130=DIRECTION('ref_axis',(-1.,0.,0.));
#1131=DIRECTION('center_axis',(0.,0.,-1.));
#1132=DIRECTION('ref_axis',(-1.,0.,0.));
#1133=DIRECTION('center_axis',(0.,0.,1.));
#1134=DIRECTION('ref_axis',(-1.,0.,0.));
#1135=DIRECTION('center_axis',(0.,0.,-1.));
#1136=DIRECTION('ref_axis',(-1.,0.,0.));
#1137=DIRECTION('center_axis',(0.,0.,1.));
#1138=DIRECTION('ref_axis',(-1.,0.,0.));
#1139=DIRECTION('center_axis',(0.,0.,-1.));
#1140=DIRECTION('ref_axis',(-1.,0.,0.));
#1141=DIRECTION('center_axis',(0.,0.,1.));
#1142=DIRECTION('ref_axis',(-1.,0.,0.));
#1143=DIRECTION('center_axis',(0.,0.,-1.));
#1144=DIRECTION('ref_axis',(-1.,0.,0.));
#1145=DIRECTION('center_axis',(0.,0.,1.));
#1146=DIRECTION('ref_axis',(-1.,0.,0.));
#1147=DIRECTION('center_axis',(0.,0.,-1.));
#1148=DIRECTION('ref_axis',(-1.,0.,0.));
#1149=DIRECTION('center_axis',(0.,0.,1.));
#1150=DIRECTION('ref_axis',(-1.,0.,0.));
#1151=DIRECTION('center_axis',(0.,0.,-1.));
#1152=DIRECTION('ref_axis',(-1.,0.,0.));
#1153=DIRECTION('center_axis',(0.,0.,1.));
#1154=DIRECTION('ref_axis',(-1.,0.,0.));
#1155=DIRECTION('center_axis',(0.,0.,-1.));
#1156=DIRECTION('ref_axis',(-1.,0.,0.));
#1157=DIRECTION('center_axis',(0.,0.,1.));
#1158=DIRECTION('ref_axis',(-1.,0.,0.));
#1159=DIRECTION('center_axis',(0.,0.,-1.));
#1160=DIRECTION('ref_axis',(-1.,0.,0.));
#1161=DIRECTION('center_axis',(0.,0.,1.));
#1162=DIRECTION('ref_axis',(-1.,0.,0.));
#1163=DIRECTION('center_axis',(0.,0.,-1.));
#1164=DIRECTION('ref_axis',(-1.,0.,0.));
#1165=DIRECTION('center_axis',(0.,0.,1.));
#1166=DIRECTION('ref_axis',(-1.,0.,0.));
#1167=DIRECTION('center_axis',(0.,0.,-1.));
#1168=DIRECTION('ref_axis',(-1.,0.,0.));
#1169=DIRECTION('center_axis',(0.,0.,1.));
#1170=DIRECTION('ref_axis',(-1.,0.,0.));
#1171=DIRECTION('center_axis',(0.,0.,-1.));
#1172=DIRECTION('ref_axis',(-1.,0.,0.));
#1173=DIRECTION('center_axis',(0.,0.,1.));
#1174=DIRECTION('ref_axis',(-1.,0.,0.));
#1175=DIRECTION('center_axis',(0.,0.,-1.));
#1176=DIRECTION('ref_axis',(-1.,0.,0.));
#1177=DIRECTION('center_axis',(0.,0.,1.));
#1178=DIRECTION('ref_axis',(-1.,0.,0.));
#1179=DIRECTION('center_axis',(0.,0.,-1.));
#1180=DIRECTION('ref_axis',(-1.,0.,0.));
#1181=DIRECTION('center_axis',(0.,0.,-1.));
#1182=DIRECTION('ref_axis',(-1.,0.,0.));
#1183=DIRECTION('center_axis',(0.,0.,-1.));
#1184=DIRECTION('ref_axis',(-1.,0.,0.));
#1185=DIRECTION('',(0.,0.,-1.));
#1186=DIRECTION('center_axis',(0.,0.,-1.));
#1187=DIRECTION('ref_axis',(-1.,0.,0.));
#1188=DIRECTION('center_axis',(0.,0.,-1.));
#1189=DIRECTION('ref_axis',(-1.,0.,0.));
#1190=DIRECTION('',(0.,0.,-1.));
#1191=DIRECTION('center_axis',(0.,0.,-1.));
#1192=DIRECTION('ref_axis',(-1.,0.,0.));
#1193=DIRECTION('center_axis',(0.,0.,-1.));
#1194=DIRECTION('ref_axis',(-1.,0.,0.));
#1195=DIRECTION('',(0.,0.,-1.));
#1196=DIRECTION('center_axis',(0.,0.,-1.));
#1197=DIRECTION('ref_axis',(-1.,0.,0.));
#1198=DIRECTION('center_axis',(0.,0.,-1.));
#1199=DIRECTION('ref_axis',(-1.,0.,0.));
#1200=DIRECTION('',(0.,0.,-1.));
#1201=DIRECTION('center_axis',(0.,0.,-1.));
#1202=DIRECTION('ref_axis',(-1.,0.,0.));
#1203=DIRECTION('center_axis',(0.,0.,-1.));
#1204=DIRECTION('ref_axis',(-1.,0.,0.));
#1205=DIRECTION('',(0.,0.,-1.));
#1206=DIRECTION('center_axis',(0.,0.,-1.));
#1207=DIRECTION('ref_axis',(-1.,0.,0.));
#1208=DIRECTION('center_axis',(0.,0.,-1.));
#1209=DIRECTION('ref_axis',(-1.,0.,0.));
#1210=DIRECTION('',(0.,0.,-1.));
#1211=DIRECTION('center_axis',(0.,0.,-1.));
#1212=DIRECTION('ref_axis',(-1.,0.,0.));
#1213=DIRECTION('center_axis',(0.,0.,-1.));
#1214=DIRECTION('ref_axis',(-1.,0.,0.));
#1215=DIRECTION('',(0.,0.,-1.));
#1216=DIRECTION('center_axis',(0.,0.,-1.));
#1217=DIRECTION('ref_axis',(-1.,0.,0.));
#1218=DIRECTION('center_axis',(0.,0.,-1.));
#1219=DIRECTION('ref_axis',(-1.,0.,0.));
#1220=DIRECTION('',(0.,0.,-1.));
#1221=DIRECTION('center_axis',(0.,0.,-1.));
#1222=DIRECTION('ref_axis',(-1.,0.,0.));
#1223=DIRECTION('center_axis',(0.,0.,-1.));
#1224=DIRECTION('ref_axis',(-1.,0.,0.));
#1225=DIRECTION('',(0.,0.,-1.));
#1226=DIRECTION('center_axis',(0.,0.,1.));
#1227=DIRECTION('ref_axis',(-1.,1.22464679914735E-16,0.));
#1228=DIRECTION('',(1.,-1.22464679914735E-16,0.));
#1229=DIRECTION('',(1.22464679914735E-16,1.,0.));
#1230=DIRECTION('',(-1.,1.22464679914735E-16,0.));
#1231=DIRECTION('',(-1.22464679914735E-16,-1.,0.));
#1232=DIRECTION('',(1.,-1.22464679914735E-16,0.));
#1233=DIRECTION('',(-1.22464679914735E-16,-1.,0.));
#1234=DIRECTION('',(1.,-1.22464679914735E-16,0.));
#1235=DIRECTION('',(-1.22464679914735E-16,-1.,0.));
#1236=DIRECTION('center_axis',(0.,0.,-1.));
#1237=DIRECTION('ref_axis',(-1.,0.,0.));
#1238=DIRECTION('center_axis',(0.,0.,-1.));
#1239=DIRECTION('ref_axis',(-1.,0.,0.));
#1240=DIRECTION('center_axis',(0.,0.,-1.));
#1241=DIRECTION('ref_axis',(-1.,0.,0.));
#1242=DIRECTION('center_axis',(0.,0.,-1.));
#1243=DIRECTION('ref_axis',(-1.,0.,0.));
#1244=DIRECTION('center_axis',(0.,0.,-1.));
#1245=DIRECTION('ref_axis',(-1.,0.,0.));
#1246=DIRECTION('center_axis',(0.,0.,-1.));
#1247=DIRECTION('ref_axis',(-1.,0.,0.));
#1248=DIRECTION('center_axis',(0.,0.,-1.));
#1249=DIRECTION('ref_axis',(-1.,0.,0.));
#1250=DIRECTION('center_axis',(0.,0.,-1.));
#1251=DIRECTION('ref_axis',(-1.,0.,0.));
#1252=DIRECTION('center_axis',(0.,0.,-1.));
#1253=DIRECTION('ref_axis',(1.,-1.22464679914735E-16,0.));
#1254=DIRECTION('center_axis',(0.,0.,-1.));
#1255=DIRECTION('ref_axis',(1.,-1.22464679914735E-16,0.));
#1256=DIRECTION('center_axis',(0.,0.,-1.));
#1257=DIRECTION('ref_axis',(1.,-1.22464679914735E-16,0.));
#1258=DIRECTION('center_axis',(0.,0.,-1.));
#1259=DIRECTION('ref_axis',(1.,-1.22464679914735E-16,0.));
#1260=DIRECTION('center_axis',(0.,0.,-1.));
#1261=DIRECTION('ref_axis',(1.,-1.22464679914735E-16,0.));
#1262=DIRECTION('center_axis',(0.,0.,-1.));
#1263=DIRECTION('ref_axis',(-1.,0.,0.));
#1264=DIRECTION('center_axis',(0.,0.,-1.));
#1265=DIRECTION('ref_axis',(-1.,0.,0.));
#1266=DIRECTION('center_axis',(0.,0.,-1.));
#1267=DIRECTION('ref_axis',(-1.,0.,0.));
#1268=DIRECTION('center_axis',(0.,0.,-1.));
#1269=DIRECTION('ref_axis',(-1.,0.,0.));
#1270=DIRECTION('center_axis',(0.,0.,-1.));
#1271=DIRECTION('ref_axis',(-1.,0.,0.));
#1272=DIRECTION('',(0.,0.,-1.));
#1273=DIRECTION('center_axis',(0.,0.,-1.));
#1274=DIRECTION('ref_axis',(-1.,0.,0.));
#1275=DIRECTION('center_axis',(0.,0.,1.));
#1276=DIRECTION('ref_axis',(-1.,0.,0.));
#1277=DIRECTION('center_axis',(0.,0.,-1.));
#1278=DIRECTION('ref_axis',(-1.,0.,0.));
#1279=DIRECTION('',(0.,0.,-1.));
#1280=DIRECTION('center_axis',(0.,0.,-1.));
#1281=DIRECTION('ref_axis',(-1.,0.,0.));
#1282=DIRECTION('',(0.,0.,-1.));
#1283=DIRECTION('center_axis',(0.,0.,-1.));
#1284=DIRECTION('ref_axis',(-1.,0.,0.));
#1285=DIRECTION('',(0.,0.,-1.));
#1286=DIRECTION('center_axis',(0.,0.,-1.));
#1287=DIRECTION('ref_axis',(-1.,0.,0.));
#1288=DIRECTION('',(0.,0.,-1.));
#1289=DIRECTION('center_axis',(0.,0.,-1.));
#1290=DIRECTION('ref_axis',(-1.,0.,0.));
#1291=DIRECTION('',(0.,0.,-1.));
#1292=DIRECTION('center_axis',(0.,0.,-1.));
#1293=DIRECTION('ref_axis',(-1.,0.,0.));
#1294=DIRECTION('',(0.,0.,-1.));
#1295=DIRECTION('center_axis',(0.,0.,-1.));
#1296=DIRECTION('ref_axis',(-1.,0.,0.));
#1297=DIRECTION('',(0.,0.,-1.));
#1298=DIRECTION('center_axis',(0.,0.,-1.));
#1299=DIRECTION('ref_axis',(-1.,0.,0.));
#1300=DIRECTION('',(0.,0.,-1.));
#1301=DIRECTION('center_axis',(0.,0.,-1.));
#1302=DIRECTION('ref_axis',(-1.,0.,0.));
#1303=DIRECTION('',(0.,0.,-1.));
#1304=DIRECTION('center_axis',(0.,0.,-1.));
#1305=DIRECTION('ref_axis',(-1.,0.,0.));
#1306=DIRECTION('',(0.,0.,-1.));
#1307=DIRECTION('center_axis',(0.,0.,-1.));
#1308=DIRECTION('ref_axis',(-1.,0.,0.));
#1309=DIRECTION('',(0.,0.,-1.));
#1310=DIRECTION('center_axis',(0.,0.,-1.));
#1311=DIRECTION('ref_axis',(1.,-1.22464679914735E-16,0.));
#1312=DIRECTION('',(0.,0.,-1.));
#1313=DIRECTION('center_axis',(0.,0.,-1.));
#1314=DIRECTION('ref_axis',(1.,-1.22464679914735E-16,0.));
#1315=DIRECTION('center_axis',(0.,0.,1.));
#1316=DIRECTION('ref_axis',(1.,-1.22464679914735E-16,0.));
#1317=DIRECTION('center_axis',(0.,0.,1.));
#1318=DIRECTION('ref_axis',(-1.,1.22464679914735E-16,0.));
#1319=DIRECTION('center_axis',(0.,0.,-1.));
#1320=DIRECTION('ref_axis',(1.,-1.22464679914735E-16,0.));
#1321=DIRECTION('',(0.,0.,-1.));
#1322=DIRECTION('center_axis',(0.,0.,-1.));
#1323=DIRECTION('ref_axis',(1.,-1.22464679914735E-16,0.));
#1324=DIRECTION('center_axis',(0.,0.,1.));
#1325=DIRECTION('ref_axis',(1.,-1.22464679914735E-16,0.));
#1326=DIRECTION('center_axis',(0.,0.,1.));
#1327=DIRECTION('ref_axis',(-1.,1.22464679914735E-16,0.));
#1328=DIRECTION('center_axis',(0.,0.,-1.));
#1329=DIRECTION('ref_axis',(1.,-1.22464679914735E-16,0.));
#1330=DIRECTION('',(0.,0.,-1.));
#1331=DIRECTION('center_axis',(0.,0.,-1.));
#1332=DIRECTION('ref_axis',(1.,-1.22464679914735E-16,0.));
#1333=DIRECTION('center_axis',(0.,0.,1.));
#1334=DIRECTION('ref_axis',(1.,-1.22464679914735E-16,0.));
#1335=DIRECTION('center_axis',(0.,0.,1.));
#1336=DIRECTION('ref_axis',(-1.,1.22464679914735E-16,0.));
#1337=DIRECTION('center_axis',(0.,0.,-1.));
#1338=DIRECTION('ref_axis',(1.,-1.22464679914735E-16,0.));
#1339=DIRECTION('',(0.,0.,-1.));
#1340=DIRECTION('center_axis',(0.,0.,-1.));
#1341=DIRECTION('ref_axis',(1.,-1.22464679914735E-16,0.));
#1342=DIRECTION('center_axis',(0.,0.,1.));
#1343=DIRECTION('ref_axis',(1.,-1.22464679914735E-16,0.));
#1344=DIRECTION('center_axis',(0.,0.,1.));
#1345=DIRECTION('ref_axis',(-1.,1.22464679914735E-16,0.));
#1346=DIRECTION('center_axis',(0.,0.,-1.));
#1347=DIRECTION('ref_axis',(1.,-1.22464679914735E-16,0.));
#1348=DIRECTION('',(0.,0.,-1.));
#1349=DIRECTION('center_axis',(0.,0.,-1.));
#1350=DIRECTION('ref_axis',(1.,-1.22464679914735E-16,0.));
#1351=DIRECTION('center_axis',(0.,0.,1.));
#1352=DIRECTION('ref_axis',(1.,-1.22464679914735E-16,0.));
#1353=DIRECTION('center_axis',(0.,0.,1.));
#1354=DIRECTION('ref_axis',(-1.,1.22464679914735E-16,0.));
#1355=DIRECTION('center_axis',(0.,0.,1.));
#1356=DIRECTION('ref_axis',(-1.,1.22464679914735E-16,0.));
#1357=DIRECTION('',(0.,0.,-1.));
#1358=DIRECTION('center_axis',(0.,0.,-1.));
#1359=DIRECTION('ref_axis',(-1.,1.22464679914735E-16,0.));
#1360=DIRECTION('center_axis',(0.,0.,1.));
#1361=DIRECTION('ref_axis',(-1.,1.22464679914735E-16,0.));
#1362=DIRECTION('',(0.,0.,-1.));
#1363=DIRECTION('center_axis',(0.,0.,-1.));
#1364=DIRECTION('ref_axis',(-1.,1.22464679914735E-16,0.));
#1365=DIRECTION('center_axis',(0.,0.,1.));
#1366=DIRECTION('ref_axis',(-1.,1.22464679914735E-16,0.));
#1367=DIRECTION('',(0.,0.,-1.));
#1368=DIRECTION('center_axis',(0.,0.,-1.));
#1369=DIRECTION('ref_axis',(-1.,1.22464679914735E-16,0.));
#1370=DIRECTION('center_axis',(0.,0.,1.));
#1371=DIRECTION('ref_axis',(-1.,1.22464679914735E-16,0.));
#1372=DIRECTION('',(0.,0.,-1.));
#1373=DIRECTION('center_axis',(0.,0.,-1.));
#1374=DIRECTION('ref_axis',(-1.,1.22464679914735E-16,0.));
#1375=DIRECTION('center_axis',(0.,0.,1.));
#1376=DIRECTION('ref_axis',(-1.,1.22464679914735E-16,0.));
#1377=DIRECTION('',(0.,0.,-1.));
#1378=DIRECTION('center_axis',(0.,0.,-1.));
#1379=DIRECTION('ref_axis',(-1.,1.22464679914735E-16,0.));
#1380=DIRECTION('center_axis',(-1.,1.22464679914735E-16,0.));
#1381=DIRECTION('ref_axis',(-1.22464679914735E-16,-1.,0.));
#1382=DIRECTION('',(1.22464679914735E-16,1.,0.));
#1383=DIRECTION('',(0.,0.,1.));
#1384=DIRECTION('',(0.,0.,1.));
#1385=DIRECTION('center_axis',(-1.22464679914735E-16,-1.,0.));
#1386=DIRECTION('ref_axis',(1.,-1.22464679914735E-16,0.));
#1387=DIRECTION('',(1.,-1.22464679914735E-16,0.));
#1388=DIRECTION('',(0.,0.,1.));
#1389=DIRECTION('center_axis',(-1.,1.22464679914735E-16,0.));
#1390=DIRECTION('ref_axis',(-1.22464679914735E-16,-1.,0.));
#1391=DIRECTION('',(-1.22464679914735E-16,-1.,0.));
#1392=DIRECTION('',(0.,0.,1.));
#1393=DIRECTION('center_axis',(-1.22464679914735E-16,-1.,0.));
#1394=DIRECTION('ref_axis',(1.,-1.22464679914735E-16,0.));
#1395=DIRECTION('',(-1.,1.22464679914735E-16,0.));
#1396=DIRECTION('',(0.,0.,1.));
#1397=DIRECTION('center_axis',(-1.,1.22464679914735E-16,0.));
#1398=DIRECTION('ref_axis',(-1.22464679914735E-16,-1.,0.));
#1399=DIRECTION('',(-1.22464679914735E-16,-1.,0.));
#1400=DIRECTION('',(0.,0.,1.));
#1401=DIRECTION('center_axis',(1.22464679914735E-16,1.,0.));
#1402=DIRECTION('ref_axis',(-1.,1.22464679914735E-16,0.));
#1403=DIRECTION('',(1.,-1.22464679914735E-16,0.));
#1404=DIRECTION('',(0.,0.,1.));
#1405=DIRECTION('center_axis',(1.,-1.22464679914735E-16,0.));
#1406=DIRECTION('ref_axis',(1.22464679914735E-16,1.,0.));
#1407=DIRECTION('',(1.22464679914735E-16,1.,0.));
#1408=DIRECTION('',(0.,0.,1.));
#1409=DIRECTION('center_axis',(-1.22464679914735E-16,-1.,0.));
#1410=DIRECTION('ref_axis',(1.,-1.22464679914735E-16,0.));
#1411=DIRECTION('',(1.,-1.22464679914735E-16,0.));
#1412=DIRECTION('center_axis',(0.,0.,1.));
#1413=DIRECTION('ref_axis',(-1.,1.22464679914735E-16,0.));
#1414=CARTESIAN_POINT('',(0.,0.,0.));
#1415=CARTESIAN_POINT('Origin',(1.55,19.05,0.25));
#1416=CARTESIAN_POINT('',(1.75,19.05,0.25));
#1417=CARTESIAN_POINT('Origin',(1.55,19.05,0.25));
#1418=CARTESIAN_POINT('Origin',(7.45,19.05,0.25));
#1419=CARTESIAN_POINT('',(7.65,19.05,0.25));
#1420=CARTESIAN_POINT('Origin',(7.45,19.05,0.25));
#1421=CARTESIAN_POINT('Origin',(1.55,11.95,0.25));
#1422=CARTESIAN_POINT('',(1.75,11.95,0.25));
#1423=CARTESIAN_POINT('Origin',(1.55,11.95,0.25));
#1424=CARTESIAN_POINT('Origin',(7.45,11.95,0.25));
#1425=CARTESIAN_POINT('',(7.65,11.95,0.25));
#1426=CARTESIAN_POINT('Origin',(7.45,11.95,0.25));
#1427=CARTESIAN_POINT('Origin',(13.4746032650366,12.1528682345372,0.25));
#1428=CARTESIAN_POINT('',(13.6746032650366,12.1528682345372,0.25));
#1429=CARTESIAN_POINT('Origin',(13.4746032650366,12.1528682345372,0.25));
#1430=CARTESIAN_POINT('Origin',(10.4760640771206,4.01657445815275,0.25));
#1431=CARTESIAN_POINT('',(10.6760640771206,4.01657445815275,0.25));
#1432=CARTESIAN_POINT('Origin',(10.4760640771206,4.01657445815275,0.25));
#1433=CARTESIAN_POINT('Origin',(12.1372617356139,7.04080268501989,0.25));
#1434=CARTESIAN_POINT('',(12.3372617356139,7.04080268501989,0.25));
#1435=CARTESIAN_POINT('Origin',(12.1372617356139,7.04080268501989,0.25));
#1436=CARTESIAN_POINT('Origin',(10.1372617356139,7.04080268501989,0.25));
#1437=CARTESIAN_POINT('',(10.3372617356139,7.04080268501989,0.25));
#1438=CARTESIAN_POINT('Origin',(10.1372617356139,7.04080268501989,0.25));
#1439=CARTESIAN_POINT('Origin',(10.1404040934422,12.0434308854351,0.25));
#1440=CARTESIAN_POINT('',(10.3404040934422,12.0434308854351,0.25));
#1441=CARTESIAN_POINT('Origin',(10.1404040934422,12.0434308854351,0.25));
#1442=CARTESIAN_POINT('Origin',(16.4746032650366,12.1528682345372,0.25));
#1443=CARTESIAN_POINT('',(16.6746032650366,12.1528682345372,0.25));
#1444=CARTESIAN_POINT('Origin',(16.4746032650366,12.1528682345372,0.25));
#1445=CARTESIAN_POINT('Origin',(5.45,11.95,0.25));
#1446=CARTESIAN_POINT('',(5.65,11.95,0.25));
#1447=CARTESIAN_POINT('Origin',(5.45,11.95,0.25));
#1448=CARTESIAN_POINT('Origin',(10.4739664535388,16.2500001780689,0.25));
#1449=CARTESIAN_POINT('',(10.6739664535388,16.2500001780689,0.25));
#1450=CARTESIAN_POINT('Origin',(10.4739664535388,16.2500001780689,0.25));
#1451=CARTESIAN_POINT('Origin',(5.45,19.05,0.25));
#1452=CARTESIAN_POINT('',(5.65,19.05,0.25));
#1453=CARTESIAN_POINT('Origin',(5.45,19.05,0.25));
#1454=CARTESIAN_POINT('Origin',(7.97000011846423,21.7500001780689,0.25));
#1455=CARTESIAN_POINT('',(8.17000011846423,21.7500001780689,0.25));
#1456=CARTESIAN_POINT('Origin',(7.97000011846423,21.7500001780689,0.25));
#1457=CARTESIAN_POINT('Origin',(14.1457917295033,15.2082863821158,0.15));
#1458=CARTESIAN_POINT('',(14.2957917295033,15.2082863821158,0.15));
#1459=CARTESIAN_POINT('Origin',(14.1457917295033,15.2082863821158,0.15));
#1460=CARTESIAN_POINT('Origin',(8.34843084143948,5.85768855352796,0.15));
#1461=CARTESIAN_POINT('',(8.49843084143948,5.85768855352796,0.15));
#1462=CARTESIAN_POINT('Origin',(8.34843084143948,5.85768855352796,0.15));
#1463=CARTESIAN_POINT('Origin',(14.1376917174375,2.9644247523722,0.15));
#1464=CARTESIAN_POINT('',(14.2876917174375,2.9644247523722,0.15));
#1465=CARTESIAN_POINT('Origin',(14.1376917174375,2.9644247523722,0.15));
#1466=CARTESIAN_POINT('Origin',(14.1376917174375,1.1134247523722,0.15));
#1467=CARTESIAN_POINT('',(14.2876917174375,1.1134247523722,0.15));
#1468=CARTESIAN_POINT('Origin',(14.1376917174375,1.1134247523722,0.15));
#1469=CARTESIAN_POINT('Origin',(6.49751017829614,5.85768855352795,0.15));
#1470=CARTESIAN_POINT('',(6.64751017829614,5.85768855352795,0.15));
#1471=CARTESIAN_POINT('Origin',(6.49751017829614,5.85768855352795,0.15));
#1472=CARTESIAN_POINT('Origin',(14.1457917295033,17.0592070452592,0.15));
#1473=CARTESIAN_POINT('',(14.2957917295033,17.0592070452592,0.15));
#1474=CARTESIAN_POINT('Origin',(14.1457917295033,17.0592070452592,0.15));
#1475=CARTESIAN_POINT('Origin',(10.4760640771206,4.01657445815275,1.));
#1476=CARTESIAN_POINT('',(10.6760640771206,4.01657445815275,1.));
#1477=CARTESIAN_POINT('Origin',(10.4760640771206,4.01657445815275,1.));
#1478=CARTESIAN_POINT('',(10.6760640771206,4.01657445815275,1.));
#1479=CARTESIAN_POINT('Origin',(14.1376917174375,2.9644247523722,1.));
#1480=CARTESIAN_POINT('',(14.2876917174375,2.9644247523722,1.));
#1481=CARTESIAN_POINT('Origin',(14.1376917174375,2.9644247523722,1.));
#1482=CARTESIAN_POINT('',(14.2876917174375,2.9644247523722,1.));
#1483=CARTESIAN_POINT('Origin',(14.1376917174375,1.1134247523722,1.));
#1484=CARTESIAN_POINT('',(14.2876917174375,1.1134247523722,1.));
#1485=CARTESIAN_POINT('Origin',(14.1376917174375,1.1134247523722,1.));
#1486=CARTESIAN_POINT('',(14.2876917174375,1.1134247523722,1.));
#1487=CARTESIAN_POINT('Origin',(7.45,11.95,1.));
#1488=CARTESIAN_POINT('',(7.65,11.95,1.));
#1489=CARTESIAN_POINT('Origin',(7.45,11.95,1.));
#1490=CARTESIAN_POINT('',(7.65,11.95,1.));
#1491=CARTESIAN_POINT('Origin',(7.45,19.05,1.));
#1492=CARTESIAN_POINT('',(7.65,19.05,1.));
#1493=CARTESIAN_POINT('Origin',(7.45,19.05,1.));
#1494=CARTESIAN_POINT('',(7.65,19.05,1.));
#1495=CARTESIAN_POINT('Origin',(1.55,11.95,1.));
#1496=CARTESIAN_POINT('',(1.75,11.95,1.));
#1497=CARTESIAN_POINT('Origin',(1.55,11.95,1.));
#1498=CARTESIAN_POINT('',(1.75,11.95,1.));
#1499=CARTESIAN_POINT('Origin',(1.55,19.05,1.));
#1500=CARTESIAN_POINT('',(1.75,19.05,1.));
#1501=CARTESIAN_POINT('Origin',(1.55,19.05,1.));
#1502=CARTESIAN_POINT('',(1.75,19.05,1.));
#1503=CARTESIAN_POINT('Origin',(5.45,19.05,1.));
#1504=CARTESIAN_POINT('',(5.65,19.05,1.));
#1505=CARTESIAN_POINT('Origin',(5.45,19.05,1.));
#1506=CARTESIAN_POINT('',(5.65,19.05,1.));
#1507=CARTESIAN_POINT('Origin',(5.45,11.95,1.));
#1508=CARTESIAN_POINT('',(5.65,11.95,1.));
#1509=CARTESIAN_POINT('Origin',(5.45,11.95,1.));
#1510=CARTESIAN_POINT('',(5.65,11.95,1.));
#1511=CARTESIAN_POINT('Origin',(8.875,11.225,1.));
#1512=CARTESIAN_POINT('',(6.,0.,1.));
#1513=CARTESIAN_POINT('',(17.75,0.,1.));
#1514=CARTESIAN_POINT('',(-3.5527136788005E-15,3.5527136788005E-15,1.));
#1515=CARTESIAN_POINT('',(17.75,22.45,1.));
#1516=CARTESIAN_POINT('',(17.75,0.,1.));
#1517=CARTESIAN_POINT('',(0.,22.45,1.));
#1518=CARTESIAN_POINT('',(0.,22.45,1.));
#1519=CARTESIAN_POINT('',(-3.5527136788005E-15,6.,1.));
#1520=CARTESIAN_POINT('',(3.5527136788005E-15,45.5,1.));
#1521=CARTESIAN_POINT('',(3.,6.,1.));
#1522=CARTESIAN_POINT('',(3.,6.,1.));
#1523=CARTESIAN_POINT('',(3.,3.,1.));
#1524=CARTESIAN_POINT('',(3.,6.,1.));
#1525=CARTESIAN_POINT('',(6.,3.,1.));
#1526=CARTESIAN_POINT('',(3.,3.,1.));
#1527=CARTESIAN_POINT('',(6.,0.,1.));
#1528=CARTESIAN_POINT('',(14.2250002078712,7.1500001065433,1.));
#1529=CARTESIAN_POINT('Origin',(13.9500002078712,7.1500001065433,1.));
#1530=CARTESIAN_POINT('',(13.6746032650366,12.1528682345372,1.));
#1531=CARTESIAN_POINT('Origin',(13.4746032650366,12.1528682345372,1.));
#1532=CARTESIAN_POINT('',(10.6739664535388,16.2500001780689,1.));
#1533=CARTESIAN_POINT('Origin',(10.4739664535388,16.2500001780689,1.));
#1534=CARTESIAN_POINT('',(8.17000011846423,21.7500001780689,1.));
#1535=CARTESIAN_POINT('Origin',(7.97000011846423,21.7500001780689,1.));
#1536=CARTESIAN_POINT('',(16.6746032650366,12.1528682345372,1.));
#1537=CARTESIAN_POINT('Origin',(16.4746032650366,12.1528682345372,1.));
#1538=CARTESIAN_POINT('',(12.3372617356139,7.04080268501989,1.));
#1539=CARTESIAN_POINT('Origin',(12.1372617356139,7.04080268501989,1.));
#1540=CARTESIAN_POINT('',(10.3404040934422,12.0434308854351,1.));
#1541=CARTESIAN_POINT('Origin',(10.1404040934422,12.0434308854351,1.));
#1542=CARTESIAN_POINT('',(10.3372617356139,7.04080268501989,1.));
#1543=CARTESIAN_POINT('Origin',(10.1372617356139,7.04080268501989,1.));
#1544=CARTESIAN_POINT('',(7.09999958276748,1.5,1.));
#1545=CARTESIAN_POINT('Origin',(7.49999958276748,1.5,1.));
#1546=CARTESIAN_POINT('',(1.1,7.5,1.));
#1547=CARTESIAN_POINT('Origin',(1.5,7.5,1.));
#1548=CARTESIAN_POINT('',(15.85,1.5,1.));
#1549=CARTESIAN_POINT('Origin',(16.25,1.5,1.));
#1550=CARTESIAN_POINT('',(1.1,20.95,1.));
#1551=CARTESIAN_POINT('Origin',(1.5,20.95,1.));
#1552=CARTESIAN_POINT('',(15.85,20.95,1.));
#1553=CARTESIAN_POINT('Origin',(16.25,20.95,1.));
#1554=CARTESIAN_POINT('',(14.2957917295033,17.0592070452592,1.));
#1555=CARTESIAN_POINT('Origin',(14.1457917295033,17.0592070452592,1.));
#1556=CARTESIAN_POINT('',(14.2957917295033,15.2082863821158,1.));
#1557=CARTESIAN_POINT('Origin',(14.1457917295033,15.2082863821158,1.));
#1558=CARTESIAN_POINT('',(6.64751017829614,5.85768855352795,1.));
#1559=CARTESIAN_POINT('Origin',(6.49751017829614,5.85768855352795,1.));
#1560=CARTESIAN_POINT('',(8.49843084143948,5.85768855352796,1.));
#1561=CARTESIAN_POINT('Origin',(8.34843084143948,5.85768855352796,1.));
#1562=CARTESIAN_POINT('Origin',(13.9500002078712,7.1500001065433,1.));
#1563=CARTESIAN_POINT('',(14.2250002078712,7.1500001065433,0.25));
#1564=CARTESIAN_POINT('',(14.2250002078712,7.1500001065433,1.));
#1565=CARTESIAN_POINT('Origin',(13.9500002078712,7.1500001065433,0.25));
#1566=CARTESIAN_POINT('Origin',(13.9500002078712,7.1500001065433,0.25));
#1567=CARTESIAN_POINT('Origin',(8.34843084143948,5.85768855352796,1.));
#1568=CARTESIAN_POINT('',(8.49843084143948,5.85768855352796,1.));
#1569=CARTESIAN_POINT('Origin',(6.49751017829614,5.85768855352795,1.));
#1570=CARTESIAN_POINT('',(6.64751017829614,5.85768855352795,1.));
#1571=CARTESIAN_POINT('Origin',(14.1457917295033,15.2082863821158,1.));
#1572=CARTESIAN_POINT('',(14.2957917295033,15.2082863821158,1.));
#1573=CARTESIAN_POINT('Origin',(14.1457917295033,17.0592070452592,1.));
#1574=CARTESIAN_POINT('',(14.2957917295033,17.0592070452592,1.));
#1575=CARTESIAN_POINT('Origin',(13.4746032650366,12.1528682345372,1.));
#1576=CARTESIAN_POINT('',(13.6746032650366,12.1528682345372,1.));
#1577=CARTESIAN_POINT('Origin',(10.4739664535388,16.2500001780689,1.));
#1578=CARTESIAN_POINT('',(10.6739664535388,16.2500001780689,1.));
#1579=CARTESIAN_POINT('Origin',(7.97000011846423,21.7500001780689,1.));
#1580=CARTESIAN_POINT('',(8.17000011846423,21.7500001780689,1.));
#1581=CARTESIAN_POINT('Origin',(16.4746032650366,12.1528682345372,1.));
#1582=CARTESIAN_POINT('',(16.6746032650366,12.1528682345372,1.));
#1583=CARTESIAN_POINT('Origin',(12.1372617356139,7.04080268501989,1.));
#1584=CARTESIAN_POINT('',(12.3372617356139,7.04080268501989,1.));
#1585=CARTESIAN_POINT('Origin',(10.1404040934422,12.0434308854351,1.));
#1586=CARTESIAN_POINT('',(10.3404040934422,12.0434308854351,1.));
#1587=CARTESIAN_POINT('Origin',(10.1372617356139,7.04080268501989,1.));
#1588=CARTESIAN_POINT('',(10.3372617356139,7.04080268501989,1.));
#1589=CARTESIAN_POINT('Origin',(7.49999958276748,1.5,1.));
#1590=CARTESIAN_POINT('',(7.09999958276748,1.5,0.55));
#1591=CARTESIAN_POINT('',(7.09999958276748,1.5,1.));
#1592=CARTESIAN_POINT('Origin',(7.49999958276748,1.5,0.55));
#1593=CARTESIAN_POINT('Origin',(7.49999958276748,1.5,0.55));
#1594=CARTESIAN_POINT('',(7.74999958276748,1.5,0.55));
#1595=CARTESIAN_POINT('Origin',(7.49999958276748,1.5,0.55));
#1596=CARTESIAN_POINT('Origin',(1.5,7.5,1.));
#1597=CARTESIAN_POINT('',(1.1,7.5,0.55));
#1598=CARTESIAN_POINT('',(1.1,7.5,1.));
#1599=CARTESIAN_POINT('Origin',(1.5,7.5,0.55));
#1600=CARTESIAN_POINT('Origin',(1.5,7.5,0.55));
#1601=CARTESIAN_POINT('',(1.75,7.5,0.55));
#1602=CARTESIAN_POINT('Origin',(1.5,7.5,0.55));
#1603=CARTESIAN_POINT('Origin',(16.25,1.5,1.));
#1604=CARTESIAN_POINT('',(15.85,1.5,0.55));
#1605=CARTESIAN_POINT('',(15.85,1.5,1.));
#1606=CARTESIAN_POINT('Origin',(16.25,1.5,0.55));
#1607=CARTESIAN_POINT('Origin',(16.25,1.5,0.55));
#1608=CARTESIAN_POINT('',(16.5,1.5,0.55));
#1609=CARTESIAN_POINT('Origin',(16.25,1.5,0.55));
#1610=CARTESIAN_POINT('Origin',(1.5,20.95,1.));
#1611=CARTESIAN_POINT('',(1.1,20.95,0.55));
#1612=CARTESIAN_POINT('',(1.1,20.95,1.));
#1613=CARTESIAN_POINT('Origin',(1.5,20.95,0.55));
#1614=CARTESIAN_POINT('Origin',(1.5,20.95,0.55));
#1615=CARTESIAN_POINT('',(1.75,20.95,0.55));
#1616=CARTESIAN_POINT('Origin',(1.5,20.95,0.55));
#1617=CARTESIAN_POINT('Origin',(16.25,20.95,1.));
#1618=CARTESIAN_POINT('',(15.85,20.95,0.55));
#1619=CARTESIAN_POINT('',(15.85,20.95,1.));
#1620=CARTESIAN_POINT('Origin',(16.25,20.95,0.55));
#1621=CARTESIAN_POINT('Origin',(16.25,20.95,0.55));
#1622=CARTESIAN_POINT('',(16.5,20.95,0.55));
#1623=CARTESIAN_POINT('Origin',(16.25,20.95,0.55));
#1624=CARTESIAN_POINT('Origin',(16.25,20.95,0.));
#1625=CARTESIAN_POINT('',(16.5,20.95,0.));
#1626=CARTESIAN_POINT('',(16.5,20.95,0.));
#1627=CARTESIAN_POINT('Origin',(16.25,20.95,0.));
#1628=CARTESIAN_POINT('Origin',(1.5,20.95,0.));
#1629=CARTESIAN_POINT('',(1.75,20.95,0.));
#1630=CARTESIAN_POINT('',(1.75,20.95,0.));
#1631=CARTESIAN_POINT('Origin',(1.5,20.95,0.));
#1632=CARTESIAN_POINT('Origin',(1.5,7.5,0.));
#1633=CARTESIAN_POINT('',(1.75,7.5,0.));
#1634=CARTESIAN_POINT('',(1.75,7.5,0.));
#1635=CARTESIAN_POINT('Origin',(1.5,7.5,0.));
#1636=CARTESIAN_POINT('Origin',(16.25,1.5,0.));
#1637=CARTESIAN_POINT('',(16.5,1.5,0.));
#1638=CARTESIAN_POINT('',(16.5,1.5,0.));
#1639=CARTESIAN_POINT('Origin',(16.25,1.5,0.));
#1640=CARTESIAN_POINT('Origin',(7.49999958276748,1.5,0.));
#1641=CARTESIAN_POINT('',(7.74999958276748,1.5,0.));
#1642=CARTESIAN_POINT('',(7.74999958276748,1.5,0.));
#1643=CARTESIAN_POINT('Origin',(7.49999958276748,1.5,0.));
#1644=CARTESIAN_POINT('Origin',(6.,3.,0.));
#1645=CARTESIAN_POINT('',(6.,0.,0.));
#1646=CARTESIAN_POINT('',(6.,3.,0.));
#1647=CARTESIAN_POINT('',(6.,0.,0.));
#1648=CARTESIAN_POINT('',(6.,0.,0.));
#1649=CARTESIAN_POINT('',(6.,3.,0.));
#1650=CARTESIAN_POINT('Origin',(3.,3.,0.));
#1651=CARTESIAN_POINT('',(3.,3.,0.));
#1652=CARTESIAN_POINT('',(3.,3.,0.));
#1653=CARTESIAN_POINT('',(3.,3.,0.));
#1654=CARTESIAN_POINT('Origin',(3.,6.,0.));
#1655=CARTESIAN_POINT('',(3.,6.,0.));
#1656=CARTESIAN_POINT('',(3.,6.,0.));
#1657=CARTESIAN_POINT('',(3.,6.,0.));
#1658=CARTESIAN_POINT('Origin',(-3.5527136788005E-15,6.,0.));
#1659=CARTESIAN_POINT('',(-3.5527136788005E-15,6.,0.));
#1660=CARTESIAN_POINT('',(3.,6.,0.));
#1661=CARTESIAN_POINT('',(-3.5527136788005E-15,6.,0.));
#1662=CARTESIAN_POINT('Origin',(0.,22.45,0.));
#1663=CARTESIAN_POINT('',(0.,22.45,0.));
#1664=CARTESIAN_POINT('',(3.5527136788005E-15,45.5,0.));
#1665=CARTESIAN_POINT('',(0.,22.45,0.));
#1666=CARTESIAN_POINT('Origin',(17.75,22.45,0.));
#1667=CARTESIAN_POINT('',(17.75,22.45,0.));
#1668=CARTESIAN_POINT('',(0.,22.45,0.));
#1669=CARTESIAN_POINT('',(17.75,22.45,0.));
#1670=CARTESIAN_POINT('Origin',(17.75,0.,0.));
#1671=CARTESIAN_POINT('',(17.75,0.,0.));
#1672=CARTESIAN_POINT('',(17.75,0.,0.));
#1673=CARTESIAN_POINT('',(17.75,0.,0.));
#1674=CARTESIAN_POINT('Origin',(6.,0.,0.));
#1675=CARTESIAN_POINT('',(-3.5527136788005E-15,3.5527136788005E-15,0.));
#1676=CARTESIAN_POINT('Origin',(8.875,11.225,0.));
#1677=UNCERTAINTY_MEASURE_WITH_UNIT(LENGTH_MEASURE(0.001),#1681,
'DISTANCE_ACCURACY_VALUE',
'Maximum model space distance between geometric entities at asserted c
onnectivities');
#1678=UNCERTAINTY_MEASURE_WITH_UNIT(LENGTH_MEASURE(0.001),#1681,
'DISTANCE_ACCURACY_VALUE',
'Maximum model space distance between geometric entities at asserted c
onnectivities');
#1679=(
GEOMETRIC_REPRESENTATION_CONTEXT(3)
GLOBAL_UNCERTAINTY_ASSIGNED_CONTEXT((#1677))
GLOBAL_UNIT_ASSIGNED_CONTEXT((#1681,#1683,#1684))
REPRESENTATION_CONTEXT('','3D')
);
#1680=(
GEOMETRIC_REPRESENTATION_CONTEXT(3)
GLOBAL_UNCERTAINTY_ASSIGNED_CONTEXT((#1678))
GLOBAL_UNIT_ASSIGNED_CONTEXT((#1681,#1683,#1684))
REPRESENTATION_CONTEXT('','3D')
);
#1681=(
LENGTH_UNIT()
NAMED_UNIT(*)
SI_UNIT(.CENTI.,.METRE.)
);
#1682=(
LENGTH_UNIT()
NAMED_UNIT(*)
SI_UNIT($,.METRE.)
);
#1683=(
NAMED_UNIT(*)
PLANE_ANGLE_UNIT()
SI_UNIT($,.RADIAN.)
);
#1684=(
NAMED_UNIT(*)
SI_UNIT($,.STERADIAN.)
SOLID_ANGLE_UNIT()
);
#1685=SHAPE_DEFINITION_REPRESENTATION(#1686,#1687);
#1686=PRODUCT_DEFINITION_SHAPE('',$,#1689);
#1687=SHAPE_REPRESENTATION('',(#969),#1679);
#1688=PRODUCT_DEFINITION_CONTEXT('part definition',#1693,'design');
#1689=PRODUCT_DEFINITION('2026-07-21-19-29-44-413','plate dl-h2',#1690,
#1688);
#1690=PRODUCT_DEFINITION_FORMATION('',$,#1695);
#1691=PRODUCT_RELATED_PRODUCT_CATEGORY('plate dl-h2','plate dl-h2',(#1695));
#1692=APPLICATION_PROTOCOL_DEFINITION('international standard',
'automotive_design',2009,#1693);
#1693=APPLICATION_CONTEXT(
'Core Data for Automotive Mechanical Design Process');
#1694=PRODUCT_CONTEXT('part definition',#1693,'mechanical');
#1695=PRODUCT('2026-07-21-19-29-44-413','plate dl-h2',$,(#1694));
#1696=PRESENTATION_STYLE_ASSIGNMENT((#1697));
#1697=SURFACE_STYLE_USAGE(.BOTH.,#1698);
#1698=SURFACE_SIDE_STYLE('',(#1699));
#1699=SURFACE_STYLE_FILL_AREA(#1700);
#1700=FILL_AREA_STYLE('ABS(\X2\D770C0C9\X0\)',(#1701));
#1701=FILL_AREA_STYLE_COLOUR('ABS(\X2\D770C0C9\X0\)',#1702);
#1702=COLOUR_RGB('ABS(\X2\D770C0C9\X0\)',0.964705882352941,0.964705882352941,
0.952941176470588);
ENDSEC;
END-ISO-10303-21;
