ISO-10303-21;
HEADER;
/* Generated by software containing ST-Developer
 * from STEP Tools, Inc. (www.steptools.com) 
 */

FILE_DESCRIPTION(
/* description */ (''),
/* implementation_level */ '2;1');

FILE_NAME(
/* name */ 'plate dr.step',
/* time_stamp */ '2026-08-31T17:55:36+09:00',
/* author */ (''),
/* organization */ (''),
/* preprocessor_version */ 'ST-DEVELOPER v20.1',
/* originating_system */ 'Autodesk Translation Framework v15.8.0.0',
/* authorisation */ '');

FILE_SCHEMA (('AUTOMOTIVE_DESIGN { 1 0 10303 214 3 1 1 }'));
ENDSEC;

DATA;
#10=MECHANICAL_DESIGN_GEOMETRIC_PRESENTATION_REPRESENTATION('',(#13),#1770);
#11=SHAPE_REPRESENTATION_RELATIONSHIP('SRR','None',#1777,#12);
#12=ADVANCED_BREP_SHAPE_REPRESENTATION('',(#14),#1769);
#13=STYLED_ITEM('',(#1786),#14);
#14=MANIFOLD_SOLID_BREP('\X2\BCF8CCB4\X0\2',#1006);
#15=FACE_BOUND('',#209,.T.);
#16=FACE_BOUND('',#210,.T.);
#17=FACE_BOUND('',#211,.T.);
#18=FACE_BOUND('',#212,.T.);
#19=FACE_BOUND('',#213,.T.);
#20=FACE_BOUND('',#214,.T.);
#21=FACE_BOUND('',#215,.T.);
#22=FACE_BOUND('',#216,.T.);
#23=FACE_BOUND('',#217,.T.);
#24=FACE_BOUND('',#218,.T.);
#25=FACE_BOUND('',#219,.T.);
#26=FACE_BOUND('',#220,.T.);
#27=FACE_BOUND('',#221,.T.);
#28=FACE_BOUND('',#222,.T.);
#29=FACE_BOUND('',#223,.T.);
#30=FACE_BOUND('',#224,.T.);
#31=FACE_BOUND('',#225,.T.);
#32=FACE_BOUND('',#226,.T.);
#33=FACE_BOUND('',#227,.T.);
#34=FACE_BOUND('',#228,.T.);
#35=FACE_BOUND('',#229,.T.);
#36=FACE_BOUND('',#230,.T.);
#37=FACE_BOUND('',#231,.T.);
#38=FACE_BOUND('',#232,.T.);
#39=FACE_BOUND('',#233,.T.);
#40=FACE_BOUND('',#234,.T.);
#41=FACE_BOUND('',#235,.T.);
#42=FACE_BOUND('',#236,.T.);
#43=FACE_BOUND('',#239,.T.);
#44=FACE_BOUND('',#242,.T.);
#45=FACE_BOUND('',#245,.T.);
#46=FACE_BOUND('',#248,.T.);
#47=FACE_BOUND('',#251,.T.);
#48=FACE_BOUND('',#266,.T.);
#49=FACE_BOUND('',#267,.T.);
#50=FACE_BOUND('',#268,.T.);
#51=FACE_BOUND('',#269,.T.);
#52=FACE_BOUND('',#270,.T.);
#53=PLANE('',#1023);
#54=PLANE('',#1025);
#55=PLANE('',#1027);
#56=PLANE('',#1029);
#57=PLANE('',#1031);
#58=PLANE('',#1033);
#59=PLANE('',#1035);
#60=PLANE('',#1037);
#61=PLANE('',#1039);
#62=PLANE('',#1041);
#63=PLANE('',#1043);
#64=PLANE('',#1045);
#65=PLANE('',#1047);
#66=PLANE('',#1049);
#67=PLANE('',#1051);
#68=PLANE('',#1053);
#69=PLANE('',#1055);
#70=PLANE('',#1057);
#71=PLANE('',#1059);
#72=PLANE('',#1061);
#73=PLANE('',#1063);
#74=PLANE('',#1065);
#75=PLANE('',#1079);
#76=PLANE('',#1112);
#77=PLANE('',#1120);
#78=PLANE('',#1124);
#79=PLANE('',#1128);
#80=PLANE('',#1132);
#81=PLANE('',#1136);
#82=PLANE('',#1148);
#83=PLANE('',#1149);
#84=PLANE('',#1150);
#85=PLANE('',#1151);
#86=PLANE('',#1152);
#87=PLANE('',#1153);
#88=PLANE('',#1154);
#89=PLANE('',#1155);
#90=PLANE('',#1156);
#91=FACE_OUTER_BOUND('',#162,.T.);
#92=FACE_OUTER_BOUND('',#163,.T.);
#93=FACE_OUTER_BOUND('',#164,.T.);
#94=FACE_OUTER_BOUND('',#165,.T.);
#95=FACE_OUTER_BOUND('',#166,.T.);
#96=FACE_OUTER_BOUND('',#167,.T.);
#97=FACE_OUTER_BOUND('',#168,.T.);
#98=FACE_OUTER_BOUND('',#169,.T.);
#99=FACE_OUTER_BOUND('',#170,.T.);
#100=FACE_OUTER_BOUND('',#171,.T.);
#101=FACE_OUTER_BOUND('',#172,.T.);
#102=FACE_OUTER_BOUND('',#173,.T.);
#103=FACE_OUTER_BOUND('',#174,.T.);
#104=FACE_OUTER_BOUND('',#175,.T.);
#105=FACE_OUTER_BOUND('',#176,.T.);
#106=FACE_OUTER_BOUND('',#177,.T.);
#107=FACE_OUTER_BOUND('',#178,.T.);
#108=FACE_OUTER_BOUND('',#179,.T.);
#109=FACE_OUTER_BOUND('',#180,.T.);
#110=FACE_OUTER_BOUND('',#181,.T.);
#111=FACE_OUTER_BOUND('',#182,.T.);
#112=FACE_OUTER_BOUND('',#183,.T.);
#113=FACE_OUTER_BOUND('',#184,.T.);
#114=FACE_OUTER_BOUND('',#185,.T.);
#115=FACE_OUTER_BOUND('',#186,.T.);
#116=FACE_OUTER_BOUND('',#187,.T.);
#117=FACE_OUTER_BOUND('',#188,.T.);
#118=FACE_OUTER_BOUND('',#189,.T.);
#119=FACE_OUTER_BOUND('',#190,.T.);
#120=FACE_OUTER_BOUND('',#191,.T.);
#121=FACE_OUTER_BOUND('',#192,.T.);
#122=FACE_OUTER_BOUND('',#193,.T.);
#123=FACE_OUTER_BOUND('',#194,.T.);
#124=FACE_OUTER_BOUND('',#195,.T.);
#125=FACE_OUTER_BOUND('',#196,.T.);
#126=FACE_OUTER_BOUND('',#197,.T.);
#127=FACE_OUTER_BOUND('',#198,.T.);
#128=FACE_OUTER_BOUND('',#199,.T.);
#129=FACE_OUTER_BOUND('',#200,.T.);
#130=FACE_OUTER_BOUND('',#201,.T.);
#131=FACE_OUTER_BOUND('',#202,.T.);
#132=FACE_OUTER_BOUND('',#203,.T.);
#133=FACE_OUTER_BOUND('',#204,.T.);
#134=FACE_OUTER_BOUND('',#205,.T.);
#135=FACE_OUTER_BOUND('',#206,.T.);
#136=FACE_OUTER_BOUND('',#207,.T.);
#137=FACE_OUTER_BOUND('',#208,.T.);
#138=FACE_OUTER_BOUND('',#237,.T.);
#139=FACE_OUTER_BOUND('',#238,.T.);
#140=FACE_OUTER_BOUND('',#240,.T.);
#141=FACE_OUTER_BOUND('',#241,.T.);
#142=FACE_OUTER_BOUND('',#243,.T.);
#143=FACE_OUTER_BOUND('',#244,.T.);
#144=FACE_OUTER_BOUND('',#246,.T.);
#145=FACE_OUTER_BOUND('',#247,.T.);
#146=FACE_OUTER_BOUND('',#249,.T.);
#147=FACE_OUTER_BOUND('',#250,.T.);
#148=FACE_OUTER_BOUND('',#252,.T.);
#149=FACE_OUTER_BOUND('',#253,.T.);
#150=FACE_OUTER_BOUND('',#254,.T.);
#151=FACE_OUTER_BOUND('',#255,.T.);
#152=FACE_OUTER_BOUND('',#256,.T.);
#153=FACE_OUTER_BOUND('',#257,.T.);
#154=FACE_OUTER_BOUND('',#258,.T.);
#155=FACE_OUTER_BOUND('',#259,.T.);
#156=FACE_OUTER_BOUND('',#260,.T.);
#157=FACE_OUTER_BOUND('',#261,.T.);
#158=FACE_OUTER_BOUND('',#262,.T.);
#159=FACE_OUTER_BOUND('',#263,.T.);
#160=FACE_OUTER_BOUND('',#264,.T.);
#161=FACE_OUTER_BOUND('',#265,.T.);
#162=EDGE_LOOP('',(#656,#657,#658,#659));
#163=EDGE_LOOP('',(#660));
#164=EDGE_LOOP('',(#661));
#165=EDGE_LOOP('',(#662));
#166=EDGE_LOOP('',(#663));
#167=EDGE_LOOP('',(#664));
#168=EDGE_LOOP('',(#665));
#169=EDGE_LOOP('',(#666));
#170=EDGE_LOOP('',(#667));
#171=EDGE_LOOP('',(#668));
#172=EDGE_LOOP('',(#669));
#173=EDGE_LOOP('',(#670));
#174=EDGE_LOOP('',(#671));
#175=EDGE_LOOP('',(#672));
#176=EDGE_LOOP('',(#673));
#177=EDGE_LOOP('',(#674));
#178=EDGE_LOOP('',(#675));
#179=EDGE_LOOP('',(#676));
#180=EDGE_LOOP('',(#677));
#181=EDGE_LOOP('',(#678));
#182=EDGE_LOOP('',(#679));
#183=EDGE_LOOP('',(#680));
#184=EDGE_LOOP('',(#681));
#185=EDGE_LOOP('',(#682,#683,#684,#685));
#186=EDGE_LOOP('',(#686,#687,#688,#689));
#187=EDGE_LOOP('',(#690,#691,#692,#693));
#188=EDGE_LOOP('',(#694,#695,#696,#697));
#189=EDGE_LOOP('',(#698,#699,#700,#701));
#190=EDGE_LOOP('',(#702,#703,#704,#705));
#191=EDGE_LOOP('',(#706));
#192=EDGE_LOOP('',(#707,#708,#709,#710));
#193=EDGE_LOOP('',(#711,#712,#713,#714));
#194=EDGE_LOOP('',(#715,#716,#717,#718));
#195=EDGE_LOOP('',(#719,#720,#721,#722));
#196=EDGE_LOOP('',(#723,#724,#725,#726));
#197=EDGE_LOOP('',(#727,#728,#729,#730));
#198=EDGE_LOOP('',(#731,#732,#733,#734));
#199=EDGE_LOOP('',(#735,#736,#737,#738));
#200=EDGE_LOOP('',(#739,#740,#741,#742));
#201=EDGE_LOOP('',(#743,#744,#745,#746));
#202=EDGE_LOOP('',(#747,#748,#749,#750));
#203=EDGE_LOOP('',(#751,#752,#753,#754));
#204=EDGE_LOOP('',(#755,#756,#757,#758));
#205=EDGE_LOOP('',(#759,#760,#761,#762));
#206=EDGE_LOOP('',(#763,#764,#765,#766));
#207=EDGE_LOOP('',(#767,#768,#769,#770));
#208=EDGE_LOOP('',(#771,#772,#773,#774,#775,#776,#777,#778));
#209=EDGE_LOOP('',(#779));
#210=EDGE_LOOP('',(#780));
#211=EDGE_LOOP('',(#781));
#212=EDGE_LOOP('',(#782));
#213=EDGE_LOOP('',(#783));
#214=EDGE_LOOP('',(#784));
#215=EDGE_LOOP('',(#785));
#216=EDGE_LOOP('',(#786));
#217=EDGE_LOOP('',(#787));
#218=EDGE_LOOP('',(#788));
#219=EDGE_LOOP('',(#789));
#220=EDGE_LOOP('',(#790));
#221=EDGE_LOOP('',(#791));
#222=EDGE_LOOP('',(#792));
#223=EDGE_LOOP('',(#793));
#224=EDGE_LOOP('',(#794));
#225=EDGE_LOOP('',(#795));
#226=EDGE_LOOP('',(#796));
#227=EDGE_LOOP('',(#797));
#228=EDGE_LOOP('',(#798));
#229=EDGE_LOOP('',(#799));
#230=EDGE_LOOP('',(#800));
#231=EDGE_LOOP('',(#801));
#232=EDGE_LOOP('',(#802));
#233=EDGE_LOOP('',(#803));
#234=EDGE_LOOP('',(#804));
#235=EDGE_LOOP('',(#805));
#236=EDGE_LOOP('',(#806));
#237=EDGE_LOOP('',(#807,#808,#809,#810));
#238=EDGE_LOOP('',(#811));
#239=EDGE_LOOP('',(#812));
#240=EDGE_LOOP('',(#813,#814,#815,#816));
#241=EDGE_LOOP('',(#817));
#242=EDGE_LOOP('',(#818));
#243=EDGE_LOOP('',(#819,#820,#821,#822));
#244=EDGE_LOOP('',(#823));
#245=EDGE_LOOP('',(#824));
#246=EDGE_LOOP('',(#825,#826,#827,#828));
#247=EDGE_LOOP('',(#829));
#248=EDGE_LOOP('',(#830));
#249=EDGE_LOOP('',(#831,#832,#833,#834));
#250=EDGE_LOOP('',(#835));
#251=EDGE_LOOP('',(#836));
#252=EDGE_LOOP('',(#837,#838,#839,#840));
#253=EDGE_LOOP('',(#841,#842,#843,#844));
#254=EDGE_LOOP('',(#845,#846,#847,#848));
#255=EDGE_LOOP('',(#849,#850,#851,#852));
#256=EDGE_LOOP('',(#853,#854,#855,#856));
#257=EDGE_LOOP('',(#857,#858,#859,#860));
#258=EDGE_LOOP('',(#861,#862,#863,#864));
#259=EDGE_LOOP('',(#865,#866,#867,#868));
#260=EDGE_LOOP('',(#869,#870,#871,#872));
#261=EDGE_LOOP('',(#873,#874,#875,#876));
#262=EDGE_LOOP('',(#877,#878,#879,#880));
#263=EDGE_LOOP('',(#881,#882,#883,#884));
#264=EDGE_LOOP('',(#885,#886,#887,#888));
#265=EDGE_LOOP('',(#889,#890,#891,#892,#893,#894,#895,#896));
#266=EDGE_LOOP('',(#897));
#267=EDGE_LOOP('',(#898));
#268=EDGE_LOOP('',(#899));
#269=EDGE_LOOP('',(#900));
#270=EDGE_LOOP('',(#901));
#271=LINE('',#1495,#328);
#272=LINE('',#1566,#329);
#273=LINE('',#1570,#330);
#274=LINE('',#1574,#331);
#275=LINE('',#1578,#332);
#276=LINE('',#1582,#333);
#277=LINE('',#1586,#334);
#278=LINE('',#1591,#335);
#279=LINE('',#1595,#336);
#280=LINE('',#1599,#337);
#281=LINE('',#1603,#338);
#282=LINE('',#1607,#339);
#283=LINE('',#1611,#340);
#284=LINE('',#1615,#341);
#285=LINE('',#1619,#342);
#286=LINE('',#1623,#343);
#287=LINE('',#1627,#344);
#288=LINE('',#1631,#345);
#289=LINE('',#1635,#346);
#290=LINE('',#1639,#347);
#291=LINE('',#1643,#348);
#292=LINE('',#1647,#349);
#293=LINE('',#1651,#350);
#294=LINE('',#1655,#351);
#295=LINE('',#1657,#352);
#296=LINE('',#1659,#353);
#297=LINE('',#1661,#354);
#298=LINE('',#1663,#355);
#299=LINE('',#1665,#356);
#300=LINE('',#1667,#357);
#301=LINE('',#1668,#358);
#302=LINE('',#1681,#359);
#303=LINE('',#1688,#360);
#304=LINE('',#1695,#361);
#305=LINE('',#1702,#362);
#306=LINE('',#1709,#363);
#307=LINE('',#1716,#364);
#308=LINE('',#1720,#365);
#309=LINE('',#1724,#366);
#310=LINE('',#1728,#367);
#311=LINE('',#1732,#368);
#312=LINE('',#1737,#369);
#313=LINE('',#1738,#370);
#314=LINE('',#1739,#371);
#315=LINE('',#1742,#372);
#316=LINE('',#1743,#373);
#317=LINE('',#1746,#374);
#318=LINE('',#1747,#375);
#319=LINE('',#1750,#376);
#320=LINE('',#1751,#377);
#321=LINE('',#1754,#378);
#322=LINE('',#1755,#379);
#323=LINE('',#1758,#380);
#324=LINE('',#1759,#381);
#325=LINE('',#1762,#382);
#326=LINE('',#1763,#383);
#327=LINE('',#1765,#384);
#328=VECTOR('',#1163,0.275000000000002);
#329=VECTOR('',#1258,0.199999999999999);
#330=VECTOR('',#1263,0.199999999999999);
#331=VECTOR('',#1268,0.200000000000003);
#332=VECTOR('',#1273,0.199999999999999);
#333=VECTOR('',#1278,0.200000000000003);
#334=VECTOR('',#1283,0.199999999999999);
#335=VECTOR('',#1290,0.149999999999999);
#336=VECTOR('',#1295,0.149999999999999);
#337=VECTOR('',#1300,0.149999999999999);
#338=VECTOR('',#1305,0.149999999999999);
#339=VECTOR('',#1310,0.199999999999999);
#340=VECTOR('',#1315,0.199999999999999);
#341=VECTOR('',#1320,0.199999999999999);
#342=VECTOR('',#1325,0.199999999999999);
#343=VECTOR('',#1330,0.199999999999999);
#344=VECTOR('',#1335,0.199999999999999);
#345=VECTOR('',#1340,0.199999999999999);
#346=VECTOR('',#1345,0.199999999999999);
#347=VECTOR('',#1350,0.199999999999999);
#348=VECTOR('',#1355,0.199999999999999);
#349=VECTOR('',#1360,0.199999999999999);
#350=VECTOR('',#1365,0.199999999999999);
#351=VECTOR('',#1368,1.);
#352=VECTOR('',#1369,1.);
#353=VECTOR('',#1370,1.);
#354=VECTOR('',#1371,1.);
#355=VECTOR('',#1372,1.);
#356=VECTOR('',#1373,1.);
#357=VECTOR('',#1374,1.);
#358=VECTOR('',#1375,1.);
#359=VECTOR('',#1388,0.4);
#360=VECTOR('',#1397,0.4);
#361=VECTOR('',#1406,0.4);
#362=VECTOR('',#1415,0.4);
#363=VECTOR('',#1424,0.4);
#364=VECTOR('',#1433,0.25);
#365=VECTOR('',#1438,0.25);
#366=VECTOR('',#1443,0.25);
#367=VECTOR('',#1448,0.249999999999998);
#368=VECTOR('',#1453,0.249999999999998);
#369=VECTOR('',#1458,1.);
#370=VECTOR('',#1459,1.);
#371=VECTOR('',#1460,1.);
#372=VECTOR('',#1463,1.);
#373=VECTOR('',#1464,1.);
#374=VECTOR('',#1467,1.);
#375=VECTOR('',#1468,1.);
#376=VECTOR('',#1471,1.);
#377=VECTOR('',#1472,1.);
#378=VECTOR('',#1475,1.);
#379=VECTOR('',#1476,1.);
#380=VECTOR('',#1479,1.);
#381=VECTOR('',#1480,1.);
#382=VECTOR('',#1483,1.);
#383=VECTOR('',#1484,1.);
#384=VECTOR('',#1487,1.);
#385=CIRCLE('',#1021,0.275000000000002);
#386=CIRCLE('',#1022,0.275000000000002);
#387=CIRCLE('',#1024,0.199999999999999);
#388=CIRCLE('',#1026,0.199999999999999);
#389=CIRCLE('',#1028,0.199999999999999);
#390=CIRCLE('',#1030,0.200000000000003);
#391=CIRCLE('',#1032,0.199999999999999);
#392=CIRCLE('',#1034,0.199999999999999);
#393=CIRCLE('',#1036,0.199999999999999);
#394=CIRCLE('',#1038,0.199999999999999);
#395=CIRCLE('',#1040,0.199999999999999);
#396=CIRCLE('',#1042,0.199999999999999);
#397=CIRCLE('',#1044,0.199999999999999);
#398=CIRCLE('',#1046,0.199999999999999);
#399=CIRCLE('',#1048,0.199999999999999);
#400=CIRCLE('',#1050,0.199999999999999);
#401=CIRCLE('',#1052,0.199999999999999);
#402=CIRCLE('',#1054,0.199999999999999);
#403=CIRCLE('',#1056,0.199999999999999);
#404=CIRCLE('',#1058,0.200000000000003);
#405=CIRCLE('',#1060,0.149999999999999);
#406=CIRCLE('',#1062,0.149999999999999);
#407=CIRCLE('',#1064,0.149999999999999);
#408=CIRCLE('',#1066,0.149999999999999);
#409=CIRCLE('',#1068,0.199999999999999);
#410=CIRCLE('',#1070,0.199999999999999);
#411=CIRCLE('',#1072,0.200000000000003);
#412=CIRCLE('',#1074,0.199999999999999);
#413=CIRCLE('',#1076,0.200000000000003);
#414=CIRCLE('',#1078,0.199999999999999);
#415=CIRCLE('',#1081,0.149999999999999);
#416=CIRCLE('',#1083,0.149999999999999);
#417=CIRCLE('',#1085,0.149999999999999);
#418=CIRCLE('',#1087,0.149999999999999);
#419=CIRCLE('',#1089,0.199999999999999);
#420=CIRCLE('',#1091,0.199999999999999);
#421=CIRCLE('',#1093,0.199999999999999);
#422=CIRCLE('',#1095,0.199999999999999);
#423=CIRCLE('',#1097,0.199999999999999);
#424=CIRCLE('',#1099,0.199999999999999);
#425=CIRCLE('',#1101,0.199999999999999);
#426=CIRCLE('',#1103,0.199999999999999);
#427=CIRCLE('',#1105,0.199999999999999);
#428=CIRCLE('',#1107,0.199999999999999);
#429=CIRCLE('',#1109,0.199999999999999);
#430=CIRCLE('',#1111,0.199999999999999);
#431=CIRCLE('',#1113,0.4);
#432=CIRCLE('',#1114,0.4);
#433=CIRCLE('',#1115,0.4);
#434=CIRCLE('',#1116,0.4);
#435=CIRCLE('',#1117,0.4);
#436=CIRCLE('',#1119,0.4);
#437=CIRCLE('',#1121,0.25);
#438=CIRCLE('',#1123,0.4);
#439=CIRCLE('',#1125,0.25);
#440=CIRCLE('',#1127,0.4);
#441=CIRCLE('',#1129,0.249999999999998);
#442=CIRCLE('',#1131,0.4);
#443=CIRCLE('',#1133,0.249999999999998);
#444=CIRCLE('',#1135,0.4);
#445=CIRCLE('',#1137,0.25);
#446=CIRCLE('',#1139,0.25);
#447=CIRCLE('',#1141,0.25);
#448=CIRCLE('',#1143,0.25);
#449=CIRCLE('',#1145,0.249999999999998);
#450=CIRCLE('',#1147,0.249999999999998);
#451=VERTEX_POINT('',#1492);
#452=VERTEX_POINT('',#1494);
#453=VERTEX_POINT('',#1498);
#454=VERTEX_POINT('',#1501);
#455=VERTEX_POINT('',#1504);
#456=VERTEX_POINT('',#1507);
#457=VERTEX_POINT('',#1510);
#458=VERTEX_POINT('',#1513);
#459=VERTEX_POINT('',#1516);
#460=VERTEX_POINT('',#1519);
#461=VERTEX_POINT('',#1522);
#462=VERTEX_POINT('',#1525);
#463=VERTEX_POINT('',#1528);
#464=VERTEX_POINT('',#1531);
#465=VERTEX_POINT('',#1534);
#466=VERTEX_POINT('',#1537);
#467=VERTEX_POINT('',#1540);
#468=VERTEX_POINT('',#1543);
#469=VERTEX_POINT('',#1546);
#470=VERTEX_POINT('',#1549);
#471=VERTEX_POINT('',#1552);
#472=VERTEX_POINT('',#1555);
#473=VERTEX_POINT('',#1558);
#474=VERTEX_POINT('',#1561);
#475=VERTEX_POINT('',#1564);
#476=VERTEX_POINT('',#1568);
#477=VERTEX_POINT('',#1572);
#478=VERTEX_POINT('',#1576);
#479=VERTEX_POINT('',#1580);
#480=VERTEX_POINT('',#1584);
#481=VERTEX_POINT('',#1589);
#482=VERTEX_POINT('',#1593);
#483=VERTEX_POINT('',#1597);
#484=VERTEX_POINT('',#1601);
#485=VERTEX_POINT('',#1605);
#486=VERTEX_POINT('',#1609);
#487=VERTEX_POINT('',#1613);
#488=VERTEX_POINT('',#1617);
#489=VERTEX_POINT('',#1621);
#490=VERTEX_POINT('',#1625);
#491=VERTEX_POINT('',#1629);
#492=VERTEX_POINT('',#1633);
#493=VERTEX_POINT('',#1637);
#494=VERTEX_POINT('',#1641);
#495=VERTEX_POINT('',#1645);
#496=VERTEX_POINT('',#1649);
#497=VERTEX_POINT('',#1653);
#498=VERTEX_POINT('',#1654);
#499=VERTEX_POINT('',#1656);
#500=VERTEX_POINT('',#1658);
#501=VERTEX_POINT('',#1660);
#502=VERTEX_POINT('',#1662);
#503=VERTEX_POINT('',#1664);
#504=VERTEX_POINT('',#1666);
#505=VERTEX_POINT('',#1669);
#506=VERTEX_POINT('',#1671);
#507=VERTEX_POINT('',#1673);
#508=VERTEX_POINT('',#1675);
#509=VERTEX_POINT('',#1677);
#510=VERTEX_POINT('',#1680);
#511=VERTEX_POINT('',#1684);
#512=VERTEX_POINT('',#1687);
#513=VERTEX_POINT('',#1691);
#514=VERTEX_POINT('',#1694);
#515=VERTEX_POINT('',#1698);
#516=VERTEX_POINT('',#1701);
#517=VERTEX_POINT('',#1705);
#518=VERTEX_POINT('',#1708);
#519=VERTEX_POINT('',#1712);
#520=VERTEX_POINT('',#1715);
#521=VERTEX_POINT('',#1719);
#522=VERTEX_POINT('',#1723);
#523=VERTEX_POINT('',#1727);
#524=VERTEX_POINT('',#1731);
#525=VERTEX_POINT('',#1735);
#526=VERTEX_POINT('',#1736);
#527=VERTEX_POINT('',#1741);
#528=VERTEX_POINT('',#1745);
#529=VERTEX_POINT('',#1749);
#530=VERTEX_POINT('',#1753);
#531=VERTEX_POINT('',#1757);
#532=VERTEX_POINT('',#1761);
#533=EDGE_CURVE('',#451,#451,#385,.T.);
#534=EDGE_CURVE('',#451,#452,#271,.T.);
#535=EDGE_CURVE('',#452,#452,#386,.T.);
#536=EDGE_CURVE('',#453,#453,#387,.T.);
#537=EDGE_CURVE('',#454,#454,#388,.T.);
#538=EDGE_CURVE('',#455,#455,#389,.T.);
#539=EDGE_CURVE('',#456,#456,#390,.T.);
#540=EDGE_CURVE('',#457,#457,#391,.T.);
#541=EDGE_CURVE('',#458,#458,#392,.T.);
#542=EDGE_CURVE('',#459,#459,#393,.T.);
#543=EDGE_CURVE('',#460,#460,#394,.T.);
#544=EDGE_CURVE('',#461,#461,#395,.T.);
#545=EDGE_CURVE('',#462,#462,#396,.T.);
#546=EDGE_CURVE('',#463,#463,#397,.T.);
#547=EDGE_CURVE('',#464,#464,#398,.T.);
#548=EDGE_CURVE('',#465,#465,#399,.T.);
#549=EDGE_CURVE('',#466,#466,#400,.T.);
#550=EDGE_CURVE('',#467,#467,#401,.T.);
#551=EDGE_CURVE('',#468,#468,#402,.T.);
#552=EDGE_CURVE('',#469,#469,#403,.T.);
#553=EDGE_CURVE('',#470,#470,#404,.T.);
#554=EDGE_CURVE('',#471,#471,#405,.T.);
#555=EDGE_CURVE('',#472,#472,#406,.T.);
#556=EDGE_CURVE('',#473,#473,#407,.T.);
#557=EDGE_CURVE('',#474,#474,#408,.T.);
#558=EDGE_CURVE('',#475,#475,#409,.T.);
#559=EDGE_CURVE('',#475,#457,#272,.T.);
#560=EDGE_CURVE('',#476,#476,#410,.T.);
#561=EDGE_CURVE('',#476,#454,#273,.T.);
#562=EDGE_CURVE('',#477,#477,#411,.T.);
#563=EDGE_CURVE('',#477,#470,#274,.T.);
#564=EDGE_CURVE('',#478,#478,#412,.T.);
#565=EDGE_CURVE('',#478,#453,#275,.T.);
#566=EDGE_CURVE('',#479,#479,#413,.T.);
#567=EDGE_CURVE('',#479,#456,#276,.T.);
#568=EDGE_CURVE('',#480,#480,#414,.T.);
#569=EDGE_CURVE('',#480,#466,#277,.T.);
#570=EDGE_CURVE('',#481,#481,#415,.T.);
#571=EDGE_CURVE('',#481,#472,#278,.T.);
#572=EDGE_CURVE('',#482,#482,#416,.T.);
#573=EDGE_CURVE('',#482,#473,#279,.T.);
#574=EDGE_CURVE('',#483,#483,#417,.T.);
#575=EDGE_CURVE('',#483,#471,#280,.T.);
#576=EDGE_CURVE('',#484,#484,#418,.T.);
#577=EDGE_CURVE('',#484,#474,#281,.T.);
#578=EDGE_CURVE('',#485,#485,#419,.T.);
#579=EDGE_CURVE('',#485,#465,#282,.T.);
#580=EDGE_CURVE('',#486,#486,#420,.T.);
#581=EDGE_CURVE('',#486,#467,#283,.T.);
#582=EDGE_CURVE('',#487,#487,#421,.T.);
#583=EDGE_CURVE('',#487,#460,#284,.T.);
#584=EDGE_CURVE('',#488,#488,#422,.T.);
#585=EDGE_CURVE('',#488,#461,#285,.T.);
#586=EDGE_CURVE('',#489,#489,#423,.T.);
#587=EDGE_CURVE('',#489,#459,#286,.T.);
#588=EDGE_CURVE('',#490,#490,#424,.T.);
#589=EDGE_CURVE('',#490,#462,#287,.T.);
#590=EDGE_CURVE('',#491,#491,#425,.T.);
#591=EDGE_CURVE('',#491,#458,#288,.T.);
#592=EDGE_CURVE('',#492,#492,#426,.T.);
#593=EDGE_CURVE('',#492,#469,#289,.T.);
#594=EDGE_CURVE('',#493,#493,#427,.T.);
#595=EDGE_CURVE('',#493,#463,#290,.T.);
#596=EDGE_CURVE('',#494,#494,#428,.T.);
#597=EDGE_CURVE('',#494,#468,#291,.T.);
#598=EDGE_CURVE('',#495,#495,#429,.T.);
#599=EDGE_CURVE('',#495,#455,#292,.T.);
#600=EDGE_CURVE('',#496,#496,#430,.T.);
#601=EDGE_CURVE('',#496,#464,#293,.T.);
#602=EDGE_CURVE('',#497,#498,#294,.T.);
#603=EDGE_CURVE('',#498,#499,#295,.T.);
#604=EDGE_CURVE('',#499,#500,#296,.T.);
#605=EDGE_CURVE('',#500,#501,#297,.T.);
#606=EDGE_CURVE('',#501,#502,#298,.T.);
#607=EDGE_CURVE('',#502,#503,#299,.T.);
#608=EDGE_CURVE('',#503,#504,#300,.T.);
#609=EDGE_CURVE('',#504,#497,#301,.T.);
#610=EDGE_CURVE('',#505,#505,#431,.T.);
#611=EDGE_CURVE('',#506,#506,#432,.T.);
#612=EDGE_CURVE('',#507,#507,#433,.T.);
#613=EDGE_CURVE('',#508,#508,#434,.T.);
#614=EDGE_CURVE('',#509,#509,#435,.T.);
#615=EDGE_CURVE('',#509,#510,#302,.T.);
#616=EDGE_CURVE('',#510,#510,#436,.T.);
#617=EDGE_CURVE('',#511,#511,#437,.T.);
#618=EDGE_CURVE('',#508,#512,#303,.T.);
#619=EDGE_CURVE('',#512,#512,#438,.T.);
#620=EDGE_CURVE('',#513,#513,#439,.T.);
#621=EDGE_CURVE('',#507,#514,#304,.T.);
#622=EDGE_CURVE('',#514,#514,#440,.T.);
#623=EDGE_CURVE('',#515,#515,#441,.T.);
#624=EDGE_CURVE('',#506,#516,#305,.T.);
#625=EDGE_CURVE('',#516,#516,#442,.T.);
#626=EDGE_CURVE('',#517,#517,#443,.T.);
#627=EDGE_CURVE('',#505,#518,#306,.T.);
#628=EDGE_CURVE('',#518,#518,#444,.T.);
#629=EDGE_CURVE('',#519,#519,#445,.T.);
#630=EDGE_CURVE('',#519,#520,#307,.T.);
#631=EDGE_CURVE('',#520,#520,#446,.T.);
#632=EDGE_CURVE('',#511,#521,#308,.T.);
#633=EDGE_CURVE('',#521,#521,#447,.T.);
#634=EDGE_CURVE('',#513,#522,#309,.T.);
#635=EDGE_CURVE('',#522,#522,#448,.T.);
#636=EDGE_CURVE('',#517,#523,#310,.T.);
#637=EDGE_CURVE('',#523,#523,#449,.T.);
#638=EDGE_CURVE('',#515,#524,#311,.T.);
#639=EDGE_CURVE('',#524,#524,#450,.T.);
#640=EDGE_CURVE('',#525,#526,#312,.T.);
#641=EDGE_CURVE('',#526,#497,#313,.T.);
#642=EDGE_CURVE('',#525,#504,#314,.T.);
#643=EDGE_CURVE('',#525,#527,#315,.T.);
#644=EDGE_CURVE('',#527,#503,#316,.T.);
#645=EDGE_CURVE('',#527,#528,#317,.T.);
#646=EDGE_CURVE('',#528,#502,#318,.T.);
#647=EDGE_CURVE('',#529,#528,#319,.T.);
#648=EDGE_CURVE('',#529,#501,#320,.T.);
#649=EDGE_CURVE('',#529,#530,#321,.T.);
#650=EDGE_CURVE('',#530,#500,#322,.T.);
#651=EDGE_CURVE('',#530,#531,#323,.T.);
#652=EDGE_CURVE('',#531,#499,#324,.T.);
#653=EDGE_CURVE('',#531,#532,#325,.T.);
#654=EDGE_CURVE('',#532,#498,#326,.T.);
#655=EDGE_CURVE('',#526,#532,#327,.T.);
#656=ORIENTED_EDGE('',*,*,#533,.F.);
#657=ORIENTED_EDGE('',*,*,#534,.T.);
#658=ORIENTED_EDGE('',*,*,#535,.F.);
#659=ORIENTED_EDGE('',*,*,#534,.F.);
#660=ORIENTED_EDGE('',*,*,#536,.F.);
#661=ORIENTED_EDGE('',*,*,#537,.F.);
#662=ORIENTED_EDGE('',*,*,#538,.F.);
#663=ORIENTED_EDGE('',*,*,#539,.F.);
#664=ORIENTED_EDGE('',*,*,#540,.F.);
#665=ORIENTED_EDGE('',*,*,#541,.F.);
#666=ORIENTED_EDGE('',*,*,#542,.F.);
#667=ORIENTED_EDGE('',*,*,#543,.F.);
#668=ORIENTED_EDGE('',*,*,#544,.F.);
#669=ORIENTED_EDGE('',*,*,#545,.F.);
#670=ORIENTED_EDGE('',*,*,#546,.F.);
#671=ORIENTED_EDGE('',*,*,#547,.F.);
#672=ORIENTED_EDGE('',*,*,#548,.F.);
#673=ORIENTED_EDGE('',*,*,#549,.F.);
#674=ORIENTED_EDGE('',*,*,#550,.F.);
#675=ORIENTED_EDGE('',*,*,#551,.F.);
#676=ORIENTED_EDGE('',*,*,#552,.F.);
#677=ORIENTED_EDGE('',*,*,#553,.F.);
#678=ORIENTED_EDGE('',*,*,#554,.F.);
#679=ORIENTED_EDGE('',*,*,#555,.F.);
#680=ORIENTED_EDGE('',*,*,#556,.F.);
#681=ORIENTED_EDGE('',*,*,#557,.F.);
#682=ORIENTED_EDGE('',*,*,#558,.F.);
#683=ORIENTED_EDGE('',*,*,#559,.T.);
#684=ORIENTED_EDGE('',*,*,#540,.T.);
#685=ORIENTED_EDGE('',*,*,#559,.F.);
#686=ORIENTED_EDGE('',*,*,#560,.F.);
#687=ORIENTED_EDGE('',*,*,#561,.T.);
#688=ORIENTED_EDGE('',*,*,#537,.T.);
#689=ORIENTED_EDGE('',*,*,#561,.F.);
#690=ORIENTED_EDGE('',*,*,#562,.F.);
#691=ORIENTED_EDGE('',*,*,#563,.T.);
#692=ORIENTED_EDGE('',*,*,#553,.T.);
#693=ORIENTED_EDGE('',*,*,#563,.F.);
#694=ORIENTED_EDGE('',*,*,#564,.F.);
#695=ORIENTED_EDGE('',*,*,#565,.T.);
#696=ORIENTED_EDGE('',*,*,#536,.T.);
#697=ORIENTED_EDGE('',*,*,#565,.F.);
#698=ORIENTED_EDGE('',*,*,#566,.F.);
#699=ORIENTED_EDGE('',*,*,#567,.T.);
#700=ORIENTED_EDGE('',*,*,#539,.T.);
#701=ORIENTED_EDGE('',*,*,#567,.F.);
#702=ORIENTED_EDGE('',*,*,#568,.F.);
#703=ORIENTED_EDGE('',*,*,#569,.T.);
#704=ORIENTED_EDGE('',*,*,#549,.T.);
#705=ORIENTED_EDGE('',*,*,#569,.F.);
#706=ORIENTED_EDGE('',*,*,#533,.T.);
#707=ORIENTED_EDGE('',*,*,#570,.F.);
#708=ORIENTED_EDGE('',*,*,#571,.T.);
#709=ORIENTED_EDGE('',*,*,#555,.T.);
#710=ORIENTED_EDGE('',*,*,#571,.F.);
#711=ORIENTED_EDGE('',*,*,#572,.F.);
#712=ORIENTED_EDGE('',*,*,#573,.T.);
#713=ORIENTED_EDGE('',*,*,#556,.T.);
#714=ORIENTED_EDGE('',*,*,#573,.F.);
#715=ORIENTED_EDGE('',*,*,#574,.F.);
#716=ORIENTED_EDGE('',*,*,#575,.T.);
#717=ORIENTED_EDGE('',*,*,#554,.T.);
#718=ORIENTED_EDGE('',*,*,#575,.F.);
#719=ORIENTED_EDGE('',*,*,#576,.F.);
#720=ORIENTED_EDGE('',*,*,#577,.T.);
#721=ORIENTED_EDGE('',*,*,#557,.T.);
#722=ORIENTED_EDGE('',*,*,#577,.F.);
#723=ORIENTED_EDGE('',*,*,#578,.F.);
#724=ORIENTED_EDGE('',*,*,#579,.T.);
#725=ORIENTED_EDGE('',*,*,#548,.T.);
#726=ORIENTED_EDGE('',*,*,#579,.F.);
#727=ORIENTED_EDGE('',*,*,#580,.F.);
#728=ORIENTED_EDGE('',*,*,#581,.T.);
#729=ORIENTED_EDGE('',*,*,#550,.T.);
#730=ORIENTED_EDGE('',*,*,#581,.F.);
#731=ORIENTED_EDGE('',*,*,#582,.F.);
#732=ORIENTED_EDGE('',*,*,#583,.T.);
#733=ORIENTED_EDGE('',*,*,#543,.T.);
#734=ORIENTED_EDGE('',*,*,#583,.F.);
#735=ORIENTED_EDGE('',*,*,#584,.F.);
#736=ORIENTED_EDGE('',*,*,#585,.T.);
#737=ORIENTED_EDGE('',*,*,#544,.T.);
#738=ORIENTED_EDGE('',*,*,#585,.F.);
#739=ORIENTED_EDGE('',*,*,#586,.F.);
#740=ORIENTED_EDGE('',*,*,#587,.T.);
#741=ORIENTED_EDGE('',*,*,#542,.T.);
#742=ORIENTED_EDGE('',*,*,#587,.F.);
#743=ORIENTED_EDGE('',*,*,#588,.F.);
#744=ORIENTED_EDGE('',*,*,#589,.T.);
#745=ORIENTED_EDGE('',*,*,#545,.T.);
#746=ORIENTED_EDGE('',*,*,#589,.F.);
#747=ORIENTED_EDGE('',*,*,#590,.F.);
#748=ORIENTED_EDGE('',*,*,#591,.T.);
#749=ORIENTED_EDGE('',*,*,#541,.T.);
#750=ORIENTED_EDGE('',*,*,#591,.F.);
#751=ORIENTED_EDGE('',*,*,#592,.F.);
#752=ORIENTED_EDGE('',*,*,#593,.T.);
#753=ORIENTED_EDGE('',*,*,#552,.T.);
#754=ORIENTED_EDGE('',*,*,#593,.F.);
#755=ORIENTED_EDGE('',*,*,#594,.F.);
#756=ORIENTED_EDGE('',*,*,#595,.T.);
#757=ORIENTED_EDGE('',*,*,#546,.T.);
#758=ORIENTED_EDGE('',*,*,#595,.F.);
#759=ORIENTED_EDGE('',*,*,#596,.F.);
#760=ORIENTED_EDGE('',*,*,#597,.T.);
#761=ORIENTED_EDGE('',*,*,#551,.T.);
#762=ORIENTED_EDGE('',*,*,#597,.F.);
#763=ORIENTED_EDGE('',*,*,#598,.F.);
#764=ORIENTED_EDGE('',*,*,#599,.T.);
#765=ORIENTED_EDGE('',*,*,#538,.T.);
#766=ORIENTED_EDGE('',*,*,#599,.F.);
#767=ORIENTED_EDGE('',*,*,#600,.F.);
#768=ORIENTED_EDGE('',*,*,#601,.T.);
#769=ORIENTED_EDGE('',*,*,#547,.T.);
#770=ORIENTED_EDGE('',*,*,#601,.F.);
#771=ORIENTED_EDGE('',*,*,#602,.T.);
#772=ORIENTED_EDGE('',*,*,#603,.T.);
#773=ORIENTED_EDGE('',*,*,#604,.T.);
#774=ORIENTED_EDGE('',*,*,#605,.T.);
#775=ORIENTED_EDGE('',*,*,#606,.T.);
#776=ORIENTED_EDGE('',*,*,#607,.T.);
#777=ORIENTED_EDGE('',*,*,#608,.T.);
#778=ORIENTED_EDGE('',*,*,#609,.T.);
#779=ORIENTED_EDGE('',*,*,#535,.T.);
#780=ORIENTED_EDGE('',*,*,#578,.T.);
#781=ORIENTED_EDGE('',*,*,#580,.T.);
#782=ORIENTED_EDGE('',*,*,#582,.T.);
#783=ORIENTED_EDGE('',*,*,#584,.T.);
#784=ORIENTED_EDGE('',*,*,#586,.T.);
#785=ORIENTED_EDGE('',*,*,#588,.T.);
#786=ORIENTED_EDGE('',*,*,#590,.T.);
#787=ORIENTED_EDGE('',*,*,#592,.T.);
#788=ORIENTED_EDGE('',*,*,#594,.T.);
#789=ORIENTED_EDGE('',*,*,#596,.T.);
#790=ORIENTED_EDGE('',*,*,#598,.T.);
#791=ORIENTED_EDGE('',*,*,#600,.T.);
#792=ORIENTED_EDGE('',*,*,#610,.T.);
#793=ORIENTED_EDGE('',*,*,#611,.T.);
#794=ORIENTED_EDGE('',*,*,#612,.T.);
#795=ORIENTED_EDGE('',*,*,#613,.T.);
#796=ORIENTED_EDGE('',*,*,#614,.T.);
#797=ORIENTED_EDGE('',*,*,#576,.T.);
#798=ORIENTED_EDGE('',*,*,#574,.T.);
#799=ORIENTED_EDGE('',*,*,#572,.T.);
#800=ORIENTED_EDGE('',*,*,#570,.T.);
#801=ORIENTED_EDGE('',*,*,#568,.T.);
#802=ORIENTED_EDGE('',*,*,#566,.T.);
#803=ORIENTED_EDGE('',*,*,#564,.T.);
#804=ORIENTED_EDGE('',*,*,#562,.T.);
#805=ORIENTED_EDGE('',*,*,#560,.T.);
#806=ORIENTED_EDGE('',*,*,#558,.T.);
#807=ORIENTED_EDGE('',*,*,#614,.F.);
#808=ORIENTED_EDGE('',*,*,#615,.T.);
#809=ORIENTED_EDGE('',*,*,#616,.T.);
#810=ORIENTED_EDGE('',*,*,#615,.F.);
#811=ORIENTED_EDGE('',*,*,#616,.F.);
#812=ORIENTED_EDGE('',*,*,#617,.F.);
#813=ORIENTED_EDGE('',*,*,#613,.F.);
#814=ORIENTED_EDGE('',*,*,#618,.T.);
#815=ORIENTED_EDGE('',*,*,#619,.T.);
#816=ORIENTED_EDGE('',*,*,#618,.F.);
#817=ORIENTED_EDGE('',*,*,#619,.F.);
#818=ORIENTED_EDGE('',*,*,#620,.F.);
#819=ORIENTED_EDGE('',*,*,#612,.F.);
#820=ORIENTED_EDGE('',*,*,#621,.T.);
#821=ORIENTED_EDGE('',*,*,#622,.T.);
#822=ORIENTED_EDGE('',*,*,#621,.F.);
#823=ORIENTED_EDGE('',*,*,#622,.F.);
#824=ORIENTED_EDGE('',*,*,#623,.F.);
#825=ORIENTED_EDGE('',*,*,#611,.F.);
#826=ORIENTED_EDGE('',*,*,#624,.T.);
#827=ORIENTED_EDGE('',*,*,#625,.T.);
#828=ORIENTED_EDGE('',*,*,#624,.F.);
#829=ORIENTED_EDGE('',*,*,#625,.F.);
#830=ORIENTED_EDGE('',*,*,#626,.F.);
#831=ORIENTED_EDGE('',*,*,#610,.F.);
#832=ORIENTED_EDGE('',*,*,#627,.T.);
#833=ORIENTED_EDGE('',*,*,#628,.T.);
#834=ORIENTED_EDGE('',*,*,#627,.F.);
#835=ORIENTED_EDGE('',*,*,#628,.F.);
#836=ORIENTED_EDGE('',*,*,#629,.F.);
#837=ORIENTED_EDGE('',*,*,#629,.T.);
#838=ORIENTED_EDGE('',*,*,#630,.T.);
#839=ORIENTED_EDGE('',*,*,#631,.T.);
#840=ORIENTED_EDGE('',*,*,#630,.F.);
#841=ORIENTED_EDGE('',*,*,#617,.T.);
#842=ORIENTED_EDGE('',*,*,#632,.T.);
#843=ORIENTED_EDGE('',*,*,#633,.T.);
#844=ORIENTED_EDGE('',*,*,#632,.F.);
#845=ORIENTED_EDGE('',*,*,#620,.T.);
#846=ORIENTED_EDGE('',*,*,#634,.T.);
#847=ORIENTED_EDGE('',*,*,#635,.T.);
#848=ORIENTED_EDGE('',*,*,#634,.F.);
#849=ORIENTED_EDGE('',*,*,#626,.T.);
#850=ORIENTED_EDGE('',*,*,#636,.T.);
#851=ORIENTED_EDGE('',*,*,#637,.T.);
#852=ORIENTED_EDGE('',*,*,#636,.F.);
#853=ORIENTED_EDGE('',*,*,#623,.T.);
#854=ORIENTED_EDGE('',*,*,#638,.T.);
#855=ORIENTED_EDGE('',*,*,#639,.T.);
#856=ORIENTED_EDGE('',*,*,#638,.F.);
#857=ORIENTED_EDGE('',*,*,#640,.T.);
#858=ORIENTED_EDGE('',*,*,#641,.T.);
#859=ORIENTED_EDGE('',*,*,#609,.F.);
#860=ORIENTED_EDGE('',*,*,#642,.F.);
#861=ORIENTED_EDGE('',*,*,#643,.F.);
#862=ORIENTED_EDGE('',*,*,#642,.T.);
#863=ORIENTED_EDGE('',*,*,#608,.F.);
#864=ORIENTED_EDGE('',*,*,#644,.F.);
#865=ORIENTED_EDGE('',*,*,#645,.F.);
#866=ORIENTED_EDGE('',*,*,#644,.T.);
#867=ORIENTED_EDGE('',*,*,#607,.F.);
#868=ORIENTED_EDGE('',*,*,#646,.F.);
#869=ORIENTED_EDGE('',*,*,#647,.T.);
#870=ORIENTED_EDGE('',*,*,#646,.T.);
#871=ORIENTED_EDGE('',*,*,#606,.F.);
#872=ORIENTED_EDGE('',*,*,#648,.F.);
#873=ORIENTED_EDGE('',*,*,#649,.F.);
#874=ORIENTED_EDGE('',*,*,#648,.T.);
#875=ORIENTED_EDGE('',*,*,#605,.F.);
#876=ORIENTED_EDGE('',*,*,#650,.F.);
#877=ORIENTED_EDGE('',*,*,#651,.F.);
#878=ORIENTED_EDGE('',*,*,#650,.T.);
#879=ORIENTED_EDGE('',*,*,#604,.F.);
#880=ORIENTED_EDGE('',*,*,#652,.F.);
#881=ORIENTED_EDGE('',*,*,#653,.F.);
#882=ORIENTED_EDGE('',*,*,#652,.T.);
#883=ORIENTED_EDGE('',*,*,#603,.F.);
#884=ORIENTED_EDGE('',*,*,#654,.F.);
#885=ORIENTED_EDGE('',*,*,#655,.T.);
#886=ORIENTED_EDGE('',*,*,#654,.T.);
#887=ORIENTED_EDGE('',*,*,#602,.F.);
#888=ORIENTED_EDGE('',*,*,#641,.F.);
#889=ORIENTED_EDGE('',*,*,#655,.F.);
#890=ORIENTED_EDGE('',*,*,#640,.F.);
#891=ORIENTED_EDGE('',*,*,#643,.T.);
#892=ORIENTED_EDGE('',*,*,#645,.T.);
#893=ORIENTED_EDGE('',*,*,#647,.F.);
#894=ORIENTED_EDGE('',*,*,#649,.T.);
#895=ORIENTED_EDGE('',*,*,#651,.T.);
#896=ORIENTED_EDGE('',*,*,#653,.T.);
#897=ORIENTED_EDGE('',*,*,#639,.F.);
#898=ORIENTED_EDGE('',*,*,#637,.F.);
#899=ORIENTED_EDGE('',*,*,#635,.F.);
#900=ORIENTED_EDGE('',*,*,#633,.F.);
#901=ORIENTED_EDGE('',*,*,#631,.F.);
#902=CYLINDRICAL_SURFACE('',#1020,0.275000000000002);
#903=CYLINDRICAL_SURFACE('',#1067,0.199999999999999);
#904=CYLINDRICAL_SURFACE('',#1069,0.199999999999999);
#905=CYLINDRICAL_SURFACE('',#1071,0.200000000000003);
#906=CYLINDRICAL_SURFACE('',#1073,0.199999999999999);
#907=CYLINDRICAL_SURFACE('',#1075,0.200000000000003);
#908=CYLINDRICAL_SURFACE('',#1077,0.199999999999999);
#909=CYLINDRICAL_SURFACE('',#1080,0.149999999999999);
#910=CYLINDRICAL_SURFACE('',#1082,0.149999999999999);
#911=CYLINDRICAL_SURFACE('',#1084,0.149999999999999);
#912=CYLINDRICAL_SURFACE('',#1086,0.149999999999999);
#913=CYLINDRICAL_SURFACE('',#1088,0.199999999999999);
#914=CYLINDRICAL_SURFACE('',#1090,0.199999999999999);
#915=CYLINDRICAL_SURFACE('',#1092,0.199999999999999);
#916=CYLINDRICAL_SURFACE('',#1094,0.199999999999999);
#917=CYLINDRICAL_SURFACE('',#1096,0.199999999999999);
#918=CYLINDRICAL_SURFACE('',#1098,0.199999999999999);
#919=CYLINDRICAL_SURFACE('',#1100,0.199999999999999);
#920=CYLINDRICAL_SURFACE('',#1102,0.199999999999999);
#921=CYLINDRICAL_SURFACE('',#1104,0.199999999999999);
#922=CYLINDRICAL_SURFACE('',#1106,0.199999999999999);
#923=CYLINDRICAL_SURFACE('',#1108,0.199999999999999);
#924=CYLINDRICAL_SURFACE('',#1110,0.199999999999999);
#925=CYLINDRICAL_SURFACE('',#1118,0.4);
#926=CYLINDRICAL_SURFACE('',#1122,0.4);
#927=CYLINDRICAL_SURFACE('',#1126,0.4);
#928=CYLINDRICAL_SURFACE('',#1130,0.4);
#929=CYLINDRICAL_SURFACE('',#1134,0.4);
#930=CYLINDRICAL_SURFACE('',#1138,0.25);
#931=CYLINDRICAL_SURFACE('',#1140,0.25);
#932=CYLINDRICAL_SURFACE('',#1142,0.25);
#933=CYLINDRICAL_SURFACE('',#1144,0.249999999999998);
#934=CYLINDRICAL_SURFACE('',#1146,0.249999999999998);
#935=ADVANCED_FACE('',(#91),#902,.F.);
#936=ADVANCED_FACE('',(#92),#53,.T.);
#937=ADVANCED_FACE('',(#93),#54,.T.);
#938=ADVANCED_FACE('',(#94),#55,.T.);
#939=ADVANCED_FACE('',(#95),#56,.T.);
#940=ADVANCED_FACE('',(#96),#57,.T.);
#941=ADVANCED_FACE('',(#97),#58,.T.);
#942=ADVANCED_FACE('',(#98),#59,.T.);
#943=ADVANCED_FACE('',(#99),#60,.T.);
#944=ADVANCED_FACE('',(#100),#61,.T.);
#945=ADVANCED_FACE('',(#101),#62,.T.);
#946=ADVANCED_FACE('',(#102),#63,.T.);
#947=ADVANCED_FACE('',(#103),#64,.T.);
#948=ADVANCED_FACE('',(#104),#65,.T.);
#949=ADVANCED_FACE('',(#105),#66,.T.);
#950=ADVANCED_FACE('',(#106),#67,.T.);
#951=ADVANCED_FACE('',(#107),#68,.T.);
#952=ADVANCED_FACE('',(#108),#69,.T.);
#953=ADVANCED_FACE('',(#109),#70,.T.);
#954=ADVANCED_FACE('',(#110),#71,.T.);
#955=ADVANCED_FACE('',(#111),#72,.T.);
#956=ADVANCED_FACE('',(#112),#73,.T.);
#957=ADVANCED_FACE('',(#113),#74,.T.);
#958=ADVANCED_FACE('',(#114),#903,.F.);
#959=ADVANCED_FACE('',(#115),#904,.F.);
#960=ADVANCED_FACE('',(#116),#905,.F.);
#961=ADVANCED_FACE('',(#117),#906,.F.);
#962=ADVANCED_FACE('',(#118),#907,.F.);
#963=ADVANCED_FACE('',(#119),#908,.F.);
#964=ADVANCED_FACE('',(#120),#75,.T.);
#965=ADVANCED_FACE('',(#121),#909,.F.);
#966=ADVANCED_FACE('',(#122),#910,.F.);
#967=ADVANCED_FACE('',(#123),#911,.F.);
#968=ADVANCED_FACE('',(#124),#912,.F.);
#969=ADVANCED_FACE('',(#125),#913,.F.);
#970=ADVANCED_FACE('',(#126),#914,.F.);
#971=ADVANCED_FACE('',(#127),#915,.F.);
#972=ADVANCED_FACE('',(#128),#916,.F.);
#973=ADVANCED_FACE('',(#129),#917,.F.);
#974=ADVANCED_FACE('',(#130),#918,.F.);
#975=ADVANCED_FACE('',(#131),#919,.F.);
#976=ADVANCED_FACE('',(#132),#920,.F.);
#977=ADVANCED_FACE('',(#133),#921,.F.);
#978=ADVANCED_FACE('',(#134),#922,.F.);
#979=ADVANCED_FACE('',(#135),#923,.F.);
#980=ADVANCED_FACE('',(#136),#924,.F.);
#981=ADVANCED_FACE('',(#137,#15,#16,#17,#18,#19,#20,#21,#22,#23,#24,#25,
#26,#27,#28,#29,#30,#31,#32,#33,#34,#35,#36,#37,#38,#39,#40,#41,#42),#76,
 .T.);
#982=ADVANCED_FACE('',(#138),#925,.F.);
#983=ADVANCED_FACE('',(#139,#43),#77,.T.);
#984=ADVANCED_FACE('',(#140),#926,.F.);
#985=ADVANCED_FACE('',(#141,#44),#78,.T.);
#986=ADVANCED_FACE('',(#142),#927,.F.);
#987=ADVANCED_FACE('',(#143,#45),#79,.T.);
#988=ADVANCED_FACE('',(#144),#928,.F.);
#989=ADVANCED_FACE('',(#145,#46),#80,.T.);
#990=ADVANCED_FACE('',(#146),#929,.F.);
#991=ADVANCED_FACE('',(#147,#47),#81,.T.);
#992=ADVANCED_FACE('',(#148),#930,.F.);
#993=ADVANCED_FACE('',(#149),#931,.F.);
#994=ADVANCED_FACE('',(#150),#932,.F.);
#995=ADVANCED_FACE('',(#151),#933,.F.);
#996=ADVANCED_FACE('',(#152),#934,.F.);
#997=ADVANCED_FACE('',(#153),#82,.T.);
#998=ADVANCED_FACE('',(#154),#83,.T.);
#999=ADVANCED_FACE('',(#155),#84,.T.);
#1000=ADVANCED_FACE('',(#156),#85,.T.);
#1001=ADVANCED_FACE('',(#157),#86,.T.);
#1002=ADVANCED_FACE('',(#158),#87,.T.);
#1003=ADVANCED_FACE('',(#159),#88,.T.);
#1004=ADVANCED_FACE('',(#160),#89,.T.);
#1005=ADVANCED_FACE('',(#161,#48,#49,#50,#51,#52),#90,.F.);
#1006=CLOSED_SHELL('',(#935,#936,#937,#938,#939,#940,#941,#942,#943,#944,
#945,#946,#947,#948,#949,#950,#951,#952,#953,#954,#955,#956,#957,#958,#959,
#960,#961,#962,#963,#964,#965,#966,#967,#968,#969,#970,#971,#972,#973,#974,
#975,#976,#977,#978,#979,#980,#981,#982,#983,#984,#985,#986,#987,#988,#989,
#990,#991,#992,#993,#994,#995,#996,#997,#998,#999,#1000,#1001,#1002,#1003,
#1004,#1005));
#1007=DERIVED_UNIT_ELEMENT(#1009,1.);
#1008=DERIVED_UNIT_ELEMENT(#1772,-3.);
#1009=(
MASS_UNIT()
NAMED_UNIT(*)
SI_UNIT(.KILO.,.GRAM.)
);
#1010=DERIVED_UNIT((#1007,#1008));
#1011=MEASURE_REPRESENTATION_ITEM('density measure',
POSITIVE_RATIO_MEASURE(1060.),#1010);
#1012=PROPERTY_DEFINITION_REPRESENTATION(#1017,#1014);
#1013=PROPERTY_DEFINITION_REPRESENTATION(#1018,#1015);
#1014=REPRESENTATION('material name',(#1016),#1769);
#1015=REPRESENTATION('density',(#1011),#1769);
#1016=DESCRIPTIVE_REPRESENTATION_ITEM('ABS \X2\D50CB77CC2A4D2F1\X0\',
'ABS \X2\D50CB77CC2A4D2F1\X0\');
#1017=PROPERTY_DEFINITION('material property','material name',#1779);
#1018=PROPERTY_DEFINITION('material property','density of part',#1779);
#1019=AXIS2_PLACEMENT_3D('',#1490,#1157,#1158);
#1020=AXIS2_PLACEMENT_3D('',#1491,#1159,#1160);
#1021=AXIS2_PLACEMENT_3D('',#1493,#1161,#1162);
#1022=AXIS2_PLACEMENT_3D('',#1496,#1164,#1165);
#1023=AXIS2_PLACEMENT_3D('',#1497,#1166,#1167);
#1024=AXIS2_PLACEMENT_3D('',#1499,#1168,#1169);
#1025=AXIS2_PLACEMENT_3D('',#1500,#1170,#1171);
#1026=AXIS2_PLACEMENT_3D('',#1502,#1172,#1173);
#1027=AXIS2_PLACEMENT_3D('',#1503,#1174,#1175);
#1028=AXIS2_PLACEMENT_3D('',#1505,#1176,#1177);
#1029=AXIS2_PLACEMENT_3D('',#1506,#1178,#1179);
#1030=AXIS2_PLACEMENT_3D('',#1508,#1180,#1181);
#1031=AXIS2_PLACEMENT_3D('',#1509,#1182,#1183);
#1032=AXIS2_PLACEMENT_3D('',#1511,#1184,#1185);
#1033=AXIS2_PLACEMENT_3D('',#1512,#1186,#1187);
#1034=AXIS2_PLACEMENT_3D('',#1514,#1188,#1189);
#1035=AXIS2_PLACEMENT_3D('',#1515,#1190,#1191);
#1036=AXIS2_PLACEMENT_3D('',#1517,#1192,#1193);
#1037=AXIS2_PLACEMENT_3D('',#1518,#1194,#1195);
#1038=AXIS2_PLACEMENT_3D('',#1520,#1196,#1197);
#1039=AXIS2_PLACEMENT_3D('',#1521,#1198,#1199);
#1040=AXIS2_PLACEMENT_3D('',#1523,#1200,#1201);
#1041=AXIS2_PLACEMENT_3D('',#1524,#1202,#1203);
#1042=AXIS2_PLACEMENT_3D('',#1526,#1204,#1205);
#1043=AXIS2_PLACEMENT_3D('',#1527,#1206,#1207);
#1044=AXIS2_PLACEMENT_3D('',#1529,#1208,#1209);
#1045=AXIS2_PLACEMENT_3D('',#1530,#1210,#1211);
#1046=AXIS2_PLACEMENT_3D('',#1532,#1212,#1213);
#1047=AXIS2_PLACEMENT_3D('',#1533,#1214,#1215);
#1048=AXIS2_PLACEMENT_3D('',#1535,#1216,#1217);
#1049=AXIS2_PLACEMENT_3D('',#1536,#1218,#1219);
#1050=AXIS2_PLACEMENT_3D('',#1538,#1220,#1221);
#1051=AXIS2_PLACEMENT_3D('',#1539,#1222,#1223);
#1052=AXIS2_PLACEMENT_3D('',#1541,#1224,#1225);
#1053=AXIS2_PLACEMENT_3D('',#1542,#1226,#1227);
#1054=AXIS2_PLACEMENT_3D('',#1544,#1228,#1229);
#1055=AXIS2_PLACEMENT_3D('',#1545,#1230,#1231);
#1056=AXIS2_PLACEMENT_3D('',#1547,#1232,#1233);
#1057=AXIS2_PLACEMENT_3D('',#1548,#1234,#1235);
#1058=AXIS2_PLACEMENT_3D('',#1550,#1236,#1237);
#1059=AXIS2_PLACEMENT_3D('',#1551,#1238,#1239);
#1060=AXIS2_PLACEMENT_3D('',#1553,#1240,#1241);
#1061=AXIS2_PLACEMENT_3D('',#1554,#1242,#1243);
#1062=AXIS2_PLACEMENT_3D('',#1556,#1244,#1245);
#1063=AXIS2_PLACEMENT_3D('',#1557,#1246,#1247);
#1064=AXIS2_PLACEMENT_3D('',#1559,#1248,#1249);
#1065=AXIS2_PLACEMENT_3D('',#1560,#1250,#1251);
#1066=AXIS2_PLACEMENT_3D('',#1562,#1252,#1253);
#1067=AXIS2_PLACEMENT_3D('',#1563,#1254,#1255);
#1068=AXIS2_PLACEMENT_3D('',#1565,#1256,#1257);
#1069=AXIS2_PLACEMENT_3D('',#1567,#1259,#1260);
#1070=AXIS2_PLACEMENT_3D('',#1569,#1261,#1262);
#1071=AXIS2_PLACEMENT_3D('',#1571,#1264,#1265);
#1072=AXIS2_PLACEMENT_3D('',#1573,#1266,#1267);
#1073=AXIS2_PLACEMENT_3D('',#1575,#1269,#1270);
#1074=AXIS2_PLACEMENT_3D('',#1577,#1271,#1272);
#1075=AXIS2_PLACEMENT_3D('',#1579,#1274,#1275);
#1076=AXIS2_PLACEMENT_3D('',#1581,#1276,#1277);
#1077=AXIS2_PLACEMENT_3D('',#1583,#1279,#1280);
#1078=AXIS2_PLACEMENT_3D('',#1585,#1281,#1282);
#1079=AXIS2_PLACEMENT_3D('',#1587,#1284,#1285);
#1080=AXIS2_PLACEMENT_3D('',#1588,#1286,#1287);
#1081=AXIS2_PLACEMENT_3D('',#1590,#1288,#1289);
#1082=AXIS2_PLACEMENT_3D('',#1592,#1291,#1292);
#1083=AXIS2_PLACEMENT_3D('',#1594,#1293,#1294);
#1084=AXIS2_PLACEMENT_3D('',#1596,#1296,#1297);
#1085=AXIS2_PLACEMENT_3D('',#1598,#1298,#1299);
#1086=AXIS2_PLACEMENT_3D('',#1600,#1301,#1302);
#1087=AXIS2_PLACEMENT_3D('',#1602,#1303,#1304);
#1088=AXIS2_PLACEMENT_3D('',#1604,#1306,#1307);
#1089=AXIS2_PLACEMENT_3D('',#1606,#1308,#1309);
#1090=AXIS2_PLACEMENT_3D('',#1608,#1311,#1312);
#1091=AXIS2_PLACEMENT_3D('',#1610,#1313,#1314);
#1092=AXIS2_PLACEMENT_3D('',#1612,#1316,#1317);
#1093=AXIS2_PLACEMENT_3D('',#1614,#1318,#1319);
#1094=AXIS2_PLACEMENT_3D('',#1616,#1321,#1322);
#1095=AXIS2_PLACEMENT_3D('',#1618,#1323,#1324);
#1096=AXIS2_PLACEMENT_3D('',#1620,#1326,#1327);
#1097=AXIS2_PLACEMENT_3D('',#1622,#1328,#1329);
#1098=AXIS2_PLACEMENT_3D('',#1624,#1331,#1332);
#1099=AXIS2_PLACEMENT_3D('',#1626,#1333,#1334);
#1100=AXIS2_PLACEMENT_3D('',#1628,#1336,#1337);
#1101=AXIS2_PLACEMENT_3D('',#1630,#1338,#1339);
#1102=AXIS2_PLACEMENT_3D('',#1632,#1341,#1342);
#1103=AXIS2_PLACEMENT_3D('',#1634,#1343,#1344);
#1104=AXIS2_PLACEMENT_3D('',#1636,#1346,#1347);
#1105=AXIS2_PLACEMENT_3D('',#1638,#1348,#1349);
#1106=AXIS2_PLACEMENT_3D('',#1640,#1351,#1352);
#1107=AXIS2_PLACEMENT_3D('',#1642,#1353,#1354);
#1108=AXIS2_PLACEMENT_3D('',#1644,#1356,#1357);
#1109=AXIS2_PLACEMENT_3D('',#1646,#1358,#1359);
#1110=AXIS2_PLACEMENT_3D('',#1648,#1361,#1362);
#1111=AXIS2_PLACEMENT_3D('',#1650,#1363,#1364);
#1112=AXIS2_PLACEMENT_3D('',#1652,#1366,#1367);
#1113=AXIS2_PLACEMENT_3D('',#1670,#1376,#1377);
#1114=AXIS2_PLACEMENT_3D('',#1672,#1378,#1379);
#1115=AXIS2_PLACEMENT_3D('',#1674,#1380,#1381);
#1116=AXIS2_PLACEMENT_3D('',#1676,#1382,#1383);
#1117=AXIS2_PLACEMENT_3D('',#1678,#1384,#1385);
#1118=AXIS2_PLACEMENT_3D('',#1679,#1386,#1387);
#1119=AXIS2_PLACEMENT_3D('',#1682,#1389,#1390);
#1120=AXIS2_PLACEMENT_3D('',#1683,#1391,#1392);
#1121=AXIS2_PLACEMENT_3D('',#1685,#1393,#1394);
#1122=AXIS2_PLACEMENT_3D('',#1686,#1395,#1396);
#1123=AXIS2_PLACEMENT_3D('',#1689,#1398,#1399);
#1124=AXIS2_PLACEMENT_3D('',#1690,#1400,#1401);
#1125=AXIS2_PLACEMENT_3D('',#1692,#1402,#1403);
#1126=AXIS2_PLACEMENT_3D('',#1693,#1404,#1405);
#1127=AXIS2_PLACEMENT_3D('',#1696,#1407,#1408);
#1128=AXIS2_PLACEMENT_3D('',#1697,#1409,#1410);
#1129=AXIS2_PLACEMENT_3D('',#1699,#1411,#1412);
#1130=AXIS2_PLACEMENT_3D('',#1700,#1413,#1414);
#1131=AXIS2_PLACEMENT_3D('',#1703,#1416,#1417);
#1132=AXIS2_PLACEMENT_3D('',#1704,#1418,#1419);
#1133=AXIS2_PLACEMENT_3D('',#1706,#1420,#1421);
#1134=AXIS2_PLACEMENT_3D('',#1707,#1422,#1423);
#1135=AXIS2_PLACEMENT_3D('',#1710,#1425,#1426);
#1136=AXIS2_PLACEMENT_3D('',#1711,#1427,#1428);
#1137=AXIS2_PLACEMENT_3D('',#1713,#1429,#1430);
#1138=AXIS2_PLACEMENT_3D('',#1714,#1431,#1432);
#1139=AXIS2_PLACEMENT_3D('',#1717,#1434,#1435);
#1140=AXIS2_PLACEMENT_3D('',#1718,#1436,#1437);
#1141=AXIS2_PLACEMENT_3D('',#1721,#1439,#1440);
#1142=AXIS2_PLACEMENT_3D('',#1722,#1441,#1442);
#1143=AXIS2_PLACEMENT_3D('',#1725,#1444,#1445);
#1144=AXIS2_PLACEMENT_3D('',#1726,#1446,#1447);
#1145=AXIS2_PLACEMENT_3D('',#1729,#1449,#1450);
#1146=AXIS2_PLACEMENT_3D('',#1730,#1451,#1452);
#1147=AXIS2_PLACEMENT_3D('',#1733,#1454,#1455);
#1148=AXIS2_PLACEMENT_3D('',#1734,#1456,#1457);
#1149=AXIS2_PLACEMENT_3D('',#1740,#1461,#1462);
#1150=AXIS2_PLACEMENT_3D('',#1744,#1465,#1466);
#1151=AXIS2_PLACEMENT_3D('',#1748,#1469,#1470);
#1152=AXIS2_PLACEMENT_3D('',#1752,#1473,#1474);
#1153=AXIS2_PLACEMENT_3D('',#1756,#1477,#1478);
#1154=AXIS2_PLACEMENT_3D('',#1760,#1481,#1482);
#1155=AXIS2_PLACEMENT_3D('',#1764,#1485,#1486);
#1156=AXIS2_PLACEMENT_3D('',#1766,#1488,#1489);
#1157=DIRECTION('axis',(0.,0.,1.));
#1158=DIRECTION('refdir',(1.,0.,0.));
#1159=DIRECTION('center_axis',(0.,0.,-1.));
#1160=DIRECTION('ref_axis',(-1.,0.,0.));
#1161=DIRECTION('center_axis',(0.,0.,1.));
#1162=DIRECTION('ref_axis',(-1.,0.,0.));
#1163=DIRECTION('',(0.,0.,1.));
#1164=DIRECTION('center_axis',(0.,0.,-1.));
#1165=DIRECTION('ref_axis',(-1.,0.,0.));
#1166=DIRECTION('center_axis',(0.,0.,1.));
#1167=DIRECTION('ref_axis',(-1.,0.,0.));
#1168=DIRECTION('center_axis',(0.,0.,-1.));
#1169=DIRECTION('ref_axis',(-1.,0.,0.));
#1170=DIRECTION('center_axis',(0.,0.,1.));
#1171=DIRECTION('ref_axis',(-1.,0.,0.));
#1172=DIRECTION('center_axis',(0.,0.,-1.));
#1173=DIRECTION('ref_axis',(-1.,0.,0.));
#1174=DIRECTION('center_axis',(0.,0.,1.));
#1175=DIRECTION('ref_axis',(-1.,0.,0.));
#1176=DIRECTION('center_axis',(0.,0.,-1.));
#1177=DIRECTION('ref_axis',(-1.,0.,0.));
#1178=DIRECTION('center_axis',(0.,0.,1.));
#1179=DIRECTION('ref_axis',(-1.,0.,0.));
#1180=DIRECTION('center_axis',(0.,0.,-1.));
#1181=DIRECTION('ref_axis',(-1.,0.,0.));
#1182=DIRECTION('center_axis',(0.,0.,1.));
#1183=DIRECTION('ref_axis',(-1.,0.,0.));
#1184=DIRECTION('center_axis',(0.,0.,-1.));
#1185=DIRECTION('ref_axis',(-1.,0.,0.));
#1186=DIRECTION('center_axis',(0.,0.,1.));
#1187=DIRECTION('ref_axis',(-1.,0.,0.));
#1188=DIRECTION('center_axis',(0.,0.,-1.));
#1189=DIRECTION('ref_axis',(-1.,0.,0.));
#1190=DIRECTION('center_axis',(0.,0.,1.));
#1191=DIRECTION('ref_axis',(-1.,0.,0.));
#1192=DIRECTION('center_axis',(0.,0.,-1.));
#1193=DIRECTION('ref_axis',(-1.,0.,0.));
#1194=DIRECTION('center_axis',(0.,0.,1.));
#1195=DIRECTION('ref_axis',(-1.,0.,0.));
#1196=DIRECTION('center_axis',(0.,0.,-1.));
#1197=DIRECTION('ref_axis',(-1.,0.,0.));
#1198=DIRECTION('center_axis',(0.,0.,1.));
#1199=DIRECTION('ref_axis',(-1.,0.,0.));
#1200=DIRECTION('center_axis',(0.,0.,-1.));
#1201=DIRECTION('ref_axis',(-1.,0.,0.));
#1202=DIRECTION('center_axis',(0.,0.,1.));
#1203=DIRECTION('ref_axis',(-1.,0.,0.));
#1204=DIRECTION('center_axis',(0.,0.,-1.));
#1205=DIRECTION('ref_axis',(-1.,0.,0.));
#1206=DIRECTION('center_axis',(0.,0.,1.));
#1207=DIRECTION('ref_axis',(-1.,0.,0.));
#1208=DIRECTION('center_axis',(0.,0.,-1.));
#1209=DIRECTION('ref_axis',(-1.,0.,0.));
#1210=DIRECTION('center_axis',(0.,0.,1.));
#1211=DIRECTION('ref_axis',(-1.,0.,0.));
#1212=DIRECTION('center_axis',(0.,0.,-1.));
#1213=DIRECTION('ref_axis',(-1.,0.,0.));
#1214=DIRECTION('center_axis',(0.,0.,1.));
#1215=DIRECTION('ref_axis',(-1.,0.,0.));
#1216=DIRECTION('center_axis',(0.,0.,-1.));
#1217=DIRECTION('ref_axis',(-1.,0.,0.));
#1218=DIRECTION('center_axis',(0.,0.,1.));
#1219=DIRECTION('ref_axis',(-1.,0.,0.));
#1220=DIRECTION('center_axis',(0.,0.,-1.));
#1221=DIRECTION('ref_axis',(-1.,0.,0.));
#1222=DIRECTION('center_axis',(0.,0.,1.));
#1223=DIRECTION('ref_axis',(-1.,0.,0.));
#1224=DIRECTION('center_axis',(0.,0.,-1.));
#1225=DIRECTION('ref_axis',(-1.,0.,0.));
#1226=DIRECTION('center_axis',(0.,0.,1.));
#1227=DIRECTION('ref_axis',(-1.,0.,0.));
#1228=DIRECTION('center_axis',(0.,0.,-1.));
#1229=DIRECTION('ref_axis',(-1.,0.,0.));
#1230=DIRECTION('center_axis',(0.,0.,1.));
#1231=DIRECTION('ref_axis',(-1.,0.,0.));
#1232=DIRECTION('center_axis',(0.,0.,-1.));
#1233=DIRECTION('ref_axis',(-1.,0.,0.));
#1234=DIRECTION('center_axis',(0.,0.,1.));
#1235=DIRECTION('ref_axis',(-1.,0.,0.));
#1236=DIRECTION('center_axis',(0.,0.,-1.));
#1237=DIRECTION('ref_axis',(-1.,0.,0.));
#1238=DIRECTION('center_axis',(0.,0.,1.));
#1239=DIRECTION('ref_axis',(-1.,0.,0.));
#1240=DIRECTION('center_axis',(0.,0.,-1.));
#1241=DIRECTION('ref_axis',(-1.,0.,0.));
#1242=DIRECTION('center_axis',(0.,0.,1.));
#1243=DIRECTION('ref_axis',(-1.,0.,0.));
#1244=DIRECTION('center_axis',(0.,0.,-1.));
#1245=DIRECTION('ref_axis',(-1.,0.,0.));
#1246=DIRECTION('center_axis',(0.,0.,1.));
#1247=DIRECTION('ref_axis',(-1.,0.,0.));
#1248=DIRECTION('center_axis',(0.,0.,-1.));
#1249=DIRECTION('ref_axis',(-1.,0.,0.));
#1250=DIRECTION('center_axis',(0.,0.,1.));
#1251=DIRECTION('ref_axis',(-1.,0.,0.));
#1252=DIRECTION('center_axis',(0.,0.,-1.));
#1253=DIRECTION('ref_axis',(-1.,0.,0.));
#1254=DIRECTION('center_axis',(0.,0.,-1.));
#1255=DIRECTION('ref_axis',(-1.,0.,0.));
#1256=DIRECTION('center_axis',(0.,0.,-1.));
#1257=DIRECTION('ref_axis',(-1.,0.,0.));
#1258=DIRECTION('',(0.,0.,-1.));
#1259=DIRECTION('center_axis',(0.,0.,-1.));
#1260=DIRECTION('ref_axis',(-1.,0.,0.));
#1261=DIRECTION('center_axis',(0.,0.,-1.));
#1262=DIRECTION('ref_axis',(-1.,0.,0.));
#1263=DIRECTION('',(0.,0.,-1.));
#1264=DIRECTION('center_axis',(0.,0.,-1.));
#1265=DIRECTION('ref_axis',(-1.,0.,0.));
#1266=DIRECTION('center_axis',(0.,0.,-1.));
#1267=DIRECTION('ref_axis',(-1.,0.,0.));
#1268=DIRECTION('',(0.,0.,-1.));
#1269=DIRECTION('center_axis',(0.,0.,-1.));
#1270=DIRECTION('ref_axis',(-1.,0.,0.));
#1271=DIRECTION('center_axis',(0.,0.,-1.));
#1272=DIRECTION('ref_axis',(-1.,0.,0.));
#1273=DIRECTION('',(0.,0.,-1.));
#1274=DIRECTION('center_axis',(0.,0.,-1.));
#1275=DIRECTION('ref_axis',(-1.,0.,0.));
#1276=DIRECTION('center_axis',(0.,0.,-1.));
#1277=DIRECTION('ref_axis',(-1.,0.,0.));
#1278=DIRECTION('',(0.,0.,-1.));
#1279=DIRECTION('center_axis',(0.,0.,-1.));
#1280=DIRECTION('ref_axis',(-1.,0.,0.));
#1281=DIRECTION('center_axis',(0.,0.,-1.));
#1282=DIRECTION('ref_axis',(-1.,0.,0.));
#1283=DIRECTION('',(0.,0.,-1.));
#1284=DIRECTION('center_axis',(0.,0.,1.));
#1285=DIRECTION('ref_axis',(-1.,0.,0.));
#1286=DIRECTION('center_axis',(0.,0.,-1.));
#1287=DIRECTION('ref_axis',(-1.,0.,0.));
#1288=DIRECTION('center_axis',(0.,0.,-1.));
#1289=DIRECTION('ref_axis',(-1.,0.,0.));
#1290=DIRECTION('',(0.,0.,-1.));
#1291=DIRECTION('center_axis',(0.,0.,-1.));
#1292=DIRECTION('ref_axis',(-1.,0.,0.));
#1293=DIRECTION('center_axis',(0.,0.,-1.));
#1294=DIRECTION('ref_axis',(-1.,0.,0.));
#1295=DIRECTION('',(0.,0.,-1.));
#1296=DIRECTION('center_axis',(0.,0.,-1.));
#1297=DIRECTION('ref_axis',(-1.,0.,0.));
#1298=DIRECTION('center_axis',(0.,0.,-1.));
#1299=DIRECTION('ref_axis',(-1.,0.,0.));
#1300=DIRECTION('',(0.,0.,-1.));
#1301=DIRECTION('center_axis',(0.,0.,-1.));
#1302=DIRECTION('ref_axis',(-1.,0.,0.));
#1303=DIRECTION('center_axis',(0.,0.,-1.));
#1304=DIRECTION('ref_axis',(-1.,0.,0.));
#1305=DIRECTION('',(0.,0.,-1.));
#1306=DIRECTION('center_axis',(0.,0.,-1.));
#1307=DIRECTION('ref_axis',(-1.,0.,0.));
#1308=DIRECTION('center_axis',(0.,0.,-1.));
#1309=DIRECTION('ref_axis',(-1.,0.,0.));
#1310=DIRECTION('',(0.,0.,-1.));
#1311=DIRECTION('center_axis',(0.,0.,-1.));
#1312=DIRECTION('ref_axis',(-1.,0.,0.));
#1313=DIRECTION('center_axis',(0.,0.,-1.));
#1314=DIRECTION('ref_axis',(-1.,0.,0.));
#1315=DIRECTION('',(0.,0.,-1.));
#1316=DIRECTION('center_axis',(0.,0.,-1.));
#1317=DIRECTION('ref_axis',(-1.,0.,0.));
#1318=DIRECTION('center_axis',(0.,0.,-1.));
#1319=DIRECTION('ref_axis',(-1.,0.,0.));
#1320=DIRECTION('',(0.,0.,-1.));
#1321=DIRECTION('center_axis',(0.,0.,-1.));
#1322=DIRECTION('ref_axis',(-1.,0.,0.));
#1323=DIRECTION('center_axis',(0.,0.,-1.));
#1324=DIRECTION('ref_axis',(-1.,0.,0.));
#1325=DIRECTION('',(0.,0.,-1.));
#1326=DIRECTION('center_axis',(0.,0.,-1.));
#1327=DIRECTION('ref_axis',(-1.,0.,0.));
#1328=DIRECTION('center_axis',(0.,0.,-1.));
#1329=DIRECTION('ref_axis',(-1.,0.,0.));
#1330=DIRECTION('',(0.,0.,-1.));
#1331=DIRECTION('center_axis',(0.,0.,-1.));
#1332=DIRECTION('ref_axis',(-1.,0.,0.));
#1333=DIRECTION('center_axis',(0.,0.,-1.));
#1334=DIRECTION('ref_axis',(-1.,0.,0.));
#1335=DIRECTION('',(0.,0.,-1.));
#1336=DIRECTION('center_axis',(0.,0.,-1.));
#1337=DIRECTION('ref_axis',(-1.,0.,0.));
#1338=DIRECTION('center_axis',(0.,0.,-1.));
#1339=DIRECTION('ref_axis',(-1.,0.,0.));
#1340=DIRECTION('',(0.,0.,-1.));
#1341=DIRECTION('center_axis',(0.,0.,-1.));
#1342=DIRECTION('ref_axis',(-1.,0.,0.));
#1343=DIRECTION('center_axis',(0.,0.,-1.));
#1344=DIRECTION('ref_axis',(-1.,0.,0.));
#1345=DIRECTION('',(0.,0.,-1.));
#1346=DIRECTION('center_axis',(0.,0.,-1.));
#1347=DIRECTION('ref_axis',(-1.,0.,0.));
#1348=DIRECTION('center_axis',(0.,0.,-1.));
#1349=DIRECTION('ref_axis',(-1.,0.,0.));
#1350=DIRECTION('',(0.,0.,-1.));
#1351=DIRECTION('center_axis',(0.,0.,-1.));
#1352=DIRECTION('ref_axis',(-1.,0.,0.));
#1353=DIRECTION('center_axis',(0.,0.,-1.));
#1354=DIRECTION('ref_axis',(-1.,0.,0.));
#1355=DIRECTION('',(0.,0.,-1.));
#1356=DIRECTION('center_axis',(0.,0.,-1.));
#1357=DIRECTION('ref_axis',(-1.,0.,0.));
#1358=DIRECTION('center_axis',(0.,0.,-1.));
#1359=DIRECTION('ref_axis',(-1.,0.,0.));
#1360=DIRECTION('',(0.,0.,-1.));
#1361=DIRECTION('center_axis',(0.,0.,-1.));
#1362=DIRECTION('ref_axis',(-1.,0.,0.));
#1363=DIRECTION('center_axis',(0.,0.,-1.));
#1364=DIRECTION('ref_axis',(-1.,0.,0.));
#1365=DIRECTION('',(0.,0.,-1.));
#1366=DIRECTION('center_axis',(0.,0.,1.));
#1367=DIRECTION('ref_axis',(-1.,1.22464679914735E-16,0.));
#1368=DIRECTION('',(1.22464679914735E-16,1.,0.));
#1369=DIRECTION('',(1.,-1.22464679914735E-16,0.));
#1370=DIRECTION('',(1.22464679914735E-16,1.,0.));
#1371=DIRECTION('',(1.,-1.22464679914735E-16,0.));
#1372=DIRECTION('',(1.22464679914735E-16,1.,0.));
#1373=DIRECTION('',(-1.,1.22464679914735E-16,0.));
#1374=DIRECTION('',(-1.22464679914735E-16,-1.,0.));
#1375=DIRECTION('',(1.,-1.22464679914735E-16,0.));
#1376=DIRECTION('center_axis',(0.,0.,-1.));
#1377=DIRECTION('ref_axis',(1.,-1.22464679914735E-16,0.));
#1378=DIRECTION('center_axis',(0.,0.,-1.));
#1379=DIRECTION('ref_axis',(1.,-1.22464679914735E-16,0.));
#1380=DIRECTION('center_axis',(0.,0.,-1.));
#1381=DIRECTION('ref_axis',(1.,-1.22464679914735E-16,0.));
#1382=DIRECTION('center_axis',(0.,0.,-1.));
#1383=DIRECTION('ref_axis',(1.,-1.22464679914735E-16,0.));
#1384=DIRECTION('center_axis',(0.,0.,-1.));
#1385=DIRECTION('ref_axis',(1.,-1.22464679914735E-16,0.));
#1386=DIRECTION('center_axis',(0.,0.,-1.));
#1387=DIRECTION('ref_axis',(1.,-1.22464679914735E-16,0.));
#1388=DIRECTION('',(0.,0.,-1.));
#1389=DIRECTION('center_axis',(0.,0.,-1.));
#1390=DIRECTION('ref_axis',(1.,-1.22464679914735E-16,0.));
#1391=DIRECTION('center_axis',(0.,0.,1.));
#1392=DIRECTION('ref_axis',(1.,-1.22464679914735E-16,0.));
#1393=DIRECTION('center_axis',(0.,0.,1.));
#1394=DIRECTION('ref_axis',(-1.,1.22464679914735E-16,0.));
#1395=DIRECTION('center_axis',(0.,0.,-1.));
#1396=DIRECTION('ref_axis',(1.,-1.22464679914735E-16,0.));
#1397=DIRECTION('',(0.,0.,-1.));
#1398=DIRECTION('center_axis',(0.,0.,-1.));
#1399=DIRECTION('ref_axis',(1.,-1.22464679914735E-16,0.));
#1400=DIRECTION('center_axis',(0.,0.,1.));
#1401=DIRECTION('ref_axis',(1.,-1.22464679914735E-16,0.));
#1402=DIRECTION('center_axis',(0.,0.,1.));
#1403=DIRECTION('ref_axis',(-1.,1.22464679914735E-16,0.));
#1404=DIRECTION('center_axis',(0.,0.,-1.));
#1405=DIRECTION('ref_axis',(1.,-1.22464679914735E-16,0.));
#1406=DIRECTION('',(0.,0.,-1.));
#1407=DIRECTION('center_axis',(0.,0.,-1.));
#1408=DIRECTION('ref_axis',(1.,-1.22464679914735E-16,0.));
#1409=DIRECTION('center_axis',(0.,0.,1.));
#1410=DIRECTION('ref_axis',(1.,-1.22464679914735E-16,0.));
#1411=DIRECTION('center_axis',(0.,0.,1.));
#1412=DIRECTION('ref_axis',(-1.,1.22464679914735E-16,0.));
#1413=DIRECTION('center_axis',(0.,0.,-1.));
#1414=DIRECTION('ref_axis',(1.,-1.22464679914735E-16,0.));
#1415=DIRECTION('',(0.,0.,-1.));
#1416=DIRECTION('center_axis',(0.,0.,-1.));
#1417=DIRECTION('ref_axis',(1.,-1.22464679914735E-16,0.));
#1418=DIRECTION('center_axis',(0.,0.,1.));
#1419=DIRECTION('ref_axis',(1.,-1.22464679914735E-16,0.));
#1420=DIRECTION('center_axis',(0.,0.,1.));
#1421=DIRECTION('ref_axis',(-1.,1.22464679914735E-16,0.));
#1422=DIRECTION('center_axis',(0.,0.,-1.));
#1423=DIRECTION('ref_axis',(1.,-1.22464679914735E-16,0.));
#1424=DIRECTION('',(0.,0.,-1.));
#1425=DIRECTION('center_axis',(0.,0.,-1.));
#1426=DIRECTION('ref_axis',(1.,-1.22464679914735E-16,0.));
#1427=DIRECTION('center_axis',(0.,0.,1.));
#1428=DIRECTION('ref_axis',(1.,-1.22464679914735E-16,0.));
#1429=DIRECTION('center_axis',(0.,0.,1.));
#1430=DIRECTION('ref_axis',(-1.,1.22464679914735E-16,0.));
#1431=DIRECTION('center_axis',(0.,0.,1.));
#1432=DIRECTION('ref_axis',(-1.,1.22464679914735E-16,0.));
#1433=DIRECTION('',(0.,0.,-1.));
#1434=DIRECTION('center_axis',(0.,0.,-1.));
#1435=DIRECTION('ref_axis',(-1.,1.22464679914735E-16,0.));
#1436=DIRECTION('center_axis',(0.,0.,1.));
#1437=DIRECTION('ref_axis',(-1.,1.22464679914735E-16,0.));
#1438=DIRECTION('',(0.,0.,-1.));
#1439=DIRECTION('center_axis',(0.,0.,-1.));
#1440=DIRECTION('ref_axis',(-1.,1.22464679914735E-16,0.));
#1441=DIRECTION('center_axis',(0.,0.,1.));
#1442=DIRECTION('ref_axis',(-1.,1.22464679914735E-16,0.));
#1443=DIRECTION('',(0.,0.,-1.));
#1444=DIRECTION('center_axis',(0.,0.,-1.));
#1445=DIRECTION('ref_axis',(-1.,1.22464679914735E-16,0.));
#1446=DIRECTION('center_axis',(0.,0.,1.));
#1447=DIRECTION('ref_axis',(-1.,1.22464679914735E-16,0.));
#1448=DIRECTION('',(0.,0.,-1.));
#1449=DIRECTION('center_axis',(0.,0.,-1.));
#1450=DIRECTION('ref_axis',(-1.,1.22464679914735E-16,0.));
#1451=DIRECTION('center_axis',(0.,0.,1.));
#1452=DIRECTION('ref_axis',(-1.,1.22464679914735E-16,0.));
#1453=DIRECTION('',(0.,0.,-1.));
#1454=DIRECTION('center_axis',(0.,0.,-1.));
#1455=DIRECTION('ref_axis',(-1.,1.22464679914735E-16,0.));
#1456=DIRECTION('center_axis',(-1.22464679914735E-16,-1.,0.));
#1457=DIRECTION('ref_axis',(1.,-1.22464679914735E-16,0.));
#1458=DIRECTION('',(1.,-1.22464679914735E-16,0.));
#1459=DIRECTION('',(0.,0.,1.));
#1460=DIRECTION('',(0.,0.,1.));
#1461=DIRECTION('center_axis',(-1.,1.22464679914735E-16,0.));
#1462=DIRECTION('ref_axis',(-1.22464679914735E-16,-1.,0.));
#1463=DIRECTION('',(1.22464679914735E-16,1.,0.));
#1464=DIRECTION('',(0.,0.,1.));
#1465=DIRECTION('center_axis',(1.22464679914735E-16,1.,0.));
#1466=DIRECTION('ref_axis',(-1.,1.22464679914735E-16,0.));
#1467=DIRECTION('',(1.,-1.22464679914735E-16,0.));
#1468=DIRECTION('',(0.,0.,1.));
#1469=DIRECTION('center_axis',(1.,-1.22464679914735E-16,0.));
#1470=DIRECTION('ref_axis',(1.22464679914735E-16,1.,0.));
#1471=DIRECTION('',(1.22464679914735E-16,1.,0.));
#1472=DIRECTION('',(0.,0.,1.));
#1473=DIRECTION('center_axis',(-1.22464679914735E-16,-1.,0.));
#1474=DIRECTION('ref_axis',(1.,-1.22464679914735E-16,0.));
#1475=DIRECTION('',(-1.,1.22464679914735E-16,0.));
#1476=DIRECTION('',(0.,0.,1.));
#1477=DIRECTION('center_axis',(1.,-1.22464679914735E-16,0.));
#1478=DIRECTION('ref_axis',(1.22464679914735E-16,1.,0.));
#1479=DIRECTION('',(-1.22464679914735E-16,-1.,0.));
#1480=DIRECTION('',(0.,0.,1.));
#1481=DIRECTION('center_axis',(-1.22464679914735E-16,-1.,0.));
#1482=DIRECTION('ref_axis',(1.,-1.22464679914735E-16,0.));
#1483=DIRECTION('',(-1.,1.22464679914735E-16,0.));
#1484=DIRECTION('',(0.,0.,1.));
#1485=DIRECTION('center_axis',(1.,-1.22464679914735E-16,0.));
#1486=DIRECTION('ref_axis',(1.22464679914735E-16,1.,0.));
#1487=DIRECTION('',(1.22464679914735E-16,1.,0.));
#1488=DIRECTION('center_axis',(0.,0.,1.));
#1489=DIRECTION('ref_axis',(-1.,1.22464679914735E-16,0.));
#1490=CARTESIAN_POINT('',(0.,0.,0.));
#1491=CARTESIAN_POINT('Origin',(21.6545103617474,7.14873382017952,1.));
#1492=CARTESIAN_POINT('',(21.9295103617474,7.14873382017952,0.25));
#1493=CARTESIAN_POINT('Origin',(21.6545103617474,7.14873382017952,0.25));
#1494=CARTESIAN_POINT('',(21.9295103617474,7.14873382017952,1.));
#1495=CARTESIAN_POINT('',(21.9295103617474,7.14873382017952,1.));
#1496=CARTESIAN_POINT('Origin',(21.6545103617474,7.14873382017952,1.));
#1497=CARTESIAN_POINT('Origin',(30.05,19.05,0.35));
#1498=CARTESIAN_POINT('',(30.25,19.05,0.35));
#1499=CARTESIAN_POINT('Origin',(30.05,19.05,0.35));
#1500=CARTESIAN_POINT('Origin',(28.05,19.05,0.35));
#1501=CARTESIAN_POINT('',(28.25,19.05,0.35));
#1502=CARTESIAN_POINT('Origin',(28.05,19.05,0.35));
#1503=CARTESIAN_POINT('Origin',(26.9730973443745,21.7492018305879,0.35));
#1504=CARTESIAN_POINT('',(27.1730973443745,21.7492018305879,0.35));
#1505=CARTESIAN_POINT('Origin',(26.9730973443745,21.7492018305879,0.35));
#1506=CARTESIAN_POINT('Origin',(33.95,19.05,0.35));
#1507=CARTESIAN_POINT('',(34.15,19.05,0.35));
#1508=CARTESIAN_POINT('Origin',(33.95,19.05,0.35));
#1509=CARTESIAN_POINT('Origin',(30.05,11.95,0.25));
#1510=CARTESIAN_POINT('',(30.25,11.95,0.25));
#1511=CARTESIAN_POINT('Origin',(30.05,11.95,0.25));
#1512=CARTESIAN_POINT('Origin',(18.4370573396623,13.9403659929241,0.25));
#1513=CARTESIAN_POINT('',(18.6370573396623,13.9403659929241,0.25));
#1514=CARTESIAN_POINT('Origin',(18.4370573396623,13.9403659929241,0.25));
#1515=CARTESIAN_POINT('Origin',(21.975622635023,12.1503713594835,0.25));
#1516=CARTESIAN_POINT('',(22.175622635023,12.1503713594835,0.25));
#1517=CARTESIAN_POINT('Origin',(21.975622635023,12.1503713594835,0.25));
#1518=CARTESIAN_POINT('Origin',(26.474703192882,11.6501078500631,0.25));
#1519=CARTESIAN_POINT('',(26.6747031928819,11.6501078500631,0.25));
#1520=CARTESIAN_POINT('Origin',(26.474703192882,11.6501078500631,0.25));
#1521=CARTESIAN_POINT('Origin',(28.1389726307232,10.0405055839753,0.25));
#1522=CARTESIAN_POINT('',(28.3389726307232,10.0405055839753,0.25));
#1523=CARTESIAN_POINT('Origin',(28.1389726307232,10.0405055839753,0.25));
#1524=CARTESIAN_POINT('Origin',(26.4735819210072,7.14894475924724,0.25));
#1525=CARTESIAN_POINT('',(26.6735819210072,7.14894475924724,0.25));
#1526=CARTESIAN_POINT('Origin',(26.4735819210072,7.14894475924724,0.25));
#1527=CARTESIAN_POINT('Origin',(25.7025486435834,5.01012205096844,0.25));
#1528=CARTESIAN_POINT('',(25.9025486435834,5.01012205096844,0.25));
#1529=CARTESIAN_POINT('Origin',(25.7025486435834,5.01012205096844,0.25));
#1530=CARTESIAN_POINT('Origin',(26.9061610541292,3.81008464101578,0.25));
#1531=CARTESIAN_POINT('',(27.1061610541292,3.81008464101578,0.25));
#1532=CARTESIAN_POINT('Origin',(26.9061610541292,3.81008464101578,0.25));
#1533=CARTESIAN_POINT('Origin',(29.4722495307265,7.29999163807113,0.25));
#1534=CARTESIAN_POINT('',(29.6722495307265,7.29999163807113,0.25));
#1535=CARTESIAN_POINT('Origin',(29.4722495307265,7.29999163807113,0.25));
#1536=CARTESIAN_POINT('Origin',(28.0500004179776,11.9500001780689,0.25));
#1537=CARTESIAN_POINT('',(28.2500004179776,11.9500001780689,0.25));
#1538=CARTESIAN_POINT('Origin',(28.0500004179776,11.9500001780689,0.25));
#1539=CARTESIAN_POINT('Origin',(24.6392846192252,12.0380538561084,0.25));
#1540=CARTESIAN_POINT('',(24.8392846192252,12.0380538561084,0.25));
#1541=CARTESIAN_POINT('Origin',(24.6392846192252,12.0380538561084,0.25));
#1542=CARTESIAN_POINT('Origin',(18.975622635023,12.1503713594835,0.25));
#1543=CARTESIAN_POINT('',(19.175622635023,12.1503713594835,0.25));
#1544=CARTESIAN_POINT('Origin',(18.975622635023,12.1503713594835,0.25));
#1545=CARTESIAN_POINT('Origin',(24.9742662911598,16.2530054681779,0.25));
#1546=CARTESIAN_POINT('',(25.1742662911598,16.2530054681779,0.25));
#1547=CARTESIAN_POINT('Origin',(24.9742662911598,16.2530054681779,0.25));
#1548=CARTESIAN_POINT('Origin',(33.95,11.95,0.25));
#1549=CARTESIAN_POINT('',(34.15,11.95,0.25));
#1550=CARTESIAN_POINT('Origin',(33.95,11.95,0.25));
#1551=CARTESIAN_POINT('Origin',(20.1463495434556,17.0602655905218,0.15));
#1552=CARTESIAN_POINT('',(20.2963495434556,17.0602655905218,0.15));
#1553=CARTESIAN_POINT('Origin',(20.1463495434556,17.0602655905218,0.15));
#1554=CARTESIAN_POINT('Origin',(22.6442922947405,4.11423429375359,0.15));
#1555=CARTESIAN_POINT('',(22.7942922947405,4.11423429375359,0.15));
#1556=CARTESIAN_POINT('Origin',(22.6442922947405,4.11423429375359,0.15));
#1557=CARTESIAN_POINT('Origin',(23.4253455602873,2.43496977282781,0.15));
#1558=CARTESIAN_POINT('',(23.5753455602873,2.43496977282781,0.15));
#1559=CARTESIAN_POINT('Origin',(23.4253455602873,2.43496977282781,0.15));
#1560=CARTESIAN_POINT('Origin',(20.1496498159524,15.2098727374734,0.15));
#1561=CARTESIAN_POINT('',(20.2996498159524,15.2098727374734,0.15));
#1562=CARTESIAN_POINT('Origin',(20.1496498159524,15.2098727374734,0.15));
#1563=CARTESIAN_POINT('Origin',(30.05,11.95,1.));
#1564=CARTESIAN_POINT('',(30.25,11.95,1.));
#1565=CARTESIAN_POINT('Origin',(30.05,11.95,1.));
#1566=CARTESIAN_POINT('',(30.25,11.95,1.));
#1567=CARTESIAN_POINT('Origin',(28.05,19.05,1.));
#1568=CARTESIAN_POINT('',(28.25,19.05,1.));
#1569=CARTESIAN_POINT('Origin',(28.05,19.05,1.));
#1570=CARTESIAN_POINT('',(28.25,19.05,1.));
#1571=CARTESIAN_POINT('Origin',(33.95,11.95,1.));
#1572=CARTESIAN_POINT('',(34.15,11.95,1.));
#1573=CARTESIAN_POINT('Origin',(33.95,11.95,1.));
#1574=CARTESIAN_POINT('',(34.15,11.95,1.));
#1575=CARTESIAN_POINT('Origin',(30.05,19.05,1.));
#1576=CARTESIAN_POINT('',(30.25,19.05,1.));
#1577=CARTESIAN_POINT('Origin',(30.05,19.05,1.));
#1578=CARTESIAN_POINT('',(30.25,19.05,1.));
#1579=CARTESIAN_POINT('Origin',(33.95,19.05,1.));
#1580=CARTESIAN_POINT('',(34.15,19.05,1.));
#1581=CARTESIAN_POINT('Origin',(33.95,19.05,1.));
#1582=CARTESIAN_POINT('',(34.15,19.05,1.));
#1583=CARTESIAN_POINT('Origin',(28.0500004179776,11.9500001780689,1.));
#1584=CARTESIAN_POINT('',(28.2500004179776,11.9500001780689,1.));
#1585=CARTESIAN_POINT('Origin',(28.0500004179776,11.9500001780689,1.));
#1586=CARTESIAN_POINT('',(28.2500004179776,11.9500001780689,1.));
#1587=CARTESIAN_POINT('Origin',(21.6545103617474,7.14873382017952,0.25));
#1588=CARTESIAN_POINT('Origin',(22.6442922947405,4.11423429375359,1.));
#1589=CARTESIAN_POINT('',(22.7942922947405,4.11423429375359,1.));
#1590=CARTESIAN_POINT('Origin',(22.6442922947405,4.11423429375359,1.));
#1591=CARTESIAN_POINT('',(22.7942922947405,4.11423429375359,1.));
#1592=CARTESIAN_POINT('Origin',(23.4253455602873,2.43496977282781,1.));
#1593=CARTESIAN_POINT('',(23.5753455602873,2.43496977282781,1.));
#1594=CARTESIAN_POINT('Origin',(23.4253455602873,2.43496977282781,1.));
#1595=CARTESIAN_POINT('',(23.5753455602873,2.43496977282781,1.));
#1596=CARTESIAN_POINT('Origin',(20.1463495434556,17.0602655905218,1.));
#1597=CARTESIAN_POINT('',(20.2963495434556,17.0602655905218,1.));
#1598=CARTESIAN_POINT('Origin',(20.1463495434556,17.0602655905218,1.));
#1599=CARTESIAN_POINT('',(20.2963495434556,17.0602655905218,1.));
#1600=CARTESIAN_POINT('Origin',(20.1496498159524,15.2098727374734,1.));
#1601=CARTESIAN_POINT('',(20.2996498159524,15.2098727374734,1.));
#1602=CARTESIAN_POINT('Origin',(20.1496498159524,15.2098727374734,1.));
#1603=CARTESIAN_POINT('',(20.2996498159524,15.2098727374734,1.));
#1604=CARTESIAN_POINT('Origin',(29.4722495307265,7.29999163807113,1.));
#1605=CARTESIAN_POINT('',(29.6722495307265,7.29999163807113,1.));
#1606=CARTESIAN_POINT('Origin',(29.4722495307265,7.29999163807113,1.));
#1607=CARTESIAN_POINT('',(29.6722495307265,7.29999163807113,1.));
#1608=CARTESIAN_POINT('Origin',(24.6392846192252,12.0380538561084,1.));
#1609=CARTESIAN_POINT('',(24.8392846192252,12.0380538561084,1.));
#1610=CARTESIAN_POINT('Origin',(24.6392846192252,12.0380538561084,1.));
#1611=CARTESIAN_POINT('',(24.8392846192252,12.0380538561084,1.));
#1612=CARTESIAN_POINT('Origin',(26.474703192882,11.6501078500631,1.));
#1613=CARTESIAN_POINT('',(26.6747031928819,11.6501078500631,1.));
#1614=CARTESIAN_POINT('Origin',(26.474703192882,11.6501078500631,1.));
#1615=CARTESIAN_POINT('',(26.6747031928819,11.6501078500631,1.));
#1616=CARTESIAN_POINT('Origin',(28.1389726307232,10.0405055839753,1.));
#1617=CARTESIAN_POINT('',(28.3389726307232,10.0405055839753,1.));
#1618=CARTESIAN_POINT('Origin',(28.1389726307232,10.0405055839753,1.));
#1619=CARTESIAN_POINT('',(28.3389726307232,10.0405055839753,1.));
#1620=CARTESIAN_POINT('Origin',(21.975622635023,12.1503713594835,1.));
#1621=CARTESIAN_POINT('',(22.175622635023,12.1503713594835,1.));
#1622=CARTESIAN_POINT('Origin',(21.975622635023,12.1503713594835,1.));
#1623=CARTESIAN_POINT('',(22.175622635023,12.1503713594835,1.));
#1624=CARTESIAN_POINT('Origin',(26.4735819210072,7.14894475924724,1.));
#1625=CARTESIAN_POINT('',(26.6735819210072,7.14894475924724,1.));
#1626=CARTESIAN_POINT('Origin',(26.4735819210072,7.14894475924724,1.));
#1627=CARTESIAN_POINT('',(26.6735819210072,7.14894475924724,1.));
#1628=CARTESIAN_POINT('Origin',(18.4370573396623,13.9403659929241,1.));
#1629=CARTESIAN_POINT('',(18.6370573396623,13.9403659929241,1.));
#1630=CARTESIAN_POINT('Origin',(18.4370573396623,13.9403659929241,1.));
#1631=CARTESIAN_POINT('',(18.6370573396623,13.9403659929241,1.));
#1632=CARTESIAN_POINT('Origin',(24.9742662911598,16.2530054681779,1.));
#1633=CARTESIAN_POINT('',(25.1742662911598,16.2530054681779,1.));
#1634=CARTESIAN_POINT('Origin',(24.9742662911598,16.2530054681779,1.));
#1635=CARTESIAN_POINT('',(25.1742662911598,16.2530054681779,1.));
#1636=CARTESIAN_POINT('Origin',(25.7025486435834,5.01012205096844,1.));
#1637=CARTESIAN_POINT('',(25.9025486435834,5.01012205096844,1.));
#1638=CARTESIAN_POINT('Origin',(25.7025486435834,5.01012205096844,1.));
#1639=CARTESIAN_POINT('',(25.9025486435834,5.01012205096844,1.));
#1640=CARTESIAN_POINT('Origin',(18.975622635023,12.1503713594835,1.));
#1641=CARTESIAN_POINT('',(19.175622635023,12.1503713594835,1.));
#1642=CARTESIAN_POINT('Origin',(18.975622635023,12.1503713594835,1.));
#1643=CARTESIAN_POINT('',(19.175622635023,12.1503713594835,1.));
#1644=CARTESIAN_POINT('Origin',(26.9730973443745,21.7492018305879,1.));
#1645=CARTESIAN_POINT('',(27.1730973443745,21.7492018305879,1.));
#1646=CARTESIAN_POINT('Origin',(26.9730973443745,21.7492018305879,1.));
#1647=CARTESIAN_POINT('',(27.1730973443745,21.7492018305879,1.));
#1648=CARTESIAN_POINT('Origin',(26.9061610541292,3.81008464101578,1.));
#1649=CARTESIAN_POINT('',(27.1061610541292,3.81008464101578,1.));
#1650=CARTESIAN_POINT('Origin',(26.9061610541292,3.81008464101578,1.));
#1651=CARTESIAN_POINT('',(27.1061610541292,3.81008464101578,1.));
#1652=CARTESIAN_POINT('Origin',(26.625,11.225,1.));
#1653=CARTESIAN_POINT('',(29.5,0.,1.));
#1654=CARTESIAN_POINT('',(29.5,3.,1.));
#1655=CARTESIAN_POINT('',(29.5,0.,1.));
#1656=CARTESIAN_POINT('',(32.5,3.,1.));
#1657=CARTESIAN_POINT('',(32.5,3.,1.));
#1658=CARTESIAN_POINT('',(32.5,6.,1.));
#1659=CARTESIAN_POINT('',(32.5,6.,1.));
#1660=CARTESIAN_POINT('',(35.5,6.,1.));
#1661=CARTESIAN_POINT('',(35.5,6.,1.));
#1662=CARTESIAN_POINT('',(35.5,22.45,1.));
#1663=CARTESIAN_POINT('',(35.5,0.,1.));
#1664=CARTESIAN_POINT('',(17.75,22.45,1.));
#1665=CARTESIAN_POINT('',(0.,22.45,1.));
#1666=CARTESIAN_POINT('',(17.75,0.,1.));
#1667=CARTESIAN_POINT('',(17.75,0.,1.));
#1668=CARTESIAN_POINT('',(17.75,0.,1.));
#1669=CARTESIAN_POINT('',(33.6,7.5,1.));
#1670=CARTESIAN_POINT('Origin',(34.,7.5,1.));
#1671=CARTESIAN_POINT('',(27.6,1.5,1.));
#1672=CARTESIAN_POINT('Origin',(28.,1.5,1.));
#1673=CARTESIAN_POINT('',(33.6,20.95,1.));
#1674=CARTESIAN_POINT('Origin',(34.,20.95,1.));
#1675=CARTESIAN_POINT('',(18.85,1.5,1.));
#1676=CARTESIAN_POINT('Origin',(19.25,1.5,1.));
#1677=CARTESIAN_POINT('',(18.85,20.95,1.));
#1678=CARTESIAN_POINT('Origin',(19.25,20.95,1.));
#1679=CARTESIAN_POINT('Origin',(19.25,20.95,1.));
#1680=CARTESIAN_POINT('',(18.85,20.95,0.55));
#1681=CARTESIAN_POINT('',(18.85,20.95,1.));
#1682=CARTESIAN_POINT('Origin',(19.25,20.95,0.55));
#1683=CARTESIAN_POINT('Origin',(19.25,20.95,0.55));
#1684=CARTESIAN_POINT('',(19.5,20.95,0.55));
#1685=CARTESIAN_POINT('Origin',(19.25,20.95,0.55));
#1686=CARTESIAN_POINT('Origin',(19.25,1.5,1.));
#1687=CARTESIAN_POINT('',(18.85,1.5,0.55));
#1688=CARTESIAN_POINT('',(18.85,1.5,1.));
#1689=CARTESIAN_POINT('Origin',(19.25,1.5,0.55));
#1690=CARTESIAN_POINT('Origin',(19.25,1.5,0.55));
#1691=CARTESIAN_POINT('',(19.5,1.5,0.55));
#1692=CARTESIAN_POINT('Origin',(19.25,1.5,0.55));
#1693=CARTESIAN_POINT('Origin',(34.,20.95,1.));
#1694=CARTESIAN_POINT('',(33.6,20.95,0.55));
#1695=CARTESIAN_POINT('',(33.6,20.95,1.));
#1696=CARTESIAN_POINT('Origin',(34.,20.95,0.55));
#1697=CARTESIAN_POINT('Origin',(34.,20.95,0.55));
#1698=CARTESIAN_POINT('',(34.25,20.95,0.55));
#1699=CARTESIAN_POINT('Origin',(34.,20.95,0.55));
#1700=CARTESIAN_POINT('Origin',(28.,1.5,1.));
#1701=CARTESIAN_POINT('',(27.6,1.5,0.55));
#1702=CARTESIAN_POINT('',(27.6,1.5,1.));
#1703=CARTESIAN_POINT('Origin',(28.,1.5,0.55));
#1704=CARTESIAN_POINT('Origin',(28.,1.5,0.55));
#1705=CARTESIAN_POINT('',(28.25,1.5,0.55));
#1706=CARTESIAN_POINT('Origin',(28.,1.5,0.55));
#1707=CARTESIAN_POINT('Origin',(34.,7.5,1.));
#1708=CARTESIAN_POINT('',(33.6,7.5,0.55));
#1709=CARTESIAN_POINT('',(33.6,7.5,1.));
#1710=CARTESIAN_POINT('Origin',(34.,7.5,0.55));
#1711=CARTESIAN_POINT('Origin',(34.,7.5,0.55));
#1712=CARTESIAN_POINT('',(34.25,7.5,0.55));
#1713=CARTESIAN_POINT('Origin',(34.,7.5,0.55));
#1714=CARTESIAN_POINT('Origin',(34.,7.5,0.));
#1715=CARTESIAN_POINT('',(34.25,7.5,0.));
#1716=CARTESIAN_POINT('',(34.25,7.5,0.));
#1717=CARTESIAN_POINT('Origin',(34.,7.5,0.));
#1718=CARTESIAN_POINT('Origin',(19.25,20.95,0.));
#1719=CARTESIAN_POINT('',(19.5,20.95,0.));
#1720=CARTESIAN_POINT('',(19.5,20.95,0.));
#1721=CARTESIAN_POINT('Origin',(19.25,20.95,0.));
#1722=CARTESIAN_POINT('Origin',(19.25,1.5,0.));
#1723=CARTESIAN_POINT('',(19.5,1.5,0.));
#1724=CARTESIAN_POINT('',(19.5,1.5,0.));
#1725=CARTESIAN_POINT('Origin',(19.25,1.5,0.));
#1726=CARTESIAN_POINT('Origin',(28.,1.5,0.));
#1727=CARTESIAN_POINT('',(28.25,1.5,0.));
#1728=CARTESIAN_POINT('',(28.25,1.5,0.));
#1729=CARTESIAN_POINT('Origin',(28.,1.5,0.));
#1730=CARTESIAN_POINT('Origin',(34.,20.95,0.));
#1731=CARTESIAN_POINT('',(34.25,20.95,0.));
#1732=CARTESIAN_POINT('',(34.25,20.95,0.));
#1733=CARTESIAN_POINT('Origin',(34.,20.95,0.));
#1734=CARTESIAN_POINT('Origin',(17.75,0.,0.));
#1735=CARTESIAN_POINT('',(17.75,0.,0.));
#1736=CARTESIAN_POINT('',(29.5,0.,0.));
#1737=CARTESIAN_POINT('',(17.75,0.,0.));
#1738=CARTESIAN_POINT('',(29.5,0.,0.));
#1739=CARTESIAN_POINT('',(17.75,0.,0.));
#1740=CARTESIAN_POINT('Origin',(17.75,22.45,0.));
#1741=CARTESIAN_POINT('',(17.75,22.45,0.));
#1742=CARTESIAN_POINT('',(17.75,0.,0.));
#1743=CARTESIAN_POINT('',(17.75,22.45,0.));
#1744=CARTESIAN_POINT('Origin',(35.5,22.45,0.));
#1745=CARTESIAN_POINT('',(35.5,22.45,0.));
#1746=CARTESIAN_POINT('',(0.,22.45,0.));
#1747=CARTESIAN_POINT('',(35.5,22.45,0.));
#1748=CARTESIAN_POINT('Origin',(35.5,6.,0.));
#1749=CARTESIAN_POINT('',(35.5,6.,0.));
#1750=CARTESIAN_POINT('',(35.5,0.,0.));
#1751=CARTESIAN_POINT('',(35.5,6.,0.));
#1752=CARTESIAN_POINT('Origin',(32.5,6.,0.));
#1753=CARTESIAN_POINT('',(32.5,6.,0.));
#1754=CARTESIAN_POINT('',(35.5,6.,0.));
#1755=CARTESIAN_POINT('',(32.5,6.,0.));
#1756=CARTESIAN_POINT('Origin',(32.5,3.,0.));
#1757=CARTESIAN_POINT('',(32.5,3.,0.));
#1758=CARTESIAN_POINT('',(32.5,6.,0.));
#1759=CARTESIAN_POINT('',(32.5,3.,0.));
#1760=CARTESIAN_POINT('Origin',(29.5,3.,0.));
#1761=CARTESIAN_POINT('',(29.5,3.,0.));
#1762=CARTESIAN_POINT('',(32.5,3.,0.));
#1763=CARTESIAN_POINT('',(29.5,3.,0.));
#1764=CARTESIAN_POINT('Origin',(29.5,0.,0.));
#1765=CARTESIAN_POINT('',(29.5,0.,0.));
#1766=CARTESIAN_POINT('Origin',(26.625,11.225,0.));
#1767=UNCERTAINTY_MEASURE_WITH_UNIT(LENGTH_MEASURE(0.001),#1771,
'DISTANCE_ACCURACY_VALUE',
'Maximum model space distance between geometric entities at asserted c
onnectivities');
#1768=UNCERTAINTY_MEASURE_WITH_UNIT(LENGTH_MEASURE(0.001),#1771,
'DISTANCE_ACCURACY_VALUE',
'Maximum model space distance between geometric entities at asserted c
onnectivities');
#1769=(
GEOMETRIC_REPRESENTATION_CONTEXT(3)
GLOBAL_UNCERTAINTY_ASSIGNED_CONTEXT((#1767))
GLOBAL_UNIT_ASSIGNED_CONTEXT((#1771,#1773,#1774))
REPRESENTATION_CONTEXT('','3D')
);
#1770=(
GEOMETRIC_REPRESENTATION_CONTEXT(3)
GLOBAL_UNCERTAINTY_ASSIGNED_CONTEXT((#1768))
GLOBAL_UNIT_ASSIGNED_CONTEXT((#1771,#1773,#1774))
REPRESENTATION_CONTEXT('','3D')
);
#1771=(
LENGTH_UNIT()
NAMED_UNIT(*)
SI_UNIT(.CENTI.,.METRE.)
);
#1772=(
LENGTH_UNIT()
NAMED_UNIT(*)
SI_UNIT($,.METRE.)
);
#1773=(
NAMED_UNIT(*)
PLANE_ANGLE_UNIT()
SI_UNIT($,.RADIAN.)
);
#1774=(
NAMED_UNIT(*)
SI_UNIT($,.STERADIAN.)
SOLID_ANGLE_UNIT()
);
#1775=SHAPE_DEFINITION_REPRESENTATION(#1776,#1777);
#1776=PRODUCT_DEFINITION_SHAPE('',$,#1779);
#1777=SHAPE_REPRESENTATION('',(#1019),#1769);
#1778=PRODUCT_DEFINITION_CONTEXT('part definition',#1783,'design');
#1779=PRODUCT_DEFINITION('2026-07-21-19-29-33-496','plate dr-h2',#1780,
#1778);
#1780=PRODUCT_DEFINITION_FORMATION('',$,#1785);
#1781=PRODUCT_RELATED_PRODUCT_CATEGORY('plate dr-h2','plate dr-h2',(#1785));
#1782=APPLICATION_PROTOCOL_DEFINITION('international standard',
'automotive_design',2009,#1783);
#1783=APPLICATION_CONTEXT(
'Core Data for Automotive Mechanical Design Process');
#1784=PRODUCT_CONTEXT('part definition',#1783,'mechanical');
#1785=PRODUCT('2026-07-21-19-29-33-496','plate dr-h2',$,(#1784));
#1786=PRESENTATION_STYLE_ASSIGNMENT((#1787));
#1787=SURFACE_STYLE_USAGE(.BOTH.,#1788);
#1788=SURFACE_SIDE_STYLE('',(#1789));
#1789=SURFACE_STYLE_FILL_AREA(#1790);
#1790=FILL_AREA_STYLE('ABS(\X2\D770C0C9\X0\)',(#1791));
#1791=FILL_AREA_STYLE_COLOUR('ABS(\X2\D770C0C9\X0\)',#1792);
#1792=COLOUR_RGB('ABS(\X2\D770C0C9\X0\)',0.964705882352941,0.964705882352941,
0.952941176470588);
ENDSEC;
END-ISO-10303-21;
