ISO-10303-21;
HEADER;
/* Generated by software containing ST-Developer
 * from STEP Tools, Inc. (www.steptools.com) 
 */

FILE_DESCRIPTION(
/* description */ (''),
/* implementation_level */ '2;1');

FILE_NAME(
/* name */ 'RJ45-XT60 holder.step',
/* time_stamp */ '2026-08-31T17:54:51+09:00',
/* author */ (''),
/* organization */ (''),
/* preprocessor_version */ 'ST-DEVELOPER v20.1',
/* originating_system */ 'Autodesk Translation Framework v15.8.0.0',
/* authorisation */ '');

FILE_SCHEMA (('AUTOMOTIVE_DESIGN { 1 0 10303 214 3 1 1 }'));
ENDSEC;

DATA;
#10=MECHANICAL_DESIGN_GEOMETRIC_PRESENTATION_REPRESENTATION('',(#13),#1388);
#11=SHAPE_REPRESENTATION_RELATIONSHIP('SRR','None',#1395,#12);
#12=ADVANCED_BREP_SHAPE_REPRESENTATION('',(#14),#1387);
#13=STYLED_ITEM('',(#1404),#14);
#14=MANIFOLD_SOLID_BREP('\X2\BCF8CCB4\X0\4',#844);
#15=CYLINDRICAL_SURFACE('',#887,0.200000000000001);
#16=CYLINDRICAL_SURFACE('',#889,0.199999999999999);
#17=CYLINDRICAL_SURFACE('',#891,0.199999999999999);
#18=CYLINDRICAL_SURFACE('',#893,0.199999999999999);
#19=CYLINDRICAL_SURFACE('',#895,0.2);
#20=CYLINDRICAL_SURFACE('',#897,0.2);
#21=CYLINDRICAL_SURFACE('',#904,0.164999999999999);
#22=CYLINDRICAL_SURFACE('',#909,1.2);
#23=CYLINDRICAL_SURFACE('',#910,0.165000000000001);
#24=CYLINDRICAL_SURFACE('',#920,0.299999999999999);
#25=CYLINDRICAL_SURFACE('',#921,0.299999999999999);
#26=CYLINDRICAL_SURFACE('',#922,0.300000000000001);
#27=CYLINDRICAL_SURFACE('',#923,0.3);
#28=FACE_BOUND('',#126,.T.);
#29=FACE_BOUND('',#132,.T.);
#30=FACE_BOUND('',#137,.T.);
#31=FACE_BOUND('',#138,.T.);
#32=FACE_BOUND('',#139,.T.);
#33=FACE_BOUND('',#140,.T.);
#34=FACE_BOUND('',#141,.T.);
#35=FACE_BOUND('',#143,.T.);
#36=FACE_BOUND('',#146,.T.);
#37=FACE_BOUND('',#147,.T.);
#38=FACE_BOUND('',#148,.T.);
#39=FACE_BOUND('',#149,.T.);
#40=FACE_BOUND('',#150,.T.);
#41=FACE_BOUND('',#151,.T.);
#42=FACE_BOUND('',#161,.T.);
#43=FACE_BOUND('',#162,.T.);
#44=FACE_BOUND('',#163,.T.);
#45=FACE_BOUND('',#164,.T.);
#46=FACE_BOUND('',#165,.T.);
#47=FACE_BOUND('',#166,.T.);
#48=FACE_BOUND('',#175,.T.);
#49=FACE_BOUND('',#177,.T.);
#50=FACE_BOUND('',#179,.T.);
#51=FACE_BOUND('',#181,.T.);
#52=FACE_BOUND('',#183,.T.);
#53=CIRCLE('',#861,0.2);
#54=CIRCLE('',#867,0.199999999999999);
#55=CIRCLE('',#872,0.299999999999999);
#56=CIRCLE('',#873,0.299999999999999);
#57=CIRCLE('',#874,0.300000000000001);
#58=CIRCLE('',#875,0.3);
#59=CIRCLE('',#877,0.199999999999999);
#60=CIRCLE('',#880,0.200000000000001);
#61=CIRCLE('',#881,0.199999999999999);
#62=CIRCLE('',#882,0.165000000000001);
#63=CIRCLE('',#883,1.2);
#64=CIRCLE('',#884,0.164999999999999);
#65=CIRCLE('',#888,0.200000000000001);
#66=CIRCLE('',#890,0.199999999999999);
#67=CIRCLE('',#892,0.199999999999999);
#68=CIRCLE('',#894,0.199999999999999);
#69=CIRCLE('',#896,0.2);
#70=CIRCLE('',#898,0.2);
#71=CIRCLE('',#899,0.2);
#72=CIRCLE('',#901,0.164999999999999);
#73=CIRCLE('',#902,1.2);
#74=CIRCLE('',#903,0.165000000000001);
#75=CIRCLE('',#913,0.299999999999999);
#76=CIRCLE('',#915,0.3);
#77=CIRCLE('',#917,0.300000000000001);
#78=CIRCLE('',#919,0.299999999999999);
#79=FACE_OUTER_BOUND('',#123,.T.);
#80=FACE_OUTER_BOUND('',#124,.T.);
#81=FACE_OUTER_BOUND('',#125,.T.);
#82=FACE_OUTER_BOUND('',#127,.T.);
#83=FACE_OUTER_BOUND('',#128,.T.);
#84=FACE_OUTER_BOUND('',#129,.T.);
#85=FACE_OUTER_BOUND('',#130,.T.);
#86=FACE_OUTER_BOUND('',#131,.T.);
#87=FACE_OUTER_BOUND('',#133,.T.);
#88=FACE_OUTER_BOUND('',#134,.T.);
#89=FACE_OUTER_BOUND('',#135,.T.);
#90=FACE_OUTER_BOUND('',#136,.T.);
#91=FACE_OUTER_BOUND('',#142,.T.);
#92=FACE_OUTER_BOUND('',#144,.T.);
#93=FACE_OUTER_BOUND('',#145,.T.);
#94=FACE_OUTER_BOUND('',#152,.T.);
#95=FACE_OUTER_BOUND('',#153,.T.);
#96=FACE_OUTER_BOUND('',#154,.T.);
#97=FACE_OUTER_BOUND('',#155,.T.);
#98=FACE_OUTER_BOUND('',#156,.T.);
#99=FACE_OUTER_BOUND('',#157,.T.);
#100=FACE_OUTER_BOUND('',#158,.T.);
#101=FACE_OUTER_BOUND('',#159,.T.);
#102=FACE_OUTER_BOUND('',#160,.T.);
#103=FACE_OUTER_BOUND('',#167,.T.);
#104=FACE_OUTER_BOUND('',#168,.T.);
#105=FACE_OUTER_BOUND('',#169,.T.);
#106=FACE_OUTER_BOUND('',#170,.T.);
#107=FACE_OUTER_BOUND('',#171,.T.);
#108=FACE_OUTER_BOUND('',#172,.T.);
#109=FACE_OUTER_BOUND('',#173,.T.);
#110=FACE_OUTER_BOUND('',#174,.T.);
#111=FACE_OUTER_BOUND('',#176,.T.);
#112=FACE_OUTER_BOUND('',#178,.T.);
#113=FACE_OUTER_BOUND('',#180,.T.);
#114=FACE_OUTER_BOUND('',#182,.T.);
#115=FACE_OUTER_BOUND('',#184,.T.);
#116=FACE_OUTER_BOUND('',#185,.T.);
#117=FACE_OUTER_BOUND('',#186,.T.);
#118=FACE_OUTER_BOUND('',#187,.T.);
#119=FACE_OUTER_BOUND('',#188,.T.);
#120=FACE_OUTER_BOUND('',#189,.T.);
#121=FACE_OUTER_BOUND('',#190,.T.);
#122=FACE_OUTER_BOUND('',#191,.T.);
#123=EDGE_LOOP('',(#547,#548,#549,#550));
#124=EDGE_LOOP('',(#551,#552,#553,#554));
#125=EDGE_LOOP('',(#555,#556,#557,#558));
#126=EDGE_LOOP('',(#559));
#127=EDGE_LOOP('',(#560,#561,#562,#563));
#128=EDGE_LOOP('',(#564,#565,#566,#567));
#129=EDGE_LOOP('',(#568,#569,#570,#571));
#130=EDGE_LOOP('',(#572,#573,#574,#575,#576,#577,#578,#579));
#131=EDGE_LOOP('',(#580,#581,#582,#583));
#132=EDGE_LOOP('',(#584));
#133=EDGE_LOOP('',(#585,#586,#587,#588));
#134=EDGE_LOOP('',(#589,#590,#591,#592));
#135=EDGE_LOOP('',(#593,#594,#595,#596));
#136=EDGE_LOOP('',(#597,#598,#599,#600,#601,#602,#603,#604,#605,#606,#607,
#608));
#137=EDGE_LOOP('',(#609));
#138=EDGE_LOOP('',(#610));
#139=EDGE_LOOP('',(#611));
#140=EDGE_LOOP('',(#612));
#141=EDGE_LOOP('',(#613,#614,#615,#616));
#142=EDGE_LOOP('',(#617,#618,#619,#620));
#143=EDGE_LOOP('',(#621));
#144=EDGE_LOOP('',(#622,#623,#624,#625,#626,#627,#628,#629));
#145=EDGE_LOOP('',(#630,#631,#632,#633));
#146=EDGE_LOOP('',(#634));
#147=EDGE_LOOP('',(#635));
#148=EDGE_LOOP('',(#636));
#149=EDGE_LOOP('',(#637));
#150=EDGE_LOOP('',(#638,#639,#640,#641));
#151=EDGE_LOOP('',(#642));
#152=EDGE_LOOP('',(#643,#644,#645,#646,#647,#648,#649,#650));
#153=EDGE_LOOP('',(#651,#652,#653,#654,#655,#656,#657,#658));
#154=EDGE_LOOP('',(#659,#660,#661,#662));
#155=EDGE_LOOP('',(#663,#664,#665,#666));
#156=EDGE_LOOP('',(#667,#668,#669,#670));
#157=EDGE_LOOP('',(#671,#672,#673,#674));
#158=EDGE_LOOP('',(#675,#676,#677,#678));
#159=EDGE_LOOP('',(#679,#680,#681,#682));
#160=EDGE_LOOP('',(#683,#684,#685,#686));
#161=EDGE_LOOP('',(#687));
#162=EDGE_LOOP('',(#688));
#163=EDGE_LOOP('',(#689));
#164=EDGE_LOOP('',(#690,#691,#692,#693));
#165=EDGE_LOOP('',(#694));
#166=EDGE_LOOP('',(#695));
#167=EDGE_LOOP('',(#696,#697,#698,#699));
#168=EDGE_LOOP('',(#700,#701,#702,#703));
#169=EDGE_LOOP('',(#704,#705,#706,#707));
#170=EDGE_LOOP('',(#708,#709,#710,#711));
#171=EDGE_LOOP('',(#712,#713,#714,#715));
#172=EDGE_LOOP('',(#716,#717,#718,#719));
#173=EDGE_LOOP('',(#720,#721,#722,#723));
#174=EDGE_LOOP('',(#724,#725,#726,#727));
#175=EDGE_LOOP('',(#728));
#176=EDGE_LOOP('',(#729));
#177=EDGE_LOOP('',(#730));
#178=EDGE_LOOP('',(#731));
#179=EDGE_LOOP('',(#732));
#180=EDGE_LOOP('',(#733));
#181=EDGE_LOOP('',(#734));
#182=EDGE_LOOP('',(#735));
#183=EDGE_LOOP('',(#736));
#184=EDGE_LOOP('',(#737,#738,#739,#740));
#185=EDGE_LOOP('',(#741,#742,#743,#744));
#186=EDGE_LOOP('',(#745,#746,#747,#748));
#187=EDGE_LOOP('',(#749,#750,#751,#752));
#188=EDGE_LOOP('',(#753,#754,#755,#756));
#189=EDGE_LOOP('',(#757,#758,#759,#760));
#190=EDGE_LOOP('',(#761,#762,#763,#764));
#191=EDGE_LOOP('',(#765,#766,#767,#768));
#192=LINE('',#1159,#277);
#193=LINE('',#1161,#278);
#194=LINE('',#1163,#279);
#195=LINE('',#1164,#280);
#196=LINE('',#1168,#281);
#197=LINE('',#1170,#282);
#198=LINE('',#1172,#283);
#199=LINE('',#1173,#284);
#200=LINE('',#1176,#285);
#201=LINE('',#1178,#286);
#202=LINE('',#1179,#287);
#203=LINE('',#1184,#288);
#204=LINE('',#1185,#289);
#205=LINE('',#1188,#290);
#206=LINE('',#1190,#291);
#207=LINE('',#1191,#292);
#208=LINE('',#1195,#293);
#209=LINE('',#1197,#294);
#210=LINE('',#1199,#295);
#211=LINE('',#1200,#296);
#212=LINE('',#1202,#297);
#213=LINE('',#1204,#298);
#214=LINE('',#1206,#299);
#215=LINE('',#1208,#300);
#216=LINE('',#1209,#301);
#217=LINE('',#1212,#302);
#218=LINE('',#1214,#303);
#219=LINE('',#1215,#304);
#220=LINE('',#1220,#305);
#221=LINE('',#1221,#306);
#222=LINE('',#1225,#307);
#223=LINE('',#1227,#308);
#224=LINE('',#1229,#309);
#225=LINE('',#1230,#310);
#226=LINE('',#1233,#311);
#227=LINE('',#1235,#312);
#228=LINE('',#1236,#313);
#229=LINE('',#1238,#314);
#230=LINE('',#1239,#315);
#231=LINE('',#1240,#316);
#232=LINE('',#1251,#317);
#233=LINE('',#1253,#318);
#234=LINE('',#1255,#319);
#235=LINE('',#1256,#320);
#236=LINE('',#1259,#321);
#237=LINE('',#1260,#322);
#238=LINE('',#1265,#323);
#239=LINE('',#1266,#324);
#240=LINE('',#1269,#325);
#241=LINE('',#1270,#326);
#242=LINE('',#1281,#327);
#243=LINE('',#1283,#328);
#244=LINE('',#1285,#329);
#245=LINE('',#1286,#330);
#246=LINE('',#1290,#331);
#247=LINE('',#1291,#332);
#248=LINE('',#1295,#333);
#249=LINE('',#1299,#334);
#250=LINE('',#1304,#335);
#251=LINE('',#1308,#336);
#252=LINE('',#1312,#337);
#253=LINE('',#1317,#338);
#254=LINE('',#1322,#339);
#255=LINE('',#1324,#340);
#256=LINE('',#1326,#341);
#257=LINE('',#1327,#342);
#258=LINE('',#1332,#343);
#259=LINE('',#1334,#344);
#260=LINE('',#1336,#345);
#261=LINE('',#1337,#346);
#262=LINE('',#1343,#347);
#263=LINE('',#1345,#348);
#264=LINE('',#1346,#349);
#265=LINE('',#1348,#350);
#266=LINE('',#1350,#351);
#267=LINE('',#1353,#352);
#268=LINE('',#1355,#353);
#269=LINE('',#1370,#354);
#270=LINE('',#1372,#355);
#271=LINE('',#1374,#356);
#272=LINE('',#1376,#357);
#273=LINE('',#1378,#358);
#274=LINE('',#1379,#359);
#275=LINE('',#1381,#360);
#276=LINE('',#1383,#361);
#277=VECTOR('',#932,1.);
#278=VECTOR('',#933,1.);
#279=VECTOR('',#934,1.);
#280=VECTOR('',#935,1.);
#281=VECTOR('',#938,1.);
#282=VECTOR('',#939,1.);
#283=VECTOR('',#940,1.);
#284=VECTOR('',#941,1.);
#285=VECTOR('',#944,1.);
#286=VECTOR('',#945,1.);
#287=VECTOR('',#946,1.);
#288=VECTOR('',#951,1.);
#289=VECTOR('',#952,1.);
#290=VECTOR('',#955,1.);
#291=VECTOR('',#956,1.);
#292=VECTOR('',#957,1.);
#293=VECTOR('',#960,1.);
#294=VECTOR('',#961,1.);
#295=VECTOR('',#962,1.);
#296=VECTOR('',#963,1.);
#297=VECTOR('',#966,1.);
#298=VECTOR('',#967,1.);
#299=VECTOR('',#968,1.);
#300=VECTOR('',#969,1.);
#301=VECTOR('',#970,1.);
#302=VECTOR('',#973,1.);
#303=VECTOR('',#974,1.);
#304=VECTOR('',#975,1.);
#305=VECTOR('',#980,1.);
#306=VECTOR('',#981,1.);
#307=VECTOR('',#984,1.);
#308=VECTOR('',#985,1.);
#309=VECTOR('',#986,1.);
#310=VECTOR('',#987,1.);
#311=VECTOR('',#990,1.);
#312=VECTOR('',#991,1.);
#313=VECTOR('',#992,1.);
#314=VECTOR('',#995,1.);
#315=VECTOR('',#996,1.);
#316=VECTOR('',#997,1.);
#317=VECTOR('',#1006,1.);
#318=VECTOR('',#1007,1.);
#319=VECTOR('',#1008,1.);
#320=VECTOR('',#1009,1.);
#321=VECTOR('',#1012,1.);
#322=VECTOR('',#1013,1.);
#323=VECTOR('',#1018,1.);
#324=VECTOR('',#1019,1.);
#325=VECTOR('',#1022,1.);
#326=VECTOR('',#1023,1.);
#327=VECTOR('',#1032,1.);
#328=VECTOR('',#1033,1.);
#329=VECTOR('',#1034,1.);
#330=VECTOR('',#1035,1.);
#331=VECTOR('',#1040,1.);
#332=VECTOR('',#1041,1.);
#333=VECTOR('',#1046,0.200000000000001);
#334=VECTOR('',#1051,0.199999999999999);
#335=VECTOR('',#1058,0.199999999999999);
#336=VECTOR('',#1063,0.199999999999999);
#337=VECTOR('',#1068,0.2);
#338=VECTOR('',#1073,0.2);
#339=VECTOR('',#1078,1.);
#340=VECTOR('',#1079,1.);
#341=VECTOR('',#1080,1.);
#342=VECTOR('',#1081,1.);
#343=VECTOR('',#1084,1.);
#344=VECTOR('',#1085,1.);
#345=VECTOR('',#1086,1.);
#346=VECTOR('',#1087,1.);
#347=VECTOR('',#1094,0.164999999999999);
#348=VECTOR('',#1097,1.);
#349=VECTOR('',#1098,1.);
#350=VECTOR('',#1101,1.);
#351=VECTOR('',#1104,1.);
#352=VECTOR('',#1109,1.2);
#353=VECTOR('',#1112,0.165000000000001);
#354=VECTOR('',#1133,0.299999999999999);
#355=VECTOR('',#1136,0.299999999999999);
#356=VECTOR('',#1139,0.300000000000001);
#357=VECTOR('',#1142,0.3);
#358=VECTOR('',#1145,1.);
#359=VECTOR('',#1146,1.);
#360=VECTOR('',#1149,1.);
#361=VECTOR('',#1152,1.);
#362=VERTEX_POINT('',#1157);
#363=VERTEX_POINT('',#1158);
#364=VERTEX_POINT('',#1160);
#365=VERTEX_POINT('',#1162);
#366=VERTEX_POINT('',#1166);
#367=VERTEX_POINT('',#1167);
#368=VERTEX_POINT('',#1169);
#369=VERTEX_POINT('',#1171);
#370=VERTEX_POINT('',#1175);
#371=VERTEX_POINT('',#1177);
#372=VERTEX_POINT('',#1180);
#373=VERTEX_POINT('',#1183);
#374=VERTEX_POINT('',#1187);
#375=VERTEX_POINT('',#1189);
#376=VERTEX_POINT('',#1193);
#377=VERTEX_POINT('',#1194);
#378=VERTEX_POINT('',#1196);
#379=VERTEX_POINT('',#1198);
#380=VERTEX_POINT('',#1203);
#381=VERTEX_POINT('',#1205);
#382=VERTEX_POINT('',#1207);
#383=VERTEX_POINT('',#1211);
#384=VERTEX_POINT('',#1213);
#385=VERTEX_POINT('',#1216);
#386=VERTEX_POINT('',#1219);
#387=VERTEX_POINT('',#1223);
#388=VERTEX_POINT('',#1224);
#389=VERTEX_POINT('',#1226);
#390=VERTEX_POINT('',#1228);
#391=VERTEX_POINT('',#1232);
#392=VERTEX_POINT('',#1234);
#393=VERTEX_POINT('',#1241);
#394=VERTEX_POINT('',#1243);
#395=VERTEX_POINT('',#1245);
#396=VERTEX_POINT('',#1247);
#397=VERTEX_POINT('',#1249);
#398=VERTEX_POINT('',#1250);
#399=VERTEX_POINT('',#1252);
#400=VERTEX_POINT('',#1254);
#401=VERTEX_POINT('',#1258);
#402=VERTEX_POINT('',#1261);
#403=VERTEX_POINT('',#1264);
#404=VERTEX_POINT('',#1268);
#405=VERTEX_POINT('',#1271);
#406=VERTEX_POINT('',#1273);
#407=VERTEX_POINT('',#1275);
#408=VERTEX_POINT('',#1277);
#409=VERTEX_POINT('',#1279);
#410=VERTEX_POINT('',#1280);
#411=VERTEX_POINT('',#1282);
#412=VERTEX_POINT('',#1284);
#413=VERTEX_POINT('',#1287);
#414=VERTEX_POINT('',#1294);
#415=VERTEX_POINT('',#1298);
#416=VERTEX_POINT('',#1302);
#417=VERTEX_POINT('',#1306);
#418=VERTEX_POINT('',#1310);
#419=VERTEX_POINT('',#1314);
#420=VERTEX_POINT('',#1316);
#421=VERTEX_POINT('',#1320);
#422=VERTEX_POINT('',#1321);
#423=VERTEX_POINT('',#1323);
#424=VERTEX_POINT('',#1325);
#425=VERTEX_POINT('',#1328);
#426=VERTEX_POINT('',#1330);
#427=VERTEX_POINT('',#1331);
#428=VERTEX_POINT('',#1333);
#429=VERTEX_POINT('',#1335);
#430=VERTEX_POINT('',#1338);
#431=VERTEX_POINT('',#1340);
#432=VERTEX_POINT('',#1358);
#433=VERTEX_POINT('',#1361);
#434=VERTEX_POINT('',#1364);
#435=VERTEX_POINT('',#1367);
#436=EDGE_CURVE('',#362,#363,#192,.T.);
#437=EDGE_CURVE('',#364,#362,#193,.T.);
#438=EDGE_CURVE('',#365,#364,#194,.T.);
#439=EDGE_CURVE('',#363,#365,#195,.T.);
#440=EDGE_CURVE('',#366,#367,#196,.T.);
#441=EDGE_CURVE('',#368,#366,#197,.T.);
#442=EDGE_CURVE('',#369,#368,#198,.T.);
#443=EDGE_CURVE('',#367,#369,#199,.T.);
#444=EDGE_CURVE('',#362,#370,#200,.T.);
#445=EDGE_CURVE('',#370,#371,#201,.T.);
#446=EDGE_CURVE('',#371,#364,#202,.T.);
#447=EDGE_CURVE('',#372,#372,#53,.T.);
#448=EDGE_CURVE('',#373,#363,#203,.T.);
#449=EDGE_CURVE('',#370,#373,#204,.T.);
#450=EDGE_CURVE('',#374,#367,#205,.T.);
#451=EDGE_CURVE('',#375,#374,#206,.T.);
#452=EDGE_CURVE('',#366,#375,#207,.T.);
#453=EDGE_CURVE('',#376,#377,#208,.T.);
#454=EDGE_CURVE('',#378,#376,#209,.T.);
#455=EDGE_CURVE('',#379,#378,#210,.T.);
#456=EDGE_CURVE('',#377,#379,#211,.T.);
#457=EDGE_CURVE('',#375,#373,#212,.T.);
#458=EDGE_CURVE('',#380,#374,#213,.T.);
#459=EDGE_CURVE('',#381,#380,#214,.T.);
#460=EDGE_CURVE('',#382,#381,#215,.T.);
#461=EDGE_CURVE('',#371,#382,#216,.T.);
#462=EDGE_CURVE('',#376,#383,#217,.T.);
#463=EDGE_CURVE('',#383,#384,#218,.T.);
#464=EDGE_CURVE('',#384,#378,#219,.T.);
#465=EDGE_CURVE('',#385,#385,#54,.T.);
#466=EDGE_CURVE('',#386,#377,#220,.T.);
#467=EDGE_CURVE('',#383,#386,#221,.T.);
#468=EDGE_CURVE('',#387,#388,#222,.T.);
#469=EDGE_CURVE('',#389,#387,#223,.T.);
#470=EDGE_CURVE('',#390,#389,#224,.T.);
#471=EDGE_CURVE('',#388,#390,#225,.T.);
#472=EDGE_CURVE('',#391,#388,#226,.T.);
#473=EDGE_CURVE('',#392,#391,#227,.T.);
#474=EDGE_CURVE('',#387,#392,#228,.T.);
#475=EDGE_CURVE('',#365,#386,#229,.T.);
#476=EDGE_CURVE('',#379,#389,#230,.T.);
#477=EDGE_CURVE('',#392,#368,#231,.T.);
#478=EDGE_CURVE('',#393,#393,#55,.T.);
#479=EDGE_CURVE('',#394,#394,#56,.T.);
#480=EDGE_CURVE('',#395,#395,#57,.T.);
#481=EDGE_CURVE('',#396,#396,#58,.T.);
#482=EDGE_CURVE('',#397,#398,#232,.T.);
#483=EDGE_CURVE('',#398,#399,#233,.T.);
#484=EDGE_CURVE('',#399,#400,#234,.T.);
#485=EDGE_CURVE('',#400,#397,#235,.T.);
#486=EDGE_CURVE('',#390,#401,#236,.T.);
#487=EDGE_CURVE('',#401,#391,#237,.T.);
#488=EDGE_CURVE('',#402,#402,#59,.T.);
#489=EDGE_CURVE('',#403,#382,#238,.T.);
#490=EDGE_CURVE('',#403,#384,#239,.T.);
#491=EDGE_CURVE('',#381,#404,#240,.T.);
#492=EDGE_CURVE('',#404,#403,#241,.T.);
#493=EDGE_CURVE('',#405,#405,#60,.T.);
#494=EDGE_CURVE('',#406,#406,#61,.T.);
#495=EDGE_CURVE('',#407,#407,#62,.T.);
#496=EDGE_CURVE('',#408,#408,#63,.T.);
#497=EDGE_CURVE('',#409,#410,#242,.T.);
#498=EDGE_CURVE('',#410,#411,#243,.T.);
#499=EDGE_CURVE('',#411,#412,#244,.T.);
#500=EDGE_CURVE('',#412,#409,#245,.T.);
#501=EDGE_CURVE('',#413,#413,#64,.T.);
#502=EDGE_CURVE('',#369,#380,#246,.T.);
#503=EDGE_CURVE('',#404,#401,#247,.T.);
#504=EDGE_CURVE('',#405,#414,#248,.T.);
#505=EDGE_CURVE('',#414,#414,#65,.T.);
#506=EDGE_CURVE('',#406,#415,#249,.T.);
#507=EDGE_CURVE('',#415,#415,#66,.T.);
#508=EDGE_CURVE('',#416,#416,#67,.T.);
#509=EDGE_CURVE('',#416,#385,#250,.T.);
#510=EDGE_CURVE('',#417,#417,#68,.T.);
#511=EDGE_CURVE('',#417,#402,#251,.T.);
#512=EDGE_CURVE('',#418,#418,#69,.T.);
#513=EDGE_CURVE('',#418,#372,#252,.T.);
#514=EDGE_CURVE('',#419,#419,#70,.T.);
#515=EDGE_CURVE('',#419,#420,#253,.T.);
#516=EDGE_CURVE('',#420,#420,#71,.T.);
#517=EDGE_CURVE('',#421,#422,#254,.T.);
#518=EDGE_CURVE('',#423,#421,#255,.T.);
#519=EDGE_CURVE('',#424,#423,#256,.T.);
#520=EDGE_CURVE('',#422,#424,#257,.T.);
#521=EDGE_CURVE('',#425,#425,#72,.T.);
#522=EDGE_CURVE('',#426,#427,#258,.T.);
#523=EDGE_CURVE('',#427,#428,#259,.T.);
#524=EDGE_CURVE('',#428,#429,#260,.T.);
#525=EDGE_CURVE('',#429,#426,#261,.T.);
#526=EDGE_CURVE('',#430,#430,#73,.T.);
#527=EDGE_CURVE('',#431,#431,#74,.T.);
#528=EDGE_CURVE('',#413,#425,#262,.T.);
#529=EDGE_CURVE('',#427,#409,#263,.T.);
#530=EDGE_CURVE('',#428,#412,#264,.T.);
#531=EDGE_CURVE('',#429,#411,#265,.T.);
#532=EDGE_CURVE('',#426,#410,#266,.T.);
#533=EDGE_CURVE('',#408,#430,#267,.T.);
#534=EDGE_CURVE('',#407,#431,#268,.T.);
#535=EDGE_CURVE('',#432,#432,#75,.T.);
#536=EDGE_CURVE('',#433,#433,#76,.T.);
#537=EDGE_CURVE('',#434,#434,#77,.T.);
#538=EDGE_CURVE('',#435,#435,#78,.T.);
#539=EDGE_CURVE('',#393,#432,#269,.T.);
#540=EDGE_CURVE('',#394,#435,#270,.T.);
#541=EDGE_CURVE('',#395,#434,#271,.T.);
#542=EDGE_CURVE('',#396,#433,#272,.T.);
#543=EDGE_CURVE('',#422,#397,#273,.T.);
#544=EDGE_CURVE('',#421,#400,#274,.T.);
#545=EDGE_CURVE('',#423,#399,#275,.T.);
#546=EDGE_CURVE('',#424,#398,#276,.T.);
#547=ORIENTED_EDGE('',*,*,#436,.F.);
#548=ORIENTED_EDGE('',*,*,#437,.F.);
#549=ORIENTED_EDGE('',*,*,#438,.F.);
#550=ORIENTED_EDGE('',*,*,#439,.F.);
#551=ORIENTED_EDGE('',*,*,#440,.F.);
#552=ORIENTED_EDGE('',*,*,#441,.F.);
#553=ORIENTED_EDGE('',*,*,#442,.F.);
#554=ORIENTED_EDGE('',*,*,#443,.F.);
#555=ORIENTED_EDGE('',*,*,#437,.T.);
#556=ORIENTED_EDGE('',*,*,#444,.T.);
#557=ORIENTED_EDGE('',*,*,#445,.T.);
#558=ORIENTED_EDGE('',*,*,#446,.T.);
#559=ORIENTED_EDGE('',*,*,#447,.F.);
#560=ORIENTED_EDGE('',*,*,#436,.T.);
#561=ORIENTED_EDGE('',*,*,#448,.F.);
#562=ORIENTED_EDGE('',*,*,#449,.F.);
#563=ORIENTED_EDGE('',*,*,#444,.F.);
#564=ORIENTED_EDGE('',*,*,#440,.T.);
#565=ORIENTED_EDGE('',*,*,#450,.F.);
#566=ORIENTED_EDGE('',*,*,#451,.F.);
#567=ORIENTED_EDGE('',*,*,#452,.F.);
#568=ORIENTED_EDGE('',*,*,#453,.F.);
#569=ORIENTED_EDGE('',*,*,#454,.F.);
#570=ORIENTED_EDGE('',*,*,#455,.F.);
#571=ORIENTED_EDGE('',*,*,#456,.F.);
#572=ORIENTED_EDGE('',*,*,#449,.T.);
#573=ORIENTED_EDGE('',*,*,#457,.F.);
#574=ORIENTED_EDGE('',*,*,#451,.T.);
#575=ORIENTED_EDGE('',*,*,#458,.F.);
#576=ORIENTED_EDGE('',*,*,#459,.F.);
#577=ORIENTED_EDGE('',*,*,#460,.F.);
#578=ORIENTED_EDGE('',*,*,#461,.F.);
#579=ORIENTED_EDGE('',*,*,#445,.F.);
#580=ORIENTED_EDGE('',*,*,#454,.T.);
#581=ORIENTED_EDGE('',*,*,#462,.T.);
#582=ORIENTED_EDGE('',*,*,#463,.T.);
#583=ORIENTED_EDGE('',*,*,#464,.T.);
#584=ORIENTED_EDGE('',*,*,#465,.F.);
#585=ORIENTED_EDGE('',*,*,#453,.T.);
#586=ORIENTED_EDGE('',*,*,#466,.F.);
#587=ORIENTED_EDGE('',*,*,#467,.F.);
#588=ORIENTED_EDGE('',*,*,#462,.F.);
#589=ORIENTED_EDGE('',*,*,#468,.F.);
#590=ORIENTED_EDGE('',*,*,#469,.F.);
#591=ORIENTED_EDGE('',*,*,#470,.F.);
#592=ORIENTED_EDGE('',*,*,#471,.F.);
#593=ORIENTED_EDGE('',*,*,#468,.T.);
#594=ORIENTED_EDGE('',*,*,#472,.F.);
#595=ORIENTED_EDGE('',*,*,#473,.F.);
#596=ORIENTED_EDGE('',*,*,#474,.F.);
#597=ORIENTED_EDGE('',*,*,#475,.T.);
#598=ORIENTED_EDGE('',*,*,#466,.T.);
#599=ORIENTED_EDGE('',*,*,#456,.T.);
#600=ORIENTED_EDGE('',*,*,#476,.T.);
#601=ORIENTED_EDGE('',*,*,#469,.T.);
#602=ORIENTED_EDGE('',*,*,#474,.T.);
#603=ORIENTED_EDGE('',*,*,#477,.T.);
#604=ORIENTED_EDGE('',*,*,#441,.T.);
#605=ORIENTED_EDGE('',*,*,#452,.T.);
#606=ORIENTED_EDGE('',*,*,#457,.T.);
#607=ORIENTED_EDGE('',*,*,#448,.T.);
#608=ORIENTED_EDGE('',*,*,#439,.T.);
#609=ORIENTED_EDGE('',*,*,#478,.T.);
#610=ORIENTED_EDGE('',*,*,#479,.T.);
#611=ORIENTED_EDGE('',*,*,#480,.T.);
#612=ORIENTED_EDGE('',*,*,#481,.T.);
#613=ORIENTED_EDGE('',*,*,#482,.T.);
#614=ORIENTED_EDGE('',*,*,#483,.T.);
#615=ORIENTED_EDGE('',*,*,#484,.T.);
#616=ORIENTED_EDGE('',*,*,#485,.T.);
#617=ORIENTED_EDGE('',*,*,#471,.T.);
#618=ORIENTED_EDGE('',*,*,#486,.T.);
#619=ORIENTED_EDGE('',*,*,#487,.T.);
#620=ORIENTED_EDGE('',*,*,#472,.T.);
#621=ORIENTED_EDGE('',*,*,#488,.F.);
#622=ORIENTED_EDGE('',*,*,#461,.T.);
#623=ORIENTED_EDGE('',*,*,#489,.F.);
#624=ORIENTED_EDGE('',*,*,#490,.T.);
#625=ORIENTED_EDGE('',*,*,#463,.F.);
#626=ORIENTED_EDGE('',*,*,#467,.T.);
#627=ORIENTED_EDGE('',*,*,#475,.F.);
#628=ORIENTED_EDGE('',*,*,#438,.T.);
#629=ORIENTED_EDGE('',*,*,#446,.F.);
#630=ORIENTED_EDGE('',*,*,#460,.T.);
#631=ORIENTED_EDGE('',*,*,#491,.T.);
#632=ORIENTED_EDGE('',*,*,#492,.T.);
#633=ORIENTED_EDGE('',*,*,#489,.T.);
#634=ORIENTED_EDGE('',*,*,#493,.T.);
#635=ORIENTED_EDGE('',*,*,#494,.T.);
#636=ORIENTED_EDGE('',*,*,#495,.T.);
#637=ORIENTED_EDGE('',*,*,#496,.T.);
#638=ORIENTED_EDGE('',*,*,#497,.T.);
#639=ORIENTED_EDGE('',*,*,#498,.T.);
#640=ORIENTED_EDGE('',*,*,#499,.T.);
#641=ORIENTED_EDGE('',*,*,#500,.T.);
#642=ORIENTED_EDGE('',*,*,#501,.T.);
#643=ORIENTED_EDGE('',*,*,#459,.T.);
#644=ORIENTED_EDGE('',*,*,#502,.F.);
#645=ORIENTED_EDGE('',*,*,#442,.T.);
#646=ORIENTED_EDGE('',*,*,#477,.F.);
#647=ORIENTED_EDGE('',*,*,#473,.T.);
#648=ORIENTED_EDGE('',*,*,#487,.F.);
#649=ORIENTED_EDGE('',*,*,#503,.F.);
#650=ORIENTED_EDGE('',*,*,#491,.F.);
#651=ORIENTED_EDGE('',*,*,#455,.T.);
#652=ORIENTED_EDGE('',*,*,#464,.F.);
#653=ORIENTED_EDGE('',*,*,#490,.F.);
#654=ORIENTED_EDGE('',*,*,#492,.F.);
#655=ORIENTED_EDGE('',*,*,#503,.T.);
#656=ORIENTED_EDGE('',*,*,#486,.F.);
#657=ORIENTED_EDGE('',*,*,#470,.T.);
#658=ORIENTED_EDGE('',*,*,#476,.F.);
#659=ORIENTED_EDGE('',*,*,#493,.F.);
#660=ORIENTED_EDGE('',*,*,#504,.T.);
#661=ORIENTED_EDGE('',*,*,#505,.F.);
#662=ORIENTED_EDGE('',*,*,#504,.F.);
#663=ORIENTED_EDGE('',*,*,#494,.F.);
#664=ORIENTED_EDGE('',*,*,#506,.T.);
#665=ORIENTED_EDGE('',*,*,#507,.F.);
#666=ORIENTED_EDGE('',*,*,#506,.F.);
#667=ORIENTED_EDGE('',*,*,#508,.F.);
#668=ORIENTED_EDGE('',*,*,#509,.T.);
#669=ORIENTED_EDGE('',*,*,#465,.T.);
#670=ORIENTED_EDGE('',*,*,#509,.F.);
#671=ORIENTED_EDGE('',*,*,#510,.F.);
#672=ORIENTED_EDGE('',*,*,#511,.T.);
#673=ORIENTED_EDGE('',*,*,#488,.T.);
#674=ORIENTED_EDGE('',*,*,#511,.F.);
#675=ORIENTED_EDGE('',*,*,#512,.F.);
#676=ORIENTED_EDGE('',*,*,#513,.T.);
#677=ORIENTED_EDGE('',*,*,#447,.T.);
#678=ORIENTED_EDGE('',*,*,#513,.F.);
#679=ORIENTED_EDGE('',*,*,#514,.F.);
#680=ORIENTED_EDGE('',*,*,#515,.T.);
#681=ORIENTED_EDGE('',*,*,#516,.T.);
#682=ORIENTED_EDGE('',*,*,#515,.F.);
#683=ORIENTED_EDGE('',*,*,#517,.F.);
#684=ORIENTED_EDGE('',*,*,#518,.F.);
#685=ORIENTED_EDGE('',*,*,#519,.F.);
#686=ORIENTED_EDGE('',*,*,#520,.F.);
#687=ORIENTED_EDGE('',*,*,#505,.T.);
#688=ORIENTED_EDGE('',*,*,#507,.T.);
#689=ORIENTED_EDGE('',*,*,#521,.T.);
#690=ORIENTED_EDGE('',*,*,#522,.T.);
#691=ORIENTED_EDGE('',*,*,#523,.T.);
#692=ORIENTED_EDGE('',*,*,#524,.T.);
#693=ORIENTED_EDGE('',*,*,#525,.T.);
#694=ORIENTED_EDGE('',*,*,#526,.T.);
#695=ORIENTED_EDGE('',*,*,#527,.T.);
#696=ORIENTED_EDGE('',*,*,#501,.F.);
#697=ORIENTED_EDGE('',*,*,#528,.T.);
#698=ORIENTED_EDGE('',*,*,#521,.F.);
#699=ORIENTED_EDGE('',*,*,#528,.F.);
#700=ORIENTED_EDGE('',*,*,#523,.F.);
#701=ORIENTED_EDGE('',*,*,#529,.T.);
#702=ORIENTED_EDGE('',*,*,#500,.F.);
#703=ORIENTED_EDGE('',*,*,#530,.F.);
#704=ORIENTED_EDGE('',*,*,#524,.F.);
#705=ORIENTED_EDGE('',*,*,#530,.T.);
#706=ORIENTED_EDGE('',*,*,#499,.F.);
#707=ORIENTED_EDGE('',*,*,#531,.F.);
#708=ORIENTED_EDGE('',*,*,#525,.F.);
#709=ORIENTED_EDGE('',*,*,#531,.T.);
#710=ORIENTED_EDGE('',*,*,#498,.F.);
#711=ORIENTED_EDGE('',*,*,#532,.F.);
#712=ORIENTED_EDGE('',*,*,#522,.F.);
#713=ORIENTED_EDGE('',*,*,#532,.T.);
#714=ORIENTED_EDGE('',*,*,#497,.F.);
#715=ORIENTED_EDGE('',*,*,#529,.F.);
#716=ORIENTED_EDGE('',*,*,#496,.F.);
#717=ORIENTED_EDGE('',*,*,#533,.T.);
#718=ORIENTED_EDGE('',*,*,#526,.F.);
#719=ORIENTED_EDGE('',*,*,#533,.F.);
#720=ORIENTED_EDGE('',*,*,#495,.F.);
#721=ORIENTED_EDGE('',*,*,#534,.T.);
#722=ORIENTED_EDGE('',*,*,#527,.F.);
#723=ORIENTED_EDGE('',*,*,#534,.F.);
#724=ORIENTED_EDGE('',*,*,#443,.T.);
#725=ORIENTED_EDGE('',*,*,#502,.T.);
#726=ORIENTED_EDGE('',*,*,#458,.T.);
#727=ORIENTED_EDGE('',*,*,#450,.T.);
#728=ORIENTED_EDGE('',*,*,#516,.F.);
#729=ORIENTED_EDGE('',*,*,#535,.F.);
#730=ORIENTED_EDGE('',*,*,#510,.T.);
#731=ORIENTED_EDGE('',*,*,#536,.F.);
#732=ORIENTED_EDGE('',*,*,#512,.T.);
#733=ORIENTED_EDGE('',*,*,#537,.F.);
#734=ORIENTED_EDGE('',*,*,#514,.T.);
#735=ORIENTED_EDGE('',*,*,#538,.F.);
#736=ORIENTED_EDGE('',*,*,#508,.T.);
#737=ORIENTED_EDGE('',*,*,#478,.F.);
#738=ORIENTED_EDGE('',*,*,#539,.T.);
#739=ORIENTED_EDGE('',*,*,#535,.T.);
#740=ORIENTED_EDGE('',*,*,#539,.F.);
#741=ORIENTED_EDGE('',*,*,#479,.F.);
#742=ORIENTED_EDGE('',*,*,#540,.T.);
#743=ORIENTED_EDGE('',*,*,#538,.T.);
#744=ORIENTED_EDGE('',*,*,#540,.F.);
#745=ORIENTED_EDGE('',*,*,#480,.F.);
#746=ORIENTED_EDGE('',*,*,#541,.T.);
#747=ORIENTED_EDGE('',*,*,#537,.T.);
#748=ORIENTED_EDGE('',*,*,#541,.F.);
#749=ORIENTED_EDGE('',*,*,#481,.F.);
#750=ORIENTED_EDGE('',*,*,#542,.T.);
#751=ORIENTED_EDGE('',*,*,#536,.T.);
#752=ORIENTED_EDGE('',*,*,#542,.F.);
#753=ORIENTED_EDGE('',*,*,#517,.T.);
#754=ORIENTED_EDGE('',*,*,#543,.T.);
#755=ORIENTED_EDGE('',*,*,#485,.F.);
#756=ORIENTED_EDGE('',*,*,#544,.F.);
#757=ORIENTED_EDGE('',*,*,#518,.T.);
#758=ORIENTED_EDGE('',*,*,#544,.T.);
#759=ORIENTED_EDGE('',*,*,#484,.F.);
#760=ORIENTED_EDGE('',*,*,#545,.F.);
#761=ORIENTED_EDGE('',*,*,#519,.T.);
#762=ORIENTED_EDGE('',*,*,#545,.T.);
#763=ORIENTED_EDGE('',*,*,#483,.F.);
#764=ORIENTED_EDGE('',*,*,#546,.F.);
#765=ORIENTED_EDGE('',*,*,#520,.T.);
#766=ORIENTED_EDGE('',*,*,#546,.T.);
#767=ORIENTED_EDGE('',*,*,#482,.F.);
#768=ORIENTED_EDGE('',*,*,#543,.F.);
#769=PLANE('',#858);
#770=PLANE('',#859);
#771=PLANE('',#860);
#772=PLANE('',#862);
#773=PLANE('',#863);
#774=PLANE('',#864);
#775=PLANE('',#865);
#776=PLANE('',#866);
#777=PLANE('',#868);
#778=PLANE('',#869);
#779=PLANE('',#870);
#780=PLANE('',#871);
#781=PLANE('',#876);
#782=PLANE('',#878);
#783=PLANE('',#879);
#784=PLANE('',#885);
#785=PLANE('',#886);
#786=PLANE('',#900);
#787=PLANE('',#905);
#788=PLANE('',#906);
#789=PLANE('',#907);
#790=PLANE('',#908);
#791=PLANE('',#911);
#792=PLANE('',#912);
#793=PLANE('',#914);
#794=PLANE('',#916);
#795=PLANE('',#918);
#796=PLANE('',#924);
#797=PLANE('',#925);
#798=PLANE('',#926);
#799=PLANE('',#927);
#800=ADVANCED_FACE('',(#79),#769,.F.);
#801=ADVANCED_FACE('',(#80),#770,.F.);
#802=ADVANCED_FACE('',(#81,#28),#771,.F.);
#803=ADVANCED_FACE('',(#82),#772,.F.);
#804=ADVANCED_FACE('',(#83),#773,.F.);
#805=ADVANCED_FACE('',(#84),#774,.F.);
#806=ADVANCED_FACE('',(#85),#775,.F.);
#807=ADVANCED_FACE('',(#86,#29),#776,.F.);
#808=ADVANCED_FACE('',(#87),#777,.F.);
#809=ADVANCED_FACE('',(#88),#778,.F.);
#810=ADVANCED_FACE('',(#89),#779,.F.);
#811=ADVANCED_FACE('',(#90,#30,#31,#32,#33,#34),#780,.T.);
#812=ADVANCED_FACE('',(#91,#35),#781,.F.);
#813=ADVANCED_FACE('',(#92),#782,.F.);
#814=ADVANCED_FACE('',(#93,#36,#37,#38,#39,#40,#41),#783,.F.);
#815=ADVANCED_FACE('',(#94),#784,.F.);
#816=ADVANCED_FACE('',(#95),#785,.F.);
#817=ADVANCED_FACE('',(#96),#15,.F.);
#818=ADVANCED_FACE('',(#97),#16,.F.);
#819=ADVANCED_FACE('',(#98),#17,.F.);
#820=ADVANCED_FACE('',(#99),#18,.F.);
#821=ADVANCED_FACE('',(#100),#19,.F.);
#822=ADVANCED_FACE('',(#101),#20,.F.);
#823=ADVANCED_FACE('',(#102,#42,#43,#44,#45,#46,#47),#786,.T.);
#824=ADVANCED_FACE('',(#103),#21,.F.);
#825=ADVANCED_FACE('',(#104),#787,.T.);
#826=ADVANCED_FACE('',(#105),#788,.T.);
#827=ADVANCED_FACE('',(#106),#789,.T.);
#828=ADVANCED_FACE('',(#107),#790,.T.);
#829=ADVANCED_FACE('',(#108),#22,.F.);
#830=ADVANCED_FACE('',(#109),#23,.F.);
#831=ADVANCED_FACE('',(#110,#48),#791,.F.);
#832=ADVANCED_FACE('',(#111,#49),#792,.T.);
#833=ADVANCED_FACE('',(#112,#50),#793,.T.);
#834=ADVANCED_FACE('',(#113,#51),#794,.T.);
#835=ADVANCED_FACE('',(#114,#52),#795,.T.);
#836=ADVANCED_FACE('',(#115),#24,.F.);
#837=ADVANCED_FACE('',(#116),#25,.F.);
#838=ADVANCED_FACE('',(#117),#26,.F.);
#839=ADVANCED_FACE('',(#118),#27,.F.);
#840=ADVANCED_FACE('',(#119),#796,.T.);
#841=ADVANCED_FACE('',(#120),#797,.T.);
#842=ADVANCED_FACE('',(#121),#798,.T.);
#843=ADVANCED_FACE('',(#122),#799,.T.);
#844=CLOSED_SHELL('',(#800,#801,#802,#803,#804,#805,#806,#807,#808,#809,
#810,#811,#812,#813,#814,#815,#816,#817,#818,#819,#820,#821,#822,#823,#824,
#825,#826,#827,#828,#829,#830,#831,#832,#833,#834,#835,#836,#837,#838,#839,
#840,#841,#842,#843));
#845=DERIVED_UNIT_ELEMENT(#847,1.);
#846=DERIVED_UNIT_ELEMENT(#1390,-3.);
#847=(
MASS_UNIT()
NAMED_UNIT(*)
SI_UNIT(.KILO.,.GRAM.)
);
#848=DERIVED_UNIT((#845,#846));
#849=MEASURE_REPRESENTATION_ITEM('density measure',
POSITIVE_RATIO_MEASURE(1060.),#848);
#850=PROPERTY_DEFINITION_REPRESENTATION(#855,#852);
#851=PROPERTY_DEFINITION_REPRESENTATION(#856,#853);
#852=REPRESENTATION('material name',(#854),#1387);
#853=REPRESENTATION('density',(#849),#1387);
#854=DESCRIPTIVE_REPRESENTATION_ITEM('ABS \X2\D50CB77CC2A4D2F1\X0\',
'ABS \X2\D50CB77CC2A4D2F1\X0\');
#855=PROPERTY_DEFINITION('material property','material name',#1397);
#856=PROPERTY_DEFINITION('material property','density of part',#1397);
#857=AXIS2_PLACEMENT_3D('',#1155,#928,#929);
#858=AXIS2_PLACEMENT_3D('',#1156,#930,#931);
#859=AXIS2_PLACEMENT_3D('',#1165,#936,#937);
#860=AXIS2_PLACEMENT_3D('',#1174,#942,#943);
#861=AXIS2_PLACEMENT_3D('',#1181,#947,#948);
#862=AXIS2_PLACEMENT_3D('',#1182,#949,#950);
#863=AXIS2_PLACEMENT_3D('',#1186,#953,#954);
#864=AXIS2_PLACEMENT_3D('',#1192,#958,#959);
#865=AXIS2_PLACEMENT_3D('',#1201,#964,#965);
#866=AXIS2_PLACEMENT_3D('',#1210,#971,#972);
#867=AXIS2_PLACEMENT_3D('',#1217,#976,#977);
#868=AXIS2_PLACEMENT_3D('',#1218,#978,#979);
#869=AXIS2_PLACEMENT_3D('',#1222,#982,#983);
#870=AXIS2_PLACEMENT_3D('',#1231,#988,#989);
#871=AXIS2_PLACEMENT_3D('',#1237,#993,#994);
#872=AXIS2_PLACEMENT_3D('',#1242,#998,#999);
#873=AXIS2_PLACEMENT_3D('',#1244,#1000,#1001);
#874=AXIS2_PLACEMENT_3D('',#1246,#1002,#1003);
#875=AXIS2_PLACEMENT_3D('',#1248,#1004,#1005);
#876=AXIS2_PLACEMENT_3D('',#1257,#1010,#1011);
#877=AXIS2_PLACEMENT_3D('',#1262,#1014,#1015);
#878=AXIS2_PLACEMENT_3D('',#1263,#1016,#1017);
#879=AXIS2_PLACEMENT_3D('',#1267,#1020,#1021);
#880=AXIS2_PLACEMENT_3D('',#1272,#1024,#1025);
#881=AXIS2_PLACEMENT_3D('',#1274,#1026,#1027);
#882=AXIS2_PLACEMENT_3D('',#1276,#1028,#1029);
#883=AXIS2_PLACEMENT_3D('',#1278,#1030,#1031);
#884=AXIS2_PLACEMENT_3D('',#1288,#1036,#1037);
#885=AXIS2_PLACEMENT_3D('',#1289,#1038,#1039);
#886=AXIS2_PLACEMENT_3D('',#1292,#1042,#1043);
#887=AXIS2_PLACEMENT_3D('',#1293,#1044,#1045);
#888=AXIS2_PLACEMENT_3D('',#1296,#1047,#1048);
#889=AXIS2_PLACEMENT_3D('',#1297,#1049,#1050);
#890=AXIS2_PLACEMENT_3D('',#1300,#1052,#1053);
#891=AXIS2_PLACEMENT_3D('',#1301,#1054,#1055);
#892=AXIS2_PLACEMENT_3D('',#1303,#1056,#1057);
#893=AXIS2_PLACEMENT_3D('',#1305,#1059,#1060);
#894=AXIS2_PLACEMENT_3D('',#1307,#1061,#1062);
#895=AXIS2_PLACEMENT_3D('',#1309,#1064,#1065);
#896=AXIS2_PLACEMENT_3D('',#1311,#1066,#1067);
#897=AXIS2_PLACEMENT_3D('',#1313,#1069,#1070);
#898=AXIS2_PLACEMENT_3D('',#1315,#1071,#1072);
#899=AXIS2_PLACEMENT_3D('',#1318,#1074,#1075);
#900=AXIS2_PLACEMENT_3D('',#1319,#1076,#1077);
#901=AXIS2_PLACEMENT_3D('',#1329,#1082,#1083);
#902=AXIS2_PLACEMENT_3D('',#1339,#1088,#1089);
#903=AXIS2_PLACEMENT_3D('',#1341,#1090,#1091);
#904=AXIS2_PLACEMENT_3D('',#1342,#1092,#1093);
#905=AXIS2_PLACEMENT_3D('',#1344,#1095,#1096);
#906=AXIS2_PLACEMENT_3D('',#1347,#1099,#1100);
#907=AXIS2_PLACEMENT_3D('',#1349,#1102,#1103);
#908=AXIS2_PLACEMENT_3D('',#1351,#1105,#1106);
#909=AXIS2_PLACEMENT_3D('',#1352,#1107,#1108);
#910=AXIS2_PLACEMENT_3D('',#1354,#1110,#1111);
#911=AXIS2_PLACEMENT_3D('',#1356,#1113,#1114);
#912=AXIS2_PLACEMENT_3D('',#1357,#1115,#1116);
#913=AXIS2_PLACEMENT_3D('',#1359,#1117,#1118);
#914=AXIS2_PLACEMENT_3D('',#1360,#1119,#1120);
#915=AXIS2_PLACEMENT_3D('',#1362,#1121,#1122);
#916=AXIS2_PLACEMENT_3D('',#1363,#1123,#1124);
#917=AXIS2_PLACEMENT_3D('',#1365,#1125,#1126);
#918=AXIS2_PLACEMENT_3D('',#1366,#1127,#1128);
#919=AXIS2_PLACEMENT_3D('',#1368,#1129,#1130);
#920=AXIS2_PLACEMENT_3D('',#1369,#1131,#1132);
#921=AXIS2_PLACEMENT_3D('',#1371,#1134,#1135);
#922=AXIS2_PLACEMENT_3D('',#1373,#1137,#1138);
#923=AXIS2_PLACEMENT_3D('',#1375,#1140,#1141);
#924=AXIS2_PLACEMENT_3D('',#1377,#1143,#1144);
#925=AXIS2_PLACEMENT_3D('',#1380,#1147,#1148);
#926=AXIS2_PLACEMENT_3D('',#1382,#1150,#1151);
#927=AXIS2_PLACEMENT_3D('',#1384,#1153,#1154);
#928=DIRECTION('axis',(0.,0.,1.));
#929=DIRECTION('refdir',(1.,0.,0.));
#930=DIRECTION('center_axis',(-1.,0.,0.));
#931=DIRECTION('ref_axis',(0.,0.,1.));
#932=DIRECTION('',(0.,0.,1.));
#933=DIRECTION('',(0.,-1.,0.));
#934=DIRECTION('',(0.,0.,-1.));
#935=DIRECTION('',(0.,1.,0.));
#936=DIRECTION('center_axis',(-1.,0.,0.));
#937=DIRECTION('ref_axis',(0.,0.,1.));
#938=DIRECTION('',(0.,0.,-1.));
#939=DIRECTION('',(0.,1.,0.));
#940=DIRECTION('',(0.,0.,1.));
#941=DIRECTION('',(0.,-1.,0.));
#942=DIRECTION('center_axis',(0.,0.,1.));
#943=DIRECTION('ref_axis',(1.,0.,0.));
#944=DIRECTION('',(-1.,0.,0.));
#945=DIRECTION('',(0.,1.,0.));
#946=DIRECTION('',(1.,0.,0.));
#947=DIRECTION('center_axis',(0.,0.,-1.));
#948=DIRECTION('ref_axis',(1.,0.,0.));
#949=DIRECTION('center_axis',(0.,1.,0.));
#950=DIRECTION('ref_axis',(0.,0.,1.));
#951=DIRECTION('',(1.,0.,0.));
#952=DIRECTION('',(0.,0.,1.));
#953=DIRECTION('center_axis',(0.,-1.,0.));
#954=DIRECTION('ref_axis',(0.,0.,-1.));
#955=DIRECTION('',(1.,0.,0.));
#956=DIRECTION('',(0.,0.,-1.));
#957=DIRECTION('',(-1.,0.,0.));
#958=DIRECTION('center_axis',(0.,1.,0.));
#959=DIRECTION('ref_axis',(0.,0.,1.));
#960=DIRECTION('',(0.,0.,1.));
#961=DIRECTION('',(-1.,0.,0.));
#962=DIRECTION('',(0.,0.,-1.));
#963=DIRECTION('',(1.,0.,0.));
#964=DIRECTION('center_axis',(1.,0.,0.));
#965=DIRECTION('ref_axis',(0.,0.,-1.));
#966=DIRECTION('',(0.,-1.,0.));
#967=DIRECTION('',(0.,1.,0.));
#968=DIRECTION('',(0.,0.,1.));
#969=DIRECTION('',(0.,1.,0.));
#970=DIRECTION('',(0.,0.,-1.));
#971=DIRECTION('center_axis',(0.,0.,1.));
#972=DIRECTION('ref_axis',(1.,0.,0.));
#973=DIRECTION('',(0.,1.,0.));
#974=DIRECTION('',(1.,0.,0.));
#975=DIRECTION('',(0.,-1.,0.));
#976=DIRECTION('center_axis',(0.,0.,-1.));
#977=DIRECTION('ref_axis',(1.,0.,0.));
#978=DIRECTION('center_axis',(1.,0.,0.));
#979=DIRECTION('ref_axis',(0.,0.,-1.));
#980=DIRECTION('',(0.,-1.,0.));
#981=DIRECTION('',(0.,0.,1.));
#982=DIRECTION('center_axis',(0.,-1.,0.));
#983=DIRECTION('ref_axis',(0.,0.,-1.));
#984=DIRECTION('',(0.,0.,-1.));
#985=DIRECTION('',(-1.,0.,0.));
#986=DIRECTION('',(0.,0.,1.));
#987=DIRECTION('',(1.,0.,0.));
#988=DIRECTION('center_axis',(1.,0.,0.));
#989=DIRECTION('ref_axis',(0.,0.,-1.));
#990=DIRECTION('',(0.,1.,0.));
#991=DIRECTION('',(0.,0.,-1.));
#992=DIRECTION('',(0.,-1.,0.));
#993=DIRECTION('center_axis',(0.,0.,1.));
#994=DIRECTION('ref_axis',(1.,0.,0.));
#995=DIRECTION('',(1.,0.,0.));
#996=DIRECTION('',(0.,1.,0.));
#997=DIRECTION('',(-1.,0.,0.));
#998=DIRECTION('center_axis',(0.,0.,-1.));
#999=DIRECTION('ref_axis',(-1.,0.,0.));
#1000=DIRECTION('center_axis',(0.,0.,-1.));
#1001=DIRECTION('ref_axis',(-1.,0.,0.));
#1002=DIRECTION('center_axis',(0.,0.,-1.));
#1003=DIRECTION('ref_axis',(-1.,0.,0.));
#1004=DIRECTION('center_axis',(0.,0.,-1.));
#1005=DIRECTION('ref_axis',(-1.,0.,0.));
#1006=DIRECTION('',(0.,-1.,0.));
#1007=DIRECTION('',(-1.,0.,0.));
#1008=DIRECTION('',(0.,1.,0.));
#1009=DIRECTION('',(1.,0.,0.));
#1010=DIRECTION('center_axis',(0.,0.,1.));
#1011=DIRECTION('ref_axis',(1.,0.,0.));
#1012=DIRECTION('',(0.,-1.,0.));
#1013=DIRECTION('',(-1.,0.,0.));
#1014=DIRECTION('center_axis',(0.,0.,-1.));
#1015=DIRECTION('ref_axis',(1.,0.,0.));
#1016=DIRECTION('center_axis',(0.,1.,0.));
#1017=DIRECTION('ref_axis',(0.,0.,1.));
#1018=DIRECTION('',(-1.,0.,0.));
#1019=DIRECTION('',(0.,0.,1.));
#1020=DIRECTION('center_axis',(0.,0.,1.));
#1021=DIRECTION('ref_axis',(1.,0.,0.));
#1022=DIRECTION('',(1.,0.,0.));
#1023=DIRECTION('',(0.,-1.,0.));
#1024=DIRECTION('center_axis',(0.,0.,1.));
#1025=DIRECTION('ref_axis',(1.,0.,0.));
#1026=DIRECTION('center_axis',(0.,0.,1.));
#1027=DIRECTION('ref_axis',(1.,0.,0.));
#1028=DIRECTION('center_axis',(0.,0.,1.));
#1029=DIRECTION('ref_axis',(1.,0.,0.));
#1030=DIRECTION('center_axis',(0.,0.,1.));
#1031=DIRECTION('ref_axis',(1.,0.,0.));
#1032=DIRECTION('',(1.,0.,0.));
#1033=DIRECTION('',(0.,1.,0.));
#1034=DIRECTION('',(-1.,0.,0.));
#1035=DIRECTION('',(0.,-1.,0.));
#1036=DIRECTION('center_axis',(0.,0.,1.));
#1037=DIRECTION('ref_axis',(1.,0.,0.));
#1038=DIRECTION('center_axis',(0.,-1.,0.));
#1039=DIRECTION('ref_axis',(0.,0.,-1.));
#1040=DIRECTION('',(-1.,0.,0.));
#1041=DIRECTION('',(0.,0.,1.));
#1042=DIRECTION('center_axis',(-1.,0.,0.));
#1043=DIRECTION('ref_axis',(0.,0.,1.));
#1044=DIRECTION('center_axis',(0.,0.,-1.));
#1045=DIRECTION('ref_axis',(1.,0.,0.));
#1046=DIRECTION('',(0.,0.,1.));
#1047=DIRECTION('center_axis',(0.,0.,-1.));
#1048=DIRECTION('ref_axis',(1.,0.,0.));
#1049=DIRECTION('center_axis',(0.,0.,-1.));
#1050=DIRECTION('ref_axis',(1.,0.,0.));
#1051=DIRECTION('',(0.,0.,1.));
#1052=DIRECTION('center_axis',(0.,0.,-1.));
#1053=DIRECTION('ref_axis',(1.,0.,0.));
#1054=DIRECTION('center_axis',(0.,0.,1.));
#1055=DIRECTION('ref_axis',(1.,0.,0.));
#1056=DIRECTION('center_axis',(0.,0.,-1.));
#1057=DIRECTION('ref_axis',(1.,0.,0.));
#1058=DIRECTION('',(0.,0.,-1.));
#1059=DIRECTION('center_axis',(0.,0.,1.));
#1060=DIRECTION('ref_axis',(1.,0.,0.));
#1061=DIRECTION('center_axis',(0.,0.,-1.));
#1062=DIRECTION('ref_axis',(1.,0.,0.));
#1063=DIRECTION('',(0.,0.,-1.));
#1064=DIRECTION('center_axis',(0.,0.,1.));
#1065=DIRECTION('ref_axis',(1.,0.,0.));
#1066=DIRECTION('center_axis',(0.,0.,-1.));
#1067=DIRECTION('ref_axis',(1.,0.,0.));
#1068=DIRECTION('',(0.,0.,-1.));
#1069=DIRECTION('center_axis',(0.,0.,1.));
#1070=DIRECTION('ref_axis',(1.,0.,0.));
#1071=DIRECTION('center_axis',(0.,0.,-1.));
#1072=DIRECTION('ref_axis',(1.,0.,0.));
#1073=DIRECTION('',(0.,0.,-1.));
#1074=DIRECTION('center_axis',(0.,0.,-1.));
#1075=DIRECTION('ref_axis',(1.,0.,0.));
#1076=DIRECTION('center_axis',(0.,0.,1.));
#1077=DIRECTION('ref_axis',(1.,0.,0.));
#1078=DIRECTION('',(1.,0.,0.));
#1079=DIRECTION('',(0.,1.,0.));
#1080=DIRECTION('',(-1.,0.,0.));
#1081=DIRECTION('',(0.,-1.,0.));
#1082=DIRECTION('center_axis',(0.,0.,-1.));
#1083=DIRECTION('ref_axis',(1.,0.,0.));
#1084=DIRECTION('',(-1.,0.,0.));
#1085=DIRECTION('',(0.,1.,0.));
#1086=DIRECTION('',(1.,0.,0.));
#1087=DIRECTION('',(0.,-1.,0.));
#1088=DIRECTION('center_axis',(0.,0.,-1.));
#1089=DIRECTION('ref_axis',(1.,0.,0.));
#1090=DIRECTION('center_axis',(0.,0.,-1.));
#1091=DIRECTION('ref_axis',(1.,0.,0.));
#1092=DIRECTION('center_axis',(0.,0.,-1.));
#1093=DIRECTION('ref_axis',(1.,0.,0.));
#1094=DIRECTION('',(0.,0.,1.));
#1095=DIRECTION('center_axis',(1.,0.,0.));
#1096=DIRECTION('ref_axis',(0.,-1.,0.));
#1097=DIRECTION('',(0.,0.,-1.));
#1098=DIRECTION('',(0.,0.,-1.));
#1099=DIRECTION('center_axis',(0.,-1.,0.));
#1100=DIRECTION('ref_axis',(-1.,0.,0.));
#1101=DIRECTION('',(0.,0.,-1.));
#1102=DIRECTION('center_axis',(-1.,0.,0.));
#1103=DIRECTION('ref_axis',(0.,1.,0.));
#1104=DIRECTION('',(0.,0.,-1.));
#1105=DIRECTION('center_axis',(0.,1.,0.));
#1106=DIRECTION('ref_axis',(1.,0.,0.));
#1107=DIRECTION('center_axis',(0.,0.,-1.));
#1108=DIRECTION('ref_axis',(1.,0.,0.));
#1109=DIRECTION('',(0.,0.,1.));
#1110=DIRECTION('center_axis',(0.,0.,-1.));
#1111=DIRECTION('ref_axis',(1.,0.,0.));
#1112=DIRECTION('',(0.,0.,1.));
#1113=DIRECTION('center_axis',(0.,0.,1.));
#1114=DIRECTION('ref_axis',(1.,0.,0.));
#1115=DIRECTION('center_axis',(0.,0.,1.));
#1116=DIRECTION('ref_axis',(-1.,0.,0.));
#1117=DIRECTION('center_axis',(0.,0.,-1.));
#1118=DIRECTION('ref_axis',(-1.,0.,0.));
#1119=DIRECTION('center_axis',(0.,0.,1.));
#1120=DIRECTION('ref_axis',(-1.,0.,0.));
#1121=DIRECTION('center_axis',(0.,0.,-1.));
#1122=DIRECTION('ref_axis',(-1.,0.,0.));
#1123=DIRECTION('center_axis',(0.,0.,1.));
#1124=DIRECTION('ref_axis',(-1.,0.,0.));
#1125=DIRECTION('center_axis',(0.,0.,-1.));
#1126=DIRECTION('ref_axis',(-1.,0.,0.));
#1127=DIRECTION('center_axis',(0.,0.,1.));
#1128=DIRECTION('ref_axis',(-1.,0.,0.));
#1129=DIRECTION('center_axis',(0.,0.,-1.));
#1130=DIRECTION('ref_axis',(-1.,0.,0.));
#1131=DIRECTION('center_axis',(0.,0.,-1.));
#1132=DIRECTION('ref_axis',(-1.,0.,0.));
#1133=DIRECTION('',(0.,0.,-1.));
#1134=DIRECTION('center_axis',(0.,0.,-1.));
#1135=DIRECTION('ref_axis',(-1.,0.,0.));
#1136=DIRECTION('',(0.,0.,-1.));
#1137=DIRECTION('center_axis',(0.,0.,-1.));
#1138=DIRECTION('ref_axis',(-1.,0.,0.));
#1139=DIRECTION('',(0.,0.,-1.));
#1140=DIRECTION('center_axis',(0.,0.,-1.));
#1141=DIRECTION('ref_axis',(-1.,0.,0.));
#1142=DIRECTION('',(0.,0.,-1.));
#1143=DIRECTION('center_axis',(0.,-1.,0.));
#1144=DIRECTION('ref_axis',(1.,0.,0.));
#1145=DIRECTION('',(0.,0.,1.));
#1146=DIRECTION('',(0.,0.,1.));
#1147=DIRECTION('center_axis',(1.,0.,0.));
#1148=DIRECTION('ref_axis',(0.,1.,0.));
#1149=DIRECTION('',(0.,0.,1.));
#1150=DIRECTION('center_axis',(0.,1.,0.));
#1151=DIRECTION('ref_axis',(-1.,0.,0.));
#1152=DIRECTION('',(0.,0.,1.));
#1153=DIRECTION('center_axis',(-1.,0.,0.));
#1154=DIRECTION('ref_axis',(0.,-1.,0.));
#1155=CARTESIAN_POINT('',(0.,0.,0.));
#1156=CARTESIAN_POINT('Origin',(5.99,7.25,0.));
#1157=CARTESIAN_POINT('',(5.99,7.26,1.5));
#1158=CARTESIAN_POINT('',(5.99,7.26,2.));
#1159=CARTESIAN_POINT('',(5.99,7.26,0.));
#1160=CARTESIAN_POINT('',(5.99,8.26,1.5));
#1161=CARTESIAN_POINT('',(5.99,7.5,1.5));
#1162=CARTESIAN_POINT('',(5.99,8.26,2.));
#1163=CARTESIAN_POINT('',(5.99,8.26,0.));
#1164=CARTESIAN_POINT('',(5.99,9.,2.));
#1165=CARTESIAN_POINT('Origin',(5.99,13.25,0.));
#1166=CARTESIAN_POINT('',(5.99,14.24,2.));
#1167=CARTESIAN_POINT('',(5.99,14.24,1.5));
#1168=CARTESIAN_POINT('',(5.99,14.24,0.));
#1169=CARTESIAN_POINT('',(5.99,13.24,2.));
#1170=CARTESIAN_POINT('',(5.99,12.,2.));
#1171=CARTESIAN_POINT('',(5.99,13.24,1.5));
#1172=CARTESIAN_POINT('',(5.99,13.24,0.));
#1173=CARTESIAN_POINT('',(5.99,13.5,1.5));
#1174=CARTESIAN_POINT('Origin',(5.5,7.75,1.5));
#1175=CARTESIAN_POINT('',(5.01,7.26,1.5));
#1176=CARTESIAN_POINT('',(5.25,7.26,1.5));
#1177=CARTESIAN_POINT('',(5.01,8.26,1.5));
#1178=CARTESIAN_POINT('',(5.01,11.,1.5));
#1179=CARTESIAN_POINT('',(5.,8.26,1.5));
#1180=CARTESIAN_POINT('',(5.3,7.75,1.5));
#1181=CARTESIAN_POINT('Origin',(5.5,7.75,1.5));
#1182=CARTESIAN_POINT('Origin',(5.,7.26,0.));
#1183=CARTESIAN_POINT('',(5.01,7.26,2.));
#1184=CARTESIAN_POINT('',(6.75,7.26,2.));
#1185=CARTESIAN_POINT('',(5.01,7.26,0.));
#1186=CARTESIAN_POINT('Origin',(6.,14.24,0.));
#1187=CARTESIAN_POINT('',(5.01,14.24,1.5));
#1188=CARTESIAN_POINT('',(5.75,14.24,1.5));
#1189=CARTESIAN_POINT('',(5.01,14.24,2.));
#1190=CARTESIAN_POINT('',(5.01,14.24,0.));
#1191=CARTESIAN_POINT('',(7.25,14.24,2.));
#1192=CARTESIAN_POINT('Origin',(11.,7.26,0.));
#1193=CARTESIAN_POINT('',(11.01,7.26,1.5));
#1194=CARTESIAN_POINT('',(11.01,7.26,2.));
#1195=CARTESIAN_POINT('',(11.01,7.26,0.));
#1196=CARTESIAN_POINT('',(11.99,7.26,1.5));
#1197=CARTESIAN_POINT('',(11.25,7.26,1.5));
#1198=CARTESIAN_POINT('',(11.99,7.26,2.));
#1199=CARTESIAN_POINT('',(11.99,7.26,0.));
#1200=CARTESIAN_POINT('',(9.75,7.26,2.));
#1201=CARTESIAN_POINT('Origin',(5.01,14.25,0.));
#1202=CARTESIAN_POINT('',(5.01,12.5,2.));
#1203=CARTESIAN_POINT('',(5.01,13.24,1.5));
#1204=CARTESIAN_POINT('',(5.01,14.,1.5));
#1205=CARTESIAN_POINT('',(5.01,13.24,-0.5));
#1206=CARTESIAN_POINT('',(5.01,13.24,0.));
#1207=CARTESIAN_POINT('',(5.01,8.26,-0.5));
#1208=CARTESIAN_POINT('',(5.01,12.5,-0.5));
#1209=CARTESIAN_POINT('',(5.01,8.26,0.));
#1210=CARTESIAN_POINT('Origin',(11.5,7.75,1.5));
#1211=CARTESIAN_POINT('',(11.01,8.26,1.5));
#1212=CARTESIAN_POINT('',(11.01,8.,1.5));
#1213=CARTESIAN_POINT('',(11.99,8.26,1.5));
#1214=CARTESIAN_POINT('',(12.,8.26,1.5));
#1215=CARTESIAN_POINT('',(11.99,7.5,1.5));
#1216=CARTESIAN_POINT('',(11.3,7.75,1.5));
#1217=CARTESIAN_POINT('Origin',(11.5,7.75,1.5));
#1218=CARTESIAN_POINT('Origin',(11.01,8.25,0.));
#1219=CARTESIAN_POINT('',(11.01,8.26,2.));
#1220=CARTESIAN_POINT('',(11.01,9.5,2.));
#1221=CARTESIAN_POINT('',(11.01,8.26,0.));
#1222=CARTESIAN_POINT('Origin',(12.,14.24,0.));
#1223=CARTESIAN_POINT('',(11.01,14.24,2.));
#1224=CARTESIAN_POINT('',(11.01,14.24,1.5));
#1225=CARTESIAN_POINT('',(11.01,14.24,0.));
#1226=CARTESIAN_POINT('',(11.99,14.24,2.));
#1227=CARTESIAN_POINT('',(10.25,14.24,2.));
#1228=CARTESIAN_POINT('',(11.99,14.24,1.5));
#1229=CARTESIAN_POINT('',(11.99,14.24,0.));
#1230=CARTESIAN_POINT('',(11.75,14.24,1.5));
#1231=CARTESIAN_POINT('Origin',(11.01,14.25,0.));
#1232=CARTESIAN_POINT('',(11.01,13.24,1.5));
#1233=CARTESIAN_POINT('',(11.01,14.,1.5));
#1234=CARTESIAN_POINT('',(11.01,13.24,2.));
#1235=CARTESIAN_POINT('',(11.01,13.24,0.));
#1236=CARTESIAN_POINT('',(11.01,12.5,2.));
#1237=CARTESIAN_POINT('Origin',(8.5,10.75,2.));
#1238=CARTESIAN_POINT('',(7.25,8.26,2.));
#1239=CARTESIAN_POINT('',(11.99,9.,2.));
#1240=CARTESIAN_POINT('',(7.25,13.24,2.));
#1241=CARTESIAN_POINT('',(11.8,13.75,2.));
#1242=CARTESIAN_POINT('Origin',(11.5,13.75,2.));
#1243=CARTESIAN_POINT('',(11.8,7.75,2.));
#1244=CARTESIAN_POINT('Origin',(11.5,7.75,2.));
#1245=CARTESIAN_POINT('',(5.8,13.75,2.));
#1246=CARTESIAN_POINT('Origin',(5.5,13.75,2.));
#1247=CARTESIAN_POINT('',(5.8,7.75,2.));
#1248=CARTESIAN_POINT('Origin',(5.5,7.75,2.));
#1249=CARTESIAN_POINT('',(11.5,12.75,2.));
#1250=CARTESIAN_POINT('',(11.5,8.75,2.));
#1251=CARTESIAN_POINT('',(11.5,8.75,2.));
#1252=CARTESIAN_POINT('',(5.5,8.75,2.));
#1253=CARTESIAN_POINT('',(5.5,8.75,2.));
#1254=CARTESIAN_POINT('',(5.5,12.75,2.));
#1255=CARTESIAN_POINT('',(5.5,12.75,2.));
#1256=CARTESIAN_POINT('',(11.5,12.75,2.));
#1257=CARTESIAN_POINT('Origin',(11.5,13.75,1.5));
#1258=CARTESIAN_POINT('',(11.99,13.24,1.5));
#1259=CARTESIAN_POINT('',(11.99,10.5,1.5));
#1260=CARTESIAN_POINT('',(11.,13.24,1.5));
#1261=CARTESIAN_POINT('',(11.3,13.75,1.5));
#1262=CARTESIAN_POINT('Origin',(11.5,13.75,1.5));
#1263=CARTESIAN_POINT('Origin',(6.,8.26,0.));
#1264=CARTESIAN_POINT('',(11.99,8.26,-0.5));
#1265=CARTESIAN_POINT('',(7.25,8.26,-0.5));
#1266=CARTESIAN_POINT('',(11.99,8.26,0.));
#1267=CARTESIAN_POINT('Origin',(8.5,10.75,-0.5));
#1268=CARTESIAN_POINT('',(11.99,13.24,-0.5));
#1269=CARTESIAN_POINT('',(9.75,13.24,-0.5));
#1270=CARTESIAN_POINT('',(11.99,9.,-0.5));
#1271=CARTESIAN_POINT('',(9.8,9.52,-0.5));
#1272=CARTESIAN_POINT('Origin',(10.,9.52,-0.5));
#1273=CARTESIAN_POINT('',(9.8,11.98,-0.5));
#1274=CARTESIAN_POINT('Origin',(10.,11.98,-0.5));
#1275=CARTESIAN_POINT('',(7.785,9.55,-0.5));
#1276=CARTESIAN_POINT('Origin',(7.95,9.55,-0.5));
#1277=CARTESIAN_POINT('',(5.8,10.75,-0.5));
#1278=CARTESIAN_POINT('Origin',(7.,10.75,-0.5));
#1279=CARTESIAN_POINT('',(9.405,9.79,-0.5));
#1280=CARTESIAN_POINT('',(10.595,9.79,-0.5));
#1281=CARTESIAN_POINT('',(10.595,9.79,-0.5));
#1282=CARTESIAN_POINT('',(10.595,11.71,-0.5));
#1283=CARTESIAN_POINT('',(10.595,11.71,-0.5));
#1284=CARTESIAN_POINT('',(9.405,11.71,-0.5));
#1285=CARTESIAN_POINT('',(9.405,11.71,-0.5));
#1286=CARTESIAN_POINT('',(9.405,9.79,-0.5));
#1287=CARTESIAN_POINT('',(5.885,11.95,-0.5));
#1288=CARTESIAN_POINT('Origin',(6.05,11.95,-0.5));
#1289=CARTESIAN_POINT('Origin',(11.,13.24,0.));
#1290=CARTESIAN_POINT('',(6.,13.24,1.5));
#1291=CARTESIAN_POINT('',(11.99,13.24,0.));
#1292=CARTESIAN_POINT('Origin',(11.99,7.25,0.));
#1293=CARTESIAN_POINT('Origin',(10.,9.52,0.));
#1294=CARTESIAN_POINT('',(9.8,9.52,0.));
#1295=CARTESIAN_POINT('',(9.8,9.52,0.));
#1296=CARTESIAN_POINT('Origin',(10.,9.52,0.));
#1297=CARTESIAN_POINT('Origin',(10.,11.98,0.));
#1298=CARTESIAN_POINT('',(9.8,11.98,0.));
#1299=CARTESIAN_POINT('',(9.8,11.98,0.));
#1300=CARTESIAN_POINT('Origin',(10.,11.98,0.));
#1301=CARTESIAN_POINT('Origin',(11.5,7.75,0.));
#1302=CARTESIAN_POINT('',(11.3,7.75,1.7));
#1303=CARTESIAN_POINT('Origin',(11.5,7.75,1.7));
#1304=CARTESIAN_POINT('',(11.3,7.75,0.));
#1305=CARTESIAN_POINT('Origin',(11.5,13.75,0.));
#1306=CARTESIAN_POINT('',(11.3,13.75,1.7));
#1307=CARTESIAN_POINT('Origin',(11.5,13.75,1.7));
#1308=CARTESIAN_POINT('',(11.3,13.75,0.));
#1309=CARTESIAN_POINT('Origin',(5.5,7.75,0.));
#1310=CARTESIAN_POINT('',(5.3,7.75,1.7));
#1311=CARTESIAN_POINT('Origin',(5.5,7.75,1.7));
#1312=CARTESIAN_POINT('',(5.3,7.75,0.));
#1313=CARTESIAN_POINT('Origin',(5.5,13.75,0.));
#1314=CARTESIAN_POINT('',(5.3,13.75,1.7));
#1315=CARTESIAN_POINT('Origin',(5.5,13.75,1.7));
#1316=CARTESIAN_POINT('',(5.3,13.75,1.5));
#1317=CARTESIAN_POINT('',(5.3,13.75,0.));
#1318=CARTESIAN_POINT('Origin',(5.5,13.75,1.5));
#1319=CARTESIAN_POINT('Origin',(8.5,10.75,0.));
#1320=CARTESIAN_POINT('',(5.5,12.75,0.));
#1321=CARTESIAN_POINT('',(11.5,12.75,0.));
#1322=CARTESIAN_POINT('',(11.5,12.75,0.));
#1323=CARTESIAN_POINT('',(5.5,8.75,0.));
#1324=CARTESIAN_POINT('',(5.5,12.75,0.));
#1325=CARTESIAN_POINT('',(11.5,8.75,0.));
#1326=CARTESIAN_POINT('',(5.5,8.75,0.));
#1327=CARTESIAN_POINT('',(11.5,8.75,0.));
#1328=CARTESIAN_POINT('',(5.885,11.95,0.));
#1329=CARTESIAN_POINT('Origin',(6.05,11.95,0.));
#1330=CARTESIAN_POINT('',(10.595,9.79,0.));
#1331=CARTESIAN_POINT('',(9.405,9.79,0.));
#1332=CARTESIAN_POINT('',(10.595,9.79,0.));
#1333=CARTESIAN_POINT('',(9.405,11.71,0.));
#1334=CARTESIAN_POINT('',(9.405,9.79,0.));
#1335=CARTESIAN_POINT('',(10.595,11.71,0.));
#1336=CARTESIAN_POINT('',(9.405,11.71,0.));
#1337=CARTESIAN_POINT('',(10.595,11.71,0.));
#1338=CARTESIAN_POINT('',(5.8,10.75,0.));
#1339=CARTESIAN_POINT('Origin',(7.,10.75,0.));
#1340=CARTESIAN_POINT('',(7.785,9.55,0.));
#1341=CARTESIAN_POINT('Origin',(7.95,9.55,0.));
#1342=CARTESIAN_POINT('Origin',(6.05,11.95,0.));
#1343=CARTESIAN_POINT('',(5.885,11.95,0.));
#1344=CARTESIAN_POINT('Origin',(9.405,11.71,0.));
#1345=CARTESIAN_POINT('',(9.405,9.79,0.));
#1346=CARTESIAN_POINT('',(9.405,11.71,0.));
#1347=CARTESIAN_POINT('Origin',(10.595,11.71,0.));
#1348=CARTESIAN_POINT('',(10.595,11.71,0.));
#1349=CARTESIAN_POINT('Origin',(10.595,9.79,0.));
#1350=CARTESIAN_POINT('',(10.595,9.79,0.));
#1351=CARTESIAN_POINT('Origin',(9.405,9.79,0.));
#1352=CARTESIAN_POINT('Origin',(7.,10.75,0.));
#1353=CARTESIAN_POINT('',(5.8,10.75,0.));
#1354=CARTESIAN_POINT('Origin',(7.95,9.55,0.));
#1355=CARTESIAN_POINT('',(7.785,9.55,0.));
#1356=CARTESIAN_POINT('Origin',(5.5,13.75,1.5));
#1357=CARTESIAN_POINT('Origin',(11.5,13.75,1.7));
#1358=CARTESIAN_POINT('',(11.8,13.75,1.7));
#1359=CARTESIAN_POINT('Origin',(11.5,13.75,1.7));
#1360=CARTESIAN_POINT('Origin',(5.5,7.75,1.7));
#1361=CARTESIAN_POINT('',(5.8,7.75,1.7));
#1362=CARTESIAN_POINT('Origin',(5.5,7.75,1.7));
#1363=CARTESIAN_POINT('Origin',(5.5,13.75,1.7));
#1364=CARTESIAN_POINT('',(5.8,13.75,1.7));
#1365=CARTESIAN_POINT('Origin',(5.5,13.75,1.7));
#1366=CARTESIAN_POINT('Origin',(11.5,7.75,1.7));
#1367=CARTESIAN_POINT('',(11.8,7.75,1.7));
#1368=CARTESIAN_POINT('Origin',(11.5,7.75,1.7));
#1369=CARTESIAN_POINT('Origin',(11.5,13.75,0.5));
#1370=CARTESIAN_POINT('',(11.8,13.75,0.5));
#1371=CARTESIAN_POINT('Origin',(11.5,7.75,0.5));
#1372=CARTESIAN_POINT('',(11.8,7.75,0.5));
#1373=CARTESIAN_POINT('Origin',(5.5,13.75,0.5));
#1374=CARTESIAN_POINT('',(5.8,13.75,0.5));
#1375=CARTESIAN_POINT('Origin',(5.5,7.75,0.5));
#1376=CARTESIAN_POINT('',(5.8,7.75,0.5));
#1377=CARTESIAN_POINT('Origin',(5.5,12.75,0.));
#1378=CARTESIAN_POINT('',(11.5,12.75,0.));
#1379=CARTESIAN_POINT('',(5.5,12.75,0.));
#1380=CARTESIAN_POINT('Origin',(5.5,8.75,0.));
#1381=CARTESIAN_POINT('',(5.5,8.75,0.));
#1382=CARTESIAN_POINT('Origin',(11.5,8.75,0.));
#1383=CARTESIAN_POINT('',(11.5,8.75,0.));
#1384=CARTESIAN_POINT('Origin',(11.5,12.75,0.));
#1385=UNCERTAINTY_MEASURE_WITH_UNIT(LENGTH_MEASURE(0.001),#1389,
'DISTANCE_ACCURACY_VALUE',
'Maximum model space distance between geometric entities at asserted c
onnectivities');
#1386=UNCERTAINTY_MEASURE_WITH_UNIT(LENGTH_MEASURE(0.001),#1389,
'DISTANCE_ACCURACY_VALUE',
'Maximum model space distance between geometric entities at asserted c
onnectivities');
#1387=(
GEOMETRIC_REPRESENTATION_CONTEXT(3)
GLOBAL_UNCERTAINTY_ASSIGNED_CONTEXT((#1385))
GLOBAL_UNIT_ASSIGNED_CONTEXT((#1389,#1391,#1392))
REPRESENTATION_CONTEXT('','3D')
);
#1388=(
GEOMETRIC_REPRESENTATION_CONTEXT(3)
GLOBAL_UNCERTAINTY_ASSIGNED_CONTEXT((#1386))
GLOBAL_UNIT_ASSIGNED_CONTEXT((#1389,#1391,#1392))
REPRESENTATION_CONTEXT('','3D')
);
#1389=(
LENGTH_UNIT()
NAMED_UNIT(*)
SI_UNIT(.CENTI.,.METRE.)
);
#1390=(
LENGTH_UNIT()
NAMED_UNIT(*)
SI_UNIT($,.METRE.)
);
#1391=(
NAMED_UNIT(*)
PLANE_ANGLE_UNIT()
SI_UNIT($,.RADIAN.)
);
#1392=(
NAMED_UNIT(*)
SI_UNIT($,.STERADIAN.)
SOLID_ANGLE_UNIT()
);
#1393=SHAPE_DEFINITION_REPRESENTATION(#1394,#1395);
#1394=PRODUCT_DEFINITION_SHAPE('',$,#1397);
#1395=SHAPE_REPRESENTATION('',(#857),#1387);
#1396=PRODUCT_DEFINITION_CONTEXT('part definition',#1401,'design');
#1397=PRODUCT_DEFINITION('2026-07-21-12-10-15-921',
'plate battery-holder',#1398,#1396);
#1398=PRODUCT_DEFINITION_FORMATION('',$,#1403);
#1399=PRODUCT_RELATED_PRODUCT_CATEGORY('plate battery-holder',
'plate battery-holder',(#1403));
#1400=APPLICATION_PROTOCOL_DEFINITION('international standard',
'automotive_design',2009,#1401);
#1401=APPLICATION_CONTEXT(
'Core Data for Automotive Mechanical Design Process');
#1402=PRODUCT_CONTEXT('part definition',#1401,'mechanical');
#1403=PRODUCT('2026-07-21-12-10-15-921','plate battery-holder',$,(#1402));
#1404=PRESENTATION_STYLE_ASSIGNMENT((#1405));
#1405=SURFACE_STYLE_USAGE(.BOTH.,#1406);
#1406=SURFACE_SIDE_STYLE('',(#1407));
#1407=SURFACE_STYLE_FILL_AREA(#1408);
#1408=FILL_AREA_STYLE('ABS(\X2\D770C0C9\X0\)',(#1409));
#1409=FILL_AREA_STYLE_COLOUR('ABS(\X2\D770C0C9\X0\)',#1410);
#1410=COLOUR_RGB('ABS(\X2\D770C0C9\X0\)',0.964705882352941,0.964705882352941,
0.952941176470588);
ENDSEC;
END-ISO-10303-21;
