ISO-10303-21;
HEADER;
/* Generated by software containing ST-Developer
 * from STEP Tools, Inc. (www.steptools.com) 
 */

FILE_DESCRIPTION(
/* description */ (''),
/* implementation_level */ '2;1');

FILE_NAME(
/* name */ 'sensor bracket.step',
/* time_stamp */ '2026-08-31T17:52:47+09:00',
/* author */ (''),
/* organization */ (''),
/* preprocessor_version */ 'ST-DEVELOPER v20.1',
/* originating_system */ 'Autodesk Translation Framework v15.8.0.0',
/* authorisation */ '');

FILE_SCHEMA (('AUTOMOTIVE_DESIGN { 1 0 10303 214 3 1 1 }'));
ENDSEC;

DATA;
#10=MECHANICAL_DESIGN_GEOMETRIC_PRESENTATION_REPRESENTATION('',(#13),#804);
#11=SHAPE_REPRESENTATION_RELATIONSHIP('SRR','None',#811,#12);
#12=ADVANCED_BREP_SHAPE_REPRESENTATION('',(#14),#803);
#13=STYLED_ITEM('',(#820),#14);
#14=MANIFOLD_SOLID_BREP('\X2\BCF8CCB4\X0\1',#484);
#15=FACE_BOUND('',#76,.T.);
#16=FACE_BOUND('',#94,.T.);
#17=FACE_BOUND('',#95,.T.);
#18=FACE_BOUND('',#96,.T.);
#19=FACE_BOUND('',#97,.T.);
#20=FACE_BOUND('',#98,.T.);
#21=FACE_BOUND('',#99,.T.);
#22=FACE_BOUND('',#100,.T.);
#23=FACE_BOUND('',#101,.T.);
#24=FACE_BOUND('',#102,.T.);
#25=FACE_BOUND('',#104,.T.);
#26=FACE_BOUND('',#105,.T.);
#27=FACE_BOUND('',#106,.T.);
#28=FACE_BOUND('',#107,.T.);
#29=FACE_BOUND('',#108,.T.);
#30=FACE_BOUND('',#109,.T.);
#31=FACE_BOUND('',#110,.T.);
#32=FACE_BOUND('',#111,.T.);
#33=FACE_BOUND('',#112,.T.);
#34=FACE_BOUND('',#113,.T.);
#35=PLANE('',#501);
#36=PLANE('',#502);
#37=PLANE('',#503);
#38=PLANE('',#504);
#39=PLANE('',#532);
#40=PLANE('',#533);
#41=PLANE('',#534);
#42=PLANE('',#535);
#43=PLANE('',#536);
#44=PLANE('',#537);
#45=PLANE('',#538);
#46=PLANE('',#539);
#47=PLANE('',#540);
#48=FACE_OUTER_BOUND('',#71,.T.);
#49=FACE_OUTER_BOUND('',#72,.T.);
#50=FACE_OUTER_BOUND('',#73,.T.);
#51=FACE_OUTER_BOUND('',#74,.T.);
#52=FACE_OUTER_BOUND('',#75,.T.);
#53=FACE_OUTER_BOUND('',#77,.T.);
#54=FACE_OUTER_BOUND('',#78,.T.);
#55=FACE_OUTER_BOUND('',#79,.T.);
#56=FACE_OUTER_BOUND('',#80,.T.);
#57=FACE_OUTER_BOUND('',#81,.T.);
#58=FACE_OUTER_BOUND('',#82,.T.);
#59=FACE_OUTER_BOUND('',#83,.T.);
#60=FACE_OUTER_BOUND('',#84,.T.);
#61=FACE_OUTER_BOUND('',#85,.T.);
#62=FACE_OUTER_BOUND('',#86,.T.);
#63=FACE_OUTER_BOUND('',#87,.T.);
#64=FACE_OUTER_BOUND('',#88,.T.);
#65=FACE_OUTER_BOUND('',#89,.T.);
#66=FACE_OUTER_BOUND('',#90,.T.);
#67=FACE_OUTER_BOUND('',#91,.T.);
#68=FACE_OUTER_BOUND('',#92,.T.);
#69=FACE_OUTER_BOUND('',#93,.T.);
#70=FACE_OUTER_BOUND('',#103,.T.);
#71=EDGE_LOOP('',(#325,#326,#327,#328));
#72=EDGE_LOOP('',(#329,#330,#331,#332));
#73=EDGE_LOOP('',(#333,#334,#335,#336));
#74=EDGE_LOOP('',(#337,#338,#339,#340));
#75=EDGE_LOOP('',(#341,#342,#343,#344));
#76=EDGE_LOOP('',(#345));
#77=EDGE_LOOP('',(#346,#347,#348,#349));
#78=EDGE_LOOP('',(#350,#351,#352,#353));
#79=EDGE_LOOP('',(#354,#355,#356,#357));
#80=EDGE_LOOP('',(#358,#359,#360,#361));
#81=EDGE_LOOP('',(#362,#363,#364,#365));
#82=EDGE_LOOP('',(#366,#367,#368,#369));
#83=EDGE_LOOP('',(#370,#371,#372,#373));
#84=EDGE_LOOP('',(#374,#375,#376,#377));
#85=EDGE_LOOP('',(#378,#379,#380,#381));
#86=EDGE_LOOP('',(#382,#383,#384,#385));
#87=EDGE_LOOP('',(#386,#387,#388,#389));
#88=EDGE_LOOP('',(#390,#391,#392,#393));
#89=EDGE_LOOP('',(#394,#395,#396,#397));
#90=EDGE_LOOP('',(#398,#399,#400,#401,#402,#403,#404,#405));
#91=EDGE_LOOP('',(#406,#407,#408,#409));
#92=EDGE_LOOP('',(#410,#411,#412,#413));
#93=EDGE_LOOP('',(#414,#415,#416,#417,#418,#419,#420));
#94=EDGE_LOOP('',(#421));
#95=EDGE_LOOP('',(#422));
#96=EDGE_LOOP('',(#423));
#97=EDGE_LOOP('',(#424));
#98=EDGE_LOOP('',(#425));
#99=EDGE_LOOP('',(#426));
#100=EDGE_LOOP('',(#427));
#101=EDGE_LOOP('',(#428));
#102=EDGE_LOOP('',(#429));
#103=EDGE_LOOP('',(#430,#431,#432,#433,#434,#435,#436,#437,#438,#439,#440));
#104=EDGE_LOOP('',(#441));
#105=EDGE_LOOP('',(#442));
#106=EDGE_LOOP('',(#443));
#107=EDGE_LOOP('',(#444));
#108=EDGE_LOOP('',(#445));
#109=EDGE_LOOP('',(#446));
#110=EDGE_LOOP('',(#447));
#111=EDGE_LOOP('',(#448));
#112=EDGE_LOOP('',(#449));
#113=EDGE_LOOP('',(#450));
#114=LINE('',#677,#157);
#115=LINE('',#682,#158);
#116=LINE('',#684,#159);
#117=LINE('',#686,#160);
#118=LINE('',#687,#161);
#119=LINE('',#690,#162);
#120=LINE('',#692,#163);
#121=LINE('',#693,#164);
#122=LINE('',#696,#165);
#123=LINE('',#698,#166);
#124=LINE('',#699,#167);
#125=LINE('',#701,#168);
#126=LINE('',#706,#169);
#127=LINE('',#712,#170);
#128=LINE('',#718,#171);
#129=LINE('',#724,#172);
#130=LINE('',#730,#173);
#131=LINE('',#736,#174);
#132=LINE('',#742,#175);
#133=LINE('',#748,#176);
#134=LINE('',#754,#177);
#135=LINE('',#759,#178);
#136=LINE('',#761,#179);
#137=LINE('',#763,#180);
#138=LINE('',#764,#181);
#139=LINE('',#767,#182);
#140=LINE('',#769,#183);
#141=LINE('',#770,#184);
#142=LINE('',#773,#185);
#143=LINE('',#775,#186);
#144=LINE('',#776,#187);
#145=LINE('',#779,#188);
#146=LINE('',#781,#189);
#147=LINE('',#782,#190);
#148=LINE('',#784,#191);
#149=LINE('',#786,#192);
#150=LINE('',#788,#193);
#151=LINE('',#789,#194);
#152=LINE('',#792,#195);
#153=LINE('',#794,#196);
#154=LINE('',#795,#197);
#155=LINE('',#797,#198);
#156=LINE('',#798,#199);
#157=VECTOR('',#547,0.199999999999999);
#158=VECTOR('',#552,1.);
#159=VECTOR('',#553,1.);
#160=VECTOR('',#554,1.);
#161=VECTOR('',#555,1.);
#162=VECTOR('',#558,1.);
#163=VECTOR('',#559,1.);
#164=VECTOR('',#560,1.);
#165=VECTOR('',#563,1.);
#166=VECTOR('',#564,1.);
#167=VECTOR('',#565,1.);
#168=VECTOR('',#568,1.);
#169=VECTOR('',#573,0.199999999999999);
#170=VECTOR('',#580,0.199999999999999);
#171=VECTOR('',#587,0.199999999999999);
#172=VECTOR('',#594,0.199999999999999);
#173=VECTOR('',#601,0.199999999999999);
#174=VECTOR('',#608,0.199999999999999);
#175=VECTOR('',#615,0.199999999999999);
#176=VECTOR('',#622,0.199999999999999);
#177=VECTOR('',#629,0.199999999999999);
#178=VECTOR('',#634,1.);
#179=VECTOR('',#635,1.);
#180=VECTOR('',#636,1.);
#181=VECTOR('',#637,1.);
#182=VECTOR('',#640,1.);
#183=VECTOR('',#641,1.);
#184=VECTOR('',#642,1.);
#185=VECTOR('',#645,1.);
#186=VECTOR('',#646,1.);
#187=VECTOR('',#647,1.);
#188=VECTOR('',#650,1.);
#189=VECTOR('',#651,1.);
#190=VECTOR('',#652,1.);
#191=VECTOR('',#655,1.);
#192=VECTOR('',#656,1.);
#193=VECTOR('',#657,1.);
#194=VECTOR('',#658,1.);
#195=VECTOR('',#661,1.);
#196=VECTOR('',#662,1.);
#197=VECTOR('',#663,1.);
#198=VECTOR('',#666,1.);
#199=VECTOR('',#667,1.);
#200=CIRCLE('',#499,0.199999999999999);
#201=CIRCLE('',#500,0.199999999999999);
#202=CIRCLE('',#506,0.199999999999999);
#203=CIRCLE('',#507,0.199999999999999);
#204=CIRCLE('',#509,0.199999999999999);
#205=CIRCLE('',#510,0.199999999999999);
#206=CIRCLE('',#512,0.199999999999999);
#207=CIRCLE('',#513,0.199999999999999);
#208=CIRCLE('',#515,0.199999999999999);
#209=CIRCLE('',#516,0.199999999999999);
#210=CIRCLE('',#518,0.199999999999999);
#211=CIRCLE('',#519,0.199999999999999);
#212=CIRCLE('',#521,0.199999999999999);
#213=CIRCLE('',#522,0.199999999999999);
#214=CIRCLE('',#524,0.199999999999999);
#215=CIRCLE('',#525,0.199999999999999);
#216=CIRCLE('',#527,0.199999999999999);
#217=CIRCLE('',#528,0.199999999999999);
#218=CIRCLE('',#530,0.199999999999999);
#219=CIRCLE('',#531,0.199999999999999);
#220=VERTEX_POINT('',#674);
#221=VERTEX_POINT('',#676);
#222=VERTEX_POINT('',#680);
#223=VERTEX_POINT('',#681);
#224=VERTEX_POINT('',#683);
#225=VERTEX_POINT('',#685);
#226=VERTEX_POINT('',#689);
#227=VERTEX_POINT('',#691);
#228=VERTEX_POINT('',#695);
#229=VERTEX_POINT('',#697);
#230=VERTEX_POINT('',#703);
#231=VERTEX_POINT('',#705);
#232=VERTEX_POINT('',#709);
#233=VERTEX_POINT('',#711);
#234=VERTEX_POINT('',#715);
#235=VERTEX_POINT('',#717);
#236=VERTEX_POINT('',#721);
#237=VERTEX_POINT('',#723);
#238=VERTEX_POINT('',#727);
#239=VERTEX_POINT('',#729);
#240=VERTEX_POINT('',#733);
#241=VERTEX_POINT('',#735);
#242=VERTEX_POINT('',#739);
#243=VERTEX_POINT('',#741);
#244=VERTEX_POINT('',#745);
#245=VERTEX_POINT('',#747);
#246=VERTEX_POINT('',#751);
#247=VERTEX_POINT('',#753);
#248=VERTEX_POINT('',#757);
#249=VERTEX_POINT('',#758);
#250=VERTEX_POINT('',#760);
#251=VERTEX_POINT('',#762);
#252=VERTEX_POINT('',#766);
#253=VERTEX_POINT('',#768);
#254=VERTEX_POINT('',#772);
#255=VERTEX_POINT('',#774);
#256=VERTEX_POINT('',#778);
#257=VERTEX_POINT('',#780);
#258=VERTEX_POINT('',#785);
#259=VERTEX_POINT('',#787);
#260=VERTEX_POINT('',#791);
#261=VERTEX_POINT('',#793);
#262=EDGE_CURVE('',#220,#220,#200,.T.);
#263=EDGE_CURVE('',#220,#221,#114,.T.);
#264=EDGE_CURVE('',#221,#221,#201,.T.);
#265=EDGE_CURVE('',#222,#223,#115,.T.);
#266=EDGE_CURVE('',#222,#224,#116,.T.);
#267=EDGE_CURVE('',#225,#224,#117,.T.);
#268=EDGE_CURVE('',#223,#225,#118,.T.);
#269=EDGE_CURVE('',#223,#226,#119,.T.);
#270=EDGE_CURVE('',#227,#225,#120,.T.);
#271=EDGE_CURVE('',#226,#227,#121,.T.);
#272=EDGE_CURVE('',#228,#222,#122,.T.);
#273=EDGE_CURVE('',#229,#228,#123,.T.);
#274=EDGE_CURVE('',#224,#229,#124,.T.);
#275=EDGE_CURVE('',#227,#229,#125,.T.);
#276=EDGE_CURVE('',#230,#230,#202,.T.);
#277=EDGE_CURVE('',#230,#231,#126,.T.);
#278=EDGE_CURVE('',#231,#231,#203,.T.);
#279=EDGE_CURVE('',#232,#232,#204,.T.);
#280=EDGE_CURVE('',#232,#233,#127,.T.);
#281=EDGE_CURVE('',#233,#233,#205,.T.);
#282=EDGE_CURVE('',#234,#234,#206,.T.);
#283=EDGE_CURVE('',#234,#235,#128,.T.);
#284=EDGE_CURVE('',#235,#235,#207,.T.);
#285=EDGE_CURVE('',#236,#236,#208,.T.);
#286=EDGE_CURVE('',#236,#237,#129,.T.);
#287=EDGE_CURVE('',#237,#237,#209,.T.);
#288=EDGE_CURVE('',#238,#238,#210,.T.);
#289=EDGE_CURVE('',#238,#239,#130,.T.);
#290=EDGE_CURVE('',#239,#239,#211,.T.);
#291=EDGE_CURVE('',#240,#240,#212,.T.);
#292=EDGE_CURVE('',#240,#241,#131,.T.);
#293=EDGE_CURVE('',#241,#241,#213,.T.);
#294=EDGE_CURVE('',#242,#242,#214,.T.);
#295=EDGE_CURVE('',#242,#243,#132,.T.);
#296=EDGE_CURVE('',#243,#243,#215,.T.);
#297=EDGE_CURVE('',#244,#244,#216,.T.);
#298=EDGE_CURVE('',#244,#245,#133,.T.);
#299=EDGE_CURVE('',#245,#245,#217,.T.);
#300=EDGE_CURVE('',#246,#246,#218,.T.);
#301=EDGE_CURVE('',#246,#247,#134,.T.);
#302=EDGE_CURVE('',#247,#247,#219,.T.);
#303=EDGE_CURVE('',#248,#249,#135,.T.);
#304=EDGE_CURVE('',#248,#250,#136,.T.);
#305=EDGE_CURVE('',#251,#250,#137,.T.);
#306=EDGE_CURVE('',#249,#251,#138,.T.);
#307=EDGE_CURVE('',#249,#252,#139,.T.);
#308=EDGE_CURVE('',#253,#251,#140,.T.);
#309=EDGE_CURVE('',#252,#253,#141,.T.);
#310=EDGE_CURVE('',#252,#254,#142,.T.);
#311=EDGE_CURVE('',#255,#253,#143,.T.);
#312=EDGE_CURVE('',#254,#255,#144,.T.);
#313=EDGE_CURVE('',#254,#256,#145,.T.);
#314=EDGE_CURVE('',#257,#255,#146,.T.);
#315=EDGE_CURVE('',#256,#257,#147,.T.);
#316=EDGE_CURVE('',#256,#228,#148,.T.);
#317=EDGE_CURVE('',#258,#257,#149,.T.);
#318=EDGE_CURVE('',#259,#258,#150,.T.);
#319=EDGE_CURVE('',#226,#259,#151,.T.);
#320=EDGE_CURVE('',#259,#260,#152,.T.);
#321=EDGE_CURVE('',#261,#258,#153,.T.);
#322=EDGE_CURVE('',#260,#261,#154,.T.);
#323=EDGE_CURVE('',#248,#260,#155,.T.);
#324=EDGE_CURVE('',#250,#261,#156,.T.);
#325=ORIENTED_EDGE('',*,*,#262,.F.);
#326=ORIENTED_EDGE('',*,*,#263,.T.);
#327=ORIENTED_EDGE('',*,*,#264,.T.);
#328=ORIENTED_EDGE('',*,*,#263,.F.);
#329=ORIENTED_EDGE('',*,*,#265,.F.);
#330=ORIENTED_EDGE('',*,*,#266,.T.);
#331=ORIENTED_EDGE('',*,*,#267,.F.);
#332=ORIENTED_EDGE('',*,*,#268,.F.);
#333=ORIENTED_EDGE('',*,*,#269,.F.);
#334=ORIENTED_EDGE('',*,*,#268,.T.);
#335=ORIENTED_EDGE('',*,*,#270,.F.);
#336=ORIENTED_EDGE('',*,*,#271,.F.);
#337=ORIENTED_EDGE('',*,*,#272,.F.);
#338=ORIENTED_EDGE('',*,*,#273,.F.);
#339=ORIENTED_EDGE('',*,*,#274,.F.);
#340=ORIENTED_EDGE('',*,*,#266,.F.);
#341=ORIENTED_EDGE('',*,*,#274,.T.);
#342=ORIENTED_EDGE('',*,*,#275,.F.);
#343=ORIENTED_EDGE('',*,*,#270,.T.);
#344=ORIENTED_EDGE('',*,*,#267,.T.);
#345=ORIENTED_EDGE('',*,*,#262,.T.);
#346=ORIENTED_EDGE('',*,*,#276,.F.);
#347=ORIENTED_EDGE('',*,*,#277,.T.);
#348=ORIENTED_EDGE('',*,*,#278,.T.);
#349=ORIENTED_EDGE('',*,*,#277,.F.);
#350=ORIENTED_EDGE('',*,*,#279,.F.);
#351=ORIENTED_EDGE('',*,*,#280,.T.);
#352=ORIENTED_EDGE('',*,*,#281,.T.);
#353=ORIENTED_EDGE('',*,*,#280,.F.);
#354=ORIENTED_EDGE('',*,*,#282,.F.);
#355=ORIENTED_EDGE('',*,*,#283,.T.);
#356=ORIENTED_EDGE('',*,*,#284,.T.);
#357=ORIENTED_EDGE('',*,*,#283,.F.);
#358=ORIENTED_EDGE('',*,*,#285,.F.);
#359=ORIENTED_EDGE('',*,*,#286,.T.);
#360=ORIENTED_EDGE('',*,*,#287,.T.);
#361=ORIENTED_EDGE('',*,*,#286,.F.);
#362=ORIENTED_EDGE('',*,*,#288,.F.);
#363=ORIENTED_EDGE('',*,*,#289,.T.);
#364=ORIENTED_EDGE('',*,*,#290,.T.);
#365=ORIENTED_EDGE('',*,*,#289,.F.);
#366=ORIENTED_EDGE('',*,*,#291,.F.);
#367=ORIENTED_EDGE('',*,*,#292,.T.);
#368=ORIENTED_EDGE('',*,*,#293,.T.);
#369=ORIENTED_EDGE('',*,*,#292,.F.);
#370=ORIENTED_EDGE('',*,*,#294,.F.);
#371=ORIENTED_EDGE('',*,*,#295,.T.);
#372=ORIENTED_EDGE('',*,*,#296,.T.);
#373=ORIENTED_EDGE('',*,*,#295,.F.);
#374=ORIENTED_EDGE('',*,*,#297,.F.);
#375=ORIENTED_EDGE('',*,*,#298,.T.);
#376=ORIENTED_EDGE('',*,*,#299,.T.);
#377=ORIENTED_EDGE('',*,*,#298,.F.);
#378=ORIENTED_EDGE('',*,*,#300,.F.);
#379=ORIENTED_EDGE('',*,*,#301,.T.);
#380=ORIENTED_EDGE('',*,*,#302,.T.);
#381=ORIENTED_EDGE('',*,*,#301,.F.);
#382=ORIENTED_EDGE('',*,*,#303,.F.);
#383=ORIENTED_EDGE('',*,*,#304,.T.);
#384=ORIENTED_EDGE('',*,*,#305,.F.);
#385=ORIENTED_EDGE('',*,*,#306,.F.);
#386=ORIENTED_EDGE('',*,*,#307,.F.);
#387=ORIENTED_EDGE('',*,*,#306,.T.);
#388=ORIENTED_EDGE('',*,*,#308,.F.);
#389=ORIENTED_EDGE('',*,*,#309,.F.);
#390=ORIENTED_EDGE('',*,*,#310,.F.);
#391=ORIENTED_EDGE('',*,*,#309,.T.);
#392=ORIENTED_EDGE('',*,*,#311,.F.);
#393=ORIENTED_EDGE('',*,*,#312,.F.);
#394=ORIENTED_EDGE('',*,*,#313,.F.);
#395=ORIENTED_EDGE('',*,*,#312,.T.);
#396=ORIENTED_EDGE('',*,*,#314,.F.);
#397=ORIENTED_EDGE('',*,*,#315,.F.);
#398=ORIENTED_EDGE('',*,*,#273,.T.);
#399=ORIENTED_EDGE('',*,*,#316,.F.);
#400=ORIENTED_EDGE('',*,*,#315,.T.);
#401=ORIENTED_EDGE('',*,*,#317,.F.);
#402=ORIENTED_EDGE('',*,*,#318,.F.);
#403=ORIENTED_EDGE('',*,*,#319,.F.);
#404=ORIENTED_EDGE('',*,*,#271,.T.);
#405=ORIENTED_EDGE('',*,*,#275,.T.);
#406=ORIENTED_EDGE('',*,*,#320,.F.);
#407=ORIENTED_EDGE('',*,*,#318,.T.);
#408=ORIENTED_EDGE('',*,*,#321,.F.);
#409=ORIENTED_EDGE('',*,*,#322,.F.);
#410=ORIENTED_EDGE('',*,*,#323,.T.);
#411=ORIENTED_EDGE('',*,*,#322,.T.);
#412=ORIENTED_EDGE('',*,*,#324,.F.);
#413=ORIENTED_EDGE('',*,*,#304,.F.);
#414=ORIENTED_EDGE('',*,*,#324,.T.);
#415=ORIENTED_EDGE('',*,*,#321,.T.);
#416=ORIENTED_EDGE('',*,*,#317,.T.);
#417=ORIENTED_EDGE('',*,*,#314,.T.);
#418=ORIENTED_EDGE('',*,*,#311,.T.);
#419=ORIENTED_EDGE('',*,*,#308,.T.);
#420=ORIENTED_EDGE('',*,*,#305,.T.);
#421=ORIENTED_EDGE('',*,*,#300,.T.);
#422=ORIENTED_EDGE('',*,*,#297,.T.);
#423=ORIENTED_EDGE('',*,*,#294,.T.);
#424=ORIENTED_EDGE('',*,*,#291,.T.);
#425=ORIENTED_EDGE('',*,*,#288,.T.);
#426=ORIENTED_EDGE('',*,*,#285,.T.);
#427=ORIENTED_EDGE('',*,*,#282,.T.);
#428=ORIENTED_EDGE('',*,*,#279,.T.);
#429=ORIENTED_EDGE('',*,*,#276,.T.);
#430=ORIENTED_EDGE('',*,*,#323,.F.);
#431=ORIENTED_EDGE('',*,*,#303,.T.);
#432=ORIENTED_EDGE('',*,*,#307,.T.);
#433=ORIENTED_EDGE('',*,*,#310,.T.);
#434=ORIENTED_EDGE('',*,*,#313,.T.);
#435=ORIENTED_EDGE('',*,*,#316,.T.);
#436=ORIENTED_EDGE('',*,*,#272,.T.);
#437=ORIENTED_EDGE('',*,*,#265,.T.);
#438=ORIENTED_EDGE('',*,*,#269,.T.);
#439=ORIENTED_EDGE('',*,*,#319,.T.);
#440=ORIENTED_EDGE('',*,*,#320,.T.);
#441=ORIENTED_EDGE('',*,*,#264,.F.);
#442=ORIENTED_EDGE('',*,*,#302,.F.);
#443=ORIENTED_EDGE('',*,*,#299,.F.);
#444=ORIENTED_EDGE('',*,*,#296,.F.);
#445=ORIENTED_EDGE('',*,*,#293,.F.);
#446=ORIENTED_EDGE('',*,*,#290,.F.);
#447=ORIENTED_EDGE('',*,*,#287,.F.);
#448=ORIENTED_EDGE('',*,*,#284,.F.);
#449=ORIENTED_EDGE('',*,*,#281,.F.);
#450=ORIENTED_EDGE('',*,*,#278,.F.);
#451=CYLINDRICAL_SURFACE('',#498,0.199999999999999);
#452=CYLINDRICAL_SURFACE('',#505,0.199999999999999);
#453=CYLINDRICAL_SURFACE('',#508,0.199999999999999);
#454=CYLINDRICAL_SURFACE('',#511,0.199999999999999);
#455=CYLINDRICAL_SURFACE('',#514,0.199999999999999);
#456=CYLINDRICAL_SURFACE('',#517,0.199999999999999);
#457=CYLINDRICAL_SURFACE('',#520,0.199999999999999);
#458=CYLINDRICAL_SURFACE('',#523,0.199999999999999);
#459=CYLINDRICAL_SURFACE('',#526,0.199999999999999);
#460=CYLINDRICAL_SURFACE('',#529,0.199999999999999);
#461=ADVANCED_FACE('',(#48),#451,.F.);
#462=ADVANCED_FACE('',(#49),#35,.T.);
#463=ADVANCED_FACE('',(#50),#36,.T.);
#464=ADVANCED_FACE('',(#51),#37,.T.);
#465=ADVANCED_FACE('',(#52,#15),#38,.T.);
#466=ADVANCED_FACE('',(#53),#452,.F.);
#467=ADVANCED_FACE('',(#54),#453,.F.);
#468=ADVANCED_FACE('',(#55),#454,.F.);
#469=ADVANCED_FACE('',(#56),#455,.F.);
#470=ADVANCED_FACE('',(#57),#456,.F.);
#471=ADVANCED_FACE('',(#58),#457,.F.);
#472=ADVANCED_FACE('',(#59),#458,.F.);
#473=ADVANCED_FACE('',(#60),#459,.F.);
#474=ADVANCED_FACE('',(#61),#460,.F.);
#475=ADVANCED_FACE('',(#62),#39,.T.);
#476=ADVANCED_FACE('',(#63),#40,.T.);
#477=ADVANCED_FACE('',(#64),#41,.T.);
#478=ADVANCED_FACE('',(#65),#42,.T.);
#479=ADVANCED_FACE('',(#66),#43,.T.);
#480=ADVANCED_FACE('',(#67),#44,.T.);
#481=ADVANCED_FACE('',(#68),#45,.T.);
#482=ADVANCED_FACE('',(#69,#16,#17,#18,#19,#20,#21,#22,#23,#24),#46,.T.);
#483=ADVANCED_FACE('',(#70,#25,#26,#27,#28,#29,#30,#31,#32,#33,#34),#47,
 .F.);
#484=CLOSED_SHELL('',(#461,#462,#463,#464,#465,#466,#467,#468,#469,#470,
#471,#472,#473,#474,#475,#476,#477,#478,#479,#480,#481,#482,#483));
#485=DERIVED_UNIT_ELEMENT(#487,1.);
#486=DERIVED_UNIT_ELEMENT(#806,-3.);
#487=(
MASS_UNIT()
NAMED_UNIT(*)
SI_UNIT(.KILO.,.GRAM.)
);
#488=DERIVED_UNIT((#485,#486));
#489=MEASURE_REPRESENTATION_ITEM('density measure',
POSITIVE_RATIO_MEASURE(1060.),#488);
#490=PROPERTY_DEFINITION_REPRESENTATION(#495,#492);
#491=PROPERTY_DEFINITION_REPRESENTATION(#496,#493);
#492=REPRESENTATION('material name',(#494),#803);
#493=REPRESENTATION('density',(#489),#803);
#494=DESCRIPTIVE_REPRESENTATION_ITEM('ABS \X2\D50CB77CC2A4D2F1\X0\',
'ABS \X2\D50CB77CC2A4D2F1\X0\');
#495=PROPERTY_DEFINITION('material property','material name',#813);
#496=PROPERTY_DEFINITION('material property','density of part',#813);
#497=AXIS2_PLACEMENT_3D('',#672,#541,#542);
#498=AXIS2_PLACEMENT_3D('',#673,#543,#544);
#499=AXIS2_PLACEMENT_3D('',#675,#545,#546);
#500=AXIS2_PLACEMENT_3D('',#678,#548,#549);
#501=AXIS2_PLACEMENT_3D('',#679,#550,#551);
#502=AXIS2_PLACEMENT_3D('',#688,#556,#557);
#503=AXIS2_PLACEMENT_3D('',#694,#561,#562);
#504=AXIS2_PLACEMENT_3D('',#700,#566,#567);
#505=AXIS2_PLACEMENT_3D('',#702,#569,#570);
#506=AXIS2_PLACEMENT_3D('',#704,#571,#572);
#507=AXIS2_PLACEMENT_3D('',#707,#574,#575);
#508=AXIS2_PLACEMENT_3D('',#708,#576,#577);
#509=AXIS2_PLACEMENT_3D('',#710,#578,#579);
#510=AXIS2_PLACEMENT_3D('',#713,#581,#582);
#511=AXIS2_PLACEMENT_3D('',#714,#583,#584);
#512=AXIS2_PLACEMENT_3D('',#716,#585,#586);
#513=AXIS2_PLACEMENT_3D('',#719,#588,#589);
#514=AXIS2_PLACEMENT_3D('',#720,#590,#591);
#515=AXIS2_PLACEMENT_3D('',#722,#592,#593);
#516=AXIS2_PLACEMENT_3D('',#725,#595,#596);
#517=AXIS2_PLACEMENT_3D('',#726,#597,#598);
#518=AXIS2_PLACEMENT_3D('',#728,#599,#600);
#519=AXIS2_PLACEMENT_3D('',#731,#602,#603);
#520=AXIS2_PLACEMENT_3D('',#732,#604,#605);
#521=AXIS2_PLACEMENT_3D('',#734,#606,#607);
#522=AXIS2_PLACEMENT_3D('',#737,#609,#610);
#523=AXIS2_PLACEMENT_3D('',#738,#611,#612);
#524=AXIS2_PLACEMENT_3D('',#740,#613,#614);
#525=AXIS2_PLACEMENT_3D('',#743,#616,#617);
#526=AXIS2_PLACEMENT_3D('',#744,#618,#619);
#527=AXIS2_PLACEMENT_3D('',#746,#620,#621);
#528=AXIS2_PLACEMENT_3D('',#749,#623,#624);
#529=AXIS2_PLACEMENT_3D('',#750,#625,#626);
#530=AXIS2_PLACEMENT_3D('',#752,#627,#628);
#531=AXIS2_PLACEMENT_3D('',#755,#630,#631);
#532=AXIS2_PLACEMENT_3D('',#756,#632,#633);
#533=AXIS2_PLACEMENT_3D('',#765,#638,#639);
#534=AXIS2_PLACEMENT_3D('',#771,#643,#644);
#535=AXIS2_PLACEMENT_3D('',#777,#648,#649);
#536=AXIS2_PLACEMENT_3D('',#783,#653,#654);
#537=AXIS2_PLACEMENT_3D('',#790,#659,#660);
#538=AXIS2_PLACEMENT_3D('',#796,#664,#665);
#539=AXIS2_PLACEMENT_3D('',#799,#668,#669);
#540=AXIS2_PLACEMENT_3D('',#800,#670,#671);
#541=DIRECTION('axis',(0.,0.,1.));
#542=DIRECTION('refdir',(1.,0.,0.));
#543=DIRECTION('center_axis',(0.,0.,1.));
#544=DIRECTION('ref_axis',(-1.,0.,0.));
#545=DIRECTION('center_axis',(0.,0.,-1.));
#546=DIRECTION('ref_axis',(-1.,0.,0.));
#547=DIRECTION('',(0.,0.,-1.));
#548=DIRECTION('center_axis',(0.,0.,-1.));
#549=DIRECTION('ref_axis',(-1.,0.,0.));
#550=DIRECTION('center_axis',(1.,0.,0.));
#551=DIRECTION('ref_axis',(0.,1.,0.));
#552=DIRECTION('',(0.,-1.,0.));
#553=DIRECTION('',(0.,0.,1.));
#554=DIRECTION('',(0.,1.,0.));
#555=DIRECTION('',(0.,0.,1.));
#556=DIRECTION('center_axis',(0.,-1.,0.));
#557=DIRECTION('ref_axis',(1.,0.,0.));
#558=DIRECTION('',(-1.,0.,0.));
#559=DIRECTION('',(1.,0.,0.));
#560=DIRECTION('',(0.,0.,1.));
#561=DIRECTION('center_axis',(0.,1.,0.));
#562=DIRECTION('ref_axis',(-1.,0.,0.));
#563=DIRECTION('',(1.,0.,0.));
#564=DIRECTION('',(0.,0.,-1.));
#565=DIRECTION('',(-1.,0.,0.));
#566=DIRECTION('center_axis',(0.,0.,1.));
#567=DIRECTION('ref_axis',(-1.,0.,0.));
#568=DIRECTION('',(0.,1.,0.));
#569=DIRECTION('center_axis',(0.,0.,1.));
#570=DIRECTION('ref_axis',(-1.,0.,0.));
#571=DIRECTION('center_axis',(0.,0.,-1.));
#572=DIRECTION('ref_axis',(-1.,0.,0.));
#573=DIRECTION('',(0.,0.,-1.));
#574=DIRECTION('center_axis',(0.,0.,-1.));
#575=DIRECTION('ref_axis',(-1.,0.,0.));
#576=DIRECTION('center_axis',(0.,0.,1.));
#577=DIRECTION('ref_axis',(-1.,0.,0.));
#578=DIRECTION('center_axis',(0.,0.,-1.));
#579=DIRECTION('ref_axis',(-1.,0.,0.));
#580=DIRECTION('',(0.,0.,-1.));
#581=DIRECTION('center_axis',(0.,0.,-1.));
#582=DIRECTION('ref_axis',(-1.,0.,0.));
#583=DIRECTION('center_axis',(0.,0.,1.));
#584=DIRECTION('ref_axis',(-1.,0.,0.));
#585=DIRECTION('center_axis',(0.,0.,-1.));
#586=DIRECTION('ref_axis',(-1.,0.,0.));
#587=DIRECTION('',(0.,0.,-1.));
#588=DIRECTION('center_axis',(0.,0.,-1.));
#589=DIRECTION('ref_axis',(-1.,0.,0.));
#590=DIRECTION('center_axis',(0.,0.,1.));
#591=DIRECTION('ref_axis',(-1.,0.,0.));
#592=DIRECTION('center_axis',(0.,0.,-1.));
#593=DIRECTION('ref_axis',(-1.,0.,0.));
#594=DIRECTION('',(0.,0.,-1.));
#595=DIRECTION('center_axis',(0.,0.,-1.));
#596=DIRECTION('ref_axis',(-1.,0.,0.));
#597=DIRECTION('center_axis',(0.,0.,1.));
#598=DIRECTION('ref_axis',(-1.,0.,0.));
#599=DIRECTION('center_axis',(0.,0.,-1.));
#600=DIRECTION('ref_axis',(-1.,0.,0.));
#601=DIRECTION('',(0.,0.,-1.));
#602=DIRECTION('center_axis',(0.,0.,-1.));
#603=DIRECTION('ref_axis',(-1.,0.,0.));
#604=DIRECTION('center_axis',(0.,0.,1.));
#605=DIRECTION('ref_axis',(-1.,0.,0.));
#606=DIRECTION('center_axis',(0.,0.,-1.));
#607=DIRECTION('ref_axis',(-1.,0.,0.));
#608=DIRECTION('',(0.,0.,-1.));
#609=DIRECTION('center_axis',(0.,0.,-1.));
#610=DIRECTION('ref_axis',(-1.,0.,0.));
#611=DIRECTION('center_axis',(0.,0.,1.));
#612=DIRECTION('ref_axis',(-1.,0.,0.));
#613=DIRECTION('center_axis',(0.,0.,-1.));
#614=DIRECTION('ref_axis',(-1.,0.,0.));
#615=DIRECTION('',(0.,0.,-1.));
#616=DIRECTION('center_axis',(0.,0.,-1.));
#617=DIRECTION('ref_axis',(-1.,0.,0.));
#618=DIRECTION('center_axis',(0.,0.,1.));
#619=DIRECTION('ref_axis',(-1.,0.,0.));
#620=DIRECTION('center_axis',(0.,0.,-1.));
#621=DIRECTION('ref_axis',(-1.,0.,0.));
#622=DIRECTION('',(0.,0.,-1.));
#623=DIRECTION('center_axis',(0.,0.,-1.));
#624=DIRECTION('ref_axis',(-1.,0.,0.));
#625=DIRECTION('center_axis',(0.,0.,1.));
#626=DIRECTION('ref_axis',(-1.,0.,0.));
#627=DIRECTION('center_axis',(0.,0.,-1.));
#628=DIRECTION('ref_axis',(-1.,0.,0.));
#629=DIRECTION('',(0.,0.,-1.));
#630=DIRECTION('center_axis',(0.,0.,-1.));
#631=DIRECTION('ref_axis',(-1.,0.,0.));
#632=DIRECTION('center_axis',(0.,-1.,0.));
#633=DIRECTION('ref_axis',(1.,0.,0.));
#634=DIRECTION('',(-1.,0.,0.));
#635=DIRECTION('',(0.,0.,1.));
#636=DIRECTION('',(1.,0.,0.));
#637=DIRECTION('',(0.,0.,1.));
#638=DIRECTION('center_axis',(-0.808736084303189,-0.588171697675046,0.));
#639=DIRECTION('ref_axis',(0.588171697675046,-0.808736084303189,0.));
#640=DIRECTION('',(-0.588171697675046,0.808736084303189,0.));
#641=DIRECTION('',(0.588171697675046,-0.808736084303189,0.));
#642=DIRECTION('',(0.,0.,1.));
#643=DIRECTION('center_axis',(-1.,0.,0.));
#644=DIRECTION('ref_axis',(0.,-1.,0.));
#645=DIRECTION('',(0.,1.,0.));
#646=DIRECTION('',(0.,-1.,0.));
#647=DIRECTION('',(0.,0.,1.));
#648=DIRECTION('center_axis',(0.,1.,0.));
#649=DIRECTION('ref_axis',(-1.,0.,0.));
#650=DIRECTION('',(1.,0.,0.));
#651=DIRECTION('',(-1.,0.,0.));
#652=DIRECTION('',(0.,0.,1.));
#653=DIRECTION('center_axis',(1.,0.,0.));
#654=DIRECTION('ref_axis',(0.,1.,0.));
#655=DIRECTION('',(0.,-1.,0.));
#656=DIRECTION('',(0.,1.,0.));
#657=DIRECTION('',(0.,0.,1.));
#658=DIRECTION('',(0.,-1.,0.));
#659=DIRECTION('center_axis',(0.,-1.,0.));
#660=DIRECTION('ref_axis',(1.,0.,0.));
#661=DIRECTION('',(-1.,0.,0.));
#662=DIRECTION('',(1.,0.,0.));
#663=DIRECTION('',(0.,0.,1.));
#664=DIRECTION('center_axis',(-1.,0.,0.));
#665=DIRECTION('ref_axis',(0.,-1.,0.));
#666=DIRECTION('',(0.,-1.,0.));
#667=DIRECTION('',(0.,-1.,0.));
#668=DIRECTION('center_axis',(0.,0.,1.));
#669=DIRECTION('ref_axis',(-1.,0.,0.));
#670=DIRECTION('center_axis',(0.,0.,1.));
#671=DIRECTION('ref_axis',(-1.,0.,0.));
#672=CARTESIAN_POINT('',(0.,0.,0.));
#673=CARTESIAN_POINT('Origin',(28.1389726307232,10.0405055839753,1.));
#674=CARTESIAN_POINT('',(28.3389726307232,10.0405055839753,1.3));
#675=CARTESIAN_POINT('Origin',(28.1389726307232,10.0405055839753,1.3));
#676=CARTESIAN_POINT('',(28.3389726307232,10.0405055839753,1.));
#677=CARTESIAN_POINT('',(28.3389726307232,10.0405055839753,1.));
#678=CARTESIAN_POINT('Origin',(28.1389726307232,10.0405055839753,1.));
#679=CARTESIAN_POINT('Origin',(29.1000004336238,9.26492468811623,1.));
#680=CARTESIAN_POINT('',(29.1000004336238,10.8000001609325,1.));
#681=CARTESIAN_POINT('',(29.1000004336238,9.26492468811623,1.));
#682=CARTESIAN_POINT('',(29.1000004336238,10.8000001609325,1.));
#683=CARTESIAN_POINT('',(29.1000004336238,10.8000001609325,1.3));
#684=CARTESIAN_POINT('',(29.1000004336238,10.8000001609325,1.));
#685=CARTESIAN_POINT('',(29.1000004336238,9.26492468811623,1.3));
#686=CARTESIAN_POINT('',(29.1000004336238,10.8000001609325,1.3));
#687=CARTESIAN_POINT('',(29.1000004336238,9.26492468811623,1.));
#688=CARTESIAN_POINT('Origin',(27.3000004068017,9.26492468811623,1.));
#689=CARTESIAN_POINT('',(27.3000004068017,9.26492468811623,1.));
#690=CARTESIAN_POINT('',(29.1000004336238,9.26492468811623,1.));
#691=CARTESIAN_POINT('',(27.3000004068017,9.26492468811623,1.3));
#692=CARTESIAN_POINT('',(29.1000004336238,9.26492468811623,1.3));
#693=CARTESIAN_POINT('',(27.3000004068017,9.26492468811623,1.));
#694=CARTESIAN_POINT('Origin',(29.1000004336238,10.8000001609325,1.));
#695=CARTESIAN_POINT('',(27.3000004068017,10.8000001609325,1.));
#696=CARTESIAN_POINT('',(27.3000004068017,10.8000001609325,1.));
#697=CARTESIAN_POINT('',(27.3000004068017,10.8000001609325,1.3));
#698=CARTESIAN_POINT('',(27.3000004068017,10.8000001609325,1.));
#699=CARTESIAN_POINT('',(27.3000004068017,10.8000001609325,1.3));
#700=CARTESIAN_POINT('Origin',(28.2000004202127,10.0324624245244,1.3));
#701=CARTESIAN_POINT('',(27.3000004068017,8.01623121226219,1.3));
#702=CARTESIAN_POINT('Origin',(24.0735819210072,7.14894475924724,1.));
#703=CARTESIAN_POINT('',(24.2735819210072,7.14894475924724,1.5));
#704=CARTESIAN_POINT('Origin',(24.0735819210072,7.14894475924724,1.5));
#705=CARTESIAN_POINT('',(24.2735819210072,7.14894475924724,1.));
#706=CARTESIAN_POINT('',(24.2735819210072,7.14894475924724,1.));
#707=CARTESIAN_POINT('Origin',(24.0735819210072,7.14894475924724,1.));
#708=CARTESIAN_POINT('Origin',(26.4735819210072,10.1489447592472,1.));
#709=CARTESIAN_POINT('',(26.6735819210072,10.1489447592472,1.5));
#710=CARTESIAN_POINT('Origin',(26.4735819210072,10.1489447592472,1.5));
#711=CARTESIAN_POINT('',(26.6735819210072,10.1489447592472,1.));
#712=CARTESIAN_POINT('',(26.6735819210072,10.1489447592472,1.));
#713=CARTESIAN_POINT('Origin',(26.4735819210072,10.1489447592472,1.));
#714=CARTESIAN_POINT('Origin',(21.8448305078972,9.56919007516068,1.));
#715=CARTESIAN_POINT('',(22.0448305078972,9.56919007516068,1.5));
#716=CARTESIAN_POINT('Origin',(21.8448305078972,9.56919007516068,1.5));
#717=CARTESIAN_POINT('',(22.0448305078972,9.56919007516068,1.));
#718=CARTESIAN_POINT('',(22.0448305078972,9.56919007516068,1.));
#719=CARTESIAN_POINT('Origin',(21.8448305078972,9.56919007516068,1.));
#720=CARTESIAN_POINT('Origin',(26.474703192882,11.6501078500631,1.));
#721=CARTESIAN_POINT('',(26.6747031928819,11.6501078500631,1.5));
#722=CARTESIAN_POINT('Origin',(26.474703192882,11.6501078500631,1.5));
#723=CARTESIAN_POINT('',(26.6747031928819,11.6501078500631,1.));
#724=CARTESIAN_POINT('',(26.6747031928819,11.6501078500631,1.));
#725=CARTESIAN_POINT('Origin',(26.474703192882,11.6501078500631,1.));
#726=CARTESIAN_POINT('Origin',(21.975622635023,12.1503713594835,1.));
#727=CARTESIAN_POINT('',(22.175622635023,12.1503713594835,1.5));
#728=CARTESIAN_POINT('Origin',(21.975622635023,12.1503713594835,1.5));
#729=CARTESIAN_POINT('',(22.175622635023,12.1503713594835,1.));
#730=CARTESIAN_POINT('',(22.175622635023,12.1503713594835,1.));
#731=CARTESIAN_POINT('Origin',(21.975622635023,12.1503713594835,1.));
#732=CARTESIAN_POINT('Origin',(24.6392846192252,12.0380538561084,1.));
#733=CARTESIAN_POINT('',(24.8392846192252,12.0380538561084,1.5));
#734=CARTESIAN_POINT('Origin',(24.6392846192252,12.0380538561084,1.5));
#735=CARTESIAN_POINT('',(24.8392846192252,12.0380538561084,1.));
#736=CARTESIAN_POINT('',(24.8392846192252,12.0380538561084,1.));
#737=CARTESIAN_POINT('Origin',(24.6392846192252,12.0380538561084,1.));
#738=CARTESIAN_POINT('Origin',(26.4735819210072,7.14894475924724,1.));
#739=CARTESIAN_POINT('',(26.6735819210072,7.14894475924724,1.5));
#740=CARTESIAN_POINT('Origin',(26.4735819210072,7.14894475924724,1.5));
#741=CARTESIAN_POINT('',(26.6735819210072,7.14894475924724,1.));
#742=CARTESIAN_POINT('',(26.6735819210072,7.14894475924724,1.));
#743=CARTESIAN_POINT('Origin',(26.4735819210072,7.14894475924724,1.));
#744=CARTESIAN_POINT('Origin',(24.0735819210072,10.1489447592472,1.));
#745=CARTESIAN_POINT('',(24.2735819210072,10.1489447592472,1.5));
#746=CARTESIAN_POINT('Origin',(24.0735819210072,10.1489447592472,1.5));
#747=CARTESIAN_POINT('',(24.2735819210072,10.1489447592472,1.));
#748=CARTESIAN_POINT('',(24.2735819210072,10.1489447592472,1.));
#749=CARTESIAN_POINT('Origin',(24.0735819210072,10.1489447592472,1.));
#750=CARTESIAN_POINT('Origin',(23.4448305078972,9.56919007516068,1.));
#751=CARTESIAN_POINT('',(23.6448305078972,9.56919007516068,1.5));
#752=CARTESIAN_POINT('Origin',(23.4448305078972,9.56919007516068,1.5));
#753=CARTESIAN_POINT('',(23.6448305078972,9.56919007516068,1.));
#754=CARTESIAN_POINT('',(23.6448305078972,9.56919007516068,1.));
#755=CARTESIAN_POINT('Origin',(23.4448305078972,9.56919007516068,1.));
#756=CARTESIAN_POINT('Origin',(21.6000003218651,8.20000012218952,1.));
#757=CARTESIAN_POINT('',(23.,8.20000012218952,1.));
#758=CARTESIAN_POINT('',(21.6000003218651,8.20000012218952,1.));
#759=CARTESIAN_POINT('',(23.,8.20000012218952,1.));
#760=CARTESIAN_POINT('',(23.,8.20000012218952,1.5));
#761=CARTESIAN_POINT('',(23.,8.20000012218952,1.));
#762=CARTESIAN_POINT('',(21.6000003218651,8.20000012218952,1.5));
#763=CARTESIAN_POINT('',(23.,8.20000012218952,1.5));
#764=CARTESIAN_POINT('',(21.6000003218651,8.20000012218952,1.));
#765=CARTESIAN_POINT('Origin',(21.2000003159046,8.75000013038516,1.));
#766=CARTESIAN_POINT('',(21.2000003159046,8.75000013038516,1.));
#767=CARTESIAN_POINT('',(21.6000003218651,8.20000012218952,1.));
#768=CARTESIAN_POINT('',(21.2000003159046,8.75000013038516,1.5));
#769=CARTESIAN_POINT('',(21.6000003218651,8.20000012218952,1.5));
#770=CARTESIAN_POINT('',(21.2000003159046,8.75000013038516,1.));
#771=CARTESIAN_POINT('Origin',(21.2000003159046,13.,1.));
#772=CARTESIAN_POINT('',(21.2000003159046,13.,1.));
#773=CARTESIAN_POINT('',(21.2000003159046,8.20000012218952,1.));
#774=CARTESIAN_POINT('',(21.2000003159046,13.,1.5));
#775=CARTESIAN_POINT('',(21.2000003159046,8.20000012218952,1.5));
#776=CARTESIAN_POINT('',(21.2000003159046,13.,1.));
#777=CARTESIAN_POINT('Origin',(27.3000004068017,13.,1.));
#778=CARTESIAN_POINT('',(27.3000004068017,13.,1.));
#779=CARTESIAN_POINT('',(21.,13.,1.));
#780=CARTESIAN_POINT('',(27.3000004068017,13.,1.5));
#781=CARTESIAN_POINT('',(21.,13.,1.5));
#782=CARTESIAN_POINT('',(27.3000004068017,13.,1.));
#783=CARTESIAN_POINT('Origin',(27.3000004068017,6.,1.));
#784=CARTESIAN_POINT('',(27.3000004068017,9.26492468811623,1.));
#785=CARTESIAN_POINT('',(27.3000004068017,6.,1.5));
#786=CARTESIAN_POINT('',(27.3000004068017,9.26492468811623,1.5));
#787=CARTESIAN_POINT('',(27.3000004068017,6.,1.));
#788=CARTESIAN_POINT('',(27.3000004068017,6.,1.));
#789=CARTESIAN_POINT('',(27.3000004068017,9.26492468811623,1.));
#790=CARTESIAN_POINT('Origin',(23.,6.,1.));
#791=CARTESIAN_POINT('',(23.,6.,1.));
#792=CARTESIAN_POINT('',(27.3000004068017,6.,1.));
#793=CARTESIAN_POINT('',(23.,6.,1.5));
#794=CARTESIAN_POINT('',(27.3000004068017,6.,1.5));
#795=CARTESIAN_POINT('',(23.,6.,1.));
#796=CARTESIAN_POINT('Origin',(23.,8.20000012218952,1.));
#797=CARTESIAN_POINT('',(23.,8.00000011920929,1.));
#798=CARTESIAN_POINT('',(23.,8.00000011920929,1.5));
#799=CARTESIAN_POINT('Origin',(24.2500003613532,9.5,1.5));
#800=CARTESIAN_POINT('Origin',(24.2500003613532,9.5,1.));
#801=UNCERTAINTY_MEASURE_WITH_UNIT(LENGTH_MEASURE(0.001),#805,
'DISTANCE_ACCURACY_VALUE',
'Maximum model space distance between geometric entities at asserted c
onnectivities');
#802=UNCERTAINTY_MEASURE_WITH_UNIT(LENGTH_MEASURE(0.001),#805,
'DISTANCE_ACCURACY_VALUE',
'Maximum model space distance between geometric entities at asserted c
onnectivities');
#803=(
GEOMETRIC_REPRESENTATION_CONTEXT(3)
GLOBAL_UNCERTAINTY_ASSIGNED_CONTEXT((#801))
GLOBAL_UNIT_ASSIGNED_CONTEXT((#805,#807,#808))
REPRESENTATION_CONTEXT('','3D')
);
#804=(
GEOMETRIC_REPRESENTATION_CONTEXT(3)
GLOBAL_UNCERTAINTY_ASSIGNED_CONTEXT((#802))
GLOBAL_UNIT_ASSIGNED_CONTEXT((#805,#807,#808))
REPRESENTATION_CONTEXT('','3D')
);
#805=(
LENGTH_UNIT()
NAMED_UNIT(*)
SI_UNIT(.CENTI.,.METRE.)
);
#806=(
LENGTH_UNIT()
NAMED_UNIT(*)
SI_UNIT($,.METRE.)
);
#807=(
NAMED_UNIT(*)
PLANE_ANGLE_UNIT()
SI_UNIT($,.RADIAN.)
);
#808=(
NAMED_UNIT(*)
SI_UNIT($,.STERADIAN.)
SOLID_ANGLE_UNIT()
);
#809=SHAPE_DEFINITION_REPRESENTATION(#810,#811);
#810=PRODUCT_DEFINITION_SHAPE('',$,#813);
#811=SHAPE_REPRESENTATION('',(#497),#803);
#812=PRODUCT_DEFINITION_CONTEXT('part definition',#817,'design');
#813=PRODUCT_DEFINITION('2026-08-08-21-19-58-159','current/voltage',#814,
#812);
#814=PRODUCT_DEFINITION_FORMATION('',$,#819);
#815=PRODUCT_RELATED_PRODUCT_CATEGORY('current/voltage',
'current/voltage',(#819));
#816=APPLICATION_PROTOCOL_DEFINITION('international standard',
'automotive_design',2009,#817);
#817=APPLICATION_CONTEXT(
'Core Data for Automotive Mechanical Design Process');
#818=PRODUCT_CONTEXT('part definition',#817,'mechanical');
#819=PRODUCT('2026-08-08-21-19-58-159','current/voltage',$,(#818));
#820=PRESENTATION_STYLE_ASSIGNMENT((#821));
#821=SURFACE_STYLE_USAGE(.BOTH.,#822);
#822=SURFACE_SIDE_STYLE('',(#823));
#823=SURFACE_STYLE_FILL_AREA(#824);
#824=FILL_AREA_STYLE('ABS(\X2\D770C0C9\X0\)',(#825));
#825=FILL_AREA_STYLE_COLOUR('ABS(\X2\D770C0C9\X0\)',#826);
#826=COLOUR_RGB('ABS(\X2\D770C0C9\X0\)',0.964705882352941,0.964705882352941,
0.952941176470588);
ENDSEC;
END-ISO-10303-21;
