ISO-10303-21;
HEADER;
/* Generated by software containing ST-Developer
 * from STEP Tools, Inc. (www.steptools.com) 
 */

FILE_DESCRIPTION(
/* description */ (''),
/* implementation_level */ '2;1');

FILE_NAME(
/* name */ 'switch bracket.step',
/* time_stamp */ '2026-08-31T17:53:46+09:00',
/* author */ (''),
/* organization */ (''),
/* preprocessor_version */ 'ST-DEVELOPER v20.1',
/* originating_system */ 'Autodesk Translation Framework v15.8.0.0',
/* authorisation */ '');

FILE_SCHEMA (('AUTOMOTIVE_DESIGN { 1 0 10303 214 3 1 1 }'));
ENDSEC;

DATA;
#10=MECHANICAL_DESIGN_GEOMETRIC_PRESENTATION_REPRESENTATION('',(#13),#1636);
#11=SHAPE_REPRESENTATION_RELATIONSHIP('SRR','None',#1643,#12);
#12=ADVANCED_BREP_SHAPE_REPRESENTATION('',(#14),#1635);
#13=STYLED_ITEM('',(#1652),#14);
#14=MANIFOLD_SOLID_BREP('\X2\BCF8CCB4\X0\1',#1004);
#15=ELLIPSE('',#1087,1.12501183610552,1.125);
#16=ELLIPSE('',#1090,1.12501183610552,1.125);
#17=CYLINDRICAL_SURFACE('',#1046,0.2);
#18=CYLINDRICAL_SURFACE('',#1049,0.2);
#19=CYLINDRICAL_SURFACE('',#1052,0.4);
#20=CYLINDRICAL_SURFACE('',#1056,0.4);
#21=CYLINDRICAL_SURFACE('',#1060,0.399999999999999);
#22=CYLINDRICAL_SURFACE('',#1064,0.4);
#23=CYLINDRICAL_SURFACE('',#1068,0.25);
#24=CYLINDRICAL_SURFACE('',#1069,0.25);
#25=CYLINDRICAL_SURFACE('',#1070,0.25);
#26=CYLINDRICAL_SURFACE('',#1071,0.25);
#27=CYLINDRICAL_SURFACE('',#1085,1.125);
#28=CYLINDRICAL_SURFACE('',#1088,1.125);
#29=FACE_BOUND('',#127,.T.);
#30=FACE_BOUND('',#130,.T.);
#31=FACE_BOUND('',#131,.T.);
#32=FACE_BOUND('',#132,.T.);
#33=FACE_BOUND('',#133,.T.);
#34=FACE_BOUND('',#134,.T.);
#35=FACE_BOUND('',#139,.T.);
#36=FACE_BOUND('',#145,.T.);
#37=FACE_BOUND('',#149,.T.);
#38=FACE_BOUND('',#157,.T.);
#39=FACE_BOUND('',#160,.T.);
#40=FACE_BOUND('',#163,.T.);
#41=FACE_BOUND('',#166,.T.);
#42=FACE_BOUND('',#176,.T.);
#43=FACE_BOUND('',#177,.T.);
#44=FACE_BOUND('',#181,.T.);
#45=FACE_BOUND('',#182,.T.);
#46=FACE_BOUND('',#183,.T.);
#47=FACE_BOUND('',#192,.T.);
#48=FACE_BOUND('',#193,.T.);
#49=FACE_BOUND('',#195,.T.);
#50=FACE_BOUND('',#196,.T.);
#51=CIRCLE('',#1021,0.25);
#52=CIRCLE('',#1024,0.4);
#53=CIRCLE('',#1025,0.399999999999999);
#54=CIRCLE('',#1026,0.4);
#55=CIRCLE('',#1027,0.4);
#56=CIRCLE('',#1032,0.25);
#57=CIRCLE('',#1038,0.25);
#58=CIRCLE('',#1042,0.25);
#59=CIRCLE('',#1047,0.2);
#60=CIRCLE('',#1048,0.2);
#61=CIRCLE('',#1050,0.2);
#62=CIRCLE('',#1051,0.2);
#63=CIRCLE('',#1053,0.4);
#64=CIRCLE('',#1055,0.25);
#65=CIRCLE('',#1057,0.4);
#66=CIRCLE('',#1059,0.25);
#67=CIRCLE('',#1061,0.399999999999999);
#68=CIRCLE('',#1063,0.25);
#69=CIRCLE('',#1065,0.4);
#70=CIRCLE('',#1067,0.25);
#71=CIRCLE('',#1086,1.125);
#72=CIRCLE('',#1089,1.125);
#73=FACE_OUTER_BOUND('',#124,.T.);
#74=FACE_OUTER_BOUND('',#125,.T.);
#75=FACE_OUTER_BOUND('',#126,.T.);
#76=FACE_OUTER_BOUND('',#128,.T.);
#77=FACE_OUTER_BOUND('',#129,.T.);
#78=FACE_OUTER_BOUND('',#135,.T.);
#79=FACE_OUTER_BOUND('',#136,.T.);
#80=FACE_OUTER_BOUND('',#137,.T.);
#81=FACE_OUTER_BOUND('',#138,.T.);
#82=FACE_OUTER_BOUND('',#140,.T.);
#83=FACE_OUTER_BOUND('',#141,.T.);
#84=FACE_OUTER_BOUND('',#142,.T.);
#85=FACE_OUTER_BOUND('',#143,.T.);
#86=FACE_OUTER_BOUND('',#144,.T.);
#87=FACE_OUTER_BOUND('',#146,.T.);
#88=FACE_OUTER_BOUND('',#147,.T.);
#89=FACE_OUTER_BOUND('',#148,.T.);
#90=FACE_OUTER_BOUND('',#150,.T.);
#91=FACE_OUTER_BOUND('',#151,.T.);
#92=FACE_OUTER_BOUND('',#152,.T.);
#93=FACE_OUTER_BOUND('',#153,.T.);
#94=FACE_OUTER_BOUND('',#154,.T.);
#95=FACE_OUTER_BOUND('',#155,.T.);
#96=FACE_OUTER_BOUND('',#156,.T.);
#97=FACE_OUTER_BOUND('',#158,.T.);
#98=FACE_OUTER_BOUND('',#159,.T.);
#99=FACE_OUTER_BOUND('',#161,.T.);
#100=FACE_OUTER_BOUND('',#162,.T.);
#101=FACE_OUTER_BOUND('',#164,.T.);
#102=FACE_OUTER_BOUND('',#165,.T.);
#103=FACE_OUTER_BOUND('',#167,.T.);
#104=FACE_OUTER_BOUND('',#168,.T.);
#105=FACE_OUTER_BOUND('',#169,.T.);
#106=FACE_OUTER_BOUND('',#170,.T.);
#107=FACE_OUTER_BOUND('',#171,.T.);
#108=FACE_OUTER_BOUND('',#172,.T.);
#109=FACE_OUTER_BOUND('',#173,.T.);
#110=FACE_OUTER_BOUND('',#174,.T.);
#111=FACE_OUTER_BOUND('',#175,.T.);
#112=FACE_OUTER_BOUND('',#178,.T.);
#113=FACE_OUTER_BOUND('',#179,.T.);
#114=FACE_OUTER_BOUND('',#180,.T.);
#115=FACE_OUTER_BOUND('',#184,.T.);
#116=FACE_OUTER_BOUND('',#185,.T.);
#117=FACE_OUTER_BOUND('',#186,.T.);
#118=FACE_OUTER_BOUND('',#187,.T.);
#119=FACE_OUTER_BOUND('',#188,.T.);
#120=FACE_OUTER_BOUND('',#189,.T.);
#121=FACE_OUTER_BOUND('',#190,.T.);
#122=FACE_OUTER_BOUND('',#191,.T.);
#123=FACE_OUTER_BOUND('',#194,.T.);
#124=EDGE_LOOP('',(#644,#645,#646,#647,#648,#649,#650,#651,#652,#653,#654));
#125=EDGE_LOOP('',(#655,#656,#657,#658,#659,#660,#661,#662,#663,#664));
#126=EDGE_LOOP('',(#665,#666,#667,#668));
#127=EDGE_LOOP('',(#669));
#128=EDGE_LOOP('',(#670,#671,#672,#673));
#129=EDGE_LOOP('',(#674,#675,#676,#677,#678,#679,#680,#681,#682,#683,#684,
#685,#686,#687,#688,#689));
#130=EDGE_LOOP('',(#690,#691,#692,#693));
#131=EDGE_LOOP('',(#694));
#132=EDGE_LOOP('',(#695));
#133=EDGE_LOOP('',(#696));
#134=EDGE_LOOP('',(#697));
#135=EDGE_LOOP('',(#698,#699,#700,#701));
#136=EDGE_LOOP('',(#702,#703,#704,#705));
#137=EDGE_LOOP('',(#706,#707,#708,#709));
#138=EDGE_LOOP('',(#710,#711,#712,#713));
#139=EDGE_LOOP('',(#714));
#140=EDGE_LOOP('',(#715,#716,#717,#718));
#141=EDGE_LOOP('',(#719,#720,#721,#722));
#142=EDGE_LOOP('',(#723,#724,#725,#726));
#143=EDGE_LOOP('',(#727,#728,#729,#730));
#144=EDGE_LOOP('',(#731,#732,#733,#734));
#145=EDGE_LOOP('',(#735));
#146=EDGE_LOOP('',(#736,#737,#738,#739));
#147=EDGE_LOOP('',(#740,#741,#742,#743));
#148=EDGE_LOOP('',(#744,#745,#746,#747));
#149=EDGE_LOOP('',(#748));
#150=EDGE_LOOP('',(#749,#750,#751,#752));
#151=EDGE_LOOP('',(#753,#754,#755,#756,#757,#758,#759,#760,#761,#762));
#152=EDGE_LOOP('',(#763,#764,#765,#766,#767,#768,#769));
#153=EDGE_LOOP('',(#770,#771,#772,#773));
#154=EDGE_LOOP('',(#774,#775,#776,#777));
#155=EDGE_LOOP('',(#778,#779,#780,#781));
#156=EDGE_LOOP('',(#782));
#157=EDGE_LOOP('',(#783));
#158=EDGE_LOOP('',(#784,#785,#786,#787));
#159=EDGE_LOOP('',(#788));
#160=EDGE_LOOP('',(#789));
#161=EDGE_LOOP('',(#790,#791,#792,#793));
#162=EDGE_LOOP('',(#794));
#163=EDGE_LOOP('',(#795));
#164=EDGE_LOOP('',(#796,#797,#798,#799));
#165=EDGE_LOOP('',(#800));
#166=EDGE_LOOP('',(#801));
#167=EDGE_LOOP('',(#802,#803,#804,#805));
#168=EDGE_LOOP('',(#806,#807,#808,#809));
#169=EDGE_LOOP('',(#810,#811,#812,#813));
#170=EDGE_LOOP('',(#814,#815,#816,#817));
#171=EDGE_LOOP('',(#818,#819,#820,#821));
#172=EDGE_LOOP('',(#822,#823,#824,#825,#826));
#173=EDGE_LOOP('',(#827,#828,#829,#830));
#174=EDGE_LOOP('',(#831,#832,#833,#834,#835));
#175=EDGE_LOOP('',(#836,#837,#838,#839,#840,#841,#842,#843));
#176=EDGE_LOOP('',(#844));
#177=EDGE_LOOP('',(#845));
#178=EDGE_LOOP('',(#846,#847,#848,#849));
#179=EDGE_LOOP('',(#850,#851,#852,#853));
#180=EDGE_LOOP('',(#854,#855,#856,#857));
#181=EDGE_LOOP('',(#858));
#182=EDGE_LOOP('',(#859));
#183=EDGE_LOOP('',(#860,#861,#862,#863));
#184=EDGE_LOOP('',(#864,#865,#866,#867,#868,#869,#870));
#185=EDGE_LOOP('',(#871,#872,#873,#874,#875,#876,#877));
#186=EDGE_LOOP('',(#878,#879,#880,#881,#882,#883,#884,#885));
#187=EDGE_LOOP('',(#886,#887,#888,#889));
#188=EDGE_LOOP('',(#890,#891,#892,#893));
#189=EDGE_LOOP('',(#894,#895,#896,#897));
#190=EDGE_LOOP('',(#898,#899,#900,#901));
#191=EDGE_LOOP('',(#902,#903,#904,#905));
#192=EDGE_LOOP('',(#906));
#193=EDGE_LOOP('',(#907));
#194=EDGE_LOOP('',(#908,#909,#910,#911));
#195=EDGE_LOOP('',(#912));
#196=EDGE_LOOP('',(#913));
#197=LINE('',#1360,#308);
#198=LINE('',#1362,#309);
#199=LINE('',#1364,#310);
#200=LINE('',#1366,#311);
#201=LINE('',#1368,#312);
#202=LINE('',#1370,#313);
#203=LINE('',#1372,#314);
#204=LINE('',#1374,#315);
#205=LINE('',#1376,#316);
#206=LINE('',#1378,#317);
#207=LINE('',#1379,#318);
#208=LINE('',#1382,#319);
#209=LINE('',#1384,#320);
#210=LINE('',#1386,#321);
#211=LINE('',#1388,#322);
#212=LINE('',#1390,#323);
#213=LINE('',#1392,#324);
#214=LINE('',#1394,#325);
#215=LINE('',#1396,#326);
#216=LINE('',#1397,#327);
#217=LINE('',#1400,#328);
#218=LINE('',#1401,#329);
#219=LINE('',#1406,#330);
#220=LINE('',#1407,#331);
#221=LINE('',#1410,#332);
#222=LINE('',#1412,#333);
#223=LINE('',#1414,#334);
#224=LINE('',#1416,#335);
#225=LINE('',#1418,#336);
#226=LINE('',#1420,#337);
#227=LINE('',#1422,#338);
#228=LINE('',#1423,#339);
#229=LINE('',#1425,#340);
#230=LINE('',#1427,#341);
#231=LINE('',#1428,#342);
#232=LINE('',#1429,#343);
#233=LINE('',#1432,#344);
#234=LINE('',#1434,#345);
#235=LINE('',#1436,#346);
#236=LINE('',#1437,#347);
#237=LINE('',#1448,#348);
#238=LINE('',#1449,#349);
#239=LINE('',#1452,#350);
#240=LINE('',#1453,#351);
#241=LINE('',#1456,#352);
#242=LINE('',#1458,#353);
#243=LINE('',#1459,#354);
#244=LINE('',#1462,#355);
#245=LINE('',#1463,#356);
#246=LINE('',#1467,#357);
#247=LINE('',#1470,#358);
#248=LINE('',#1471,#359);
#249=LINE('',#1474,#360);
#250=LINE('',#1475,#361);
#251=LINE('',#1478,#362);
#252=LINE('',#1483,#363);
#253=LINE('',#1484,#364);
#254=LINE('',#1487,#365);
#255=LINE('',#1492,#366);
#256=LINE('',#1494,#367);
#257=LINE('',#1495,#368);
#258=LINE('',#1497,#369);
#259=LINE('',#1500,#370);
#260=LINE('',#1502,#371);
#261=LINE('',#1503,#372);
#262=LINE('',#1508,#373);
#263=LINE('',#1514,#374);
#264=LINE('',#1518,#375);
#265=LINE('',#1525,#376);
#266=LINE('',#1532,#377);
#267=LINE('',#1539,#378);
#268=LINE('',#1545,#379);
#269=LINE('',#1547,#380);
#270=LINE('',#1549,#381);
#271=LINE('',#1551,#382);
#272=LINE('',#1555,#383);
#273=LINE('',#1557,#384);
#274=LINE('',#1559,#385);
#275=LINE('',#1560,#386);
#276=LINE('',#1563,#387);
#277=LINE('',#1565,#388);
#278=LINE('',#1567,#389);
#279=LINE('',#1568,#390);
#280=LINE('',#1571,#391);
#281=LINE('',#1573,#392);
#282=LINE('',#1574,#393);
#283=LINE('',#1576,#394);
#284=LINE('',#1578,#395);
#285=LINE('',#1579,#396);
#286=LINE('',#1582,#397);
#287=LINE('',#1584,#398);
#288=LINE('',#1586,#399);
#289=LINE('',#1588,#400);
#290=LINE('',#1589,#401);
#291=LINE('',#1593,#402);
#292=LINE('',#1594,#403);
#293=LINE('',#1595,#404);
#294=LINE('',#1597,#405);
#295=LINE('',#1599,#406);
#296=LINE('',#1602,#407);
#297=LINE('',#1604,#408);
#298=LINE('',#1605,#409);
#299=LINE('',#1606,#410);
#300=LINE('',#1609,#411);
#301=LINE('',#1610,#412);
#302=LINE('',#1612,#413);
#303=LINE('',#1613,#414);
#304=LINE('',#1615,#415);
#305=LINE('',#1617,#416);
#306=LINE('',#1623,#417);
#307=LINE('',#1629,#418);
#308=VECTOR('',#1097,1.);
#309=VECTOR('',#1098,1.);
#310=VECTOR('',#1099,1.);
#311=VECTOR('',#1100,1.);
#312=VECTOR('',#1101,1.);
#313=VECTOR('',#1102,1.);
#314=VECTOR('',#1103,1.);
#315=VECTOR('',#1104,1.);
#316=VECTOR('',#1105,1.);
#317=VECTOR('',#1106,1.);
#318=VECTOR('',#1107,1.);
#319=VECTOR('',#1110,1.);
#320=VECTOR('',#1111,1.);
#321=VECTOR('',#1112,1.);
#322=VECTOR('',#1113,1.);
#323=VECTOR('',#1114,1.);
#324=VECTOR('',#1115,1.);
#325=VECTOR('',#1116,1.);
#326=VECTOR('',#1117,1.);
#327=VECTOR('',#1118,1.);
#328=VECTOR('',#1121,1.);
#329=VECTOR('',#1122,1.);
#330=VECTOR('',#1127,1.);
#331=VECTOR('',#1128,1.);
#332=VECTOR('',#1131,1.);
#333=VECTOR('',#1132,1.);
#334=VECTOR('',#1133,1.);
#335=VECTOR('',#1134,1.);
#336=VECTOR('',#1135,1.);
#337=VECTOR('',#1136,1.);
#338=VECTOR('',#1137,1.);
#339=VECTOR('',#1138,1.);
#340=VECTOR('',#1139,1.);
#341=VECTOR('',#1140,1.);
#342=VECTOR('',#1141,1.);
#343=VECTOR('',#1142,1.);
#344=VECTOR('',#1143,1.);
#345=VECTOR('',#1144,1.);
#346=VECTOR('',#1145,1.);
#347=VECTOR('',#1146,1.);
#348=VECTOR('',#1157,1.);
#349=VECTOR('',#1158,1.);
#350=VECTOR('',#1161,1.);
#351=VECTOR('',#1162,1.);
#352=VECTOR('',#1165,1.);
#353=VECTOR('',#1166,1.);
#354=VECTOR('',#1167,1.);
#355=VECTOR('',#1170,1.);
#356=VECTOR('',#1171,1.);
#357=VECTOR('',#1176,1.);
#358=VECTOR('',#1179,1.);
#359=VECTOR('',#1180,1.);
#360=VECTOR('',#1183,1.);
#361=VECTOR('',#1184,1.);
#362=VECTOR('',#1189,1.);
#363=VECTOR('',#1194,1.);
#364=VECTOR('',#1195,1.);
#365=VECTOR('',#1200,1.);
#366=VECTOR('',#1205,1.);
#367=VECTOR('',#1206,1.);
#368=VECTOR('',#1207,1.);
#369=VECTOR('',#1210,1.);
#370=VECTOR('',#1213,1.);
#371=VECTOR('',#1214,1.);
#372=VECTOR('',#1215,1.);
#373=VECTOR('',#1220,0.2);
#374=VECTOR('',#1227,0.2);
#375=VECTOR('',#1232,0.4);
#376=VECTOR('',#1241,0.4);
#377=VECTOR('',#1250,0.399999999999999);
#378=VECTOR('',#1259,0.4);
#379=VECTOR('',#1268,0.25);
#380=VECTOR('',#1271,0.25);
#381=VECTOR('',#1274,0.25);
#382=VECTOR('',#1277,0.25);
#383=VECTOR('',#1280,1.);
#384=VECTOR('',#1281,1.);
#385=VECTOR('',#1282,1.);
#386=VECTOR('',#1283,1.);
#387=VECTOR('',#1286,1.);
#388=VECTOR('',#1287,1.);
#389=VECTOR('',#1288,1.);
#390=VECTOR('',#1289,1.);
#391=VECTOR('',#1292,1.);
#392=VECTOR('',#1293,1.);
#393=VECTOR('',#1294,1.);
#394=VECTOR('',#1297,1.);
#395=VECTOR('',#1298,1.);
#396=VECTOR('',#1299,1.);
#397=VECTOR('',#1302,1.);
#398=VECTOR('',#1303,1.);
#399=VECTOR('',#1304,1.);
#400=VECTOR('',#1305,1.);
#401=VECTOR('',#1306,1.);
#402=VECTOR('',#1309,1.);
#403=VECTOR('',#1310,1.);
#404=VECTOR('',#1311,1.);
#405=VECTOR('',#1314,1.);
#406=VECTOR('',#1317,1.);
#407=VECTOR('',#1320,1.);
#408=VECTOR('',#1321,1.);
#409=VECTOR('',#1322,1.);
#410=VECTOR('',#1323,1.);
#411=VECTOR('',#1326,1.);
#412=VECTOR('',#1327,1.);
#413=VECTOR('',#1328,1.);
#414=VECTOR('',#1329,1.);
#415=VECTOR('',#1332,1.);
#416=VECTOR('',#1335,1.);
#417=VECTOR('',#1342,1.125);
#418=VECTOR('',#1349,1.125);
#419=VERTEX_POINT('',#1358);
#420=VERTEX_POINT('',#1359);
#421=VERTEX_POINT('',#1361);
#422=VERTEX_POINT('',#1363);
#423=VERTEX_POINT('',#1365);
#424=VERTEX_POINT('',#1367);
#425=VERTEX_POINT('',#1369);
#426=VERTEX_POINT('',#1371);
#427=VERTEX_POINT('',#1373);
#428=VERTEX_POINT('',#1375);
#429=VERTEX_POINT('',#1377);
#430=VERTEX_POINT('',#1381);
#431=VERTEX_POINT('',#1383);
#432=VERTEX_POINT('',#1385);
#433=VERTEX_POINT('',#1387);
#434=VERTEX_POINT('',#1389);
#435=VERTEX_POINT('',#1391);
#436=VERTEX_POINT('',#1393);
#437=VERTEX_POINT('',#1395);
#438=VERTEX_POINT('',#1399);
#439=VERTEX_POINT('',#1402);
#440=VERTEX_POINT('',#1405);
#441=VERTEX_POINT('',#1409);
#442=VERTEX_POINT('',#1411);
#443=VERTEX_POINT('',#1413);
#444=VERTEX_POINT('',#1415);
#445=VERTEX_POINT('',#1417);
#446=VERTEX_POINT('',#1419);
#447=VERTEX_POINT('',#1421);
#448=VERTEX_POINT('',#1424);
#449=VERTEX_POINT('',#1426);
#450=VERTEX_POINT('',#1430);
#451=VERTEX_POINT('',#1431);
#452=VERTEX_POINT('',#1433);
#453=VERTEX_POINT('',#1435);
#454=VERTEX_POINT('',#1438);
#455=VERTEX_POINT('',#1440);
#456=VERTEX_POINT('',#1442);
#457=VERTEX_POINT('',#1444);
#458=VERTEX_POINT('',#1447);
#459=VERTEX_POINT('',#1451);
#460=VERTEX_POINT('',#1455);
#461=VERTEX_POINT('',#1457);
#462=VERTEX_POINT('',#1461);
#463=VERTEX_POINT('',#1464);
#464=VERTEX_POINT('',#1469);
#465=VERTEX_POINT('',#1473);
#466=VERTEX_POINT('',#1479);
#467=VERTEX_POINT('',#1482);
#468=VERTEX_POINT('',#1488);
#469=VERTEX_POINT('',#1491);
#470=VERTEX_POINT('',#1493);
#471=VERTEX_POINT('',#1499);
#472=VERTEX_POINT('',#1501);
#473=VERTEX_POINT('',#1505);
#474=VERTEX_POINT('',#1507);
#475=VERTEX_POINT('',#1511);
#476=VERTEX_POINT('',#1513);
#477=VERTEX_POINT('',#1517);
#478=VERTEX_POINT('',#1521);
#479=VERTEX_POINT('',#1524);
#480=VERTEX_POINT('',#1528);
#481=VERTEX_POINT('',#1531);
#482=VERTEX_POINT('',#1535);
#483=VERTEX_POINT('',#1538);
#484=VERTEX_POINT('',#1542);
#485=VERTEX_POINT('',#1553);
#486=VERTEX_POINT('',#1554);
#487=VERTEX_POINT('',#1556);
#488=VERTEX_POINT('',#1558);
#489=VERTEX_POINT('',#1562);
#490=VERTEX_POINT('',#1564);
#491=VERTEX_POINT('',#1566);
#492=VERTEX_POINT('',#1570);
#493=VERTEX_POINT('',#1572);
#494=VERTEX_POINT('',#1577);
#495=VERTEX_POINT('',#1581);
#496=VERTEX_POINT('',#1583);
#497=VERTEX_POINT('',#1585);
#498=VERTEX_POINT('',#1587);
#499=VERTEX_POINT('',#1591);
#500=VERTEX_POINT('',#1592);
#501=VERTEX_POINT('',#1601);
#502=VERTEX_POINT('',#1603);
#503=VERTEX_POINT('',#1608);
#504=VERTEX_POINT('',#1611);
#505=VERTEX_POINT('',#1620);
#506=VERTEX_POINT('',#1622);
#507=VERTEX_POINT('',#1626);
#508=VERTEX_POINT('',#1628);
#509=EDGE_CURVE('',#419,#420,#197,.T.);
#510=EDGE_CURVE('',#421,#419,#198,.T.);
#511=EDGE_CURVE('',#422,#421,#199,.T.);
#512=EDGE_CURVE('',#423,#422,#200,.T.);
#513=EDGE_CURVE('',#424,#423,#201,.T.);
#514=EDGE_CURVE('',#425,#424,#202,.T.);
#515=EDGE_CURVE('',#426,#425,#203,.T.);
#516=EDGE_CURVE('',#427,#426,#204,.T.);
#517=EDGE_CURVE('',#428,#427,#205,.T.);
#518=EDGE_CURVE('',#429,#428,#206,.T.);
#519=EDGE_CURVE('',#420,#429,#207,.T.);
#520=EDGE_CURVE('',#430,#423,#208,.T.);
#521=EDGE_CURVE('',#430,#431,#209,.T.);
#522=EDGE_CURVE('',#432,#431,#210,.T.);
#523=EDGE_CURVE('',#432,#433,#211,.T.);
#524=EDGE_CURVE('',#434,#433,#212,.T.);
#525=EDGE_CURVE('',#434,#435,#213,.T.);
#526=EDGE_CURVE('',#436,#435,#214,.T.);
#527=EDGE_CURVE('',#437,#436,#215,.T.);
#528=EDGE_CURVE('',#424,#437,#216,.T.);
#529=EDGE_CURVE('',#422,#438,#217,.T.);
#530=EDGE_CURVE('',#438,#430,#218,.T.);
#531=EDGE_CURVE('',#439,#439,#51,.T.);
#532=EDGE_CURVE('',#440,#421,#219,.T.);
#533=EDGE_CURVE('',#440,#438,#220,.T.);
#534=EDGE_CURVE('',#419,#441,#221,.T.);
#535=EDGE_CURVE('',#441,#442,#222,.T.);
#536=EDGE_CURVE('',#442,#443,#223,.T.);
#537=EDGE_CURVE('',#443,#444,#224,.T.);
#538=EDGE_CURVE('',#444,#445,#225,.T.);
#539=EDGE_CURVE('',#445,#446,#226,.T.);
#540=EDGE_CURVE('',#446,#447,#227,.T.);
#541=EDGE_CURVE('',#447,#436,#228,.T.);
#542=EDGE_CURVE('',#435,#448,#229,.T.);
#543=EDGE_CURVE('',#448,#449,#230,.T.);
#544=EDGE_CURVE('',#449,#432,#231,.T.);
#545=EDGE_CURVE('',#431,#440,#232,.T.);
#546=EDGE_CURVE('',#450,#451,#233,.T.);
#547=EDGE_CURVE('',#451,#452,#234,.T.);
#548=EDGE_CURVE('',#452,#453,#235,.T.);
#549=EDGE_CURVE('',#453,#450,#236,.T.);
#550=EDGE_CURVE('',#454,#454,#52,.T.);
#551=EDGE_CURVE('',#455,#455,#53,.T.);
#552=EDGE_CURVE('',#456,#456,#54,.T.);
#553=EDGE_CURVE('',#457,#457,#55,.T.);
#554=EDGE_CURVE('',#458,#420,#237,.T.);
#555=EDGE_CURVE('',#458,#441,#238,.T.);
#556=EDGE_CURVE('',#459,#449,#239,.T.);
#557=EDGE_CURVE('',#433,#459,#240,.T.);
#558=EDGE_CURVE('',#444,#460,#241,.T.);
#559=EDGE_CURVE('',#461,#443,#242,.T.);
#560=EDGE_CURVE('',#460,#461,#243,.T.);
#561=EDGE_CURVE('',#459,#462,#244,.T.);
#562=EDGE_CURVE('',#462,#434,#245,.T.);
#563=EDGE_CURVE('',#463,#463,#56,.T.);
#564=EDGE_CURVE('',#448,#462,#246,.T.);
#565=EDGE_CURVE('',#464,#460,#247,.T.);
#566=EDGE_CURVE('',#464,#445,#248,.T.);
#567=EDGE_CURVE('',#465,#464,#249,.T.);
#568=EDGE_CURVE('',#446,#465,#250,.T.);
#569=EDGE_CURVE('',#461,#465,#251,.T.);
#570=EDGE_CURVE('',#466,#466,#57,.T.);
#571=EDGE_CURVE('',#467,#458,#252,.T.);
#572=EDGE_CURVE('',#442,#467,#253,.T.);
#573=EDGE_CURVE('',#429,#467,#254,.T.);
#574=EDGE_CURVE('',#468,#468,#58,.T.);
#575=EDGE_CURVE('',#427,#469,#255,.T.);
#576=EDGE_CURVE('',#470,#469,#256,.T.);
#577=EDGE_CURVE('',#470,#428,#257,.T.);
#578=EDGE_CURVE('',#447,#470,#258,.T.);
#579=EDGE_CURVE('',#469,#471,#259,.T.);
#580=EDGE_CURVE('',#471,#472,#260,.T.);
#581=EDGE_CURVE('',#437,#472,#261,.T.);
#582=EDGE_CURVE('',#473,#473,#59,.T.);
#583=EDGE_CURVE('',#473,#474,#262,.T.);
#584=EDGE_CURVE('',#474,#474,#60,.T.);
#585=EDGE_CURVE('',#475,#475,#61,.T.);
#586=EDGE_CURVE('',#475,#476,#263,.T.);
#587=EDGE_CURVE('',#476,#476,#62,.T.);
#588=EDGE_CURVE('',#457,#477,#264,.T.);
#589=EDGE_CURVE('',#477,#477,#63,.T.);
#590=EDGE_CURVE('',#478,#478,#64,.T.);
#591=EDGE_CURVE('',#456,#479,#265,.T.);
#592=EDGE_CURVE('',#479,#479,#65,.T.);
#593=EDGE_CURVE('',#480,#480,#66,.T.);
#594=EDGE_CURVE('',#455,#481,#266,.T.);
#595=EDGE_CURVE('',#481,#481,#67,.T.);
#596=EDGE_CURVE('',#482,#482,#68,.T.);
#597=EDGE_CURVE('',#454,#483,#267,.T.);
#598=EDGE_CURVE('',#483,#483,#69,.T.);
#599=EDGE_CURVE('',#484,#484,#70,.T.);
#600=EDGE_CURVE('',#463,#480,#268,.T.);
#601=EDGE_CURVE('',#468,#482,#269,.T.);
#602=EDGE_CURVE('',#466,#484,#270,.T.);
#603=EDGE_CURVE('',#439,#478,#271,.T.);
#604=EDGE_CURVE('',#485,#486,#272,.T.);
#605=EDGE_CURVE('',#487,#485,#273,.T.);
#606=EDGE_CURVE('',#488,#487,#274,.T.);
#607=EDGE_CURVE('',#488,#486,#275,.T.);
#608=EDGE_CURVE('',#486,#489,#276,.T.);
#609=EDGE_CURVE('',#490,#488,#277,.T.);
#610=EDGE_CURVE('',#491,#490,#278,.T.);
#611=EDGE_CURVE('',#491,#489,#279,.T.);
#612=EDGE_CURVE('',#489,#492,#280,.T.);
#613=EDGE_CURVE('',#493,#491,#281,.T.);
#614=EDGE_CURVE('',#493,#492,#282,.T.);
#615=EDGE_CURVE('',#492,#485,#283,.T.);
#616=EDGE_CURVE('',#494,#493,#284,.T.);
#617=EDGE_CURVE('',#487,#494,#285,.T.);
#618=EDGE_CURVE('',#495,#494,#286,.T.);
#619=EDGE_CURVE('',#496,#495,#287,.T.);
#620=EDGE_CURVE('',#497,#496,#288,.T.);
#621=EDGE_CURVE('',#498,#497,#289,.T.);
#622=EDGE_CURVE('',#490,#498,#290,.T.);
#623=EDGE_CURVE('',#499,#500,#291,.T.);
#624=EDGE_CURVE('',#500,#452,#292,.T.);
#625=EDGE_CURVE('',#499,#451,#293,.T.);
#626=EDGE_CURVE('',#471,#426,#294,.T.);
#627=EDGE_CURVE('',#472,#425,#295,.T.);
#628=EDGE_CURVE('',#501,#450,#296,.T.);
#629=EDGE_CURVE('',#502,#501,#297,.T.);
#630=EDGE_CURVE('',#502,#498,#298,.T.);
#631=EDGE_CURVE('',#497,#499,#299,.T.);
#632=EDGE_CURVE('',#503,#453,#300,.T.);
#633=EDGE_CURVE('',#500,#496,#301,.T.);
#634=EDGE_CURVE('',#495,#504,#302,.T.);
#635=EDGE_CURVE('',#503,#504,#303,.T.);
#636=EDGE_CURVE('',#502,#504,#304,.T.);
#637=EDGE_CURVE('',#503,#501,#305,.T.);
#638=EDGE_CURVE('',#505,#505,#71,.T.);
#639=EDGE_CURVE('',#505,#506,#306,.T.);
#640=EDGE_CURVE('',#506,#506,#15,.T.);
#641=EDGE_CURVE('',#507,#507,#72,.T.);
#642=EDGE_CURVE('',#507,#508,#307,.T.);
#643=EDGE_CURVE('',#508,#508,#16,.T.);
#644=ORIENTED_EDGE('',*,*,#509,.F.);
#645=ORIENTED_EDGE('',*,*,#510,.F.);
#646=ORIENTED_EDGE('',*,*,#511,.F.);
#647=ORIENTED_EDGE('',*,*,#512,.F.);
#648=ORIENTED_EDGE('',*,*,#513,.F.);
#649=ORIENTED_EDGE('',*,*,#514,.F.);
#650=ORIENTED_EDGE('',*,*,#515,.F.);
#651=ORIENTED_EDGE('',*,*,#516,.F.);
#652=ORIENTED_EDGE('',*,*,#517,.F.);
#653=ORIENTED_EDGE('',*,*,#518,.F.);
#654=ORIENTED_EDGE('',*,*,#519,.F.);
#655=ORIENTED_EDGE('',*,*,#513,.T.);
#656=ORIENTED_EDGE('',*,*,#520,.F.);
#657=ORIENTED_EDGE('',*,*,#521,.T.);
#658=ORIENTED_EDGE('',*,*,#522,.F.);
#659=ORIENTED_EDGE('',*,*,#523,.T.);
#660=ORIENTED_EDGE('',*,*,#524,.F.);
#661=ORIENTED_EDGE('',*,*,#525,.T.);
#662=ORIENTED_EDGE('',*,*,#526,.F.);
#663=ORIENTED_EDGE('',*,*,#527,.F.);
#664=ORIENTED_EDGE('',*,*,#528,.F.);
#665=ORIENTED_EDGE('',*,*,#512,.T.);
#666=ORIENTED_EDGE('',*,*,#529,.T.);
#667=ORIENTED_EDGE('',*,*,#530,.T.);
#668=ORIENTED_EDGE('',*,*,#520,.T.);
#669=ORIENTED_EDGE('',*,*,#531,.T.);
#670=ORIENTED_EDGE('',*,*,#511,.T.);
#671=ORIENTED_EDGE('',*,*,#532,.F.);
#672=ORIENTED_EDGE('',*,*,#533,.T.);
#673=ORIENTED_EDGE('',*,*,#529,.F.);
#674=ORIENTED_EDGE('',*,*,#510,.T.);
#675=ORIENTED_EDGE('',*,*,#534,.T.);
#676=ORIENTED_EDGE('',*,*,#535,.T.);
#677=ORIENTED_EDGE('',*,*,#536,.T.);
#678=ORIENTED_EDGE('',*,*,#537,.T.);
#679=ORIENTED_EDGE('',*,*,#538,.T.);
#680=ORIENTED_EDGE('',*,*,#539,.T.);
#681=ORIENTED_EDGE('',*,*,#540,.T.);
#682=ORIENTED_EDGE('',*,*,#541,.T.);
#683=ORIENTED_EDGE('',*,*,#526,.T.);
#684=ORIENTED_EDGE('',*,*,#542,.T.);
#685=ORIENTED_EDGE('',*,*,#543,.T.);
#686=ORIENTED_EDGE('',*,*,#544,.T.);
#687=ORIENTED_EDGE('',*,*,#522,.T.);
#688=ORIENTED_EDGE('',*,*,#545,.T.);
#689=ORIENTED_EDGE('',*,*,#532,.T.);
#690=ORIENTED_EDGE('',*,*,#546,.T.);
#691=ORIENTED_EDGE('',*,*,#547,.T.);
#692=ORIENTED_EDGE('',*,*,#548,.T.);
#693=ORIENTED_EDGE('',*,*,#549,.T.);
#694=ORIENTED_EDGE('',*,*,#550,.T.);
#695=ORIENTED_EDGE('',*,*,#551,.T.);
#696=ORIENTED_EDGE('',*,*,#552,.T.);
#697=ORIENTED_EDGE('',*,*,#553,.T.);
#698=ORIENTED_EDGE('',*,*,#509,.T.);
#699=ORIENTED_EDGE('',*,*,#554,.F.);
#700=ORIENTED_EDGE('',*,*,#555,.T.);
#701=ORIENTED_EDGE('',*,*,#534,.F.);
#702=ORIENTED_EDGE('',*,*,#556,.F.);
#703=ORIENTED_EDGE('',*,*,#557,.F.);
#704=ORIENTED_EDGE('',*,*,#523,.F.);
#705=ORIENTED_EDGE('',*,*,#544,.F.);
#706=ORIENTED_EDGE('',*,*,#558,.F.);
#707=ORIENTED_EDGE('',*,*,#537,.F.);
#708=ORIENTED_EDGE('',*,*,#559,.F.);
#709=ORIENTED_EDGE('',*,*,#560,.F.);
#710=ORIENTED_EDGE('',*,*,#557,.T.);
#711=ORIENTED_EDGE('',*,*,#561,.T.);
#712=ORIENTED_EDGE('',*,*,#562,.T.);
#713=ORIENTED_EDGE('',*,*,#524,.T.);
#714=ORIENTED_EDGE('',*,*,#563,.T.);
#715=ORIENTED_EDGE('',*,*,#556,.T.);
#716=ORIENTED_EDGE('',*,*,#543,.F.);
#717=ORIENTED_EDGE('',*,*,#564,.T.);
#718=ORIENTED_EDGE('',*,*,#561,.F.);
#719=ORIENTED_EDGE('',*,*,#558,.T.);
#720=ORIENTED_EDGE('',*,*,#565,.F.);
#721=ORIENTED_EDGE('',*,*,#566,.T.);
#722=ORIENTED_EDGE('',*,*,#538,.F.);
#723=ORIENTED_EDGE('',*,*,#566,.F.);
#724=ORIENTED_EDGE('',*,*,#567,.F.);
#725=ORIENTED_EDGE('',*,*,#568,.F.);
#726=ORIENTED_EDGE('',*,*,#539,.F.);
#727=ORIENTED_EDGE('',*,*,#564,.F.);
#728=ORIENTED_EDGE('',*,*,#542,.F.);
#729=ORIENTED_EDGE('',*,*,#525,.F.);
#730=ORIENTED_EDGE('',*,*,#562,.F.);
#731=ORIENTED_EDGE('',*,*,#560,.T.);
#732=ORIENTED_EDGE('',*,*,#569,.T.);
#733=ORIENTED_EDGE('',*,*,#567,.T.);
#734=ORIENTED_EDGE('',*,*,#565,.T.);
#735=ORIENTED_EDGE('',*,*,#570,.T.);
#736=ORIENTED_EDGE('',*,*,#555,.F.);
#737=ORIENTED_EDGE('',*,*,#571,.F.);
#738=ORIENTED_EDGE('',*,*,#572,.F.);
#739=ORIENTED_EDGE('',*,*,#535,.F.);
#740=ORIENTED_EDGE('',*,*,#533,.F.);
#741=ORIENTED_EDGE('',*,*,#545,.F.);
#742=ORIENTED_EDGE('',*,*,#521,.F.);
#743=ORIENTED_EDGE('',*,*,#530,.F.);
#744=ORIENTED_EDGE('',*,*,#519,.T.);
#745=ORIENTED_EDGE('',*,*,#573,.T.);
#746=ORIENTED_EDGE('',*,*,#571,.T.);
#747=ORIENTED_EDGE('',*,*,#554,.T.);
#748=ORIENTED_EDGE('',*,*,#574,.T.);
#749=ORIENTED_EDGE('',*,*,#517,.T.);
#750=ORIENTED_EDGE('',*,*,#575,.T.);
#751=ORIENTED_EDGE('',*,*,#576,.F.);
#752=ORIENTED_EDGE('',*,*,#577,.T.);
#753=ORIENTED_EDGE('',*,*,#518,.T.);
#754=ORIENTED_EDGE('',*,*,#577,.F.);
#755=ORIENTED_EDGE('',*,*,#578,.F.);
#756=ORIENTED_EDGE('',*,*,#540,.F.);
#757=ORIENTED_EDGE('',*,*,#568,.T.);
#758=ORIENTED_EDGE('',*,*,#569,.F.);
#759=ORIENTED_EDGE('',*,*,#559,.T.);
#760=ORIENTED_EDGE('',*,*,#536,.F.);
#761=ORIENTED_EDGE('',*,*,#572,.T.);
#762=ORIENTED_EDGE('',*,*,#573,.F.);
#763=ORIENTED_EDGE('',*,*,#527,.T.);
#764=ORIENTED_EDGE('',*,*,#541,.F.);
#765=ORIENTED_EDGE('',*,*,#578,.T.);
#766=ORIENTED_EDGE('',*,*,#576,.T.);
#767=ORIENTED_EDGE('',*,*,#579,.T.);
#768=ORIENTED_EDGE('',*,*,#580,.T.);
#769=ORIENTED_EDGE('',*,*,#581,.F.);
#770=ORIENTED_EDGE('',*,*,#582,.F.);
#771=ORIENTED_EDGE('',*,*,#583,.T.);
#772=ORIENTED_EDGE('',*,*,#584,.F.);
#773=ORIENTED_EDGE('',*,*,#583,.F.);
#774=ORIENTED_EDGE('',*,*,#585,.F.);
#775=ORIENTED_EDGE('',*,*,#586,.T.);
#776=ORIENTED_EDGE('',*,*,#587,.F.);
#777=ORIENTED_EDGE('',*,*,#586,.F.);
#778=ORIENTED_EDGE('',*,*,#553,.F.);
#779=ORIENTED_EDGE('',*,*,#588,.T.);
#780=ORIENTED_EDGE('',*,*,#589,.T.);
#781=ORIENTED_EDGE('',*,*,#588,.F.);
#782=ORIENTED_EDGE('',*,*,#589,.F.);
#783=ORIENTED_EDGE('',*,*,#590,.F.);
#784=ORIENTED_EDGE('',*,*,#552,.F.);
#785=ORIENTED_EDGE('',*,*,#591,.T.);
#786=ORIENTED_EDGE('',*,*,#592,.T.);
#787=ORIENTED_EDGE('',*,*,#591,.F.);
#788=ORIENTED_EDGE('',*,*,#592,.F.);
#789=ORIENTED_EDGE('',*,*,#593,.F.);
#790=ORIENTED_EDGE('',*,*,#551,.F.);
#791=ORIENTED_EDGE('',*,*,#594,.T.);
#792=ORIENTED_EDGE('',*,*,#595,.T.);
#793=ORIENTED_EDGE('',*,*,#594,.F.);
#794=ORIENTED_EDGE('',*,*,#595,.F.);
#795=ORIENTED_EDGE('',*,*,#596,.F.);
#796=ORIENTED_EDGE('',*,*,#550,.F.);
#797=ORIENTED_EDGE('',*,*,#597,.T.);
#798=ORIENTED_EDGE('',*,*,#598,.T.);
#799=ORIENTED_EDGE('',*,*,#597,.F.);
#800=ORIENTED_EDGE('',*,*,#598,.F.);
#801=ORIENTED_EDGE('',*,*,#599,.F.);
#802=ORIENTED_EDGE('',*,*,#563,.F.);
#803=ORIENTED_EDGE('',*,*,#600,.T.);
#804=ORIENTED_EDGE('',*,*,#593,.T.);
#805=ORIENTED_EDGE('',*,*,#600,.F.);
#806=ORIENTED_EDGE('',*,*,#574,.F.);
#807=ORIENTED_EDGE('',*,*,#601,.T.);
#808=ORIENTED_EDGE('',*,*,#596,.T.);
#809=ORIENTED_EDGE('',*,*,#601,.F.);
#810=ORIENTED_EDGE('',*,*,#570,.F.);
#811=ORIENTED_EDGE('',*,*,#602,.T.);
#812=ORIENTED_EDGE('',*,*,#599,.T.);
#813=ORIENTED_EDGE('',*,*,#602,.F.);
#814=ORIENTED_EDGE('',*,*,#531,.F.);
#815=ORIENTED_EDGE('',*,*,#603,.T.);
#816=ORIENTED_EDGE('',*,*,#590,.T.);
#817=ORIENTED_EDGE('',*,*,#603,.F.);
#818=ORIENTED_EDGE('',*,*,#604,.F.);
#819=ORIENTED_EDGE('',*,*,#605,.F.);
#820=ORIENTED_EDGE('',*,*,#606,.F.);
#821=ORIENTED_EDGE('',*,*,#607,.T.);
#822=ORIENTED_EDGE('',*,*,#608,.F.);
#823=ORIENTED_EDGE('',*,*,#607,.F.);
#824=ORIENTED_EDGE('',*,*,#609,.F.);
#825=ORIENTED_EDGE('',*,*,#610,.F.);
#826=ORIENTED_EDGE('',*,*,#611,.T.);
#827=ORIENTED_EDGE('',*,*,#612,.F.);
#828=ORIENTED_EDGE('',*,*,#611,.F.);
#829=ORIENTED_EDGE('',*,*,#613,.F.);
#830=ORIENTED_EDGE('',*,*,#614,.T.);
#831=ORIENTED_EDGE('',*,*,#615,.F.);
#832=ORIENTED_EDGE('',*,*,#614,.F.);
#833=ORIENTED_EDGE('',*,*,#616,.F.);
#834=ORIENTED_EDGE('',*,*,#617,.F.);
#835=ORIENTED_EDGE('',*,*,#605,.T.);
#836=ORIENTED_EDGE('',*,*,#609,.T.);
#837=ORIENTED_EDGE('',*,*,#606,.T.);
#838=ORIENTED_EDGE('',*,*,#617,.T.);
#839=ORIENTED_EDGE('',*,*,#618,.F.);
#840=ORIENTED_EDGE('',*,*,#619,.F.);
#841=ORIENTED_EDGE('',*,*,#620,.F.);
#842=ORIENTED_EDGE('',*,*,#621,.F.);
#843=ORIENTED_EDGE('',*,*,#622,.F.);
#844=ORIENTED_EDGE('',*,*,#584,.T.);
#845=ORIENTED_EDGE('',*,*,#587,.T.);
#846=ORIENTED_EDGE('',*,*,#623,.T.);
#847=ORIENTED_EDGE('',*,*,#624,.T.);
#848=ORIENTED_EDGE('',*,*,#547,.F.);
#849=ORIENTED_EDGE('',*,*,#625,.F.);
#850=ORIENTED_EDGE('',*,*,#516,.T.);
#851=ORIENTED_EDGE('',*,*,#626,.F.);
#852=ORIENTED_EDGE('',*,*,#579,.F.);
#853=ORIENTED_EDGE('',*,*,#575,.F.);
#854=ORIENTED_EDGE('',*,*,#514,.T.);
#855=ORIENTED_EDGE('',*,*,#528,.T.);
#856=ORIENTED_EDGE('',*,*,#581,.T.);
#857=ORIENTED_EDGE('',*,*,#627,.T.);
#858=ORIENTED_EDGE('',*,*,#582,.T.);
#859=ORIENTED_EDGE('',*,*,#585,.T.);
#860=ORIENTED_EDGE('',*,*,#612,.T.);
#861=ORIENTED_EDGE('',*,*,#615,.T.);
#862=ORIENTED_EDGE('',*,*,#604,.T.);
#863=ORIENTED_EDGE('',*,*,#608,.T.);
#864=ORIENTED_EDGE('',*,*,#628,.F.);
#865=ORIENTED_EDGE('',*,*,#629,.F.);
#866=ORIENTED_EDGE('',*,*,#630,.T.);
#867=ORIENTED_EDGE('',*,*,#621,.T.);
#868=ORIENTED_EDGE('',*,*,#631,.T.);
#869=ORIENTED_EDGE('',*,*,#625,.T.);
#870=ORIENTED_EDGE('',*,*,#546,.F.);
#871=ORIENTED_EDGE('',*,*,#632,.T.);
#872=ORIENTED_EDGE('',*,*,#548,.F.);
#873=ORIENTED_EDGE('',*,*,#624,.F.);
#874=ORIENTED_EDGE('',*,*,#633,.T.);
#875=ORIENTED_EDGE('',*,*,#619,.T.);
#876=ORIENTED_EDGE('',*,*,#634,.T.);
#877=ORIENTED_EDGE('',*,*,#635,.F.);
#878=ORIENTED_EDGE('',*,*,#610,.T.);
#879=ORIENTED_EDGE('',*,*,#622,.T.);
#880=ORIENTED_EDGE('',*,*,#630,.F.);
#881=ORIENTED_EDGE('',*,*,#636,.T.);
#882=ORIENTED_EDGE('',*,*,#634,.F.);
#883=ORIENTED_EDGE('',*,*,#618,.T.);
#884=ORIENTED_EDGE('',*,*,#616,.T.);
#885=ORIENTED_EDGE('',*,*,#613,.T.);
#886=ORIENTED_EDGE('',*,*,#636,.F.);
#887=ORIENTED_EDGE('',*,*,#629,.T.);
#888=ORIENTED_EDGE('',*,*,#637,.F.);
#889=ORIENTED_EDGE('',*,*,#635,.T.);
#890=ORIENTED_EDGE('',*,*,#637,.T.);
#891=ORIENTED_EDGE('',*,*,#628,.T.);
#892=ORIENTED_EDGE('',*,*,#549,.F.);
#893=ORIENTED_EDGE('',*,*,#632,.F.);
#894=ORIENTED_EDGE('',*,*,#638,.F.);
#895=ORIENTED_EDGE('',*,*,#639,.T.);
#896=ORIENTED_EDGE('',*,*,#640,.F.);
#897=ORIENTED_EDGE('',*,*,#639,.F.);
#898=ORIENTED_EDGE('',*,*,#641,.F.);
#899=ORIENTED_EDGE('',*,*,#642,.T.);
#900=ORIENTED_EDGE('',*,*,#643,.F.);
#901=ORIENTED_EDGE('',*,*,#642,.F.);
#902=ORIENTED_EDGE('',*,*,#515,.T.);
#903=ORIENTED_EDGE('',*,*,#627,.F.);
#904=ORIENTED_EDGE('',*,*,#580,.F.);
#905=ORIENTED_EDGE('',*,*,#626,.T.);
#906=ORIENTED_EDGE('',*,*,#640,.T.);
#907=ORIENTED_EDGE('',*,*,#643,.T.);
#908=ORIENTED_EDGE('',*,*,#631,.F.);
#909=ORIENTED_EDGE('',*,*,#620,.T.);
#910=ORIENTED_EDGE('',*,*,#633,.F.);
#911=ORIENTED_EDGE('',*,*,#623,.F.);
#912=ORIENTED_EDGE('',*,*,#638,.T.);
#913=ORIENTED_EDGE('',*,*,#641,.T.);
#914=PLANE('',#1018);
#915=PLANE('',#1019);
#916=PLANE('',#1020);
#917=PLANE('',#1022);
#918=PLANE('',#1023);
#919=PLANE('',#1028);
#920=PLANE('',#1029);
#921=PLANE('',#1030);
#922=PLANE('',#1031);
#923=PLANE('',#1033);
#924=PLANE('',#1034);
#925=PLANE('',#1035);
#926=PLANE('',#1036);
#927=PLANE('',#1037);
#928=PLANE('',#1039);
#929=PLANE('',#1040);
#930=PLANE('',#1041);
#931=PLANE('',#1043);
#932=PLANE('',#1044);
#933=PLANE('',#1045);
#934=PLANE('',#1054);
#935=PLANE('',#1058);
#936=PLANE('',#1062);
#937=PLANE('',#1066);
#938=PLANE('',#1072);
#939=PLANE('',#1073);
#940=PLANE('',#1074);
#941=PLANE('',#1075);
#942=PLANE('',#1076);
#943=PLANE('',#1077);
#944=PLANE('',#1078);
#945=PLANE('',#1079);
#946=PLANE('',#1080);
#947=PLANE('',#1081);
#948=PLANE('',#1082);
#949=PLANE('',#1083);
#950=PLANE('',#1084);
#951=PLANE('',#1091);
#952=PLANE('',#1092);
#953=ADVANCED_FACE('',(#73),#914,.F.);
#954=ADVANCED_FACE('',(#74),#915,.F.);
#955=ADVANCED_FACE('',(#75,#29),#916,.F.);
#956=ADVANCED_FACE('',(#76),#917,.F.);
#957=ADVANCED_FACE('',(#77,#30,#31,#32,#33,#34),#918,.T.);
#958=ADVANCED_FACE('',(#78),#919,.F.);
#959=ADVANCED_FACE('',(#79),#920,.F.);
#960=ADVANCED_FACE('',(#80),#921,.F.);
#961=ADVANCED_FACE('',(#81,#35),#922,.F.);
#962=ADVANCED_FACE('',(#82),#923,.F.);
#963=ADVANCED_FACE('',(#83),#924,.F.);
#964=ADVANCED_FACE('',(#84),#925,.F.);
#965=ADVANCED_FACE('',(#85),#926,.F.);
#966=ADVANCED_FACE('',(#86,#36),#927,.F.);
#967=ADVANCED_FACE('',(#87),#928,.F.);
#968=ADVANCED_FACE('',(#88),#929,.F.);
#969=ADVANCED_FACE('',(#89,#37),#930,.F.);
#970=ADVANCED_FACE('',(#90),#931,.F.);
#971=ADVANCED_FACE('',(#91),#932,.F.);
#972=ADVANCED_FACE('',(#92),#933,.T.);
#973=ADVANCED_FACE('',(#93),#17,.F.);
#974=ADVANCED_FACE('',(#94),#18,.F.);
#975=ADVANCED_FACE('',(#95),#19,.F.);
#976=ADVANCED_FACE('',(#96,#38),#934,.T.);
#977=ADVANCED_FACE('',(#97),#20,.F.);
#978=ADVANCED_FACE('',(#98,#39),#935,.T.);
#979=ADVANCED_FACE('',(#99),#21,.F.);
#980=ADVANCED_FACE('',(#100,#40),#936,.T.);
#981=ADVANCED_FACE('',(#101),#22,.F.);
#982=ADVANCED_FACE('',(#102,#41),#937,.T.);
#983=ADVANCED_FACE('',(#103),#23,.F.);
#984=ADVANCED_FACE('',(#104),#24,.F.);
#985=ADVANCED_FACE('',(#105),#25,.F.);
#986=ADVANCED_FACE('',(#106),#26,.F.);
#987=ADVANCED_FACE('',(#107),#938,.F.);
#988=ADVANCED_FACE('',(#108),#939,.F.);
#989=ADVANCED_FACE('',(#109),#940,.F.);
#990=ADVANCED_FACE('',(#110),#941,.F.);
#991=ADVANCED_FACE('',(#111,#42,#43),#942,.F.);
#992=ADVANCED_FACE('',(#112),#943,.T.);
#993=ADVANCED_FACE('',(#113),#944,.F.);
#994=ADVANCED_FACE('',(#114,#44,#45,#46),#945,.F.);
#995=ADVANCED_FACE('',(#115),#946,.T.);
#996=ADVANCED_FACE('',(#116),#947,.T.);
#997=ADVANCED_FACE('',(#117),#948,.F.);
#998=ADVANCED_FACE('',(#118),#949,.T.);
#999=ADVANCED_FACE('',(#119),#950,.T.);
#1000=ADVANCED_FACE('',(#120),#27,.F.);
#1001=ADVANCED_FACE('',(#121),#28,.F.);
#1002=ADVANCED_FACE('',(#122,#47,#48),#951,.F.);
#1003=ADVANCED_FACE('',(#123,#49,#50),#952,.F.);
#1004=CLOSED_SHELL('',(#953,#954,#955,#956,#957,#958,#959,#960,#961,#962,
#963,#964,#965,#966,#967,#968,#969,#970,#971,#972,#973,#974,#975,#976,#977,
#978,#979,#980,#981,#982,#983,#984,#985,#986,#987,#988,#989,#990,#991,#992,
#993,#994,#995,#996,#997,#998,#999,#1000,#1001,#1002,#1003));
#1005=DERIVED_UNIT_ELEMENT(#1007,1.);
#1006=DERIVED_UNIT_ELEMENT(#1638,-3.);
#1007=(
MASS_UNIT()
NAMED_UNIT(*)
SI_UNIT(.KILO.,.GRAM.)
);
#1008=DERIVED_UNIT((#1005,#1006));
#1009=MEASURE_REPRESENTATION_ITEM('density measure',
POSITIVE_RATIO_MEASURE(1060.),#1008);
#1010=PROPERTY_DEFINITION_REPRESENTATION(#1015,#1012);
#1011=PROPERTY_DEFINITION_REPRESENTATION(#1016,#1013);
#1012=REPRESENTATION('material name',(#1014),#1635);
#1013=REPRESENTATION('density',(#1009),#1635);
#1014=DESCRIPTIVE_REPRESENTATION_ITEM('ABS \X2\D50CB77CC2A4D2F1\X0\',
'ABS \X2\D50CB77CC2A4D2F1\X0\');
#1015=PROPERTY_DEFINITION('material property','material name',#1645);
#1016=PROPERTY_DEFINITION('material property','density of part',#1645);
#1017=AXIS2_PLACEMENT_3D('',#1356,#1093,#1094);
#1018=AXIS2_PLACEMENT_3D('',#1357,#1095,#1096);
#1019=AXIS2_PLACEMENT_3D('',#1380,#1108,#1109);
#1020=AXIS2_PLACEMENT_3D('',#1398,#1119,#1120);
#1021=AXIS2_PLACEMENT_3D('',#1403,#1123,#1124);
#1022=AXIS2_PLACEMENT_3D('',#1404,#1125,#1126);
#1023=AXIS2_PLACEMENT_3D('',#1408,#1129,#1130);
#1024=AXIS2_PLACEMENT_3D('',#1439,#1147,#1148);
#1025=AXIS2_PLACEMENT_3D('',#1441,#1149,#1150);
#1026=AXIS2_PLACEMENT_3D('',#1443,#1151,#1152);
#1027=AXIS2_PLACEMENT_3D('',#1445,#1153,#1154);
#1028=AXIS2_PLACEMENT_3D('',#1446,#1155,#1156);
#1029=AXIS2_PLACEMENT_3D('',#1450,#1159,#1160);
#1030=AXIS2_PLACEMENT_3D('',#1454,#1163,#1164);
#1031=AXIS2_PLACEMENT_3D('',#1460,#1168,#1169);
#1032=AXIS2_PLACEMENT_3D('',#1465,#1172,#1173);
#1033=AXIS2_PLACEMENT_3D('',#1466,#1174,#1175);
#1034=AXIS2_PLACEMENT_3D('',#1468,#1177,#1178);
#1035=AXIS2_PLACEMENT_3D('',#1472,#1181,#1182);
#1036=AXIS2_PLACEMENT_3D('',#1476,#1185,#1186);
#1037=AXIS2_PLACEMENT_3D('',#1477,#1187,#1188);
#1038=AXIS2_PLACEMENT_3D('',#1480,#1190,#1191);
#1039=AXIS2_PLACEMENT_3D('',#1481,#1192,#1193);
#1040=AXIS2_PLACEMENT_3D('',#1485,#1196,#1197);
#1041=AXIS2_PLACEMENT_3D('',#1486,#1198,#1199);
#1042=AXIS2_PLACEMENT_3D('',#1489,#1201,#1202);
#1043=AXIS2_PLACEMENT_3D('',#1490,#1203,#1204);
#1044=AXIS2_PLACEMENT_3D('',#1496,#1208,#1209);
#1045=AXIS2_PLACEMENT_3D('',#1498,#1211,#1212);
#1046=AXIS2_PLACEMENT_3D('',#1504,#1216,#1217);
#1047=AXIS2_PLACEMENT_3D('',#1506,#1218,#1219);
#1048=AXIS2_PLACEMENT_3D('',#1509,#1221,#1222);
#1049=AXIS2_PLACEMENT_3D('',#1510,#1223,#1224);
#1050=AXIS2_PLACEMENT_3D('',#1512,#1225,#1226);
#1051=AXIS2_PLACEMENT_3D('',#1515,#1228,#1229);
#1052=AXIS2_PLACEMENT_3D('',#1516,#1230,#1231);
#1053=AXIS2_PLACEMENT_3D('',#1519,#1233,#1234);
#1054=AXIS2_PLACEMENT_3D('',#1520,#1235,#1236);
#1055=AXIS2_PLACEMENT_3D('',#1522,#1237,#1238);
#1056=AXIS2_PLACEMENT_3D('',#1523,#1239,#1240);
#1057=AXIS2_PLACEMENT_3D('',#1526,#1242,#1243);
#1058=AXIS2_PLACEMENT_3D('',#1527,#1244,#1245);
#1059=AXIS2_PLACEMENT_3D('',#1529,#1246,#1247);
#1060=AXIS2_PLACEMENT_3D('',#1530,#1248,#1249);
#1061=AXIS2_PLACEMENT_3D('',#1533,#1251,#1252);
#1062=AXIS2_PLACEMENT_3D('',#1534,#1253,#1254);
#1063=AXIS2_PLACEMENT_3D('',#1536,#1255,#1256);
#1064=AXIS2_PLACEMENT_3D('',#1537,#1257,#1258);
#1065=AXIS2_PLACEMENT_3D('',#1540,#1260,#1261);
#1066=AXIS2_PLACEMENT_3D('',#1541,#1262,#1263);
#1067=AXIS2_PLACEMENT_3D('',#1543,#1264,#1265);
#1068=AXIS2_PLACEMENT_3D('',#1544,#1266,#1267);
#1069=AXIS2_PLACEMENT_3D('',#1546,#1269,#1270);
#1070=AXIS2_PLACEMENT_3D('',#1548,#1272,#1273);
#1071=AXIS2_PLACEMENT_3D('',#1550,#1275,#1276);
#1072=AXIS2_PLACEMENT_3D('',#1552,#1278,#1279);
#1073=AXIS2_PLACEMENT_3D('',#1561,#1284,#1285);
#1074=AXIS2_PLACEMENT_3D('',#1569,#1290,#1291);
#1075=AXIS2_PLACEMENT_3D('',#1575,#1295,#1296);
#1076=AXIS2_PLACEMENT_3D('',#1580,#1300,#1301);
#1077=AXIS2_PLACEMENT_3D('',#1590,#1307,#1308);
#1078=AXIS2_PLACEMENT_3D('',#1596,#1312,#1313);
#1079=AXIS2_PLACEMENT_3D('',#1598,#1315,#1316);
#1080=AXIS2_PLACEMENT_3D('',#1600,#1318,#1319);
#1081=AXIS2_PLACEMENT_3D('',#1607,#1324,#1325);
#1082=AXIS2_PLACEMENT_3D('',#1614,#1330,#1331);
#1083=AXIS2_PLACEMENT_3D('',#1616,#1333,#1334);
#1084=AXIS2_PLACEMENT_3D('',#1618,#1336,#1337);
#1085=AXIS2_PLACEMENT_3D('',#1619,#1338,#1339);
#1086=AXIS2_PLACEMENT_3D('',#1621,#1340,#1341);
#1087=AXIS2_PLACEMENT_3D('',#1624,#1343,#1344);
#1088=AXIS2_PLACEMENT_3D('',#1625,#1345,#1346);
#1089=AXIS2_PLACEMENT_3D('',#1627,#1347,#1348);
#1090=AXIS2_PLACEMENT_3D('',#1630,#1350,#1351);
#1091=AXIS2_PLACEMENT_3D('',#1631,#1352,#1353);
#1092=AXIS2_PLACEMENT_3D('',#1632,#1354,#1355);
#1093=DIRECTION('axis',(0.,0.,1.));
#1094=DIRECTION('refdir',(1.,0.,0.));
#1095=DIRECTION('center_axis',(0.,-1.,0.));
#1096=DIRECTION('ref_axis',(0.,0.,-1.));
#1097=DIRECTION('',(0.,0.,-1.));
#1098=DIRECTION('',(-1.,0.,0.));
#1099=DIRECTION('',(0.,0.,1.));
#1100=DIRECTION('',(1.,0.,0.));
#1101=DIRECTION('',(0.,0.,1.));
#1102=DIRECTION('',(1.,0.,0.));
#1103=DIRECTION('',(0.6,0.,-0.8));
#1104=DIRECTION('',(0.600000053405757,0.,-0.79999995994568));
#1105=DIRECTION('',(-1.,0.,0.));
#1106=DIRECTION('',(0.,0.,-1.));
#1107=DIRECTION('',(1.,0.,0.));
#1108=DIRECTION('center_axis',(-1.,0.,0.));
#1109=DIRECTION('ref_axis',(0.,0.,1.));
#1110=DIRECTION('',(0.,1.,0.));
#1111=DIRECTION('',(0.,0.,1.));
#1112=DIRECTION('',(0.,1.,0.));
#1113=DIRECTION('',(0.,0.,-1.));
#1114=DIRECTION('',(0.,1.,0.));
#1115=DIRECTION('',(0.,0.,1.));
#1116=DIRECTION('',(0.,1.,0.));
#1117=DIRECTION('',(0.,0.,1.));
#1118=DIRECTION('',(0.,-1.,0.));
#1119=DIRECTION('center_axis',(0.,0.,1.));
#1120=DIRECTION('ref_axis',(-1.,0.,0.));
#1121=DIRECTION('',(0.,-1.,0.));
#1122=DIRECTION('',(-1.,0.,0.));
#1123=DIRECTION('center_axis',(0.,0.,1.));
#1124=DIRECTION('ref_axis',(-1.,0.,0.));
#1125=DIRECTION('center_axis',(-1.,0.,0.));
#1126=DIRECTION('ref_axis',(0.,0.,1.));
#1127=DIRECTION('',(0.,1.,0.));
#1128=DIRECTION('',(0.,0.,-1.));
#1129=DIRECTION('center_axis',(0.,0.,1.));
#1130=DIRECTION('ref_axis',(1.,0.,0.));
#1131=DIRECTION('',(0.,-1.,0.));
#1132=DIRECTION('',(1.,0.,0.));
#1133=DIRECTION('',(0.,-1.,0.));
#1134=DIRECTION('',(-1.,0.,0.));
#1135=DIRECTION('',(0.,-1.,0.));
#1136=DIRECTION('',(1.,0.,0.));
#1137=DIRECTION('',(0.,-1.,0.));
#1138=DIRECTION('',(1.,0.,0.));
#1139=DIRECTION('',(1.,0.,0.));
#1140=DIRECTION('',(0.,1.,0.));
#1141=DIRECTION('',(-1.,0.,0.));
#1142=DIRECTION('',(1.,0.,0.));
#1143=DIRECTION('',(-1.,0.,0.));
#1144=DIRECTION('',(0.,1.,0.));
#1145=DIRECTION('',(1.,0.,0.));
#1146=DIRECTION('',(0.,-1.,0.));
#1147=DIRECTION('center_axis',(0.,0.,-1.));
#1148=DIRECTION('ref_axis',(-1.,0.,0.));
#1149=DIRECTION('center_axis',(0.,0.,-1.));
#1150=DIRECTION('ref_axis',(-1.,0.,0.));
#1151=DIRECTION('center_axis',(0.,0.,-1.));
#1152=DIRECTION('ref_axis',(-1.,0.,0.));
#1153=DIRECTION('center_axis',(0.,0.,-1.));
#1154=DIRECTION('ref_axis',(-1.,0.,0.));
#1155=DIRECTION('center_axis',(1.,0.,0.));
#1156=DIRECTION('ref_axis',(0.,0.,-1.));
#1157=DIRECTION('',(0.,1.,0.));
#1158=DIRECTION('',(0.,0.,1.));
#1159=DIRECTION('center_axis',(0.,-1.,0.));
#1160=DIRECTION('ref_axis',(0.,0.,-1.));
#1161=DIRECTION('',(0.,0.,1.));
#1162=DIRECTION('',(1.,0.,0.));
#1163=DIRECTION('center_axis',(0.,-1.,0.));
#1164=DIRECTION('ref_axis',(0.,0.,-1.));
#1165=DIRECTION('',(0.,0.,-1.));
#1166=DIRECTION('',(0.,0.,1.));
#1167=DIRECTION('',(1.,0.,0.));
#1168=DIRECTION('center_axis',(0.,0.,1.));
#1169=DIRECTION('ref_axis',(-1.,0.,0.));
#1170=DIRECTION('',(0.,-1.,0.));
#1171=DIRECTION('',(-1.,0.,0.));
#1172=DIRECTION('center_axis',(0.,0.,1.));
#1173=DIRECTION('ref_axis',(-1.,0.,0.));
#1174=DIRECTION('center_axis',(-1.,0.,0.));
#1175=DIRECTION('ref_axis',(0.,0.,1.));
#1176=DIRECTION('',(0.,0.,-1.));
#1177=DIRECTION('center_axis',(1.,0.,0.));
#1178=DIRECTION('ref_axis',(0.,0.,-1.));
#1179=DIRECTION('',(0.,1.,0.));
#1180=DIRECTION('',(0.,0.,1.));
#1181=DIRECTION('center_axis',(0.,1.,0.));
#1182=DIRECTION('ref_axis',(0.,0.,1.));
#1183=DIRECTION('',(-1.,0.,0.));
#1184=DIRECTION('',(0.,0.,-1.));
#1185=DIRECTION('center_axis',(0.,1.,0.));
#1186=DIRECTION('ref_axis',(0.,0.,1.));
#1187=DIRECTION('center_axis',(0.,0.,1.));
#1188=DIRECTION('ref_axis',(-1.,0.,0.));
#1189=DIRECTION('',(0.,-1.,0.));
#1190=DIRECTION('center_axis',(0.,0.,1.));
#1191=DIRECTION('ref_axis',(-1.,0.,0.));
#1192=DIRECTION('center_axis',(0.,1.,0.));
#1193=DIRECTION('ref_axis',(0.,0.,1.));
#1194=DIRECTION('',(-1.,0.,0.));
#1195=DIRECTION('',(0.,0.,-1.));
#1196=DIRECTION('center_axis',(0.,1.,0.));
#1197=DIRECTION('ref_axis',(0.,0.,1.));
#1198=DIRECTION('center_axis',(0.,0.,1.));
#1199=DIRECTION('ref_axis',(-1.,0.,0.));
#1200=DIRECTION('',(0.,-1.,0.));
#1201=DIRECTION('center_axis',(0.,0.,1.));
#1202=DIRECTION('ref_axis',(-1.,0.,0.));
#1203=DIRECTION('center_axis',(0.,0.,-1.));
#1204=DIRECTION('ref_axis',(0.,1.,0.));
#1205=DIRECTION('',(0.,-1.,0.));
#1206=DIRECTION('',(-1.,0.,0.));
#1207=DIRECTION('',(0.,1.,0.));
#1208=DIRECTION('center_axis',(1.,0.,0.));
#1209=DIRECTION('ref_axis',(0.,0.,-1.));
#1210=DIRECTION('',(0.,0.,-1.));
#1211=DIRECTION('center_axis',(0.,-1.,0.));
#1212=DIRECTION('ref_axis',(1.,0.,0.));
#1213=DIRECTION('',(0.600000053405757,0.,-0.79999995994568));
#1214=DIRECTION('',(0.6,0.,-0.8));
#1215=DIRECTION('',(-1.,0.,0.));
#1216=DIRECTION('center_axis',(0.,0.,-1.));
#1217=DIRECTION('ref_axis',(-1.,0.,0.));
#1218=DIRECTION('center_axis',(0.,0.,1.));
#1219=DIRECTION('ref_axis',(-1.,0.,0.));
#1220=DIRECTION('',(0.,0.,1.));
#1221=DIRECTION('center_axis',(0.,0.,-1.));
#1222=DIRECTION('ref_axis',(-1.,0.,0.));
#1223=DIRECTION('center_axis',(0.,0.,-1.));
#1224=DIRECTION('ref_axis',(-1.,0.,0.));
#1225=DIRECTION('center_axis',(0.,0.,1.));
#1226=DIRECTION('ref_axis',(-1.,0.,0.));
#1227=DIRECTION('',(0.,0.,1.));
#1228=DIRECTION('center_axis',(0.,0.,-1.));
#1229=DIRECTION('ref_axis',(-1.,0.,0.));
#1230=DIRECTION('center_axis',(0.,0.,-1.));
#1231=DIRECTION('ref_axis',(-1.,0.,0.));
#1232=DIRECTION('',(0.,0.,-1.));
#1233=DIRECTION('center_axis',(0.,0.,-1.));
#1234=DIRECTION('ref_axis',(-1.,0.,0.));
#1235=DIRECTION('center_axis',(0.,0.,1.));
#1236=DIRECTION('ref_axis',(-1.,0.,0.));
#1237=DIRECTION('center_axis',(0.,0.,1.));
#1238=DIRECTION('ref_axis',(-1.,0.,0.));
#1239=DIRECTION('center_axis',(0.,0.,-1.));
#1240=DIRECTION('ref_axis',(-1.,0.,0.));
#1241=DIRECTION('',(0.,0.,-1.));
#1242=DIRECTION('center_axis',(0.,0.,-1.));
#1243=DIRECTION('ref_axis',(-1.,0.,0.));
#1244=DIRECTION('center_axis',(0.,0.,1.));
#1245=DIRECTION('ref_axis',(-1.,0.,0.));
#1246=DIRECTION('center_axis',(0.,0.,1.));
#1247=DIRECTION('ref_axis',(-1.,0.,0.));
#1248=DIRECTION('center_axis',(0.,0.,-1.));
#1249=DIRECTION('ref_axis',(-1.,0.,0.));
#1250=DIRECTION('',(0.,0.,-1.));
#1251=DIRECTION('center_axis',(0.,0.,-1.));
#1252=DIRECTION('ref_axis',(-1.,0.,0.));
#1253=DIRECTION('center_axis',(0.,0.,1.));
#1254=DIRECTION('ref_axis',(-1.,0.,0.));
#1255=DIRECTION('center_axis',(0.,0.,1.));
#1256=DIRECTION('ref_axis',(-1.,0.,0.));
#1257=DIRECTION('center_axis',(0.,0.,-1.));
#1258=DIRECTION('ref_axis',(-1.,0.,0.));
#1259=DIRECTION('',(0.,0.,-1.));
#1260=DIRECTION('center_axis',(0.,0.,-1.));
#1261=DIRECTION('ref_axis',(-1.,0.,0.));
#1262=DIRECTION('center_axis',(0.,0.,1.));
#1263=DIRECTION('ref_axis',(-1.,0.,0.));
#1264=DIRECTION('center_axis',(0.,0.,1.));
#1265=DIRECTION('ref_axis',(-1.,0.,0.));
#1266=DIRECTION('center_axis',(0.,0.,-1.));
#1267=DIRECTION('ref_axis',(-1.,0.,0.));
#1268=DIRECTION('',(0.,0.,1.));
#1269=DIRECTION('center_axis',(0.,0.,-1.));
#1270=DIRECTION('ref_axis',(-1.,0.,0.));
#1271=DIRECTION('',(0.,0.,1.));
#1272=DIRECTION('center_axis',(0.,0.,-1.));
#1273=DIRECTION('ref_axis',(-1.,0.,0.));
#1274=DIRECTION('',(0.,0.,1.));
#1275=DIRECTION('center_axis',(0.,0.,-1.));
#1276=DIRECTION('ref_axis',(-1.,0.,0.));
#1277=DIRECTION('',(0.,0.,1.));
#1278=DIRECTION('center_axis',(-1.,0.,0.));
#1279=DIRECTION('ref_axis',(0.,1.,0.));
#1280=DIRECTION('',(0.,-1.,0.));
#1281=DIRECTION('',(0.,0.,-1.));
#1282=DIRECTION('',(0.,1.,0.));
#1283=DIRECTION('',(0.,0.,-1.));
#1284=DIRECTION('center_axis',(0.,-1.,0.));
#1285=DIRECTION('ref_axis',(-1.,0.,0.));
#1286=DIRECTION('',(1.,0.,0.));
#1287=DIRECTION('',(-1.,0.,0.));
#1288=DIRECTION('',(-0.999999999999993,0.,-1.19209289550781E-7));
#1289=DIRECTION('',(0.,0.,-1.));
#1290=DIRECTION('center_axis',(1.,0.,0.));
#1291=DIRECTION('ref_axis',(0.,-1.,0.));
#1292=DIRECTION('',(0.,1.,0.));
#1293=DIRECTION('',(0.,-1.,0.));
#1294=DIRECTION('',(0.,0.,-1.));
#1295=DIRECTION('center_axis',(0.,1.,0.));
#1296=DIRECTION('ref_axis',(1.,0.,0.));
#1297=DIRECTION('',(-1.,0.,0.));
#1298=DIRECTION('',(0.999999999999993,0.,1.19209289550781E-7));
#1299=DIRECTION('',(1.,0.,0.));
#1300=DIRECTION('center_axis',(0.,0.,-1.));
#1301=DIRECTION('ref_axis',(-1.,0.,0.));
#1302=DIRECTION('',(0.,-1.,0.));
#1303=DIRECTION('',(1.,0.,0.));
#1304=DIRECTION('',(0.,1.,0.));
#1305=DIRECTION('',(-1.,0.,0.));
#1306=DIRECTION('',(0.,-1.,0.));
#1307=DIRECTION('center_axis',(1.,0.,0.));
#1308=DIRECTION('ref_axis',(0.,1.,0.));
#1309=DIRECTION('',(0.,1.,0.));
#1310=DIRECTION('',(0.,0.,1.));
#1311=DIRECTION('',(0.,0.,1.));
#1312=DIRECTION('center_axis',(0.79999995994568,0.,0.600000053405757));
#1313=DIRECTION('ref_axis',(0.600000053405757,0.,-0.79999995994568));
#1314=DIRECTION('',(0.,1.,0.));
#1315=DIRECTION('center_axis',(0.,0.,1.));
#1316=DIRECTION('ref_axis',(1.,0.,0.));
#1317=DIRECTION('',(0.,1.,0.));
#1318=DIRECTION('center_axis',(0.,1.,0.));
#1319=DIRECTION('ref_axis',(-1.,0.,0.));
#1320=DIRECTION('',(0.,0.,1.));
#1321=DIRECTION('',(1.,0.,0.));
#1322=DIRECTION('',(-0.999999999999993,0.,-1.19209289550781E-7));
#1323=DIRECTION('',(-0.59632399466767,0.,0.802743852909253));
#1324=DIRECTION('center_axis',(0.,-1.,0.));
#1325=DIRECTION('ref_axis',(1.,0.,0.));
#1326=DIRECTION('',(0.,0.,1.));
#1327=DIRECTION('',(0.59632399466767,0.,-0.802743852909253));
#1328=DIRECTION('',(0.999999999999993,0.,1.19209289550781E-7));
#1329=DIRECTION('',(-1.,0.,0.));
#1330=DIRECTION('center_axis',(1.19209289550781E-7,0.,-0.999999999999993));
#1331=DIRECTION('ref_axis',(-0.999999999999993,0.,-1.19209289550781E-7));
#1332=DIRECTION('',(0.,1.,0.));
#1333=DIRECTION('center_axis',(0.,0.,1.));
#1334=DIRECTION('ref_axis',(1.,0.,0.));
#1335=DIRECTION('',(0.,-1.,0.));
#1336=DIRECTION('center_axis',(-1.,0.,0.));
#1337=DIRECTION('ref_axis',(0.,-1.,0.));
#1338=DIRECTION('center_axis',(-0.802743852909253,0.,-0.59632399466767));
#1339=DIRECTION('ref_axis',(0.,1.,0.));
#1340=DIRECTION('center_axis',(-0.802743852909253,0.,-0.59632399466767));
#1341=DIRECTION('ref_axis',(0.,1.,0.));
#1342=DIRECTION('',(-0.802743852909253,0.,-0.59632399466767));
#1343=DIRECTION('center_axis',(0.8,0.,0.6));
#1344=DIRECTION('ref_axis',(0.6,0.,-0.8));
#1345=DIRECTION('center_axis',(-0.802743852909253,0.,-0.59632399466767));
#1346=DIRECTION('ref_axis',(0.,1.,0.));
#1347=DIRECTION('center_axis',(-0.802743852909253,0.,-0.59632399466767));
#1348=DIRECTION('ref_axis',(0.,1.,0.));
#1349=DIRECTION('',(-0.802743852909253,0.,-0.59632399466767));
#1350=DIRECTION('center_axis',(0.8,0.,0.6));
#1351=DIRECTION('ref_axis',(0.6,0.,-0.8));
#1352=DIRECTION('center_axis',(0.8,0.,0.6));
#1353=DIRECTION('ref_axis',(0.6,0.,-0.8));
#1354=DIRECTION('center_axis',(-0.802743852909253,0.,-0.59632399466767));
#1355=DIRECTION('ref_axis',(-0.59632399466767,0.,0.802743852909253));
#1356=CARTESIAN_POINT('',(0.,0.,0.));
#1357=CARTESIAN_POINT('Origin',(1.5,0.49,0.));
#1358=CARTESIAN_POINT('',(-7.99000009685755,0.49,5.50000005960464));
#1359=CARTESIAN_POINT('',(-7.99000009685755,0.49,4.80000005960464));
#1360=CARTESIAN_POINT('',(-7.99000009685755,0.49,2.75000002980232));
#1361=CARTESIAN_POINT('',(3.74,0.49,5.50000005960464));
#1362=CARTESIAN_POINT('',(1.375,0.49,5.50000005960464));
#1363=CARTESIAN_POINT('',(3.74,0.49,4.80000005960464));
#1364=CARTESIAN_POINT('',(3.74,0.49,2.75000002980232));
#1365=CARTESIAN_POINT('',(1.49,0.49,4.80000005960464));
#1366=CARTESIAN_POINT('',(2.0625,0.49,4.80000005960464));
#1367=CARTESIAN_POINT('',(1.49,0.49,0.));
#1368=CARTESIAN_POINT('',(1.49,0.49,0.));
#1369=CARTESIAN_POINT('',(-3.5,0.49,0.));
#1370=CARTESIAN_POINT('',(-1.,0.49,0.));
#1371=CARTESIAN_POINT('',(-6.12500003911555,0.49,3.50000005215406));
#1372=CARTESIAN_POINT('',(-3.91250001955777,0.49,0.550000026077032));
#1373=CARTESIAN_POINT('',(-6.50000009685755,0.49,4.00000005960464));
#1374=CARTESIAN_POINT('',(-4.0999997713864,0.49,0.800000070691126));
#1375=CARTESIAN_POINT('',(-6.49000009685755,0.49,4.00000005960464));
#1376=CARTESIAN_POINT('',(-2.50000002607703,0.49,4.));
#1377=CARTESIAN_POINT('',(-6.49000009685755,0.49,4.80000005960464));
#1378=CARTESIAN_POINT('',(-6.49000009685755,0.49,2.));
#1379=CARTESIAN_POINT('',(-2.87500004842877,0.49,4.80000005960464));
#1380=CARTESIAN_POINT('Origin',(1.49,-12.,0.));
#1381=CARTESIAN_POINT('',(1.49,-0.99,4.80000005960464));
#1382=CARTESIAN_POINT('',(1.49,-6.125,4.80000005960464));
#1383=CARTESIAN_POINT('',(1.49,-0.99,5.50000005960464));
#1384=CARTESIAN_POINT('',(1.49,-0.99,2.75000002980232));
#1385=CARTESIAN_POINT('',(1.49,-9.51,5.50000005960464));
#1386=CARTESIAN_POINT('',(1.49,-7.75,5.50000005960464));
#1387=CARTESIAN_POINT('',(1.49,-9.51,4.80000005960464));
#1388=CARTESIAN_POINT('',(1.49,-9.51,2.75000002980232));
#1389=CARTESIAN_POINT('',(1.49,-10.99,4.80000005960464));
#1390=CARTESIAN_POINT('',(1.49,-11.1250000409782,4.80000005960464));
#1391=CARTESIAN_POINT('',(1.49,-10.99,5.50000005960464));
#1392=CARTESIAN_POINT('',(1.49,-10.99,2.75000002980232));
#1393=CARTESIAN_POINT('',(1.49,-12.5,5.5));
#1394=CARTESIAN_POINT('',(1.49,-8.5,5.50000005960464));
#1395=CARTESIAN_POINT('',(1.49,-12.5,0.));
#1396=CARTESIAN_POINT('',(1.49,-12.5,0.));
#1397=CARTESIAN_POINT('',(1.49,-9.,0.));
#1398=CARTESIAN_POINT('Origin',(2.625,-0.25,4.80000005960464));
#1399=CARTESIAN_POINT('',(3.74,-0.99,4.80000005960464));
#1400=CARTESIAN_POINT('',(3.74,0.125,4.80000005960464));
#1401=CARTESIAN_POINT('',(3.1875,-0.99,4.80000005960464));
#1402=CARTESIAN_POINT('',(3.25,-0.25,4.80000005960464));
#1403=CARTESIAN_POINT('Origin',(3.,-0.25,4.80000005960464));
#1404=CARTESIAN_POINT('Origin',(3.74,0.5,5.50000005960464));
#1405=CARTESIAN_POINT('',(3.74,-0.99,5.50000005960464));
#1406=CARTESIAN_POINT('',(3.74,-2.75,5.50000005960464));
#1407=CARTESIAN_POINT('',(3.74,-0.99,5.50000005960464));
#1408=CARTESIAN_POINT('Origin',(1.25,-6.,5.50000005960464));
#1409=CARTESIAN_POINT('',(-7.99000009685755,-0.99,5.50000005960464));
#1410=CARTESIAN_POINT('',(-7.99000009685755,-3.5,5.50000005960464));
#1411=CARTESIAN_POINT('',(-6.49000009685755,-0.99,5.50000005960464));
#1412=CARTESIAN_POINT('',(-2.62500004842877,-0.99,5.50000005960464));
#1413=CARTESIAN_POINT('',(-6.49000009685755,-9.51,5.50000005960464));
#1414=CARTESIAN_POINT('',(-6.49000005215406,-7.75,5.50000005960464));
#1415=CARTESIAN_POINT('',(-7.99000009685755,-9.51,5.50000005960464));
#1416=CARTESIAN_POINT('',(-3.37500004842877,-9.51,5.50000005960464));
#1417=CARTESIAN_POINT('',(-7.99000009685755,-10.99,5.50000005960464));
#1418=CARTESIAN_POINT('',(-7.99000009685755,-8.5,5.50000005960464));
#1419=CARTESIAN_POINT('',(-6.49000009685755,-10.99,5.50000005960464));
#1420=CARTESIAN_POINT('',(-2.62500004842877,-10.99,5.50000005960464));
#1421=CARTESIAN_POINT('',(-6.49000009685755,-12.5,5.50000005960464));
#1422=CARTESIAN_POINT('',(-6.49000005215406,-8.5,5.50000005960464));
#1423=CARTESIAN_POINT('',(1.5,-12.5,5.5));
#1424=CARTESIAN_POINT('',(3.74,-10.9900001639128,5.50000005960464));
#1425=CARTESIAN_POINT('',(2.5,-10.9900001639128,5.50000005960464));
#1426=CARTESIAN_POINT('',(3.74,-9.51,5.50000005960464));
#1427=CARTESIAN_POINT('',(3.74,-7.75,5.50000005960464));
#1428=CARTESIAN_POINT('',(1.375,-9.51,5.50000005960464));
#1429=CARTESIAN_POINT('',(2.5,-0.99,5.50000005960464));
#1430=CARTESIAN_POINT('',(1.,-12.,5.5));
#1431=CARTESIAN_POINT('',(-6.,-12.,5.5));
#1432=CARTESIAN_POINT('',(-7.,-12.,5.5));
#1433=CARTESIAN_POINT('',(-6.,0.,5.5));
#1434=CARTESIAN_POINT('',(-6.,-9.,5.5));
#1435=CARTESIAN_POINT('',(1.,0.,5.5));
#1436=CARTESIAN_POINT('',(-7.,0.,5.5));
#1437=CARTESIAN_POINT('',(1.,-12.,5.5));
#1438=CARTESIAN_POINT('',(-6.85000009685755,-10.25,5.50000005960464));
#1439=CARTESIAN_POINT('Origin',(-7.25000009685755,-10.25,5.50000005960464));
#1440=CARTESIAN_POINT('',(-6.85000009685755,-0.25,5.50000005960464));
#1441=CARTESIAN_POINT('Origin',(-7.25000009685755,-0.25,5.50000005960464));
#1442=CARTESIAN_POINT('',(3.4,-10.25,5.50000005960464));
#1443=CARTESIAN_POINT('Origin',(3.,-10.25,5.50000005960464));
#1444=CARTESIAN_POINT('',(3.4,-0.25,5.50000005960464));
#1445=CARTESIAN_POINT('Origin',(3.,-0.25,5.50000005960464));
#1446=CARTESIAN_POINT('Origin',(-7.99000009685755,-1.,5.50000005960464));
#1447=CARTESIAN_POINT('',(-7.99000009685755,-0.99,4.80000005960464));
#1448=CARTESIAN_POINT('',(-7.99000009685755,-0.625,4.80000005960464));
#1449=CARTESIAN_POINT('',(-7.99000009685755,-0.99,5.50000005960464));
#1450=CARTESIAN_POINT('Origin',(1.5,-9.51,5.50000005960464));
#1451=CARTESIAN_POINT('',(3.74,-9.51,4.80000005960464));
#1452=CARTESIAN_POINT('',(3.74,-9.51,5.50000005960464));
#1453=CARTESIAN_POINT('',(2.0625,-9.51,4.80000005960464));
#1454=CARTESIAN_POINT('Origin',(-8.00000009685755,-9.51,5.50000005960464));
#1455=CARTESIAN_POINT('',(-7.99000009685755,-9.51,4.80000005960464));
#1456=CARTESIAN_POINT('',(-7.99000009685755,-9.51,5.50000005960464));
#1457=CARTESIAN_POINT('',(-6.49000009685755,-9.51,4.80000005960464));
#1458=CARTESIAN_POINT('',(-6.49000005215406,-9.51,4.75000002980232));
#1459=CARTESIAN_POINT('',(-7.62500009685755,-9.51,4.80000005960464));
#1460=CARTESIAN_POINT('Origin',(2.625,-10.2500000819564,4.80000005960464));
#1461=CARTESIAN_POINT('',(3.74,-10.9900001639128,4.80000005960464));
#1462=CARTESIAN_POINT('',(3.74,-9.87500004097819,4.80000005960464));
#1463=CARTESIAN_POINT('',(3.1875,-10.9900001639128,4.80000005960464));
#1464=CARTESIAN_POINT('',(3.25,-10.25,4.80000005960464));
#1465=CARTESIAN_POINT('Origin',(3.,-10.25,4.80000005960464));
#1466=CARTESIAN_POINT('Origin',(3.74,-9.5,5.50000005960464));
#1467=CARTESIAN_POINT('',(3.74,-10.9900001639128,5.50000005960464));
#1468=CARTESIAN_POINT('Origin',(-7.99000009685755,-11.,5.50000005960464));
#1469=CARTESIAN_POINT('',(-7.99000009685755,-10.99,4.80000005960464));
#1470=CARTESIAN_POINT('',(-7.99000009685755,-10.625,4.80000005960464));
#1471=CARTESIAN_POINT('',(-7.99000009685755,-10.99,5.50000005960464));
#1472=CARTESIAN_POINT('Origin',(-6.50000009685755,-10.99,5.50000005960464));
#1473=CARTESIAN_POINT('',(-6.49000009685755,-10.99,4.80000005960464));
#1474=CARTESIAN_POINT('',(-6.87500009685755,-10.99,4.80000005960464));
#1475=CARTESIAN_POINT('',(-6.49000005215406,-10.99,4.75000002980232));
#1476=CARTESIAN_POINT('Origin',(3.75,-10.9900001639128,5.50000005960464));
#1477=CARTESIAN_POINT('Origin',(-7.25000009685755,-10.25,4.80000005960464));
#1478=CARTESIAN_POINT('',(-6.49000005215406,-4.875,4.80000005960465));
#1479=CARTESIAN_POINT('',(-7.00000009685755,-10.25,4.80000005960464));
#1480=CARTESIAN_POINT('Origin',(-7.25000009685755,-10.25,4.80000005960464));
#1481=CARTESIAN_POINT('Origin',(-6.50000009685755,-0.99,5.50000005960464));
#1482=CARTESIAN_POINT('',(-6.49000009685755,-0.99,4.80000005960464));
#1483=CARTESIAN_POINT('',(-6.87500009685755,-0.99,4.80000005960464));
#1484=CARTESIAN_POINT('',(-6.49000005215406,-0.99,4.75000002980232));
#1485=CARTESIAN_POINT('Origin',(3.75,-0.99,5.50000005960464));
#1486=CARTESIAN_POINT('Origin',(-7.25000009685755,-0.25,4.80000005960464));
#1487=CARTESIAN_POINT('',(-6.49000005215406,0.125,4.80000005960465));
#1488=CARTESIAN_POINT('',(-7.00000009685755,-0.25,4.80000005960464));
#1489=CARTESIAN_POINT('Origin',(-7.25000009685755,-0.25,4.80000005960464));
#1490=CARTESIAN_POINT('Origin',(-6.50000005215406,-12.5,4.));
#1491=CARTESIAN_POINT('',(-6.50000009685755,-12.5,4.00000005960464));
#1492=CARTESIAN_POINT('',(-6.50000005215406,-9.25,4.));
#1493=CARTESIAN_POINT('',(-6.49000009685755,-12.5,4.00000005960464));
#1494=CARTESIAN_POINT('',(-6.75000002607703,-12.5,4.));
#1495=CARTESIAN_POINT('',(-6.49000005215406,-9.25,4.));
#1496=CARTESIAN_POINT('Origin',(-6.49000009685755,0.5,4.));
#1497=CARTESIAN_POINT('',(-6.49000009685755,-12.5,2.));
#1498=CARTESIAN_POINT('Origin',(-7.,-12.5,0.));
#1499=CARTESIAN_POINT('',(-6.12500003911555,-12.5,3.50000005215406));
#1500=CARTESIAN_POINT('',(-5.63000004375578,-12.5,2.84000015013217));
#1501=CARTESIAN_POINT('',(-3.5,-12.5,0.));
#1502=CARTESIAN_POINT('',(-4.13,-12.5,0.84));
#1503=CARTESIAN_POINT('',(1.5,-12.5,0.));
#1504=CARTESIAN_POINT('Origin',(-0.338499230176182,-4.29802948564245,0.500000007450581));
#1505=CARTESIAN_POINT('',(-0.138499230176182,-4.29802948564245,7.45058059692383E-9));
#1506=CARTESIAN_POINT('Origin',(-0.338499230176182,-4.29802948564245,7.45058059692383E-9));
#1507=CARTESIAN_POINT('',(-0.138499230176182,-4.29802948564245,0.500000007450581));
#1508=CARTESIAN_POINT('',(-0.138499230176182,-4.29802948564245,0.500000007450581));
#1509=CARTESIAN_POINT('Origin',(-0.338499230176182,-4.29802948564245,0.500000007450581));
#1510=CARTESIAN_POINT('Origin',(-0.338499230176182,-1.83802948564245,0.500000007450581));
#1511=CARTESIAN_POINT('',(-0.138499230176182,-1.83802948564245,7.45058059692383E-9));
#1512=CARTESIAN_POINT('Origin',(-0.338499230176182,-1.83802948564245,7.45058059692383E-9));
#1513=CARTESIAN_POINT('',(-0.138499230176182,-1.83802948564245,0.500000007450581));
#1514=CARTESIAN_POINT('',(-0.138499230176182,-1.83802948564245,0.500000007450581));
#1515=CARTESIAN_POINT('Origin',(-0.338499230176182,-1.83802948564245,0.500000007450581));
#1516=CARTESIAN_POINT('Origin',(3.,-0.25,5.50000005960464));
#1517=CARTESIAN_POINT('',(3.4,-0.25,5.00000005960464));
#1518=CARTESIAN_POINT('',(3.4,-0.25,5.50000005960464));
#1519=CARTESIAN_POINT('Origin',(3.,-0.25,5.00000005960464));
#1520=CARTESIAN_POINT('Origin',(3.,-0.25,5.00000005960464));
#1521=CARTESIAN_POINT('',(3.25,-0.25,5.00000005960464));
#1522=CARTESIAN_POINT('Origin',(3.,-0.25,5.00000005960464));
#1523=CARTESIAN_POINT('Origin',(3.,-10.25,5.50000005960464));
#1524=CARTESIAN_POINT('',(3.4,-10.25,5.00000005960464));
#1525=CARTESIAN_POINT('',(3.4,-10.25,5.50000005960464));
#1526=CARTESIAN_POINT('Origin',(3.,-10.25,5.00000005960464));
#1527=CARTESIAN_POINT('Origin',(3.,-10.25,5.00000005960464));
#1528=CARTESIAN_POINT('',(3.25,-10.25,5.00000005960464));
#1529=CARTESIAN_POINT('Origin',(3.,-10.25,5.00000005960464));
#1530=CARTESIAN_POINT('Origin',(-7.25000009685755,-0.25,5.50000005960464));
#1531=CARTESIAN_POINT('',(-6.85000009685755,-0.25,5.00000005960464));
#1532=CARTESIAN_POINT('',(-6.85000009685755,-0.25,5.50000005960464));
#1533=CARTESIAN_POINT('Origin',(-7.25000009685755,-0.25,5.00000005960464));
#1534=CARTESIAN_POINT('Origin',(-7.25000009685755,-0.25,5.00000005960464));
#1535=CARTESIAN_POINT('',(-7.00000009685755,-0.25,5.00000005960464));
#1536=CARTESIAN_POINT('Origin',(-7.25000009685755,-0.25,5.00000005960464));
#1537=CARTESIAN_POINT('Origin',(-7.25000009685755,-10.25,5.50000005960464));
#1538=CARTESIAN_POINT('',(-6.85000009685755,-10.25,5.00000005960464));
#1539=CARTESIAN_POINT('',(-6.85000009685755,-10.25,5.50000005960464));
#1540=CARTESIAN_POINT('Origin',(-7.25000009685755,-10.25,5.00000005960464));
#1541=CARTESIAN_POINT('Origin',(-7.25000009685755,-10.25,5.00000005960464));
#1542=CARTESIAN_POINT('',(-7.00000009685755,-10.25,5.00000005960464));
#1543=CARTESIAN_POINT('Origin',(-7.25000009685755,-10.25,5.00000005960464));
#1544=CARTESIAN_POINT('Origin',(3.,-10.25,5.50000005960464));
#1545=CARTESIAN_POINT('',(3.25,-10.25,5.50000005960464));
#1546=CARTESIAN_POINT('Origin',(-7.25000009685755,-0.25,5.50000005960464));
#1547=CARTESIAN_POINT('',(-7.00000009685755,-0.25,5.50000005960464));
#1548=CARTESIAN_POINT('Origin',(-7.25000009685755,-10.25,5.50000005960464));
#1549=CARTESIAN_POINT('',(-7.00000009685755,-10.25,5.50000005960464));
#1550=CARTESIAN_POINT('Origin',(3.,-0.25,5.50000005960464));
#1551=CARTESIAN_POINT('',(3.25,-0.25,5.50000005960464));
#1552=CARTESIAN_POINT('Origin',(-0.933499229925896,-4.01802948598948,0.500000007450581));
#1553=CARTESIAN_POINT('',(-0.933499229925896,-2.11802948598948,0.));
#1554=CARTESIAN_POINT('',(-0.933499229925896,-4.01802948598948,0.));
#1555=CARTESIAN_POINT('',(-0.933499229925896,-5.00901474299474,0.));
#1556=CARTESIAN_POINT('',(-0.933499229925896,-2.11802948598948,0.500000007450581));
#1557=CARTESIAN_POINT('',(-0.933499229925896,-2.11802948598948,0.500000007450581));
#1558=CARTESIAN_POINT('',(-0.933499229925896,-4.01802948598948,0.500000007450581));
#1559=CARTESIAN_POINT('',(-0.933499229925896,-8.00901474299474,0.500000007450581));
#1560=CARTESIAN_POINT('',(-0.933499229925896,-4.01802948598948,0.500000007450581));
#1561=CARTESIAN_POINT('Origin',(0.256500770074104,-4.01802948598948,0.500000007450581));
#1562=CARTESIAN_POINT('',(0.256500770074104,-4.01802948598948,0.));
#1563=CARTESIAN_POINT('',(-1.62174961496295,-4.01802948598948,0.));
#1564=CARTESIAN_POINT('',(0.,-4.01802948598948,0.500000007450581));
#1565=CARTESIAN_POINT('',(0.128250385037052,-4.01802948598948,0.500000007450581));
#1566=CARTESIAN_POINT('',(0.256500770074104,-4.01802948598948,0.500000007450581));
#1567=CARTESIAN_POINT('',(0.128250593653307,-4.01802948598948,0.500000015288637));
#1568=CARTESIAN_POINT('',(0.256500770074104,-4.01802948598948,0.500000007450581));
#1569=CARTESIAN_POINT('Origin',(0.256500770074104,-2.11802948598948,0.500000007450581));
#1570=CARTESIAN_POINT('',(0.256500770074104,-2.11802948598948,0.));
#1571=CARTESIAN_POINT('',(0.256500770074104,-4.05901474299474,0.));
#1572=CARTESIAN_POINT('',(0.256500770074104,-2.11802948598948,0.500000007450581));
#1573=CARTESIAN_POINT('',(0.256500770074104,-7.05901474299474,0.50000003057725));
#1574=CARTESIAN_POINT('',(0.256500770074104,-2.11802948598948,0.500000007450581));
#1575=CARTESIAN_POINT('Origin',(-0.933499229925896,-2.11802948598948,0.500000007450581));
#1576=CARTESIAN_POINT('',(-2.21674961496295,-2.11802948598948,0.));
#1577=CARTESIAN_POINT('',(0.,-2.11802948598949,0.500000007450581));
#1578=CARTESIAN_POINT('',(-0.466749406346684,-2.11802948598949,0.49999994435911));
#1579=CARTESIAN_POINT('',(-0.466749614962948,-2.11802948598949,0.500000007450581));
#1580=CARTESIAN_POINT('Origin',(0.,-12.,0.500000007450581));
#1581=CARTESIAN_POINT('',(0.,0.,0.500000007450581));
#1582=CARTESIAN_POINT('',(0.,-12.,0.500000007450581));
#1583=CARTESIAN_POINT('',(-3.40000005066395,0.,0.500000007450581));
#1584=CARTESIAN_POINT('',(0.,0.,0.500000007450581));
#1585=CARTESIAN_POINT('',(-3.40000005066395,-12.,0.500000007450581));
#1586=CARTESIAN_POINT('',(-3.40000005066395,-12.,0.500000007450581));
#1587=CARTESIAN_POINT('',(0.,-12.,0.500000007450581));
#1588=CARTESIAN_POINT('',(-3.5,-12.,0.500000007450581));
#1589=CARTESIAN_POINT('',(0.,-12.,0.500000007450581));
#1590=CARTESIAN_POINT('Origin',(-6.,-12.,4.));
#1591=CARTESIAN_POINT('',(-6.,-12.,4.));
#1592=CARTESIAN_POINT('',(-6.,0.,4.));
#1593=CARTESIAN_POINT('',(-6.,-9.,4.));
#1594=CARTESIAN_POINT('',(-6.,0.,4.));
#1595=CARTESIAN_POINT('',(-6.,-12.,4.));
#1596=CARTESIAN_POINT('Origin',(-6.50000009685755,-12.5,4.00000005960464));
#1597=CARTESIAN_POINT('',(-6.12500003911555,0.,3.50000005215406));
#1598=CARTESIAN_POINT('Origin',(-3.5,-6.,0.));
#1599=CARTESIAN_POINT('',(-3.5,-9.,2.22044604925031E-16));
#1600=CARTESIAN_POINT('Origin',(1.5,-12.,0.));
#1601=CARTESIAN_POINT('',(1.,-12.,0.5));
#1602=CARTESIAN_POINT('',(1.,-12.,0.));
#1603=CARTESIAN_POINT('',(0.5,-12.,0.5));
#1604=CARTESIAN_POINT('',(0.,-12.,0.5));
#1605=CARTESIAN_POINT('',(-3.49999982118602,-12.,0.499999582767483));
#1606=CARTESIAN_POINT('',(-3.92041033651665,-12.,1.20055232748899));
#1607=CARTESIAN_POINT('Origin',(-7.,0.,0.));
#1608=CARTESIAN_POINT('',(1.,0.,0.5));
#1609=CARTESIAN_POINT('',(1.,0.,0.));
#1610=CARTESIAN_POINT('',(-2.67580226335923,0.,-0.474881646227182));
#1611=CARTESIAN_POINT('',(0.5,-1.77635683940025E-15,0.5));
#1612=CARTESIAN_POINT('',(1.78813934326174E-7,0.,0.499999999999996));
#1613=CARTESIAN_POINT('',(1.5,-1.77635683940025E-15,0.5));
#1614=CARTESIAN_POINT('Origin',(4.17232513427734E-7,-12.,0.500000000000025));
#1615=CARTESIAN_POINT('',(0.5,-9.,0.5));
#1616=CARTESIAN_POINT('Origin',(0.5,-6.,0.5));
#1617=CARTESIAN_POINT('',(1.,-3.,0.5));
#1618=CARTESIAN_POINT('Origin',(1.,0.,0.));
#1619=CARTESIAN_POINT('Origin',(-4.70000002533197,-3.,2.25000000372529));
#1620=CARTESIAN_POINT('',(-4.70000002533197,-4.125,2.25000000372529));
#1621=CARTESIAN_POINT('Origin',(-4.70000002533197,-3.,2.25000000372529));
#1622=CARTESIAN_POINT('',(-5.01307340729776,-4.125,2.01743120973035));
#1623=CARTESIAN_POINT('',(-4.70000002533197,-4.125,2.25000000372529));
#1624=CARTESIAN_POINT('Origin',(-5.01307340729776,-3.,2.01743120973035));
#1625=CARTESIAN_POINT('Origin',(-4.70000002533197,-9.,2.25000000372529));
#1626=CARTESIAN_POINT('',(-4.70000002533197,-10.125,2.25000000372529));
#1627=CARTESIAN_POINT('Origin',(-4.70000002533197,-9.,2.25000000372529));
#1628=CARTESIAN_POINT('',(-5.01307340729776,-10.125,2.01743120973035));
#1629=CARTESIAN_POINT('',(-4.70000002533197,-10.125,2.25000000372529));
#1630=CARTESIAN_POINT('Origin',(-5.01307340729776,-9.,2.01743120973035));
#1631=CARTESIAN_POINT('Origin',(-6.12500003911555,-12.,3.50000005215406));
#1632=CARTESIAN_POINT('Origin',(-3.40000005066395,-12.,0.500000007450581));
#1633=UNCERTAINTY_MEASURE_WITH_UNIT(LENGTH_MEASURE(0.001),#1637,
'DISTANCE_ACCURACY_VALUE',
'Maximum model space distance between geometric entities at asserted c
onnectivities');
#1634=UNCERTAINTY_MEASURE_WITH_UNIT(LENGTH_MEASURE(0.001),#1637,
'DISTANCE_ACCURACY_VALUE',
'Maximum model space distance between geometric entities at asserted c
onnectivities');
#1635=(
GEOMETRIC_REPRESENTATION_CONTEXT(3)
GLOBAL_UNCERTAINTY_ASSIGNED_CONTEXT((#1633))
GLOBAL_UNIT_ASSIGNED_CONTEXT((#1637,#1639,#1640))
REPRESENTATION_CONTEXT('','3D')
);
#1636=(
GEOMETRIC_REPRESENTATION_CONTEXT(3)
GLOBAL_UNCERTAINTY_ASSIGNED_CONTEXT((#1634))
GLOBAL_UNIT_ASSIGNED_CONTEXT((#1637,#1639,#1640))
REPRESENTATION_CONTEXT('','3D')
);
#1637=(
LENGTH_UNIT()
NAMED_UNIT(*)
SI_UNIT(.CENTI.,.METRE.)
);
#1638=(
LENGTH_UNIT()
NAMED_UNIT(*)
SI_UNIT($,.METRE.)
);
#1639=(
NAMED_UNIT(*)
PLANE_ANGLE_UNIT()
SI_UNIT($,.RADIAN.)
);
#1640=(
NAMED_UNIT(*)
SI_UNIT($,.STERADIAN.)
SOLID_ANGLE_UNIT()
);
#1641=SHAPE_DEFINITION_REPRESENTATION(#1642,#1643);
#1642=PRODUCT_DEFINITION_SHAPE('',$,#1645);
#1643=SHAPE_REPRESENTATION('',(#1017),#1635);
#1644=PRODUCT_DEFINITION_CONTEXT('part definition',#1649,'design');
#1645=PRODUCT_DEFINITION('2026-07-14-10-29-17-373','plate -sh',#1646,#1644);
#1646=PRODUCT_DEFINITION_FORMATION('',$,#1651);
#1647=PRODUCT_RELATED_PRODUCT_CATEGORY('plate -sh','plate -sh',(#1651));
#1648=APPLICATION_PROTOCOL_DEFINITION('international standard',
'automotive_design',2009,#1649);
#1649=APPLICATION_CONTEXT(
'Core Data for Automotive Mechanical Design Process');
#1650=PRODUCT_CONTEXT('part definition',#1649,'mechanical');
#1651=PRODUCT('2026-07-14-10-29-17-373','plate -sh',$,(#1650));
#1652=PRESENTATION_STYLE_ASSIGNMENT((#1653));
#1653=SURFACE_STYLE_USAGE(.BOTH.,#1654);
#1654=SURFACE_SIDE_STYLE('',(#1655));
#1655=SURFACE_STYLE_FILL_AREA(#1656);
#1656=FILL_AREA_STYLE('ABS(\X2\D770C0C9\X0\)',(#1657));
#1657=FILL_AREA_STYLE_COLOUR('ABS(\X2\D770C0C9\X0\)',#1658);
#1658=COLOUR_RGB('ABS(\X2\D770C0C9\X0\)',0.964705882352941,0.964705882352941,
0.952941176470588);
ENDSEC;
END-ISO-10303-21;
