ISO-10303-21;
HEADER;
/* Generated by software containing ST-Developer
 * from STEP Tools, Inc. (www.steptools.com) 
 */

FILE_DESCRIPTION(
/* description */ (''),
/* implementation_level */ '2;1');

FILE_NAME(
/* name */ 'switch pannel.step',
/* time_stamp */ '2026-08-31T17:56:24+09:00',
/* author */ (''),
/* organization */ (''),
/* preprocessor_version */ 'ST-DEVELOPER v20.1',
/* originating_system */ 'Autodesk Translation Framework v15.8.0.0',
/* authorisation */ '');

FILE_SCHEMA (('AUTOMOTIVE_DESIGN { 1 0 10303 214 3 1 1 }'));
ENDSEC;

DATA;
#10=MECHANICAL_DESIGN_GEOMETRIC_PRESENTATION_REPRESENTATION('',(#13,#14,
#15),#1655);
#11=SHAPE_REPRESENTATION_RELATIONSHIP('SRR','None',#1662,#12);
#12=ADVANCED_BREP_SHAPE_REPRESENTATION('',(#16,#17,#18),#1654);
#13=STYLED_ITEM('',(#1671),#16);
#14=STYLED_ITEM('',(#1671),#17);
#15=STYLED_ITEM('',(#1671),#18);
#16=MANIFOLD_SOLID_BREP('\X2\BCF8CCB4\X0\1',#1005);
#17=MANIFOLD_SOLID_BREP('\X2\BCF8CCB4\X0\2',#1006);
#18=MANIFOLD_SOLID_BREP('\X2\BCF8CCB4\X0\5',#1007);
#19=FACE_BOUND('',#145,.T.);
#20=FACE_BOUND('',#149,.T.);
#21=FACE_BOUND('',#154,.T.);
#22=FACE_BOUND('',#159,.T.);
#23=FACE_BOUND('',#165,.T.);
#24=FACE_BOUND('',#167,.T.);
#25=FACE_BOUND('',#169,.T.);
#26=FACE_BOUND('',#171,.T.);
#27=FACE_BOUND('',#173,.T.);
#28=FACE_BOUND('',#174,.T.);
#29=FACE_BOUND('',#175,.T.);
#30=FACE_BOUND('',#176,.T.);
#31=FACE_BOUND('',#177,.T.);
#32=FACE_BOUND('',#191,.T.);
#33=FACE_BOUND('',#192,.T.);
#34=FACE_BOUND('',#193,.T.);
#35=FACE_BOUND('',#194,.T.);
#36=FACE_BOUND('',#195,.T.);
#37=FACE_BOUND('',#196,.T.);
#38=FACE_BOUND('',#197,.T.);
#39=FACE_BOUND('',#198,.T.);
#40=FACE_BOUND('',#199,.T.);
#41=FACE_BOUND('',#206,.T.);
#42=FACE_BOUND('',#208,.T.);
#43=FACE_BOUND('',#215,.T.);
#44=FACE_BOUND('',#217,.T.);
#45=PLANE('',#1033);
#46=PLANE('',#1034);
#47=PLANE('',#1035);
#48=PLANE('',#1036);
#49=PLANE('',#1037);
#50=PLANE('',#1038);
#51=PLANE('',#1039);
#52=PLANE('',#1040);
#53=PLANE('',#1041);
#54=PLANE('',#1042);
#55=PLANE('',#1043);
#56=PLANE('',#1044);
#57=PLANE('',#1045);
#58=PLANE('',#1046);
#59=PLANE('',#1047);
#60=PLANE('',#1048);
#61=PLANE('',#1049);
#62=PLANE('',#1050);
#63=PLANE('',#1051);
#64=PLANE('',#1054);
#65=PLANE('',#1057);
#66=PLANE('',#1060);
#67=PLANE('',#1063);
#68=PLANE('',#1071);
#69=PLANE('',#1084);
#70=PLANE('',#1085);
#71=PLANE('',#1086);
#72=PLANE('',#1090);
#73=PLANE('',#1091);
#74=PLANE('',#1092);
#75=PLANE('',#1093);
#76=PLANE('',#1094);
#77=PLANE('',#1095);
#78=PLANE('',#1099);
#79=PLANE('',#1100);
#80=PLANE('',#1101);
#81=PLANE('',#1102);
#82=PLANE('',#1103);
#83=PLANE('',#1104);
#84=FACE_OUTER_BOUND('',#138,.T.);
#85=FACE_OUTER_BOUND('',#139,.T.);
#86=FACE_OUTER_BOUND('',#140,.T.);
#87=FACE_OUTER_BOUND('',#141,.T.);
#88=FACE_OUTER_BOUND('',#142,.T.);
#89=FACE_OUTER_BOUND('',#143,.T.);
#90=FACE_OUTER_BOUND('',#144,.T.);
#91=FACE_OUTER_BOUND('',#146,.T.);
#92=FACE_OUTER_BOUND('',#147,.T.);
#93=FACE_OUTER_BOUND('',#148,.T.);
#94=FACE_OUTER_BOUND('',#150,.T.);
#95=FACE_OUTER_BOUND('',#151,.T.);
#96=FACE_OUTER_BOUND('',#152,.T.);
#97=FACE_OUTER_BOUND('',#153,.T.);
#98=FACE_OUTER_BOUND('',#155,.T.);
#99=FACE_OUTER_BOUND('',#156,.T.);
#100=FACE_OUTER_BOUND('',#157,.T.);
#101=FACE_OUTER_BOUND('',#158,.T.);
#102=FACE_OUTER_BOUND('',#160,.T.);
#103=FACE_OUTER_BOUND('',#161,.T.);
#104=FACE_OUTER_BOUND('',#162,.T.);
#105=FACE_OUTER_BOUND('',#163,.T.);
#106=FACE_OUTER_BOUND('',#164,.T.);
#107=FACE_OUTER_BOUND('',#166,.T.);
#108=FACE_OUTER_BOUND('',#168,.T.);
#109=FACE_OUTER_BOUND('',#170,.T.);
#110=FACE_OUTER_BOUND('',#172,.T.);
#111=FACE_OUTER_BOUND('',#178,.T.);
#112=FACE_OUTER_BOUND('',#179,.T.);
#113=FACE_OUTER_BOUND('',#180,.T.);
#114=FACE_OUTER_BOUND('',#181,.T.);
#115=FACE_OUTER_BOUND('',#182,.T.);
#116=FACE_OUTER_BOUND('',#183,.T.);
#117=FACE_OUTER_BOUND('',#184,.T.);
#118=FACE_OUTER_BOUND('',#185,.T.);
#119=FACE_OUTER_BOUND('',#186,.T.);
#120=FACE_OUTER_BOUND('',#187,.T.);
#121=FACE_OUTER_BOUND('',#188,.T.);
#122=FACE_OUTER_BOUND('',#189,.T.);
#123=FACE_OUTER_BOUND('',#190,.T.);
#124=FACE_OUTER_BOUND('',#200,.T.);
#125=FACE_OUTER_BOUND('',#201,.T.);
#126=FACE_OUTER_BOUND('',#202,.T.);
#127=FACE_OUTER_BOUND('',#203,.T.);
#128=FACE_OUTER_BOUND('',#204,.T.);
#129=FACE_OUTER_BOUND('',#205,.T.);
#130=FACE_OUTER_BOUND('',#207,.T.);
#131=FACE_OUTER_BOUND('',#209,.T.);
#132=FACE_OUTER_BOUND('',#210,.T.);
#133=FACE_OUTER_BOUND('',#211,.T.);
#134=FACE_OUTER_BOUND('',#212,.T.);
#135=FACE_OUTER_BOUND('',#213,.T.);
#136=FACE_OUTER_BOUND('',#214,.T.);
#137=FACE_OUTER_BOUND('',#216,.T.);
#138=EDGE_LOOP('',(#672,#673,#674,#675));
#139=EDGE_LOOP('',(#676,#677,#678,#679));
#140=EDGE_LOOP('',(#680,#681,#682,#683));
#141=EDGE_LOOP('',(#684,#685,#686,#687));
#142=EDGE_LOOP('',(#688,#689,#690,#691));
#143=EDGE_LOOP('',(#692,#693,#694,#695));
#144=EDGE_LOOP('',(#696,#697,#698,#699));
#145=EDGE_LOOP('',(#700));
#146=EDGE_LOOP('',(#701,#702,#703,#704));
#147=EDGE_LOOP('',(#705,#706,#707,#708));
#148=EDGE_LOOP('',(#709,#710,#711,#712));
#149=EDGE_LOOP('',(#713));
#150=EDGE_LOOP('',(#714,#715,#716,#717));
#151=EDGE_LOOP('',(#718,#719,#720,#721));
#152=EDGE_LOOP('',(#722,#723,#724,#725));
#153=EDGE_LOOP('',(#726,#727,#728,#729));
#154=EDGE_LOOP('',(#730));
#155=EDGE_LOOP('',(#731,#732,#733,#734));
#156=EDGE_LOOP('',(#735,#736,#737,#738));
#157=EDGE_LOOP('',(#739,#740,#741,#742));
#158=EDGE_LOOP('',(#743,#744,#745,#746));
#159=EDGE_LOOP('',(#747));
#160=EDGE_LOOP('',(#748,#749,#750,#751,#752,#753,#754,#755,#756,#757));
#161=EDGE_LOOP('',(#758,#759,#760,#761,#762,#763,#764,#765,#766,#767));
#162=EDGE_LOOP('',(#768,#769,#770,#771,#772,#773,#774,#775));
#163=EDGE_LOOP('',(#776,#777,#778,#779));
#164=EDGE_LOOP('',(#780));
#165=EDGE_LOOP('',(#781));
#166=EDGE_LOOP('',(#782));
#167=EDGE_LOOP('',(#783));
#168=EDGE_LOOP('',(#784));
#169=EDGE_LOOP('',(#785));
#170=EDGE_LOOP('',(#786));
#171=EDGE_LOOP('',(#787));
#172=EDGE_LOOP('',(#788,#789,#790,#791));
#173=EDGE_LOOP('',(#792));
#174=EDGE_LOOP('',(#793));
#175=EDGE_LOOP('',(#794));
#176=EDGE_LOOP('',(#795));
#177=EDGE_LOOP('',(#796,#797,#798,#799,#800,#801,#802,#803,#804,#805,#806,
#807,#808,#809,#810,#811));
#178=EDGE_LOOP('',(#812,#813,#814,#815));
#179=EDGE_LOOP('',(#816,#817,#818,#819));
#180=EDGE_LOOP('',(#820,#821,#822,#823));
#181=EDGE_LOOP('',(#824,#825,#826,#827));
#182=EDGE_LOOP('',(#828,#829,#830,#831));
#183=EDGE_LOOP('',(#832,#833,#834,#835));
#184=EDGE_LOOP('',(#836,#837,#838,#839));
#185=EDGE_LOOP('',(#840,#841,#842,#843));
#186=EDGE_LOOP('',(#844,#845,#846,#847));
#187=EDGE_LOOP('',(#848,#849,#850,#851));
#188=EDGE_LOOP('',(#852,#853,#854,#855));
#189=EDGE_LOOP('',(#856,#857,#858,#859));
#190=EDGE_LOOP('',(#860,#861,#862,#863));
#191=EDGE_LOOP('',(#864));
#192=EDGE_LOOP('',(#865));
#193=EDGE_LOOP('',(#866,#867,#868,#869));
#194=EDGE_LOOP('',(#870));
#195=EDGE_LOOP('',(#871));
#196=EDGE_LOOP('',(#872));
#197=EDGE_LOOP('',(#873));
#198=EDGE_LOOP('',(#874));
#199=EDGE_LOOP('',(#875));
#200=EDGE_LOOP('',(#876,#877,#878,#879));
#201=EDGE_LOOP('',(#880,#881,#882,#883));
#202=EDGE_LOOP('',(#884,#885,#886,#887));
#203=EDGE_LOOP('',(#888,#889,#890,#891));
#204=EDGE_LOOP('',(#892,#893,#894,#895));
#205=EDGE_LOOP('',(#896,#897,#898,#899));
#206=EDGE_LOOP('',(#900));
#207=EDGE_LOOP('',(#901,#902,#903,#904));
#208=EDGE_LOOP('',(#905));
#209=EDGE_LOOP('',(#906,#907,#908,#909));
#210=EDGE_LOOP('',(#910,#911,#912,#913));
#211=EDGE_LOOP('',(#914,#915,#916,#917));
#212=EDGE_LOOP('',(#918,#919,#920,#921));
#213=EDGE_LOOP('',(#922,#923,#924,#925));
#214=EDGE_LOOP('',(#926,#927,#928,#929));
#215=EDGE_LOOP('',(#930));
#216=EDGE_LOOP('',(#931,#932,#933,#934));
#217=EDGE_LOOP('',(#935));
#218=LINE('',#1382,#320);
#219=LINE('',#1388,#321);
#220=LINE('',#1394,#322);
#221=LINE('',#1400,#323);
#222=LINE('',#1405,#324);
#223=LINE('',#1407,#325);
#224=LINE('',#1409,#326);
#225=LINE('',#1410,#327);
#226=LINE('',#1413,#328);
#227=LINE('',#1415,#329);
#228=LINE('',#1416,#330);
#229=LINE('',#1419,#331);
#230=LINE('',#1420,#332);
#231=LINE('',#1424,#333);
#232=LINE('',#1426,#334);
#233=LINE('',#1428,#335);
#234=LINE('',#1429,#336);
#235=LINE('',#1432,#337);
#236=LINE('',#1434,#338);
#237=LINE('',#1435,#339);
#238=LINE('',#1438,#340);
#239=LINE('',#1439,#341);
#240=LINE('',#1443,#342);
#241=LINE('',#1445,#343);
#242=LINE('',#1447,#344);
#243=LINE('',#1448,#345);
#244=LINE('',#1451,#346);
#245=LINE('',#1453,#347);
#246=LINE('',#1454,#348);
#247=LINE('',#1457,#349);
#248=LINE('',#1459,#350);
#249=LINE('',#1460,#351);
#250=LINE('',#1462,#352);
#251=LINE('',#1466,#353);
#252=LINE('',#1468,#354);
#253=LINE('',#1470,#355);
#254=LINE('',#1471,#356);
#255=LINE('',#1475,#357);
#256=LINE('',#1477,#358);
#257=LINE('',#1479,#359);
#258=LINE('',#1480,#360);
#259=LINE('',#1482,#361);
#260=LINE('',#1483,#362);
#261=LINE('',#1485,#363);
#262=LINE('',#1488,#364);
#263=LINE('',#1490,#365);
#264=LINE('',#1492,#366);
#265=LINE('',#1493,#367);
#266=LINE('',#1494,#368);
#267=LINE('',#1496,#369);
#268=LINE('',#1498,#370);
#269=LINE('',#1500,#371);
#270=LINE('',#1502,#372);
#271=LINE('',#1503,#373);
#272=LINE('',#1505,#374);
#273=LINE('',#1506,#375);
#274=LINE('',#1508,#376);
#275=LINE('',#1509,#377);
#276=LINE('',#1533,#378);
#277=LINE('',#1535,#379);
#278=LINE('',#1537,#380);
#279=LINE('',#1538,#381);
#280=LINE('',#1551,#382);
#281=LINE('',#1555,#383);
#282=LINE('',#1556,#384);
#283=LINE('',#1558,#385);
#284=LINE('',#1560,#386);
#285=LINE('',#1562,#387);
#286=LINE('',#1564,#388);
#287=LINE('',#1567,#389);
#288=LINE('',#1571,#390);
#289=LINE('',#1575,#391);
#290=LINE('',#1579,#392);
#291=LINE('',#1583,#393);
#292=LINE('',#1584,#394);
#293=LINE('',#1586,#395);
#294=LINE('',#1592,#396);
#295=LINE('',#1597,#397);
#296=LINE('',#1599,#398);
#297=LINE('',#1601,#399);
#298=LINE('',#1602,#400);
#299=LINE('',#1605,#401);
#300=LINE('',#1607,#402);
#301=LINE('',#1608,#403);
#302=LINE('',#1611,#404);
#303=LINE('',#1613,#405);
#304=LINE('',#1614,#406);
#305=LINE('',#1616,#407);
#306=LINE('',#1617,#408);
#307=LINE('',#1624,#409);
#308=LINE('',#1629,#410);
#309=LINE('',#1631,#411);
#310=LINE('',#1633,#412);
#311=LINE('',#1634,#413);
#312=LINE('',#1637,#414);
#313=LINE('',#1639,#415);
#314=LINE('',#1640,#416);
#315=LINE('',#1643,#417);
#316=LINE('',#1645,#418);
#317=LINE('',#1646,#419);
#318=LINE('',#1648,#420);
#319=LINE('',#1649,#421);
#320=VECTOR('',#1111,0.25);
#321=VECTOR('',#1118,0.249999999999999);
#322=VECTOR('',#1125,0.289999999999999);
#323=VECTOR('',#1132,0.290000000000001);
#324=VECTOR('',#1137,1.);
#325=VECTOR('',#1138,1.);
#326=VECTOR('',#1139,1.);
#327=VECTOR('',#1140,1.);
#328=VECTOR('',#1143,1.);
#329=VECTOR('',#1144,1.);
#330=VECTOR('',#1145,1.);
#331=VECTOR('',#1148,1.);
#332=VECTOR('',#1149,1.);
#333=VECTOR('',#1152,1.);
#334=VECTOR('',#1153,1.);
#335=VECTOR('',#1154,1.);
#336=VECTOR('',#1155,1.);
#337=VECTOR('',#1158,1.);
#338=VECTOR('',#1159,1.);
#339=VECTOR('',#1160,1.);
#340=VECTOR('',#1163,1.);
#341=VECTOR('',#1164,1.);
#342=VECTOR('',#1167,1.);
#343=VECTOR('',#1168,1.);
#344=VECTOR('',#1169,1.);
#345=VECTOR('',#1170,1.);
#346=VECTOR('',#1173,1.);
#347=VECTOR('',#1174,1.);
#348=VECTOR('',#1175,1.);
#349=VECTOR('',#1178,1.);
#350=VECTOR('',#1179,1.);
#351=VECTOR('',#1180,1.);
#352=VECTOR('',#1183,1.);
#353=VECTOR('',#1186,1.);
#354=VECTOR('',#1187,1.);
#355=VECTOR('',#1188,1.);
#356=VECTOR('',#1189,1.);
#357=VECTOR('',#1192,1.);
#358=VECTOR('',#1193,1.);
#359=VECTOR('',#1194,1.);
#360=VECTOR('',#1195,1.);
#361=VECTOR('',#1198,1.);
#362=VECTOR('',#1199,1.);
#363=VECTOR('',#1202,1.);
#364=VECTOR('',#1205,1.);
#365=VECTOR('',#1206,1.);
#366=VECTOR('',#1207,1.);
#367=VECTOR('',#1208,1.);
#368=VECTOR('',#1209,1.);
#369=VECTOR('',#1212,1.);
#370=VECTOR('',#1213,1.);
#371=VECTOR('',#1214,1.);
#372=VECTOR('',#1215,1.);
#373=VECTOR('',#1216,1.);
#374=VECTOR('',#1219,1.);
#375=VECTOR('',#1220,1.);
#376=VECTOR('',#1223,1.);
#377=VECTOR('',#1224,1.);
#378=VECTOR('',#1251,1.);
#379=VECTOR('',#1252,1.);
#380=VECTOR('',#1253,1.);
#381=VECTOR('',#1254,1.);
#382=VECTOR('',#1267,1.);
#383=VECTOR('',#1272,1.);
#384=VECTOR('',#1273,1.);
#385=VECTOR('',#1276,0.525000000000002);
#386=VECTOR('',#1279,0.399999999999999);
#387=VECTOR('',#1282,0.525);
#388=VECTOR('',#1285,0.400000000000001);
#389=VECTOR('',#1288,0.25);
#390=VECTOR('',#1293,0.35);
#391=VECTOR('',#1298,0.350000000000001);
#392=VECTOR('',#1303,0.25);
#393=VECTOR('',#1308,1.);
#394=VECTOR('',#1309,1.);
#395=VECTOR('',#1312,1.);
#396=VECTOR('',#1319,0.289999999999999);
#397=VECTOR('',#1324,1.);
#398=VECTOR('',#1325,1.);
#399=VECTOR('',#1326,1.);
#400=VECTOR('',#1327,1.);
#401=VECTOR('',#1330,1.);
#402=VECTOR('',#1331,1.);
#403=VECTOR('',#1332,1.);
#404=VECTOR('',#1335,1.);
#405=VECTOR('',#1336,1.);
#406=VECTOR('',#1337,1.);
#407=VECTOR('',#1340,1.);
#408=VECTOR('',#1341,1.);
#409=VECTOR('',#1350,0.290000000000001);
#410=VECTOR('',#1355,1.);
#411=VECTOR('',#1356,1.);
#412=VECTOR('',#1357,1.);
#413=VECTOR('',#1358,1.);
#414=VECTOR('',#1361,1.);
#415=VECTOR('',#1362,1.);
#416=VECTOR('',#1363,1.);
#417=VECTOR('',#1366,1.);
#418=VECTOR('',#1367,1.);
#419=VECTOR('',#1368,1.);
#420=VECTOR('',#1371,1.);
#421=VECTOR('',#1372,1.);
#422=CIRCLE('',#1022,0.25);
#423=CIRCLE('',#1023,0.25);
#424=CIRCLE('',#1025,0.249999999999999);
#425=CIRCLE('',#1026,0.249999999999999);
#426=CIRCLE('',#1028,0.289999999999999);
#427=CIRCLE('',#1029,0.289999999999999);
#428=CIRCLE('',#1031,0.290000000000001);
#429=CIRCLE('',#1032,0.290000000000001);
#430=CIRCLE('',#1052,0.525000000000002);
#431=CIRCLE('',#1053,0.350000000000001);
#432=CIRCLE('',#1055,0.525);
#433=CIRCLE('',#1056,0.35);
#434=CIRCLE('',#1058,0.399999999999999);
#435=CIRCLE('',#1059,0.25);
#436=CIRCLE('',#1061,0.400000000000001);
#437=CIRCLE('',#1062,0.25);
#438=CIRCLE('',#1064,0.525000000000002);
#439=CIRCLE('',#1065,0.399999999999999);
#440=CIRCLE('',#1066,0.525);
#441=CIRCLE('',#1067,0.400000000000001);
#442=CIRCLE('',#1069,1.);
#443=CIRCLE('',#1070,1.);
#444=CIRCLE('',#1077,0.25);
#445=CIRCLE('',#1079,0.35);
#446=CIRCLE('',#1081,0.350000000000001);
#447=CIRCLE('',#1083,0.25);
#448=CIRCLE('',#1088,0.289999999999999);
#449=CIRCLE('',#1089,0.289999999999999);
#450=CIRCLE('',#1097,0.290000000000001);
#451=CIRCLE('',#1098,0.290000000000001);
#452=VERTEX_POINT('',#1379);
#453=VERTEX_POINT('',#1381);
#454=VERTEX_POINT('',#1385);
#455=VERTEX_POINT('',#1387);
#456=VERTEX_POINT('',#1391);
#457=VERTEX_POINT('',#1393);
#458=VERTEX_POINT('',#1397);
#459=VERTEX_POINT('',#1399);
#460=VERTEX_POINT('',#1403);
#461=VERTEX_POINT('',#1404);
#462=VERTEX_POINT('',#1406);
#463=VERTEX_POINT('',#1408);
#464=VERTEX_POINT('',#1412);
#465=VERTEX_POINT('',#1414);
#466=VERTEX_POINT('',#1418);
#467=VERTEX_POINT('',#1422);
#468=VERTEX_POINT('',#1423);
#469=VERTEX_POINT('',#1425);
#470=VERTEX_POINT('',#1427);
#471=VERTEX_POINT('',#1431);
#472=VERTEX_POINT('',#1433);
#473=VERTEX_POINT('',#1437);
#474=VERTEX_POINT('',#1441);
#475=VERTEX_POINT('',#1442);
#476=VERTEX_POINT('',#1444);
#477=VERTEX_POINT('',#1446);
#478=VERTEX_POINT('',#1450);
#479=VERTEX_POINT('',#1452);
#480=VERTEX_POINT('',#1456);
#481=VERTEX_POINT('',#1458);
#482=VERTEX_POINT('',#1464);
#483=VERTEX_POINT('',#1465);
#484=VERTEX_POINT('',#1467);
#485=VERTEX_POINT('',#1469);
#486=VERTEX_POINT('',#1473);
#487=VERTEX_POINT('',#1474);
#488=VERTEX_POINT('',#1476);
#489=VERTEX_POINT('',#1478);
#490=VERTEX_POINT('',#1487);
#491=VERTEX_POINT('',#1489);
#492=VERTEX_POINT('',#1491);
#493=VERTEX_POINT('',#1497);
#494=VERTEX_POINT('',#1499);
#495=VERTEX_POINT('',#1501);
#496=VERTEX_POINT('',#1511);
#497=VERTEX_POINT('',#1513);
#498=VERTEX_POINT('',#1516);
#499=VERTEX_POINT('',#1518);
#500=VERTEX_POINT('',#1521);
#501=VERTEX_POINT('',#1523);
#502=VERTEX_POINT('',#1526);
#503=VERTEX_POINT('',#1528);
#504=VERTEX_POINT('',#1531);
#505=VERTEX_POINT('',#1532);
#506=VERTEX_POINT('',#1534);
#507=VERTEX_POINT('',#1536);
#508=VERTEX_POINT('',#1539);
#509=VERTEX_POINT('',#1541);
#510=VERTEX_POINT('',#1543);
#511=VERTEX_POINT('',#1545);
#512=VERTEX_POINT('',#1548);
#513=VERTEX_POINT('',#1550);
#514=VERTEX_POINT('',#1554);
#515=VERTEX_POINT('',#1566);
#516=VERTEX_POINT('',#1570);
#517=VERTEX_POINT('',#1574);
#518=VERTEX_POINT('',#1578);
#519=VERTEX_POINT('',#1582);
#520=VERTEX_POINT('',#1589);
#521=VERTEX_POINT('',#1591);
#522=VERTEX_POINT('',#1595);
#523=VERTEX_POINT('',#1596);
#524=VERTEX_POINT('',#1598);
#525=VERTEX_POINT('',#1600);
#526=VERTEX_POINT('',#1604);
#527=VERTEX_POINT('',#1606);
#528=VERTEX_POINT('',#1610);
#529=VERTEX_POINT('',#1612);
#530=VERTEX_POINT('',#1621);
#531=VERTEX_POINT('',#1623);
#532=VERTEX_POINT('',#1627);
#533=VERTEX_POINT('',#1628);
#534=VERTEX_POINT('',#1630);
#535=VERTEX_POINT('',#1632);
#536=VERTEX_POINT('',#1636);
#537=VERTEX_POINT('',#1638);
#538=VERTEX_POINT('',#1642);
#539=VERTEX_POINT('',#1644);
#540=EDGE_CURVE('',#452,#452,#422,.T.);
#541=EDGE_CURVE('',#452,#453,#218,.T.);
#542=EDGE_CURVE('',#453,#453,#423,.T.);
#543=EDGE_CURVE('',#454,#454,#424,.T.);
#544=EDGE_CURVE('',#454,#455,#219,.T.);
#545=EDGE_CURVE('',#455,#455,#425,.T.);
#546=EDGE_CURVE('',#456,#456,#426,.T.);
#547=EDGE_CURVE('',#456,#457,#220,.T.);
#548=EDGE_CURVE('',#457,#457,#427,.T.);
#549=EDGE_CURVE('',#458,#458,#428,.T.);
#550=EDGE_CURVE('',#458,#459,#221,.T.);
#551=EDGE_CURVE('',#459,#459,#429,.T.);
#552=EDGE_CURVE('',#460,#461,#222,.T.);
#553=EDGE_CURVE('',#460,#462,#223,.T.);
#554=EDGE_CURVE('',#462,#463,#224,.T.);
#555=EDGE_CURVE('',#461,#463,#225,.T.);
#556=EDGE_CURVE('',#461,#464,#226,.T.);
#557=EDGE_CURVE('',#463,#465,#227,.T.);
#558=EDGE_CURVE('',#464,#465,#228,.T.);
#559=EDGE_CURVE('',#466,#462,#229,.T.);
#560=EDGE_CURVE('',#465,#466,#230,.T.);
#561=EDGE_CURVE('',#467,#468,#231,.T.);
#562=EDGE_CURVE('',#467,#469,#232,.T.);
#563=EDGE_CURVE('',#469,#470,#233,.T.);
#564=EDGE_CURVE('',#468,#470,#234,.T.);
#565=EDGE_CURVE('',#471,#467,#235,.T.);
#566=EDGE_CURVE('',#472,#471,#236,.T.);
#567=EDGE_CURVE('',#472,#469,#237,.T.);
#568=EDGE_CURVE('',#473,#472,#238,.T.);
#569=EDGE_CURVE('',#470,#473,#239,.T.);
#570=EDGE_CURVE('',#474,#475,#240,.T.);
#571=EDGE_CURVE('',#474,#476,#241,.T.);
#572=EDGE_CURVE('',#476,#477,#242,.T.);
#573=EDGE_CURVE('',#475,#477,#243,.T.);
#574=EDGE_CURVE('',#478,#474,#244,.T.);
#575=EDGE_CURVE('',#478,#479,#245,.T.);
#576=EDGE_CURVE('',#479,#476,#246,.T.);
#577=EDGE_CURVE('',#480,#478,#247,.T.);
#578=EDGE_CURVE('',#481,#480,#248,.T.);
#579=EDGE_CURVE('',#481,#479,#249,.T.);
#580=EDGE_CURVE('',#477,#481,#250,.T.);
#581=EDGE_CURVE('',#482,#483,#251,.T.);
#582=EDGE_CURVE('',#484,#482,#252,.T.);
#583=EDGE_CURVE('',#484,#485,#253,.T.);
#584=EDGE_CURVE('',#483,#485,#254,.T.);
#585=EDGE_CURVE('',#486,#487,#255,.T.);
#586=EDGE_CURVE('',#486,#488,#256,.T.);
#587=EDGE_CURVE('',#488,#489,#257,.T.);
#588=EDGE_CURVE('',#487,#489,#258,.T.);
#589=EDGE_CURVE('',#483,#486,#259,.T.);
#590=EDGE_CURVE('',#485,#488,#260,.T.);
#591=EDGE_CURVE('',#489,#484,#261,.T.);
#592=EDGE_CURVE('',#466,#490,#262,.T.);
#593=EDGE_CURVE('',#491,#490,#263,.T.);
#594=EDGE_CURVE('',#492,#491,#264,.T.);
#595=EDGE_CURVE('',#475,#492,#265,.T.);
#596=EDGE_CURVE('',#464,#480,#266,.T.);
#597=EDGE_CURVE('',#487,#471,#267,.T.);
#598=EDGE_CURVE('',#493,#482,#268,.T.);
#599=EDGE_CURVE('',#493,#494,#269,.T.);
#600=EDGE_CURVE('',#495,#494,#270,.T.);
#601=EDGE_CURVE('',#473,#495,#271,.T.);
#602=EDGE_CURVE('',#468,#460,#272,.T.);
#603=EDGE_CURVE('',#490,#495,#273,.T.);
#604=EDGE_CURVE('',#492,#493,#274,.T.);
#605=EDGE_CURVE('',#494,#491,#275,.T.);
#606=EDGE_CURVE('',#496,#496,#430,.T.);
#607=EDGE_CURVE('',#497,#497,#431,.T.);
#608=EDGE_CURVE('',#498,#498,#432,.T.);
#609=EDGE_CURVE('',#499,#499,#433,.T.);
#610=EDGE_CURVE('',#500,#500,#434,.T.);
#611=EDGE_CURVE('',#501,#501,#435,.T.);
#612=EDGE_CURVE('',#502,#502,#436,.T.);
#613=EDGE_CURVE('',#503,#503,#437,.T.);
#614=EDGE_CURVE('',#504,#505,#276,.T.);
#615=EDGE_CURVE('',#504,#506,#277,.T.);
#616=EDGE_CURVE('',#506,#507,#278,.T.);
#617=EDGE_CURVE('',#507,#505,#279,.T.);
#618=EDGE_CURVE('',#508,#508,#438,.T.);
#619=EDGE_CURVE('',#509,#509,#439,.T.);
#620=EDGE_CURVE('',#510,#510,#440,.T.);
#621=EDGE_CURVE('',#511,#511,#441,.T.);
#622=EDGE_CURVE('',#512,#505,#442,.T.);
#623=EDGE_CURVE('',#512,#513,#280,.T.);
#624=EDGE_CURVE('',#504,#513,#443,.T.);
#625=EDGE_CURVE('',#513,#514,#281,.T.);
#626=EDGE_CURVE('',#514,#506,#282,.T.);
#627=EDGE_CURVE('',#508,#496,#283,.T.);
#628=EDGE_CURVE('',#509,#500,#284,.T.);
#629=EDGE_CURVE('',#510,#498,#285,.T.);
#630=EDGE_CURVE('',#511,#502,#286,.T.);
#631=EDGE_CURVE('',#501,#515,#287,.T.);
#632=EDGE_CURVE('',#515,#515,#444,.T.);
#633=EDGE_CURVE('',#499,#516,#288,.T.);
#634=EDGE_CURVE('',#516,#516,#445,.T.);
#635=EDGE_CURVE('',#497,#517,#289,.T.);
#636=EDGE_CURVE('',#517,#517,#446,.T.);
#637=EDGE_CURVE('',#503,#518,#290,.T.);
#638=EDGE_CURVE('',#518,#518,#447,.T.);
#639=EDGE_CURVE('',#519,#507,#291,.T.);
#640=EDGE_CURVE('',#519,#512,#292,.T.);
#641=EDGE_CURVE('',#514,#519,#293,.T.);
#642=EDGE_CURVE('',#520,#520,#448,.T.);
#643=EDGE_CURVE('',#520,#521,#294,.T.);
#644=EDGE_CURVE('',#521,#521,#449,.T.);
#645=EDGE_CURVE('',#522,#523,#295,.T.);
#646=EDGE_CURVE('',#523,#524,#296,.T.);
#647=EDGE_CURVE('',#525,#524,#297,.T.);
#648=EDGE_CURVE('',#522,#525,#298,.T.);
#649=EDGE_CURVE('',#526,#522,#299,.T.);
#650=EDGE_CURVE('',#527,#525,#300,.T.);
#651=EDGE_CURVE('',#526,#527,#301,.T.);
#652=EDGE_CURVE('',#528,#526,#302,.T.);
#653=EDGE_CURVE('',#529,#527,#303,.T.);
#654=EDGE_CURVE('',#528,#529,#304,.T.);
#655=EDGE_CURVE('',#523,#528,#305,.T.);
#656=EDGE_CURVE('',#524,#529,#306,.T.);
#657=EDGE_CURVE('',#530,#530,#450,.T.);
#658=EDGE_CURVE('',#530,#531,#307,.T.);
#659=EDGE_CURVE('',#531,#531,#451,.T.);
#660=EDGE_CURVE('',#532,#533,#308,.T.);
#661=EDGE_CURVE('',#533,#534,#309,.T.);
#662=EDGE_CURVE('',#535,#534,#310,.T.);
#663=EDGE_CURVE('',#532,#535,#311,.T.);
#664=EDGE_CURVE('',#536,#532,#312,.T.);
#665=EDGE_CURVE('',#537,#535,#313,.T.);
#666=EDGE_CURVE('',#536,#537,#314,.T.);
#667=EDGE_CURVE('',#538,#536,#315,.T.);
#668=EDGE_CURVE('',#539,#537,#316,.T.);
#669=EDGE_CURVE('',#538,#539,#317,.T.);
#670=EDGE_CURVE('',#533,#538,#318,.T.);
#671=EDGE_CURVE('',#534,#539,#319,.T.);
#672=ORIENTED_EDGE('',*,*,#540,.T.);
#673=ORIENTED_EDGE('',*,*,#541,.T.);
#674=ORIENTED_EDGE('',*,*,#542,.F.);
#675=ORIENTED_EDGE('',*,*,#541,.F.);
#676=ORIENTED_EDGE('',*,*,#543,.T.);
#677=ORIENTED_EDGE('',*,*,#544,.T.);
#678=ORIENTED_EDGE('',*,*,#545,.F.);
#679=ORIENTED_EDGE('',*,*,#544,.F.);
#680=ORIENTED_EDGE('',*,*,#546,.T.);
#681=ORIENTED_EDGE('',*,*,#547,.T.);
#682=ORIENTED_EDGE('',*,*,#548,.F.);
#683=ORIENTED_EDGE('',*,*,#547,.F.);
#684=ORIENTED_EDGE('',*,*,#549,.T.);
#685=ORIENTED_EDGE('',*,*,#550,.T.);
#686=ORIENTED_EDGE('',*,*,#551,.F.);
#687=ORIENTED_EDGE('',*,*,#550,.F.);
#688=ORIENTED_EDGE('',*,*,#552,.F.);
#689=ORIENTED_EDGE('',*,*,#553,.T.);
#690=ORIENTED_EDGE('',*,*,#554,.T.);
#691=ORIENTED_EDGE('',*,*,#555,.F.);
#692=ORIENTED_EDGE('',*,*,#556,.F.);
#693=ORIENTED_EDGE('',*,*,#555,.T.);
#694=ORIENTED_EDGE('',*,*,#557,.T.);
#695=ORIENTED_EDGE('',*,*,#558,.F.);
#696=ORIENTED_EDGE('',*,*,#557,.F.);
#697=ORIENTED_EDGE('',*,*,#554,.F.);
#698=ORIENTED_EDGE('',*,*,#559,.F.);
#699=ORIENTED_EDGE('',*,*,#560,.F.);
#700=ORIENTED_EDGE('',*,*,#540,.F.);
#701=ORIENTED_EDGE('',*,*,#561,.F.);
#702=ORIENTED_EDGE('',*,*,#562,.T.);
#703=ORIENTED_EDGE('',*,*,#563,.T.);
#704=ORIENTED_EDGE('',*,*,#564,.F.);
#705=ORIENTED_EDGE('',*,*,#565,.F.);
#706=ORIENTED_EDGE('',*,*,#566,.F.);
#707=ORIENTED_EDGE('',*,*,#567,.T.);
#708=ORIENTED_EDGE('',*,*,#562,.F.);
#709=ORIENTED_EDGE('',*,*,#568,.F.);
#710=ORIENTED_EDGE('',*,*,#569,.F.);
#711=ORIENTED_EDGE('',*,*,#563,.F.);
#712=ORIENTED_EDGE('',*,*,#567,.F.);
#713=ORIENTED_EDGE('',*,*,#546,.F.);
#714=ORIENTED_EDGE('',*,*,#570,.F.);
#715=ORIENTED_EDGE('',*,*,#571,.T.);
#716=ORIENTED_EDGE('',*,*,#572,.T.);
#717=ORIENTED_EDGE('',*,*,#573,.F.);
#718=ORIENTED_EDGE('',*,*,#574,.F.);
#719=ORIENTED_EDGE('',*,*,#575,.T.);
#720=ORIENTED_EDGE('',*,*,#576,.T.);
#721=ORIENTED_EDGE('',*,*,#571,.F.);
#722=ORIENTED_EDGE('',*,*,#577,.F.);
#723=ORIENTED_EDGE('',*,*,#578,.F.);
#724=ORIENTED_EDGE('',*,*,#579,.T.);
#725=ORIENTED_EDGE('',*,*,#575,.F.);
#726=ORIENTED_EDGE('',*,*,#579,.F.);
#727=ORIENTED_EDGE('',*,*,#580,.F.);
#728=ORIENTED_EDGE('',*,*,#572,.F.);
#729=ORIENTED_EDGE('',*,*,#576,.F.);
#730=ORIENTED_EDGE('',*,*,#543,.F.);
#731=ORIENTED_EDGE('',*,*,#581,.F.);
#732=ORIENTED_EDGE('',*,*,#582,.F.);
#733=ORIENTED_EDGE('',*,*,#583,.T.);
#734=ORIENTED_EDGE('',*,*,#584,.F.);
#735=ORIENTED_EDGE('',*,*,#585,.F.);
#736=ORIENTED_EDGE('',*,*,#586,.T.);
#737=ORIENTED_EDGE('',*,*,#587,.T.);
#738=ORIENTED_EDGE('',*,*,#588,.F.);
#739=ORIENTED_EDGE('',*,*,#589,.F.);
#740=ORIENTED_EDGE('',*,*,#584,.T.);
#741=ORIENTED_EDGE('',*,*,#590,.T.);
#742=ORIENTED_EDGE('',*,*,#586,.F.);
#743=ORIENTED_EDGE('',*,*,#590,.F.);
#744=ORIENTED_EDGE('',*,*,#583,.F.);
#745=ORIENTED_EDGE('',*,*,#591,.F.);
#746=ORIENTED_EDGE('',*,*,#587,.F.);
#747=ORIENTED_EDGE('',*,*,#549,.F.);
#748=ORIENTED_EDGE('',*,*,#558,.T.);
#749=ORIENTED_EDGE('',*,*,#560,.T.);
#750=ORIENTED_EDGE('',*,*,#592,.T.);
#751=ORIENTED_EDGE('',*,*,#593,.F.);
#752=ORIENTED_EDGE('',*,*,#594,.F.);
#753=ORIENTED_EDGE('',*,*,#595,.F.);
#754=ORIENTED_EDGE('',*,*,#573,.T.);
#755=ORIENTED_EDGE('',*,*,#580,.T.);
#756=ORIENTED_EDGE('',*,*,#578,.T.);
#757=ORIENTED_EDGE('',*,*,#596,.F.);
#758=ORIENTED_EDGE('',*,*,#568,.T.);
#759=ORIENTED_EDGE('',*,*,#566,.T.);
#760=ORIENTED_EDGE('',*,*,#597,.F.);
#761=ORIENTED_EDGE('',*,*,#588,.T.);
#762=ORIENTED_EDGE('',*,*,#591,.T.);
#763=ORIENTED_EDGE('',*,*,#582,.T.);
#764=ORIENTED_EDGE('',*,*,#598,.F.);
#765=ORIENTED_EDGE('',*,*,#599,.T.);
#766=ORIENTED_EDGE('',*,*,#600,.F.);
#767=ORIENTED_EDGE('',*,*,#601,.F.);
#768=ORIENTED_EDGE('',*,*,#602,.F.);
#769=ORIENTED_EDGE('',*,*,#564,.T.);
#770=ORIENTED_EDGE('',*,*,#569,.T.);
#771=ORIENTED_EDGE('',*,*,#601,.T.);
#772=ORIENTED_EDGE('',*,*,#603,.F.);
#773=ORIENTED_EDGE('',*,*,#592,.F.);
#774=ORIENTED_EDGE('',*,*,#559,.T.);
#775=ORIENTED_EDGE('',*,*,#553,.F.);
#776=ORIENTED_EDGE('',*,*,#604,.F.);
#777=ORIENTED_EDGE('',*,*,#594,.T.);
#778=ORIENTED_EDGE('',*,*,#605,.F.);
#779=ORIENTED_EDGE('',*,*,#599,.F.);
#780=ORIENTED_EDGE('',*,*,#606,.F.);
#781=ORIENTED_EDGE('',*,*,#607,.F.);
#782=ORIENTED_EDGE('',*,*,#608,.F.);
#783=ORIENTED_EDGE('',*,*,#609,.F.);
#784=ORIENTED_EDGE('',*,*,#610,.F.);
#785=ORIENTED_EDGE('',*,*,#611,.T.);
#786=ORIENTED_EDGE('',*,*,#612,.F.);
#787=ORIENTED_EDGE('',*,*,#613,.T.);
#788=ORIENTED_EDGE('',*,*,#614,.F.);
#789=ORIENTED_EDGE('',*,*,#615,.T.);
#790=ORIENTED_EDGE('',*,*,#616,.T.);
#791=ORIENTED_EDGE('',*,*,#617,.T.);
#792=ORIENTED_EDGE('',*,*,#618,.T.);
#793=ORIENTED_EDGE('',*,*,#619,.T.);
#794=ORIENTED_EDGE('',*,*,#620,.T.);
#795=ORIENTED_EDGE('',*,*,#621,.T.);
#796=ORIENTED_EDGE('',*,*,#556,.T.);
#797=ORIENTED_EDGE('',*,*,#596,.T.);
#798=ORIENTED_EDGE('',*,*,#577,.T.);
#799=ORIENTED_EDGE('',*,*,#574,.T.);
#800=ORIENTED_EDGE('',*,*,#570,.T.);
#801=ORIENTED_EDGE('',*,*,#595,.T.);
#802=ORIENTED_EDGE('',*,*,#604,.T.);
#803=ORIENTED_EDGE('',*,*,#598,.T.);
#804=ORIENTED_EDGE('',*,*,#581,.T.);
#805=ORIENTED_EDGE('',*,*,#589,.T.);
#806=ORIENTED_EDGE('',*,*,#585,.T.);
#807=ORIENTED_EDGE('',*,*,#597,.T.);
#808=ORIENTED_EDGE('',*,*,#565,.T.);
#809=ORIENTED_EDGE('',*,*,#561,.T.);
#810=ORIENTED_EDGE('',*,*,#602,.T.);
#811=ORIENTED_EDGE('',*,*,#552,.T.);
#812=ORIENTED_EDGE('',*,*,#622,.F.);
#813=ORIENTED_EDGE('',*,*,#623,.T.);
#814=ORIENTED_EDGE('',*,*,#624,.F.);
#815=ORIENTED_EDGE('',*,*,#614,.T.);
#816=ORIENTED_EDGE('',*,*,#624,.T.);
#817=ORIENTED_EDGE('',*,*,#625,.T.);
#818=ORIENTED_EDGE('',*,*,#626,.T.);
#819=ORIENTED_EDGE('',*,*,#615,.F.);
#820=ORIENTED_EDGE('',*,*,#618,.F.);
#821=ORIENTED_EDGE('',*,*,#627,.T.);
#822=ORIENTED_EDGE('',*,*,#606,.T.);
#823=ORIENTED_EDGE('',*,*,#627,.F.);
#824=ORIENTED_EDGE('',*,*,#619,.F.);
#825=ORIENTED_EDGE('',*,*,#628,.T.);
#826=ORIENTED_EDGE('',*,*,#610,.T.);
#827=ORIENTED_EDGE('',*,*,#628,.F.);
#828=ORIENTED_EDGE('',*,*,#620,.F.);
#829=ORIENTED_EDGE('',*,*,#629,.T.);
#830=ORIENTED_EDGE('',*,*,#608,.T.);
#831=ORIENTED_EDGE('',*,*,#629,.F.);
#832=ORIENTED_EDGE('',*,*,#621,.F.);
#833=ORIENTED_EDGE('',*,*,#630,.T.);
#834=ORIENTED_EDGE('',*,*,#612,.T.);
#835=ORIENTED_EDGE('',*,*,#630,.F.);
#836=ORIENTED_EDGE('',*,*,#611,.F.);
#837=ORIENTED_EDGE('',*,*,#631,.T.);
#838=ORIENTED_EDGE('',*,*,#632,.T.);
#839=ORIENTED_EDGE('',*,*,#631,.F.);
#840=ORIENTED_EDGE('',*,*,#609,.T.);
#841=ORIENTED_EDGE('',*,*,#633,.T.);
#842=ORIENTED_EDGE('',*,*,#634,.T.);
#843=ORIENTED_EDGE('',*,*,#633,.F.);
#844=ORIENTED_EDGE('',*,*,#607,.T.);
#845=ORIENTED_EDGE('',*,*,#635,.T.);
#846=ORIENTED_EDGE('',*,*,#636,.T.);
#847=ORIENTED_EDGE('',*,*,#635,.F.);
#848=ORIENTED_EDGE('',*,*,#613,.F.);
#849=ORIENTED_EDGE('',*,*,#637,.T.);
#850=ORIENTED_EDGE('',*,*,#638,.T.);
#851=ORIENTED_EDGE('',*,*,#637,.F.);
#852=ORIENTED_EDGE('',*,*,#622,.T.);
#853=ORIENTED_EDGE('',*,*,#617,.F.);
#854=ORIENTED_EDGE('',*,*,#639,.F.);
#855=ORIENTED_EDGE('',*,*,#640,.T.);
#856=ORIENTED_EDGE('',*,*,#641,.T.);
#857=ORIENTED_EDGE('',*,*,#639,.T.);
#858=ORIENTED_EDGE('',*,*,#616,.F.);
#859=ORIENTED_EDGE('',*,*,#626,.F.);
#860=ORIENTED_EDGE('',*,*,#625,.F.);
#861=ORIENTED_EDGE('',*,*,#623,.F.);
#862=ORIENTED_EDGE('',*,*,#640,.F.);
#863=ORIENTED_EDGE('',*,*,#641,.F.);
#864=ORIENTED_EDGE('',*,*,#548,.T.);
#865=ORIENTED_EDGE('',*,*,#551,.T.);
#866=ORIENTED_EDGE('',*,*,#603,.T.);
#867=ORIENTED_EDGE('',*,*,#600,.T.);
#868=ORIENTED_EDGE('',*,*,#605,.T.);
#869=ORIENTED_EDGE('',*,*,#593,.T.);
#870=ORIENTED_EDGE('',*,*,#638,.F.);
#871=ORIENTED_EDGE('',*,*,#636,.F.);
#872=ORIENTED_EDGE('',*,*,#634,.F.);
#873=ORIENTED_EDGE('',*,*,#632,.F.);
#874=ORIENTED_EDGE('',*,*,#545,.T.);
#875=ORIENTED_EDGE('',*,*,#542,.T.);
#876=ORIENTED_EDGE('',*,*,#642,.F.);
#877=ORIENTED_EDGE('',*,*,#643,.T.);
#878=ORIENTED_EDGE('',*,*,#644,.T.);
#879=ORIENTED_EDGE('',*,*,#643,.F.);
#880=ORIENTED_EDGE('',*,*,#645,.T.);
#881=ORIENTED_EDGE('',*,*,#646,.T.);
#882=ORIENTED_EDGE('',*,*,#647,.F.);
#883=ORIENTED_EDGE('',*,*,#648,.F.);
#884=ORIENTED_EDGE('',*,*,#649,.T.);
#885=ORIENTED_EDGE('',*,*,#648,.T.);
#886=ORIENTED_EDGE('',*,*,#650,.F.);
#887=ORIENTED_EDGE('',*,*,#651,.F.);
#888=ORIENTED_EDGE('',*,*,#652,.T.);
#889=ORIENTED_EDGE('',*,*,#651,.T.);
#890=ORIENTED_EDGE('',*,*,#653,.F.);
#891=ORIENTED_EDGE('',*,*,#654,.F.);
#892=ORIENTED_EDGE('',*,*,#655,.T.);
#893=ORIENTED_EDGE('',*,*,#654,.T.);
#894=ORIENTED_EDGE('',*,*,#656,.F.);
#895=ORIENTED_EDGE('',*,*,#646,.F.);
#896=ORIENTED_EDGE('',*,*,#655,.F.);
#897=ORIENTED_EDGE('',*,*,#645,.F.);
#898=ORIENTED_EDGE('',*,*,#649,.F.);
#899=ORIENTED_EDGE('',*,*,#652,.F.);
#900=ORIENTED_EDGE('',*,*,#644,.F.);
#901=ORIENTED_EDGE('',*,*,#656,.T.);
#902=ORIENTED_EDGE('',*,*,#653,.T.);
#903=ORIENTED_EDGE('',*,*,#650,.T.);
#904=ORIENTED_EDGE('',*,*,#647,.T.);
#905=ORIENTED_EDGE('',*,*,#642,.T.);
#906=ORIENTED_EDGE('',*,*,#657,.F.);
#907=ORIENTED_EDGE('',*,*,#658,.T.);
#908=ORIENTED_EDGE('',*,*,#659,.T.);
#909=ORIENTED_EDGE('',*,*,#658,.F.);
#910=ORIENTED_EDGE('',*,*,#660,.T.);
#911=ORIENTED_EDGE('',*,*,#661,.T.);
#912=ORIENTED_EDGE('',*,*,#662,.F.);
#913=ORIENTED_EDGE('',*,*,#663,.F.);
#914=ORIENTED_EDGE('',*,*,#664,.T.);
#915=ORIENTED_EDGE('',*,*,#663,.T.);
#916=ORIENTED_EDGE('',*,*,#665,.F.);
#917=ORIENTED_EDGE('',*,*,#666,.F.);
#918=ORIENTED_EDGE('',*,*,#667,.T.);
#919=ORIENTED_EDGE('',*,*,#666,.T.);
#920=ORIENTED_EDGE('',*,*,#668,.F.);
#921=ORIENTED_EDGE('',*,*,#669,.F.);
#922=ORIENTED_EDGE('',*,*,#670,.T.);
#923=ORIENTED_EDGE('',*,*,#669,.T.);
#924=ORIENTED_EDGE('',*,*,#671,.F.);
#925=ORIENTED_EDGE('',*,*,#661,.F.);
#926=ORIENTED_EDGE('',*,*,#670,.F.);
#927=ORIENTED_EDGE('',*,*,#660,.F.);
#928=ORIENTED_EDGE('',*,*,#664,.F.);
#929=ORIENTED_EDGE('',*,*,#667,.F.);
#930=ORIENTED_EDGE('',*,*,#659,.F.);
#931=ORIENTED_EDGE('',*,*,#671,.T.);
#932=ORIENTED_EDGE('',*,*,#668,.T.);
#933=ORIENTED_EDGE('',*,*,#665,.T.);
#934=ORIENTED_EDGE('',*,*,#662,.T.);
#935=ORIENTED_EDGE('',*,*,#657,.T.);
#936=CYLINDRICAL_SURFACE('',#1021,0.25);
#937=CYLINDRICAL_SURFACE('',#1024,0.249999999999999);
#938=CYLINDRICAL_SURFACE('',#1027,0.289999999999999);
#939=CYLINDRICAL_SURFACE('',#1030,0.290000000000001);
#940=CYLINDRICAL_SURFACE('',#1068,1.);
#941=CYLINDRICAL_SURFACE('',#1072,0.525000000000002);
#942=CYLINDRICAL_SURFACE('',#1073,0.399999999999999);
#943=CYLINDRICAL_SURFACE('',#1074,0.525);
#944=CYLINDRICAL_SURFACE('',#1075,0.400000000000001);
#945=CYLINDRICAL_SURFACE('',#1076,0.25);
#946=CYLINDRICAL_SURFACE('',#1078,0.35);
#947=CYLINDRICAL_SURFACE('',#1080,0.350000000000001);
#948=CYLINDRICAL_SURFACE('',#1082,0.25);
#949=CYLINDRICAL_SURFACE('',#1087,0.289999999999999);
#950=CYLINDRICAL_SURFACE('',#1096,0.290000000000001);
#951=ADVANCED_FACE('',(#84),#936,.F.);
#952=ADVANCED_FACE('',(#85),#937,.F.);
#953=ADVANCED_FACE('',(#86),#938,.F.);
#954=ADVANCED_FACE('',(#87),#939,.F.);
#955=ADVANCED_FACE('',(#88),#45,.F.);
#956=ADVANCED_FACE('',(#89),#46,.F.);
#957=ADVANCED_FACE('',(#90,#19),#47,.T.);
#958=ADVANCED_FACE('',(#91),#48,.F.);
#959=ADVANCED_FACE('',(#92),#49,.F.);
#960=ADVANCED_FACE('',(#93,#20),#50,.T.);
#961=ADVANCED_FACE('',(#94),#51,.F.);
#962=ADVANCED_FACE('',(#95),#52,.F.);
#963=ADVANCED_FACE('',(#96),#53,.F.);
#964=ADVANCED_FACE('',(#97,#21),#54,.T.);
#965=ADVANCED_FACE('',(#98),#55,.F.);
#966=ADVANCED_FACE('',(#99),#56,.F.);
#967=ADVANCED_FACE('',(#100),#57,.F.);
#968=ADVANCED_FACE('',(#101,#22),#58,.T.);
#969=ADVANCED_FACE('',(#102),#59,.F.);
#970=ADVANCED_FACE('',(#103),#60,.F.);
#971=ADVANCED_FACE('',(#104),#61,.F.);
#972=ADVANCED_FACE('',(#105),#62,.F.);
#973=ADVANCED_FACE('',(#106,#23),#63,.T.);
#974=ADVANCED_FACE('',(#107,#24),#64,.T.);
#975=ADVANCED_FACE('',(#108,#25),#65,.T.);
#976=ADVANCED_FACE('',(#109,#26),#66,.T.);
#977=ADVANCED_FACE('',(#110,#27,#28,#29,#30,#31),#67,.T.);
#978=ADVANCED_FACE('',(#111),#940,.T.);
#979=ADVANCED_FACE('',(#112),#68,.T.);
#980=ADVANCED_FACE('',(#113),#941,.F.);
#981=ADVANCED_FACE('',(#114),#942,.F.);
#982=ADVANCED_FACE('',(#115),#943,.F.);
#983=ADVANCED_FACE('',(#116),#944,.F.);
#984=ADVANCED_FACE('',(#117),#945,.F.);
#985=ADVANCED_FACE('',(#118),#946,.F.);
#986=ADVANCED_FACE('',(#119),#947,.F.);
#987=ADVANCED_FACE('',(#120),#948,.F.);
#988=ADVANCED_FACE('',(#121),#69,.T.);
#989=ADVANCED_FACE('',(#122),#70,.T.);
#990=ADVANCED_FACE('',(#123,#32,#33,#34,#35,#36,#37,#38,#39,#40),#71,.F.);
#991=ADVANCED_FACE('',(#124),#949,.F.);
#992=ADVANCED_FACE('',(#125),#72,.T.);
#993=ADVANCED_FACE('',(#126),#73,.T.);
#994=ADVANCED_FACE('',(#127),#74,.T.);
#995=ADVANCED_FACE('',(#128),#75,.T.);
#996=ADVANCED_FACE('',(#129,#41),#76,.T.);
#997=ADVANCED_FACE('',(#130,#42),#77,.F.);
#998=ADVANCED_FACE('',(#131),#950,.F.);
#999=ADVANCED_FACE('',(#132),#78,.T.);
#1000=ADVANCED_FACE('',(#133),#79,.T.);
#1001=ADVANCED_FACE('',(#134),#80,.T.);
#1002=ADVANCED_FACE('',(#135),#81,.T.);
#1003=ADVANCED_FACE('',(#136,#43),#82,.T.);
#1004=ADVANCED_FACE('',(#137,#44),#83,.F.);
#1005=CLOSED_SHELL('',(#951,#952,#953,#954,#955,#956,#957,#958,#959,#960,
#961,#962,#963,#964,#965,#966,#967,#968,#969,#970,#971,#972,#973,#974,#975,
#976,#977,#978,#979,#980,#981,#982,#983,#984,#985,#986,#987,#988,#989,#990));
#1006=CLOSED_SHELL('',(#991,#992,#993,#994,#995,#996,#997));
#1007=CLOSED_SHELL('',(#998,#999,#1000,#1001,#1002,#1003,#1004));
#1008=DERIVED_UNIT_ELEMENT(#1010,1.);
#1009=DERIVED_UNIT_ELEMENT(#1657,-3.);
#1010=(
MASS_UNIT()
NAMED_UNIT(*)
SI_UNIT(.KILO.,.GRAM.)
);
#1011=DERIVED_UNIT((#1008,#1009));
#1012=MEASURE_REPRESENTATION_ITEM('density measure',
POSITIVE_RATIO_MEASURE(1060.),#1011);
#1013=PROPERTY_DEFINITION_REPRESENTATION(#1018,#1015);
#1014=PROPERTY_DEFINITION_REPRESENTATION(#1019,#1016);
#1015=REPRESENTATION('material name',(#1017),#1654);
#1016=REPRESENTATION('density',(#1012),#1654);
#1017=DESCRIPTIVE_REPRESENTATION_ITEM('ABS \X2\D50CB77CC2A4D2F1\X0\',
'ABS \X2\D50CB77CC2A4D2F1\X0\');
#1018=PROPERTY_DEFINITION('material property','material name',#1664);
#1019=PROPERTY_DEFINITION('material property','density of part',#1664);
#1020=AXIS2_PLACEMENT_3D('',#1377,#1105,#1106);
#1021=AXIS2_PLACEMENT_3D('',#1378,#1107,#1108);
#1022=AXIS2_PLACEMENT_3D('',#1380,#1109,#1110);
#1023=AXIS2_PLACEMENT_3D('',#1383,#1112,#1113);
#1024=AXIS2_PLACEMENT_3D('',#1384,#1114,#1115);
#1025=AXIS2_PLACEMENT_3D('',#1386,#1116,#1117);
#1026=AXIS2_PLACEMENT_3D('',#1389,#1119,#1120);
#1027=AXIS2_PLACEMENT_3D('',#1390,#1121,#1122);
#1028=AXIS2_PLACEMENT_3D('',#1392,#1123,#1124);
#1029=AXIS2_PLACEMENT_3D('',#1395,#1126,#1127);
#1030=AXIS2_PLACEMENT_3D('',#1396,#1128,#1129);
#1031=AXIS2_PLACEMENT_3D('',#1398,#1130,#1131);
#1032=AXIS2_PLACEMENT_3D('',#1401,#1133,#1134);
#1033=AXIS2_PLACEMENT_3D('',#1402,#1135,#1136);
#1034=AXIS2_PLACEMENT_3D('',#1411,#1141,#1142);
#1035=AXIS2_PLACEMENT_3D('',#1417,#1146,#1147);
#1036=AXIS2_PLACEMENT_3D('',#1421,#1150,#1151);
#1037=AXIS2_PLACEMENT_3D('',#1430,#1156,#1157);
#1038=AXIS2_PLACEMENT_3D('',#1436,#1161,#1162);
#1039=AXIS2_PLACEMENT_3D('',#1440,#1165,#1166);
#1040=AXIS2_PLACEMENT_3D('',#1449,#1171,#1172);
#1041=AXIS2_PLACEMENT_3D('',#1455,#1176,#1177);
#1042=AXIS2_PLACEMENT_3D('',#1461,#1181,#1182);
#1043=AXIS2_PLACEMENT_3D('',#1463,#1184,#1185);
#1044=AXIS2_PLACEMENT_3D('',#1472,#1190,#1191);
#1045=AXIS2_PLACEMENT_3D('',#1481,#1196,#1197);
#1046=AXIS2_PLACEMENT_3D('',#1484,#1200,#1201);
#1047=AXIS2_PLACEMENT_3D('',#1486,#1203,#1204);
#1048=AXIS2_PLACEMENT_3D('',#1495,#1210,#1211);
#1049=AXIS2_PLACEMENT_3D('',#1504,#1217,#1218);
#1050=AXIS2_PLACEMENT_3D('',#1507,#1221,#1222);
#1051=AXIS2_PLACEMENT_3D('',#1510,#1225,#1226);
#1052=AXIS2_PLACEMENT_3D('',#1512,#1227,#1228);
#1053=AXIS2_PLACEMENT_3D('',#1514,#1229,#1230);
#1054=AXIS2_PLACEMENT_3D('',#1515,#1231,#1232);
#1055=AXIS2_PLACEMENT_3D('',#1517,#1233,#1234);
#1056=AXIS2_PLACEMENT_3D('',#1519,#1235,#1236);
#1057=AXIS2_PLACEMENT_3D('',#1520,#1237,#1238);
#1058=AXIS2_PLACEMENT_3D('',#1522,#1239,#1240);
#1059=AXIS2_PLACEMENT_3D('',#1524,#1241,#1242);
#1060=AXIS2_PLACEMENT_3D('',#1525,#1243,#1244);
#1061=AXIS2_PLACEMENT_3D('',#1527,#1245,#1246);
#1062=AXIS2_PLACEMENT_3D('',#1529,#1247,#1248);
#1063=AXIS2_PLACEMENT_3D('',#1530,#1249,#1250);
#1064=AXIS2_PLACEMENT_3D('',#1540,#1255,#1256);
#1065=AXIS2_PLACEMENT_3D('',#1542,#1257,#1258);
#1066=AXIS2_PLACEMENT_3D('',#1544,#1259,#1260);
#1067=AXIS2_PLACEMENT_3D('',#1546,#1261,#1262);
#1068=AXIS2_PLACEMENT_3D('',#1547,#1263,#1264);
#1069=AXIS2_PLACEMENT_3D('',#1549,#1265,#1266);
#1070=AXIS2_PLACEMENT_3D('',#1552,#1268,#1269);
#1071=AXIS2_PLACEMENT_3D('',#1553,#1270,#1271);
#1072=AXIS2_PLACEMENT_3D('',#1557,#1274,#1275);
#1073=AXIS2_PLACEMENT_3D('',#1559,#1277,#1278);
#1074=AXIS2_PLACEMENT_3D('',#1561,#1280,#1281);
#1075=AXIS2_PLACEMENT_3D('',#1563,#1283,#1284);
#1076=AXIS2_PLACEMENT_3D('',#1565,#1286,#1287);
#1077=AXIS2_PLACEMENT_3D('',#1568,#1289,#1290);
#1078=AXIS2_PLACEMENT_3D('',#1569,#1291,#1292);
#1079=AXIS2_PLACEMENT_3D('',#1572,#1294,#1295);
#1080=AXIS2_PLACEMENT_3D('',#1573,#1296,#1297);
#1081=AXIS2_PLACEMENT_3D('',#1576,#1299,#1300);
#1082=AXIS2_PLACEMENT_3D('',#1577,#1301,#1302);
#1083=AXIS2_PLACEMENT_3D('',#1580,#1304,#1305);
#1084=AXIS2_PLACEMENT_3D('',#1581,#1306,#1307);
#1085=AXIS2_PLACEMENT_3D('',#1585,#1310,#1311);
#1086=AXIS2_PLACEMENT_3D('',#1587,#1313,#1314);
#1087=AXIS2_PLACEMENT_3D('',#1588,#1315,#1316);
#1088=AXIS2_PLACEMENT_3D('',#1590,#1317,#1318);
#1089=AXIS2_PLACEMENT_3D('',#1593,#1320,#1321);
#1090=AXIS2_PLACEMENT_3D('',#1594,#1322,#1323);
#1091=AXIS2_PLACEMENT_3D('',#1603,#1328,#1329);
#1092=AXIS2_PLACEMENT_3D('',#1609,#1333,#1334);
#1093=AXIS2_PLACEMENT_3D('',#1615,#1338,#1339);
#1094=AXIS2_PLACEMENT_3D('',#1618,#1342,#1343);
#1095=AXIS2_PLACEMENT_3D('',#1619,#1344,#1345);
#1096=AXIS2_PLACEMENT_3D('',#1620,#1346,#1347);
#1097=AXIS2_PLACEMENT_3D('',#1622,#1348,#1349);
#1098=AXIS2_PLACEMENT_3D('',#1625,#1351,#1352);
#1099=AXIS2_PLACEMENT_3D('',#1626,#1353,#1354);
#1100=AXIS2_PLACEMENT_3D('',#1635,#1359,#1360);
#1101=AXIS2_PLACEMENT_3D('',#1641,#1364,#1365);
#1102=AXIS2_PLACEMENT_3D('',#1647,#1369,#1370);
#1103=AXIS2_PLACEMENT_3D('',#1650,#1373,#1374);
#1104=AXIS2_PLACEMENT_3D('',#1651,#1375,#1376);
#1105=DIRECTION('axis',(0.,0.,1.));
#1106=DIRECTION('refdir',(1.,0.,0.));
#1107=DIRECTION('center_axis',(0.,0.,-1.));
#1108=DIRECTION('ref_axis',(-1.,0.,0.));
#1109=DIRECTION('center_axis',(0.,0.,1.));
#1110=DIRECTION('ref_axis',(-1.,0.,0.));
#1111=DIRECTION('',(0.,0.,-1.));
#1112=DIRECTION('center_axis',(0.,0.,1.));
#1113=DIRECTION('ref_axis',(-1.,0.,0.));
#1114=DIRECTION('center_axis',(0.,0.,-1.));
#1115=DIRECTION('ref_axis',(-1.,0.,0.));
#1116=DIRECTION('center_axis',(0.,0.,1.));
#1117=DIRECTION('ref_axis',(-1.,0.,0.));
#1118=DIRECTION('',(0.,0.,-1.));
#1119=DIRECTION('center_axis',(0.,0.,1.));
#1120=DIRECTION('ref_axis',(-1.,0.,0.));
#1121=DIRECTION('center_axis',(0.,0.,-1.));
#1122=DIRECTION('ref_axis',(-1.,0.,0.));
#1123=DIRECTION('center_axis',(0.,0.,1.));
#1124=DIRECTION('ref_axis',(-1.,0.,0.));
#1125=DIRECTION('',(0.,0.,-1.));
#1126=DIRECTION('center_axis',(0.,0.,1.));
#1127=DIRECTION('ref_axis',(-1.,0.,0.));
#1128=DIRECTION('center_axis',(0.,0.,-1.));
#1129=DIRECTION('ref_axis',(-1.,0.,0.));
#1130=DIRECTION('center_axis',(0.,0.,1.));
#1131=DIRECTION('ref_axis',(-1.,0.,0.));
#1132=DIRECTION('',(0.,0.,-1.));
#1133=DIRECTION('center_axis',(0.,0.,1.));
#1134=DIRECTION('ref_axis',(-1.,0.,0.));
#1135=DIRECTION('center_axis',(-1.,0.,0.));
#1136=DIRECTION('ref_axis',(0.,1.,0.));
#1137=DIRECTION('',(0.,1.,0.));
#1138=DIRECTION('',(0.,0.,-1.));
#1139=DIRECTION('',(0.,1.,0.));
#1140=DIRECTION('',(0.,0.,-1.));
#1141=DIRECTION('center_axis',(0.,1.,0.));
#1142=DIRECTION('ref_axis',(1.,0.,0.));
#1143=DIRECTION('',(1.,0.,0.));
#1144=DIRECTION('',(1.,0.,0.));
#1145=DIRECTION('',(0.,0.,-1.));
#1146=DIRECTION('center_axis',(0.,0.,1.));
#1147=DIRECTION('ref_axis',(-1.,0.,0.));
#1148=DIRECTION('',(-1.,0.,0.));
#1149=DIRECTION('',(0.,-1.,0.));
#1150=DIRECTION('center_axis',(1.,0.,0.));
#1151=DIRECTION('ref_axis',(0.,-1.,0.));
#1152=DIRECTION('',(0.,-1.,0.));
#1153=DIRECTION('',(0.,0.,-1.));
#1154=DIRECTION('',(0.,-1.,0.));
#1155=DIRECTION('',(0.,0.,-1.));
#1156=DIRECTION('center_axis',(0.,1.,0.));
#1157=DIRECTION('ref_axis',(1.,0.,0.));
#1158=DIRECTION('',(1.,0.,0.));
#1159=DIRECTION('',(0.,0.,1.));
#1160=DIRECTION('',(1.,0.,0.));
#1161=DIRECTION('center_axis',(0.,0.,1.));
#1162=DIRECTION('ref_axis',(-1.,0.,0.));
#1163=DIRECTION('',(0.,1.,0.));
#1164=DIRECTION('',(-1.,0.,0.));
#1165=DIRECTION('center_axis',(0.,1.,0.));
#1166=DIRECTION('ref_axis',(1.,0.,0.));
#1167=DIRECTION('',(1.,0.,0.));
#1168=DIRECTION('',(0.,0.,-1.));
#1169=DIRECTION('',(1.,0.,0.));
#1170=DIRECTION('',(0.,0.,-1.));
#1171=DIRECTION('center_axis',(-1.,0.,0.));
#1172=DIRECTION('ref_axis',(0.,1.,0.));
#1173=DIRECTION('',(0.,1.,0.));
#1174=DIRECTION('',(0.,0.,-1.));
#1175=DIRECTION('',(0.,1.,0.));
#1176=DIRECTION('center_axis',(0.,-1.,0.));
#1177=DIRECTION('ref_axis',(-1.,0.,0.));
#1178=DIRECTION('',(-1.,0.,0.));
#1179=DIRECTION('',(0.,0.,1.));
#1180=DIRECTION('',(-1.,0.,0.));
#1181=DIRECTION('center_axis',(0.,0.,1.));
#1182=DIRECTION('ref_axis',(-1.,0.,0.));
#1183=DIRECTION('',(0.,-1.,0.));
#1184=DIRECTION('center_axis',(0.,1.,0.));
#1185=DIRECTION('ref_axis',(1.,0.,0.));
#1186=DIRECTION('',(1.,0.,0.));
#1187=DIRECTION('',(0.,0.,1.));
#1188=DIRECTION('',(1.,0.,0.));
#1189=DIRECTION('',(0.,0.,-1.));
#1190=DIRECTION('center_axis',(0.,-1.,0.));
#1191=DIRECTION('ref_axis',(-1.,0.,0.));
#1192=DIRECTION('',(-1.,0.,0.));
#1193=DIRECTION('',(0.,0.,-1.));
#1194=DIRECTION('',(-1.,0.,0.));
#1195=DIRECTION('',(0.,0.,-1.));
#1196=DIRECTION('center_axis',(1.,0.,0.));
#1197=DIRECTION('ref_axis',(0.,-1.,0.));
#1198=DIRECTION('',(0.,-1.,0.));
#1199=DIRECTION('',(0.,-1.,0.));
#1200=DIRECTION('center_axis',(0.,0.,1.));
#1201=DIRECTION('ref_axis',(-1.,0.,0.));
#1202=DIRECTION('',(0.,1.,0.));
#1203=DIRECTION('center_axis',(-1.,0.,0.));
#1204=DIRECTION('ref_axis',(0.,1.,0.));
#1205=DIRECTION('',(0.,0.,-1.));
#1206=DIRECTION('',(0.,-1.,0.));
#1207=DIRECTION('',(0.,0.,-1.));
#1208=DIRECTION('',(0.,1.,0.));
#1209=DIRECTION('',(0.,1.,0.));
#1210=DIRECTION('center_axis',(1.,0.,0.));
#1211=DIRECTION('ref_axis',(0.,-1.,0.));
#1212=DIRECTION('',(0.,-1.,0.));
#1213=DIRECTION('',(0.,-1.,0.));
#1214=DIRECTION('',(0.,0.,-1.));
#1215=DIRECTION('',(0.,1.,0.));
#1216=DIRECTION('',(0.,0.,-1.));
#1217=DIRECTION('center_axis',(0.,-1.,0.));
#1218=DIRECTION('ref_axis',(-1.,0.,0.));
#1219=DIRECTION('',(-1.,0.,0.));
#1220=DIRECTION('',(1.,0.,0.));
#1221=DIRECTION('center_axis',(0.,1.,0.));
#1222=DIRECTION('ref_axis',(1.,0.,0.));
#1223=DIRECTION('',(1.,0.,0.));
#1224=DIRECTION('',(-1.,0.,0.));
#1225=DIRECTION('center_axis',(0.,0.,1.));
#1226=DIRECTION('ref_axis',(-1.,0.,0.));
#1227=DIRECTION('center_axis',(0.,0.,-1.));
#1228=DIRECTION('ref_axis',(-1.,0.,0.));
#1229=DIRECTION('center_axis',(0.,0.,1.));
#1230=DIRECTION('ref_axis',(1.,0.,0.));
#1231=DIRECTION('center_axis',(0.,0.,1.));
#1232=DIRECTION('ref_axis',(-1.,0.,0.));
#1233=DIRECTION('center_axis',(0.,0.,-1.));
#1234=DIRECTION('ref_axis',(-1.,0.,0.));
#1235=DIRECTION('center_axis',(0.,0.,1.));
#1236=DIRECTION('ref_axis',(1.,0.,0.));
#1237=DIRECTION('center_axis',(0.,0.,1.));
#1238=DIRECTION('ref_axis',(-1.,0.,0.));
#1239=DIRECTION('center_axis',(0.,0.,-1.));
#1240=DIRECTION('ref_axis',(-1.,0.,0.));
#1241=DIRECTION('center_axis',(0.,0.,-1.));
#1242=DIRECTION('ref_axis',(1.,0.,0.));
#1243=DIRECTION('center_axis',(0.,0.,1.));
#1244=DIRECTION('ref_axis',(-1.,0.,0.));
#1245=DIRECTION('center_axis',(0.,0.,-1.));
#1246=DIRECTION('ref_axis',(-1.,0.,0.));
#1247=DIRECTION('center_axis',(0.,0.,-1.));
#1248=DIRECTION('ref_axis',(1.,0.,0.));
#1249=DIRECTION('center_axis',(0.,0.,1.));
#1250=DIRECTION('ref_axis',(1.,0.,0.));
#1251=DIRECTION('',(-1.,0.,0.));
#1252=DIRECTION('',(0.,1.,0.));
#1253=DIRECTION('',(-1.,0.,0.));
#1254=DIRECTION('',(0.,-1.,0.));
#1255=DIRECTION('center_axis',(0.,0.,-1.));
#1256=DIRECTION('ref_axis',(-1.,0.,0.));
#1257=DIRECTION('center_axis',(0.,0.,-1.));
#1258=DIRECTION('ref_axis',(-1.,0.,0.));
#1259=DIRECTION('center_axis',(0.,0.,-1.));
#1260=DIRECTION('ref_axis',(-1.,0.,0.));
#1261=DIRECTION('center_axis',(0.,0.,-1.));
#1262=DIRECTION('ref_axis',(-1.,0.,0.));
#1263=DIRECTION('center_axis',(1.,0.,0.));
#1264=DIRECTION('ref_axis',(0.,-1.,0.));
#1265=DIRECTION('center_axis',(-1.,0.,0.));
#1266=DIRECTION('ref_axis',(0.,-1.,0.));
#1267=DIRECTION('',(1.,0.,0.));
#1268=DIRECTION('center_axis',(1.,0.,0.));
#1269=DIRECTION('ref_axis',(0.,-1.,0.));
#1270=DIRECTION('center_axis',(1.,0.,0.));
#1271=DIRECTION('ref_axis',(0.,1.,0.));
#1272=DIRECTION('',(0.,1.,0.));
#1273=DIRECTION('',(0.,0.,1.));
#1274=DIRECTION('center_axis',(0.,0.,-1.));
#1275=DIRECTION('ref_axis',(-1.,0.,0.));
#1276=DIRECTION('',(0.,0.,-1.));
#1277=DIRECTION('center_axis',(0.,0.,-1.));
#1278=DIRECTION('ref_axis',(-1.,0.,0.));
#1279=DIRECTION('',(0.,0.,-1.));
#1280=DIRECTION('center_axis',(0.,0.,-1.));
#1281=DIRECTION('ref_axis',(-1.,0.,0.));
#1282=DIRECTION('',(0.,0.,-1.));
#1283=DIRECTION('center_axis',(0.,0.,-1.));
#1284=DIRECTION('ref_axis',(-1.,0.,0.));
#1285=DIRECTION('',(0.,0.,-1.));
#1286=DIRECTION('center_axis',(0.,0.,1.));
#1287=DIRECTION('ref_axis',(1.,0.,0.));
#1288=DIRECTION('',(0.,0.,-1.));
#1289=DIRECTION('center_axis',(0.,0.,-1.));
#1290=DIRECTION('ref_axis',(1.,0.,0.));
#1291=DIRECTION('center_axis',(0.,0.,1.));
#1292=DIRECTION('ref_axis',(1.,0.,0.));
#1293=DIRECTION('',(0.,0.,-1.));
#1294=DIRECTION('center_axis',(0.,0.,-1.));
#1295=DIRECTION('ref_axis',(1.,0.,0.));
#1296=DIRECTION('center_axis',(0.,0.,1.));
#1297=DIRECTION('ref_axis',(1.,0.,0.));
#1298=DIRECTION('',(0.,0.,-1.));
#1299=DIRECTION('center_axis',(0.,0.,-1.));
#1300=DIRECTION('ref_axis',(1.,0.,0.));
#1301=DIRECTION('center_axis',(0.,0.,1.));
#1302=DIRECTION('ref_axis',(1.,0.,0.));
#1303=DIRECTION('',(0.,0.,-1.));
#1304=DIRECTION('center_axis',(0.,0.,-1.));
#1305=DIRECTION('ref_axis',(1.,0.,0.));
#1306=DIRECTION('center_axis',(-1.,0.,0.));
#1307=DIRECTION('ref_axis',(0.,-1.,0.));
#1308=DIRECTION('',(0.,0.,1.));
#1309=DIRECTION('',(0.,-1.,0.));
#1310=DIRECTION('center_axis',(0.,1.,0.));
#1311=DIRECTION('ref_axis',(-1.,0.,0.));
#1312=DIRECTION('',(-1.,0.,0.));
#1313=DIRECTION('center_axis',(0.,0.,1.));
#1314=DIRECTION('ref_axis',(1.,0.,0.));
#1315=DIRECTION('center_axis',(0.,0.,-1.));
#1316=DIRECTION('ref_axis',(-1.,0.,0.));
#1317=DIRECTION('center_axis',(0.,0.,1.));
#1318=DIRECTION('ref_axis',(-1.,0.,0.));
#1319=DIRECTION('',(0.,0.,1.));
#1320=DIRECTION('center_axis',(0.,0.,1.));
#1321=DIRECTION('ref_axis',(-1.,0.,0.));
#1322=DIRECTION('center_axis',(0.,-1.,0.));
#1323=DIRECTION('ref_axis',(-1.,0.,0.));
#1324=DIRECTION('',(-1.,0.,0.));
#1325=DIRECTION('',(0.,0.,-1.));
#1326=DIRECTION('',(-1.,0.,0.));
#1327=DIRECTION('',(0.,0.,-1.));
#1328=DIRECTION('center_axis',(1.,0.,0.));
#1329=DIRECTION('ref_axis',(0.,-1.,0.));
#1330=DIRECTION('',(0.,-1.,0.));
#1331=DIRECTION('',(0.,-1.,0.));
#1332=DIRECTION('',(0.,0.,-1.));
#1333=DIRECTION('center_axis',(0.,1.,0.));
#1334=DIRECTION('ref_axis',(1.,0.,0.));
#1335=DIRECTION('',(1.,0.,0.));
#1336=DIRECTION('',(1.,0.,0.));
#1337=DIRECTION('',(0.,0.,-1.));
#1338=DIRECTION('center_axis',(-1.,0.,0.));
#1339=DIRECTION('ref_axis',(0.,1.,0.));
#1340=DIRECTION('',(0.,1.,0.));
#1341=DIRECTION('',(0.,1.,0.));
#1342=DIRECTION('center_axis',(0.,0.,1.));
#1343=DIRECTION('ref_axis',(-1.,0.,0.));
#1344=DIRECTION('center_axis',(0.,0.,1.));
#1345=DIRECTION('ref_axis',(-1.,0.,0.));
#1346=DIRECTION('center_axis',(0.,0.,-1.));
#1347=DIRECTION('ref_axis',(-1.,0.,0.));
#1348=DIRECTION('center_axis',(0.,0.,1.));
#1349=DIRECTION('ref_axis',(-1.,0.,0.));
#1350=DIRECTION('',(0.,0.,1.));
#1351=DIRECTION('center_axis',(0.,0.,1.));
#1352=DIRECTION('ref_axis',(-1.,0.,0.));
#1353=DIRECTION('center_axis',(0.,1.,0.));
#1354=DIRECTION('ref_axis',(1.,0.,0.));
#1355=DIRECTION('',(1.,0.,0.));
#1356=DIRECTION('',(0.,0.,-1.));
#1357=DIRECTION('',(1.,0.,0.));
#1358=DIRECTION('',(0.,0.,-1.));
#1359=DIRECTION('center_axis',(-1.,0.,0.));
#1360=DIRECTION('ref_axis',(0.,1.,0.));
#1361=DIRECTION('',(0.,1.,0.));
#1362=DIRECTION('',(0.,1.,0.));
#1363=DIRECTION('',(0.,0.,-1.));
#1364=DIRECTION('center_axis',(0.,-1.,0.));
#1365=DIRECTION('ref_axis',(-1.,0.,0.));
#1366=DIRECTION('',(-1.,0.,0.));
#1367=DIRECTION('',(-1.,0.,0.));
#1368=DIRECTION('',(0.,0.,-1.));
#1369=DIRECTION('center_axis',(1.,0.,0.));
#1370=DIRECTION('ref_axis',(0.,-1.,0.));
#1371=DIRECTION('',(0.,-1.,0.));
#1372=DIRECTION('',(0.,-1.,0.));
#1373=DIRECTION('center_axis',(0.,0.,1.));
#1374=DIRECTION('ref_axis',(-1.,0.,0.));
#1375=DIRECTION('center_axis',(0.,0.,1.));
#1376=DIRECTION('ref_axis',(-1.,0.,0.));
#1377=CARTESIAN_POINT('',(0.,0.,0.));
#1378=CARTESIAN_POINT('Origin',(1.50000002554485,7.75,1.));
#1379=CARTESIAN_POINT('',(1.75000002554485,7.75,0.3));
#1380=CARTESIAN_POINT('Origin',(1.50000002554485,7.75,0.3));
#1381=CARTESIAN_POINT('',(1.75000002554485,7.75,0.));
#1382=CARTESIAN_POINT('',(1.75000002554485,7.75,1.));
#1383=CARTESIAN_POINT('Origin',(1.50000002554485,7.75,0.));
#1384=CARTESIAN_POINT('Origin',(1.50000002554485,17.75,1.));
#1385=CARTESIAN_POINT('',(1.75000002554485,17.75,0.3));
#1386=CARTESIAN_POINT('Origin',(1.50000002554485,17.75,0.3));
#1387=CARTESIAN_POINT('',(1.75000002554485,17.75,0.));
#1388=CARTESIAN_POINT('',(1.75000002554485,17.75,1.));
#1389=CARTESIAN_POINT('Origin',(1.50000002554485,17.75,0.));
#1390=CARTESIAN_POINT('Origin',(11.7500000255448,7.75,1.));
#1391=CARTESIAN_POINT('',(12.0400000255448,7.75,0.3));
#1392=CARTESIAN_POINT('Origin',(11.7500000255448,7.75,0.3));
#1393=CARTESIAN_POINT('',(12.0400000255448,7.75,0.));
#1394=CARTESIAN_POINT('',(12.0400000255448,7.75,1.));
#1395=CARTESIAN_POINT('Origin',(11.7500000255448,7.75,0.));
#1396=CARTESIAN_POINT('Origin',(11.7500000255448,17.75,1.));
#1397=CARTESIAN_POINT('',(12.0400000255448,17.75,0.3));
#1398=CARTESIAN_POINT('Origin',(11.7500000255448,17.75,0.3));
#1399=CARTESIAN_POINT('',(12.0400000255448,17.75,0.));
#1400=CARTESIAN_POINT('',(12.0400000255448,17.75,1.));
#1401=CARTESIAN_POINT('Origin',(11.7500000255448,17.75,0.));
#1402=CARTESIAN_POINT('Origin',(0.750000025544848,7.,1.));
#1403=CARTESIAN_POINT('',(0.750000025544848,7.,1.));
#1404=CARTESIAN_POINT('',(0.750000025544848,8.5,1.));
#1405=CARTESIAN_POINT('',(0.750000025544848,8.9375,1.));
#1406=CARTESIAN_POINT('',(0.750000025544848,7.,0.3));
#1407=CARTESIAN_POINT('',(0.750000025544848,7.,1.));
#1408=CARTESIAN_POINT('',(0.750000025544848,8.5,0.3));
#1409=CARTESIAN_POINT('',(0.750000025544848,8.5,0.3));
#1410=CARTESIAN_POINT('',(0.750000025544848,8.5,1.));
#1411=CARTESIAN_POINT('Origin',(0.750000025544848,8.5,1.));
#1412=CARTESIAN_POINT('',(3.00000002554485,8.5,1.));
#1413=CARTESIAN_POINT('',(5.62500001277242,8.5,1.));
#1414=CARTESIAN_POINT('',(3.00000002554485,8.5,0.3));
#1415=CARTESIAN_POINT('',(2.25000002554485,8.5,0.3));
#1416=CARTESIAN_POINT('',(3.00000002554485,8.5,1.));
#1417=CARTESIAN_POINT('Origin',(1.87500002554485,7.75,0.3));
#1418=CARTESIAN_POINT('',(3.00000002554485,7.,0.3));
#1419=CARTESIAN_POINT('',(0.750000025544848,7.,0.3));
#1420=CARTESIAN_POINT('',(3.00000002554485,7.375,0.3));
#1421=CARTESIAN_POINT('Origin',(12.5000000255448,8.5,1.));
#1422=CARTESIAN_POINT('',(12.5000000255448,8.5,1.));
#1423=CARTESIAN_POINT('',(12.5000000255448,7.,1.));
#1424=CARTESIAN_POINT('',(12.5000000255448,9.6875,1.));
#1425=CARTESIAN_POINT('',(12.5000000255448,8.5,0.3));
#1426=CARTESIAN_POINT('',(12.5000000255448,8.5,1.));
#1427=CARTESIAN_POINT('',(12.5000000255448,7.,0.3));
#1428=CARTESIAN_POINT('',(12.5000000255448,7.,0.3));
#1429=CARTESIAN_POINT('',(12.5000000255448,7.,1.));
#1430=CARTESIAN_POINT('Origin',(11.0000000255448,8.5,1.));
#1431=CARTESIAN_POINT('',(11.0000000255448,8.5,1.));
#1432=CARTESIAN_POINT('',(10.7500000127724,8.5,1.));
#1433=CARTESIAN_POINT('',(11.0000000255448,8.5,0.3));
#1434=CARTESIAN_POINT('',(11.0000000255448,8.5,1.));
#1435=CARTESIAN_POINT('',(12.5000000255448,8.5,0.3));
#1436=CARTESIAN_POINT('Origin',(11.7500000255448,7.75,0.3));
#1437=CARTESIAN_POINT('',(11.0000000255448,7.,0.3));
#1438=CARTESIAN_POINT('',(11.0000000255448,13.875,0.3));
#1439=CARTESIAN_POINT('',(11.0000000255448,7.,0.3));
#1440=CARTESIAN_POINT('Origin',(0.750000025544848,18.5,1.));
#1441=CARTESIAN_POINT('',(0.750000025544848,18.5,1.));
#1442=CARTESIAN_POINT('',(3.00000002554485,18.5,1.));
#1443=CARTESIAN_POINT('',(5.62500001277242,18.5,1.));
#1444=CARTESIAN_POINT('',(0.750000025544848,18.5,0.3));
#1445=CARTESIAN_POINT('',(0.750000025544848,18.5,1.));
#1446=CARTESIAN_POINT('',(3.00000002554485,18.5,0.3));
#1447=CARTESIAN_POINT('',(3.00000002554485,18.5,0.3));
#1448=CARTESIAN_POINT('',(3.00000002554485,18.5,1.));
#1449=CARTESIAN_POINT('Origin',(0.750000025544848,17.,1.));
#1450=CARTESIAN_POINT('',(0.750000025544848,17.,1.));
#1451=CARTESIAN_POINT('',(0.750000025544848,13.9375,1.));
#1452=CARTESIAN_POINT('',(0.750000025544848,17.,0.3));
#1453=CARTESIAN_POINT('',(0.750000025544848,17.,1.));
#1454=CARTESIAN_POINT('',(0.750000025544848,18.5,0.3));
#1455=CARTESIAN_POINT('Origin',(3.00000002554485,17.,1.));
#1456=CARTESIAN_POINT('',(3.00000002554485,17.,1.));
#1457=CARTESIAN_POINT('',(6.75000001277242,17.,1.));
#1458=CARTESIAN_POINT('',(3.00000002554485,17.,0.3));
#1459=CARTESIAN_POINT('',(3.00000002554485,17.,1.));
#1460=CARTESIAN_POINT('',(0.750000025544848,17.,0.3));
#1461=CARTESIAN_POINT('Origin',(1.87500002554485,17.75,0.3));
#1462=CARTESIAN_POINT('',(3.00000002554485,12.375,0.3));
#1463=CARTESIAN_POINT('Origin',(11.0000000255448,18.5,1.));
#1464=CARTESIAN_POINT('',(11.0000000255448,18.5,1.));
#1465=CARTESIAN_POINT('',(12.5000000255448,18.5,1.));
#1466=CARTESIAN_POINT('',(10.7500000127724,18.5,1.));
#1467=CARTESIAN_POINT('',(11.0000000255448,18.5,0.3));
#1468=CARTESIAN_POINT('',(11.0000000255448,18.5,1.));
#1469=CARTESIAN_POINT('',(12.5000000255448,18.5,0.3));
#1470=CARTESIAN_POINT('',(12.5000000255448,18.5,0.3));
#1471=CARTESIAN_POINT('',(12.5000000255448,18.5,1.));
#1472=CARTESIAN_POINT('Origin',(12.5000000255448,17.,1.));
#1473=CARTESIAN_POINT('',(12.5000000255448,17.,1.));
#1474=CARTESIAN_POINT('',(11.0000000255448,17.,1.));
#1475=CARTESIAN_POINT('',(11.5000000127724,17.,1.));
#1476=CARTESIAN_POINT('',(12.5000000255448,17.,0.3));
#1477=CARTESIAN_POINT('',(12.5000000255448,17.,1.));
#1478=CARTESIAN_POINT('',(11.0000000255448,17.,0.3));
#1479=CARTESIAN_POINT('',(12.5000000255448,17.,0.3));
#1480=CARTESIAN_POINT('',(11.0000000255448,17.,1.));
#1481=CARTESIAN_POINT('Origin',(12.5000000255448,18.5,1.));
#1482=CARTESIAN_POINT('',(12.5000000255448,14.6875,1.));
#1483=CARTESIAN_POINT('',(12.5000000255448,20.,0.3));
#1484=CARTESIAN_POINT('Origin',(11.7500000255448,17.75,0.3));
#1485=CARTESIAN_POINT('',(11.0000000255448,18.875,0.3));
#1486=CARTESIAN_POINT('Origin',(3.00000002554485,7.,1.));
#1487=CARTESIAN_POINT('',(3.00000002554485,7.,0.));
#1488=CARTESIAN_POINT('',(3.00000002554485,7.,1.));
#1489=CARTESIAN_POINT('',(3.00000002554485,20.,0.));
#1490=CARTESIAN_POINT('',(3.00000002554485,8.9375,0.));
#1491=CARTESIAN_POINT('',(3.00000002554485,20.,1.));
#1492=CARTESIAN_POINT('',(3.00000002554485,20.,1.));
#1493=CARTESIAN_POINT('',(3.00000002554485,8.9375,1.));
#1494=CARTESIAN_POINT('',(3.00000002554485,8.9375,1.));
#1495=CARTESIAN_POINT('Origin',(11.0000000255448,20.,1.));
#1496=CARTESIAN_POINT('',(11.0000000255448,15.4375,1.));
#1497=CARTESIAN_POINT('',(11.0000000255448,20.,1.));
#1498=CARTESIAN_POINT('',(11.0000000255448,15.4375,1.));
#1499=CARTESIAN_POINT('',(11.0000000255448,20.,0.));
#1500=CARTESIAN_POINT('',(11.0000000255448,20.,1.));
#1501=CARTESIAN_POINT('',(11.0000000255448,7.,0.));
#1502=CARTESIAN_POINT('',(11.0000000255448,15.4375,0.));
#1503=CARTESIAN_POINT('',(11.0000000255448,7.,1.));
#1504=CARTESIAN_POINT('Origin',(11.0000000255448,7.,1.));
#1505=CARTESIAN_POINT('',(10.7500000127724,7.,1.));
#1506=CARTESIAN_POINT('',(10.7500000127724,7.,0.));
#1507=CARTESIAN_POINT('Origin',(3.00000002554485,20.,1.));
#1508=CARTESIAN_POINT('',(6.75000001277242,20.,1.));
#1509=CARTESIAN_POINT('',(6.75000001277242,20.,0.));
#1510=CARTESIAN_POINT('Origin',(19.5,2.49935413623386,0.4));
#1511=CARTESIAN_POINT('',(20.025,2.49935413623386,0.4));
#1512=CARTESIAN_POINT('Origin',(19.5,2.49935413623386,0.4));
#1513=CARTESIAN_POINT('',(19.15,2.5,0.4));
#1514=CARTESIAN_POINT('Origin',(19.5,2.5,0.4));
#1515=CARTESIAN_POINT('Origin',(1.5,2.44935413623386,0.4));
#1516=CARTESIAN_POINT('',(2.025,2.44935413623386,0.4));
#1517=CARTESIAN_POINT('Origin',(1.5,2.44935413623386,0.4));
#1518=CARTESIAN_POINT('',(1.15,2.44935413623386,0.4));
#1519=CARTESIAN_POINT('Origin',(1.5,2.44935413623386,0.4));
#1520=CARTESIAN_POINT('Origin',(19.5,20.3006458637661,0.5));
#1521=CARTESIAN_POINT('',(19.9,20.3006458637661,0.5));
#1522=CARTESIAN_POINT('Origin',(19.5,20.3006458637661,0.5));
#1523=CARTESIAN_POINT('',(19.25,20.3006458637661,0.5));
#1524=CARTESIAN_POINT('Origin',(19.5,20.3006458637661,0.5));
#1525=CARTESIAN_POINT('Origin',(1.5,20.25,0.5));
#1526=CARTESIAN_POINT('',(1.9,20.25,0.5));
#1527=CARTESIAN_POINT('Origin',(1.5,20.25,0.5));
#1528=CARTESIAN_POINT('',(1.25,20.25,0.5));
#1529=CARTESIAN_POINT('Origin',(1.5,20.25,0.5));
#1530=CARTESIAN_POINT('Origin',(10.5,10.875,1.));
#1531=CARTESIAN_POINT('',(21.,1.,1.));
#1532=CARTESIAN_POINT('',(0.,1.,1.));
#1533=CARTESIAN_POINT('',(0.,1.,1.));
#1534=CARTESIAN_POINT('',(21.,21.75,1.));
#1535=CARTESIAN_POINT('',(21.,0.,1.));
#1536=CARTESIAN_POINT('',(0.,21.75,1.));
#1537=CARTESIAN_POINT('',(21.,21.75,1.));
#1538=CARTESIAN_POINT('',(0.,37.5,1.));
#1539=CARTESIAN_POINT('',(20.025,2.49935413623386,1.));
#1540=CARTESIAN_POINT('Origin',(19.5,2.49935413623386,1.));
#1541=CARTESIAN_POINT('',(19.9,20.3006458637661,1.));
#1542=CARTESIAN_POINT('Origin',(19.5,20.3006458637661,1.));
#1543=CARTESIAN_POINT('',(2.025,2.44935413623386,1.));
#1544=CARTESIAN_POINT('Origin',(1.5,2.44935413623386,1.));
#1545=CARTESIAN_POINT('',(1.9,20.25,1.));
#1546=CARTESIAN_POINT('Origin',(1.5,20.25,1.));
#1547=CARTESIAN_POINT('Origin',(0.,1.,0.));
#1548=CARTESIAN_POINT('',(0.,0.,0.));
#1549=CARTESIAN_POINT('Origin',(0.,1.,0.));
#1550=CARTESIAN_POINT('',(21.,0.,0.));
#1551=CARTESIAN_POINT('',(0.,0.,0.));
#1552=CARTESIAN_POINT('Origin',(21.,1.,0.));
#1553=CARTESIAN_POINT('Origin',(21.,0.,0.));
#1554=CARTESIAN_POINT('',(21.,21.75,0.));
#1555=CARTESIAN_POINT('',(21.,0.,0.));
#1556=CARTESIAN_POINT('',(21.,21.75,0.));
#1557=CARTESIAN_POINT('Origin',(19.5,2.49935413623386,1.));
#1558=CARTESIAN_POINT('',(20.025,2.49935413623386,1.));
#1559=CARTESIAN_POINT('Origin',(19.5,20.3006458637661,1.));
#1560=CARTESIAN_POINT('',(19.9,20.3006458637661,1.));
#1561=CARTESIAN_POINT('Origin',(1.5,2.44935413623386,1.));
#1562=CARTESIAN_POINT('',(2.025,2.44935413623386,1.));
#1563=CARTESIAN_POINT('Origin',(1.5,20.25,1.));
#1564=CARTESIAN_POINT('',(1.9,20.25,1.));
#1565=CARTESIAN_POINT('Origin',(19.5,20.3006458637661,0.));
#1566=CARTESIAN_POINT('',(19.25,20.3006458637661,0.));
#1567=CARTESIAN_POINT('',(19.25,20.3006458637661,0.));
#1568=CARTESIAN_POINT('Origin',(19.5,20.3006458637661,0.));
#1569=CARTESIAN_POINT('Origin',(1.5,2.44935413623386,0.));
#1570=CARTESIAN_POINT('',(1.15,2.44935413623386,0.));
#1571=CARTESIAN_POINT('',(1.15,2.44935413623386,0.));
#1572=CARTESIAN_POINT('Origin',(1.5,2.44935413623386,0.));
#1573=CARTESIAN_POINT('Origin',(19.5,2.5,0.));
#1574=CARTESIAN_POINT('',(19.15,2.5,0.));
#1575=CARTESIAN_POINT('',(19.15,2.5,0.));
#1576=CARTESIAN_POINT('Origin',(19.5,2.5,0.));
#1577=CARTESIAN_POINT('Origin',(1.5,20.25,0.));
#1578=CARTESIAN_POINT('',(1.25,20.25,0.));
#1579=CARTESIAN_POINT('',(1.25,20.25,0.));
#1580=CARTESIAN_POINT('Origin',(1.5,20.25,0.));
#1581=CARTESIAN_POINT('Origin',(0.,21.75,0.));
#1582=CARTESIAN_POINT('',(0.,21.75,0.));
#1583=CARTESIAN_POINT('',(0.,21.75,0.));
#1584=CARTESIAN_POINT('',(0.,37.5,0.));
#1585=CARTESIAN_POINT('Origin',(21.,21.75,0.));
#1586=CARTESIAN_POINT('',(21.,21.75,0.));
#1587=CARTESIAN_POINT('Origin',(10.5,10.875,0.));
#1588=CARTESIAN_POINT('Origin',(11.7500000255448,7.75,0.3));
#1589=CARTESIAN_POINT('',(12.0400000255448,7.75,-0.3));
#1590=CARTESIAN_POINT('Origin',(11.7500000255448,7.75,-0.3));
#1591=CARTESIAN_POINT('',(12.0400000255448,7.75,0.3));
#1592=CARTESIAN_POINT('',(12.0400000255448,7.75,0.3));
#1593=CARTESIAN_POINT('Origin',(11.7500000255448,7.75,0.3));
#1594=CARTESIAN_POINT('Origin',(12.5000000255448,7.,0.3));
#1595=CARTESIAN_POINT('',(12.5000000255448,7.,0.3));
#1596=CARTESIAN_POINT('',(11.0000000255448,7.,0.3));
#1597=CARTESIAN_POINT('',(11.0000000255448,7.,0.3));
#1598=CARTESIAN_POINT('',(11.0000000255448,7.,-0.3));
#1599=CARTESIAN_POINT('',(11.0000000255448,7.,0.3));
#1600=CARTESIAN_POINT('',(12.5000000255448,7.,-0.3));
#1601=CARTESIAN_POINT('',(11.0000000255448,7.,-0.3));
#1602=CARTESIAN_POINT('',(12.5000000255448,7.,0.3));
#1603=CARTESIAN_POINT('Origin',(12.5000000255448,8.5,0.3));
#1604=CARTESIAN_POINT('',(12.5000000255448,8.5,0.3));
#1605=CARTESIAN_POINT('',(12.5000000255448,7.,0.3));
#1606=CARTESIAN_POINT('',(12.5000000255448,8.5,-0.3));
#1607=CARTESIAN_POINT('',(12.5000000255448,7.,-0.3));
#1608=CARTESIAN_POINT('',(12.5000000255448,8.5,0.3));
#1609=CARTESIAN_POINT('Origin',(11.0000000255448,8.5,0.3));
#1610=CARTESIAN_POINT('',(11.0000000255448,8.5,0.3));
#1611=CARTESIAN_POINT('',(12.5000000255448,8.5,0.3));
#1612=CARTESIAN_POINT('',(11.0000000255448,8.5,-0.3));
#1613=CARTESIAN_POINT('',(12.5000000255448,8.5,-0.3));
#1614=CARTESIAN_POINT('',(11.0000000255448,8.5,0.3));
#1615=CARTESIAN_POINT('Origin',(11.0000000255448,7.,0.3));
#1616=CARTESIAN_POINT('',(11.0000000255448,13.875,0.3));
#1617=CARTESIAN_POINT('',(11.0000000255448,13.875,-0.3));
#1618=CARTESIAN_POINT('Origin',(11.7500000255448,7.75,0.3));
#1619=CARTESIAN_POINT('Origin',(11.7500000255448,7.75,-0.3));
#1620=CARTESIAN_POINT('Origin',(11.7500000255448,17.75,0.3));
#1621=CARTESIAN_POINT('',(12.0400000255448,17.75,-0.3));
#1622=CARTESIAN_POINT('Origin',(11.7500000255448,17.75,-0.3));
#1623=CARTESIAN_POINT('',(12.0400000255448,17.75,0.3));
#1624=CARTESIAN_POINT('',(12.0400000255448,17.75,0.3));
#1625=CARTESIAN_POINT('Origin',(11.7500000255448,17.75,0.3));
#1626=CARTESIAN_POINT('Origin',(11.0000000255448,18.5,0.3));
#1627=CARTESIAN_POINT('',(11.0000000255448,18.5,0.3));
#1628=CARTESIAN_POINT('',(12.5000000255448,18.5,0.3));
#1629=CARTESIAN_POINT('',(12.5000000255448,18.5,0.3));
#1630=CARTESIAN_POINT('',(12.5000000255448,18.5,-0.3));
#1631=CARTESIAN_POINT('',(12.5000000255448,18.5,0.3));
#1632=CARTESIAN_POINT('',(11.0000000255448,18.5,-0.3));
#1633=CARTESIAN_POINT('',(12.5000000255448,18.5,-0.3));
#1634=CARTESIAN_POINT('',(11.0000000255448,18.5,0.3));
#1635=CARTESIAN_POINT('Origin',(11.0000000255448,17.,0.3));
#1636=CARTESIAN_POINT('',(11.0000000255448,17.,0.3));
#1637=CARTESIAN_POINT('',(11.0000000255448,18.875,0.3));
#1638=CARTESIAN_POINT('',(11.0000000255448,17.,-0.3));
#1639=CARTESIAN_POINT('',(11.0000000255448,18.875,-0.3));
#1640=CARTESIAN_POINT('',(11.0000000255448,17.,0.3));
#1641=CARTESIAN_POINT('Origin',(12.5000000255448,17.,0.3));
#1642=CARTESIAN_POINT('',(12.5000000255448,17.,0.3));
#1643=CARTESIAN_POINT('',(12.5000000255448,17.,0.3));
#1644=CARTESIAN_POINT('',(12.5000000255448,17.,-0.3));
#1645=CARTESIAN_POINT('',(12.5000000255448,17.,-0.3));
#1646=CARTESIAN_POINT('',(12.5000000255448,17.,0.3));
#1647=CARTESIAN_POINT('Origin',(12.5000000255448,18.5,0.3));
#1648=CARTESIAN_POINT('',(12.5000000255448,20.,0.3));
#1649=CARTESIAN_POINT('',(12.5000000255448,20.,-0.3));
#1650=CARTESIAN_POINT('Origin',(11.7500000255448,17.75,0.3));
#1651=CARTESIAN_POINT('Origin',(11.7500000255448,17.75,-0.3));
#1652=UNCERTAINTY_MEASURE_WITH_UNIT(LENGTH_MEASURE(0.001),#1656,
'DISTANCE_ACCURACY_VALUE',
'Maximum model space distance between geometric entities at asserted c
onnectivities');
#1653=UNCERTAINTY_MEASURE_WITH_UNIT(LENGTH_MEASURE(0.001),#1656,
'DISTANCE_ACCURACY_VALUE',
'Maximum model space distance between geometric entities at asserted c
onnectivities');
#1654=(
GEOMETRIC_REPRESENTATION_CONTEXT(3)
GLOBAL_UNCERTAINTY_ASSIGNED_CONTEXT((#1652))
GLOBAL_UNIT_ASSIGNED_CONTEXT((#1656,#1658,#1659))
REPRESENTATION_CONTEXT('','3D')
);
#1655=(
GEOMETRIC_REPRESENTATION_CONTEXT(3)
GLOBAL_UNCERTAINTY_ASSIGNED_CONTEXT((#1653))
GLOBAL_UNIT_ASSIGNED_CONTEXT((#1656,#1658,#1659))
REPRESENTATION_CONTEXT('','3D')
);
#1656=(
LENGTH_UNIT()
NAMED_UNIT(*)
SI_UNIT(.CENTI.,.METRE.)
);
#1657=(
LENGTH_UNIT()
NAMED_UNIT(*)
SI_UNIT($,.METRE.)
);
#1658=(
NAMED_UNIT(*)
PLANE_ANGLE_UNIT()
SI_UNIT($,.RADIAN.)
);
#1659=(
NAMED_UNIT(*)
SI_UNIT($,.STERADIAN.)
SOLID_ANGLE_UNIT()
);
#1660=SHAPE_DEFINITION_REPRESENTATION(#1661,#1662);
#1661=PRODUCT_DEFINITION_SHAPE('',$,#1664);
#1662=SHAPE_REPRESENTATION('',(#1020),#1654);
#1663=PRODUCT_DEFINITION_CONTEXT('part definition',#1668,'design');
#1664=PRODUCT_DEFINITION('2026-07-07-08-39-56-251','plate fb-c',#1665,#1663);
#1665=PRODUCT_DEFINITION_FORMATION('',$,#1670);
#1666=PRODUCT_RELATED_PRODUCT_CATEGORY('plate fb-c','plate fb-c',(#1670));
#1667=APPLICATION_PROTOCOL_DEFINITION('international standard',
'automotive_design',2009,#1668);
#1668=APPLICATION_CONTEXT(
'Core Data for Automotive Mechanical Design Process');
#1669=PRODUCT_CONTEXT('part definition',#1668,'mechanical');
#1670=PRODUCT('2026-07-07-08-39-56-251','plate fb-c',$,(#1669));
#1671=PRESENTATION_STYLE_ASSIGNMENT((#1672));
#1672=SURFACE_STYLE_USAGE(.BOTH.,#1673);
#1673=SURFACE_SIDE_STYLE('',(#1674));
#1674=SURFACE_STYLE_FILL_AREA(#1675);
#1675=FILL_AREA_STYLE('ABS(\X2\D770C0C9\X0\)',(#1676));
#1676=FILL_AREA_STYLE_COLOUR('ABS(\X2\D770C0C9\X0\)',#1677);
#1677=COLOUR_RGB('ABS(\X2\D770C0C9\X0\)',0.964705882352941,0.964705882352941,
0.952941176470588);
ENDSEC;
END-ISO-10303-21;
