ISO-10303-21;
HEADER;
/* Generated by software containing ST-Developer
 * from STEP Tools, Inc. (www.steptools.com) 
 */

FILE_DESCRIPTION(
/* description */ (''),
/* implementation_level */ '2;1');

FILE_NAME(
/* name */ 'tire.step',
/* time_stamp */ '2026-08-31T17:58:53+09:00',
/* author */ (''),
/* organization */ (''),
/* preprocessor_version */ 'ST-DEVELOPER v20.1',
/* originating_system */ 'Autodesk Translation Framework v15.8.0.0',
/* authorisation */ '');

FILE_SCHEMA (('AUTOMOTIVE_DESIGN { 1 0 10303 214 3 1 1 }'));
ENDSEC;

DATA;
#10=MECHANICAL_DESIGN_GEOMETRIC_PRESENTATION_REPRESENTATION('',(#13),#1536);
#11=SHAPE_REPRESENTATION_RELATIONSHIP('SRR','None',#1543,#12);
#12=ADVANCED_BREP_SHAPE_REPRESENTATION('',(#14),#1535);
#13=STYLED_ITEM('',(#1553),#14);
#14=MANIFOLD_SOLID_BREP('\X2\BCF8CCB4\X0\1',#924);
#15=CYLINDRICAL_SURFACE('',#978,5.5);
#16=CYLINDRICAL_SURFACE('',#1004,5.5);
#17=CYLINDRICAL_SURFACE('',#1006,7.55);
#18=CYLINDRICAL_SURFACE('',#1009,0.2);
#19=CYLINDRICAL_SURFACE('',#1010,0.2);
#20=CYLINDRICAL_SURFACE('',#1011,0.2);
#21=CYLINDRICAL_SURFACE('',#1012,0.2);
#22=FACE_BOUND('',#116,.T.);
#23=FACE_BOUND('',#117,.T.);
#24=FACE_BOUND('',#118,.T.);
#25=FACE_BOUND('',#119,.T.);
#26=FACE_BOUND('',#144,.T.);
#27=FACE_BOUND('',#145,.T.);
#28=FACE_BOUND('',#146,.T.);
#29=FACE_BOUND('',#147,.T.);
#30=FACE_BOUND('',#163,.T.);
#31=FACE_BOUND('',#165,.T.);
#32=CIRCLE('',#944,5.5);
#33=CIRCLE('',#945,5.5);
#34=CIRCLE('',#947,5.5);
#35=CIRCLE('',#948,5.5);
#36=CIRCLE('',#949,5.5);
#37=CIRCLE('',#950,5.5);
#38=CIRCLE('',#951,0.2);
#39=CIRCLE('',#952,0.2);
#40=CIRCLE('',#953,0.2);
#41=CIRCLE('',#954,0.2);
#42=CIRCLE('',#959,5.5);
#43=CIRCLE('',#964,5.5);
#44=CIRCLE('',#969,5.5);
#45=CIRCLE('',#976,5.5);
#46=CIRCLE('',#977,5.5);
#47=CIRCLE('',#979,5.5);
#48=CIRCLE('',#980,5.5);
#49=CIRCLE('',#981,5.5);
#50=CIRCLE('',#982,5.5);
#51=CIRCLE('',#983,5.5);
#52=CIRCLE('',#984,5.5);
#53=CIRCLE('',#985,5.5);
#54=CIRCLE('',#986,5.5);
#55=CIRCLE('',#992,0.2);
#56=CIRCLE('',#993,0.2);
#57=CIRCLE('',#994,0.2);
#58=CIRCLE('',#995,0.2);
#59=CIRCLE('',#1005,5.5);
#60=CIRCLE('',#1007,7.55);
#61=CIRCLE('',#1008,7.55);
#62=FACE_OUTER_BOUND('',#109,.T.);
#63=FACE_OUTER_BOUND('',#110,.T.);
#64=FACE_OUTER_BOUND('',#111,.T.);
#65=FACE_OUTER_BOUND('',#112,.T.);
#66=FACE_OUTER_BOUND('',#113,.T.);
#67=FACE_OUTER_BOUND('',#114,.T.);
#68=FACE_OUTER_BOUND('',#115,.T.);
#69=FACE_OUTER_BOUND('',#120,.T.);
#70=FACE_OUTER_BOUND('',#121,.T.);
#71=FACE_OUTER_BOUND('',#122,.T.);
#72=FACE_OUTER_BOUND('',#123,.T.);
#73=FACE_OUTER_BOUND('',#124,.T.);
#74=FACE_OUTER_BOUND('',#125,.T.);
#75=FACE_OUTER_BOUND('',#126,.T.);
#76=FACE_OUTER_BOUND('',#127,.T.);
#77=FACE_OUTER_BOUND('',#128,.T.);
#78=FACE_OUTER_BOUND('',#129,.T.);
#79=FACE_OUTER_BOUND('',#130,.T.);
#80=FACE_OUTER_BOUND('',#131,.T.);
#81=FACE_OUTER_BOUND('',#132,.T.);
#82=FACE_OUTER_BOUND('',#133,.T.);
#83=FACE_OUTER_BOUND('',#134,.T.);
#84=FACE_OUTER_BOUND('',#135,.T.);
#85=FACE_OUTER_BOUND('',#136,.T.);
#86=FACE_OUTER_BOUND('',#137,.T.);
#87=FACE_OUTER_BOUND('',#138,.T.);
#88=FACE_OUTER_BOUND('',#139,.T.);
#89=FACE_OUTER_BOUND('',#140,.T.);
#90=FACE_OUTER_BOUND('',#141,.T.);
#91=FACE_OUTER_BOUND('',#142,.T.);
#92=FACE_OUTER_BOUND('',#143,.T.);
#93=FACE_OUTER_BOUND('',#148,.T.);
#94=FACE_OUTER_BOUND('',#149,.T.);
#95=FACE_OUTER_BOUND('',#150,.T.);
#96=FACE_OUTER_BOUND('',#151,.T.);
#97=FACE_OUTER_BOUND('',#152,.T.);
#98=FACE_OUTER_BOUND('',#153,.T.);
#99=FACE_OUTER_BOUND('',#154,.T.);
#100=FACE_OUTER_BOUND('',#155,.T.);
#101=FACE_OUTER_BOUND('',#156,.T.);
#102=FACE_OUTER_BOUND('',#157,.T.);
#103=FACE_OUTER_BOUND('',#158,.T.);
#104=FACE_OUTER_BOUND('',#159,.T.);
#105=FACE_OUTER_BOUND('',#160,.T.);
#106=FACE_OUTER_BOUND('',#161,.T.);
#107=FACE_OUTER_BOUND('',#162,.T.);
#108=FACE_OUTER_BOUND('',#164,.T.);
#109=EDGE_LOOP('',(#579,#580,#581,#582));
#110=EDGE_LOOP('',(#583,#584,#585,#586));
#111=EDGE_LOOP('',(#587,#588,#589,#590));
#112=EDGE_LOOP('',(#591,#592,#593,#594));
#113=EDGE_LOOP('',(#595,#596,#597,#598));
#114=EDGE_LOOP('',(#599,#600,#601,#602,#603,#604,#605));
#115=EDGE_LOOP('',(#606,#607,#608,#609,#610,#611,#612,#613,#614,#615,#616,
#617,#618,#619,#620,#621,#622,#623));
#116=EDGE_LOOP('',(#624));
#117=EDGE_LOOP('',(#625));
#118=EDGE_LOOP('',(#626));
#119=EDGE_LOOP('',(#627));
#120=EDGE_LOOP('',(#628,#629,#630,#631));
#121=EDGE_LOOP('',(#632,#633,#634,#635));
#122=EDGE_LOOP('',(#636,#637,#638,#639));
#123=EDGE_LOOP('',(#640,#641,#642,#643));
#124=EDGE_LOOP('',(#644,#645,#646,#647));
#125=EDGE_LOOP('',(#648,#649,#650,#651));
#126=EDGE_LOOP('',(#652,#653,#654,#655));
#127=EDGE_LOOP('',(#656,#657,#658,#659));
#128=EDGE_LOOP('',(#660,#661,#662,#663));
#129=EDGE_LOOP('',(#664,#665,#666,#667));
#130=EDGE_LOOP('',(#668,#669,#670,#671));
#131=EDGE_LOOP('',(#672,#673,#674,#675));
#132=EDGE_LOOP('',(#676,#677,#678,#679));
#133=EDGE_LOOP('',(#680,#681,#682,#683));
#134=EDGE_LOOP('',(#684,#685,#686,#687));
#135=EDGE_LOOP('',(#688,#689,#690,#691));
#136=EDGE_LOOP('',(#692,#693,#694,#695));
#137=EDGE_LOOP('',(#696,#697,#698,#699,#700,#701,#702));
#138=EDGE_LOOP('',(#703,#704,#705,#706,#707,#708,#709,#710,#711,#712,#713,
#714,#715,#716,#717,#718,#719,#720,#721,#722));
#139=EDGE_LOOP('',(#723,#724,#725,#726));
#140=EDGE_LOOP('',(#727,#728,#729,#730));
#141=EDGE_LOOP('',(#731,#732,#733,#734));
#142=EDGE_LOOP('',(#735,#736,#737,#738));
#143=EDGE_LOOP('',(#739,#740,#741,#742,#743,#744,#745,#746,#747,#748,#749,
#750,#751,#752,#753,#754,#755,#756));
#144=EDGE_LOOP('',(#757));
#145=EDGE_LOOP('',(#758));
#146=EDGE_LOOP('',(#759));
#147=EDGE_LOOP('',(#760));
#148=EDGE_LOOP('',(#761,#762,#763,#764));
#149=EDGE_LOOP('',(#765,#766,#767,#768));
#150=EDGE_LOOP('',(#769,#770,#771,#772));
#151=EDGE_LOOP('',(#773,#774,#775,#776));
#152=EDGE_LOOP('',(#777,#778,#779,#780));
#153=EDGE_LOOP('',(#781,#782,#783,#784));
#154=EDGE_LOOP('',(#785,#786,#787,#788));
#155=EDGE_LOOP('',(#789,#790,#791,#792));
#156=EDGE_LOOP('',(#793,#794,#795,#796,#797,#798,#799,#800,#801,#802,#803,
#804,#805,#806,#807,#808,#809,#810,#811,#812));
#157=EDGE_LOOP('',(#813,#814,#815,#816));
#158=EDGE_LOOP('',(#817,#818,#819,#820));
#159=EDGE_LOOP('',(#821,#822,#823,#824));
#160=EDGE_LOOP('',(#825,#826,#827,#828));
#161=EDGE_LOOP('',(#829,#830,#831,#832));
#162=EDGE_LOOP('',(#833));
#163=EDGE_LOOP('',(#834));
#164=EDGE_LOOP('',(#835));
#165=EDGE_LOOP('',(#836));
#166=LINE('',#1274,#265);
#167=LINE('',#1276,#266);
#168=LINE('',#1278,#267);
#169=LINE('',#1279,#268);
#170=LINE('',#1283,#269);
#171=LINE('',#1285,#270);
#172=LINE('',#1287,#271);
#173=LINE('',#1288,#272);
#174=LINE('',#1291,#273);
#175=LINE('',#1293,#274);
#176=LINE('',#1294,#275);
#177=LINE('',#1297,#276);
#178=LINE('',#1299,#277);
#179=LINE('',#1300,#278);
#180=LINE('',#1302,#279);
#181=LINE('',#1303,#280);
#182=LINE('',#1312,#281);
#183=LINE('',#1314,#282);
#184=LINE('',#1316,#283);
#185=LINE('',#1320,#284);
#186=LINE('',#1322,#285);
#187=LINE('',#1324,#286);
#188=LINE('',#1328,#287);
#189=LINE('',#1330,#288);
#190=LINE('',#1332,#289);
#191=LINE('',#1344,#290);
#192=LINE('',#1346,#291);
#193=LINE('',#1347,#292);
#194=LINE('',#1350,#293);
#195=LINE('',#1352,#294);
#196=LINE('',#1353,#295);
#197=LINE('',#1355,#296);
#198=LINE('',#1360,#297);
#199=LINE('',#1362,#298);
#200=LINE('',#1363,#299);
#201=LINE('',#1366,#300);
#202=LINE('',#1368,#301);
#203=LINE('',#1369,#302);
#204=LINE('',#1371,#303);
#205=LINE('',#1376,#304);
#206=LINE('',#1378,#305);
#207=LINE('',#1379,#306);
#208=LINE('',#1382,#307);
#209=LINE('',#1384,#308);
#210=LINE('',#1385,#309);
#211=LINE('',#1387,#310);
#212=LINE('',#1393,#311);
#213=LINE('',#1395,#312);
#214=LINE('',#1397,#313);
#215=LINE('',#1398,#314);
#216=LINE('',#1401,#315);
#217=LINE('',#1403,#316);
#218=LINE('',#1404,#317);
#219=LINE('',#1407,#318);
#220=LINE('',#1409,#319);
#221=LINE('',#1410,#320);
#222=LINE('',#1414,#321);
#223=LINE('',#1416,#322);
#224=LINE('',#1418,#323);
#225=LINE('',#1419,#324);
#226=LINE('',#1421,#325);
#227=LINE('',#1422,#326);
#228=LINE('',#1429,#327);
#229=LINE('',#1434,#328);
#230=LINE('',#1438,#329);
#231=LINE('',#1442,#330);
#232=LINE('',#1446,#331);
#233=LINE('',#1450,#332);
#234=LINE('',#1454,#333);
#235=LINE('',#1458,#334);
#236=LINE('',#1460,#335);
#237=LINE('',#1461,#336);
#238=LINE('',#1464,#337);
#239=LINE('',#1466,#338);
#240=LINE('',#1467,#339);
#241=LINE('',#1469,#340);
#242=LINE('',#1470,#341);
#243=LINE('',#1474,#342);
#244=LINE('',#1476,#343);
#245=LINE('',#1477,#344);
#246=LINE('',#1479,#345);
#247=LINE('',#1481,#346);
#248=LINE('',#1482,#347);
#249=LINE('',#1493,#348);
#250=LINE('',#1494,#349);
#251=LINE('',#1497,#350);
#252=LINE('',#1498,#351);
#253=LINE('',#1500,#352);
#254=LINE('',#1504,#353);
#255=LINE('',#1505,#354);
#256=LINE('',#1508,#355);
#257=LINE('',#1509,#356);
#258=LINE('',#1511,#357);
#259=LINE('',#1515,#358);
#260=LINE('',#1521,#359);
#261=LINE('',#1524,#360);
#262=LINE('',#1526,#361);
#263=LINE('',#1528,#362);
#264=LINE('',#1530,#363);
#265=VECTOR('',#1019,1.);
#266=VECTOR('',#1020,1.);
#267=VECTOR('',#1021,1.);
#268=VECTOR('',#1022,1.);
#269=VECTOR('',#1025,1.);
#270=VECTOR('',#1026,1.);
#271=VECTOR('',#1027,1.);
#272=VECTOR('',#1028,1.);
#273=VECTOR('',#1031,1.);
#274=VECTOR('',#1032,1.);
#275=VECTOR('',#1033,1.);
#276=VECTOR('',#1036,1.);
#277=VECTOR('',#1037,1.);
#278=VECTOR('',#1038,1.);
#279=VECTOR('',#1041,1.);
#280=VECTOR('',#1042,1.);
#281=VECTOR('',#1053,1.);
#282=VECTOR('',#1054,1.);
#283=VECTOR('',#1055,1.);
#284=VECTOR('',#1058,1.);
#285=VECTOR('',#1059,1.);
#286=VECTOR('',#1060,1.);
#287=VECTOR('',#1063,1.);
#288=VECTOR('',#1064,1.);
#289=VECTOR('',#1065,1.);
#290=VECTOR('',#1078,1.);
#291=VECTOR('',#1079,1.);
#292=VECTOR('',#1080,1.);
#293=VECTOR('',#1083,1.);
#294=VECTOR('',#1084,1.);
#295=VECTOR('',#1085,1.);
#296=VECTOR('',#1088,1.);
#297=VECTOR('',#1095,1.);
#298=VECTOR('',#1096,1.);
#299=VECTOR('',#1097,1.);
#300=VECTOR('',#1100,1.);
#301=VECTOR('',#1101,1.);
#302=VECTOR('',#1102,1.);
#303=VECTOR('',#1105,1.);
#304=VECTOR('',#1112,1.);
#305=VECTOR('',#1113,1.);
#306=VECTOR('',#1114,1.);
#307=VECTOR('',#1117,1.);
#308=VECTOR('',#1118,1.);
#309=VECTOR('',#1119,1.);
#310=VECTOR('',#1122,1.);
#311=VECTOR('',#1129,1.);
#312=VECTOR('',#1130,1.);
#313=VECTOR('',#1131,1.);
#314=VECTOR('',#1132,1.);
#315=VECTOR('',#1135,1.);
#316=VECTOR('',#1136,1.);
#317=VECTOR('',#1137,1.);
#318=VECTOR('',#1140,1.);
#319=VECTOR('',#1141,1.);
#320=VECTOR('',#1142,1.);
#321=VECTOR('',#1145,1.);
#322=VECTOR('',#1146,1.);
#323=VECTOR('',#1147,1.);
#324=VECTOR('',#1148,1.);
#325=VECTOR('',#1151,1.);
#326=VECTOR('',#1152,1.);
#327=VECTOR('',#1161,5.5);
#328=VECTOR('',#1166,1.);
#329=VECTOR('',#1169,1.);
#330=VECTOR('',#1172,1.);
#331=VECTOR('',#1175,1.);
#332=VECTOR('',#1178,1.);
#333=VECTOR('',#1181,1.);
#334=VECTOR('',#1186,1.);
#335=VECTOR('',#1187,1.);
#336=VECTOR('',#1188,1.);
#337=VECTOR('',#1191,1.);
#338=VECTOR('',#1192,1.);
#339=VECTOR('',#1193,1.);
#340=VECTOR('',#1196,1.);
#341=VECTOR('',#1197,1.);
#342=VECTOR('',#1202,1.);
#343=VECTOR('',#1203,1.);
#344=VECTOR('',#1204,1.);
#345=VECTOR('',#1205,1.);
#346=VECTOR('',#1206,1.);
#347=VECTOR('',#1207,1.);
#348=VECTOR('',#1218,1.);
#349=VECTOR('',#1219,1.);
#350=VECTOR('',#1222,1.);
#351=VECTOR('',#1223,1.);
#352=VECTOR('',#1226,1.);
#353=VECTOR('',#1231,1.);
#354=VECTOR('',#1232,1.);
#355=VECTOR('',#1235,1.);
#356=VECTOR('',#1236,1.);
#357=VECTOR('',#1239,1.);
#358=VECTOR('',#1244,5.5);
#359=VECTOR('',#1251,7.55);
#360=VECTOR('',#1256,0.2);
#361=VECTOR('',#1259,0.2);
#362=VECTOR('',#1262,0.2);
#363=VECTOR('',#1265,0.2);
#364=VERTEX_POINT('',#1272);
#365=VERTEX_POINT('',#1273);
#366=VERTEX_POINT('',#1275);
#367=VERTEX_POINT('',#1277);
#368=VERTEX_POINT('',#1281);
#369=VERTEX_POINT('',#1282);
#370=VERTEX_POINT('',#1284);
#371=VERTEX_POINT('',#1286);
#372=VERTEX_POINT('',#1290);
#373=VERTEX_POINT('',#1292);
#374=VERTEX_POINT('',#1296);
#375=VERTEX_POINT('',#1298);
#376=VERTEX_POINT('',#1305);
#377=VERTEX_POINT('',#1309);
#378=VERTEX_POINT('',#1311);
#379=VERTEX_POINT('',#1313);
#380=VERTEX_POINT('',#1315);
#381=VERTEX_POINT('',#1317);
#382=VERTEX_POINT('',#1319);
#383=VERTEX_POINT('',#1321);
#384=VERTEX_POINT('',#1323);
#385=VERTEX_POINT('',#1325);
#386=VERTEX_POINT('',#1327);
#387=VERTEX_POINT('',#1329);
#388=VERTEX_POINT('',#1331);
#389=VERTEX_POINT('',#1334);
#390=VERTEX_POINT('',#1336);
#391=VERTEX_POINT('',#1338);
#392=VERTEX_POINT('',#1340);
#393=VERTEX_POINT('',#1343);
#394=VERTEX_POINT('',#1345);
#395=VERTEX_POINT('',#1349);
#396=VERTEX_POINT('',#1351);
#397=VERTEX_POINT('',#1359);
#398=VERTEX_POINT('',#1361);
#399=VERTEX_POINT('',#1365);
#400=VERTEX_POINT('',#1367);
#401=VERTEX_POINT('',#1375);
#402=VERTEX_POINT('',#1377);
#403=VERTEX_POINT('',#1381);
#404=VERTEX_POINT('',#1383);
#405=VERTEX_POINT('',#1391);
#406=VERTEX_POINT('',#1392);
#407=VERTEX_POINT('',#1394);
#408=VERTEX_POINT('',#1396);
#409=VERTEX_POINT('',#1400);
#410=VERTEX_POINT('',#1402);
#411=VERTEX_POINT('',#1406);
#412=VERTEX_POINT('',#1408);
#413=VERTEX_POINT('',#1412);
#414=VERTEX_POINT('',#1413);
#415=VERTEX_POINT('',#1415);
#416=VERTEX_POINT('',#1417);
#417=VERTEX_POINT('',#1424);
#418=VERTEX_POINT('',#1428);
#419=VERTEX_POINT('',#1431);
#420=VERTEX_POINT('',#1433);
#421=VERTEX_POINT('',#1435);
#422=VERTEX_POINT('',#1437);
#423=VERTEX_POINT('',#1439);
#424=VERTEX_POINT('',#1441);
#425=VERTEX_POINT('',#1443);
#426=VERTEX_POINT('',#1445);
#427=VERTEX_POINT('',#1447);
#428=VERTEX_POINT('',#1449);
#429=VERTEX_POINT('',#1451);
#430=VERTEX_POINT('',#1453);
#431=VERTEX_POINT('',#1457);
#432=VERTEX_POINT('',#1459);
#433=VERTEX_POINT('',#1463);
#434=VERTEX_POINT('',#1465);
#435=VERTEX_POINT('',#1473);
#436=VERTEX_POINT('',#1475);
#437=VERTEX_POINT('',#1478);
#438=VERTEX_POINT('',#1480);
#439=VERTEX_POINT('',#1483);
#440=VERTEX_POINT('',#1485);
#441=VERTEX_POINT('',#1487);
#442=VERTEX_POINT('',#1489);
#443=VERTEX_POINT('',#1492);
#444=VERTEX_POINT('',#1496);
#445=VERTEX_POINT('',#1503);
#446=VERTEX_POINT('',#1507);
#447=VERTEX_POINT('',#1514);
#448=VERTEX_POINT('',#1518);
#449=VERTEX_POINT('',#1520);
#450=EDGE_CURVE('',#364,#365,#166,.T.);
#451=EDGE_CURVE('',#366,#364,#167,.T.);
#452=EDGE_CURVE('',#367,#366,#168,.T.);
#453=EDGE_CURVE('',#365,#367,#169,.T.);
#454=EDGE_CURVE('',#368,#369,#170,.T.);
#455=EDGE_CURVE('',#368,#370,#171,.T.);
#456=EDGE_CURVE('',#371,#370,#172,.T.);
#457=EDGE_CURVE('',#369,#371,#173,.T.);
#458=EDGE_CURVE('',#365,#372,#174,.T.);
#459=EDGE_CURVE('',#373,#367,#175,.T.);
#460=EDGE_CURVE('',#372,#373,#176,.T.);
#461=EDGE_CURVE('',#372,#374,#177,.T.);
#462=EDGE_CURVE('',#375,#373,#178,.T.);
#463=EDGE_CURVE('',#374,#375,#179,.T.);
#464=EDGE_CURVE('',#374,#368,#180,.T.);
#465=EDGE_CURVE('',#370,#375,#181,.T.);
#466=EDGE_CURVE('',#376,#366,#32,.T.);
#467=EDGE_CURVE('',#371,#376,#33,.T.);
#468=EDGE_CURVE('',#377,#369,#34,.T.);
#469=EDGE_CURVE('',#377,#378,#182,.T.);
#470=EDGE_CURVE('',#378,#379,#183,.T.);
#471=EDGE_CURVE('',#379,#380,#184,.T.);
#472=EDGE_CURVE('',#381,#380,#35,.T.);
#473=EDGE_CURVE('',#381,#382,#185,.T.);
#474=EDGE_CURVE('',#382,#383,#186,.T.);
#475=EDGE_CURVE('',#383,#384,#187,.T.);
#476=EDGE_CURVE('',#385,#384,#36,.T.);
#477=EDGE_CURVE('',#385,#386,#188,.T.);
#478=EDGE_CURVE('',#386,#387,#189,.T.);
#479=EDGE_CURVE('',#387,#388,#190,.T.);
#480=EDGE_CURVE('',#364,#388,#37,.T.);
#481=EDGE_CURVE('',#389,#389,#38,.T.);
#482=EDGE_CURVE('',#390,#390,#39,.T.);
#483=EDGE_CURVE('',#391,#391,#40,.T.);
#484=EDGE_CURVE('',#392,#392,#41,.T.);
#485=EDGE_CURVE('',#387,#393,#191,.T.);
#486=EDGE_CURVE('',#394,#393,#192,.T.);
#487=EDGE_CURVE('',#388,#394,#193,.T.);
#488=EDGE_CURVE('',#395,#385,#194,.T.);
#489=EDGE_CURVE('',#396,#395,#195,.T.);
#490=EDGE_CURVE('',#386,#396,#196,.T.);
#491=EDGE_CURVE('',#393,#396,#197,.T.);
#492=EDGE_CURVE('',#394,#395,#42,.T.);
#493=EDGE_CURVE('',#379,#397,#198,.T.);
#494=EDGE_CURVE('',#398,#397,#199,.T.);
#495=EDGE_CURVE('',#380,#398,#200,.T.);
#496=EDGE_CURVE('',#399,#377,#201,.T.);
#497=EDGE_CURVE('',#400,#399,#202,.T.);
#498=EDGE_CURVE('',#378,#400,#203,.T.);
#499=EDGE_CURVE('',#397,#400,#204,.T.);
#500=EDGE_CURVE('',#398,#399,#43,.T.);
#501=EDGE_CURVE('',#401,#381,#205,.T.);
#502=EDGE_CURVE('',#402,#401,#206,.T.);
#503=EDGE_CURVE('',#382,#402,#207,.T.);
#504=EDGE_CURVE('',#383,#403,#208,.T.);
#505=EDGE_CURVE('',#404,#403,#209,.T.);
#506=EDGE_CURVE('',#384,#404,#210,.T.);
#507=EDGE_CURVE('',#403,#402,#211,.T.);
#508=EDGE_CURVE('',#404,#401,#44,.T.);
#509=EDGE_CURVE('',#405,#406,#212,.T.);
#510=EDGE_CURVE('',#405,#407,#213,.T.);
#511=EDGE_CURVE('',#408,#407,#214,.T.);
#512=EDGE_CURVE('',#406,#408,#215,.T.);
#513=EDGE_CURVE('',#406,#409,#216,.T.);
#514=EDGE_CURVE('',#410,#408,#217,.T.);
#515=EDGE_CURVE('',#409,#410,#218,.T.);
#516=EDGE_CURVE('',#409,#411,#219,.T.);
#517=EDGE_CURVE('',#412,#410,#220,.T.);
#518=EDGE_CURVE('',#411,#412,#221,.T.);
#519=EDGE_CURVE('',#413,#414,#222,.T.);
#520=EDGE_CURVE('',#415,#413,#223,.T.);
#521=EDGE_CURVE('',#416,#415,#224,.T.);
#522=EDGE_CURVE('',#414,#416,#225,.T.);
#523=EDGE_CURVE('',#414,#405,#226,.T.);
#524=EDGE_CURVE('',#407,#416,#227,.T.);
#525=EDGE_CURVE('',#417,#415,#45,.T.);
#526=EDGE_CURVE('',#412,#417,#46,.T.);
#527=EDGE_CURVE('',#417,#418,#228,.T.);
#528=EDGE_CURVE('',#418,#418,#47,.T.);
#529=EDGE_CURVE('',#413,#419,#48,.T.);
#530=EDGE_CURVE('',#419,#420,#229,.T.);
#531=EDGE_CURVE('',#420,#421,#49,.T.);
#532=EDGE_CURVE('',#421,#422,#230,.T.);
#533=EDGE_CURVE('',#422,#423,#50,.T.);
#534=EDGE_CURVE('',#423,#424,#231,.T.);
#535=EDGE_CURVE('',#424,#425,#51,.T.);
#536=EDGE_CURVE('',#425,#426,#232,.T.);
#537=EDGE_CURVE('',#426,#427,#52,.T.);
#538=EDGE_CURVE('',#427,#428,#233,.T.);
#539=EDGE_CURVE('',#428,#429,#53,.T.);
#540=EDGE_CURVE('',#429,#430,#234,.T.);
#541=EDGE_CURVE('',#430,#411,#54,.T.);
#542=EDGE_CURVE('',#431,#427,#235,.T.);
#543=EDGE_CURVE('',#431,#432,#236,.T.);
#544=EDGE_CURVE('',#428,#432,#237,.T.);
#545=EDGE_CURVE('',#430,#433,#238,.T.);
#546=EDGE_CURVE('',#434,#429,#239,.T.);
#547=EDGE_CURVE('',#433,#434,#240,.T.);
#548=EDGE_CURVE('',#433,#431,#241,.T.);
#549=EDGE_CURVE('',#432,#434,#242,.T.);
#550=EDGE_CURVE('',#426,#435,#243,.T.);
#551=EDGE_CURVE('',#435,#436,#244,.T.);
#552=EDGE_CURVE('',#436,#423,#245,.T.);
#553=EDGE_CURVE('',#422,#437,#246,.T.);
#554=EDGE_CURVE('',#437,#438,#247,.T.);
#555=EDGE_CURVE('',#438,#419,#248,.T.);
#556=EDGE_CURVE('',#439,#439,#55,.T.);
#557=EDGE_CURVE('',#440,#440,#56,.T.);
#558=EDGE_CURVE('',#441,#441,#57,.T.);
#559=EDGE_CURVE('',#442,#442,#58,.T.);
#560=EDGE_CURVE('',#438,#443,#249,.T.);
#561=EDGE_CURVE('',#420,#443,#250,.T.);
#562=EDGE_CURVE('',#444,#421,#251,.T.);
#563=EDGE_CURVE('',#437,#444,#252,.T.);
#564=EDGE_CURVE('',#443,#444,#253,.T.);
#565=EDGE_CURVE('',#436,#445,#254,.T.);
#566=EDGE_CURVE('',#424,#445,#255,.T.);
#567=EDGE_CURVE('',#446,#425,#256,.T.);
#568=EDGE_CURVE('',#435,#446,#257,.T.);
#569=EDGE_CURVE('',#445,#446,#258,.T.);
#570=EDGE_CURVE('',#376,#447,#259,.T.);
#571=EDGE_CURVE('',#447,#447,#59,.T.);
#572=EDGE_CURVE('',#448,#448,#60,.T.);
#573=EDGE_CURVE('',#448,#449,#260,.T.);
#574=EDGE_CURVE('',#449,#449,#61,.T.);
#575=EDGE_CURVE('',#439,#392,#261,.T.);
#576=EDGE_CURVE('',#440,#391,#262,.T.);
#577=EDGE_CURVE('',#441,#389,#263,.T.);
#578=EDGE_CURVE('',#442,#390,#264,.T.);
#579=ORIENTED_EDGE('',*,*,#450,.F.);
#580=ORIENTED_EDGE('',*,*,#451,.F.);
#581=ORIENTED_EDGE('',*,*,#452,.F.);
#582=ORIENTED_EDGE('',*,*,#453,.F.);
#583=ORIENTED_EDGE('',*,*,#454,.F.);
#584=ORIENTED_EDGE('',*,*,#455,.T.);
#585=ORIENTED_EDGE('',*,*,#456,.F.);
#586=ORIENTED_EDGE('',*,*,#457,.F.);
#587=ORIENTED_EDGE('',*,*,#458,.F.);
#588=ORIENTED_EDGE('',*,*,#453,.T.);
#589=ORIENTED_EDGE('',*,*,#459,.F.);
#590=ORIENTED_EDGE('',*,*,#460,.F.);
#591=ORIENTED_EDGE('',*,*,#461,.F.);
#592=ORIENTED_EDGE('',*,*,#460,.T.);
#593=ORIENTED_EDGE('',*,*,#462,.F.);
#594=ORIENTED_EDGE('',*,*,#463,.F.);
#595=ORIENTED_EDGE('',*,*,#464,.F.);
#596=ORIENTED_EDGE('',*,*,#463,.T.);
#597=ORIENTED_EDGE('',*,*,#465,.F.);
#598=ORIENTED_EDGE('',*,*,#455,.F.);
#599=ORIENTED_EDGE('',*,*,#465,.T.);
#600=ORIENTED_EDGE('',*,*,#462,.T.);
#601=ORIENTED_EDGE('',*,*,#459,.T.);
#602=ORIENTED_EDGE('',*,*,#452,.T.);
#603=ORIENTED_EDGE('',*,*,#466,.F.);
#604=ORIENTED_EDGE('',*,*,#467,.F.);
#605=ORIENTED_EDGE('',*,*,#456,.T.);
#606=ORIENTED_EDGE('',*,*,#450,.T.);
#607=ORIENTED_EDGE('',*,*,#458,.T.);
#608=ORIENTED_EDGE('',*,*,#461,.T.);
#609=ORIENTED_EDGE('',*,*,#464,.T.);
#610=ORIENTED_EDGE('',*,*,#454,.T.);
#611=ORIENTED_EDGE('',*,*,#468,.F.);
#612=ORIENTED_EDGE('',*,*,#469,.T.);
#613=ORIENTED_EDGE('',*,*,#470,.T.);
#614=ORIENTED_EDGE('',*,*,#471,.T.);
#615=ORIENTED_EDGE('',*,*,#472,.F.);
#616=ORIENTED_EDGE('',*,*,#473,.T.);
#617=ORIENTED_EDGE('',*,*,#474,.T.);
#618=ORIENTED_EDGE('',*,*,#475,.T.);
#619=ORIENTED_EDGE('',*,*,#476,.F.);
#620=ORIENTED_EDGE('',*,*,#477,.T.);
#621=ORIENTED_EDGE('',*,*,#478,.T.);
#622=ORIENTED_EDGE('',*,*,#479,.T.);
#623=ORIENTED_EDGE('',*,*,#480,.F.);
#624=ORIENTED_EDGE('',*,*,#481,.T.);
#625=ORIENTED_EDGE('',*,*,#482,.T.);
#626=ORIENTED_EDGE('',*,*,#483,.T.);
#627=ORIENTED_EDGE('',*,*,#484,.T.);
#628=ORIENTED_EDGE('',*,*,#479,.F.);
#629=ORIENTED_EDGE('',*,*,#485,.T.);
#630=ORIENTED_EDGE('',*,*,#486,.F.);
#631=ORIENTED_EDGE('',*,*,#487,.F.);
#632=ORIENTED_EDGE('',*,*,#477,.F.);
#633=ORIENTED_EDGE('',*,*,#488,.F.);
#634=ORIENTED_EDGE('',*,*,#489,.F.);
#635=ORIENTED_EDGE('',*,*,#490,.F.);
#636=ORIENTED_EDGE('',*,*,#478,.F.);
#637=ORIENTED_EDGE('',*,*,#490,.T.);
#638=ORIENTED_EDGE('',*,*,#491,.F.);
#639=ORIENTED_EDGE('',*,*,#485,.F.);
#640=ORIENTED_EDGE('',*,*,#491,.T.);
#641=ORIENTED_EDGE('',*,*,#489,.T.);
#642=ORIENTED_EDGE('',*,*,#492,.F.);
#643=ORIENTED_EDGE('',*,*,#486,.T.);
#644=ORIENTED_EDGE('',*,*,#471,.F.);
#645=ORIENTED_EDGE('',*,*,#493,.T.);
#646=ORIENTED_EDGE('',*,*,#494,.F.);
#647=ORIENTED_EDGE('',*,*,#495,.F.);
#648=ORIENTED_EDGE('',*,*,#469,.F.);
#649=ORIENTED_EDGE('',*,*,#496,.F.);
#650=ORIENTED_EDGE('',*,*,#497,.F.);
#651=ORIENTED_EDGE('',*,*,#498,.F.);
#652=ORIENTED_EDGE('',*,*,#470,.F.);
#653=ORIENTED_EDGE('',*,*,#498,.T.);
#654=ORIENTED_EDGE('',*,*,#499,.F.);
#655=ORIENTED_EDGE('',*,*,#493,.F.);
#656=ORIENTED_EDGE('',*,*,#499,.T.);
#657=ORIENTED_EDGE('',*,*,#497,.T.);
#658=ORIENTED_EDGE('',*,*,#500,.F.);
#659=ORIENTED_EDGE('',*,*,#494,.T.);
#660=ORIENTED_EDGE('',*,*,#473,.F.);
#661=ORIENTED_EDGE('',*,*,#501,.F.);
#662=ORIENTED_EDGE('',*,*,#502,.F.);
#663=ORIENTED_EDGE('',*,*,#503,.F.);
#664=ORIENTED_EDGE('',*,*,#475,.F.);
#665=ORIENTED_EDGE('',*,*,#504,.T.);
#666=ORIENTED_EDGE('',*,*,#505,.F.);
#667=ORIENTED_EDGE('',*,*,#506,.F.);
#668=ORIENTED_EDGE('',*,*,#474,.F.);
#669=ORIENTED_EDGE('',*,*,#503,.T.);
#670=ORIENTED_EDGE('',*,*,#507,.F.);
#671=ORIENTED_EDGE('',*,*,#504,.F.);
#672=ORIENTED_EDGE('',*,*,#507,.T.);
#673=ORIENTED_EDGE('',*,*,#502,.T.);
#674=ORIENTED_EDGE('',*,*,#508,.F.);
#675=ORIENTED_EDGE('',*,*,#505,.T.);
#676=ORIENTED_EDGE('',*,*,#509,.F.);
#677=ORIENTED_EDGE('',*,*,#510,.T.);
#678=ORIENTED_EDGE('',*,*,#511,.F.);
#679=ORIENTED_EDGE('',*,*,#512,.F.);
#680=ORIENTED_EDGE('',*,*,#513,.F.);
#681=ORIENTED_EDGE('',*,*,#512,.T.);
#682=ORIENTED_EDGE('',*,*,#514,.F.);
#683=ORIENTED_EDGE('',*,*,#515,.F.);
#684=ORIENTED_EDGE('',*,*,#516,.F.);
#685=ORIENTED_EDGE('',*,*,#515,.T.);
#686=ORIENTED_EDGE('',*,*,#517,.F.);
#687=ORIENTED_EDGE('',*,*,#518,.F.);
#688=ORIENTED_EDGE('',*,*,#519,.F.);
#689=ORIENTED_EDGE('',*,*,#520,.F.);
#690=ORIENTED_EDGE('',*,*,#521,.F.);
#691=ORIENTED_EDGE('',*,*,#522,.F.);
#692=ORIENTED_EDGE('',*,*,#523,.F.);
#693=ORIENTED_EDGE('',*,*,#522,.T.);
#694=ORIENTED_EDGE('',*,*,#524,.F.);
#695=ORIENTED_EDGE('',*,*,#510,.F.);
#696=ORIENTED_EDGE('',*,*,#524,.T.);
#697=ORIENTED_EDGE('',*,*,#521,.T.);
#698=ORIENTED_EDGE('',*,*,#525,.F.);
#699=ORIENTED_EDGE('',*,*,#526,.F.);
#700=ORIENTED_EDGE('',*,*,#517,.T.);
#701=ORIENTED_EDGE('',*,*,#514,.T.);
#702=ORIENTED_EDGE('',*,*,#511,.T.);
#703=ORIENTED_EDGE('',*,*,#518,.T.);
#704=ORIENTED_EDGE('',*,*,#526,.T.);
#705=ORIENTED_EDGE('',*,*,#527,.T.);
#706=ORIENTED_EDGE('',*,*,#528,.F.);
#707=ORIENTED_EDGE('',*,*,#527,.F.);
#708=ORIENTED_EDGE('',*,*,#525,.T.);
#709=ORIENTED_EDGE('',*,*,#520,.T.);
#710=ORIENTED_EDGE('',*,*,#529,.T.);
#711=ORIENTED_EDGE('',*,*,#530,.T.);
#712=ORIENTED_EDGE('',*,*,#531,.T.);
#713=ORIENTED_EDGE('',*,*,#532,.T.);
#714=ORIENTED_EDGE('',*,*,#533,.T.);
#715=ORIENTED_EDGE('',*,*,#534,.T.);
#716=ORIENTED_EDGE('',*,*,#535,.T.);
#717=ORIENTED_EDGE('',*,*,#536,.T.);
#718=ORIENTED_EDGE('',*,*,#537,.T.);
#719=ORIENTED_EDGE('',*,*,#538,.T.);
#720=ORIENTED_EDGE('',*,*,#539,.T.);
#721=ORIENTED_EDGE('',*,*,#540,.T.);
#722=ORIENTED_EDGE('',*,*,#541,.T.);
#723=ORIENTED_EDGE('',*,*,#542,.F.);
#724=ORIENTED_EDGE('',*,*,#543,.T.);
#725=ORIENTED_EDGE('',*,*,#544,.F.);
#726=ORIENTED_EDGE('',*,*,#538,.F.);
#727=ORIENTED_EDGE('',*,*,#545,.F.);
#728=ORIENTED_EDGE('',*,*,#540,.F.);
#729=ORIENTED_EDGE('',*,*,#546,.F.);
#730=ORIENTED_EDGE('',*,*,#547,.F.);
#731=ORIENTED_EDGE('',*,*,#548,.F.);
#732=ORIENTED_EDGE('',*,*,#547,.T.);
#733=ORIENTED_EDGE('',*,*,#549,.F.);
#734=ORIENTED_EDGE('',*,*,#543,.F.);
#735=ORIENTED_EDGE('',*,*,#549,.T.);
#736=ORIENTED_EDGE('',*,*,#546,.T.);
#737=ORIENTED_EDGE('',*,*,#539,.F.);
#738=ORIENTED_EDGE('',*,*,#544,.T.);
#739=ORIENTED_EDGE('',*,*,#516,.T.);
#740=ORIENTED_EDGE('',*,*,#541,.F.);
#741=ORIENTED_EDGE('',*,*,#545,.T.);
#742=ORIENTED_EDGE('',*,*,#548,.T.);
#743=ORIENTED_EDGE('',*,*,#542,.T.);
#744=ORIENTED_EDGE('',*,*,#537,.F.);
#745=ORIENTED_EDGE('',*,*,#550,.T.);
#746=ORIENTED_EDGE('',*,*,#551,.T.);
#747=ORIENTED_EDGE('',*,*,#552,.T.);
#748=ORIENTED_EDGE('',*,*,#533,.F.);
#749=ORIENTED_EDGE('',*,*,#553,.T.);
#750=ORIENTED_EDGE('',*,*,#554,.T.);
#751=ORIENTED_EDGE('',*,*,#555,.T.);
#752=ORIENTED_EDGE('',*,*,#529,.F.);
#753=ORIENTED_EDGE('',*,*,#519,.T.);
#754=ORIENTED_EDGE('',*,*,#523,.T.);
#755=ORIENTED_EDGE('',*,*,#509,.T.);
#756=ORIENTED_EDGE('',*,*,#513,.T.);
#757=ORIENTED_EDGE('',*,*,#556,.T.);
#758=ORIENTED_EDGE('',*,*,#557,.T.);
#759=ORIENTED_EDGE('',*,*,#558,.T.);
#760=ORIENTED_EDGE('',*,*,#559,.T.);
#761=ORIENTED_EDGE('',*,*,#555,.F.);
#762=ORIENTED_EDGE('',*,*,#560,.T.);
#763=ORIENTED_EDGE('',*,*,#561,.F.);
#764=ORIENTED_EDGE('',*,*,#530,.F.);
#765=ORIENTED_EDGE('',*,*,#553,.F.);
#766=ORIENTED_EDGE('',*,*,#532,.F.);
#767=ORIENTED_EDGE('',*,*,#562,.F.);
#768=ORIENTED_EDGE('',*,*,#563,.F.);
#769=ORIENTED_EDGE('',*,*,#554,.F.);
#770=ORIENTED_EDGE('',*,*,#563,.T.);
#771=ORIENTED_EDGE('',*,*,#564,.F.);
#772=ORIENTED_EDGE('',*,*,#560,.F.);
#773=ORIENTED_EDGE('',*,*,#564,.T.);
#774=ORIENTED_EDGE('',*,*,#562,.T.);
#775=ORIENTED_EDGE('',*,*,#531,.F.);
#776=ORIENTED_EDGE('',*,*,#561,.T.);
#777=ORIENTED_EDGE('',*,*,#552,.F.);
#778=ORIENTED_EDGE('',*,*,#565,.T.);
#779=ORIENTED_EDGE('',*,*,#566,.F.);
#780=ORIENTED_EDGE('',*,*,#534,.F.);
#781=ORIENTED_EDGE('',*,*,#550,.F.);
#782=ORIENTED_EDGE('',*,*,#536,.F.);
#783=ORIENTED_EDGE('',*,*,#567,.F.);
#784=ORIENTED_EDGE('',*,*,#568,.F.);
#785=ORIENTED_EDGE('',*,*,#551,.F.);
#786=ORIENTED_EDGE('',*,*,#568,.T.);
#787=ORIENTED_EDGE('',*,*,#569,.F.);
#788=ORIENTED_EDGE('',*,*,#565,.F.);
#789=ORIENTED_EDGE('',*,*,#569,.T.);
#790=ORIENTED_EDGE('',*,*,#567,.T.);
#791=ORIENTED_EDGE('',*,*,#535,.F.);
#792=ORIENTED_EDGE('',*,*,#566,.T.);
#793=ORIENTED_EDGE('',*,*,#451,.T.);
#794=ORIENTED_EDGE('',*,*,#480,.T.);
#795=ORIENTED_EDGE('',*,*,#487,.T.);
#796=ORIENTED_EDGE('',*,*,#492,.T.);
#797=ORIENTED_EDGE('',*,*,#488,.T.);
#798=ORIENTED_EDGE('',*,*,#476,.T.);
#799=ORIENTED_EDGE('',*,*,#506,.T.);
#800=ORIENTED_EDGE('',*,*,#508,.T.);
#801=ORIENTED_EDGE('',*,*,#501,.T.);
#802=ORIENTED_EDGE('',*,*,#472,.T.);
#803=ORIENTED_EDGE('',*,*,#495,.T.);
#804=ORIENTED_EDGE('',*,*,#500,.T.);
#805=ORIENTED_EDGE('',*,*,#496,.T.);
#806=ORIENTED_EDGE('',*,*,#468,.T.);
#807=ORIENTED_EDGE('',*,*,#457,.T.);
#808=ORIENTED_EDGE('',*,*,#467,.T.);
#809=ORIENTED_EDGE('',*,*,#570,.T.);
#810=ORIENTED_EDGE('',*,*,#571,.F.);
#811=ORIENTED_EDGE('',*,*,#570,.F.);
#812=ORIENTED_EDGE('',*,*,#466,.T.);
#813=ORIENTED_EDGE('',*,*,#572,.F.);
#814=ORIENTED_EDGE('',*,*,#573,.T.);
#815=ORIENTED_EDGE('',*,*,#574,.F.);
#816=ORIENTED_EDGE('',*,*,#573,.F.);
#817=ORIENTED_EDGE('',*,*,#556,.F.);
#818=ORIENTED_EDGE('',*,*,#575,.T.);
#819=ORIENTED_EDGE('',*,*,#484,.F.);
#820=ORIENTED_EDGE('',*,*,#575,.F.);
#821=ORIENTED_EDGE('',*,*,#557,.F.);
#822=ORIENTED_EDGE('',*,*,#576,.T.);
#823=ORIENTED_EDGE('',*,*,#483,.F.);
#824=ORIENTED_EDGE('',*,*,#576,.F.);
#825=ORIENTED_EDGE('',*,*,#558,.F.);
#826=ORIENTED_EDGE('',*,*,#577,.T.);
#827=ORIENTED_EDGE('',*,*,#481,.F.);
#828=ORIENTED_EDGE('',*,*,#577,.F.);
#829=ORIENTED_EDGE('',*,*,#559,.F.);
#830=ORIENTED_EDGE('',*,*,#578,.T.);
#831=ORIENTED_EDGE('',*,*,#482,.F.);
#832=ORIENTED_EDGE('',*,*,#578,.F.);
#833=ORIENTED_EDGE('',*,*,#574,.T.);
#834=ORIENTED_EDGE('',*,*,#571,.T.);
#835=ORIENTED_EDGE('',*,*,#572,.T.);
#836=ORIENTED_EDGE('',*,*,#528,.T.);
#837=PLANE('',#938);
#838=PLANE('',#939);
#839=PLANE('',#940);
#840=PLANE('',#941);
#841=PLANE('',#942);
#842=PLANE('',#943);
#843=PLANE('',#946);
#844=PLANE('',#955);
#845=PLANE('',#956);
#846=PLANE('',#957);
#847=PLANE('',#958);
#848=PLANE('',#960);
#849=PLANE('',#961);
#850=PLANE('',#962);
#851=PLANE('',#963);
#852=PLANE('',#965);
#853=PLANE('',#966);
#854=PLANE('',#967);
#855=PLANE('',#968);
#856=PLANE('',#970);
#857=PLANE('',#971);
#858=PLANE('',#972);
#859=PLANE('',#973);
#860=PLANE('',#974);
#861=PLANE('',#975);
#862=PLANE('',#987);
#863=PLANE('',#988);
#864=PLANE('',#989);
#865=PLANE('',#990);
#866=PLANE('',#991);
#867=PLANE('',#996);
#868=PLANE('',#997);
#869=PLANE('',#998);
#870=PLANE('',#999);
#871=PLANE('',#1000);
#872=PLANE('',#1001);
#873=PLANE('',#1002);
#874=PLANE('',#1003);
#875=PLANE('',#1013);
#876=PLANE('',#1014);
#877=ADVANCED_FACE('',(#62),#837,.T.);
#878=ADVANCED_FACE('',(#63),#838,.T.);
#879=ADVANCED_FACE('',(#64),#839,.T.);
#880=ADVANCED_FACE('',(#65),#840,.T.);
#881=ADVANCED_FACE('',(#66),#841,.T.);
#882=ADVANCED_FACE('',(#67),#842,.F.);
#883=ADVANCED_FACE('',(#68,#22,#23,#24,#25),#843,.F.);
#884=ADVANCED_FACE('',(#69),#844,.T.);
#885=ADVANCED_FACE('',(#70),#845,.T.);
#886=ADVANCED_FACE('',(#71),#846,.T.);
#887=ADVANCED_FACE('',(#72),#847,.F.);
#888=ADVANCED_FACE('',(#73),#848,.T.);
#889=ADVANCED_FACE('',(#74),#849,.T.);
#890=ADVANCED_FACE('',(#75),#850,.T.);
#891=ADVANCED_FACE('',(#76),#851,.F.);
#892=ADVANCED_FACE('',(#77),#852,.T.);
#893=ADVANCED_FACE('',(#78),#853,.T.);
#894=ADVANCED_FACE('',(#79),#854,.T.);
#895=ADVANCED_FACE('',(#80),#855,.F.);
#896=ADVANCED_FACE('',(#81),#856,.T.);
#897=ADVANCED_FACE('',(#82),#857,.T.);
#898=ADVANCED_FACE('',(#83),#858,.T.);
#899=ADVANCED_FACE('',(#84),#859,.T.);
#900=ADVANCED_FACE('',(#85),#860,.T.);
#901=ADVANCED_FACE('',(#86),#861,.T.);
#902=ADVANCED_FACE('',(#87),#15,.F.);
#903=ADVANCED_FACE('',(#88),#862,.T.);
#904=ADVANCED_FACE('',(#89),#863,.T.);
#905=ADVANCED_FACE('',(#90),#864,.T.);
#906=ADVANCED_FACE('',(#91),#865,.T.);
#907=ADVANCED_FACE('',(#92,#26,#27,#28,#29),#866,.T.);
#908=ADVANCED_FACE('',(#93),#867,.T.);
#909=ADVANCED_FACE('',(#94),#868,.T.);
#910=ADVANCED_FACE('',(#95),#869,.T.);
#911=ADVANCED_FACE('',(#96),#870,.T.);
#912=ADVANCED_FACE('',(#97),#871,.T.);
#913=ADVANCED_FACE('',(#98),#872,.T.);
#914=ADVANCED_FACE('',(#99),#873,.T.);
#915=ADVANCED_FACE('',(#100),#874,.T.);
#916=ADVANCED_FACE('',(#101),#16,.F.);
#917=ADVANCED_FACE('',(#102),#17,.T.);
#918=ADVANCED_FACE('',(#103),#18,.F.);
#919=ADVANCED_FACE('',(#104),#19,.F.);
#920=ADVANCED_FACE('',(#105),#20,.F.);
#921=ADVANCED_FACE('',(#106),#21,.F.);
#922=ADVANCED_FACE('',(#107,#30),#875,.F.);
#923=ADVANCED_FACE('',(#108,#31),#876,.T.);
#924=CLOSED_SHELL('',(#877,#878,#879,#880,#881,#882,#883,#884,#885,#886,
#887,#888,#889,#890,#891,#892,#893,#894,#895,#896,#897,#898,#899,#900,#901,
#902,#903,#904,#905,#906,#907,#908,#909,#910,#911,#912,#913,#914,#915,#916,
#917,#918,#919,#920,#921,#922,#923));
#925=DERIVED_UNIT_ELEMENT(#927,1.);
#926=DERIVED_UNIT_ELEMENT(#1538,-3.);
#927=(
MASS_UNIT()
NAMED_UNIT(*)
SI_UNIT(.KILO.,.GRAM.)
);
#928=DERIVED_UNIT((#925,#926));
#929=MEASURE_REPRESENTATION_ITEM('density measure',
POSITIVE_RATIO_MEASURE(1060.),#928);
#930=PROPERTY_DEFINITION_REPRESENTATION(#935,#932);
#931=PROPERTY_DEFINITION_REPRESENTATION(#936,#933);
#932=REPRESENTATION('material name',(#934),#1535);
#933=REPRESENTATION('density',(#929),#1535);
#934=DESCRIPTIVE_REPRESENTATION_ITEM('ABS \X2\D50CB77CC2A4D2F1\X0\',
'ABS \X2\D50CB77CC2A4D2F1\X0\');
#935=PROPERTY_DEFINITION('material property','material name',#1545);
#936=PROPERTY_DEFINITION('material property','density of part',#1545);
#937=AXIS2_PLACEMENT_3D('',#1270,#1015,#1016);
#938=AXIS2_PLACEMENT_3D('',#1271,#1017,#1018);
#939=AXIS2_PLACEMENT_3D('',#1280,#1023,#1024);
#940=AXIS2_PLACEMENT_3D('',#1289,#1029,#1030);
#941=AXIS2_PLACEMENT_3D('',#1295,#1034,#1035);
#942=AXIS2_PLACEMENT_3D('',#1301,#1039,#1040);
#943=AXIS2_PLACEMENT_3D('',#1304,#1043,#1044);
#944=AXIS2_PLACEMENT_3D('',#1306,#1045,#1046);
#945=AXIS2_PLACEMENT_3D('',#1307,#1047,#1048);
#946=AXIS2_PLACEMENT_3D('',#1308,#1049,#1050);
#947=AXIS2_PLACEMENT_3D('',#1310,#1051,#1052);
#948=AXIS2_PLACEMENT_3D('',#1318,#1056,#1057);
#949=AXIS2_PLACEMENT_3D('',#1326,#1061,#1062);
#950=AXIS2_PLACEMENT_3D('',#1333,#1066,#1067);
#951=AXIS2_PLACEMENT_3D('',#1335,#1068,#1069);
#952=AXIS2_PLACEMENT_3D('',#1337,#1070,#1071);
#953=AXIS2_PLACEMENT_3D('',#1339,#1072,#1073);
#954=AXIS2_PLACEMENT_3D('',#1341,#1074,#1075);
#955=AXIS2_PLACEMENT_3D('',#1342,#1076,#1077);
#956=AXIS2_PLACEMENT_3D('',#1348,#1081,#1082);
#957=AXIS2_PLACEMENT_3D('',#1354,#1086,#1087);
#958=AXIS2_PLACEMENT_3D('',#1356,#1089,#1090);
#959=AXIS2_PLACEMENT_3D('',#1357,#1091,#1092);
#960=AXIS2_PLACEMENT_3D('',#1358,#1093,#1094);
#961=AXIS2_PLACEMENT_3D('',#1364,#1098,#1099);
#962=AXIS2_PLACEMENT_3D('',#1370,#1103,#1104);
#963=AXIS2_PLACEMENT_3D('',#1372,#1106,#1107);
#964=AXIS2_PLACEMENT_3D('',#1373,#1108,#1109);
#965=AXIS2_PLACEMENT_3D('',#1374,#1110,#1111);
#966=AXIS2_PLACEMENT_3D('',#1380,#1115,#1116);
#967=AXIS2_PLACEMENT_3D('',#1386,#1120,#1121);
#968=AXIS2_PLACEMENT_3D('',#1388,#1123,#1124);
#969=AXIS2_PLACEMENT_3D('',#1389,#1125,#1126);
#970=AXIS2_PLACEMENT_3D('',#1390,#1127,#1128);
#971=AXIS2_PLACEMENT_3D('',#1399,#1133,#1134);
#972=AXIS2_PLACEMENT_3D('',#1405,#1138,#1139);
#973=AXIS2_PLACEMENT_3D('',#1411,#1143,#1144);
#974=AXIS2_PLACEMENT_3D('',#1420,#1149,#1150);
#975=AXIS2_PLACEMENT_3D('',#1423,#1153,#1154);
#976=AXIS2_PLACEMENT_3D('',#1425,#1155,#1156);
#977=AXIS2_PLACEMENT_3D('',#1426,#1157,#1158);
#978=AXIS2_PLACEMENT_3D('',#1427,#1159,#1160);
#979=AXIS2_PLACEMENT_3D('',#1430,#1162,#1163);
#980=AXIS2_PLACEMENT_3D('',#1432,#1164,#1165);
#981=AXIS2_PLACEMENT_3D('',#1436,#1167,#1168);
#982=AXIS2_PLACEMENT_3D('',#1440,#1170,#1171);
#983=AXIS2_PLACEMENT_3D('',#1444,#1173,#1174);
#984=AXIS2_PLACEMENT_3D('',#1448,#1176,#1177);
#985=AXIS2_PLACEMENT_3D('',#1452,#1179,#1180);
#986=AXIS2_PLACEMENT_3D('',#1455,#1182,#1183);
#987=AXIS2_PLACEMENT_3D('',#1456,#1184,#1185);
#988=AXIS2_PLACEMENT_3D('',#1462,#1189,#1190);
#989=AXIS2_PLACEMENT_3D('',#1468,#1194,#1195);
#990=AXIS2_PLACEMENT_3D('',#1471,#1198,#1199);
#991=AXIS2_PLACEMENT_3D('',#1472,#1200,#1201);
#992=AXIS2_PLACEMENT_3D('',#1484,#1208,#1209);
#993=AXIS2_PLACEMENT_3D('',#1486,#1210,#1211);
#994=AXIS2_PLACEMENT_3D('',#1488,#1212,#1213);
#995=AXIS2_PLACEMENT_3D('',#1490,#1214,#1215);
#996=AXIS2_PLACEMENT_3D('',#1491,#1216,#1217);
#997=AXIS2_PLACEMENT_3D('',#1495,#1220,#1221);
#998=AXIS2_PLACEMENT_3D('',#1499,#1224,#1225);
#999=AXIS2_PLACEMENT_3D('',#1501,#1227,#1228);
#1000=AXIS2_PLACEMENT_3D('',#1502,#1229,#1230);
#1001=AXIS2_PLACEMENT_3D('',#1506,#1233,#1234);
#1002=AXIS2_PLACEMENT_3D('',#1510,#1237,#1238);
#1003=AXIS2_PLACEMENT_3D('',#1512,#1240,#1241);
#1004=AXIS2_PLACEMENT_3D('',#1513,#1242,#1243);
#1005=AXIS2_PLACEMENT_3D('',#1516,#1245,#1246);
#1006=AXIS2_PLACEMENT_3D('',#1517,#1247,#1248);
#1007=AXIS2_PLACEMENT_3D('',#1519,#1249,#1250);
#1008=AXIS2_PLACEMENT_3D('',#1522,#1252,#1253);
#1009=AXIS2_PLACEMENT_3D('',#1523,#1254,#1255);
#1010=AXIS2_PLACEMENT_3D('',#1525,#1257,#1258);
#1011=AXIS2_PLACEMENT_3D('',#1527,#1260,#1261);
#1012=AXIS2_PLACEMENT_3D('',#1529,#1263,#1264);
#1013=AXIS2_PLACEMENT_3D('',#1531,#1266,#1267);
#1014=AXIS2_PLACEMENT_3D('',#1532,#1268,#1269);
#1015=DIRECTION('axis',(0.,0.,1.));
#1016=DIRECTION('refdir',(1.,0.,0.));
#1017=DIRECTION('center_axis',(0.,-1.,0.));
#1018=DIRECTION('ref_axis',(-1.,0.,0.));
#1019=DIRECTION('',(1.,0.,0.));
#1020=DIRECTION('',(0.,0.,1.));
#1021=DIRECTION('',(-1.,0.,0.));
#1022=DIRECTION('',(0.,0.,-1.));
#1023=DIRECTION('center_axis',(0.,1.,0.));
#1024=DIRECTION('ref_axis',(1.,0.,0.));
#1025=DIRECTION('',(-1.,0.,0.));
#1026=DIRECTION('',(0.,0.,-1.));
#1027=DIRECTION('',(1.,0.,0.));
#1028=DIRECTION('',(0.,0.,-1.));
#1029=DIRECTION('center_axis',(1.,0.,0.));
#1030=DIRECTION('ref_axis',(0.,-1.,0.));
#1031=DIRECTION('',(0.,1.,0.));
#1032=DIRECTION('',(0.,-1.,0.));
#1033=DIRECTION('',(0.,0.,-1.));
#1034=DIRECTION('center_axis',(0.,-1.,0.));
#1035=DIRECTION('ref_axis',(-1.,0.,0.));
#1036=DIRECTION('',(1.,0.,0.));
#1037=DIRECTION('',(-1.,0.,0.));
#1038=DIRECTION('',(0.,0.,-1.));
#1039=DIRECTION('center_axis',(1.,0.,0.));
#1040=DIRECTION('ref_axis',(0.,-1.,0.));
#1041=DIRECTION('',(0.,1.,0.));
#1042=DIRECTION('',(0.,-1.,0.));
#1043=DIRECTION('center_axis',(0.,0.,1.));
#1044=DIRECTION('ref_axis',(-1.,0.,0.));
#1045=DIRECTION('center_axis',(0.,0.,1.));
#1046=DIRECTION('ref_axis',(1.,0.,0.));
#1047=DIRECTION('center_axis',(0.,0.,1.));
#1048=DIRECTION('ref_axis',(1.,0.,0.));
#1049=DIRECTION('center_axis',(0.,0.,1.));
#1050=DIRECTION('ref_axis',(1.,0.,0.));
#1051=DIRECTION('center_axis',(0.,0.,1.));
#1052=DIRECTION('ref_axis',(1.,0.,0.));
#1053=DIRECTION('',(0.,-1.,0.));
#1054=DIRECTION('',(1.,0.,0.));
#1055=DIRECTION('',(0.,1.,0.));
#1056=DIRECTION('center_axis',(0.,0.,1.));
#1057=DIRECTION('ref_axis',(1.,0.,0.));
#1058=DIRECTION('',(-1.,0.,0.));
#1059=DIRECTION('',(0.,-1.,0.));
#1060=DIRECTION('',(1.,0.,0.));
#1061=DIRECTION('center_axis',(0.,0.,1.));
#1062=DIRECTION('ref_axis',(1.,0.,0.));
#1063=DIRECTION('',(0.,1.,0.));
#1064=DIRECTION('',(-1.,0.,0.));
#1065=DIRECTION('',(0.,-1.,0.));
#1066=DIRECTION('center_axis',(0.,0.,1.));
#1067=DIRECTION('ref_axis',(1.,0.,0.));
#1068=DIRECTION('center_axis',(0.,0.,1.));
#1069=DIRECTION('ref_axis',(1.,0.,0.));
#1070=DIRECTION('center_axis',(0.,0.,1.));
#1071=DIRECTION('ref_axis',(1.,0.,0.));
#1072=DIRECTION('center_axis',(0.,0.,1.));
#1073=DIRECTION('ref_axis',(1.,0.,0.));
#1074=DIRECTION('center_axis',(0.,0.,1.));
#1075=DIRECTION('ref_axis',(1.,0.,0.));
#1076=DIRECTION('center_axis',(-1.,0.,0.));
#1077=DIRECTION('ref_axis',(0.,1.,0.));
#1078=DIRECTION('',(0.,0.,-1.));
#1079=DIRECTION('',(0.,1.,0.));
#1080=DIRECTION('',(0.,0.,-1.));
#1081=DIRECTION('center_axis',(1.,0.,0.));
#1082=DIRECTION('ref_axis',(0.,-1.,0.));
#1083=DIRECTION('',(0.,0.,1.));
#1084=DIRECTION('',(0.,-1.,0.));
#1085=DIRECTION('',(0.,0.,-1.));
#1086=DIRECTION('center_axis',(0.,1.,0.));
#1087=DIRECTION('ref_axis',(1.,0.,0.));
#1088=DIRECTION('',(1.,0.,0.));
#1089=DIRECTION('center_axis',(0.,0.,1.));
#1090=DIRECTION('ref_axis',(-1.,0.,0.));
#1091=DIRECTION('center_axis',(0.,0.,1.));
#1092=DIRECTION('ref_axis',(1.,0.,0.));
#1093=DIRECTION('center_axis',(1.,0.,0.));
#1094=DIRECTION('ref_axis',(0.,-1.,0.));
#1095=DIRECTION('',(0.,0.,-1.));
#1096=DIRECTION('',(0.,-1.,0.));
#1097=DIRECTION('',(0.,0.,-1.));
#1098=DIRECTION('center_axis',(-1.,0.,0.));
#1099=DIRECTION('ref_axis',(0.,1.,0.));
#1100=DIRECTION('',(0.,0.,1.));
#1101=DIRECTION('',(0.,1.,0.));
#1102=DIRECTION('',(0.,0.,-1.));
#1103=DIRECTION('center_axis',(0.,-1.,0.));
#1104=DIRECTION('ref_axis',(-1.,0.,0.));
#1105=DIRECTION('',(-1.,0.,0.));
#1106=DIRECTION('center_axis',(0.,0.,1.));
#1107=DIRECTION('ref_axis',(-1.,0.,0.));
#1108=DIRECTION('center_axis',(0.,0.,1.));
#1109=DIRECTION('ref_axis',(1.,0.,0.));
#1110=DIRECTION('center_axis',(0.,1.,0.));
#1111=DIRECTION('ref_axis',(1.,0.,0.));
#1112=DIRECTION('',(0.,0.,1.));
#1113=DIRECTION('',(1.,0.,0.));
#1114=DIRECTION('',(0.,0.,-1.));
#1115=DIRECTION('center_axis',(0.,-1.,0.));
#1116=DIRECTION('ref_axis',(-1.,0.,0.));
#1117=DIRECTION('',(0.,0.,-1.));
#1118=DIRECTION('',(-1.,0.,0.));
#1119=DIRECTION('',(0.,0.,-1.));
#1120=DIRECTION('center_axis',(-1.,0.,0.));
#1121=DIRECTION('ref_axis',(0.,1.,0.));
#1122=DIRECTION('',(0.,1.,0.));
#1123=DIRECTION('center_axis',(0.,0.,1.));
#1124=DIRECTION('ref_axis',(-1.,0.,0.));
#1125=DIRECTION('center_axis',(0.,0.,1.));
#1126=DIRECTION('ref_axis',(1.,0.,0.));
#1127=DIRECTION('center_axis',(0.,-1.,0.));
#1128=DIRECTION('ref_axis',(1.,0.,0.));
#1129=DIRECTION('',(-1.,0.,0.));
#1130=DIRECTION('',(0.,0.,1.));
#1131=DIRECTION('',(1.,0.,0.));
#1132=DIRECTION('',(0.,0.,1.));
#1133=DIRECTION('center_axis',(1.,0.,0.));
#1134=DIRECTION('ref_axis',(0.,1.,0.));
#1135=DIRECTION('',(0.,-1.,0.));
#1136=DIRECTION('',(0.,1.,0.));
#1137=DIRECTION('',(0.,0.,1.));
#1138=DIRECTION('center_axis',(0.,-1.,0.));
#1139=DIRECTION('ref_axis',(1.,0.,0.));
#1140=DIRECTION('',(-1.,0.,0.));
#1141=DIRECTION('',(1.,0.,0.));
#1142=DIRECTION('',(0.,0.,1.));
#1143=DIRECTION('center_axis',(0.,1.,0.));
#1144=DIRECTION('ref_axis',(-1.,0.,0.));
#1145=DIRECTION('',(1.,0.,0.));
#1146=DIRECTION('',(0.,0.,-1.));
#1147=DIRECTION('',(-1.,0.,0.));
#1148=DIRECTION('',(0.,0.,1.));
#1149=DIRECTION('center_axis',(1.,0.,0.));
#1150=DIRECTION('ref_axis',(0.,1.,0.));
#1151=DIRECTION('',(0.,-1.,0.));
#1152=DIRECTION('',(0.,1.,0.));
#1153=DIRECTION('center_axis',(0.,0.,1.));
#1154=DIRECTION('ref_axis',(-1.,0.,0.));
#1155=DIRECTION('center_axis',(0.,0.,-1.));
#1156=DIRECTION('ref_axis',(1.,0.,0.));
#1157=DIRECTION('center_axis',(0.,0.,-1.));
#1158=DIRECTION('ref_axis',(1.,0.,0.));
#1159=DIRECTION('center_axis',(0.,0.,1.));
#1160=DIRECTION('ref_axis',(1.,0.,0.));
#1161=DIRECTION('',(0.,0.,1.));
#1162=DIRECTION('center_axis',(0.,0.,-1.));
#1163=DIRECTION('ref_axis',(1.,0.,0.));
#1164=DIRECTION('center_axis',(0.,0.,-1.));
#1165=DIRECTION('ref_axis',(1.,0.,0.));
#1166=DIRECTION('',(0.,0.,1.));
#1167=DIRECTION('center_axis',(0.,0.,-1.));
#1168=DIRECTION('ref_axis',(1.,0.,0.));
#1169=DIRECTION('',(0.,0.,-1.));
#1170=DIRECTION('center_axis',(0.,0.,-1.));
#1171=DIRECTION('ref_axis',(1.,0.,0.));
#1172=DIRECTION('',(0.,0.,1.));
#1173=DIRECTION('center_axis',(0.,0.,-1.));
#1174=DIRECTION('ref_axis',(1.,0.,0.));
#1175=DIRECTION('',(0.,0.,-1.));
#1176=DIRECTION('center_axis',(0.,0.,-1.));
#1177=DIRECTION('ref_axis',(1.,0.,0.));
#1178=DIRECTION('',(0.,0.,1.));
#1179=DIRECTION('center_axis',(0.,0.,-1.));
#1180=DIRECTION('ref_axis',(1.,0.,0.));
#1181=DIRECTION('',(0.,0.,-1.));
#1182=DIRECTION('center_axis',(0.,0.,-1.));
#1183=DIRECTION('ref_axis',(1.,0.,0.));
#1184=DIRECTION('center_axis',(1.,0.,0.));
#1185=DIRECTION('ref_axis',(0.,1.,0.));
#1186=DIRECTION('',(0.,-1.,0.));
#1187=DIRECTION('',(0.,0.,1.));
#1188=DIRECTION('',(0.,1.,0.));
#1189=DIRECTION('center_axis',(-1.,0.,0.));
#1190=DIRECTION('ref_axis',(0.,-1.,0.));
#1191=DIRECTION('',(0.,1.,0.));
#1192=DIRECTION('',(0.,-1.,0.));
#1193=DIRECTION('',(0.,0.,1.));
#1194=DIRECTION('center_axis',(0.,1.,0.));
#1195=DIRECTION('ref_axis',(-1.,0.,0.));
#1196=DIRECTION('',(1.,0.,0.));
#1197=DIRECTION('',(-1.,0.,0.));
#1198=DIRECTION('center_axis',(0.,0.,1.));
#1199=DIRECTION('ref_axis',(-1.,0.,0.));
#1200=DIRECTION('center_axis',(0.,0.,1.));
#1201=DIRECTION('ref_axis',(1.,0.,0.));
#1202=DIRECTION('',(-1.,0.,0.));
#1203=DIRECTION('',(0.,1.,0.));
#1204=DIRECTION('',(1.,0.,0.));
#1205=DIRECTION('',(0.,-1.,0.));
#1206=DIRECTION('',(-1.,0.,0.));
#1207=DIRECTION('',(0.,1.,0.));
#1208=DIRECTION('center_axis',(0.,0.,-1.));
#1209=DIRECTION('ref_axis',(1.,0.,0.));
#1210=DIRECTION('center_axis',(0.,0.,-1.));
#1211=DIRECTION('ref_axis',(1.,0.,0.));
#1212=DIRECTION('center_axis',(0.,0.,-1.));
#1213=DIRECTION('ref_axis',(1.,0.,0.));
#1214=DIRECTION('center_axis',(0.,0.,-1.));
#1215=DIRECTION('ref_axis',(1.,0.,0.));
#1216=DIRECTION('center_axis',(-1.,0.,0.));
#1217=DIRECTION('ref_axis',(0.,-1.,0.));
#1218=DIRECTION('',(0.,0.,1.));
#1219=DIRECTION('',(0.,-1.,0.));
#1220=DIRECTION('center_axis',(1.,0.,0.));
#1221=DIRECTION('ref_axis',(0.,1.,0.));
#1222=DIRECTION('',(0.,1.,0.));
#1223=DIRECTION('',(0.,0.,1.));
#1224=DIRECTION('center_axis',(0.,-1.,0.));
#1225=DIRECTION('ref_axis',(1.,0.,0.));
#1226=DIRECTION('',(1.,0.,0.));
#1227=DIRECTION('center_axis',(0.,0.,1.));
#1228=DIRECTION('ref_axis',(-1.,0.,0.));
#1229=DIRECTION('center_axis',(0.,1.,0.));
#1230=DIRECTION('ref_axis',(-1.,0.,0.));
#1231=DIRECTION('',(0.,0.,1.));
#1232=DIRECTION('',(-1.,0.,0.));
#1233=DIRECTION('center_axis',(0.,-1.,0.));
#1234=DIRECTION('ref_axis',(1.,0.,0.));
#1235=DIRECTION('',(1.,0.,0.));
#1236=DIRECTION('',(0.,0.,1.));
#1237=DIRECTION('center_axis',(-1.,0.,0.));
#1238=DIRECTION('ref_axis',(0.,-1.,0.));
#1239=DIRECTION('',(0.,-1.,0.));
#1240=DIRECTION('center_axis',(0.,0.,1.));
#1241=DIRECTION('ref_axis',(-1.,0.,0.));
#1242=DIRECTION('center_axis',(0.,0.,-1.));
#1243=DIRECTION('ref_axis',(1.,0.,0.));
#1244=DIRECTION('',(0.,0.,-1.));
#1245=DIRECTION('center_axis',(0.,0.,1.));
#1246=DIRECTION('ref_axis',(1.,0.,0.));
#1247=DIRECTION('center_axis',(0.,0.,1.));
#1248=DIRECTION('ref_axis',(1.,0.,0.));
#1249=DIRECTION('center_axis',(0.,0.,1.));
#1250=DIRECTION('ref_axis',(1.,0.,0.));
#1251=DIRECTION('',(0.,0.,-1.));
#1252=DIRECTION('center_axis',(0.,0.,-1.));
#1253=DIRECTION('ref_axis',(1.,0.,0.));
#1254=DIRECTION('center_axis',(0.,0.,1.));
#1255=DIRECTION('ref_axis',(1.,0.,0.));
#1256=DIRECTION('',(0.,0.,-1.));
#1257=DIRECTION('center_axis',(0.,0.,1.));
#1258=DIRECTION('ref_axis',(1.,0.,0.));
#1259=DIRECTION('',(0.,0.,-1.));
#1260=DIRECTION('center_axis',(0.,0.,1.));
#1261=DIRECTION('ref_axis',(1.,0.,0.));
#1262=DIRECTION('',(0.,0.,-1.));
#1263=DIRECTION('center_axis',(0.,0.,1.));
#1264=DIRECTION('ref_axis',(1.,0.,0.));
#1265=DIRECTION('',(0.,0.,-1.));
#1266=DIRECTION('center_axis',(0.,0.,1.));
#1267=DIRECTION('ref_axis',(1.,0.,0.));
#1268=DIRECTION('center_axis',(0.,0.,1.));
#1269=DIRECTION('ref_axis',(1.,0.,0.));
#1270=CARTESIAN_POINT('',(0.,0.,0.));
#1271=CARTESIAN_POINT('Origin',(-4.51425193498824,-0.500000007450581,0.5));
#1272=CARTESIAN_POINT('',(-5.47722557437152,-0.500000007450581,-0.5));
#1273=CARTESIAN_POINT('',(-4.51425193498824,-0.500000007450581,-0.5));
#1274=CARTESIAN_POINT('',(-2.25712596749412,-0.500000007450581,-0.5));
#1275=CARTESIAN_POINT('',(-5.47722557437152,-0.500000007450581,-1.5));
#1276=CARTESIAN_POINT('',(-5.47722557437152,-0.500000007450581,0.));
#1277=CARTESIAN_POINT('',(-4.51425193498824,-0.500000007450581,-1.5));
#1278=CARTESIAN_POINT('',(-4.51425193498824,-0.500000007450581,-1.5));
#1279=CARTESIAN_POINT('',(-4.51425193498824,-0.500000007450581,0.5));
#1280=CARTESIAN_POINT('Origin',(-5.47722557437152,0.500000007450581,0.5));
#1281=CARTESIAN_POINT('',(-4.50000006705523,0.500000007450581,-0.5));
#1282=CARTESIAN_POINT('',(-5.47722557437152,0.500000007450581,-0.5));
#1283=CARTESIAN_POINT('',(-2.73861278718576,0.500000007450581,-0.5));
#1284=CARTESIAN_POINT('',(-4.50000006705523,0.500000007450581,-1.5));
#1285=CARTESIAN_POINT('',(-4.50000006705523,0.500000007450581,0.5));
#1286=CARTESIAN_POINT('',(-5.47722557437152,0.500000007450581,-1.5));
#1287=CARTESIAN_POINT('',(-4.50000006705523,0.500000007450581,-1.5));
#1288=CARTESIAN_POINT('',(-5.47722557437152,0.500000007450581,0.));
#1289=CARTESIAN_POINT('Origin',(-4.51425193498824,0.,0.5));
#1290=CARTESIAN_POINT('',(-4.51425193498824,0.,-0.5));
#1291=CARTESIAN_POINT('',(-4.51425193498824,0.,-0.5));
#1292=CARTESIAN_POINT('',(-4.51425193498824,0.,-1.5));
#1293=CARTESIAN_POINT('',(-4.51425193498824,0.,-1.5));
#1294=CARTESIAN_POINT('',(-4.51425193498824,0.,0.5));
#1295=CARTESIAN_POINT('Origin',(-4.50000006705523,0.,0.5));
#1296=CARTESIAN_POINT('',(-4.50000006705523,0.,-0.5));
#1297=CARTESIAN_POINT('',(-2.25000003352761,0.,-0.5));
#1298=CARTESIAN_POINT('',(-4.50000006705523,0.,-1.5));
#1299=CARTESIAN_POINT('',(-4.50000006705523,0.,-1.5));
#1300=CARTESIAN_POINT('',(-4.50000006705523,0.,0.5));
#1301=CARTESIAN_POINT('Origin',(-4.50000006705523,0.500000007450581,0.5));
#1302=CARTESIAN_POINT('',(-4.50000006705523,0.25000000372529,-0.5));
#1303=CARTESIAN_POINT('',(-4.50000006705523,0.,-1.5));
#1304=CARTESIAN_POINT('Origin',(-5.00000007450581,0.,-1.5));
#1305=CARTESIAN_POINT('',(-5.5,6.73555739531044E-16,-1.5));
#1306=CARTESIAN_POINT('Origin',(0.,0.,-1.5));
#1307=CARTESIAN_POINT('Origin',(0.,0.,-1.5));
#1308=CARTESIAN_POINT('Origin',(0.,0.,-0.5));
#1309=CARTESIAN_POINT('',(-0.500000007450581,5.47722557437152,-0.5));
#1310=CARTESIAN_POINT('Origin',(0.,0.,-0.5));
#1311=CARTESIAN_POINT('',(-0.500000007450581,4.50000008195639,-0.5));
#1312=CARTESIAN_POINT('',(-0.500000007450581,2.25000004097819,-0.5));
#1313=CARTESIAN_POINT('',(0.500000007450581,4.50000008195639,-0.5));
#1314=CARTESIAN_POINT('',(0.25000000372529,4.50000008195639,-0.5));
#1315=CARTESIAN_POINT('',(0.500000007450581,5.47722557437152,-0.5));
#1316=CARTESIAN_POINT('',(0.500000007450581,2.73861278718576,-0.5));
#1317=CARTESIAN_POINT('',(5.47722557437152,0.500000007450581,-0.5));
#1318=CARTESIAN_POINT('Origin',(0.,0.,-0.5));
#1319=CARTESIAN_POINT('',(4.50000008195639,0.500000007450581,-0.5));
#1320=CARTESIAN_POINT('',(2.25000004097819,0.500000007450581,-0.5));
#1321=CARTESIAN_POINT('',(4.50000008195639,-0.500000007450581,-0.5));
#1322=CARTESIAN_POINT('',(4.50000008195639,-0.25000000372529,-0.5));
#1323=CARTESIAN_POINT('',(5.47722557437152,-0.500000007450581,-0.5));
#1324=CARTESIAN_POINT('',(2.73861278718576,-0.500000007450581,-0.5));
#1325=CARTESIAN_POINT('',(0.500000007450581,-5.47722557437152,-0.5));
#1326=CARTESIAN_POINT('Origin',(0.,0.,-0.5));
#1327=CARTESIAN_POINT('',(0.500000007450581,-4.50000006705523,-0.5));
#1328=CARTESIAN_POINT('',(0.500000007450581,-2.25000003352761,-0.5));
#1329=CARTESIAN_POINT('',(-0.500000007450581,-4.50000006705523,-0.5));
#1330=CARTESIAN_POINT('',(-0.25000000372529,-4.50000006705523,-0.5));
#1331=CARTESIAN_POINT('',(-0.500000007450581,-5.47722557437152,-0.5));
#1332=CARTESIAN_POINT('',(-0.500000007450581,-2.73861278718576,-0.5));
#1333=CARTESIAN_POINT('Origin',(0.,0.,-0.5));
#1334=CARTESIAN_POINT('',(-1.40000001788139,-2.44929359829471E-17,-0.5));
#1335=CARTESIAN_POINT('Origin',(-1.20000001788139,0.,-0.5));
#1336=CARTESIAN_POINT('',(-0.2,1.20000001788139,-0.5));
#1337=CARTESIAN_POINT('Origin',(0.,1.20000001788139,-0.5));
#1338=CARTESIAN_POINT('',(1.00000001788139,-2.44929359829471E-17,-0.5));
#1339=CARTESIAN_POINT('Origin',(1.20000001788139,0.,-0.5));
#1340=CARTESIAN_POINT('',(-0.2,-1.20000001788139,-0.5));
#1341=CARTESIAN_POINT('Origin',(0.,-1.20000001788139,-0.5));
#1342=CARTESIAN_POINT('Origin',(-0.500000007450581,-5.47722557437152,0.5));
#1343=CARTESIAN_POINT('',(-0.500000007450581,-4.50000006705523,-1.5));
#1344=CARTESIAN_POINT('',(-0.500000007450581,-4.50000006705523,0.5));
#1345=CARTESIAN_POINT('',(-0.500000007450581,-5.47722557437152,-1.5));
#1346=CARTESIAN_POINT('',(-0.500000007450581,-4.50000006705523,-1.5));
#1347=CARTESIAN_POINT('',(-0.500000007450581,-5.47722557437152,0.));
#1348=CARTESIAN_POINT('Origin',(0.500000007450581,-4.50000006705523,0.5));
#1349=CARTESIAN_POINT('',(0.500000007450581,-5.47722557437152,-1.5));
#1350=CARTESIAN_POINT('',(0.500000007450581,-5.47722557437152,0.));
#1351=CARTESIAN_POINT('',(0.500000007450581,-4.50000006705523,-1.5));
#1352=CARTESIAN_POINT('',(0.500000007450581,-4.50000006705523,-1.5));
#1353=CARTESIAN_POINT('',(0.500000007450581,-4.50000006705523,0.5));
#1354=CARTESIAN_POINT('Origin',(-0.500000007450581,-4.50000006705523,0.5));
#1355=CARTESIAN_POINT('',(0.,-4.50000006705523,-1.5));
#1356=CARTESIAN_POINT('Origin',(2.22044604925031E-16,-5.00000003352761,
-1.5));
#1357=CARTESIAN_POINT('Origin',(0.,0.,-1.5));
#1358=CARTESIAN_POINT('Origin',(0.500000007450581,5.47722557437152,0.5));
#1359=CARTESIAN_POINT('',(0.500000007450581,4.50000008195639,-1.5));
#1360=CARTESIAN_POINT('',(0.500000007450581,4.50000008195639,0.5));
#1361=CARTESIAN_POINT('',(0.500000007450581,5.47722557437152,-1.5));
#1362=CARTESIAN_POINT('',(0.500000007450581,4.50000008195639,-1.5));
#1363=CARTESIAN_POINT('',(0.500000007450581,5.47722557437152,0.));
#1364=CARTESIAN_POINT('Origin',(-0.500000007450581,4.50000008195639,0.5));
#1365=CARTESIAN_POINT('',(-0.500000007450581,5.47722557437152,-1.5));
#1366=CARTESIAN_POINT('',(-0.500000007450581,5.47722557437152,0.));
#1367=CARTESIAN_POINT('',(-0.500000007450581,4.50000008195639,-1.5));
#1368=CARTESIAN_POINT('',(-0.500000007450581,4.50000008195639,-1.5));
#1369=CARTESIAN_POINT('',(-0.500000007450581,4.50000008195639,0.5));
#1370=CARTESIAN_POINT('Origin',(0.500000007450581,4.50000008195639,0.5));
#1371=CARTESIAN_POINT('',(0.,4.50000008195639,-1.5));
#1372=CARTESIAN_POINT('Origin',(2.22044604925031E-16,5.00000004097819,-1.5));
#1373=CARTESIAN_POINT('Origin',(0.,0.,-1.5));
#1374=CARTESIAN_POINT('Origin',(4.50000008195639,0.500000007450581,0.5));
#1375=CARTESIAN_POINT('',(5.47722557437152,0.500000007450581,-1.5));
#1376=CARTESIAN_POINT('',(5.47722557437152,0.500000007450581,0.));
#1377=CARTESIAN_POINT('',(4.50000008195639,0.500000007450581,-1.5));
#1378=CARTESIAN_POINT('',(4.50000008195639,0.500000007450581,-1.5));
#1379=CARTESIAN_POINT('',(4.50000008195639,0.500000007450581,0.5));
#1380=CARTESIAN_POINT('Origin',(5.47722557437152,-0.500000007450581,0.5));
#1381=CARTESIAN_POINT('',(4.50000008195639,-0.500000007450581,-1.5));
#1382=CARTESIAN_POINT('',(4.50000008195639,-0.500000007450581,0.5));
#1383=CARTESIAN_POINT('',(5.47722557437152,-0.500000007450581,-1.5));
#1384=CARTESIAN_POINT('',(4.50000008195639,-0.500000007450581,-1.5));
#1385=CARTESIAN_POINT('',(5.47722557437152,-0.500000007450581,0.));
#1386=CARTESIAN_POINT('Origin',(4.50000008195639,-0.500000007450581,0.5));
#1387=CARTESIAN_POINT('',(4.50000008195639,0.,-1.5));
#1388=CARTESIAN_POINT('Origin',(5.00000004097819,0.,-1.5));
#1389=CARTESIAN_POINT('Origin',(0.,0.,-1.5));
#1390=CARTESIAN_POINT('Origin',(-4.51425193498824,0.,0.5));
#1391=CARTESIAN_POINT('',(-4.50000006705523,0.,0.5));
#1392=CARTESIAN_POINT('',(-4.51425193498824,0.,0.5));
#1393=CARTESIAN_POINT('',(-2.25712596749412,0.,0.5));
#1394=CARTESIAN_POINT('',(-4.50000006705523,0.,1.5));
#1395=CARTESIAN_POINT('',(-4.50000006705523,0.,0.5));
#1396=CARTESIAN_POINT('',(-4.51425193498824,0.,1.5));
#1397=CARTESIAN_POINT('',(-4.50000006705523,0.,1.5));
#1398=CARTESIAN_POINT('',(-4.51425193498824,0.,0.5));
#1399=CARTESIAN_POINT('Origin',(-4.51425193498824,-0.500000007450581,0.5));
#1400=CARTESIAN_POINT('',(-4.51425193498824,-0.500000007450581,0.5));
#1401=CARTESIAN_POINT('',(-4.51425193498824,-0.25000000372529,0.5));
#1402=CARTESIAN_POINT('',(-4.51425193498824,-0.500000007450581,1.5));
#1403=CARTESIAN_POINT('',(-4.51425193498824,0.,1.5));
#1404=CARTESIAN_POINT('',(-4.51425193498824,-0.500000007450581,0.5));
#1405=CARTESIAN_POINT('Origin',(-5.47722557437152,-0.500000007450581,0.5));
#1406=CARTESIAN_POINT('',(-5.47722557437152,-0.500000007450581,0.5));
#1407=CARTESIAN_POINT('',(-2.73861278718576,-0.500000007450581,0.5));
#1408=CARTESIAN_POINT('',(-5.47722557437152,-0.500000007450581,1.5));
#1409=CARTESIAN_POINT('',(-4.51425193498824,-0.500000007450581,1.5));
#1410=CARTESIAN_POINT('',(-5.47722557437152,-0.500000007450581,0.));
#1411=CARTESIAN_POINT('Origin',(-4.50000006705523,0.500000007450581,0.5));
#1412=CARTESIAN_POINT('',(-5.47722557437152,0.500000007450581,0.5));
#1413=CARTESIAN_POINT('',(-4.50000006705523,0.500000007450581,0.5));
#1414=CARTESIAN_POINT('',(-2.25000003352761,0.500000007450581,0.5));
#1415=CARTESIAN_POINT('',(-5.47722557437152,0.500000007450581,1.5));
#1416=CARTESIAN_POINT('',(-5.47722557437152,0.500000007450581,0.));
#1417=CARTESIAN_POINT('',(-4.50000006705523,0.500000007450581,1.5));
#1418=CARTESIAN_POINT('',(-4.50000006705523,0.500000007450581,1.5));
#1419=CARTESIAN_POINT('',(-4.50000006705523,0.500000007450581,0.5));
#1420=CARTESIAN_POINT('Origin',(-4.50000006705523,0.,0.5));
#1421=CARTESIAN_POINT('',(-4.50000006705523,0.,0.5));
#1422=CARTESIAN_POINT('',(-4.50000006705523,0.,1.5));
#1423=CARTESIAN_POINT('Origin',(-5.00000007450581,0.,1.5));
#1424=CARTESIAN_POINT('',(-5.5,-6.73555739531044E-16,1.5));
#1425=CARTESIAN_POINT('Origin',(0.,0.,1.5));
#1426=CARTESIAN_POINT('Origin',(0.,0.,1.5));
#1427=CARTESIAN_POINT('Origin',(0.,0.,0.));
#1428=CARTESIAN_POINT('',(-5.5,-6.73555739531044E-16,2.));
#1429=CARTESIAN_POINT('',(-5.5,-6.73555739531044E-16,0.));
#1430=CARTESIAN_POINT('Origin',(0.,0.,2.));
#1431=CARTESIAN_POINT('',(-0.500000007450581,5.47722557437152,0.5));
#1432=CARTESIAN_POINT('Origin',(0.,0.,0.5));
#1433=CARTESIAN_POINT('',(-0.500000007450581,5.47722557437152,1.5));
#1434=CARTESIAN_POINT('',(-0.500000007450581,5.47722557437152,0.));
#1435=CARTESIAN_POINT('',(0.500000007450581,5.47722557437152,1.5));
#1436=CARTESIAN_POINT('Origin',(0.,0.,1.5));
#1437=CARTESIAN_POINT('',(0.500000007450581,5.47722557437152,0.5));
#1438=CARTESIAN_POINT('',(0.500000007450581,5.47722557437152,0.));
#1439=CARTESIAN_POINT('',(5.47722557437152,0.500000007450581,0.5));
#1440=CARTESIAN_POINT('Origin',(0.,0.,0.5));
#1441=CARTESIAN_POINT('',(5.47722557437152,0.500000007450581,1.5));
#1442=CARTESIAN_POINT('',(5.47722557437152,0.500000007450581,0.));
#1443=CARTESIAN_POINT('',(5.47722557437152,-0.500000007450581,1.5));
#1444=CARTESIAN_POINT('Origin',(0.,0.,1.5));
#1445=CARTESIAN_POINT('',(5.47722557437152,-0.500000007450581,0.5));
#1446=CARTESIAN_POINT('',(5.47722557437152,-0.500000007450581,0.));
#1447=CARTESIAN_POINT('',(0.500000007450581,-5.47722557437152,0.5));
#1448=CARTESIAN_POINT('Origin',(0.,0.,0.5));
#1449=CARTESIAN_POINT('',(0.500000007450581,-5.47722557437152,1.5));
#1450=CARTESIAN_POINT('',(0.500000007450581,-5.47722557437152,0.));
#1451=CARTESIAN_POINT('',(-0.500000007450581,-5.47722557437152,1.5));
#1452=CARTESIAN_POINT('Origin',(0.,0.,1.5));
#1453=CARTESIAN_POINT('',(-0.500000007450581,-5.47722557437152,0.5));
#1454=CARTESIAN_POINT('',(-0.500000007450581,-5.47722557437152,0.));
#1455=CARTESIAN_POINT('Origin',(0.,0.,0.5));
#1456=CARTESIAN_POINT('Origin',(0.500000007450581,-5.47722557437152,0.5));
#1457=CARTESIAN_POINT('',(0.500000007450581,-4.50000006705523,0.5));
#1458=CARTESIAN_POINT('',(0.500000007450581,-2.73861278718576,0.5));
#1459=CARTESIAN_POINT('',(0.500000007450581,-4.50000006705523,1.5));
#1460=CARTESIAN_POINT('',(0.500000007450581,-4.50000006705523,0.5));
#1461=CARTESIAN_POINT('',(0.500000007450581,-4.50000006705523,1.5));
#1462=CARTESIAN_POINT('Origin',(-0.500000007450581,-4.50000006705523,0.5));
#1463=CARTESIAN_POINT('',(-0.500000007450581,-4.50000006705523,0.5));
#1464=CARTESIAN_POINT('',(-0.500000007450581,-2.25000003352761,0.5));
#1465=CARTESIAN_POINT('',(-0.500000007450581,-4.50000006705523,1.5));
#1466=CARTESIAN_POINT('',(-0.500000007450581,-4.50000006705523,1.5));
#1467=CARTESIAN_POINT('',(-0.500000007450581,-4.50000006705523,0.5));
#1468=CARTESIAN_POINT('Origin',(0.500000007450581,-4.50000006705523,0.5));
#1469=CARTESIAN_POINT('',(0.25000000372529,-4.50000006705523,0.5));
#1470=CARTESIAN_POINT('',(0.,-4.50000006705523,1.5));
#1471=CARTESIAN_POINT('Origin',(2.22044604925031E-16,-5.00000003352761,
1.5));
#1472=CARTESIAN_POINT('Origin',(0.,0.,0.5));
#1473=CARTESIAN_POINT('',(4.50000008195639,-0.500000007450581,0.5));
#1474=CARTESIAN_POINT('',(2.25000004097819,-0.500000007450581,0.5));
#1475=CARTESIAN_POINT('',(4.50000008195639,0.500000007450581,0.5));
#1476=CARTESIAN_POINT('',(4.50000008195639,0.25000000372529,0.5));
#1477=CARTESIAN_POINT('',(2.73861278718576,0.500000007450581,0.5));
#1478=CARTESIAN_POINT('',(0.500000007450581,4.50000008195639,0.5));
#1479=CARTESIAN_POINT('',(0.500000007450581,2.25000004097819,0.5));
#1480=CARTESIAN_POINT('',(-0.500000007450581,4.50000008195639,0.5));
#1481=CARTESIAN_POINT('',(-0.25000000372529,4.50000008195639,0.5));
#1482=CARTESIAN_POINT('',(-0.500000007450581,2.73861278718576,0.5));
#1483=CARTESIAN_POINT('',(-0.2,-1.20000001788139,0.5));
#1484=CARTESIAN_POINT('Origin',(0.,-1.20000001788139,0.5));
#1485=CARTESIAN_POINT('',(1.00000001788139,0.,0.5));
#1486=CARTESIAN_POINT('Origin',(1.20000001788139,0.,0.5));
#1487=CARTESIAN_POINT('',(-1.40000001788139,0.,0.5));
#1488=CARTESIAN_POINT('Origin',(-1.20000001788139,0.,0.5));
#1489=CARTESIAN_POINT('',(-0.2,1.20000001788139,0.5));
#1490=CARTESIAN_POINT('Origin',(0.,1.20000001788139,0.5));
#1491=CARTESIAN_POINT('Origin',(-0.500000007450581,5.47722557437152,0.5));
#1492=CARTESIAN_POINT('',(-0.500000007450581,4.50000008195639,1.5));
#1493=CARTESIAN_POINT('',(-0.500000007450581,4.50000008195639,0.5));
#1494=CARTESIAN_POINT('',(-0.500000007450581,4.50000008195639,1.5));
#1495=CARTESIAN_POINT('Origin',(0.500000007450581,4.50000008195639,0.5));
#1496=CARTESIAN_POINT('',(0.500000007450581,4.50000008195639,1.5));
#1497=CARTESIAN_POINT('',(0.500000007450581,4.50000008195639,1.5));
#1498=CARTESIAN_POINT('',(0.500000007450581,4.50000008195639,0.5));
#1499=CARTESIAN_POINT('Origin',(-0.500000007450581,4.50000008195639,0.5));
#1500=CARTESIAN_POINT('',(0.,4.50000008195639,1.5));
#1501=CARTESIAN_POINT('Origin',(2.22044604925031E-16,5.00000004097819,1.5));
#1502=CARTESIAN_POINT('Origin',(5.47722557437152,0.500000007450581,0.5));
#1503=CARTESIAN_POINT('',(4.50000008195639,0.500000007450581,1.5));
#1504=CARTESIAN_POINT('',(4.50000008195639,0.500000007450581,0.5));
#1505=CARTESIAN_POINT('',(4.50000008195639,0.500000007450581,1.5));
#1506=CARTESIAN_POINT('Origin',(4.50000008195639,-0.500000007450581,0.5));
#1507=CARTESIAN_POINT('',(4.50000008195639,-0.500000007450581,1.5));
#1508=CARTESIAN_POINT('',(4.50000008195639,-0.500000007450581,1.5));
#1509=CARTESIAN_POINT('',(4.50000008195639,-0.500000007450581,0.5));
#1510=CARTESIAN_POINT('Origin',(4.50000008195639,0.500000007450581,0.5));
#1511=CARTESIAN_POINT('',(4.50000008195639,0.,1.5));
#1512=CARTESIAN_POINT('Origin',(5.00000004097819,0.,1.5));
#1513=CARTESIAN_POINT('Origin',(0.,0.,0.));
#1514=CARTESIAN_POINT('',(-5.5,-6.73555739531044E-16,-2.));
#1515=CARTESIAN_POINT('',(-5.5,6.73555739531044E-16,0.));
#1516=CARTESIAN_POINT('Origin',(0.,0.,-2.));
#1517=CARTESIAN_POINT('Origin',(0.,0.,0.));
#1518=CARTESIAN_POINT('',(-7.55,-9.24608333356252E-16,2.));
#1519=CARTESIAN_POINT('Origin',(0.,0.,2.));
#1520=CARTESIAN_POINT('',(-7.55,-9.24608333356252E-16,-2.));
#1521=CARTESIAN_POINT('',(-7.55,-9.24608333356252E-16,0.));
#1522=CARTESIAN_POINT('Origin',(0.,0.,-2.));
#1523=CARTESIAN_POINT('Origin',(0.,-1.20000001788139,0.));
#1524=CARTESIAN_POINT('',(-0.2,-1.20000001788139,0.));
#1525=CARTESIAN_POINT('Origin',(1.20000001788139,0.,0.));
#1526=CARTESIAN_POINT('',(1.00000001788139,-2.44929359829471E-17,0.));
#1527=CARTESIAN_POINT('Origin',(-1.20000001788139,0.,0.));
#1528=CARTESIAN_POINT('',(-1.40000001788139,-2.44929359829471E-17,0.));
#1529=CARTESIAN_POINT('Origin',(0.,1.20000001788139,0.));
#1530=CARTESIAN_POINT('',(-0.2,1.20000001788139,0.));
#1531=CARTESIAN_POINT('Origin',(0.,0.,-2.));
#1532=CARTESIAN_POINT('Origin',(0.,0.,2.));
#1533=UNCERTAINTY_MEASURE_WITH_UNIT(LENGTH_MEASURE(0.001),#1537,
'DISTANCE_ACCURACY_VALUE',
'Maximum model space distance between geometric entities at asserted c
onnectivities');
#1534=UNCERTAINTY_MEASURE_WITH_UNIT(LENGTH_MEASURE(0.001),#1537,
'DISTANCE_ACCURACY_VALUE',
'Maximum model space distance between geometric entities at asserted c
onnectivities');
#1535=(
GEOMETRIC_REPRESENTATION_CONTEXT(3)
GLOBAL_UNCERTAINTY_ASSIGNED_CONTEXT((#1533))
GLOBAL_UNIT_ASSIGNED_CONTEXT((#1537,#1539,#1540))
REPRESENTATION_CONTEXT('','3D')
);
#1536=(
GEOMETRIC_REPRESENTATION_CONTEXT(3)
GLOBAL_UNCERTAINTY_ASSIGNED_CONTEXT((#1534))
GLOBAL_UNIT_ASSIGNED_CONTEXT((#1537,#1539,#1540))
REPRESENTATION_CONTEXT('','3D')
);
#1537=(
LENGTH_UNIT()
NAMED_UNIT(*)
SI_UNIT(.CENTI.,.METRE.)
);
#1538=(
LENGTH_UNIT()
NAMED_UNIT(*)
SI_UNIT($,.METRE.)
);
#1539=(
NAMED_UNIT(*)
PLANE_ANGLE_UNIT()
SI_UNIT($,.RADIAN.)
);
#1540=(
NAMED_UNIT(*)
SI_UNIT($,.STERADIAN.)
SOLID_ANGLE_UNIT()
);
#1541=SHAPE_DEFINITION_REPRESENTATION(#1542,#1543);
#1542=PRODUCT_DEFINITION_SHAPE('',$,#1545);
#1543=SHAPE_REPRESENTATION('',(#937),#1535);
#1544=PRODUCT_DEFINITION_CONTEXT('part definition',#1549,'design');
#1545=PRODUCT_DEFINITION('2026-07-07-15-43-07-572','tire',#1546,#1544);
#1546=PRODUCT_DEFINITION_FORMATION('',$,#1551);
#1547=PRODUCT_RELATED_PRODUCT_CATEGORY('tire','tire',(#1551));
#1548=APPLICATION_PROTOCOL_DEFINITION('international standard',
'automotive_design',2009,#1549);
#1549=APPLICATION_CONTEXT(
'Core Data for Automotive Mechanical Design Process');
#1550=PRODUCT_CONTEXT('part definition',#1549,'mechanical');
#1551=PRODUCT('2026-07-07-15-43-07-572','tire',$,(#1550));
#1552=PRESENTATION_STYLE_ASSIGNMENT((#1554));
#1553=PRESENTATION_STYLE_ASSIGNMENT((#1555));
#1554=SURFACE_STYLE_USAGE(.BOTH.,#1556);
#1555=SURFACE_STYLE_USAGE(.BOTH.,#1557);
#1556=SURFACE_SIDE_STYLE('',(#1558));
#1557=SURFACE_SIDE_STYLE('',(#1559));
#1558=SURFACE_STYLE_FILL_AREA(#1560);
#1559=SURFACE_STYLE_FILL_AREA(#1561);
#1560=FILL_AREA_STYLE('ABS(\X2\D770C0C9\X0\)',(#1562));
#1561=FILL_AREA_STYLE('\X2\C2E4B9ACCF58\X0\(\X2\D770C0C9\X0\)',(#1563));
#1562=FILL_AREA_STYLE_COLOUR('ABS(\X2\D770C0C9\X0\)',#1564);
#1563=FILL_AREA_STYLE_COLOUR('\X2\C2E4B9ACCF58\X0\(\X2\D770C0C9\X0\)',#1565);
#1564=COLOUR_RGB('ABS(\X2\D770C0C9\X0\)',0.964705882352941,0.964705882352941,
0.952941176470588);
#1565=COLOUR_RGB('\X2\C2E4B9ACCF58\X0\(\X2\D770C0C9\X0\)',0.145098039215686,
0.145098039215686,0.145098039215686);
ENDSEC;
END-ISO-10303-21;
