ISO-10303-21;
HEADER;
/* Generated by software containing ST-Developer
 * from STEP Tools, Inc. (www.steptools.com) 
 */

FILE_DESCRIPTION(
/* description */ (''),
/* implementation_level */ '2;1');

FILE_NAME(
/* name */ 'wheel hub.step',
/* time_stamp */ '2026-08-31T17:59:02+09:00',
/* author */ (''),
/* organization */ (''),
/* preprocessor_version */ 'ST-DEVELOPER v20.1',
/* originating_system */ 'Autodesk Translation Framework v15.8.0.0',
/* authorisation */ '');

FILE_SCHEMA (('AUTOMOTIVE_DESIGN { 1 0 10303 214 3 1 1 }'));
ENDSEC;

DATA;
#10=MECHANICAL_DESIGN_GEOMETRIC_PRESENTATION_REPRESENTATION('',(#13),#1093);
#11=SHAPE_REPRESENTATION_RELATIONSHIP('SRR','None',#1100,#12);
#12=ADVANCED_BREP_SHAPE_REPRESENTATION('',(#14),#1092);
#13=STYLED_ITEM('',(#1109),#14);
#14=MANIFOLD_SOLID_BREP('\X2\BCF8CCB4\X0\1',#637);
#15=FACE_BOUND('',#94,.T.);
#16=FACE_BOUND('',#97,.T.);
#17=FACE_BOUND('',#98,.T.);
#18=FACE_BOUND('',#99,.T.);
#19=FACE_BOUND('',#100,.T.);
#20=FACE_BOUND('',#102,.T.);
#21=FACE_BOUND('',#104,.T.);
#22=FACE_BOUND('',#106,.T.);
#23=FACE_BOUND('',#108,.T.);
#24=FACE_BOUND('',#126,.T.);
#25=FACE_BOUND('',#127,.T.);
#26=FACE_BOUND('',#128,.T.);
#27=FACE_BOUND('',#129,.T.);
#28=FACE_BOUND('',#132,.T.);
#29=FACE_BOUND('',#134,.T.);
#30=PLANE('',#654);
#31=PLANE('',#658);
#32=PLANE('',#663);
#33=PLANE('',#666);
#34=PLANE('',#669);
#35=PLANE('',#672);
#36=PLANE('',#675);
#37=PLANE('',#676);
#38=PLANE('',#677);
#39=PLANE('',#678);
#40=PLANE('',#681);
#41=PLANE('',#682);
#42=PLANE('',#683);
#43=PLANE('',#684);
#44=PLANE('',#686);
#45=PLANE('',#687);
#46=PLANE('',#688);
#47=PLANE('',#689);
#48=PLANE('',#691);
#49=PLANE('',#692);
#50=PLANE('',#693);
#51=PLANE('',#694);
#52=PLANE('',#696);
#53=PLANE('',#708);
#54=PLANE('',#709);
#55=FACE_OUTER_BOUND('',#92,.T.);
#56=FACE_OUTER_BOUND('',#93,.T.);
#57=FACE_OUTER_BOUND('',#95,.T.);
#58=FACE_OUTER_BOUND('',#96,.T.);
#59=FACE_OUTER_BOUND('',#101,.T.);
#60=FACE_OUTER_BOUND('',#103,.T.);
#61=FACE_OUTER_BOUND('',#105,.T.);
#62=FACE_OUTER_BOUND('',#107,.T.);
#63=FACE_OUTER_BOUND('',#109,.T.);
#64=FACE_OUTER_BOUND('',#110,.T.);
#65=FACE_OUTER_BOUND('',#111,.T.);
#66=FACE_OUTER_BOUND('',#112,.T.);
#67=FACE_OUTER_BOUND('',#113,.T.);
#68=FACE_OUTER_BOUND('',#114,.T.);
#69=FACE_OUTER_BOUND('',#115,.T.);
#70=FACE_OUTER_BOUND('',#116,.T.);
#71=FACE_OUTER_BOUND('',#117,.T.);
#72=FACE_OUTER_BOUND('',#118,.T.);
#73=FACE_OUTER_BOUND('',#119,.T.);
#74=FACE_OUTER_BOUND('',#120,.T.);
#75=FACE_OUTER_BOUND('',#121,.T.);
#76=FACE_OUTER_BOUND('',#122,.T.);
#77=FACE_OUTER_BOUND('',#123,.T.);
#78=FACE_OUTER_BOUND('',#124,.T.);
#79=FACE_OUTER_BOUND('',#125,.T.);
#80=FACE_OUTER_BOUND('',#130,.T.);
#81=FACE_OUTER_BOUND('',#131,.T.);
#82=FACE_OUTER_BOUND('',#133,.T.);
#83=FACE_OUTER_BOUND('',#135,.T.);
#84=FACE_OUTER_BOUND('',#136,.T.);
#85=FACE_OUTER_BOUND('',#137,.T.);
#86=FACE_OUTER_BOUND('',#138,.T.);
#87=FACE_OUTER_BOUND('',#139,.T.);
#88=FACE_OUTER_BOUND('',#140,.T.);
#89=FACE_OUTER_BOUND('',#141,.T.);
#90=FACE_OUTER_BOUND('',#142,.T.);
#91=FACE_OUTER_BOUND('',#143,.T.);
#92=EDGE_LOOP('',(#420,#421,#422,#423));
#93=EDGE_LOOP('',(#424));
#94=EDGE_LOOP('',(#425));
#95=EDGE_LOOP('',(#426,#427,#428,#429));
#96=EDGE_LOOP('',(#430));
#97=EDGE_LOOP('',(#431));
#98=EDGE_LOOP('',(#432));
#99=EDGE_LOOP('',(#433));
#100=EDGE_LOOP('',(#434));
#101=EDGE_LOOP('',(#435));
#102=EDGE_LOOP('',(#436));
#103=EDGE_LOOP('',(#437));
#104=EDGE_LOOP('',(#438));
#105=EDGE_LOOP('',(#439));
#106=EDGE_LOOP('',(#440));
#107=EDGE_LOOP('',(#441));
#108=EDGE_LOOP('',(#442));
#109=EDGE_LOOP('',(#443,#444,#445,#446));
#110=EDGE_LOOP('',(#447,#448,#449,#450));
#111=EDGE_LOOP('',(#451,#452,#453,#454));
#112=EDGE_LOOP('',(#455,#456,#457,#458,#459));
#113=EDGE_LOOP('',(#460,#461,#462,#463));
#114=EDGE_LOOP('',(#464,#465,#466,#467));
#115=EDGE_LOOP('',(#468,#469,#470,#471));
#116=EDGE_LOOP('',(#472,#473,#474,#475));
#117=EDGE_LOOP('',(#476,#477,#478,#479));
#118=EDGE_LOOP('',(#480,#481,#482,#483));
#119=EDGE_LOOP('',(#484,#485,#486,#487));
#120=EDGE_LOOP('',(#488,#489,#490,#491));
#121=EDGE_LOOP('',(#492,#493,#494,#495));
#122=EDGE_LOOP('',(#496,#497,#498,#499));
#123=EDGE_LOOP('',(#500,#501,#502,#503));
#124=EDGE_LOOP('',(#504,#505,#506,#507));
#125=EDGE_LOOP('',(#508,#509,#510,#511,#512,#513,#514,#515,#516,#517,#518,
#519,#520,#521,#522,#523));
#126=EDGE_LOOP('',(#524));
#127=EDGE_LOOP('',(#525));
#128=EDGE_LOOP('',(#526));
#129=EDGE_LOOP('',(#527));
#130=EDGE_LOOP('',(#528,#529,#530,#531));
#131=EDGE_LOOP('',(#532));
#132=EDGE_LOOP('',(#533));
#133=EDGE_LOOP('',(#534));
#134=EDGE_LOOP('',(#535));
#135=EDGE_LOOP('',(#536,#537,#538,#539));
#136=EDGE_LOOP('',(#540,#541,#542,#543));
#137=EDGE_LOOP('',(#544,#545,#546,#547));
#138=EDGE_LOOP('',(#548,#549,#550,#551));
#139=EDGE_LOOP('',(#552,#553,#554,#555,#556,#557,#558,#559,#560,#561,#562,
#563,#564,#565,#566,#567,#568,#569,#570,#571));
#140=EDGE_LOOP('',(#572,#573,#574,#575));
#141=EDGE_LOOP('',(#576,#577,#578,#579));
#142=EDGE_LOOP('',(#580,#581,#582,#583));
#143=EDGE_LOOP('',(#584,#585,#586,#587));
#144=LINE('',#917,#196);
#145=LINE('',#924,#197);
#146=LINE('',#958,#198);
#147=LINE('',#960,#199);
#148=LINE('',#962,#200);
#149=LINE('',#963,#201);
#150=LINE('',#967,#202);
#151=LINE('',#969,#203);
#152=LINE('',#971,#204);
#153=LINE('',#972,#205);
#154=LINE('',#974,#206);
#155=LINE('',#975,#207);
#156=LINE('',#983,#208);
#157=LINE('',#985,#209);
#158=LINE('',#987,#210);
#159=LINE('',#988,#211);
#160=LINE('',#992,#212);
#161=LINE('',#994,#213);
#162=LINE('',#996,#214);
#163=LINE('',#997,#215);
#164=LINE('',#999,#216);
#165=LINE('',#1000,#217);
#166=LINE('',#1006,#218);
#167=LINE('',#1008,#219);
#168=LINE('',#1010,#220);
#169=LINE('',#1011,#221);
#170=LINE('',#1015,#222);
#171=LINE('',#1017,#223);
#172=LINE('',#1019,#224);
#173=LINE('',#1020,#225);
#174=LINE('',#1022,#226);
#175=LINE('',#1023,#227);
#176=LINE('',#1029,#228);
#177=LINE('',#1031,#229);
#178=LINE('',#1033,#230);
#179=LINE('',#1034,#231);
#180=LINE('',#1038,#232);
#181=LINE('',#1040,#233);
#182=LINE('',#1042,#234);
#183=LINE('',#1043,#235);
#184=LINE('',#1045,#236);
#185=LINE('',#1046,#237);
#186=LINE('',#1066,#238);
#187=LINE('',#1073,#239);
#188=LINE('',#1075,#240);
#189=LINE('',#1077,#241);
#190=LINE('',#1079,#242);
#191=LINE('',#1081,#243);
#192=LINE('',#1083,#244);
#193=LINE('',#1085,#245);
#194=LINE('',#1087,#246);
#195=LINE('',#1089,#247);
#196=VECTOR('',#726,3.35410196624968);
#197=VECTOR('',#735,2.5);
#198=VECTOR('',#774,1.);
#199=VECTOR('',#775,1.);
#200=VECTOR('',#776,1.);
#201=VECTOR('',#777,1.);
#202=VECTOR('',#780,1.);
#203=VECTOR('',#781,1.);
#204=VECTOR('',#782,1.);
#205=VECTOR('',#783,1.);
#206=VECTOR('',#786,1.);
#207=VECTOR('',#787,1.);
#208=VECTOR('',#796,1.);
#209=VECTOR('',#797,1.);
#210=VECTOR('',#798,1.);
#211=VECTOR('',#799,1.);
#212=VECTOR('',#802,1.);
#213=VECTOR('',#803,1.);
#214=VECTOR('',#804,1.);
#215=VECTOR('',#805,1.);
#216=VECTOR('',#808,1.);
#217=VECTOR('',#809,1.);
#218=VECTOR('',#816,1.);
#219=VECTOR('',#817,1.);
#220=VECTOR('',#818,1.);
#221=VECTOR('',#819,1.);
#222=VECTOR('',#822,1.);
#223=VECTOR('',#823,1.);
#224=VECTOR('',#824,1.);
#225=VECTOR('',#825,1.);
#226=VECTOR('',#828,1.);
#227=VECTOR('',#829,1.);
#228=VECTOR('',#836,1.);
#229=VECTOR('',#837,1.);
#230=VECTOR('',#838,1.);
#231=VECTOR('',#839,1.);
#232=VECTOR('',#842,1.);
#233=VECTOR('',#843,1.);
#234=VECTOR('',#844,1.);
#235=VECTOR('',#845,1.);
#236=VECTOR('',#848,1.);
#237=VECTOR('',#849,1.);
#238=VECTOR('',#876,5.);
#239=VECTOR('',#887,0.4);
#240=VECTOR('',#890,0.4);
#241=VECTOR('',#893,0.4);
#242=VECTOR('',#896,0.4);
#243=VECTOR('',#899,5.49);
#244=VECTOR('',#902,0.21);
#245=VECTOR('',#905,0.21);
#246=VECTOR('',#908,0.21);
#247=VECTOR('',#911,0.21);
#248=CIRCLE('',#652,3.35410196624968);
#249=CIRCLE('',#653,3.35410196624968);
#250=CIRCLE('',#655,2.5);
#251=CIRCLE('',#657,2.5);
#252=CIRCLE('',#659,0.4);
#253=CIRCLE('',#660,0.4);
#254=CIRCLE('',#661,0.4);
#255=CIRCLE('',#662,0.4);
#256=CIRCLE('',#664,0.4);
#257=CIRCLE('',#665,0.21);
#258=CIRCLE('',#667,0.4);
#259=CIRCLE('',#668,0.21);
#260=CIRCLE('',#670,0.4);
#261=CIRCLE('',#671,0.21);
#262=CIRCLE('',#673,0.4);
#263=CIRCLE('',#674,0.21);
#264=CIRCLE('',#679,5.49);
#265=CIRCLE('',#680,5.49);
#266=CIRCLE('',#685,5.49);
#267=CIRCLE('',#690,5.49);
#268=CIRCLE('',#695,5.49);
#269=CIRCLE('',#697,5.49);
#270=CIRCLE('',#698,5.49);
#271=CIRCLE('',#699,5.49);
#272=CIRCLE('',#700,5.49);
#273=CIRCLE('',#701,0.21);
#274=CIRCLE('',#702,0.21);
#275=CIRCLE('',#703,0.21);
#276=CIRCLE('',#704,0.21);
#277=CIRCLE('',#706,5.);
#278=CIRCLE('',#707,5.);
#279=CIRCLE('',#710,5.49);
#280=VERTEX_POINT('',#914);
#281=VERTEX_POINT('',#916);
#282=VERTEX_POINT('',#920);
#283=VERTEX_POINT('',#923);
#284=VERTEX_POINT('',#927);
#285=VERTEX_POINT('',#929);
#286=VERTEX_POINT('',#931);
#287=VERTEX_POINT('',#933);
#288=VERTEX_POINT('',#936);
#289=VERTEX_POINT('',#938);
#290=VERTEX_POINT('',#941);
#291=VERTEX_POINT('',#943);
#292=VERTEX_POINT('',#946);
#293=VERTEX_POINT('',#948);
#294=VERTEX_POINT('',#951);
#295=VERTEX_POINT('',#953);
#296=VERTEX_POINT('',#956);
#297=VERTEX_POINT('',#957);
#298=VERTEX_POINT('',#959);
#299=VERTEX_POINT('',#961);
#300=VERTEX_POINT('',#965);
#301=VERTEX_POINT('',#966);
#302=VERTEX_POINT('',#968);
#303=VERTEX_POINT('',#970);
#304=VERTEX_POINT('',#977);
#305=VERTEX_POINT('',#981);
#306=VERTEX_POINT('',#982);
#307=VERTEX_POINT('',#984);
#308=VERTEX_POINT('',#986);
#309=VERTEX_POINT('',#990);
#310=VERTEX_POINT('',#991);
#311=VERTEX_POINT('',#993);
#312=VERTEX_POINT('',#995);
#313=VERTEX_POINT('',#1004);
#314=VERTEX_POINT('',#1005);
#315=VERTEX_POINT('',#1007);
#316=VERTEX_POINT('',#1009);
#317=VERTEX_POINT('',#1013);
#318=VERTEX_POINT('',#1014);
#319=VERTEX_POINT('',#1016);
#320=VERTEX_POINT('',#1018);
#321=VERTEX_POINT('',#1027);
#322=VERTEX_POINT('',#1028);
#323=VERTEX_POINT('',#1030);
#324=VERTEX_POINT('',#1032);
#325=VERTEX_POINT('',#1036);
#326=VERTEX_POINT('',#1037);
#327=VERTEX_POINT('',#1039);
#328=VERTEX_POINT('',#1041);
#329=VERTEX_POINT('',#1054);
#330=VERTEX_POINT('',#1056);
#331=VERTEX_POINT('',#1058);
#332=VERTEX_POINT('',#1060);
#333=VERTEX_POINT('',#1063);
#334=VERTEX_POINT('',#1065);
#335=VERTEX_POINT('',#1070);
#336=EDGE_CURVE('',#280,#280,#248,.T.);
#337=EDGE_CURVE('',#280,#281,#144,.T.);
#338=EDGE_CURVE('',#281,#281,#249,.T.);
#339=EDGE_CURVE('',#282,#282,#250,.T.);
#340=EDGE_CURVE('',#282,#283,#145,.T.);
#341=EDGE_CURVE('',#283,#283,#251,.T.);
#342=EDGE_CURVE('',#284,#284,#252,.T.);
#343=EDGE_CURVE('',#285,#285,#253,.T.);
#344=EDGE_CURVE('',#286,#286,#254,.T.);
#345=EDGE_CURVE('',#287,#287,#255,.T.);
#346=EDGE_CURVE('',#288,#288,#256,.T.);
#347=EDGE_CURVE('',#289,#289,#257,.T.);
#348=EDGE_CURVE('',#290,#290,#258,.T.);
#349=EDGE_CURVE('',#291,#291,#259,.T.);
#350=EDGE_CURVE('',#292,#292,#260,.T.);
#351=EDGE_CURVE('',#293,#293,#261,.T.);
#352=EDGE_CURVE('',#294,#294,#262,.T.);
#353=EDGE_CURVE('',#295,#295,#263,.T.);
#354=EDGE_CURVE('',#296,#297,#146,.T.);
#355=EDGE_CURVE('',#298,#296,#147,.T.);
#356=EDGE_CURVE('',#298,#299,#148,.T.);
#357=EDGE_CURVE('',#297,#299,#149,.T.);
#358=EDGE_CURVE('',#300,#301,#150,.T.);
#359=EDGE_CURVE('',#300,#302,#151,.T.);
#360=EDGE_CURVE('',#302,#303,#152,.T.);
#361=EDGE_CURVE('',#301,#303,#153,.T.);
#362=EDGE_CURVE('',#297,#300,#154,.T.);
#363=EDGE_CURVE('',#299,#302,#155,.T.);
#364=EDGE_CURVE('',#304,#298,#264,.T.);
#365=EDGE_CURVE('',#303,#304,#265,.T.);
#366=EDGE_CURVE('',#305,#306,#156,.T.);
#367=EDGE_CURVE('',#307,#305,#157,.T.);
#368=EDGE_CURVE('',#307,#308,#158,.T.);
#369=EDGE_CURVE('',#306,#308,#159,.T.);
#370=EDGE_CURVE('',#309,#310,#160,.T.);
#371=EDGE_CURVE('',#309,#311,#161,.T.);
#372=EDGE_CURVE('',#311,#312,#162,.T.);
#373=EDGE_CURVE('',#310,#312,#163,.T.);
#374=EDGE_CURVE('',#306,#309,#164,.T.);
#375=EDGE_CURVE('',#308,#311,#165,.T.);
#376=EDGE_CURVE('',#312,#307,#266,.T.);
#377=EDGE_CURVE('',#313,#314,#166,.T.);
#378=EDGE_CURVE('',#315,#313,#167,.T.);
#379=EDGE_CURVE('',#315,#316,#168,.T.);
#380=EDGE_CURVE('',#314,#316,#169,.T.);
#381=EDGE_CURVE('',#317,#318,#170,.T.);
#382=EDGE_CURVE('',#317,#319,#171,.T.);
#383=EDGE_CURVE('',#319,#320,#172,.T.);
#384=EDGE_CURVE('',#318,#320,#173,.T.);
#385=EDGE_CURVE('',#314,#317,#174,.T.);
#386=EDGE_CURVE('',#316,#319,#175,.T.);
#387=EDGE_CURVE('',#320,#315,#267,.T.);
#388=EDGE_CURVE('',#321,#322,#176,.T.);
#389=EDGE_CURVE('',#323,#321,#177,.T.);
#390=EDGE_CURVE('',#323,#324,#178,.T.);
#391=EDGE_CURVE('',#322,#324,#179,.T.);
#392=EDGE_CURVE('',#325,#326,#180,.T.);
#393=EDGE_CURVE('',#325,#327,#181,.T.);
#394=EDGE_CURVE('',#327,#328,#182,.T.);
#395=EDGE_CURVE('',#326,#328,#183,.T.);
#396=EDGE_CURVE('',#322,#325,#184,.T.);
#397=EDGE_CURVE('',#324,#327,#185,.T.);
#398=EDGE_CURVE('',#328,#323,#268,.T.);
#399=EDGE_CURVE('',#305,#301,#269,.T.);
#400=EDGE_CURVE('',#321,#310,#270,.T.);
#401=EDGE_CURVE('',#313,#326,#271,.T.);
#402=EDGE_CURVE('',#296,#318,#272,.T.);
#403=EDGE_CURVE('',#329,#329,#273,.T.);
#404=EDGE_CURVE('',#330,#330,#274,.T.);
#405=EDGE_CURVE('',#331,#331,#275,.T.);
#406=EDGE_CURVE('',#332,#332,#276,.T.);
#407=EDGE_CURVE('',#333,#333,#277,.T.);
#408=EDGE_CURVE('',#333,#334,#186,.T.);
#409=EDGE_CURVE('',#334,#334,#278,.T.);
#410=EDGE_CURVE('',#335,#335,#279,.T.);
#411=EDGE_CURVE('',#287,#294,#187,.T.);
#412=EDGE_CURVE('',#286,#288,#188,.T.);
#413=EDGE_CURVE('',#285,#292,#189,.T.);
#414=EDGE_CURVE('',#284,#290,#190,.T.);
#415=EDGE_CURVE('',#335,#304,#191,.T.);
#416=EDGE_CURVE('',#291,#331,#192,.T.);
#417=EDGE_CURVE('',#293,#332,#193,.T.);
#418=EDGE_CURVE('',#295,#329,#194,.T.);
#419=EDGE_CURVE('',#289,#330,#195,.T.);
#420=ORIENTED_EDGE('',*,*,#336,.F.);
#421=ORIENTED_EDGE('',*,*,#337,.T.);
#422=ORIENTED_EDGE('',*,*,#338,.F.);
#423=ORIENTED_EDGE('',*,*,#337,.F.);
#424=ORIENTED_EDGE('',*,*,#336,.T.);
#425=ORIENTED_EDGE('',*,*,#339,.T.);
#426=ORIENTED_EDGE('',*,*,#339,.F.);
#427=ORIENTED_EDGE('',*,*,#340,.T.);
#428=ORIENTED_EDGE('',*,*,#341,.T.);
#429=ORIENTED_EDGE('',*,*,#340,.F.);
#430=ORIENTED_EDGE('',*,*,#341,.F.);
#431=ORIENTED_EDGE('',*,*,#342,.F.);
#432=ORIENTED_EDGE('',*,*,#343,.F.);
#433=ORIENTED_EDGE('',*,*,#344,.F.);
#434=ORIENTED_EDGE('',*,*,#345,.F.);
#435=ORIENTED_EDGE('',*,*,#346,.F.);
#436=ORIENTED_EDGE('',*,*,#347,.F.);
#437=ORIENTED_EDGE('',*,*,#348,.F.);
#438=ORIENTED_EDGE('',*,*,#349,.F.);
#439=ORIENTED_EDGE('',*,*,#350,.F.);
#440=ORIENTED_EDGE('',*,*,#351,.F.);
#441=ORIENTED_EDGE('',*,*,#352,.F.);
#442=ORIENTED_EDGE('',*,*,#353,.F.);
#443=ORIENTED_EDGE('',*,*,#354,.F.);
#444=ORIENTED_EDGE('',*,*,#355,.F.);
#445=ORIENTED_EDGE('',*,*,#356,.T.);
#446=ORIENTED_EDGE('',*,*,#357,.F.);
#447=ORIENTED_EDGE('',*,*,#358,.F.);
#448=ORIENTED_EDGE('',*,*,#359,.T.);
#449=ORIENTED_EDGE('',*,*,#360,.T.);
#450=ORIENTED_EDGE('',*,*,#361,.F.);
#451=ORIENTED_EDGE('',*,*,#362,.F.);
#452=ORIENTED_EDGE('',*,*,#357,.T.);
#453=ORIENTED_EDGE('',*,*,#363,.T.);
#454=ORIENTED_EDGE('',*,*,#359,.F.);
#455=ORIENTED_EDGE('',*,*,#363,.F.);
#456=ORIENTED_EDGE('',*,*,#356,.F.);
#457=ORIENTED_EDGE('',*,*,#364,.F.);
#458=ORIENTED_EDGE('',*,*,#365,.F.);
#459=ORIENTED_EDGE('',*,*,#360,.F.);
#460=ORIENTED_EDGE('',*,*,#366,.F.);
#461=ORIENTED_EDGE('',*,*,#367,.F.);
#462=ORIENTED_EDGE('',*,*,#368,.T.);
#463=ORIENTED_EDGE('',*,*,#369,.F.);
#464=ORIENTED_EDGE('',*,*,#370,.F.);
#465=ORIENTED_EDGE('',*,*,#371,.T.);
#466=ORIENTED_EDGE('',*,*,#372,.T.);
#467=ORIENTED_EDGE('',*,*,#373,.F.);
#468=ORIENTED_EDGE('',*,*,#374,.F.);
#469=ORIENTED_EDGE('',*,*,#369,.T.);
#470=ORIENTED_EDGE('',*,*,#375,.T.);
#471=ORIENTED_EDGE('',*,*,#371,.F.);
#472=ORIENTED_EDGE('',*,*,#375,.F.);
#473=ORIENTED_EDGE('',*,*,#368,.F.);
#474=ORIENTED_EDGE('',*,*,#376,.F.);
#475=ORIENTED_EDGE('',*,*,#372,.F.);
#476=ORIENTED_EDGE('',*,*,#377,.F.);
#477=ORIENTED_EDGE('',*,*,#378,.F.);
#478=ORIENTED_EDGE('',*,*,#379,.T.);
#479=ORIENTED_EDGE('',*,*,#380,.F.);
#480=ORIENTED_EDGE('',*,*,#381,.F.);
#481=ORIENTED_EDGE('',*,*,#382,.T.);
#482=ORIENTED_EDGE('',*,*,#383,.T.);
#483=ORIENTED_EDGE('',*,*,#384,.F.);
#484=ORIENTED_EDGE('',*,*,#385,.F.);
#485=ORIENTED_EDGE('',*,*,#380,.T.);
#486=ORIENTED_EDGE('',*,*,#386,.T.);
#487=ORIENTED_EDGE('',*,*,#382,.F.);
#488=ORIENTED_EDGE('',*,*,#386,.F.);
#489=ORIENTED_EDGE('',*,*,#379,.F.);
#490=ORIENTED_EDGE('',*,*,#387,.F.);
#491=ORIENTED_EDGE('',*,*,#383,.F.);
#492=ORIENTED_EDGE('',*,*,#388,.F.);
#493=ORIENTED_EDGE('',*,*,#389,.F.);
#494=ORIENTED_EDGE('',*,*,#390,.T.);
#495=ORIENTED_EDGE('',*,*,#391,.F.);
#496=ORIENTED_EDGE('',*,*,#392,.F.);
#497=ORIENTED_EDGE('',*,*,#393,.T.);
#498=ORIENTED_EDGE('',*,*,#394,.T.);
#499=ORIENTED_EDGE('',*,*,#395,.F.);
#500=ORIENTED_EDGE('',*,*,#396,.F.);
#501=ORIENTED_EDGE('',*,*,#391,.T.);
#502=ORIENTED_EDGE('',*,*,#397,.T.);
#503=ORIENTED_EDGE('',*,*,#393,.F.);
#504=ORIENTED_EDGE('',*,*,#397,.F.);
#505=ORIENTED_EDGE('',*,*,#390,.F.);
#506=ORIENTED_EDGE('',*,*,#398,.F.);
#507=ORIENTED_EDGE('',*,*,#394,.F.);
#508=ORIENTED_EDGE('',*,*,#354,.T.);
#509=ORIENTED_EDGE('',*,*,#362,.T.);
#510=ORIENTED_EDGE('',*,*,#358,.T.);
#511=ORIENTED_EDGE('',*,*,#399,.F.);
#512=ORIENTED_EDGE('',*,*,#366,.T.);
#513=ORIENTED_EDGE('',*,*,#374,.T.);
#514=ORIENTED_EDGE('',*,*,#370,.T.);
#515=ORIENTED_EDGE('',*,*,#400,.F.);
#516=ORIENTED_EDGE('',*,*,#388,.T.);
#517=ORIENTED_EDGE('',*,*,#396,.T.);
#518=ORIENTED_EDGE('',*,*,#392,.T.);
#519=ORIENTED_EDGE('',*,*,#401,.F.);
#520=ORIENTED_EDGE('',*,*,#377,.T.);
#521=ORIENTED_EDGE('',*,*,#385,.T.);
#522=ORIENTED_EDGE('',*,*,#381,.T.);
#523=ORIENTED_EDGE('',*,*,#402,.F.);
#524=ORIENTED_EDGE('',*,*,#403,.T.);
#525=ORIENTED_EDGE('',*,*,#404,.T.);
#526=ORIENTED_EDGE('',*,*,#405,.T.);
#527=ORIENTED_EDGE('',*,*,#406,.F.);
#528=ORIENTED_EDGE('',*,*,#407,.F.);
#529=ORIENTED_EDGE('',*,*,#408,.T.);
#530=ORIENTED_EDGE('',*,*,#409,.T.);
#531=ORIENTED_EDGE('',*,*,#408,.F.);
#532=ORIENTED_EDGE('',*,*,#409,.F.);
#533=ORIENTED_EDGE('',*,*,#338,.T.);
#534=ORIENTED_EDGE('',*,*,#410,.T.);
#535=ORIENTED_EDGE('',*,*,#407,.T.);
#536=ORIENTED_EDGE('',*,*,#345,.T.);
#537=ORIENTED_EDGE('',*,*,#411,.T.);
#538=ORIENTED_EDGE('',*,*,#352,.T.);
#539=ORIENTED_EDGE('',*,*,#411,.F.);
#540=ORIENTED_EDGE('',*,*,#344,.T.);
#541=ORIENTED_EDGE('',*,*,#412,.T.);
#542=ORIENTED_EDGE('',*,*,#346,.T.);
#543=ORIENTED_EDGE('',*,*,#412,.F.);
#544=ORIENTED_EDGE('',*,*,#343,.T.);
#545=ORIENTED_EDGE('',*,*,#413,.T.);
#546=ORIENTED_EDGE('',*,*,#350,.T.);
#547=ORIENTED_EDGE('',*,*,#413,.F.);
#548=ORIENTED_EDGE('',*,*,#342,.T.);
#549=ORIENTED_EDGE('',*,*,#414,.T.);
#550=ORIENTED_EDGE('',*,*,#348,.T.);
#551=ORIENTED_EDGE('',*,*,#414,.F.);
#552=ORIENTED_EDGE('',*,*,#410,.F.);
#553=ORIENTED_EDGE('',*,*,#415,.T.);
#554=ORIENTED_EDGE('',*,*,#364,.T.);
#555=ORIENTED_EDGE('',*,*,#355,.T.);
#556=ORIENTED_EDGE('',*,*,#402,.T.);
#557=ORIENTED_EDGE('',*,*,#384,.T.);
#558=ORIENTED_EDGE('',*,*,#387,.T.);
#559=ORIENTED_EDGE('',*,*,#378,.T.);
#560=ORIENTED_EDGE('',*,*,#401,.T.);
#561=ORIENTED_EDGE('',*,*,#395,.T.);
#562=ORIENTED_EDGE('',*,*,#398,.T.);
#563=ORIENTED_EDGE('',*,*,#389,.T.);
#564=ORIENTED_EDGE('',*,*,#400,.T.);
#565=ORIENTED_EDGE('',*,*,#373,.T.);
#566=ORIENTED_EDGE('',*,*,#376,.T.);
#567=ORIENTED_EDGE('',*,*,#367,.T.);
#568=ORIENTED_EDGE('',*,*,#399,.T.);
#569=ORIENTED_EDGE('',*,*,#361,.T.);
#570=ORIENTED_EDGE('',*,*,#365,.T.);
#571=ORIENTED_EDGE('',*,*,#415,.F.);
#572=ORIENTED_EDGE('',*,*,#349,.T.);
#573=ORIENTED_EDGE('',*,*,#416,.T.);
#574=ORIENTED_EDGE('',*,*,#405,.F.);
#575=ORIENTED_EDGE('',*,*,#416,.F.);
#576=ORIENTED_EDGE('',*,*,#351,.T.);
#577=ORIENTED_EDGE('',*,*,#417,.T.);
#578=ORIENTED_EDGE('',*,*,#406,.T.);
#579=ORIENTED_EDGE('',*,*,#417,.F.);
#580=ORIENTED_EDGE('',*,*,#353,.T.);
#581=ORIENTED_EDGE('',*,*,#418,.T.);
#582=ORIENTED_EDGE('',*,*,#403,.F.);
#583=ORIENTED_EDGE('',*,*,#418,.F.);
#584=ORIENTED_EDGE('',*,*,#347,.T.);
#585=ORIENTED_EDGE('',*,*,#419,.T.);
#586=ORIENTED_EDGE('',*,*,#404,.F.);
#587=ORIENTED_EDGE('',*,*,#419,.F.);
#588=CYLINDRICAL_SURFACE('',#651,3.35410196624968);
#589=CYLINDRICAL_SURFACE('',#656,2.5);
#590=CYLINDRICAL_SURFACE('',#705,5.);
#591=CYLINDRICAL_SURFACE('',#711,0.4);
#592=CYLINDRICAL_SURFACE('',#712,0.4);
#593=CYLINDRICAL_SURFACE('',#713,0.4);
#594=CYLINDRICAL_SURFACE('',#714,0.4);
#595=CYLINDRICAL_SURFACE('',#715,5.49);
#596=CYLINDRICAL_SURFACE('',#716,0.21);
#597=CYLINDRICAL_SURFACE('',#717,0.21);
#598=CYLINDRICAL_SURFACE('',#718,0.21);
#599=CYLINDRICAL_SURFACE('',#719,0.21);
#600=ADVANCED_FACE('',(#55),#588,.T.);
#601=ADVANCED_FACE('',(#56,#15),#30,.T.);
#602=ADVANCED_FACE('',(#57),#589,.F.);
#603=ADVANCED_FACE('',(#58,#16,#17,#18,#19),#31,.T.);
#604=ADVANCED_FACE('',(#59,#20),#32,.T.);
#605=ADVANCED_FACE('',(#60,#21),#33,.T.);
#606=ADVANCED_FACE('',(#61,#22),#34,.T.);
#607=ADVANCED_FACE('',(#62,#23),#35,.T.);
#608=ADVANCED_FACE('',(#63),#36,.F.);
#609=ADVANCED_FACE('',(#64),#37,.F.);
#610=ADVANCED_FACE('',(#65),#38,.F.);
#611=ADVANCED_FACE('',(#66),#39,.T.);
#612=ADVANCED_FACE('',(#67),#40,.F.);
#613=ADVANCED_FACE('',(#68),#41,.F.);
#614=ADVANCED_FACE('',(#69),#42,.F.);
#615=ADVANCED_FACE('',(#70),#43,.T.);
#616=ADVANCED_FACE('',(#71),#44,.F.);
#617=ADVANCED_FACE('',(#72),#45,.F.);
#618=ADVANCED_FACE('',(#73),#46,.F.);
#619=ADVANCED_FACE('',(#74),#47,.T.);
#620=ADVANCED_FACE('',(#75),#48,.F.);
#621=ADVANCED_FACE('',(#76),#49,.F.);
#622=ADVANCED_FACE('',(#77),#50,.F.);
#623=ADVANCED_FACE('',(#78),#51,.T.);
#624=ADVANCED_FACE('',(#79,#24,#25,#26,#27),#52,.F.);
#625=ADVANCED_FACE('',(#80),#590,.F.);
#626=ADVANCED_FACE('',(#81,#28),#53,.T.);
#627=ADVANCED_FACE('',(#82,#29),#54,.T.);
#628=ADVANCED_FACE('',(#83),#591,.F.);
#629=ADVANCED_FACE('',(#84),#592,.F.);
#630=ADVANCED_FACE('',(#85),#593,.F.);
#631=ADVANCED_FACE('',(#86),#594,.F.);
#632=ADVANCED_FACE('',(#87),#595,.T.);
#633=ADVANCED_FACE('',(#88),#596,.F.);
#634=ADVANCED_FACE('',(#89),#597,.F.);
#635=ADVANCED_FACE('',(#90),#598,.F.);
#636=ADVANCED_FACE('',(#91),#599,.F.);
#637=CLOSED_SHELL('',(#600,#601,#602,#603,#604,#605,#606,#607,#608,#609,
#610,#611,#612,#613,#614,#615,#616,#617,#618,#619,#620,#621,#622,#623,#624,
#625,#626,#627,#628,#629,#630,#631,#632,#633,#634,#635,#636));
#638=DERIVED_UNIT_ELEMENT(#640,1.);
#639=DERIVED_UNIT_ELEMENT(#1095,-3.);
#640=(
MASS_UNIT()
NAMED_UNIT(*)
SI_UNIT(.KILO.,.GRAM.)
);
#641=DERIVED_UNIT((#638,#639));
#642=MEASURE_REPRESENTATION_ITEM('density measure',
POSITIVE_RATIO_MEASURE(1060.),#641);
#643=PROPERTY_DEFINITION_REPRESENTATION(#648,#645);
#644=PROPERTY_DEFINITION_REPRESENTATION(#649,#646);
#645=REPRESENTATION('material name',(#647),#1092);
#646=REPRESENTATION('density',(#642),#1092);
#647=DESCRIPTIVE_REPRESENTATION_ITEM('ABS \X2\D50CB77CC2A4D2F1\X0\',
'ABS \X2\D50CB77CC2A4D2F1\X0\');
#648=PROPERTY_DEFINITION('material property','material name',#1102);
#649=PROPERTY_DEFINITION('material property','density of part',#1102);
#650=AXIS2_PLACEMENT_3D('',#912,#720,#721);
#651=AXIS2_PLACEMENT_3D('',#913,#722,#723);
#652=AXIS2_PLACEMENT_3D('',#915,#724,#725);
#653=AXIS2_PLACEMENT_3D('',#918,#727,#728);
#654=AXIS2_PLACEMENT_3D('',#919,#729,#730);
#655=AXIS2_PLACEMENT_3D('',#921,#731,#732);
#656=AXIS2_PLACEMENT_3D('',#922,#733,#734);
#657=AXIS2_PLACEMENT_3D('',#925,#736,#737);
#658=AXIS2_PLACEMENT_3D('',#926,#738,#739);
#659=AXIS2_PLACEMENT_3D('',#928,#740,#741);
#660=AXIS2_PLACEMENT_3D('',#930,#742,#743);
#661=AXIS2_PLACEMENT_3D('',#932,#744,#745);
#662=AXIS2_PLACEMENT_3D('',#934,#746,#747);
#663=AXIS2_PLACEMENT_3D('',#935,#748,#749);
#664=AXIS2_PLACEMENT_3D('',#937,#750,#751);
#665=AXIS2_PLACEMENT_3D('',#939,#752,#753);
#666=AXIS2_PLACEMENT_3D('',#940,#754,#755);
#667=AXIS2_PLACEMENT_3D('',#942,#756,#757);
#668=AXIS2_PLACEMENT_3D('',#944,#758,#759);
#669=AXIS2_PLACEMENT_3D('',#945,#760,#761);
#670=AXIS2_PLACEMENT_3D('',#947,#762,#763);
#671=AXIS2_PLACEMENT_3D('',#949,#764,#765);
#672=AXIS2_PLACEMENT_3D('',#950,#766,#767);
#673=AXIS2_PLACEMENT_3D('',#952,#768,#769);
#674=AXIS2_PLACEMENT_3D('',#954,#770,#771);
#675=AXIS2_PLACEMENT_3D('',#955,#772,#773);
#676=AXIS2_PLACEMENT_3D('',#964,#778,#779);
#677=AXIS2_PLACEMENT_3D('',#973,#784,#785);
#678=AXIS2_PLACEMENT_3D('',#976,#788,#789);
#679=AXIS2_PLACEMENT_3D('',#978,#790,#791);
#680=AXIS2_PLACEMENT_3D('',#979,#792,#793);
#681=AXIS2_PLACEMENT_3D('',#980,#794,#795);
#682=AXIS2_PLACEMENT_3D('',#989,#800,#801);
#683=AXIS2_PLACEMENT_3D('',#998,#806,#807);
#684=AXIS2_PLACEMENT_3D('',#1001,#810,#811);
#685=AXIS2_PLACEMENT_3D('',#1002,#812,#813);
#686=AXIS2_PLACEMENT_3D('',#1003,#814,#815);
#687=AXIS2_PLACEMENT_3D('',#1012,#820,#821);
#688=AXIS2_PLACEMENT_3D('',#1021,#826,#827);
#689=AXIS2_PLACEMENT_3D('',#1024,#830,#831);
#690=AXIS2_PLACEMENT_3D('',#1025,#832,#833);
#691=AXIS2_PLACEMENT_3D('',#1026,#834,#835);
#692=AXIS2_PLACEMENT_3D('',#1035,#840,#841);
#693=AXIS2_PLACEMENT_3D('',#1044,#846,#847);
#694=AXIS2_PLACEMENT_3D('',#1047,#850,#851);
#695=AXIS2_PLACEMENT_3D('',#1048,#852,#853);
#696=AXIS2_PLACEMENT_3D('',#1049,#854,#855);
#697=AXIS2_PLACEMENT_3D('',#1050,#856,#857);
#698=AXIS2_PLACEMENT_3D('',#1051,#858,#859);
#699=AXIS2_PLACEMENT_3D('',#1052,#860,#861);
#700=AXIS2_PLACEMENT_3D('',#1053,#862,#863);
#701=AXIS2_PLACEMENT_3D('',#1055,#864,#865);
#702=AXIS2_PLACEMENT_3D('',#1057,#866,#867);
#703=AXIS2_PLACEMENT_3D('',#1059,#868,#869);
#704=AXIS2_PLACEMENT_3D('',#1061,#870,#871);
#705=AXIS2_PLACEMENT_3D('',#1062,#872,#873);
#706=AXIS2_PLACEMENT_3D('',#1064,#874,#875);
#707=AXIS2_PLACEMENT_3D('',#1067,#877,#878);
#708=AXIS2_PLACEMENT_3D('',#1068,#879,#880);
#709=AXIS2_PLACEMENT_3D('',#1069,#881,#882);
#710=AXIS2_PLACEMENT_3D('',#1071,#883,#884);
#711=AXIS2_PLACEMENT_3D('',#1072,#885,#886);
#712=AXIS2_PLACEMENT_3D('',#1074,#888,#889);
#713=AXIS2_PLACEMENT_3D('',#1076,#891,#892);
#714=AXIS2_PLACEMENT_3D('',#1078,#894,#895);
#715=AXIS2_PLACEMENT_3D('',#1080,#897,#898);
#716=AXIS2_PLACEMENT_3D('',#1082,#900,#901);
#717=AXIS2_PLACEMENT_3D('',#1084,#903,#904);
#718=AXIS2_PLACEMENT_3D('',#1086,#906,#907);
#719=AXIS2_PLACEMENT_3D('',#1088,#909,#910);
#720=DIRECTION('axis',(0.,0.,1.));
#721=DIRECTION('refdir',(1.,0.,0.));
#722=DIRECTION('center_axis',(0.,0.,1.));
#723=DIRECTION('ref_axis',(-1.,0.,0.));
#724=DIRECTION('center_axis',(0.,0.,1.));
#725=DIRECTION('ref_axis',(-1.,0.,0.));
#726=DIRECTION('',(0.,0.,-1.));
#727=DIRECTION('center_axis',(0.,0.,-1.));
#728=DIRECTION('ref_axis',(-1.,0.,0.));
#729=DIRECTION('center_axis',(0.,0.,1.));
#730=DIRECTION('ref_axis',(-1.,0.,0.));
#731=DIRECTION('center_axis',(0.,0.,-1.));
#732=DIRECTION('ref_axis',(-1.,0.,0.));
#733=DIRECTION('center_axis',(0.,0.,-1.));
#734=DIRECTION('ref_axis',(-1.,0.,0.));
#735=DIRECTION('',(0.,0.,-1.));
#736=DIRECTION('center_axis',(0.,0.,-1.));
#737=DIRECTION('ref_axis',(-1.,0.,0.));
#738=DIRECTION('center_axis',(0.,0.,1.));
#739=DIRECTION('ref_axis',(1.,0.,0.));
#740=DIRECTION('center_axis',(0.,0.,1.));
#741=DIRECTION('ref_axis',(-1.,0.,0.));
#742=DIRECTION('center_axis',(0.,0.,1.));
#743=DIRECTION('ref_axis',(-1.,0.,0.));
#744=DIRECTION('center_axis',(0.,0.,1.));
#745=DIRECTION('ref_axis',(-1.,0.,0.));
#746=DIRECTION('center_axis',(0.,0.,1.));
#747=DIRECTION('ref_axis',(-1.,0.,0.));
#748=DIRECTION('center_axis',(0.,0.,1.));
#749=DIRECTION('ref_axis',(-1.,0.,0.));
#750=DIRECTION('center_axis',(0.,0.,-1.));
#751=DIRECTION('ref_axis',(-1.,0.,0.));
#752=DIRECTION('center_axis',(0.,0.,1.));
#753=DIRECTION('ref_axis',(1.,0.,0.));
#754=DIRECTION('center_axis',(0.,0.,1.));
#755=DIRECTION('ref_axis',(-1.,0.,0.));
#756=DIRECTION('center_axis',(0.,0.,-1.));
#757=DIRECTION('ref_axis',(-1.,0.,0.));
#758=DIRECTION('center_axis',(0.,0.,1.));
#759=DIRECTION('ref_axis',(1.,0.,0.));
#760=DIRECTION('center_axis',(0.,0.,1.));
#761=DIRECTION('ref_axis',(-1.,0.,0.));
#762=DIRECTION('center_axis',(0.,0.,-1.));
#763=DIRECTION('ref_axis',(-1.,0.,0.));
#764=DIRECTION('center_axis',(0.,0.,1.));
#765=DIRECTION('ref_axis',(1.,0.,0.));
#766=DIRECTION('center_axis',(0.,0.,1.));
#767=DIRECTION('ref_axis',(-1.,0.,0.));
#768=DIRECTION('center_axis',(0.,0.,-1.));
#769=DIRECTION('ref_axis',(-1.,0.,0.));
#770=DIRECTION('center_axis',(0.,0.,1.));
#771=DIRECTION('ref_axis',(1.,0.,0.));
#772=DIRECTION('center_axis',(0.,-1.,0.));
#773=DIRECTION('ref_axis',(1.,0.,0.));
#774=DIRECTION('',(1.,0.,0.));
#775=DIRECTION('',(0.,0.,-1.));
#776=DIRECTION('',(1.,0.,0.));
#777=DIRECTION('',(0.,0.,1.));
#778=DIRECTION('center_axis',(0.,1.,0.));
#779=DIRECTION('ref_axis',(-1.,0.,0.));
#780=DIRECTION('',(-1.,0.,0.));
#781=DIRECTION('',(0.,0.,1.));
#782=DIRECTION('',(-1.,0.,0.));
#783=DIRECTION('',(0.,0.,1.));
#784=DIRECTION('center_axis',(1.,0.,0.));
#785=DIRECTION('ref_axis',(0.,1.,0.));
#786=DIRECTION('',(0.,1.,0.));
#787=DIRECTION('',(0.,1.,0.));
#788=DIRECTION('center_axis',(0.,0.,-1.));
#789=DIRECTION('ref_axis',(1.,0.,0.));
#790=DIRECTION('center_axis',(0.,0.,1.));
#791=DIRECTION('ref_axis',(1.,0.,0.));
#792=DIRECTION('center_axis',(0.,0.,1.));
#793=DIRECTION('ref_axis',(1.,0.,0.));
#794=DIRECTION('center_axis',(-1.,0.,0.));
#795=DIRECTION('ref_axis',(0.,-1.,0.));
#796=DIRECTION('',(0.,-1.,0.));
#797=DIRECTION('',(0.,0.,-1.));
#798=DIRECTION('',(0.,-1.,0.));
#799=DIRECTION('',(0.,0.,1.));
#800=DIRECTION('center_axis',(1.,0.,0.));
#801=DIRECTION('ref_axis',(0.,1.,0.));
#802=DIRECTION('',(0.,1.,0.));
#803=DIRECTION('',(0.,0.,1.));
#804=DIRECTION('',(0.,1.,0.));
#805=DIRECTION('',(0.,0.,1.));
#806=DIRECTION('center_axis',(0.,-1.,0.));
#807=DIRECTION('ref_axis',(1.,0.,0.));
#808=DIRECTION('',(1.,0.,0.));
#809=DIRECTION('',(1.,0.,0.));
#810=DIRECTION('center_axis',(0.,0.,-1.));
#811=DIRECTION('ref_axis',(1.,0.,0.));
#812=DIRECTION('center_axis',(0.,0.,1.));
#813=DIRECTION('ref_axis',(1.,0.,0.));
#814=DIRECTION('center_axis',(1.,0.,0.));
#815=DIRECTION('ref_axis',(0.,1.,0.));
#816=DIRECTION('',(0.,1.,0.));
#817=DIRECTION('',(0.,0.,-1.));
#818=DIRECTION('',(0.,1.,0.));
#819=DIRECTION('',(0.,0.,1.));
#820=DIRECTION('center_axis',(-1.,0.,0.));
#821=DIRECTION('ref_axis',(0.,-1.,0.));
#822=DIRECTION('',(0.,-1.,0.));
#823=DIRECTION('',(0.,0.,1.));
#824=DIRECTION('',(0.,-1.,0.));
#825=DIRECTION('',(0.,0.,1.));
#826=DIRECTION('center_axis',(0.,1.,0.));
#827=DIRECTION('ref_axis',(-1.,0.,0.));
#828=DIRECTION('',(-1.,0.,0.));
#829=DIRECTION('',(-1.,0.,0.));
#830=DIRECTION('center_axis',(0.,0.,-1.));
#831=DIRECTION('ref_axis',(1.,0.,0.));
#832=DIRECTION('center_axis',(0.,0.,1.));
#833=DIRECTION('ref_axis',(1.,0.,0.));
#834=DIRECTION('center_axis',(0.,1.,0.));
#835=DIRECTION('ref_axis',(-1.,0.,0.));
#836=DIRECTION('',(-1.,0.,0.));
#837=DIRECTION('',(0.,0.,-1.));
#838=DIRECTION('',(-1.,0.,0.));
#839=DIRECTION('',(0.,0.,1.));
#840=DIRECTION('center_axis',(0.,-1.,0.));
#841=DIRECTION('ref_axis',(1.,0.,0.));
#842=DIRECTION('',(1.,0.,0.));
#843=DIRECTION('',(0.,0.,1.));
#844=DIRECTION('',(1.,0.,0.));
#845=DIRECTION('',(0.,0.,1.));
#846=DIRECTION('center_axis',(-1.,0.,0.));
#847=DIRECTION('ref_axis',(0.,-1.,0.));
#848=DIRECTION('',(0.,-1.,0.));
#849=DIRECTION('',(0.,-1.,0.));
#850=DIRECTION('center_axis',(0.,0.,-1.));
#851=DIRECTION('ref_axis',(1.,0.,0.));
#852=DIRECTION('center_axis',(0.,0.,1.));
#853=DIRECTION('ref_axis',(1.,0.,0.));
#854=DIRECTION('center_axis',(0.,0.,1.));
#855=DIRECTION('ref_axis',(1.,0.,0.));
#856=DIRECTION('center_axis',(0.,0.,1.));
#857=DIRECTION('ref_axis',(1.,0.,0.));
#858=DIRECTION('center_axis',(0.,0.,1.));
#859=DIRECTION('ref_axis',(1.,0.,0.));
#860=DIRECTION('center_axis',(0.,0.,1.));
#861=DIRECTION('ref_axis',(1.,0.,0.));
#862=DIRECTION('center_axis',(0.,0.,1.));
#863=DIRECTION('ref_axis',(1.,0.,0.));
#864=DIRECTION('center_axis',(0.,0.,1.));
#865=DIRECTION('ref_axis',(1.,0.,0.));
#866=DIRECTION('center_axis',(0.,0.,1.));
#867=DIRECTION('ref_axis',(1.,0.,0.));
#868=DIRECTION('center_axis',(0.,0.,1.));
#869=DIRECTION('ref_axis',(1.,0.,0.));
#870=DIRECTION('center_axis',(0.,0.,-1.));
#871=DIRECTION('ref_axis',(1.,0.,0.));
#872=DIRECTION('center_axis',(0.,0.,-1.));
#873=DIRECTION('ref_axis',(-1.,0.,0.));
#874=DIRECTION('center_axis',(0.,0.,-1.));
#875=DIRECTION('ref_axis',(-1.,0.,0.));
#876=DIRECTION('',(0.,0.,-1.));
#877=DIRECTION('center_axis',(0.,0.,-1.));
#878=DIRECTION('ref_axis',(-1.,0.,0.));
#879=DIRECTION('center_axis',(0.,0.,1.));
#880=DIRECTION('ref_axis',(-1.,0.,0.));
#881=DIRECTION('center_axis',(0.,0.,1.));
#882=DIRECTION('ref_axis',(1.,0.,0.));
#883=DIRECTION('center_axis',(0.,0.,1.));
#884=DIRECTION('ref_axis',(1.,0.,0.));
#885=DIRECTION('center_axis',(0.,0.,-1.));
#886=DIRECTION('ref_axis',(-1.,0.,0.));
#887=DIRECTION('',(0.,0.,-1.));
#888=DIRECTION('center_axis',(0.,0.,-1.));
#889=DIRECTION('ref_axis',(-1.,0.,0.));
#890=DIRECTION('',(0.,0.,-1.));
#891=DIRECTION('center_axis',(0.,0.,-1.));
#892=DIRECTION('ref_axis',(-1.,0.,0.));
#893=DIRECTION('',(0.,0.,-1.));
#894=DIRECTION('center_axis',(0.,0.,-1.));
#895=DIRECTION('ref_axis',(-1.,0.,0.));
#896=DIRECTION('',(0.,0.,-1.));
#897=DIRECTION('center_axis',(0.,0.,1.));
#898=DIRECTION('ref_axis',(1.,0.,0.));
#899=DIRECTION('',(0.,0.,-1.));
#900=DIRECTION('center_axis',(0.,0.,1.));
#901=DIRECTION('ref_axis',(1.,0.,0.));
#902=DIRECTION('',(0.,0.,-1.));
#903=DIRECTION('center_axis',(0.,0.,1.));
#904=DIRECTION('ref_axis',(1.,0.,0.));
#905=DIRECTION('',(0.,0.,-1.));
#906=DIRECTION('center_axis',(0.,0.,1.));
#907=DIRECTION('ref_axis',(1.,0.,0.));
#908=DIRECTION('',(0.,0.,-1.));
#909=DIRECTION('center_axis',(0.,0.,1.));
#910=DIRECTION('ref_axis',(1.,0.,0.));
#911=DIRECTION('',(0.,0.,-1.));
#912=CARTESIAN_POINT('',(0.,0.,0.));
#913=CARTESIAN_POINT('Origin',(0.,0.,1.38));
#914=CARTESIAN_POINT('',(3.35410196624968,4.10759023698152E-16,1.5));
#915=CARTESIAN_POINT('Origin',(0.,0.,1.5));
#916=CARTESIAN_POINT('',(3.35410196624968,4.10759023698152E-16,1.38));
#917=CARTESIAN_POINT('',(3.35410196624968,4.10759023698152E-16,1.38));
#918=CARTESIAN_POINT('Origin',(0.,0.,1.38));
#919=CARTESIAN_POINT('Origin',(0.,0.,1.5));
#920=CARTESIAN_POINT('',(2.5,3.06161699786838E-16,1.5));
#921=CARTESIAN_POINT('Origin',(0.,0.,1.5));
#922=CARTESIAN_POINT('Origin',(0.,0.,1.5));
#923=CARTESIAN_POINT('',(2.5,3.06161699786838E-16,1.));
#924=CARTESIAN_POINT('',(2.5,-3.06161699786838E-16,1.5));
#925=CARTESIAN_POINT('Origin',(0.,0.,1.));
#926=CARTESIAN_POINT('Origin',(0.,0.,1.));
#927=CARTESIAN_POINT('',(0.4,-1.20000001788139,1.));
#928=CARTESIAN_POINT('Origin',(4.16333634234434E-17,-1.20000001788139,1.));
#929=CARTESIAN_POINT('',(-0.800000017881394,3.51080841580797E-17,1.));
#930=CARTESIAN_POINT('Origin',(-1.20000001788139,-1.38777878078145E-17,
1.));
#931=CARTESIAN_POINT('',(1.60000001788139,4.89858719658941E-17,1.));
#932=CARTESIAN_POINT('Origin',(1.20000001788139,0.,1.));
#933=CARTESIAN_POINT('',(0.4,1.20000001788139,1.));
#934=CARTESIAN_POINT('Origin',(-1.38777878078145E-17,1.20000001788139,1.));
#935=CARTESIAN_POINT('Origin',(1.20000001788139,0.,0.5));
#936=CARTESIAN_POINT('',(1.60000001788139,4.89858719658941E-17,0.5));
#937=CARTESIAN_POINT('Origin',(1.20000001788139,0.,0.5));
#938=CARTESIAN_POINT('',(0.990000017881393,-2.57175827820944E-17,0.5));
#939=CARTESIAN_POINT('Origin',(1.20000001788139,0.,0.5));
#940=CARTESIAN_POINT('Origin',(5.55111512312578E-17,-1.20000001788139,0.5));
#941=CARTESIAN_POINT('',(0.4,-1.20000001788139,0.5));
#942=CARTESIAN_POINT('Origin',(4.16333634234434E-17,-1.20000001788139,0.5));
#943=CARTESIAN_POINT('',(-0.21,-1.20000001788139,0.5));
#944=CARTESIAN_POINT('Origin',(0.,-1.20000001788139,0.5));
#945=CARTESIAN_POINT('Origin',(-1.20000001788139,0.,0.5));
#946=CARTESIAN_POINT('',(-0.800000017881394,3.51080841580797E-17,0.5));
#947=CARTESIAN_POINT('Origin',(-1.20000001788139,-1.38777878078145E-17,
0.5));
#948=CARTESIAN_POINT('',(-1.41000001788139,-2.57175827820944E-17,0.5));
#949=CARTESIAN_POINT('Origin',(-1.20000001788139,0.,0.5));
#950=CARTESIAN_POINT('Origin',(0.,1.20000001788139,0.5));
#951=CARTESIAN_POINT('',(0.4,1.20000001788139,0.5));
#952=CARTESIAN_POINT('Origin',(-1.38777878078145E-17,1.20000001788139,0.5));
#953=CARTESIAN_POINT('',(-0.21,1.20000001788139,0.5));
#954=CARTESIAN_POINT('Origin',(0.,1.20000001788139,0.5));
#955=CARTESIAN_POINT('Origin',(-5.46718391793704,-0.500000007450581,0.));
#956=CARTESIAN_POINT('',(-5.46718391793704,-0.500000007450581,0.));
#957=CARTESIAN_POINT('',(-4.48999987728894,-0.500000007450581,0.));
#958=CARTESIAN_POINT('',(-2.73359195896852,-0.500000007450581,0.));
#959=CARTESIAN_POINT('',(-5.46718391793704,-0.500000007450581,1.));
#960=CARTESIAN_POINT('',(-5.46718391793704,-0.500000007450581,0.));
#961=CARTESIAN_POINT('',(-4.48999987728894,-0.500000007450581,1.));
#962=CARTESIAN_POINT('',(-4.48999987728894,-0.500000007450581,1.));
#963=CARTESIAN_POINT('',(-4.48999987728894,-0.500000007450581,0.));
#964=CARTESIAN_POINT('Origin',(-4.48999987728894,0.500000007450581,0.));
#965=CARTESIAN_POINT('',(-4.48999987728894,0.500000007450581,0.));
#966=CARTESIAN_POINT('',(-5.46718391793704,0.500000007450581,0.));
#967=CARTESIAN_POINT('',(-2.24499993864447,0.500000007450581,0.));
#968=CARTESIAN_POINT('',(-4.48999987728894,0.500000007450581,1.));
#969=CARTESIAN_POINT('',(-4.48999987728894,0.500000007450581,0.));
#970=CARTESIAN_POINT('',(-5.46718391793704,0.500000007450581,1.));
#971=CARTESIAN_POINT('',(-4.48999987728894,0.500000007450581,1.));
#972=CARTESIAN_POINT('',(-5.46718391793704,0.500000007450581,0.));
#973=CARTESIAN_POINT('Origin',(-4.48999987728894,-0.500000007450581,0.));
#974=CARTESIAN_POINT('',(-4.48999987728894,-0.25000000372529,0.));
#975=CARTESIAN_POINT('',(-4.48999987728894,0.,1.));
#976=CARTESIAN_POINT('Origin',(-4.98999993864447,0.,1.));
#977=CARTESIAN_POINT('',(-5.49,-6.72331092731897E-16,1.));
#978=CARTESIAN_POINT('Origin',(0.,0.,1.));
#979=CARTESIAN_POINT('Origin',(0.,0.,1.));
#980=CARTESIAN_POINT('Origin',(-0.500000007450581,5.46718391793704,0.));
#981=CARTESIAN_POINT('',(-0.500000007450581,5.46718391793704,0.));
#982=CARTESIAN_POINT('',(-0.500000007450581,4.48999987728894,0.));
#983=CARTESIAN_POINT('',(-0.500000007450581,2.73359195896852,0.));
#984=CARTESIAN_POINT('',(-0.500000007450581,5.46718391793704,1.));
#985=CARTESIAN_POINT('',(-0.500000007450581,5.46718391793704,0.));
#986=CARTESIAN_POINT('',(-0.500000007450581,4.48999987728894,1.));
#987=CARTESIAN_POINT('',(-0.500000007450581,4.48999987728894,1.));
#988=CARTESIAN_POINT('',(-0.500000007450581,4.48999987728894,0.));
#989=CARTESIAN_POINT('Origin',(0.500000007450581,4.48999987728894,0.));
#990=CARTESIAN_POINT('',(0.500000007450581,4.48999987728894,0.));
#991=CARTESIAN_POINT('',(0.500000007450581,5.46718391793704,0.));
#992=CARTESIAN_POINT('',(0.500000007450581,2.24499993864447,0.));
#993=CARTESIAN_POINT('',(0.500000007450581,4.48999987728894,1.));
#994=CARTESIAN_POINT('',(0.500000007450581,4.48999987728894,0.));
#995=CARTESIAN_POINT('',(0.500000007450581,5.46718391793704,1.));
#996=CARTESIAN_POINT('',(0.500000007450581,4.48999987728894,1.));
#997=CARTESIAN_POINT('',(0.500000007450581,5.46718391793704,0.));
#998=CARTESIAN_POINT('Origin',(-0.500000007450581,4.48999987728894,0.));
#999=CARTESIAN_POINT('',(-0.25000000372529,4.48999987728894,0.));
#1000=CARTESIAN_POINT('',(0.,4.48999987728894,1.));
#1001=CARTESIAN_POINT('Origin',(-2.22044604925031E-16,4.98999993864447,
1.));
#1002=CARTESIAN_POINT('Origin',(0.,0.,1.));
#1003=CARTESIAN_POINT('Origin',(0.500000007450581,-5.46718391793704,0.));
#1004=CARTESIAN_POINT('',(0.500000007450581,-5.46718391793704,0.));
#1005=CARTESIAN_POINT('',(0.500000007450581,-4.48999987728894,0.));
#1006=CARTESIAN_POINT('',(0.500000007450581,-2.73359195896852,0.));
#1007=CARTESIAN_POINT('',(0.500000007450581,-5.46718391793704,1.));
#1008=CARTESIAN_POINT('',(0.500000007450581,-5.46718391793704,0.));
#1009=CARTESIAN_POINT('',(0.500000007450581,-4.48999987728894,1.));
#1010=CARTESIAN_POINT('',(0.500000007450581,-4.48999987728894,1.));
#1011=CARTESIAN_POINT('',(0.500000007450581,-4.48999987728894,0.));
#1012=CARTESIAN_POINT('Origin',(-0.500000007450581,-4.48999987728894,0.));
#1013=CARTESIAN_POINT('',(-0.500000007450581,-4.48999987728894,0.));
#1014=CARTESIAN_POINT('',(-0.500000007450581,-5.46718391793704,0.));
#1015=CARTESIAN_POINT('',(-0.500000007450581,-2.24499993864447,0.));
#1016=CARTESIAN_POINT('',(-0.500000007450581,-4.48999987728894,1.));
#1017=CARTESIAN_POINT('',(-0.500000007450581,-4.48999987728894,0.));
#1018=CARTESIAN_POINT('',(-0.500000007450581,-5.46718391793704,1.));
#1019=CARTESIAN_POINT('',(-0.500000007450581,-4.48999987728894,1.));
#1020=CARTESIAN_POINT('',(-0.500000007450581,-5.46718391793704,0.));
#1021=CARTESIAN_POINT('Origin',(0.500000007450581,-4.48999987728894,0.));
#1022=CARTESIAN_POINT('',(0.25000000372529,-4.48999987728894,0.));
#1023=CARTESIAN_POINT('',(0.,-4.48999987728894,1.));
#1024=CARTESIAN_POINT('Origin',(-2.22044604925031E-16,-4.98999993864447,
1.));
#1025=CARTESIAN_POINT('Origin',(0.,0.,1.));
#1026=CARTESIAN_POINT('Origin',(5.46718391793704,0.500000007450581,0.));
#1027=CARTESIAN_POINT('',(5.46718391793704,0.500000007450581,0.));
#1028=CARTESIAN_POINT('',(4.50000008195639,0.500000007450581,0.));
#1029=CARTESIAN_POINT('',(2.73359195896852,0.500000007450581,0.));
#1030=CARTESIAN_POINT('',(5.46718391793704,0.500000007450581,1.));
#1031=CARTESIAN_POINT('',(5.46718391793704,0.500000007450581,0.));
#1032=CARTESIAN_POINT('',(4.50000008195639,0.500000007450581,1.));
#1033=CARTESIAN_POINT('',(4.50000008195639,0.500000007450581,1.));
#1034=CARTESIAN_POINT('',(4.50000008195639,0.500000007450581,0.));
#1035=CARTESIAN_POINT('Origin',(4.50000008195639,-0.500000007450581,0.));
#1036=CARTESIAN_POINT('',(4.50000008195639,-0.500000007450581,0.));
#1037=CARTESIAN_POINT('',(5.46718391793704,-0.500000007450581,0.));
#1038=CARTESIAN_POINT('',(2.25000004097819,-0.500000007450581,0.));
#1039=CARTESIAN_POINT('',(4.50000008195639,-0.500000007450581,1.));
#1040=CARTESIAN_POINT('',(4.50000008195639,-0.500000007450581,0.));
#1041=CARTESIAN_POINT('',(5.46718391793704,-0.500000007450581,1.));
#1042=CARTESIAN_POINT('',(4.50000008195639,-0.500000007450581,1.));
#1043=CARTESIAN_POINT('',(5.46718391793704,-0.500000007450581,0.));
#1044=CARTESIAN_POINT('Origin',(4.50000008195639,0.500000007450581,0.));
#1045=CARTESIAN_POINT('',(4.50000008195639,0.25000000372529,0.));
#1046=CARTESIAN_POINT('',(4.50000008195639,0.,1.));
#1047=CARTESIAN_POINT('Origin',(4.99500004097819,0.,1.));
#1048=CARTESIAN_POINT('Origin',(0.,0.,1.));
#1049=CARTESIAN_POINT('Origin',(0.,0.,0.));
#1050=CARTESIAN_POINT('Origin',(0.,0.,0.));
#1051=CARTESIAN_POINT('Origin',(0.,0.,0.));
#1052=CARTESIAN_POINT('Origin',(0.,0.,0.));
#1053=CARTESIAN_POINT('Origin',(0.,0.,0.));
#1054=CARTESIAN_POINT('',(-0.21,1.20000001788139,0.));
#1055=CARTESIAN_POINT('Origin',(0.,1.20000001788139,0.));
#1056=CARTESIAN_POINT('',(0.990000017881393,-2.57175827820944E-17,0.));
#1057=CARTESIAN_POINT('Origin',(1.20000001788139,0.,0.));
#1058=CARTESIAN_POINT('',(-0.21,-1.20000001788139,0.));
#1059=CARTESIAN_POINT('Origin',(0.,-1.20000001788139,0.));
#1060=CARTESIAN_POINT('',(-1.41000001788139,-2.57175827820944E-17,0.));
#1061=CARTESIAN_POINT('Origin',(-1.20000001788139,0.,0.));
#1062=CARTESIAN_POINT('Origin',(0.,0.,1.5));
#1063=CARTESIAN_POINT('',(5.,6.12323399573677E-16,1.5));
#1064=CARTESIAN_POINT('Origin',(0.,0.,1.5));
#1065=CARTESIAN_POINT('',(5.,6.12323399573677E-16,1.38));
#1066=CARTESIAN_POINT('',(5.,-6.12323399573677E-16,1.5));
#1067=CARTESIAN_POINT('Origin',(0.,0.,1.38));
#1068=CARTESIAN_POINT('Origin',(0.,0.,1.38));
#1069=CARTESIAN_POINT('Origin',(0.,0.,1.5));
#1070=CARTESIAN_POINT('',(-5.49,-6.66133814775094E-16,1.5));
#1071=CARTESIAN_POINT('Origin',(0.,0.,1.5));
#1072=CARTESIAN_POINT('Origin',(-1.38777878078145E-17,1.20000001788139,
1.5));
#1073=CARTESIAN_POINT('',(0.4,1.20000001788139,1.5));
#1074=CARTESIAN_POINT('Origin',(1.20000001788139,0.,1.5));
#1075=CARTESIAN_POINT('',(1.60000001788139,-4.89858719658941E-17,1.5));
#1076=CARTESIAN_POINT('Origin',(-1.20000001788139,-1.38777878078145E-17,
1.5));
#1077=CARTESIAN_POINT('',(-0.800000017881394,-6.28636597737086E-17,1.5));
#1078=CARTESIAN_POINT('Origin',(4.16333634234434E-17,-1.20000001788139,
1.5));
#1079=CARTESIAN_POINT('',(0.4,-1.20000001788139,1.5));
#1080=CARTESIAN_POINT('Origin',(0.,0.,0.));
#1081=CARTESIAN_POINT('',(-5.49,-6.72331092731897E-16,0.));
#1082=CARTESIAN_POINT('Origin',(0.,-1.20000001788139,0.));
#1083=CARTESIAN_POINT('',(-0.21,-1.20000001788139,0.));
#1084=CARTESIAN_POINT('Origin',(-1.20000001788139,0.,0.));
#1085=CARTESIAN_POINT('',(-1.41000001788139,-2.57175827820944E-17,0.));
#1086=CARTESIAN_POINT('Origin',(0.,1.20000001788139,0.));
#1087=CARTESIAN_POINT('',(-0.21,1.20000001788139,0.));
#1088=CARTESIAN_POINT('Origin',(1.20000001788139,0.,0.));
#1089=CARTESIAN_POINT('',(0.990000017881393,-2.57175827820944E-17,0.));
#1090=UNCERTAINTY_MEASURE_WITH_UNIT(LENGTH_MEASURE(0.001),#1094,
'DISTANCE_ACCURACY_VALUE',
'Maximum model space distance between geometric entities at asserted c
onnectivities');
#1091=UNCERTAINTY_MEASURE_WITH_UNIT(LENGTH_MEASURE(0.001),#1094,
'DISTANCE_ACCURACY_VALUE',
'Maximum model space distance between geometric entities at asserted c
onnectivities');
#1092=(
GEOMETRIC_REPRESENTATION_CONTEXT(3)
GLOBAL_UNCERTAINTY_ASSIGNED_CONTEXT((#1090))
GLOBAL_UNIT_ASSIGNED_CONTEXT((#1094,#1096,#1097))
REPRESENTATION_CONTEXT('','3D')
);
#1093=(
GEOMETRIC_REPRESENTATION_CONTEXT(3)
GLOBAL_UNCERTAINTY_ASSIGNED_CONTEXT((#1091))
GLOBAL_UNIT_ASSIGNED_CONTEXT((#1094,#1096,#1097))
REPRESENTATION_CONTEXT('','3D')
);
#1094=(
LENGTH_UNIT()
NAMED_UNIT(*)
SI_UNIT(.CENTI.,.METRE.)
);
#1095=(
LENGTH_UNIT()
NAMED_UNIT(*)
SI_UNIT($,.METRE.)
);
#1096=(
NAMED_UNIT(*)
PLANE_ANGLE_UNIT()
SI_UNIT($,.RADIAN.)
);
#1097=(
NAMED_UNIT(*)
SI_UNIT($,.STERADIAN.)
SOLID_ANGLE_UNIT()
);
#1098=SHAPE_DEFINITION_REPRESENTATION(#1099,#1100);
#1099=PRODUCT_DEFINITION_SHAPE('',$,#1102);
#1100=SHAPE_REPRESENTATION('',(#650),#1092);
#1101=PRODUCT_DEFINITION_CONTEXT('part definition',#1106,'design');
#1102=PRODUCT_DEFINITION('2026-07-07-15-58-29-094','wheel hub',#1103,#1101);
#1103=PRODUCT_DEFINITION_FORMATION('',$,#1108);
#1104=PRODUCT_RELATED_PRODUCT_CATEGORY('wheel hub','wheel hub',(#1108));
#1105=APPLICATION_PROTOCOL_DEFINITION('international standard',
'automotive_design',2009,#1106);
#1106=APPLICATION_CONTEXT(
'Core Data for Automotive Mechanical Design Process');
#1107=PRODUCT_CONTEXT('part definition',#1106,'mechanical');
#1108=PRODUCT('2026-07-07-15-58-29-094','wheel hub',$,(#1107));
#1109=PRESENTATION_STYLE_ASSIGNMENT((#1110));
#1110=SURFACE_STYLE_USAGE(.BOTH.,#1111);
#1111=SURFACE_SIDE_STYLE('',(#1112));
#1112=SURFACE_STYLE_FILL_AREA(#1113);
#1113=FILL_AREA_STYLE('ABS(\X2\D770C0C9\X0\)',(#1114));
#1114=FILL_AREA_STYLE_COLOUR('ABS(\X2\D770C0C9\X0\)',#1115);
#1115=COLOUR_RGB('ABS(\X2\D770C0C9\X0\)',0.964705882352941,0.964705882352941,
0.952941176470588);
ENDSEC;
END-ISO-10303-21;
