ISO-10303-21;
HEADER;
/* Generated by software containing ST-Developer
 * from STEP Tools, Inc. (www.steptools.com) 
 */

FILE_DESCRIPTION(
/* description */ (''),
/* implementation_level */ '2;1');

FILE_NAME(
/* name */ 'wheel hub - B.step',
/* time_stamp */ '2026-08-31T17:59:24+09:00',
/* author */ (''),
/* organization */ (''),
/* preprocessor_version */ 'ST-DEVELOPER v20.1',
/* originating_system */ 'Autodesk Translation Framework v15.8.0.0',
/* authorisation */ '');

FILE_SCHEMA (('AUTOMOTIVE_DESIGN { 1 0 10303 214 3 1 1 }'));
ENDSEC;

DATA;
#10=MECHANICAL_DESIGN_GEOMETRIC_PRESENTATION_REPRESENTATION('',(#13),#958);
#11=SHAPE_REPRESENTATION_RELATIONSHIP('SRR','None',#965,#12);
#12=ADVANCED_BREP_SHAPE_REPRESENTATION('',(#14),#957);
#13=STYLED_ITEM('',(#974),#14);
#14=MANIFOLD_SOLID_BREP('\X2\BCF8CCB4\X0\1',#562);
#15=FACE_BOUND('',#113,.T.);
#16=FACE_BOUND('',#115,.T.);
#17=FACE_BOUND('',#120,.T.);
#18=FACE_BOUND('',#121,.T.);
#19=FACE_BOUND('',#122,.T.);
#20=FACE_BOUND('',#123,.T.);
#21=FACE_BOUND('',#124,.T.);
#22=FACE_BOUND('',#130,.T.);
#23=FACE_BOUND('',#132,.T.);
#24=FACE_BOUND('',#133,.T.);
#25=FACE_BOUND('',#134,.T.);
#26=FACE_BOUND('',#135,.T.);
#27=CYLINDRICAL_SURFACE('',#587,5.49);
#28=CYLINDRICAL_SURFACE('',#603,2.);
#29=CYLINDRICAL_SURFACE('',#606,5.);
#30=CYLINDRICAL_SURFACE('',#611,0.4);
#31=CYLINDRICAL_SURFACE('',#615,1.61);
#32=CYLINDRICAL_SURFACE('',#623,0.21);
#33=CYLINDRICAL_SURFACE('',#625,0.21);
#34=CYLINDRICAL_SURFACE('',#627,0.21);
#35=CYLINDRICAL_SURFACE('',#629,0.21);
#36=CIRCLE('',#580,5.49);
#37=CIRCLE('',#581,5.49);
#38=CIRCLE('',#586,5.49);
#39=CIRCLE('',#588,5.49);
#40=CIRCLE('',#589,5.49);
#41=CIRCLE('',#590,5.49);
#42=CIRCLE('',#591,5.49);
#43=CIRCLE('',#592,5.49);
#44=CIRCLE('',#593,5.49);
#45=CIRCLE('',#594,5.49);
#46=CIRCLE('',#604,2.);
#47=CIRCLE('',#605,2.);
#48=CIRCLE('',#607,5.);
#49=CIRCLE('',#608,5.);
#50=CIRCLE('',#612,0.4);
#51=CIRCLE('',#613,0.4);
#52=CIRCLE('',#616,1.61);
#53=CIRCLE('',#617,1.61);
#54=CIRCLE('',#619,0.21);
#55=CIRCLE('',#620,0.21);
#56=CIRCLE('',#621,0.21);
#57=CIRCLE('',#622,0.21);
#58=CIRCLE('',#624,0.21);
#59=CIRCLE('',#626,0.21);
#60=CIRCLE('',#628,0.21);
#61=CIRCLE('',#630,0.21);
#62=FACE_OUTER_BOUND('',#93,.T.);
#63=FACE_OUTER_BOUND('',#94,.T.);
#64=FACE_OUTER_BOUND('',#95,.T.);
#65=FACE_OUTER_BOUND('',#96,.T.);
#66=FACE_OUTER_BOUND('',#97,.T.);
#67=FACE_OUTER_BOUND('',#98,.T.);
#68=FACE_OUTER_BOUND('',#99,.T.);
#69=FACE_OUTER_BOUND('',#100,.T.);
#70=FACE_OUTER_BOUND('',#101,.T.);
#71=FACE_OUTER_BOUND('',#102,.T.);
#72=FACE_OUTER_BOUND('',#103,.T.);
#73=FACE_OUTER_BOUND('',#104,.T.);
#74=FACE_OUTER_BOUND('',#105,.T.);
#75=FACE_OUTER_BOUND('',#106,.T.);
#76=FACE_OUTER_BOUND('',#107,.T.);
#77=FACE_OUTER_BOUND('',#108,.T.);
#78=FACE_OUTER_BOUND('',#109,.T.);
#79=FACE_OUTER_BOUND('',#110,.T.);
#80=FACE_OUTER_BOUND('',#111,.T.);
#81=FACE_OUTER_BOUND('',#112,.T.);
#82=FACE_OUTER_BOUND('',#114,.T.);
#83=FACE_OUTER_BOUND('',#116,.T.);
#84=FACE_OUTER_BOUND('',#117,.T.);
#85=FACE_OUTER_BOUND('',#118,.T.);
#86=FACE_OUTER_BOUND('',#119,.T.);
#87=FACE_OUTER_BOUND('',#125,.T.);
#88=FACE_OUTER_BOUND('',#126,.T.);
#89=FACE_OUTER_BOUND('',#127,.T.);
#90=FACE_OUTER_BOUND('',#128,.T.);
#91=FACE_OUTER_BOUND('',#129,.T.);
#92=FACE_OUTER_BOUND('',#131,.T.);
#93=EDGE_LOOP('',(#359,#360,#361,#362));
#94=EDGE_LOOP('',(#363,#364,#365,#366));
#95=EDGE_LOOP('',(#367,#368,#369,#370));
#96=EDGE_LOOP('',(#371,#372,#373,#374,#375));
#97=EDGE_LOOP('',(#376,#377,#378,#379));
#98=EDGE_LOOP('',(#380,#381,#382,#383));
#99=EDGE_LOOP('',(#384,#385,#386,#387));
#100=EDGE_LOOP('',(#388,#389,#390,#391));
#101=EDGE_LOOP('',(#392,#393,#394,#395,#396,#397,#398,#399,#400,#401,#402,
#403,#404,#405,#406,#407,#408,#409,#410,#411));
#102=EDGE_LOOP('',(#412,#413,#414,#415));
#103=EDGE_LOOP('',(#416,#417,#418,#419));
#104=EDGE_LOOP('',(#420,#421,#422,#423));
#105=EDGE_LOOP('',(#424,#425,#426,#427));
#106=EDGE_LOOP('',(#428,#429,#430,#431));
#107=EDGE_LOOP('',(#432,#433,#434,#435));
#108=EDGE_LOOP('',(#436,#437,#438,#439));
#109=EDGE_LOOP('',(#440,#441,#442,#443));
#110=EDGE_LOOP('',(#444,#445,#446,#447));
#111=EDGE_LOOP('',(#448,#449,#450,#451));
#112=EDGE_LOOP('',(#452));
#113=EDGE_LOOP('',(#453));
#114=EDGE_LOOP('',(#454));
#115=EDGE_LOOP('',(#455));
#116=EDGE_LOOP('',(#456,#457,#458,#459));
#117=EDGE_LOOP('',(#460));
#118=EDGE_LOOP('',(#461,#462,#463,#464));
#119=EDGE_LOOP('',(#465));
#120=EDGE_LOOP('',(#466));
#121=EDGE_LOOP('',(#467));
#122=EDGE_LOOP('',(#468));
#123=EDGE_LOOP('',(#469));
#124=EDGE_LOOP('',(#470));
#125=EDGE_LOOP('',(#471,#472,#473,#474));
#126=EDGE_LOOP('',(#475,#476,#477,#478));
#127=EDGE_LOOP('',(#479,#480,#481,#482));
#128=EDGE_LOOP('',(#483,#484,#485,#486));
#129=EDGE_LOOP('',(#487));
#130=EDGE_LOOP('',(#488));
#131=EDGE_LOOP('',(#489,#490,#491,#492,#493,#494,#495,#496,#497,#498,#499,
#500,#501,#502,#503,#504));
#132=EDGE_LOOP('',(#505));
#133=EDGE_LOOP('',(#506));
#134=EDGE_LOOP('',(#507));
#135=EDGE_LOOP('',(#508));
#136=LINE('',#802,#185);
#137=LINE('',#804,#186);
#138=LINE('',#806,#187);
#139=LINE('',#807,#188);
#140=LINE('',#811,#189);
#141=LINE('',#813,#190);
#142=LINE('',#815,#191);
#143=LINE('',#816,#192);
#144=LINE('',#818,#193);
#145=LINE('',#819,#194);
#146=LINE('',#827,#195);
#147=LINE('',#829,#196);
#148=LINE('',#831,#197);
#149=LINE('',#832,#198);
#150=LINE('',#836,#199);
#151=LINE('',#838,#200);
#152=LINE('',#840,#201);
#153=LINE('',#841,#202);
#154=LINE('',#843,#203);
#155=LINE('',#844,#204);
#156=LINE('',#850,#205);
#157=LINE('',#854,#206);
#158=LINE('',#858,#207);
#159=LINE('',#863,#208);
#160=LINE('',#867,#209);
#161=LINE('',#871,#210);
#162=LINE('',#873,#211);
#163=LINE('',#874,#212);
#164=LINE('',#877,#213);
#165=LINE('',#879,#214);
#166=LINE('',#880,#215);
#167=LINE('',#882,#216);
#168=LINE('',#883,#217);
#169=LINE('',#887,#218);
#170=LINE('',#889,#219);
#171=LINE('',#890,#220);
#172=LINE('',#893,#221);
#173=LINE('',#895,#222);
#174=LINE('',#896,#223);
#175=LINE('',#898,#224);
#176=LINE('',#899,#225);
#177=LINE('',#905,#226);
#178=LINE('',#911,#227);
#179=LINE('',#919,#228);
#180=LINE('',#926,#229);
#181=LINE('',#939,#230);
#182=LINE('',#943,#231);
#183=LINE('',#947,#232);
#184=LINE('',#951,#233);
#185=VECTOR('',#637,1.);
#186=VECTOR('',#638,1.);
#187=VECTOR('',#639,1.);
#188=VECTOR('',#640,1.);
#189=VECTOR('',#643,1.);
#190=VECTOR('',#644,1.);
#191=VECTOR('',#645,1.);
#192=VECTOR('',#646,1.);
#193=VECTOR('',#649,1.);
#194=VECTOR('',#650,1.);
#195=VECTOR('',#659,1.);
#196=VECTOR('',#660,1.);
#197=VECTOR('',#661,1.);
#198=VECTOR('',#662,1.);
#199=VECTOR('',#665,1.);
#200=VECTOR('',#666,1.);
#201=VECTOR('',#667,1.);
#202=VECTOR('',#668,1.);
#203=VECTOR('',#671,1.);
#204=VECTOR('',#672,1.);
#205=VECTOR('',#681,5.49);
#206=VECTOR('',#684,1.);
#207=VECTOR('',#687,1.);
#208=VECTOR('',#692,1.);
#209=VECTOR('',#695,1.);
#210=VECTOR('',#700,1.);
#211=VECTOR('',#701,1.);
#212=VECTOR('',#702,1.);
#213=VECTOR('',#705,1.);
#214=VECTOR('',#706,1.);
#215=VECTOR('',#707,1.);
#216=VECTOR('',#710,1.);
#217=VECTOR('',#711,1.);
#218=VECTOR('',#716,1.);
#219=VECTOR('',#717,1.);
#220=VECTOR('',#718,1.);
#221=VECTOR('',#721,1.);
#222=VECTOR('',#722,1.);
#223=VECTOR('',#723,1.);
#224=VECTOR('',#726,1.);
#225=VECTOR('',#727,1.);
#226=VECTOR('',#734,2.);
#227=VECTOR('',#741,5.);
#228=VECTOR('',#752,0.4);
#229=VECTOR('',#761,1.61);
#230=VECTOR('',#776,0.21);
#231=VECTOR('',#781,0.21);
#232=VECTOR('',#786,0.21);
#233=VECTOR('',#791,0.21);
#234=VERTEX_POINT('',#800);
#235=VERTEX_POINT('',#801);
#236=VERTEX_POINT('',#803);
#237=VERTEX_POINT('',#805);
#238=VERTEX_POINT('',#809);
#239=VERTEX_POINT('',#810);
#240=VERTEX_POINT('',#812);
#241=VERTEX_POINT('',#814);
#242=VERTEX_POINT('',#821);
#243=VERTEX_POINT('',#825);
#244=VERTEX_POINT('',#826);
#245=VERTEX_POINT('',#828);
#246=VERTEX_POINT('',#830);
#247=VERTEX_POINT('',#834);
#248=VERTEX_POINT('',#835);
#249=VERTEX_POINT('',#837);
#250=VERTEX_POINT('',#839);
#251=VERTEX_POINT('',#848);
#252=VERTEX_POINT('',#851);
#253=VERTEX_POINT('',#853);
#254=VERTEX_POINT('',#855);
#255=VERTEX_POINT('',#857);
#256=VERTEX_POINT('',#860);
#257=VERTEX_POINT('',#862);
#258=VERTEX_POINT('',#864);
#259=VERTEX_POINT('',#866);
#260=VERTEX_POINT('',#870);
#261=VERTEX_POINT('',#872);
#262=VERTEX_POINT('',#876);
#263=VERTEX_POINT('',#878);
#264=VERTEX_POINT('',#886);
#265=VERTEX_POINT('',#888);
#266=VERTEX_POINT('',#892);
#267=VERTEX_POINT('',#894);
#268=VERTEX_POINT('',#902);
#269=VERTEX_POINT('',#904);
#270=VERTEX_POINT('',#908);
#271=VERTEX_POINT('',#910);
#272=VERTEX_POINT('',#916);
#273=VERTEX_POINT('',#918);
#274=VERTEX_POINT('',#923);
#275=VERTEX_POINT('',#925);
#276=VERTEX_POINT('',#929);
#277=VERTEX_POINT('',#931);
#278=VERTEX_POINT('',#933);
#279=VERTEX_POINT('',#935);
#280=VERTEX_POINT('',#938);
#281=VERTEX_POINT('',#942);
#282=VERTEX_POINT('',#946);
#283=VERTEX_POINT('',#950);
#284=EDGE_CURVE('',#234,#235,#136,.T.);
#285=EDGE_CURVE('',#236,#234,#137,.T.);
#286=EDGE_CURVE('',#236,#237,#138,.T.);
#287=EDGE_CURVE('',#235,#237,#139,.T.);
#288=EDGE_CURVE('',#238,#239,#140,.T.);
#289=EDGE_CURVE('',#238,#240,#141,.T.);
#290=EDGE_CURVE('',#240,#241,#142,.T.);
#291=EDGE_CURVE('',#239,#241,#143,.T.);
#292=EDGE_CURVE('',#235,#238,#144,.T.);
#293=EDGE_CURVE('',#237,#240,#145,.T.);
#294=EDGE_CURVE('',#242,#236,#36,.T.);
#295=EDGE_CURVE('',#241,#242,#37,.T.);
#296=EDGE_CURVE('',#243,#244,#146,.T.);
#297=EDGE_CURVE('',#245,#243,#147,.T.);
#298=EDGE_CURVE('',#245,#246,#148,.T.);
#299=EDGE_CURVE('',#244,#246,#149,.T.);
#300=EDGE_CURVE('',#247,#248,#150,.T.);
#301=EDGE_CURVE('',#247,#249,#151,.T.);
#302=EDGE_CURVE('',#249,#250,#152,.T.);
#303=EDGE_CURVE('',#248,#250,#153,.T.);
#304=EDGE_CURVE('',#244,#247,#154,.T.);
#305=EDGE_CURVE('',#246,#249,#155,.T.);
#306=EDGE_CURVE('',#250,#245,#38,.T.);
#307=EDGE_CURVE('',#251,#251,#39,.T.);
#308=EDGE_CURVE('',#251,#242,#156,.T.);
#309=EDGE_CURVE('',#234,#252,#40,.T.);
#310=EDGE_CURVE('',#252,#253,#157,.T.);
#311=EDGE_CURVE('',#253,#254,#41,.T.);
#312=EDGE_CURVE('',#254,#255,#158,.T.);
#313=EDGE_CURVE('',#255,#248,#42,.T.);
#314=EDGE_CURVE('',#243,#256,#43,.T.);
#315=EDGE_CURVE('',#256,#257,#159,.T.);
#316=EDGE_CURVE('',#257,#258,#44,.T.);
#317=EDGE_CURVE('',#258,#259,#160,.T.);
#318=EDGE_CURVE('',#259,#239,#45,.T.);
#319=EDGE_CURVE('',#259,#260,#161,.T.);
#320=EDGE_CURVE('',#258,#261,#162,.T.);
#321=EDGE_CURVE('',#260,#261,#163,.T.);
#322=EDGE_CURVE('',#262,#256,#164,.T.);
#323=EDGE_CURVE('',#262,#263,#165,.T.);
#324=EDGE_CURVE('',#263,#257,#166,.T.);
#325=EDGE_CURVE('',#260,#262,#167,.T.);
#326=EDGE_CURVE('',#261,#263,#168,.T.);
#327=EDGE_CURVE('',#255,#264,#169,.T.);
#328=EDGE_CURVE('',#254,#265,#170,.T.);
#329=EDGE_CURVE('',#264,#265,#171,.T.);
#330=EDGE_CURVE('',#266,#252,#172,.T.);
#331=EDGE_CURVE('',#266,#267,#173,.T.);
#332=EDGE_CURVE('',#267,#253,#174,.T.);
#333=EDGE_CURVE('',#264,#266,#175,.T.);
#334=EDGE_CURVE('',#265,#267,#176,.T.);
#335=EDGE_CURVE('',#268,#268,#46,.T.);
#336=EDGE_CURVE('',#268,#269,#177,.T.);
#337=EDGE_CURVE('',#269,#269,#47,.T.);
#338=EDGE_CURVE('',#270,#270,#48,.T.);
#339=EDGE_CURVE('',#270,#271,#178,.T.);
#340=EDGE_CURVE('',#271,#271,#49,.T.);
#341=EDGE_CURVE('',#272,#272,#50,.T.);
#342=EDGE_CURVE('',#272,#273,#179,.T.);
#343=EDGE_CURVE('',#273,#273,#51,.T.);
#344=EDGE_CURVE('',#274,#274,#52,.T.);
#345=EDGE_CURVE('',#274,#275,#180,.T.);
#346=EDGE_CURVE('',#275,#275,#53,.T.);
#347=EDGE_CURVE('',#276,#276,#54,.T.);
#348=EDGE_CURVE('',#277,#277,#55,.T.);
#349=EDGE_CURVE('',#278,#278,#56,.T.);
#350=EDGE_CURVE('',#279,#279,#57,.T.);
#351=EDGE_CURVE('',#276,#280,#181,.T.);
#352=EDGE_CURVE('',#280,#280,#58,.T.);
#353=EDGE_CURVE('',#277,#281,#182,.T.);
#354=EDGE_CURVE('',#281,#281,#59,.T.);
#355=EDGE_CURVE('',#278,#282,#183,.T.);
#356=EDGE_CURVE('',#282,#282,#60,.T.);
#357=EDGE_CURVE('',#279,#283,#184,.T.);
#358=EDGE_CURVE('',#283,#283,#61,.T.);
#359=ORIENTED_EDGE('',*,*,#284,.F.);
#360=ORIENTED_EDGE('',*,*,#285,.F.);
#361=ORIENTED_EDGE('',*,*,#286,.T.);
#362=ORIENTED_EDGE('',*,*,#287,.F.);
#363=ORIENTED_EDGE('',*,*,#288,.F.);
#364=ORIENTED_EDGE('',*,*,#289,.T.);
#365=ORIENTED_EDGE('',*,*,#290,.T.);
#366=ORIENTED_EDGE('',*,*,#291,.F.);
#367=ORIENTED_EDGE('',*,*,#292,.F.);
#368=ORIENTED_EDGE('',*,*,#287,.T.);
#369=ORIENTED_EDGE('',*,*,#293,.T.);
#370=ORIENTED_EDGE('',*,*,#289,.F.);
#371=ORIENTED_EDGE('',*,*,#293,.F.);
#372=ORIENTED_EDGE('',*,*,#286,.F.);
#373=ORIENTED_EDGE('',*,*,#294,.F.);
#374=ORIENTED_EDGE('',*,*,#295,.F.);
#375=ORIENTED_EDGE('',*,*,#290,.F.);
#376=ORIENTED_EDGE('',*,*,#296,.F.);
#377=ORIENTED_EDGE('',*,*,#297,.F.);
#378=ORIENTED_EDGE('',*,*,#298,.T.);
#379=ORIENTED_EDGE('',*,*,#299,.F.);
#380=ORIENTED_EDGE('',*,*,#300,.F.);
#381=ORIENTED_EDGE('',*,*,#301,.T.);
#382=ORIENTED_EDGE('',*,*,#302,.T.);
#383=ORIENTED_EDGE('',*,*,#303,.F.);
#384=ORIENTED_EDGE('',*,*,#304,.F.);
#385=ORIENTED_EDGE('',*,*,#299,.T.);
#386=ORIENTED_EDGE('',*,*,#305,.T.);
#387=ORIENTED_EDGE('',*,*,#301,.F.);
#388=ORIENTED_EDGE('',*,*,#305,.F.);
#389=ORIENTED_EDGE('',*,*,#298,.F.);
#390=ORIENTED_EDGE('',*,*,#306,.F.);
#391=ORIENTED_EDGE('',*,*,#302,.F.);
#392=ORIENTED_EDGE('',*,*,#307,.F.);
#393=ORIENTED_EDGE('',*,*,#308,.T.);
#394=ORIENTED_EDGE('',*,*,#294,.T.);
#395=ORIENTED_EDGE('',*,*,#285,.T.);
#396=ORIENTED_EDGE('',*,*,#309,.T.);
#397=ORIENTED_EDGE('',*,*,#310,.T.);
#398=ORIENTED_EDGE('',*,*,#311,.T.);
#399=ORIENTED_EDGE('',*,*,#312,.T.);
#400=ORIENTED_EDGE('',*,*,#313,.T.);
#401=ORIENTED_EDGE('',*,*,#303,.T.);
#402=ORIENTED_EDGE('',*,*,#306,.T.);
#403=ORIENTED_EDGE('',*,*,#297,.T.);
#404=ORIENTED_EDGE('',*,*,#314,.T.);
#405=ORIENTED_EDGE('',*,*,#315,.T.);
#406=ORIENTED_EDGE('',*,*,#316,.T.);
#407=ORIENTED_EDGE('',*,*,#317,.T.);
#408=ORIENTED_EDGE('',*,*,#318,.T.);
#409=ORIENTED_EDGE('',*,*,#291,.T.);
#410=ORIENTED_EDGE('',*,*,#295,.T.);
#411=ORIENTED_EDGE('',*,*,#308,.F.);
#412=ORIENTED_EDGE('',*,*,#319,.F.);
#413=ORIENTED_EDGE('',*,*,#317,.F.);
#414=ORIENTED_EDGE('',*,*,#320,.T.);
#415=ORIENTED_EDGE('',*,*,#321,.F.);
#416=ORIENTED_EDGE('',*,*,#322,.F.);
#417=ORIENTED_EDGE('',*,*,#323,.T.);
#418=ORIENTED_EDGE('',*,*,#324,.T.);
#419=ORIENTED_EDGE('',*,*,#315,.F.);
#420=ORIENTED_EDGE('',*,*,#325,.F.);
#421=ORIENTED_EDGE('',*,*,#321,.T.);
#422=ORIENTED_EDGE('',*,*,#326,.T.);
#423=ORIENTED_EDGE('',*,*,#323,.F.);
#424=ORIENTED_EDGE('',*,*,#326,.F.);
#425=ORIENTED_EDGE('',*,*,#320,.F.);
#426=ORIENTED_EDGE('',*,*,#316,.F.);
#427=ORIENTED_EDGE('',*,*,#324,.F.);
#428=ORIENTED_EDGE('',*,*,#327,.F.);
#429=ORIENTED_EDGE('',*,*,#312,.F.);
#430=ORIENTED_EDGE('',*,*,#328,.T.);
#431=ORIENTED_EDGE('',*,*,#329,.F.);
#432=ORIENTED_EDGE('',*,*,#330,.F.);
#433=ORIENTED_EDGE('',*,*,#331,.T.);
#434=ORIENTED_EDGE('',*,*,#332,.T.);
#435=ORIENTED_EDGE('',*,*,#310,.F.);
#436=ORIENTED_EDGE('',*,*,#333,.F.);
#437=ORIENTED_EDGE('',*,*,#329,.T.);
#438=ORIENTED_EDGE('',*,*,#334,.T.);
#439=ORIENTED_EDGE('',*,*,#331,.F.);
#440=ORIENTED_EDGE('',*,*,#334,.F.);
#441=ORIENTED_EDGE('',*,*,#328,.F.);
#442=ORIENTED_EDGE('',*,*,#311,.F.);
#443=ORIENTED_EDGE('',*,*,#332,.F.);
#444=ORIENTED_EDGE('',*,*,#335,.F.);
#445=ORIENTED_EDGE('',*,*,#336,.T.);
#446=ORIENTED_EDGE('',*,*,#337,.T.);
#447=ORIENTED_EDGE('',*,*,#336,.F.);
#448=ORIENTED_EDGE('',*,*,#338,.F.);
#449=ORIENTED_EDGE('',*,*,#339,.T.);
#450=ORIENTED_EDGE('',*,*,#340,.T.);
#451=ORIENTED_EDGE('',*,*,#339,.F.);
#452=ORIENTED_EDGE('',*,*,#340,.F.);
#453=ORIENTED_EDGE('',*,*,#337,.F.);
#454=ORIENTED_EDGE('',*,*,#307,.T.);
#455=ORIENTED_EDGE('',*,*,#338,.T.);
#456=ORIENTED_EDGE('',*,*,#341,.F.);
#457=ORIENTED_EDGE('',*,*,#342,.T.);
#458=ORIENTED_EDGE('',*,*,#343,.T.);
#459=ORIENTED_EDGE('',*,*,#342,.F.);
#460=ORIENTED_EDGE('',*,*,#343,.F.);
#461=ORIENTED_EDGE('',*,*,#344,.F.);
#462=ORIENTED_EDGE('',*,*,#345,.T.);
#463=ORIENTED_EDGE('',*,*,#346,.T.);
#464=ORIENTED_EDGE('',*,*,#345,.F.);
#465=ORIENTED_EDGE('',*,*,#346,.F.);
#466=ORIENTED_EDGE('',*,*,#341,.T.);
#467=ORIENTED_EDGE('',*,*,#347,.F.);
#468=ORIENTED_EDGE('',*,*,#348,.F.);
#469=ORIENTED_EDGE('',*,*,#349,.F.);
#470=ORIENTED_EDGE('',*,*,#350,.F.);
#471=ORIENTED_EDGE('',*,*,#347,.T.);
#472=ORIENTED_EDGE('',*,*,#351,.T.);
#473=ORIENTED_EDGE('',*,*,#352,.F.);
#474=ORIENTED_EDGE('',*,*,#351,.F.);
#475=ORIENTED_EDGE('',*,*,#348,.T.);
#476=ORIENTED_EDGE('',*,*,#353,.T.);
#477=ORIENTED_EDGE('',*,*,#354,.T.);
#478=ORIENTED_EDGE('',*,*,#353,.F.);
#479=ORIENTED_EDGE('',*,*,#349,.T.);
#480=ORIENTED_EDGE('',*,*,#355,.T.);
#481=ORIENTED_EDGE('',*,*,#356,.F.);
#482=ORIENTED_EDGE('',*,*,#355,.F.);
#483=ORIENTED_EDGE('',*,*,#350,.T.);
#484=ORIENTED_EDGE('',*,*,#357,.T.);
#485=ORIENTED_EDGE('',*,*,#358,.F.);
#486=ORIENTED_EDGE('',*,*,#357,.F.);
#487=ORIENTED_EDGE('',*,*,#335,.T.);
#488=ORIENTED_EDGE('',*,*,#344,.T.);
#489=ORIENTED_EDGE('',*,*,#288,.T.);
#490=ORIENTED_EDGE('',*,*,#318,.F.);
#491=ORIENTED_EDGE('',*,*,#319,.T.);
#492=ORIENTED_EDGE('',*,*,#325,.T.);
#493=ORIENTED_EDGE('',*,*,#322,.T.);
#494=ORIENTED_EDGE('',*,*,#314,.F.);
#495=ORIENTED_EDGE('',*,*,#296,.T.);
#496=ORIENTED_EDGE('',*,*,#304,.T.);
#497=ORIENTED_EDGE('',*,*,#300,.T.);
#498=ORIENTED_EDGE('',*,*,#313,.F.);
#499=ORIENTED_EDGE('',*,*,#327,.T.);
#500=ORIENTED_EDGE('',*,*,#333,.T.);
#501=ORIENTED_EDGE('',*,*,#330,.T.);
#502=ORIENTED_EDGE('',*,*,#309,.F.);
#503=ORIENTED_EDGE('',*,*,#284,.T.);
#504=ORIENTED_EDGE('',*,*,#292,.T.);
#505=ORIENTED_EDGE('',*,*,#354,.F.);
#506=ORIENTED_EDGE('',*,*,#352,.T.);
#507=ORIENTED_EDGE('',*,*,#358,.T.);
#508=ORIENTED_EDGE('',*,*,#356,.T.);
#509=PLANE('',#576);
#510=PLANE('',#577);
#511=PLANE('',#578);
#512=PLANE('',#579);
#513=PLANE('',#582);
#514=PLANE('',#583);
#515=PLANE('',#584);
#516=PLANE('',#585);
#517=PLANE('',#595);
#518=PLANE('',#596);
#519=PLANE('',#597);
#520=PLANE('',#598);
#521=PLANE('',#599);
#522=PLANE('',#600);
#523=PLANE('',#601);
#524=PLANE('',#602);
#525=PLANE('',#609);
#526=PLANE('',#610);
#527=PLANE('',#614);
#528=PLANE('',#618);
#529=PLANE('',#631);
#530=PLANE('',#632);
#531=ADVANCED_FACE('',(#62),#509,.F.);
#532=ADVANCED_FACE('',(#63),#510,.F.);
#533=ADVANCED_FACE('',(#64),#511,.F.);
#534=ADVANCED_FACE('',(#65),#512,.T.);
#535=ADVANCED_FACE('',(#66),#513,.F.);
#536=ADVANCED_FACE('',(#67),#514,.F.);
#537=ADVANCED_FACE('',(#68),#515,.F.);
#538=ADVANCED_FACE('',(#69),#516,.T.);
#539=ADVANCED_FACE('',(#70),#27,.T.);
#540=ADVANCED_FACE('',(#71),#517,.F.);
#541=ADVANCED_FACE('',(#72),#518,.F.);
#542=ADVANCED_FACE('',(#73),#519,.F.);
#543=ADVANCED_FACE('',(#74),#520,.T.);
#544=ADVANCED_FACE('',(#75),#521,.F.);
#545=ADVANCED_FACE('',(#76),#522,.F.);
#546=ADVANCED_FACE('',(#77),#523,.F.);
#547=ADVANCED_FACE('',(#78),#524,.T.);
#548=ADVANCED_FACE('',(#79),#28,.T.);
#549=ADVANCED_FACE('',(#80),#29,.F.);
#550=ADVANCED_FACE('',(#81,#15),#525,.T.);
#551=ADVANCED_FACE('',(#82,#16),#526,.T.);
#552=ADVANCED_FACE('',(#83),#30,.F.);
#553=ADVANCED_FACE('',(#84),#527,.T.);
#554=ADVANCED_FACE('',(#85),#31,.F.);
#555=ADVANCED_FACE('',(#86,#17,#18,#19,#20,#21),#528,.T.);
#556=ADVANCED_FACE('',(#87),#32,.F.);
#557=ADVANCED_FACE('',(#88),#33,.F.);
#558=ADVANCED_FACE('',(#89),#34,.F.);
#559=ADVANCED_FACE('',(#90),#35,.F.);
#560=ADVANCED_FACE('',(#91,#22),#529,.T.);
#561=ADVANCED_FACE('',(#92,#23,#24,#25,#26),#530,.F.);
#562=CLOSED_SHELL('',(#531,#532,#533,#534,#535,#536,#537,#538,#539,#540,
#541,#542,#543,#544,#545,#546,#547,#548,#549,#550,#551,#552,#553,#554,#555,
#556,#557,#558,#559,#560,#561));
#563=DERIVED_UNIT_ELEMENT(#565,1.);
#564=DERIVED_UNIT_ELEMENT(#960,-3.);
#565=(
MASS_UNIT()
NAMED_UNIT(*)
SI_UNIT(.KILO.,.GRAM.)
);
#566=DERIVED_UNIT((#563,#564));
#567=MEASURE_REPRESENTATION_ITEM('density measure',
POSITIVE_RATIO_MEASURE(1060.),#566);
#568=PROPERTY_DEFINITION_REPRESENTATION(#573,#570);
#569=PROPERTY_DEFINITION_REPRESENTATION(#574,#571);
#570=REPRESENTATION('material name',(#572),#957);
#571=REPRESENTATION('density',(#567),#957);
#572=DESCRIPTIVE_REPRESENTATION_ITEM('ABS \X2\D50CB77CC2A4D2F1\X0\',
'ABS \X2\D50CB77CC2A4D2F1\X0\');
#573=PROPERTY_DEFINITION('material property','material name',#967);
#574=PROPERTY_DEFINITION('material property','density of part',#967);
#575=AXIS2_PLACEMENT_3D('',#798,#633,#634);
#576=AXIS2_PLACEMENT_3D('',#799,#635,#636);
#577=AXIS2_PLACEMENT_3D('',#808,#641,#642);
#578=AXIS2_PLACEMENT_3D('',#817,#647,#648);
#579=AXIS2_PLACEMENT_3D('',#820,#651,#652);
#580=AXIS2_PLACEMENT_3D('',#822,#653,#654);
#581=AXIS2_PLACEMENT_3D('',#823,#655,#656);
#582=AXIS2_PLACEMENT_3D('',#824,#657,#658);
#583=AXIS2_PLACEMENT_3D('',#833,#663,#664);
#584=AXIS2_PLACEMENT_3D('',#842,#669,#670);
#585=AXIS2_PLACEMENT_3D('',#845,#673,#674);
#586=AXIS2_PLACEMENT_3D('',#846,#675,#676);
#587=AXIS2_PLACEMENT_3D('',#847,#677,#678);
#588=AXIS2_PLACEMENT_3D('',#849,#679,#680);
#589=AXIS2_PLACEMENT_3D('',#852,#682,#683);
#590=AXIS2_PLACEMENT_3D('',#856,#685,#686);
#591=AXIS2_PLACEMENT_3D('',#859,#688,#689);
#592=AXIS2_PLACEMENT_3D('',#861,#690,#691);
#593=AXIS2_PLACEMENT_3D('',#865,#693,#694);
#594=AXIS2_PLACEMENT_3D('',#868,#696,#697);
#595=AXIS2_PLACEMENT_3D('',#869,#698,#699);
#596=AXIS2_PLACEMENT_3D('',#875,#703,#704);
#597=AXIS2_PLACEMENT_3D('',#881,#708,#709);
#598=AXIS2_PLACEMENT_3D('',#884,#712,#713);
#599=AXIS2_PLACEMENT_3D('',#885,#714,#715);
#600=AXIS2_PLACEMENT_3D('',#891,#719,#720);
#601=AXIS2_PLACEMENT_3D('',#897,#724,#725);
#602=AXIS2_PLACEMENT_3D('',#900,#728,#729);
#603=AXIS2_PLACEMENT_3D('',#901,#730,#731);
#604=AXIS2_PLACEMENT_3D('',#903,#732,#733);
#605=AXIS2_PLACEMENT_3D('',#906,#735,#736);
#606=AXIS2_PLACEMENT_3D('',#907,#737,#738);
#607=AXIS2_PLACEMENT_3D('',#909,#739,#740);
#608=AXIS2_PLACEMENT_3D('',#912,#742,#743);
#609=AXIS2_PLACEMENT_3D('',#913,#744,#745);
#610=AXIS2_PLACEMENT_3D('',#914,#746,#747);
#611=AXIS2_PLACEMENT_3D('',#915,#748,#749);
#612=AXIS2_PLACEMENT_3D('',#917,#750,#751);
#613=AXIS2_PLACEMENT_3D('',#920,#753,#754);
#614=AXIS2_PLACEMENT_3D('',#921,#755,#756);
#615=AXIS2_PLACEMENT_3D('',#922,#757,#758);
#616=AXIS2_PLACEMENT_3D('',#924,#759,#760);
#617=AXIS2_PLACEMENT_3D('',#927,#762,#763);
#618=AXIS2_PLACEMENT_3D('',#928,#764,#765);
#619=AXIS2_PLACEMENT_3D('',#930,#766,#767);
#620=AXIS2_PLACEMENT_3D('',#932,#768,#769);
#621=AXIS2_PLACEMENT_3D('',#934,#770,#771);
#622=AXIS2_PLACEMENT_3D('',#936,#772,#773);
#623=AXIS2_PLACEMENT_3D('',#937,#774,#775);
#624=AXIS2_PLACEMENT_3D('',#940,#777,#778);
#625=AXIS2_PLACEMENT_3D('',#941,#779,#780);
#626=AXIS2_PLACEMENT_3D('',#944,#782,#783);
#627=AXIS2_PLACEMENT_3D('',#945,#784,#785);
#628=AXIS2_PLACEMENT_3D('',#948,#787,#788);
#629=AXIS2_PLACEMENT_3D('',#949,#789,#790);
#630=AXIS2_PLACEMENT_3D('',#952,#792,#793);
#631=AXIS2_PLACEMENT_3D('',#953,#794,#795);
#632=AXIS2_PLACEMENT_3D('',#954,#796,#797);
#633=DIRECTION('axis',(0.,0.,1.));
#634=DIRECTION('refdir',(1.,0.,0.));
#635=DIRECTION('center_axis',(0.,-1.,0.));
#636=DIRECTION('ref_axis',(1.,0.,0.));
#637=DIRECTION('',(1.,0.,0.));
#638=DIRECTION('',(0.,0.,-1.));
#639=DIRECTION('',(1.,0.,0.));
#640=DIRECTION('',(0.,0.,1.));
#641=DIRECTION('center_axis',(-2.27229082314203E-16,1.,0.));
#642=DIRECTION('ref_axis',(-1.,-2.27229082314203E-16,0.));
#643=DIRECTION('',(-1.,-2.27229082314203E-16,0.));
#644=DIRECTION('',(0.,0.,1.));
#645=DIRECTION('',(-1.,-2.27229082314203E-16,0.));
#646=DIRECTION('',(0.,0.,1.));
#647=DIRECTION('center_axis',(1.,0.,0.));
#648=DIRECTION('ref_axis',(0.,1.,0.));
#649=DIRECTION('',(0.,1.,0.));
#650=DIRECTION('',(0.,1.,0.));
#651=DIRECTION('center_axis',(0.,0.,-1.));
#652=DIRECTION('ref_axis',(1.,0.,0.));
#653=DIRECTION('center_axis',(0.,0.,1.));
#654=DIRECTION('ref_axis',(1.,0.,0.));
#655=DIRECTION('center_axis',(0.,0.,1.));
#656=DIRECTION('ref_axis',(1.,0.,0.));
#657=DIRECTION('center_axis',(0.,1.,0.));
#658=DIRECTION('ref_axis',(-1.,0.,0.));
#659=DIRECTION('',(-1.,0.,0.));
#660=DIRECTION('',(0.,0.,-1.));
#661=DIRECTION('',(-1.,0.,0.));
#662=DIRECTION('',(0.,0.,1.));
#663=DIRECTION('center_axis',(-1.13614541157101E-16,-1.,0.));
#664=DIRECTION('ref_axis',(1.,-1.13614541157101E-16,0.));
#665=DIRECTION('',(1.,-1.13614541157101E-16,0.));
#666=DIRECTION('',(0.,0.,1.));
#667=DIRECTION('',(1.,-1.13614541157101E-16,0.));
#668=DIRECTION('',(0.,0.,1.));
#669=DIRECTION('center_axis',(-1.,0.,0.));
#670=DIRECTION('ref_axis',(0.,-1.,0.));
#671=DIRECTION('',(0.,-1.,0.));
#672=DIRECTION('',(0.,-1.,0.));
#673=DIRECTION('center_axis',(0.,0.,-1.));
#674=DIRECTION('ref_axis',(1.,0.,0.));
#675=DIRECTION('center_axis',(0.,0.,1.));
#676=DIRECTION('ref_axis',(1.,0.,0.));
#677=DIRECTION('center_axis',(0.,0.,1.));
#678=DIRECTION('ref_axis',(1.,0.,0.));
#679=DIRECTION('center_axis',(0.,0.,1.));
#680=DIRECTION('ref_axis',(1.,0.,0.));
#681=DIRECTION('',(0.,0.,-1.));
#682=DIRECTION('center_axis',(0.,0.,1.));
#683=DIRECTION('ref_axis',(1.,0.,0.));
#684=DIRECTION('',(0.,0.,1.));
#685=DIRECTION('center_axis',(0.,0.,1.));
#686=DIRECTION('ref_axis',(1.,0.,0.));
#687=DIRECTION('',(0.,0.,-1.));
#688=DIRECTION('center_axis',(0.,0.,1.));
#689=DIRECTION('ref_axis',(1.,0.,0.));
#690=DIRECTION('center_axis',(0.,0.,1.));
#691=DIRECTION('ref_axis',(1.,0.,0.));
#692=DIRECTION('',(0.,0.,1.));
#693=DIRECTION('center_axis',(0.,0.,1.));
#694=DIRECTION('ref_axis',(1.,0.,0.));
#695=DIRECTION('',(0.,0.,-1.));
#696=DIRECTION('center_axis',(0.,0.,1.));
#697=DIRECTION('ref_axis',(1.,0.,0.));
#698=DIRECTION('center_axis',(-1.,0.,0.));
#699=DIRECTION('ref_axis',(0.,-1.,0.));
#700=DIRECTION('',(0.,-1.,0.));
#701=DIRECTION('',(0.,-1.,0.));
#702=DIRECTION('',(0.,0.,1.));
#703=DIRECTION('center_axis',(1.,0.,0.));
#704=DIRECTION('ref_axis',(0.,1.,0.));
#705=DIRECTION('',(0.,1.,0.));
#706=DIRECTION('',(0.,0.,1.));
#707=DIRECTION('',(0.,1.,0.));
#708=DIRECTION('center_axis',(0.,-1.,0.));
#709=DIRECTION('ref_axis',(1.,0.,0.));
#710=DIRECTION('',(1.,0.,0.));
#711=DIRECTION('',(1.,0.,0.));
#712=DIRECTION('center_axis',(0.,0.,-1.));
#713=DIRECTION('ref_axis',(1.,0.,0.));
#714=DIRECTION('center_axis',(1.,0.,0.));
#715=DIRECTION('ref_axis',(0.,1.,0.));
#716=DIRECTION('',(0.,1.,0.));
#717=DIRECTION('',(0.,1.,0.));
#718=DIRECTION('',(0.,0.,1.));
#719=DIRECTION('center_axis',(-1.,0.,0.));
#720=DIRECTION('ref_axis',(0.,-1.,0.));
#721=DIRECTION('',(0.,-1.,0.));
#722=DIRECTION('',(0.,0.,1.));
#723=DIRECTION('',(0.,-1.,0.));
#724=DIRECTION('center_axis',(0.,1.,0.));
#725=DIRECTION('ref_axis',(-1.,0.,0.));
#726=DIRECTION('',(-1.,0.,0.));
#727=DIRECTION('',(-1.,0.,0.));
#728=DIRECTION('center_axis',(0.,0.,-1.));
#729=DIRECTION('ref_axis',(1.,0.,0.));
#730=DIRECTION('center_axis',(0.,0.,-1.));
#731=DIRECTION('ref_axis',(-1.,0.,0.));
#732=DIRECTION('center_axis',(0.,0.,1.));
#733=DIRECTION('ref_axis',(-1.,0.,0.));
#734=DIRECTION('',(0.,0.,-1.));
#735=DIRECTION('center_axis',(0.,0.,1.));
#736=DIRECTION('ref_axis',(-1.,0.,0.));
#737=DIRECTION('center_axis',(0.,0.,-1.));
#738=DIRECTION('ref_axis',(-1.,0.,0.));
#739=DIRECTION('center_axis',(0.,0.,-1.));
#740=DIRECTION('ref_axis',(-1.,0.,0.));
#741=DIRECTION('',(0.,0.,-1.));
#742=DIRECTION('center_axis',(0.,0.,-1.));
#743=DIRECTION('ref_axis',(-1.,0.,0.));
#744=DIRECTION('center_axis',(0.,0.,1.));
#745=DIRECTION('ref_axis',(-1.,0.,0.));
#746=DIRECTION('center_axis',(0.,0.,1.));
#747=DIRECTION('ref_axis',(1.,0.,0.));
#748=DIRECTION('center_axis',(0.,0.,-1.));
#749=DIRECTION('ref_axis',(-1.,0.,0.));
#750=DIRECTION('center_axis',(0.,0.,-1.));
#751=DIRECTION('ref_axis',(-1.,0.,0.));
#752=DIRECTION('',(0.,0.,-1.));
#753=DIRECTION('center_axis',(0.,0.,-1.));
#754=DIRECTION('ref_axis',(-1.,0.,0.));
#755=DIRECTION('center_axis',(0.,0.,1.));
#756=DIRECTION('ref_axis',(-1.,0.,0.));
#757=DIRECTION('center_axis',(0.,0.,-1.));
#758=DIRECTION('ref_axis',(-1.,0.,0.));
#759=DIRECTION('center_axis',(0.,0.,-1.));
#760=DIRECTION('ref_axis',(-1.,0.,0.));
#761=DIRECTION('',(0.,0.,-1.));
#762=DIRECTION('center_axis',(0.,0.,-1.));
#763=DIRECTION('ref_axis',(-1.,0.,0.));
#764=DIRECTION('center_axis',(0.,0.,1.));
#765=DIRECTION('ref_axis',(-1.,0.,0.));
#766=DIRECTION('center_axis',(0.,0.,1.));
#767=DIRECTION('ref_axis',(1.,0.,0.));
#768=DIRECTION('center_axis',(0.,0.,1.));
#769=DIRECTION('ref_axis',(1.,0.,0.));
#770=DIRECTION('center_axis',(0.,0.,1.));
#771=DIRECTION('ref_axis',(1.,0.,0.));
#772=DIRECTION('center_axis',(0.,0.,1.));
#773=DIRECTION('ref_axis',(1.,0.,0.));
#774=DIRECTION('center_axis',(0.,0.,1.));
#775=DIRECTION('ref_axis',(1.,0.,0.));
#776=DIRECTION('',(0.,0.,-1.));
#777=DIRECTION('center_axis',(0.,0.,1.));
#778=DIRECTION('ref_axis',(1.,0.,0.));
#779=DIRECTION('center_axis',(0.,0.,1.));
#780=DIRECTION('ref_axis',(1.,0.,0.));
#781=DIRECTION('',(0.,0.,-1.));
#782=DIRECTION('center_axis',(0.,0.,-1.));
#783=DIRECTION('ref_axis',(1.,0.,0.));
#784=DIRECTION('center_axis',(0.,0.,1.));
#785=DIRECTION('ref_axis',(1.,0.,0.));
#786=DIRECTION('',(0.,0.,-1.));
#787=DIRECTION('center_axis',(0.,0.,1.));
#788=DIRECTION('ref_axis',(1.,0.,0.));
#789=DIRECTION('center_axis',(0.,0.,1.));
#790=DIRECTION('ref_axis',(1.,0.,0.));
#791=DIRECTION('',(0.,0.,-1.));
#792=DIRECTION('center_axis',(0.,0.,1.));
#793=DIRECTION('ref_axis',(1.,0.,0.));
#794=DIRECTION('center_axis',(0.,0.,1.));
#795=DIRECTION('ref_axis',(1.,0.,0.));
#796=DIRECTION('center_axis',(0.,0.,1.));
#797=DIRECTION('ref_axis',(1.,0.,0.));
#798=CARTESIAN_POINT('',(0.,0.,0.));
#799=CARTESIAN_POINT('Origin',(-5.46718391793704,-0.500000007450581,0.));
#800=CARTESIAN_POINT('',(-5.46718391793704,-0.500000007450581,0.));
#801=CARTESIAN_POINT('',(-4.49,-0.500000007450581,0.));
#802=CARTESIAN_POINT('',(-2.73359195896852,-0.500000007450581,0.));
#803=CARTESIAN_POINT('',(-5.46718391793704,-0.500000007450581,1.));
#804=CARTESIAN_POINT('',(-5.46718391793704,-0.500000007450581,0.));
#805=CARTESIAN_POINT('',(-4.49,-0.500000007450581,1.));
#806=CARTESIAN_POINT('',(-4.49,-0.500000007450581,1.));
#807=CARTESIAN_POINT('',(-4.49,-0.500000007450581,0.));
#808=CARTESIAN_POINT('Origin',(-4.49,0.500000007450581,0.));
#809=CARTESIAN_POINT('',(-4.49,0.500000007450581,0.));
#810=CARTESIAN_POINT('',(-5.46718391793704,0.50000000745058,0.));
#811=CARTESIAN_POINT('',(-2.245,0.500000007450581,0.));
#812=CARTESIAN_POINT('',(-4.49,0.500000007450581,1.));
#813=CARTESIAN_POINT('',(-4.49,0.500000007450581,0.));
#814=CARTESIAN_POINT('',(-5.46718391793704,0.50000000745058,1.));
#815=CARTESIAN_POINT('',(-4.49,0.500000007450581,1.));
#816=CARTESIAN_POINT('',(-5.46718391793704,0.50000000745058,0.));
#817=CARTESIAN_POINT('Origin',(-4.49,-0.500000007450581,0.));
#818=CARTESIAN_POINT('',(-4.49,-0.25000000372529,0.));
#819=CARTESIAN_POINT('',(-4.49,-1.38777878078145E-15,1.));
#820=CARTESIAN_POINT('Origin',(-4.99,0.,1.));
#821=CARTESIAN_POINT('',(-5.49,-6.72331092731897E-16,1.));
#822=CARTESIAN_POINT('Origin',(0.,0.,1.));
#823=CARTESIAN_POINT('Origin',(0.,0.,1.));
#824=CARTESIAN_POINT('Origin',(5.46718391793704,0.500000007450581,0.));
#825=CARTESIAN_POINT('',(5.46718391793704,0.500000007450581,0.));
#826=CARTESIAN_POINT('',(4.49,0.500000007450581,0.));
#827=CARTESIAN_POINT('',(2.73359195896852,0.500000007450581,0.));
#828=CARTESIAN_POINT('',(5.46718391793704,0.500000007450581,1.));
#829=CARTESIAN_POINT('',(5.46718391793704,0.500000007450581,0.));
#830=CARTESIAN_POINT('',(4.49,0.500000007450581,1.));
#831=CARTESIAN_POINT('',(4.49,0.500000007450581,1.));
#832=CARTESIAN_POINT('',(4.49,0.500000007450581,0.));
#833=CARTESIAN_POINT('Origin',(4.49,-0.500000007450581,0.));
#834=CARTESIAN_POINT('',(4.49,-0.500000007450581,0.));
#835=CARTESIAN_POINT('',(5.46718391793705,-0.500000007450581,0.));
#836=CARTESIAN_POINT('',(2.245,-0.50000000745058,0.));
#837=CARTESIAN_POINT('',(4.49,-0.500000007450581,1.));
#838=CARTESIAN_POINT('',(4.49,-0.500000007450581,0.));
#839=CARTESIAN_POINT('',(5.46718391793705,-0.500000007450581,1.));
#840=CARTESIAN_POINT('',(4.49,-0.500000007450581,1.));
#841=CARTESIAN_POINT('',(5.46718391793704,-0.500000007450581,0.));
#842=CARTESIAN_POINT('Origin',(4.49,0.500000007450581,0.));
#843=CARTESIAN_POINT('',(4.49,0.25000000372529,0.));
#844=CARTESIAN_POINT('',(4.49,-2.72004641033163E-15,1.));
#845=CARTESIAN_POINT('Origin',(4.99,0.,1.));
#846=CARTESIAN_POINT('Origin',(0.,0.,1.));
#847=CARTESIAN_POINT('Origin',(0.,0.,0.));
#848=CARTESIAN_POINT('',(-5.49,-6.66133814775094E-16,1.5));
#849=CARTESIAN_POINT('Origin',(0.,0.,1.5));
#850=CARTESIAN_POINT('',(-5.49,-6.72331092731897E-16,0.));
#851=CARTESIAN_POINT('',(-0.500000007450581,-5.46718391793704,0.));
#852=CARTESIAN_POINT('Origin',(0.,0.,0.));
#853=CARTESIAN_POINT('',(-0.500000007450581,-5.46718391793704,1.));
#854=CARTESIAN_POINT('',(-0.500000007450581,-5.46718391793704,0.));
#855=CARTESIAN_POINT('',(0.500000007450581,-5.46718391793704,1.));
#856=CARTESIAN_POINT('Origin',(0.,0.,1.));
#857=CARTESIAN_POINT('',(0.500000007450581,-5.46718391793704,0.));
#858=CARTESIAN_POINT('',(0.500000007450581,-5.46718391793704,0.));
#859=CARTESIAN_POINT('Origin',(0.,0.,0.));
#860=CARTESIAN_POINT('',(0.500000007450581,5.46718391793704,0.));
#861=CARTESIAN_POINT('Origin',(0.,0.,0.));
#862=CARTESIAN_POINT('',(0.500000007450581,5.46718391793704,1.));
#863=CARTESIAN_POINT('',(0.500000007450581,5.46718391793704,0.));
#864=CARTESIAN_POINT('',(-0.500000007450581,5.46718391793704,1.));
#865=CARTESIAN_POINT('Origin',(0.,0.,1.));
#866=CARTESIAN_POINT('',(-0.500000007450581,5.46718391793704,0.));
#867=CARTESIAN_POINT('',(-0.500000007450581,5.46718391793704,0.));
#868=CARTESIAN_POINT('Origin',(0.,0.,0.));
#869=CARTESIAN_POINT('Origin',(-0.500000007450581,5.46718391793704,0.));
#870=CARTESIAN_POINT('',(-0.500000007450581,4.49,0.));
#871=CARTESIAN_POINT('',(-0.500000007450581,2.73359195896852,0.));
#872=CARTESIAN_POINT('',(-0.500000007450581,4.49,1.));
#873=CARTESIAN_POINT('',(-0.500000007450581,4.49,1.));
#874=CARTESIAN_POINT('',(-0.500000007450581,4.49,0.));
#875=CARTESIAN_POINT('Origin',(0.500000007450581,4.49,0.));
#876=CARTESIAN_POINT('',(0.500000007450581,4.49,0.));
#877=CARTESIAN_POINT('',(0.500000007450581,2.245,0.));
#878=CARTESIAN_POINT('',(0.500000007450581,4.49,1.));
#879=CARTESIAN_POINT('',(0.500000007450581,4.49,0.));
#880=CARTESIAN_POINT('',(0.500000007450581,4.49,1.));
#881=CARTESIAN_POINT('Origin',(-0.500000007450581,4.49,0.));
#882=CARTESIAN_POINT('',(-0.25000000372529,4.49,0.));
#883=CARTESIAN_POINT('',(1.89848137210902E-14,4.49,1.));
#884=CARTESIAN_POINT('Origin',(0.,4.99,1.));
#885=CARTESIAN_POINT('Origin',(0.500000007450581,-5.46718391793704,0.));
#886=CARTESIAN_POINT('',(0.500000007450581,-4.49,0.));
#887=CARTESIAN_POINT('',(0.500000007450581,-2.73359195896852,0.));
#888=CARTESIAN_POINT('',(0.500000007450581,-4.49,1.));
#889=CARTESIAN_POINT('',(0.500000007450581,-4.49,1.));
#890=CARTESIAN_POINT('',(0.500000007450581,-4.49,0.));
#891=CARTESIAN_POINT('Origin',(-0.500000007450581,-4.49,0.));
#892=CARTESIAN_POINT('',(-0.500000007450581,-4.49,0.));
#893=CARTESIAN_POINT('',(-0.500000007450581,-2.245,0.));
#894=CARTESIAN_POINT('',(-0.500000007450581,-4.49,1.));
#895=CARTESIAN_POINT('',(-0.500000007450581,-4.49,0.));
#896=CARTESIAN_POINT('',(-0.500000007450581,-4.49,1.));
#897=CARTESIAN_POINT('Origin',(0.500000007450581,-4.49,0.));
#898=CARTESIAN_POINT('',(0.25000000372529,-4.49,0.));
#899=CARTESIAN_POINT('',(0.,-4.49,1.));
#900=CARTESIAN_POINT('Origin',(-1.11022302462516E-16,-4.99,1.));
#901=CARTESIAN_POINT('Origin',(0.,0.,1.5));
#902=CARTESIAN_POINT('',(2.,2.44929359829471E-16,1.5));
#903=CARTESIAN_POINT('Origin',(0.,0.,1.5));
#904=CARTESIAN_POINT('',(2.,2.44929359829471E-16,1.38));
#905=CARTESIAN_POINT('',(2.,-2.44929359829471E-16,1.5));
#906=CARTESIAN_POINT('Origin',(0.,0.,1.38));
#907=CARTESIAN_POINT('Origin',(0.,0.,1.5));
#908=CARTESIAN_POINT('',(5.,6.12323399573677E-16,1.5));
#909=CARTESIAN_POINT('Origin',(0.,0.,1.5));
#910=CARTESIAN_POINT('',(5.,6.12323399573677E-16,1.38));
#911=CARTESIAN_POINT('',(5.,-6.12323399573677E-16,1.5));
#912=CARTESIAN_POINT('Origin',(0.,0.,1.38));
#913=CARTESIAN_POINT('Origin',(0.,0.,1.38));
#914=CARTESIAN_POINT('Origin',(0.,0.,1.5));
#915=CARTESIAN_POINT('Origin',(0.,0.,1.5));
#916=CARTESIAN_POINT('',(0.4,-4.89858719658941E-17,1.19));
#917=CARTESIAN_POINT('Origin',(0.,0.,1.19));
#918=CARTESIAN_POINT('',(0.4,4.89858719658941E-17,1.));
#919=CARTESIAN_POINT('',(0.4,-4.89858719658941E-17,1.5));
#920=CARTESIAN_POINT('Origin',(0.,0.,1.));
#921=CARTESIAN_POINT('Origin',(0.,0.,1.));
#922=CARTESIAN_POINT('Origin',(0.,0.,1.5));
#923=CARTESIAN_POINT('',(1.61,1.97168134662724E-16,1.5));
#924=CARTESIAN_POINT('Origin',(0.,0.,1.5));
#925=CARTESIAN_POINT('',(1.61,1.97168134662724E-16,1.19));
#926=CARTESIAN_POINT('',(1.61,-1.97168134662724E-16,1.5));
#927=CARTESIAN_POINT('Origin',(0.,0.,1.19));
#928=CARTESIAN_POINT('Origin',(0.,0.,1.19));
#929=CARTESIAN_POINT('',(-0.21,-1.20000001788139,1.19));
#930=CARTESIAN_POINT('Origin',(0.,-1.20000001788139,1.19));
#931=CARTESIAN_POINT('',(-1.41000001788139,-2.57175827820944E-17,1.19));
#932=CARTESIAN_POINT('Origin',(-1.20000001788139,0.,1.19));
#933=CARTESIAN_POINT('',(-0.21,1.20000001788139,1.19));
#934=CARTESIAN_POINT('Origin',(0.,1.20000001788139,1.19));
#935=CARTESIAN_POINT('',(0.990000017881393,-2.57175827820944E-17,1.19));
#936=CARTESIAN_POINT('Origin',(1.20000001788139,0.,1.19));
#937=CARTESIAN_POINT('Origin',(0.,-1.20000001788139,0.));
#938=CARTESIAN_POINT('',(-0.21,-1.20000001788139,0.));
#939=CARTESIAN_POINT('',(-0.21,-1.20000001788139,0.));
#940=CARTESIAN_POINT('Origin',(0.,-1.20000001788139,0.));
#941=CARTESIAN_POINT('Origin',(-1.20000001788139,0.,0.));
#942=CARTESIAN_POINT('',(-1.41000001788139,-2.57175827820944E-17,0.));
#943=CARTESIAN_POINT('',(-1.41000001788139,-2.57175827820944E-17,0.));
#944=CARTESIAN_POINT('Origin',(-1.20000001788139,0.,0.));
#945=CARTESIAN_POINT('Origin',(0.,1.20000001788139,0.));
#946=CARTESIAN_POINT('',(-0.21,1.20000001788139,0.));
#947=CARTESIAN_POINT('',(-0.21,1.20000001788139,0.));
#948=CARTESIAN_POINT('Origin',(0.,1.20000001788139,0.));
#949=CARTESIAN_POINT('Origin',(1.20000001788139,0.,0.));
#950=CARTESIAN_POINT('',(0.990000017881393,-2.57175827820944E-17,0.));
#951=CARTESIAN_POINT('',(0.990000017881393,-2.57175827820944E-17,0.));
#952=CARTESIAN_POINT('Origin',(1.20000001788139,0.,0.));
#953=CARTESIAN_POINT('Origin',(0.,0.,1.5));
#954=CARTESIAN_POINT('Origin',(0.,0.,0.));
#955=UNCERTAINTY_MEASURE_WITH_UNIT(LENGTH_MEASURE(0.001),#959,
'DISTANCE_ACCURACY_VALUE',
'Maximum model space distance between geometric entities at asserted c
onnectivities');
#956=UNCERTAINTY_MEASURE_WITH_UNIT(LENGTH_MEASURE(0.001),#959,
'DISTANCE_ACCURACY_VALUE',
'Maximum model space distance between geometric entities at asserted c
onnectivities');
#957=(
GEOMETRIC_REPRESENTATION_CONTEXT(3)
GLOBAL_UNCERTAINTY_ASSIGNED_CONTEXT((#955))
GLOBAL_UNIT_ASSIGNED_CONTEXT((#959,#961,#962))
REPRESENTATION_CONTEXT('','3D')
);
#958=(
GEOMETRIC_REPRESENTATION_CONTEXT(3)
GLOBAL_UNCERTAINTY_ASSIGNED_CONTEXT((#956))
GLOBAL_UNIT_ASSIGNED_CONTEXT((#959,#961,#962))
REPRESENTATION_CONTEXT('','3D')
);
#959=(
LENGTH_UNIT()
NAMED_UNIT(*)
SI_UNIT(.CENTI.,.METRE.)
);
#960=(
LENGTH_UNIT()
NAMED_UNIT(*)
SI_UNIT($,.METRE.)
);
#961=(
NAMED_UNIT(*)
PLANE_ANGLE_UNIT()
SI_UNIT($,.RADIAN.)
);
#962=(
NAMED_UNIT(*)
SI_UNIT($,.STERADIAN.)
SOLID_ANGLE_UNIT()
);
#963=SHAPE_DEFINITION_REPRESENTATION(#964,#965);
#964=PRODUCT_DEFINITION_SHAPE('',$,#967);
#965=SHAPE_REPRESENTATION('',(#575),#957);
#966=PRODUCT_DEFINITION_CONTEXT('part definition',#971,'design');
#967=PRODUCT_DEFINITION('2026-07-07-15-58-29-094','wheel hub-n',#968,#966);
#968=PRODUCT_DEFINITION_FORMATION('',$,#973);
#969=PRODUCT_RELATED_PRODUCT_CATEGORY('wheel hub-n','wheel hub-n',(#973));
#970=APPLICATION_PROTOCOL_DEFINITION('international standard',
'automotive_design',2009,#971);
#971=APPLICATION_CONTEXT(
'Core Data for Automotive Mechanical Design Process');
#972=PRODUCT_CONTEXT('part definition',#971,'mechanical');
#973=PRODUCT('2026-07-07-15-58-29-094','wheel hub-n',$,(#972));
#974=PRESENTATION_STYLE_ASSIGNMENT((#975));
#975=SURFACE_STYLE_USAGE(.BOTH.,#976);
#976=SURFACE_SIDE_STYLE('',(#977));
#977=SURFACE_STYLE_FILL_AREA(#978);
#978=FILL_AREA_STYLE('ABS(\X2\D770C0C9\X0\)',(#979));
#979=FILL_AREA_STYLE_COLOUR('ABS(\X2\D770C0C9\X0\)',#980);
#980=COLOUR_RGB('ABS(\X2\D770C0C9\X0\)',0.964705882352941,0.964705882352941,
0.952941176470588);
ENDSEC;
END-ISO-10303-21;
